<svg width="674" height="456" viewBox="0 0 674 456" fill="none" xmlns="http://www.w3.org/2000/svg">
<g filter="url(#filter0_d)">
<path d="M175.737 440.176C161.636 437.915 -7.8178 417.528 4.6557 267.17C17.1292 116.812 32.7859 71.5952 98.6675 55.0524C164.549 38.5095 324.691 -39.7713 450.358 34.6605C576.026 109.092 711.629 175.848 657.818 294.692C604.007 413.536 595.196 453.184 454.799 447.118C314.402 441.052 242.8 450.939 175.737 440.176Z" fill="#F0F9FC"/>
<path d="M416.85 66.2192H227.397C218.929 66.2192 212 59.2933 212 50.8289C212 42.3644 218.929 35.4385 227.397 35.4385H416.85C425.318 35.4385 432.247 42.3644 432.247 50.8289C432.247 59.2933 425.318 66.2192 416.85 66.2192Z" fill="white"/>
<path d="M435.353 24.8123H357.335C350.582 24.8123 345.054 19.287 345.054 12.5375C345.054 5.78801 350.582 0.262695 357.335 0.262695H435.353C442.106 0.262695 447.634 5.78801 447.634 12.5375C447.634 19.287 442.106 24.8123 435.353 24.8123Z" fill="white"/>
<path d="M449.951 100.298H371.932C365.18 100.298 359.652 94.7723 359.652 88.0229C359.652 81.2734 365.18 75.748 371.932 75.748H449.951C456.703 75.748 462.231 81.2734 462.231 88.0229C462.231 94.7723 456.703 100.298 449.951 100.298Z" fill="white"/>
<path d="M408.967 76.7238C405.165 76.7238 402.082 74.3747 402.082 71.4742C402.082 68.5737 405.165 66.2246 408.967 66.2246H378.917C382.718 66.2246 385.801 68.5737 385.801 71.4742C385.801 74.3747 382.718 76.7238 378.917 76.7238H408.967Z" fill="white"/>
<path d="M418.703 35.7749C414.731 35.7749 411.515 33.321 411.515 30.2937C411.515 27.2664 414.731 24.8125 418.703 24.8125H387.335C391.307 24.8125 394.523 27.2664 394.523 30.2937C394.523 33.321 391.307 35.7749 387.335 35.7749H418.703Z" fill="white"/>
<path d="M257.381 276.843H446.834C455.302 276.843 462.231 283.769 462.231 292.233C462.231 300.698 455.302 307.624 446.834 307.624H257.381C248.913 307.624 241.984 300.698 241.984 292.233C241.984 283.763 248.913 276.843 257.381 276.843Z" fill="white"/>
<path d="M238.878 318.244H316.896C323.649 318.244 329.177 323.769 329.177 330.518C329.177 337.268 323.649 342.793 316.896 342.793H238.878C232.125 342.793 226.597 337.268 226.597 330.518C226.597 323.769 232.12 318.244 238.878 318.244Z" fill="white"/>
<path d="M224.28 242.765H302.299C309.052 242.765 314.579 248.29 314.579 255.039C314.579 261.789 309.052 267.314 302.299 267.314H224.28C217.528 267.314 212 261.789 212 255.039C211.994 248.284 217.522 242.765 224.28 242.765Z" fill="white"/>
<path d="M265.259 266.338C269.06 266.338 272.144 268.687 272.144 271.588C272.144 274.488 269.06 276.838 265.259 276.838H295.309C291.508 276.838 288.424 274.488 288.424 271.588C288.424 268.687 291.508 266.338 295.309 266.338H265.259Z" fill="white"/>
<path d="M255.528 307.282C259.5 307.282 262.716 309.736 262.716 312.763C262.716 315.79 259.5 318.244 255.528 318.244H286.896C282.924 318.244 279.708 315.79 279.708 312.763C279.708 309.736 282.924 307.282 286.896 307.282H255.528Z" fill="white"/>
<path d="M570.932 379.783V104.141C570.932 99.1504 566.85 95.0698 561.857 95.0698H107.725C102.732 95.0698 98.6497 99.1504 98.6497 104.141V379.783H570.932Z" fill="white"/>
<path d="M576.73 385.579V109.931C576.73 104.94 572.648 100.86 567.655 100.86H113.523C108.53 100.86 104.448 104.94 104.448 109.931V385.573H576.73V385.579Z" fill="#BBDFF5"/>
<path d="M570.932 380.886H98.6497C98.0429 380.886 97.5464 380.39 97.5464 379.783V104.141C97.5464 98.5271 102.114 93.9668 107.725 93.9668H561.857C567.473 93.9668 572.036 98.5326 572.036 104.141V379.783C572.036 380.395 571.545 380.886 570.932 380.886ZM99.7531 378.68H569.834V104.141C569.834 99.7458 566.26 96.1725 561.863 96.1725H107.725C103.328 96.1725 99.7531 99.7458 99.7531 104.141V378.68Z" fill="#6A79A8"/>
<path d="M594.643 408.838H74.8998C60.6775 408.838 49.1033 397.269 49.1033 383.053V381.504C49.1033 380.671 49.7818 379.993 50.6149 379.993H618.967C619.8 379.993 620.479 380.671 620.479 381.504V383.014C620.479 397.258 608.888 408.838 594.643 408.838Z" fill="white"/>
<path d="M600.442 414.634H80.6982C66.4759 414.634 54.9016 403.065 54.9016 388.849V387.299C54.9016 386.467 55.5802 385.789 56.4132 385.789H624.76C625.593 385.789 626.271 386.467 626.271 387.299V388.81C626.271 403.048 614.686 414.634 600.442 414.634Z" fill="#BBDFF5"/>
<path d="M594.644 409.941H74.8999C60.0653 409.941 48 397.875 48 383.053V381.503C48 380.059 49.1751 378.89 50.615 378.89H618.967C620.413 378.89 621.582 380.064 621.582 381.503V383.02C621.582 397.864 609.5 409.941 594.644 409.941ZM50.615 381.095C50.3888 381.095 50.2067 381.277 50.2067 381.503V383.053C50.2067 396.662 61.2845 407.735 74.8999 407.735H594.644C608.281 407.735 619.37 396.646 619.37 383.02V381.503C619.37 381.277 619.188 381.095 618.962 381.095H50.615Z" fill="#6A79A8"/>
<path d="M269.119 380.004C269.842 384.361 273.637 387.691 278.2 387.691H391.388C395.95 387.691 399.746 384.361 400.469 380.004H269.119Z" fill="white"/>
<path d="M391.382 388.794H278.2C273.135 388.794 268.86 385.171 268.032 380.186C267.977 379.866 268.071 379.541 268.28 379.293C268.49 379.045 268.799 378.901 269.124 378.901H400.468C400.794 378.901 401.103 379.045 401.313 379.293C401.522 379.541 401.61 379.866 401.561 380.186C400.722 385.171 396.447 388.794 391.382 388.794ZM270.526 381.107C271.624 384.349 274.663 386.588 278.194 386.588H391.382C394.913 386.588 397.958 384.349 399.051 381.107H270.526Z" fill="#6A79A8"/>
<path d="M544.992 116.972H124.59V366.725H544.992V116.972Z" fill="#F0F9FC"/>
<path d="M544.992 367.828H124.59C123.983 367.828 123.486 367.332 123.486 366.725V116.972C123.486 116.365 123.983 115.869 124.59 115.869H544.992C545.599 115.869 546.096 116.365 546.096 116.972V366.725C546.096 367.337 545.599 367.828 544.992 367.828ZM125.693 365.622H543.889V118.075H125.693V365.622Z" fill="#6A79A8"/>
<path d="M264.5 175.495L264.506 343.416C264.506 347.502 267.833 350.816 271.937 350.816L423.302 350.811C427.406 350.811 430.727 347.497 430.727 343.411V317.24L430.6 302.815L430.595 143.347C430.595 139.261 427.268 135.947 423.164 135.947L304.05 135.952L264.495 175.462L264.5 175.495Z" fill="white"/>
<path d="M271.937 351.925C267.232 351.925 263.403 348.109 263.403 343.422L263.397 175.501C263.397 175.495 263.397 175.49 263.397 175.484V175.451C263.403 175.165 263.519 174.889 263.723 174.69L303.278 135.18C303.488 134.971 303.764 134.855 304.056 134.855L423.17 134.85C427.875 134.85 431.699 138.666 431.699 143.353L431.704 302.82L431.831 317.235V343.416C431.831 348.104 428.002 351.92 423.302 351.92L271.937 351.925ZM265.604 175.92L265.61 343.422C265.61 346.896 268.445 349.719 271.937 349.719L423.302 349.714C426.789 349.714 429.624 346.89 429.624 343.416V317.246L429.497 302.831L429.492 143.353C429.492 139.879 426.656 137.055 423.17 137.055L304.514 137.061L265.604 175.92ZM264.539 175.495H264.506H264.539Z" fill="#6A79A8"/>
<path d="M264.501 176.682C264.054 176.682 263.651 176.412 263.48 176.004C263.309 175.59 263.403 175.116 263.717 174.802L303.355 135.176C303.67 134.862 304.144 134.768 304.558 134.939C304.972 135.11 305.237 135.512 305.237 135.959V167.787C305.237 170.164 304.31 172.397 302.627 174.079C300.945 175.761 298.71 176.687 296.332 176.687L264.501 176.682ZM303.035 138.617L267.165 174.476H296.343C298.131 174.476 299.814 173.781 301.077 172.519C302.34 171.256 303.035 169.574 303.035 167.787V138.617Z" fill="#6A79A8"/>
<path d="M380.833 255.353H311.084C310.168 255.353 309.429 254.614 309.429 253.699C309.429 252.783 310.168 252.044 311.084 252.044H380.833C381.749 252.044 382.488 252.783 382.488 253.699C382.488 254.614 381.749 255.353 380.833 255.353Z" fill="#BBDFF5"/>
<path d="M411.606 300.989H280.312C279.705 300.989 279.208 300.493 279.208 299.887C279.208 299.28 279.705 298.784 280.312 298.784H411.606C412.213 298.784 412.709 299.28 412.709 299.887C412.709 300.493 412.213 300.989 411.606 300.989Z" fill="#6A79A8"/>
<path d="M411.606 282.511H280.312C279.705 282.511 279.208 282.015 279.208 281.408C279.208 280.801 279.705 280.305 280.312 280.305H411.606C412.213 280.305 412.709 280.801 412.709 281.408C412.709 282.015 412.213 282.511 411.606 282.511Z" fill="#6A79A8"/>
<path d="M346.453 319.462H280.312C279.705 319.462 279.208 318.966 279.208 318.359C279.208 317.753 279.705 317.256 280.312 317.256H346.453C347.059 317.256 347.556 317.753 347.556 318.359C347.556 318.966 347.059 319.462 346.453 319.462Z" fill="#6A79A8"/>
<path d="M321.721 216.731C321.439 216.731 321.158 216.626 320.943 216.411C320.507 215.981 320.507 215.287 320.932 214.851C321.34 214.437 331.143 204.705 347.683 204.705C364.2 204.705 373.843 213.599 374.246 213.98C374.687 214.399 374.71 215.094 374.29 215.54C373.871 215.987 373.176 216.003 372.729 215.59C372.635 215.502 363.279 206.916 347.677 206.916C332.054 206.916 322.587 216.312 322.493 216.406C322.294 216.621 322.007 216.731 321.721 216.731Z" fill="#6A79A8"/>
<path d="M317.682 194.239C317.682 192.138 315.978 190.439 313.881 190.439C311.779 190.439 310.08 192.143 310.08 194.239C310.08 196.34 311.785 198.038 313.881 198.038C315.983 198.038 317.682 196.34 317.682 194.239Z" fill="#6A79A8"/>
<path d="M384.116 194.239C384.116 192.138 382.411 190.439 380.315 190.439C378.213 190.439 376.514 192.143 376.514 194.239C376.514 196.34 378.218 198.038 380.315 198.038C382.417 198.038 384.116 196.34 384.116 194.239Z" fill="#6A79A8"/>
<path d="M335.413 108.833L228.454 121.599C223.235 122.222 218.501 118.5 217.878 113.283L212.168 65.4964C211.545 60.2799 215.268 55.5486 220.487 54.9255L327.447 42.1599C332.666 41.5368 337.399 45.2589 338.023 50.4754L343.733 98.2623C344.356 103.479 340.632 108.21 335.413 108.833Z" fill="white"/>
<path d="M339.639 113.057L232.68 125.823C227.461 126.446 222.727 122.724 222.104 117.507L216.394 69.7205C215.771 64.504 219.494 59.7727 224.713 59.1496L331.673 46.384C336.892 45.7609 341.625 49.4831 342.249 54.6996L347.959 102.486C348.582 107.703 344.858 112.434 339.639 113.057Z" fill="#FF9C81"/>
<path d="M227.306 122.768C224.939 122.768 222.65 121.979 220.763 120.496C218.534 118.742 217.122 116.228 216.786 113.41L211.076 65.6233C210.381 59.8113 214.546 54.5176 220.361 53.8228L327.32 41.0572C333.135 40.3624 338.431 44.5257 339.126 50.3377L344.836 98.1245C345.531 103.937 341.366 109.23 335.551 109.925L228.592 122.691C228.156 122.746 227.731 122.768 227.306 122.768ZM328.584 43.1967C328.253 43.1967 327.916 43.2188 327.58 43.2574L220.62 56.023C216.013 56.5744 212.714 60.7652 213.266 65.3697L218.97 113.151C219.235 115.379 220.355 117.375 222.12 118.765C223.886 120.154 226.087 120.772 228.321 120.507L335.281 107.741C339.888 107.19 343.187 102.999 342.635 98.3947L336.925 50.6079C336.423 46.3399 332.782 43.1967 328.584 43.1967Z" fill="#6A79A8"/>
<path d="M248.149 101.129L247.514 95.8244L233.182 97.5339C231.372 97.7489 229.971 97.5008 228.967 96.7894C227.963 96.0781 227.378 95.0194 227.212 93.6132C227.168 93.2548 227.19 92.8798 227.279 92.4938C227.367 92.1078 227.521 91.6942 227.737 91.2531C227.952 90.812 228.183 90.3874 228.421 89.9683C228.658 89.5547 228.956 89.0474 229.309 88.4463L242.02 66.4112C242.847 64.961 243.548 63.8967 244.116 63.224C244.684 62.5512 245.412 62.1597 246.306 62.0494C249.197 61.702 250.841 63.1854 251.238 66.494L253.875 88.5787L255.1 88.4298C256.567 88.2533 257.765 88.314 258.697 88.6063C259.629 88.8985 260.175 89.7201 260.335 91.0711C260.468 92.174 260.203 93.0232 259.541 93.6132C258.879 94.2032 257.825 94.5837 256.38 94.7602L254.637 94.9697L255.271 100.274C255.448 101.741 255.254 102.866 254.692 103.655C254.129 104.443 253.307 104.906 252.22 105.033C251.155 105.16 250.251 104.895 249.506 104.245C248.778 103.6 248.32 102.557 248.149 101.129ZM234.478 90.8947L246.753 89.4279L244.773 72.8519L234.478 90.8947Z" fill="white"/>
<path d="M292.377 78.7196C292.752 81.8407 292.879 84.5427 292.769 86.8366C292.658 89.1251 292.195 91.2481 291.384 93.1946C290.358 95.5933 288.89 97.5233 286.981 98.9846C285.073 100.446 282.86 101.328 280.35 101.626C277.459 101.973 274.767 101.461 272.279 100.099C269.791 98.7365 267.794 96.6797 266.288 93.928C265.51 92.4226 264.87 90.7242 264.363 88.8494C263.861 86.969 263.474 84.9177 263.21 82.6954C262.867 79.8225 262.707 77.2197 262.741 74.8817C262.768 72.5436 263.011 70.5088 263.458 68.7774C264.252 65.9044 265.637 63.6215 267.606 61.9286C269.576 60.2357 272.047 59.2156 275.015 58.8572C276.974 58.6256 278.794 58.7303 280.466 59.177C282.143 59.6237 283.655 60.3901 285.012 61.4709C286.369 62.5517 287.572 63.9469 288.625 65.6563C290.435 68.623 291.687 72.9792 292.377 78.7196ZM284.488 79.0836C284.074 75.604 283.522 72.7807 282.838 70.6136C282.154 68.4465 281.249 66.8584 280.124 65.8438C278.999 64.8291 277.559 64.4266 275.81 64.6361C273.3 64.9339 271.705 66.4117 271.027 69.0586C270.348 71.7055 270.326 75.6647 270.955 80.9309C271.38 84.5096 271.943 87.4101 272.632 89.6434C273.322 91.8767 274.232 93.52 275.363 94.5677C276.494 95.6209 277.906 96.0455 279.6 95.8415C281.349 95.6319 282.651 94.8599 283.495 93.5255C284.339 92.191 284.824 90.3658 284.957 88.0553C285.078 85.7448 284.924 82.7561 284.488 79.0836Z" fill="white"/>
<path d="M317.628 92.8416L316.993 87.5369L302.66 89.2463C300.851 89.4614 299.45 89.2132 298.446 88.5019C297.442 87.7905 296.857 86.7318 296.691 85.3256C296.647 84.9672 296.669 84.5922 296.757 84.2062C296.846 83.8202 297 83.4067 297.215 82.9655C297.431 82.5244 297.662 82.0998 297.899 81.6807C298.137 81.2671 298.435 80.7598 298.788 80.1588L311.498 58.1236C312.326 56.6734 313.027 55.6091 313.595 54.9364C314.163 54.2636 314.891 53.8721 315.785 53.7618C318.676 53.4144 320.32 54.8978 320.717 58.2064L323.354 80.2911L324.579 80.1422C326.046 79.9658 327.243 80.0264 328.176 80.3187C329.108 80.6109 329.654 81.4326 329.814 82.7836C329.947 83.8864 329.682 84.7356 329.02 85.3256C328.358 85.9157 327.304 86.2962 325.859 86.4726L324.115 86.6821L324.75 91.9869C324.926 93.4537 324.733 94.5786 324.17 95.3672C323.608 96.1557 322.786 96.6189 321.699 96.7457C320.634 96.8726 319.729 96.6079 318.985 95.9572C318.256 95.3065 317.799 94.2643 317.628 92.8416ZM303.957 82.6071L316.232 81.1403L314.251 64.5643L303.957 82.6071Z" fill="white"/>
<path d="M461.947 245.466C461.903 245.466 461.864 245.466 461.82 245.461C435.135 242.45 429.541 222.4 429.547 218.578C429.547 217.972 430.043 217.476 430.65 217.476C431.257 217.476 431.754 217.972 431.754 218.578C431.754 218.794 434.468 240.15 462.068 243.266C462.675 243.332 463.111 243.878 463.039 244.485C462.979 245.053 462.499 245.466 461.947 245.466Z" fill="#6A79A8"/>
<path d="M264.5 220.63C264.489 220.63 264.473 220.63 264.462 220.63C263.392 220.592 257.897 219.687 250.548 215.915C244.16 212.64 234.859 206.321 226.81 194.834C226.462 194.338 226.583 193.649 227.08 193.296C227.576 192.943 228.266 193.07 228.619 193.566C244.331 215.976 264.346 218.419 264.539 218.424C265.146 218.446 265.626 218.954 265.604 219.566C265.587 220.161 265.096 220.63 264.5 220.63Z" fill="#6A79A8"/>
<path d="M230.076 219.301C229.524 219.301 229.05 218.888 228.983 218.325L215.815 105.784C215.743 105.178 216.179 104.632 216.78 104.56C217.387 104.488 217.933 104.924 218.005 105.525L231.174 218.066C231.245 218.673 230.81 219.218 230.208 219.29C230.164 219.301 230.12 219.301 230.076 219.301Z" fill="#6A79A8"/>
<path d="M340.715 369.632C340.108 369.632 339.612 369.136 339.612 368.529V350.823C339.612 350.216 340.108 349.72 340.715 349.72C341.322 349.72 341.819 350.216 341.819 350.823V368.529C341.819 369.136 341.322 369.632 340.715 369.632Z" fill="#6A79A8"/>
<path d="M354.518 369.632C353.911 369.632 353.415 369.136 353.415 368.529V350.823C353.415 350.216 353.911 349.72 354.518 349.72C355.125 349.72 355.622 350.216 355.622 350.823V368.529C355.622 369.136 355.125 369.632 354.518 369.632Z" fill="#6A79A8"/>
</g>
<defs>
<filter id="filter0_d" x="0" y="0.262695" width="673.93" height="455.45" filterUnits="userSpaceOnUse" color-interpolation-filters="sRGB">
<feFlood flood-opacity="0" result="BackgroundImageFix"/>
<feColorMatrix in="SourceAlpha" type="matrix" values="0 0 0 0 0 0 0 0 0 0 0 0 0 0 0 0 0 0 127 0"/>
<feOffset dy="4"/>
<feGaussianBlur stdDeviation="2"/>
<feColorMatrix type="matrix" values="0 0 0 0 0 0 0 0 0 0 0 0 0 0 0 0 0 0 0.25 0"/>
<feBlend mode="normal" in2="BackgroundImageFix" result="effect1_dropShadow"/>
<feBlend mode="normal" in="SourceGraphic" in2="effect1_dropShadow" result="shape"/>
</filter>
</defs>
</svg>
