<svg width="226" height="190" viewBox="0 0 226 190" fill="none" xmlns="http://www.w3.org/2000/svg">
<path d="M124.658 137.049C162.524 137.049 193.22 106.37 193.22 68.5246C193.22 30.6795 162.524 0 124.658 0C86.7925 0 56.0962 30.6795 56.0962 68.5246C56.0962 106.37 86.7925 137.049 124.658 137.049Z" fill="#E9EAEB"/>
<path d="M143.357 40.4917H49.8633C55.0366 40.4917 59.2127 44.6655 59.2127 49.836V174.426C59.2127 181.31 64.7911 186.885 71.6785 186.885H152.706V49.836C152.706 44.6655 148.53 40.4917 143.357 40.4917Z" fill="white"/>
<path d="M105.96 18.6885H12.4658C17.6391 18.6885 21.8152 22.8622 21.8152 28.0327V146.393C21.8152 153.277 27.3937 158.852 34.281 158.852H115.309V28.0327C115.309 22.8622 111.133 18.6885 105.96 18.6885Z" fill="white"/>
<path d="M31.1646 158.853H52.9798" stroke="#2A5082" stroke-width="2" stroke-miterlimit="10"/>
<path d="M49.8633 40.4917H143.357C148.53 40.4917 152.706 44.6655 152.706 49.836V171.311" stroke="#2A5082" stroke-width="2" stroke-miterlimit="10"/>
<path d="M12.4658 18.6885H105.96C111.133 18.6885 115.309 22.8622 115.309 28.0327V34.2622" stroke="#2A5082" stroke-width="2" stroke-miterlimit="10"/>
<path d="M71.6785 186.885C64.7911 186.885 59.2127 181.31 59.2127 174.426V49.836C59.2127 44.6655 55.0366 40.4918 49.8633 40.4918C44.69 40.4918 40.5139 44.6655 40.5139 49.836V149.508C40.5139 154.679 36.3379 158.852 31.1646 158.852C25.9913 158.852 21.8152 154.679 21.8152 149.508V28.0327C21.8152 22.8622 17.6391 18.6885 12.4658 18.6885C7.29251 18.6885 3.11646 22.8622 3.11646 28.0327V37.377H15.5823" stroke="#2A5082" stroke-width="2" stroke-miterlimit="10"/>
<path d="M84.1443 174.426V171.312H171.405V174.426C171.405 181.31 165.827 186.885 158.939 186.885H71.6785C78.5658 186.885 84.1443 181.31 84.1443 174.426Z" fill="#A3D4FF" stroke="#2A5082" stroke-width="2" stroke-miterlimit="10"/>
<path d="M196.659 33.6499L190.928 39.381" stroke="#BCC0C4" stroke-width="2" stroke-miterlimit="10"/>
<path d="M210.987 19.3218L205.256 25.0529" stroke="#BCC0C4" stroke-width="2" stroke-miterlimit="10"/>
<path d="M205.256 33.6499L210.987 39.381" stroke="#BCC0C4" stroke-width="2" stroke-miterlimit="10"/>
<path d="M190.928 19.3218L196.659 25.0529" stroke="#BCC0C4" stroke-width="2" stroke-miterlimit="10"/>
<path d="M168.003 45.1118V62.3051" stroke="#BCC0C4" stroke-width="2" stroke-miterlimit="10"/>
<path d="M159.407 53.7085H176.6" stroke="#BCC0C4" stroke-width="2" stroke-miterlimit="10"/>
<path d="M69.6379 76.4079C69.0859 76.4238 68.6512 76.8843 68.6672 77.4363C68.6831 77.9884 69.1435 78.423 69.6956 78.4071L69.6379 76.4079ZM142.881 76.296C143.433 76.28 143.867 75.8196 143.852 75.2676C143.836 74.7155 143.375 74.2809 142.823 74.2968L142.881 76.296ZM69.6956 78.4071L142.881 76.296L142.823 74.2968L69.6379 76.4079L69.6956 78.4071Z" fill="#2A5082"/>
<path d="M69.6379 85.5559C69.0859 85.5718 68.6512 86.0322 68.6672 86.5843C68.6831 87.1363 69.1435 87.5709 69.6956 87.555L69.6379 85.5559ZM142.881 85.4439C143.433 85.428 143.867 84.9676 143.852 84.4155C143.836 83.8634 143.375 83.4288 142.823 83.4448L142.881 85.4439ZM69.6956 87.555L142.881 85.4439L142.823 83.4448L69.6379 85.5559L69.6956 87.555Z" fill="#2A5082"/>
<path d="M69.6379 94.7038C69.0859 94.7197 68.6512 95.1802 68.6672 95.7322C68.6831 96.2843 69.1435 96.7189 69.6956 96.703L69.6379 94.7038ZM142.881 94.5919C143.433 94.5759 143.867 94.1155 143.852 93.5635C143.836 93.0114 143.375 92.5768 142.823 92.5927L142.881 94.5919ZM69.6956 96.703L142.881 94.5919L142.823 92.5927L69.6379 94.7038L69.6956 96.703Z" fill="#2A5082"/>
<path d="M69.6379 103.852C69.0859 103.868 68.6512 104.329 68.6672 104.881C68.6831 105.433 69.1435 105.867 69.6956 105.851L69.6379 103.852ZM142.881 103.74C143.433 103.724 143.867 103.264 143.852 102.712C143.836 102.16 143.375 101.725 142.823 101.741L142.881 103.74ZM69.6956 105.851L142.881 103.74L142.823 101.741L69.6379 103.852L69.6956 105.851Z" fill="#2A5082"/>
<path d="M69.6379 113.001C69.0859 113.017 68.6512 113.477 68.6672 114.029C68.6831 114.581 69.1435 115.016 69.6956 115L69.6379 113.001ZM142.881 112.889C143.433 112.873 143.867 112.412 143.852 111.86C143.836 111.308 143.375 110.874 142.823 110.89L142.881 112.889ZM69.6956 115L142.881 112.889L142.823 110.89L69.6379 113.001L69.6956 115Z" fill="#2A5082"/>
<path d="M69.6379 122.149C69.0859 122.165 68.6512 122.625 68.6672 123.177C68.6831 123.729 69.1435 124.164 69.6956 124.148L69.6379 122.149ZM142.881 122.037C143.433 122.021 143.867 121.56 143.852 121.008C143.836 120.456 143.375 120.022 142.823 120.038L142.881 122.037ZM69.6956 124.148L142.881 122.037L142.823 120.038L69.6379 122.149L69.6956 124.148Z" fill="#2A5082"/>
<path d="M69.6379 131.297C69.0859 131.312 68.6512 131.773 68.6672 132.325C68.6831 132.877 69.1435 133.312 69.6956 133.296L69.6379 131.297ZM142.881 131.185C143.433 131.169 143.867 130.708 143.852 130.156C143.836 129.604 143.375 129.17 142.823 129.185L142.881 131.185ZM69.6956 133.296L142.881 131.185L142.823 129.185L69.6379 131.297L69.6956 133.296Z" fill="#2A5082"/>
<path d="M69.6379 140.445C69.0859 140.461 68.6512 140.921 68.6672 141.473C68.6831 142.025 69.1435 142.46 69.6956 142.444L69.6379 140.445ZM142.881 140.333C143.433 140.317 143.867 139.857 143.852 139.305C143.836 138.753 143.375 138.318 142.823 138.334L142.881 140.333ZM69.6956 142.444L142.881 140.333L142.823 138.334L69.6379 140.445L69.6956 142.444Z" fill="#2A5082"/>
<path d="M69.6379 149.593C69.0859 149.609 68.6512 150.069 68.6672 150.621C68.6831 151.173 69.1435 151.608 69.6956 151.592L69.6379 149.593ZM142.881 149.481C143.433 149.465 143.867 149.005 143.852 148.453C143.836 147.901 143.375 147.466 142.823 147.482L142.881 149.481ZM69.6956 151.592L142.881 149.481L142.823 147.482L69.6379 149.593L69.6956 151.592Z" fill="#2A5082"/>
</svg>
