<svg width="226" height="190" viewBox="0 0 226 190" fill="none" xmlns="http://www.w3.org/2000/svg">
<path d="M124.658 137.049C162.524 137.049 193.22 106.37 193.22 68.5246C193.22 30.6795 162.524 0 124.658 0C86.7925 0 56.0962 30.6795 56.0962 68.5246C56.0962 106.37 86.7925 137.049 124.658 137.049Z" fill="#E9EAEB"/>
<path d="M143.357 40.4917H49.8633C55.0366 40.4917 59.2127 44.6655 59.2127 49.836V174.426C59.2127 181.31 64.7911 186.885 71.6785 186.885H152.706V49.836C152.706 44.6655 148.53 40.4917 143.357 40.4917Z" fill="white"/>
<path d="M105.96 18.6885H12.4658C17.6391 18.6885 21.8152 22.8622 21.8152 28.0327V146.393C21.8152 153.277 27.3937 158.852 34.281 158.852H115.309V28.0327C115.309 22.8622 111.133 18.6885 105.96 18.6885Z" fill="white"/>
<path d="M31.1646 158.853H52.9798" stroke="#2A5082" stroke-width="2" stroke-miterlimit="10"/>
<path d="M49.8633 40.4917H143.357C148.53 40.4917 152.706 44.6655 152.706 49.836V171.311" stroke="#2A5082" stroke-width="2" stroke-miterlimit="10"/>
<path d="M12.4658 18.6885H105.96C111.133 18.6885 115.309 22.8622 115.309 28.0327V34.2622" stroke="#2A5082" stroke-width="2" stroke-miterlimit="10"/>
<path d="M71.6785 186.885C64.7911 186.885 59.2127 181.31 59.2127 174.426V49.836C59.2127 44.6655 55.0366 40.4918 49.8633 40.4918C44.69 40.4918 40.5139 44.6655 40.5139 49.836V149.508C40.5139 154.679 36.3379 158.852 31.1646 158.852C25.9913 158.852 21.8152 154.679 21.8152 149.508V28.0327C21.8152 22.8622 17.6391 18.6885 12.4658 18.6885C7.29251 18.6885 3.11646 22.8622 3.11646 28.0327V37.377H15.5823" stroke="#2A5082" stroke-width="2" stroke-miterlimit="10"/>
<path d="M84.1443 174.426V171.312H171.405V174.426C171.405 181.31 165.827 186.885 158.939 186.885H71.6785C78.5658 186.885 84.1443 181.31 84.1443 174.426Z" fill="#A3D4FF" stroke="#2A5082" stroke-width="2" stroke-miterlimit="10"/>
<path d="M134.111 112.592C134.111 127.586 121.957 139.741 106.963 139.741C91.9696 139.741 79.8149 127.586 79.8149 112.592C79.8149 97.599 91.9696 85.4443 106.963 85.4443C121.957 85.4443 134.111 97.599 134.111 112.592Z" fill="#A3D4FF" stroke="#2A5082" stroke-width="2"/>
<path d="M119.806 99.9258L112.596 110.577L102.389 125.259L92.8892 112.592" stroke="white" stroke-width="2" stroke-linecap="round" stroke-linejoin="round"/>
<path d="M196.659 33.6504L190.928 39.3815" stroke="#BCC0C4" stroke-width="2" stroke-miterlimit="10"/>
<path d="M210.987 19.3223L205.256 25.0534" stroke="#BCC0C4" stroke-width="2" stroke-miterlimit="10"/>
<path d="M205.256 33.6504L210.987 39.3815" stroke="#BCC0C4" stroke-width="2" stroke-miterlimit="10"/>
<path d="M190.928 19.3223L196.659 25.0534" stroke="#BCC0C4" stroke-width="2" stroke-miterlimit="10"/>
<path d="M168.003 45.1118V62.3052" stroke="#BCC0C4" stroke-width="2" stroke-miterlimit="10"/>
<path d="M159.407 53.7085H176.6" stroke="#BCC0C4" stroke-width="2" stroke-miterlimit="10"/>
</svg>
