<svg width="131" height="143" viewBox="0 0 131 143" fill="none" xmlns="http://www.w3.org/2000/svg">
<path d="M92.7373 76.6712C113.869 76.6712 131 59.5077 131 38.3356C131 17.1634 113.869 0 92.7373 0C71.6054 0 54.4746 17.1634 54.4746 38.3356C54.4746 59.5077 71.6054 76.6712 92.7373 76.6712Z" fill="#E9EAEB"/>
<path d="M120.322 23.1797L116.763 26.7458" stroke="#BCC0C4" stroke-width="2" stroke-miterlimit="10"/>
<path d="M129.22 14.2644L125.661 17.8305" stroke="#BCC0C4" stroke-width="2" stroke-miterlimit="10"/>
<path d="M125.661 23.1797L129.22 26.7458" stroke="#BCC0C4" stroke-width="2" stroke-miterlimit="10"/>
<path d="M116.763 14.2644L120.322 17.8305" stroke="#BCC0C4" stroke-width="2" stroke-miterlimit="10"/>
<path d="M102.525 30.3118V41.0101" stroke="#BCC0C4" stroke-width="2" stroke-miterlimit="10"/>
<path d="M97.1865 35.6611H107.864" stroke="#BCC0C4" stroke-width="2" stroke-miterlimit="10"/>
<path d="M1.71582 101.727C1.71582 106.698 5.78226 110.78 10.7441 110.78H71.6062C76.568 110.78 80.6416 106.701 80.6416 101.727V21.7681C80.6416 16.7968 76.5704 12.7202 71.6062 12.7202L33.2223 12.7274C29.9816 12.7274 26.825 13.9781 24.4221 16.3783L5.37177 35.4649C3.0481 37.7906 1.71582 40.8547 1.71582 44.2915V101.727Z" fill="white"/>
<path d="M23.0316 42.5905H1.88086C2.25054 39.8487 3.44118 37.3931 5.37118 35.4643L24.4191 16.3753C26.3947 14.3983 28.8936 13.2439 31.5246 12.8855V34.0813C31.5246 38.7616 27.7006 42.5905 23.0316 42.5905Z" fill="white"/>
<path d="M33 20.4139V41C33 42.6569 31.6569 44 30 44H10.078C7.42893 44 6.07998 40.8174 7.92219 38.9137L27.8442 18.3277C29.7194 16.39 33 17.7174 33 20.4139Z" fill="#A3D4FF"/>
<path d="M24.6932 45.9691H7.68808C6.74468 45.9691 5.97412 45.2019 5.97412 44.2519C5.97412 43.3019 6.74468 42.5347 7.68808 42.5347H24.6932C28.4307 42.5347 31.4722 39.4875 31.4722 35.7428V18.7077C31.4722 17.7577 32.2427 16.9905 33.1861 16.9905C34.1295 16.9905 34.9001 17.7577 34.9001 18.7077V35.7428C34.9001 41.3827 30.3199 45.9691 24.6932 45.9691Z" fill="#2A5082"/>
<path d="M71.6043 112.496H10.7422C4.82259 112.496 0 107.664 0 101.726V44.2909C0 40.5005 1.4811 36.9338 4.16005 34.2498L23.208 15.1608C25.8941 12.4791 29.4493 11.0072 33.2204 11.0072L71.6043 11C77.5311 11 82.3537 15.8318 82.3537 21.7675V101.726C82.3537 107.664 77.5311 112.496 71.6043 112.496ZM71.6043 14.4368L33.2204 14.4441C30.3614 14.4441 27.6681 15.5624 25.6325 17.5947L6.58455 36.6789C4.52253 38.7448 3.43031 41.376 3.43031 44.2909V101.726C3.43031 105.772 6.71178 109.062 10.7446 109.062H71.6067C75.6443 109.062 78.9282 105.774 78.9282 101.726V21.7675C78.9258 17.7246 75.6443 14.4368 71.6043 14.4368Z" fill="#2A5082"/>
<path d="M64.2238 74.9288H18.1319C17.1885 74.9288 16.418 74.1616 16.418 73.2116C16.418 72.2616 17.1885 71.4944 18.1319 71.4944H64.2262C65.1696 71.4944 65.9402 72.264 65.9402 73.2116C65.9402 74.1592 65.1696 74.9288 64.2238 74.9288Z" fill="#2A5082"/>
<path d="M57.8697 92.8265H18.1319C17.1885 92.8265 16.418 92.0545 16.418 91.1093C16.418 90.1641 17.1885 89.3921 18.1319 89.3921H57.8697C58.8131 89.3921 59.5837 90.1641 59.5837 91.1093C59.5837 92.0569 58.8131 92.8265 57.8697 92.8265Z" fill="#2A5082"/>
<path d="M64.2238 83.8824H18.1319C17.1885 83.8824 16.418 83.1103 16.418 82.1651C16.418 81.2127 17.1885 80.4431 18.1319 80.4431H64.2262C65.1696 80.4431 65.9402 81.2127 65.9402 82.1651C65.9402 83.1103 65.1696 83.8824 64.2238 83.8824Z" fill="#2A5082"/>
<path d="M87.1427 44.5909L93.7944 37.9337C95.2083 36.5075 94.8002 34.9129 92.8438 34.3982L61.8054 26.0478C59.8634 25.5452 58.7112 26.702 59.2201 28.6477L67.5522 59.7476C68.0683 61.7005 69.6623 62.1094 71.069 60.6904L77.7255 54.0236L90.813 67.1336C92.2341 68.5598 94.5578 68.5598 95.9765 67.1264L100.235 62.8742C101.634 61.4552 101.634 59.1271 100.228 57.6961L87.1427 44.5909Z" fill="#A3D4FF"/>
<path d="M93.3901 69.9198C91.957 69.9198 90.6103 69.3642 89.5997 68.3493L77.7244 56.4539L72.2801 61.9061C70.0285 64.1837 66.7014 63.265 65.8972 60.1889L57.5651 29.0962C57.2026 27.7133 57.3971 26.4531 58.1076 25.5271C58.9862 24.3799 60.5249 23.9446 62.2341 24.3871L93.2844 32.7423C94.8111 33.144 95.889 34.1012 96.2323 35.3662C96.5803 36.6385 96.1314 38.0142 95.0128 39.147L89.5685 44.5921L101.444 56.4875C103.513 58.592 103.52 61.9975 101.456 64.0875L97.19 68.3493C96.1842 69.3594 94.8304 69.9198 93.3901 69.9198ZM77.7244 52.3075C78.1661 52.3075 78.603 52.4759 78.9367 52.8102L92.0242 65.9202C92.7539 66.6586 94.0406 66.6417 94.7559 65.9178L99.0216 61.6608C99.7514 60.9273 99.7442 59.6622 99.0096 58.907L85.9293 45.809C85.6077 45.4868 85.4276 45.0514 85.4276 44.5945C85.4276 44.1375 85.6077 43.7022 85.9293 43.3799L92.5811 36.7227C92.8163 36.4846 92.8884 36.3162 92.91 36.2537C92.8692 36.2513 92.7299 36.1455 92.4083 36.0637L61.3627 27.7085C61.2018 27.6652 61.0602 27.6556 60.9138 27.6436C60.8202 27.6436 60.7722 27.824 60.8802 28.2136L69.2051 59.3039C69.2915 59.6261 69.3923 59.7704 69.4403 59.821C69.4595 59.7873 69.6204 59.7127 69.8484 59.4818L76.5122 52.8126C76.8483 52.4759 77.2899 52.3075 77.7244 52.3075Z" fill="#2A5082"/>
<path d="M40.7307 142.191C40.0321 142.191 39.4614 141.419 39.4614 140.474V119.321C39.4614 118.374 40.0321 117.604 40.7307 117.604C41.4294 117.604 42 118.376 42 119.321V140.474C42 141.419 41.4294 142.191 40.7307 142.191Z" fill="#2A5082"/>
<path d="M27.7424 136.508C27.0502 136.508 26.4849 135.743 26.4849 134.791V124.846C26.4849 123.893 27.0502 123.129 27.7424 123.129C28.4346 123.129 29 123.893 29 124.846V134.791C29 135.741 28.4346 136.508 27.7424 136.508Z" fill="#2A5082"/>
<path d="M53.7114 129.333C53.0022 129.333 52.4229 128.561 52.4229 127.615V124.212C52.4229 123.267 53.0022 122.495 53.7114 122.495C54.4207 122.495 55 123.267 55 124.212V127.615C55.0018 128.561 54.4225 129.333 53.7114 129.333Z" fill="#2A5082"/>
</svg>
