<svg width="884" height="535" viewBox="0 0 884 535" fill="none" xmlns="http://www.w3.org/2000/svg">
<rect x="173" y="97" width="538" height="165" rx="82.5" fill="#FAFAFA"/>
<rect y="262" width="884" height="165" rx="82.5" fill="#FAFAFA"/>
<path d="M435.201 9.45389L209.784 366.261C206.84 370.922 210.189 377 215.702 377H662.421C667.909 377 671.262 370.974 668.37 366.31L447.067 9.50303C444.343 5.11061 437.961 5.08418 435.201 9.45389Z" stroke="#384053" stroke-width="4"/>
<rect x="273" y="340" width="336" height="47" fill="#F8F8F8"/>
<rect x="291" y="340" width="314" height="47" fill="#FF785A"/>
<path d="M465.806 129H425.208C424.025 129 423.101 130.02 423.218 131.197L435.802 258.197C435.904 259.22 436.764 260 437.792 260H454.061C455.094 260 455.957 259.213 456.053 258.184L467.798 131.184C467.906 130.012 466.984 129 465.806 129Z" fill="#FF785A"/>
<rect x="434" y="270" width="25" height="21" rx="2" fill="#FF785A"/>
<path d="M457.806 129H417.208C416.025 129 415.101 130.02 415.218 131.197L427.802 258.197C427.904 259.22 428.764 260 429.792 260H446.061C447.094 260 447.957 259.213 448.053 258.184L459.798 131.184C459.906 130.012 458.984 129 457.806 129Z" stroke="#384053" stroke-width="3"/>
<mask id="path-9-inside-1" fill="white">
<rect x="426" y="270" width="25" height="21" rx="2"/>
</mask>
<rect x="426" y="270" width="25" height="21" rx="2" stroke="#384053" stroke-width="6" mask="url(#path-9-inside-1)"/>
<path d="M289.712 264.231C289.287 264.943 289.52 265.864 290.231 266.288C290.943 266.713 291.864 266.48 292.288 265.769L289.712 264.231ZM329.288 203.769C329.713 203.057 329.48 202.136 328.769 201.712C328.057 201.287 327.136 201.52 326.712 202.231L329.288 203.769ZM292.288 265.769L329.288 203.769L326.712 202.231L289.712 264.231L292.288 265.769Z" fill="#384053"/>
<path d="M332.737 193.191C332.29 193.889 332.494 194.817 333.191 195.263C333.889 195.71 334.817 195.506 335.263 194.809L332.737 193.191ZM351.263 169.809C351.71 169.111 351.506 168.183 350.809 167.737C350.111 167.29 349.183 167.494 348.737 168.191L351.263 169.809ZM335.263 194.809L351.263 169.809L348.737 168.191L332.737 193.191L335.263 194.809Z" fill="#384053"/>
<rect x="271.432" y="315.211" width="336.006" height="217.788" rx="7.5" stroke="#384053" stroke-width="3"/>
<rect x="493.958" y="438.644" width="68.2781" height="43.9392" rx="2.5" stroke="#384053" stroke-width="3"/>
<path d="M272.54 356.304H605.46" stroke="#384053" stroke-width="3"/>
<path d="M272.54 390.204H605.46" stroke="#384053" stroke-width="3"/>
<path d="M309.917 452.79L452.473 452.79" stroke="#384053" stroke-width="3" stroke-linecap="round"/>
<path d="M335.994 468.437L393.365 468.437" stroke="#384053" stroke-width="3" stroke-linecap="round"/>
<path d="M402.057 468.437L438.565 468.437" stroke="#384053" stroke-width="3" stroke-linecap="round"/>
</svg>
