<svg width="24" height="24" viewBox="0 0 24 24" fill="none" xmlns="http://www.w3.org/2000/svg">
<path d="M12 12V20" stroke="#F8F8F8" stroke-width="2" stroke-linecap="round" stroke-linejoin="round"/>
<path d="M19.6305 18C20.5171 17.5162 21.2175 16.7507 21.6211 15.8243C22.0247 14.8978 22.1086 13.8632 21.8596 12.8838C21.6105 11.9043 21.0426 11.0357 20.2456 10.4152C19.4486 9.79462 18.4677 9.45739 17.458 9.45673H16.3126C16.0375 8.39154 15.5247 7.40264 14.8127 6.56438C14.1008 5.72612 13.2082 5.06031 12.2022 4.617C11.1961 4.17369 10.1028 3.96443 9.00431 4.00494C7.90583 4.04544 6.83082 4.33467 5.86011 4.85088C4.88939 5.36708 4.04821 6.09683 3.39983 6.98526C2.75144 7.87368 2.31272 8.89767 2.11664 9.98024C1.92055 11.0628 1.97222 12.1758 2.26774 13.2355C2.56327 14.2952 3.09497 15.274 3.82286 16.0985" stroke="#F8F8F8" stroke-width="2" stroke-linecap="round" stroke-linejoin="round"/>
<path d="M16 16L12 12L8 16" stroke="#F8F8F8" stroke-width="2" stroke-linecap="round" stroke-linejoin="round"/>
</svg>
