<svg width="24" height="24" viewBox="0 0 24 24" fill="none" xmlns="http://www.w3.org/2000/svg">
<path d="M16.6667 8.8C16.6667 7.52696 16.175 6.30606 15.2998 5.40589C14.4247 4.50571 13.2377 4 12 4C10.7623 4 9.57534 4.50571 8.70017 5.40589C7.825 6.30606 7.33333 7.52696 7.33333 8.8C7.33333 14.4 5 16 5 16H19C19 16 16.6667 14.4 16.6667 8.8Z" stroke="#4080FE" stroke-width="2" stroke-linecap="round" stroke-linejoin="round"/>
<path d="M13 19C12.8984 19.3042 12.7525 19.5566 12.577 19.7321C12.4015 19.9076 12.2025 20 12 20C11.7975 20 11.5985 19.9076 11.423 19.7321C11.2475 19.5566 11.1016 19.3042 11 19" stroke="#4080FE" stroke-width="2" stroke-linecap="round" stroke-linejoin="round"/>
</svg>
