<svg width="24" height="24" viewBox="0 0 24 24" fill="none" xmlns="http://www.w3.org/2000/svg">
<path d="M13.973 17.781C13.9734 17.0487 14.2202 16.3378 14.6737 15.7628C15.1272 15.1877 15.761 14.7821 16.473 14.611V12.075H7.00305V14.611C7.71605 14.7809 8.35103 15.1859 8.80566 15.7609C9.2603 16.3358 9.50809 17.0471 9.50903 17.78C9.50824 18.6436 9.16483 19.4715 8.5542 20.0822C7.94357 20.6928 7.11552 21.0362 6.25195 21.037C5.38925 21.0349 4.56256 20.6909 3.953 20.0804C3.34345 19.4699 3.00079 18.6427 3 17.78C3.00062 17.0479 3.24746 16.3372 3.70093 15.7624C4.15439 15.1876 4.78811 14.7821 5.5 14.611V11.379C5.5 11.37 5.5 11.361 5.5 11.352C5.5 11.343 5.5 11.333 5.5 11.323C5.49653 11.2277 5.51185 11.1326 5.54517 11.0433C5.57849 10.9539 5.62919 10.872 5.69421 10.8022C5.75924 10.7325 5.8374 10.6762 5.92419 10.6367C6.01099 10.5972 6.10464 10.5752 6.19995 10.572H10.991V9.42603C10.2792 9.25484 9.6457 8.84919 9.19226 8.27441C8.73882 7.69964 8.49176 6.98912 8.49097 6.25702C8.49202 5.39371 8.83544 4.56605 9.4458 3.95551C10.0562 3.34496 10.8836 3.00132 11.7469 3C12.6104 3.00106 13.4383 3.34456 14.0488 3.95514C14.6594 4.56572 15.003 5.39353 15.004 6.25702C15.0031 6.9901 14.7554 7.70152 14.3008 8.27661C13.8462 8.8517 13.2111 9.25693 12.498 9.427V10.573H17.29C17.4817 10.5805 17.6625 10.6639 17.7928 10.8047C17.9232 10.9455 17.9923 11.1323 17.985 11.324C17.985 11.334 17.985 11.343 17.985 11.353C17.985 11.363 17.985 11.371 17.985 11.38V14.612C18.6982 14.7819 19.3333 15.1871 19.788 15.7622C20.2426 16.3373 20.4903 17.0489 20.491 17.782C20.4899 18.6454 20.1464 19.4731 19.5358 20.0835C18.9252 20.6939 18.0974 21.0372 17.234 21.038C16.806 21.0383 16.3822 20.9542 15.9867 20.7907C15.5912 20.6272 15.2318 20.3873 14.929 20.0849C14.6261 19.7825 14.3858 19.4233 14.2218 19.028C14.0578 18.6327 13.9733 18.209 13.973 17.781ZM15.473 17.781C15.4736 18.2458 15.6584 18.6913 15.9871 19.02C16.3157 19.3486 16.7612 19.5335 17.226 19.534C17.6908 19.5335 18.1365 19.3486 18.4653 19.02C18.7941 18.6914 18.9792 18.2459 18.98 17.781C18.9795 17.316 18.7945 16.8701 18.4657 16.5413C18.1369 16.2125 17.691 16.0275 17.226 16.027C16.7616 16.0286 16.3169 16.214 15.9889 16.5427C15.6609 16.8714 15.4765 17.3167 15.476 17.781H15.473ZM4.5 17.781C4.50053 18.2459 4.68531 18.6915 5.01392 19.0203C5.34252 19.3491 5.7882 19.5342 6.25305 19.535C6.71808 19.5344 7.16385 19.3495 7.49268 19.0207C7.8215 18.6919 8.00643 18.246 8.00696 17.781C8.00616 17.3162 7.82111 16.8706 7.49231 16.542C7.16351 16.2134 6.71791 16.0285 6.25305 16.028C5.78846 16.0285 5.34301 16.2133 5.0144 16.5417C4.6858 16.8701 4.50079 17.3154 4.5 17.78V17.781ZM11.772 8.01001C12.2313 8.00112 12.6688 7.81257 12.9907 7.48486C13.3126 7.15716 13.4933 6.71639 13.494 6.25702C13.4932 5.79217 13.3082 5.34655 12.9794 5.01794C12.6506 4.68934 12.2048 4.50456 11.74 4.50403C11.2752 4.50456 10.8296 4.68937 10.501 5.01801C10.1723 5.34664 9.98759 5.79226 9.98706 6.25702C9.9875 6.7163 10.1679 7.15707 10.4896 7.4848C10.8114 7.81254 11.2488 8.00111 11.708 8.01001H11.7729H11.772Z" fill="#F8F8F8" stroke="#F8F8F8" stroke-width="0.5"/>
</svg>
