<svg width="40" height="40" viewBox="0 0 40 40" fill="none" xmlns="http://www.w3.org/2000/svg">
<path d="M17.545 8.08482L5.38479 28.9141C5.13407 29.3596 5.00142 29.8646 5.00001 30.3791C4.99861 30.8935 5.12851 31.3993 5.37679 31.8463C5.62507 32.2932 5.98307 32.6656 6.41519 32.9265C6.8473 33.1874 7.33846 33.3276 7.8398 33.3333H32.1602C32.6615 33.3276 33.1527 33.1874 33.5848 32.9265C34.0169 32.6656 34.3749 32.2932 34.6232 31.8463C34.8715 31.3993 35.0014 30.8935 35 30.3791C34.9986 29.8646 34.8659 29.3596 34.6152 28.9141L22.455 8.08482C22.1991 7.65189 21.8387 7.29395 21.4087 7.04554C20.9787 6.79713 20.4935 6.66663 20 6.66663C19.5065 6.66663 19.0213 6.79713 18.5913 7.04554C18.1613 7.29395 17.8009 7.65189 17.545 8.08482V8.08482Z" stroke="#F8F8F8" stroke-width="2" stroke-linecap="round" stroke-linejoin="round"/>
<path d="M20 15V24" stroke="#F8F8F8" stroke-width="2" stroke-linecap="round" stroke-linejoin="round"/>
<path d="M20 28.3334H20.0158" stroke="#F8F8F8" stroke-width="2" stroke-linecap="round" stroke-linejoin="round"/>
</svg>
