<svg width="680" height="466" viewBox="0 0 680 466" fill="none" xmlns="http://www.w3.org/2000/svg">
<path d="M256.444 72.0781C254.54 72.8489 252.619 73.6629 250.733 74.4963C250.138 74.7601 249.846 75.5136 250.082 76.1795C250.263 76.6887 250.699 77 251.161 77C251.303 77 251.447 76.9708 251.587 76.9092C253.451 76.0844 255.352 75.2801 257.234 74.518C257.836 74.2736 258.149 73.5299 257.93 72.8564C257.712 72.1819 257.047 71.8338 256.444 72.0781Z" fill="#A2DFFF"/>
<path d="M244.147 77.0987C242.017 77.932 239.87 78.8066 237.768 79.6973C237.103 79.9791 236.815 80.6967 237.124 81.3015C237.348 81.7414 237.827 82 238.328 82C238.516 82 238.707 81.9638 238.888 81.8873C240.967 81.0067 243.09 80.1421 245.197 79.3179C245.871 79.0542 246.181 78.3436 245.892 77.7317C245.601 77.1178 244.82 76.835 244.147 77.0987Z" fill="#A2DFFF"/>
<path d="M194.666 104.306C192.615 105.916 190.559 107.581 188.554 109.254C187.921 109.781 187.815 110.749 188.316 111.416C188.604 111.8 189.031 112 189.462 112C189.779 112 190.1 111.891 190.368 111.668C192.35 110.014 194.384 108.367 196.412 106.775C197.059 106.267 197.193 105.303 196.71 104.621C196.228 103.938 195.312 103.797 194.666 104.306Z" fill="#A2DFFF"/>
<path d="M206.554 97.2003C204.249 98.3667 201.933 99.5766 199.672 100.795C198.958 101.179 198.786 101.936 199.286 102.484C199.593 102.82 200.083 103 200.58 103C200.893 103 201.208 102.928 201.484 102.78C203.72 101.575 206.011 100.379 208.289 99.2248C209.018 98.8569 209.219 98.1039 208.739 97.5449C208.261 96.987 207.282 96.8313 206.554 97.2003Z" fill="#A2DFFF"/>
<path d="M231.039 83.1203C228.924 84.0067 226.795 84.9326 224.711 85.8718C224.054 86.1679 223.808 86.8543 224.162 87.405C224.407 87.7841 224.873 88 225.354 88C225.571 88 225.791 87.9566 225.995 87.8642C228.056 86.9354 230.162 86.0208 232.253 85.1439C232.921 84.8638 233.192 84.1839 232.856 83.6248C232.522 83.0656 231.708 82.8403 231.039 83.1203Z" fill="#A2DFFF"/>
<path d="M217.924 89.2007C215.828 90.5061 213.72 91.8637 211.658 93.2363C211.007 93.6693 210.805 94.5889 211.206 95.2907C211.468 95.7486 211.922 96 212.386 96C212.634 96 212.885 95.9278 213.112 95.7773C215.15 94.4196 217.235 93.077 219.308 91.7866C219.97 91.3747 220.196 90.4613 219.814 89.747C219.434 89.0328 218.587 88.7876 217.924 89.2007Z" fill="#A2DFFF"/>
<path d="M312.458 59.007C310.041 59.2268 307.597 59.4786 305.193 59.7557C304.435 59.8431 303.906 60.4133 304.014 61.0305C304.112 61.5932 304.706 62 305.386 62C305.451 62 305.517 61.9962 305.583 61.9887C307.96 61.7144 310.378 61.4655 312.767 61.2485C313.529 61.1789 314.077 60.6209 313.991 60.0028C313.906 59.3837 313.219 58.9384 312.458 59.007Z" fill="#A2DFFF"/>
<path d="M271.35 67.0696C269.195 67.908 267.018 68.7997 264.883 69.7194C264.209 70.0096 263.843 70.9601 264.065 71.8434C264.242 72.5514 264.744 73 265.284 73C265.417 73 265.553 72.9734 265.685 72.9159C267.797 72.006 269.949 71.1242 272.081 70.2956C272.76 70.032 273.149 69.0955 272.946 68.2038C272.744 67.3136 272.03 66.8061 271.35 67.0696Z" fill="#A2DFFF"/>
<path d="M327.399 58.0018C324.74 58.1207 322.047 58.2735 319.395 58.4571C318.559 58.5155 317.936 59.13 318.005 59.8315C318.071 60.4969 318.736 61 319.519 61C319.561 61 319.603 60.9989 319.646 60.9958C322.268 60.8143 324.932 60.6625 327.561 60.5458C328.4 60.5086 329.043 59.909 328.998 59.2064C328.953 58.5038 328.239 57.9647 327.399 58.0018Z" fill="#A2DFFF"/>
<path d="M285.269 63.0406C282.864 63.65 280.435 64.3053 278.049 64.9912C277.296 65.2079 276.848 66.0443 277.047 66.8615C277.214 67.5474 277.785 68 278.409 68C278.529 68 278.65 67.9834 278.771 67.949C281.129 67.272 283.532 66.6218 285.91 66.02C286.668 65.8275 287.14 65.0052 286.963 64.1829C286.784 63.3593 286.027 62.848 285.269 63.0406Z" fill="#A2DFFF"/>
<path d="M298.53 61.0196C296.36 61.4198 294.165 61.8605 292.008 62.3292C291.327 62.4764 290.887 63.1891 291.025 63.9186C291.146 64.5582 291.671 65 292.256 65C292.339 65 292.423 64.991 292.507 64.973C294.64 64.5099 296.809 64.0738 298.956 63.6781C299.64 63.5522 300.1 62.8541 299.981 62.1201C299.865 61.3861 299.215 60.8937 298.53 61.0196Z" fill="#A2DFFF"/>
<path d="M137.343 166.254C136.671 165.784 135.77 165.985 135.33 166.702C133.933 168.981 132.548 171.313 131.215 173.634C130.795 174.366 131.009 175.323 131.694 175.771C131.931 175.926 132.194 176 132.454 176C132.942 176 133.419 175.737 133.694 175.259C135.013 172.964 136.382 170.658 137.763 168.403C138.202 167.687 138.014 166.724 137.343 166.254Z" fill="#A2DFFF"/>
<path d="M183.071 113.346C181.499 115.004 179.924 116.716 178.392 118.43C177.909 118.971 177.867 119.902 178.298 120.508C178.529 120.834 178.851 121 179.174 121C179.451 121 179.73 120.877 179.954 120.627C181.469 118.932 183.026 117.24 184.582 115.599C185.077 115.077 185.142 114.148 184.725 113.525C184.307 112.903 183.567 112.822 183.071 113.346Z" fill="#A2DFFF"/>
<path d="M117.238 205.105C116.602 204.822 115.866 205.131 115.595 205.797C114.732 207.913 113.888 210.07 113.087 212.211C112.834 212.885 113.151 213.645 113.795 213.909C113.945 213.971 114.1 214 114.252 214C114.752 214 115.225 213.684 115.419 213.168C116.212 211.052 117.046 208.917 117.9 206.825C118.17 206.159 117.875 205.389 117.238 205.105Z" fill="#A2DFFF"/>
<path d="M123.222 192.141C122.529 191.811 121.686 192.08 121.341 192.74C120.243 194.836 119.162 196.978 118.13 199.104C117.805 199.774 118.111 200.567 118.815 200.876C119.006 200.96 119.206 201 119.403 201C119.933 201 120.441 200.713 120.678 200.225C121.699 198.122 122.768 196.005 123.853 193.932C124.198 193.271 123.916 192.47 123.222 192.141Z" fill="#A2DFFF"/>
<path d="M111.926 218.076C111.083 217.835 110.155 218.185 109.854 218.855C108.894 220.987 107.96 223.159 107.08 225.312C106.803 225.989 107.269 226.716 108.12 226.937C108.286 226.98 108.455 227 108.621 227C109.304 227 109.939 226.654 110.162 226.109C111.032 223.981 111.954 221.833 112.905 219.725C113.206 219.055 112.768 218.317 111.926 218.076Z" fill="#A2DFFF"/>
<path d="M107.155 231.063C106.533 230.822 105.88 231.294 105.698 232.119C105.118 234.741 104.559 237.41 104.038 240.053C103.875 240.883 104.251 241.733 104.878 241.949C104.978 241.984 105.077 242 105.176 242C105.698 242 106.174 241.536 106.311 240.838C106.826 238.225 107.378 235.586 107.952 232.993C108.135 232.167 107.778 231.304 107.155 231.063Z" fill="#A2DFFF"/>
<path d="M130.337 179.181C129.705 178.806 128.9 179.032 128.537 179.685C127.386 181.76 126.249 183.882 125.157 185.992C124.813 186.656 125.054 187.483 125.696 187.839C125.894 187.949 126.107 188 126.318 188C126.788 188 127.244 187.738 127.481 187.279C128.561 185.193 129.685 183.094 130.825 181.042C131.187 180.39 130.969 179.557 130.337 179.181Z" fill="#A2DFFF"/>
<path d="M340.626 57.0024C340.255 57.0012 339.883 57 339.51 57C337.462 57 335.388 57.0268 333.345 57.0791C332.584 57.0986 331.981 57.7679 332 58.5748C332.019 59.3696 332.633 60 333.379 60C333.39 60 333.402 60 333.413 60C335.433 59.9477 337.485 59.9209 339.511 59.9209C339.879 59.9209 340.247 59.9221 340.615 59.9233C340.617 59.9233 340.619 59.9233 340.621 59.9233C341.379 59.9233 341.997 59.2734 342 58.469C342.002 57.6633 341.387 57.0061 340.626 57.0024Z" fill="#A2DFFF"/>
<path d="M161.817 133.428C160.3 135.164 158.787 136.95 157.319 138.734C156.855 139.296 156.903 140.157 157.425 140.656C157.666 140.887 157.965 141 158.263 141C158.611 141 158.958 140.846 159.208 140.543C160.66 138.778 162.157 137.013 163.657 135.295C164.135 134.747 164.11 133.885 163.603 133.37C163.095 132.855 162.295 132.881 161.817 133.428Z" fill="#A2DFFF"/>
<path d="M172.95 123.386C171.404 125.085 169.857 126.836 168.355 128.588C167.881 129.14 167.882 130.035 168.357 130.587C168.594 130.862 168.905 131 169.215 131C169.527 131 169.838 130.862 170.075 130.585C171.562 128.853 173.09 127.122 174.619 125.441C175.107 124.905 175.129 124.01 174.668 123.444C174.206 122.875 173.438 122.85 172.95 123.386Z" fill="#A2DFFF"/>
<path d="M145.442 155.315C144.83 154.789 143.965 154.937 143.51 155.645C142.068 157.892 140.634 160.193 139.248 162.49C138.812 163.213 138.965 164.208 139.59 164.713C139.831 164.907 140.107 165 140.38 165C140.816 165 141.245 164.762 141.513 164.318C142.883 162.048 144.301 159.77 145.728 157.548C146.182 156.841 146.055 155.84 145.442 155.315Z" fill="#A2DFFF"/>
<path d="M154.528 144.345C153.97 143.821 153.138 143.903 152.672 144.53C151.189 146.522 149.713 148.565 148.283 150.601C147.833 151.243 147.93 152.175 148.501 152.681C148.743 152.896 149.031 153 149.316 153C149.706 153 150.092 152.806 150.352 152.436C151.766 150.421 153.225 148.402 154.692 146.431C155.16 145.804 155.086 144.871 154.528 144.345Z" fill="#A2DFFF"/>
<path d="M524.955 141.458C524.551 140.903 523.847 140.844 523.383 141.327C522.919 141.809 522.87 142.65 523.273 143.205C524.539 144.945 525.801 146.73 527.024 148.513C527.244 148.835 527.564 149 527.886 149C528.135 149 528.385 148.901 528.592 148.698C529.068 148.232 529.138 147.393 528.747 146.824C527.511 145.022 526.234 143.216 524.955 141.458Z" fill="#A2DFFF"/>
<path d="M533.787 152.502C533.262 151.938 532.284 151.833 531.605 152.269C530.925 152.705 530.799 153.516 531.324 154.079C532.969 155.846 534.604 157.66 536.187 159.468C536.491 159.815 536.966 160 537.446 160C537.764 160 538.083 159.919 538.359 159.754C539.053 159.335 539.208 158.528 538.703 157.951C537.103 156.124 535.449 154.29 533.787 152.502Z" fill="#A2DFFF"/>
<path d="M543.239 164.548C542.857 163.975 542.095 163.828 541.535 164.218C540.976 164.609 540.832 165.39 541.213 165.963C542.41 167.757 543.596 169.593 544.741 171.422C544.975 171.796 545.37 172 545.775 172C546.002 172 546.231 171.936 546.435 171.801C547.005 171.428 547.172 170.651 546.806 170.067C545.649 168.219 544.449 166.362 543.239 164.548Z" fill="#A2DFFF"/>
<path d="M499.537 115.703C497.774 114.213 495.964 112.728 494.16 111.291C493.591 110.837 492.756 110.924 492.295 111.484C491.834 112.045 491.923 112.867 492.492 113.321C494.277 114.743 496.066 116.211 497.811 117.686C498.06 117.897 498.367 118 498.674 118C499.047 118 499.418 117.846 499.68 117.545C500.157 116.997 500.093 116.173 499.537 115.703Z" fill="#A2DFFF"/>
<path d="M504.582 120.326C503.952 119.861 502.975 119.898 502.402 120.409C501.828 120.921 501.874 121.713 502.505 122.178C504.482 123.639 506.46 125.143 508.384 126.648C508.684 126.883 509.07 127 509.456 127C509.86 127 510.264 126.872 510.567 126.617C511.159 126.119 511.142 125.326 510.529 124.846C508.581 123.324 506.581 121.802 504.582 120.326Z" fill="#A2DFFF"/>
<path d="M356.577 58.2244C353.925 58.128 351.231 58.0524 348.569 58.0005C347.731 57.9835 347.029 58.3689 347.001 58.8595C346.973 59.3501 347.63 59.7614 348.468 59.7777C351.099 59.8288 353.764 59.9037 356.387 59.9985C356.418 60 356.451 60 356.483 60C357.279 60 357.947 59.6376 357.997 59.1663C358.051 58.6772 357.414 58.2547 356.577 58.2244Z" fill="#A2DFFF"/>
<path d="M573.678 227.346C573.451 226.333 572.681 225.77 571.959 226.089C571.237 226.408 570.836 227.489 571.064 228.502C571.149 228.884 571.234 229.265 571.319 229.647C571.502 230.471 572.043 231 572.628 231C572.763 231 572.9 230.971 573.036 230.913C573.759 230.598 574.162 229.52 573.938 228.505C573.85 228.117 573.765 227.733 573.678 227.346Z" fill="#A2DFFF"/>
<path d="M550.808 176.595C550.378 176.015 549.45 175.827 548.734 176.175C548.019 176.522 547.786 177.275 548.215 177.854C549.561 179.671 550.892 181.529 552.169 183.374C552.446 183.774 552.96 184 553.489 184C553.74 184 553.993 183.95 554.227 183.843C554.955 183.512 555.215 182.765 554.807 182.176C553.514 180.311 552.169 178.433 550.808 176.595Z" fill="#A2DFFF"/>
<path d="M570.941 220.273C570.336 218.127 569.696 215.961 569.039 213.837C568.832 213.167 568.224 212.83 567.679 213.086C567.135 213.341 566.862 214.092 567.069 214.763C567.718 216.864 568.351 219.005 568.949 221.127C569.1 221.664 569.509 222 569.944 222C570.059 222 570.176 221.977 570.29 221.927C570.842 221.692 571.133 220.951 570.941 220.273Z" fill="#A2DFFF"/>
<path d="M557.595 187.723C557.243 187.064 556.412 186.809 555.738 187.154C555.065 187.498 554.805 188.312 555.157 188.972C556.26 191.037 557.346 193.146 558.385 195.241C558.624 195.72 559.114 196 559.624 196C559.826 196 560.031 195.956 560.225 195.864C560.909 195.538 561.193 194.732 560.862 194.063C559.81 191.944 558.711 189.81 557.595 187.723Z" fill="#A2DFFF"/>
<path d="M566.887 207.171C565.901 205.037 564.866 202.886 563.812 200.78C563.479 200.115 562.608 199.817 561.868 200.117C561.127 200.416 560.796 201.2 561.13 201.865C562.173 203.947 563.196 206.074 564.17 208.185C564.406 208.694 564.952 209 565.529 209C565.717 209 565.908 208.967 566.093 208.899C566.843 208.619 567.199 207.845 566.887 207.171Z" fill="#A2DFFF"/>
<path d="M515.139 129.467C514.658 128.854 513.868 128.843 513.375 129.442C512.883 130.04 512.874 131.022 513.356 131.634C514.864 133.552 516.372 135.525 517.837 137.5C518.083 137.832 518.418 138 518.753 138C519.056 138 519.359 137.864 519.598 137.589C520.104 137.009 520.137 136.029 519.67 135.399C518.188 133.401 516.664 131.405 515.139 129.467Z" fill="#A2DFFF"/>
<path d="M411.998 68.1799C409.618 67.4376 407.194 66.7218 404.793 66.0516C404.039 65.8414 403.259 66.2918 403.051 67.0605C402.844 67.828 403.287 68.6207 404.042 68.8321C406.416 69.4951 408.814 70.2025 411.166 70.9363C411.305 70.9796 411.445 71 411.582 71C412.188 71 412.75 70.6012 412.937 69.9815C413.167 69.2188 412.747 68.4129 411.998 68.1799Z" fill="#A2DFFF"/>
<path d="M398.034 63.884C395.884 63.2307 393.694 62.6091 391.527 62.0349C390.843 61.8531 390.173 62.3997 390.028 63.2531C389.883 64.1065 390.319 64.9455 391.002 65.1272C393.145 65.6948 395.31 66.3099 397.437 66.9552C397.537 66.9855 397.637 67 397.736 67C398.306 67 398.823 66.5153 398.963 65.7923C399.13 64.9442 398.713 64.0894 398.034 63.884Z" fill="#A2DFFF"/>
<path d="M425.158 72.4562C423.03 71.9675 420.86 71.492 418.71 71.0425C418.033 70.9011 417.299 71.1242 417.069 71.5412C416.839 71.9582 417.202 72.4104 417.878 72.5518C420.004 72.996 422.149 73.4668 424.254 73.9495C424.403 73.9841 424.556 74 424.706 74C425.231 74 425.724 73.8021 425.918 73.4814C426.167 73.0691 425.827 72.6102 425.158 72.4562Z" fill="#A2DFFF"/>
<path d="M369.902 59.4403C367.736 59.2753 365.535 59.1285 363.36 59.0033C362.674 58.9641 362.068 59.2812 362.005 59.7117C361.943 60.1422 362.448 60.5232 363.133 60.5623C365.285 60.6862 367.461 60.8311 369.603 60.9941C369.654 60.998 369.705 61 369.755 61C370.376 61 370.914 60.7084 370.991 60.3112C371.073 59.8826 370.586 59.4925 369.902 59.4403Z" fill="#A2DFFF"/>
<path d="M383.97 60.9194C381.809 60.5915 379.613 60.2864 377.442 60.0119C376.757 59.9254 376.118 60.3196 376.014 60.8923C375.911 61.4649 376.382 61.9999 377.066 62.0864C379.214 62.3574 381.386 62.6599 383.523 62.9834C383.598 62.9948 383.673 63 383.747 63C384.342 63 384.87 62.6451 384.979 62.138C385.104 61.5689 384.652 61.0225 383.97 60.9194Z" fill="#A2DFFF"/>
<path d="M487.557 106.545C485.989 105.093 484.382 103.65 482.779 102.256C482.274 101.816 481.572 101.957 481.21 102.571C480.849 103.185 480.965 104.038 481.47 104.478C483.054 105.857 484.643 107.285 486.194 108.721C486.398 108.909 486.638 109 486.875 109C487.214 109 487.549 108.814 487.77 108.461C488.146 107.86 488.051 107.002 487.557 106.545Z" fill="#A2DFFF"/>
<path d="M464.402 90.5766C462.562 89.4154 460.68 88.2661 458.808 87.1624C458.219 86.8151 457.477 87.043 457.152 87.6735C456.827 88.303 457.04 89.0952 457.63 89.4425C459.481 90.5343 461.342 91.6706 463.161 92.8188C463.356 92.9414 463.57 93 463.78 93C464.196 93 464.603 92.771 464.83 92.3597C465.173 91.7411 464.981 90.9423 464.402 90.5766Z" fill="#A2DFFF"/>
<path d="M476.448 97.7462C474.629 96.5397 472.768 95.3435 470.917 94.1904C470.332 93.827 469.562 93.9995 469.193 94.5745C468.824 95.1495 468.999 95.9113 469.583 96.2738C471.413 97.4135 473.254 98.5964 475.052 99.7895C475.267 99.9312 475.509 100 475.749 100C476.151 100 476.545 99.809 476.787 99.4558C477.172 98.8921 477.02 98.1261 476.448 97.7462Z" fill="#A2DFFF"/>
<path d="M439.217 77.1658C437.104 76.1162 434.949 75.0876 432.812 74.1095C432.139 73.8012 431.371 74.1663 431.097 74.9223C430.823 75.6796 431.148 76.5429 431.82 76.8513C433.933 77.8182 436.064 78.8357 438.152 79.873C438.326 79.9593 438.505 80 438.683 80C439.188 80 439.67 79.6707 439.887 79.1182C440.182 78.3707 439.881 77.4963 439.217 77.1658Z" fill="#A2DFFF"/>
<path d="M452.191 83.8211C449.865 82.8955 447.491 81.9843 445.133 81.1126C444.39 80.8386 443.501 81.0818 443.146 81.6566C442.791 82.2313 443.106 82.9195 443.849 83.1944C446.181 84.0556 448.529 84.9572 450.829 85.8722C451.047 85.9587 451.28 86 451.509 86C452.05 86 452.571 85.7712 452.836 85.3733C453.211 84.8082 452.922 84.1123 452.191 83.8211Z" fill="#A2DFFF"/>
<path d="M303.769 106.934L303.022 117.025L313.068 118.397L316.741 115.421L322.615 116.035L323.23 110.163L323.304 110.102L329.179 110.717L329.792 104.845L329.867 104.784L335.741 105.397L336.356 99.5254L354.354 84.9403L345.056 73.4766L303.769 106.934Z" fill="white"/>
<path d="M345.98 72.7288C345.781 72.4845 345.494 72.3283 345.18 72.2955C344.867 72.2627 344.553 72.3555 344.309 72.5546L303.022 106.013C302.768 106.218 302.609 106.52 302.585 106.847L301.838 116.939C301.792 117.564 302.24 118.119 302.863 118.204L312.908 119.576C312.961 119.583 313.015 119.587 313.069 119.587C313.339 119.587 313.604 119.495 313.817 119.323L317.107 116.656L322.491 117.218C323.145 117.287 323.728 116.813 323.796 116.161L324.294 111.403L329.055 111.9C329.709 111.969 330.292 111.495 330.36 110.842L330.858 106.084L335.617 106.582C335.931 106.614 336.244 106.522 336.489 106.322C336.733 106.125 336.89 105.837 336.922 105.523L337.485 100.14L355.101 85.8647C355.346 85.6667 355.502 85.3793 355.535 85.066C355.568 84.7526 355.475 84.4392 355.276 84.1948L345.98 72.7288ZM335.607 98.6023C335.363 98.8003 335.207 99.0876 335.174 99.401L334.684 104.092L329.991 103.602C329.676 103.569 329.362 103.663 329.117 103.862L329.042 103.923C328.799 104.121 328.644 104.408 328.611 104.721L328.121 109.411L323.428 108.921C323.115 108.888 322.803 108.981 322.558 109.179L322.483 109.239C322.238 109.437 322.082 109.726 322.049 110.039L321.559 114.729L316.866 114.24C316.552 114.207 316.239 114.299 315.994 114.499L312.721 117.152L304.292 116L304.919 107.534L344.884 75.1476L352.685 84.7662L335.607 98.6023Z" fill="#1977CC"/>
<path d="M340.217 82.9404L306.34 110.393C306.121 110.57 305.987 110.829 305.965 111.109L305.667 115.128C305.626 115.689 306.047 116.177 306.608 116.218C306.634 116.221 306.659 116.221 306.684 116.221C307.212 116.221 307.659 115.812 307.699 115.277L307.964 111.696L341.5 84.5209C341.937 84.1667 342.004 83.5253 341.649 83.0886C341.296 82.653 340.654 82.5863 340.217 82.9404Z" fill="#E0F4FC"/>
<path d="M344.366 56.0378C335.549 63.1822 334.197 76.1201 341.345 84.9342C348.493 93.7473 361.437 95.0992 370.254 87.9537C379.071 80.8083 380.424 67.8704 373.276 59.0585C366.126 50.2454 353.183 48.8935 344.366 56.0378ZM364.157 67.5502C362.048 69.2597 358.95 68.9361 357.241 66.8273C355.531 64.7185 355.855 61.6232 357.964 59.9138C360.074 58.2043 363.171 58.5279 364.881 60.6367C366.589 62.7455 366.267 65.8408 364.157 67.5502Z" fill="white"/>
<path d="M343.616 55.1152C339.104 58.7705 336.288 63.9633 335.685 69.7365C335.082 75.5096 336.764 81.1731 340.421 85.6814C344.078 90.1909 349.273 93.0056 355.049 93.6098C355.819 93.6901 356.586 93.7297 357.35 93.7297C362.314 93.7297 367.092 92.044 371.001 88.8763C380.313 81.3292 381.747 67.6175 374.198 58.3101C366.647 49.0015 352.929 47.5692 343.616 55.1152ZM369.504 87.03C365.486 90.2859 360.44 91.7838 355.296 91.2464C350.151 90.709 345.524 88.2009 342.267 84.1858C339.009 80.1696 337.511 75.1261 338.048 69.9831C338.586 64.8412 341.095 60.2163 345.112 56.9604C353.407 50.2392 365.626 51.5164 372.35 59.8057C379.076 68.096 377.798 80.3087 369.504 87.03Z" fill="#1977CC"/>
<path d="M357.215 58.9914C355.949 60.0175 355.157 61.4758 354.988 63.0969C354.818 64.7181 355.291 66.3088 356.318 67.5747C357.344 68.8407 358.803 69.6315 360.425 69.8012C360.641 69.8238 360.858 69.8351 361.071 69.8351C362.466 69.8351 363.807 69.3622 364.905 68.4719C366.172 67.4458 366.963 65.9875 367.133 64.3652C367.302 62.744 366.83 61.1533 365.803 59.8874C363.683 57.2751 359.831 56.8724 357.215 58.9914ZM364.769 64.1197C364.665 65.1096 364.183 65.9999 363.409 66.6267C362.636 67.2534 361.663 67.5419 360.673 67.4379C359.683 67.3338 358.792 66.8518 358.164 66.078C357.537 65.3042 357.248 64.3335 357.351 63.3436C357.454 62.3537 357.937 61.4633 358.711 60.8366C359.401 60.2777 360.232 60.0062 361.057 60.0062C362.143 60.0062 363.221 60.4768 363.957 61.3841C364.584 62.1579 364.872 63.1298 364.769 64.1197Z" fill="#1977CC"/>
<path d="M366.629 83.4842C363.558 85.972 359.703 87.1169 355.771 86.7062C351.84 86.2955 348.304 84.3791 345.815 81.3109C345.402 80.8018 344.654 80.7226 344.144 81.1367C343.634 81.5496 343.555 82.2974 343.969 82.8076C346.858 86.3691 350.962 88.5933 355.524 89.0707C356.132 89.134 356.739 89.1657 357.342 89.1657C361.264 89.1657 365.038 87.8341 368.127 85.3316C368.636 84.9187 368.715 84.1709 368.301 83.6607C367.887 83.1493 367.139 83.0712 366.629 83.4842Z" fill="#1977CC"/>
<path d="M460.156 269.524C458.121 263.55 452.534 259.506 446.22 259.457C437.187 259.387 423.018 258.504 408.377 254.548C403.842 253.323 393.848 245.826 387.502 240.806C383.738 237.829 379.083 236.208 374.284 236.196C359.187 236.156 326.703 236.076 326.377 236.119C326.36 236.121 326.344 236.123 326.327 236.126C319.65 236.121 313.339 236.116 308.509 236.114C302.537 236.111 296.642 237.472 291.276 240.093C277.741 246.706 252.034 259.26 251.253 259.619C250.925 259.766 250.754 259.843 250.754 259.843C220.32 264.693 199.591 274.541 187.178 281.277C180.643 284.822 176.579 291.662 176.579 299.095V312.332C176.579 317.578 179.682 322.327 184.488 324.436C186.497 325.317 188.667 325.772 190.861 325.772H433.784L453.753 324.049C458.68 323.624 462.76 320.024 463.759 315.183C464.719 310.532 465.552 303.958 465.333 295.59C465.081 286.06 462.522 276.468 460.156 269.524Z" fill="#E0F4FC"/>
<path d="M465.86 281.084C464.993 277.088 463.831 272.94 462.406 268.757C460.046 261.829 453.549 257.137 446.238 257.08C437.137 257.01 423.289 256.115 408.995 252.254C405.918 251.422 398.621 246.57 388.975 238.942C386.895 237.297 384.569 236.019 382.063 235.145C379.558 234.271 376.944 233.826 374.289 233.819C361.616 233.786 339.02 233.729 330.079 233.729C327.059 233.729 326.433 233.733 326.199 233.749C319.57 233.744 313.308 233.74 308.51 233.737H308.487C305.338 233.737 302.185 234.097 299.118 234.807C296.051 235.516 293.06 236.576 290.231 237.958C265.533 250.024 250.978 257.125 250.265 257.457C250.189 257.491 250.122 257.52 250.063 257.547C236.565 259.718 223.552 263.109 211.379 267.625C199.964 271.861 191.451 276.253 186.042 279.189C178.737 283.152 174.2 290.779 174.201 299.094V312.331C174.201 318.518 177.863 324.124 183.532 326.61C185.855 327.63 188.321 328.147 190.859 328.147H433.783C433.851 328.147 433.92 328.143 433.988 328.138L453.956 326.415C456.888 326.161 459.602 324.998 461.803 323.049C464.011 321.095 465.491 318.541 466.085 315.66C467.351 309.526 467.896 302.752 467.706 295.526C467.591 291.054 466.968 286.194 465.86 281.084ZM463.759 315.183C462.76 320.024 458.681 323.625 453.753 324.049L433.784 325.772H190.861C188.667 325.772 186.497 325.317 184.488 324.436C179.682 322.327 176.579 317.578 176.579 312.332V299.095C176.579 291.664 180.643 284.823 187.177 281.277C199.589 274.542 220.319 264.693 250.754 259.843C250.754 259.843 250.926 259.765 251.253 259.619C252.035 259.26 277.741 246.705 291.276 240.093C296.636 237.474 302.522 236.114 308.488 236.114C308.494 236.114 308.502 236.114 308.509 236.114C313.338 236.117 319.65 236.121 326.327 236.126C326.344 236.123 326.36 236.121 326.377 236.119C326.442 236.11 327.811 236.106 330.08 236.106C339.078 236.106 362.227 236.164 374.284 236.196C379.083 236.208 383.738 237.829 387.502 240.806C393.848 245.826 403.842 253.323 408.376 254.548C423.018 258.503 437.187 259.387 446.22 259.457C452.534 259.506 458.12 263.55 460.155 269.524C462.522 276.469 465.081 286.061 465.331 295.591C465.552 303.958 464.719 310.532 463.759 315.183Z" fill="#1977CC"/>
<path d="M176.579 300.164V312.331C176.579 315.599 177.783 318.674 179.853 321.038C181.015 321.43 182.259 321.641 183.552 321.641H455.823C457.753 321.641 459.57 321.168 461.17 320.335C462.441 318.908 463.354 317.148 463.759 315.182C464.514 311.524 465.191 306.673 465.338 300.696C464.745 300.358 464.059 300.164 463.328 300.164H176.579Z" fill="#A2DFFF"/>
<path d="M463.327 306.442H176.047C173.8 306.442 171.979 308.263 171.979 310.508V316.352C171.979 322.74 177.161 327.92 183.552 327.92H455.823C462.215 327.92 467.396 322.74 467.396 316.352V310.508C467.395 308.263 465.574 306.442 463.327 306.442Z" fill="#E0F4FC"/>
<path d="M463.327 304.066H176.047C172.493 304.066 169.602 306.956 169.602 310.508V316.352C169.602 320.076 171.053 323.577 173.688 326.211C176.323 328.845 179.826 330.295 183.552 330.295H455.823C459.549 330.295 463.052 328.845 465.687 326.211C468.322 323.577 469.773 320.076 469.773 316.352V310.508C469.772 306.956 466.881 304.066 463.327 304.066ZM467.395 316.352C467.395 322.74 462.213 327.919 455.822 327.919H183.551C177.159 327.919 171.978 322.74 171.978 316.352V310.508C171.978 308.263 173.799 306.442 176.046 306.442H463.327C465.574 306.442 467.395 308.263 467.395 310.508V316.352Z" fill="#1977CC"/>
<path d="M183.551 327.92H455.822C460.03 327.92 463.713 325.674 465.739 322.317H173.634C175.66 325.674 179.343 327.92 183.551 327.92Z" fill="#A2DFFF"/>
<path d="M233.959 292.352C217.949 292.352 204.969 305.325 204.969 321.328C204.969 323.702 205.286 325.996 205.824 328.201H262.093C262.631 325.995 262.947 323.702 262.947 321.328C262.948 305.325 249.969 292.352 233.959 292.352Z" fill="#A2DFFF"/>
<path d="M256.137 299.159C253.258 296.28 249.903 294.02 246.168 292.441C242.299 290.805 238.192 289.976 233.958 289.976C229.723 289.976 225.616 290.805 221.747 292.441C218.012 294.02 214.657 296.28 211.778 299.159C208.898 302.037 206.637 305.39 205.057 309.123C203.42 312.99 202.59 317.097 202.59 321.328C202.59 323.754 202.9 326.255 203.513 328.764C203.772 329.829 204.726 330.577 205.822 330.577H262.091C263.187 330.577 264.141 329.828 264.4 328.764C265.012 326.255 265.322 323.754 265.322 321.328C265.322 317.097 264.493 312.99 262.856 309.123C261.279 305.39 259.018 302.038 256.137 299.159ZM262.093 328.202H205.824C205.285 325.996 204.969 323.703 204.969 321.329C204.969 305.325 217.949 292.353 233.96 292.353C249.971 292.353 262.95 305.325 262.95 321.329C262.948 323.703 262.631 325.996 262.093 328.202Z" fill="#1977CC"/>
<path d="M362.822 236.166C352.623 236.141 323.461 236.122 308.511 236.114C302.538 236.111 296.643 237.472 291.277 240.093C277.681 246.735 251.801 259.374 251.244 259.623H394.97C397.53 259.623 397.376 258.261 394.773 254.941C390.031 248.89 375.72 236.166 362.822 236.166Z" fill="white"/>
<path d="M396.644 253.475C391.611 247.054 376.723 233.794 362.829 233.79C352.756 233.765 324.474 233.747 308.513 233.738H308.512H308.49C305.342 233.738 302.189 234.098 299.122 234.807C296.055 235.517 293.064 236.577 290.235 237.959C265.489 250.048 250.926 257.153 250.264 257.46C249.248 257.92 248.688 259.027 248.921 260.12C249.155 261.216 250.124 262 251.246 262H394.971C395.734 262 396.37 261.907 396.917 261.717C398.044 261.325 398.598 260.591 398.864 260.046C399.366 259.016 399.283 257.804 398.62 256.445C398.22 255.629 397.592 254.686 396.644 253.475ZM394.969 259.624H251.243C251.801 259.375 277.68 246.736 291.276 240.094C296.636 237.475 302.522 236.115 308.488 236.115C308.495 236.115 308.503 236.115 308.51 236.115C323.46 236.123 352.623 236.142 362.821 236.167C375.718 236.167 390.028 248.891 394.771 254.942C397.375 258.262 397.529 259.624 394.969 259.624Z" fill="#1977CC"/>
<path d="M249.881 337.247C258.678 328.455 258.678 314.199 249.881 305.407C241.085 296.615 226.823 296.615 218.026 305.407C209.23 314.199 209.23 328.455 218.026 337.247C226.823 346.04 241.085 346.04 249.881 337.247Z" fill="#A2DFFF"/>
<path d="M251.567 303.728C249.28 301.442 246.617 299.648 243.652 298.395C240.58 297.096 237.319 296.438 233.958 296.438C230.598 296.438 227.336 297.096 224.265 298.395C221.3 299.648 218.636 301.442 216.35 303.728C214.064 306.013 212.269 308.675 211.015 311.639C209.715 314.71 209.056 317.969 209.056 321.328C209.056 324.687 209.715 327.947 211.015 331.018C212.269 333.982 214.064 336.644 216.35 338.929C218.636 341.214 221.3 343.009 224.265 344.262C227.337 345.561 230.598 346.219 233.958 346.219C237.319 346.219 240.581 345.561 243.652 344.262C246.617 343.009 249.28 341.214 251.567 338.929C253.853 336.644 255.648 333.982 256.902 331.018C258.202 327.947 258.86 324.688 258.86 321.328C258.86 317.968 258.202 314.708 256.902 311.639C255.648 308.675 253.853 306.013 251.567 303.728ZM233.958 343.844C221.518 343.844 211.433 333.763 211.433 321.329C211.433 308.895 221.518 298.814 233.958 298.814C246.399 298.814 256.483 308.895 256.483 321.329C256.483 333.763 246.399 343.844 233.958 343.844Z" fill="#1977CC"/>
<path d="M234.69 328.918C238.885 328.503 241.949 324.768 241.534 320.575C241.119 316.381 237.381 313.319 233.186 313.734C228.991 314.149 225.927 317.885 226.342 322.078C226.757 326.271 230.495 329.334 234.69 328.918Z" fill="#E0F4FC"/>
<path d="M233.959 312.512C229.094 312.512 225.137 316.467 225.137 321.329C225.137 326.192 229.094 330.147 233.959 330.147C238.823 330.147 242.78 326.192 242.78 321.329C242.78 316.467 238.822 312.512 233.959 312.512ZM233.959 327.77C230.405 327.77 227.514 324.881 227.514 321.328C227.514 317.776 230.405 314.886 233.959 314.886C237.513 314.886 240.403 317.776 240.403 321.328C240.403 324.881 237.512 327.77 233.959 327.77Z" fill="#1977CC"/>
<path d="M415.679 292.352C399.669 292.352 386.689 305.325 386.689 321.328C386.689 323.702 387.006 325.996 387.543 328.201H443.812C444.351 325.995 444.667 323.702 444.667 321.328C444.669 305.325 431.689 292.352 415.679 292.352Z" fill="#A2DFFF"/>
<path d="M437.859 299.159C434.98 296.28 431.625 294.02 427.89 292.441C424.021 290.805 419.913 289.976 415.679 289.976C411.445 289.976 407.337 290.805 403.469 292.441C399.734 294.02 396.379 296.28 393.499 299.159C390.62 302.037 388.358 305.39 386.778 309.123C385.142 312.99 384.312 317.097 384.312 321.328C384.312 323.754 384.622 326.255 385.234 328.764C385.494 329.829 386.448 330.577 387.543 330.577H443.813C444.908 330.577 445.862 329.828 446.122 328.764C446.734 326.255 447.044 323.754 447.044 321.328C447.044 317.097 446.214 312.99 444.578 309.123C443 305.39 440.738 302.038 437.859 299.159ZM443.814 328.202H387.545C387.006 325.996 386.69 323.703 386.69 321.329C386.69 305.325 399.669 292.353 415.68 292.353C431.69 292.353 444.671 305.325 444.671 321.329C444.669 323.703 444.352 325.996 443.814 328.202Z" fill="#1977CC"/>
<path d="M431.602 337.248C440.398 328.456 440.398 314.2 431.602 305.408C422.805 296.616 408.543 296.616 399.747 305.408C390.95 314.2 390.95 328.456 399.747 337.248C408.543 346.041 422.805 346.041 431.602 337.248Z" fill="#A2DFFF"/>
<path d="M433.288 303.728C431.002 301.442 428.339 299.648 425.373 298.395C422.301 297.096 419.04 296.438 415.679 296.438C412.317 296.438 409.056 297.096 405.986 298.395C403.02 299.648 400.357 301.442 398.071 303.728C395.784 306.013 393.989 308.675 392.735 311.639C391.436 314.71 390.777 317.969 390.777 321.328C390.777 324.687 391.436 327.947 392.735 331.018C393.989 333.982 395.784 336.644 398.071 338.929C400.357 341.214 403.02 343.009 405.986 344.262C409.057 345.561 412.318 346.219 415.679 346.219C419.039 346.219 422.301 345.561 425.373 344.262C428.339 343.009 431.002 341.214 433.288 338.929C435.575 336.644 437.37 333.982 438.624 331.018C439.923 327.947 440.582 324.688 440.582 321.328C440.582 317.968 439.923 314.708 438.624 311.639C437.37 308.675 435.575 306.013 433.288 303.728ZM415.68 343.844C403.24 343.844 393.155 333.763 393.155 321.329C393.155 308.895 403.24 298.814 415.68 298.814C428.12 298.814 438.205 308.895 438.205 321.329C438.205 333.763 428.12 343.844 415.68 343.844Z" fill="#1977CC"/>
<path d="M417.235 328.795C421.364 327.947 424.025 323.914 423.177 319.786C422.329 315.658 418.294 312.999 414.165 313.847C410.035 314.694 407.374 318.727 408.222 322.855C409.07 326.983 413.105 329.642 417.235 328.795Z" fill="#E0F4FC"/>
<path d="M415.68 312.512C410.815 312.512 406.858 316.467 406.858 321.329C406.858 326.192 410.815 330.147 415.68 330.147C420.544 330.147 424.501 326.192 424.501 321.329C424.501 316.467 420.543 312.512 415.68 312.512ZM415.68 327.77C412.126 327.77 409.235 324.881 409.235 321.328C409.235 317.776 412.126 314.886 415.68 314.886C419.234 314.886 422.124 317.776 422.124 321.328C422.124 324.881 419.234 327.77 415.68 327.77Z" fill="#1977CC"/>
<path d="M193.866 290.514H178.515C177.279 293.159 176.578 296.071 176.578 299.096V300.665H189.755C193.694 300.665 196.888 297.471 196.888 293.535C196.888 291.866 195.536 290.514 193.866 290.514Z" fill="white"/>
<path d="M193.867 289.326H178.516C178.054 289.326 177.634 289.593 177.439 290.012C176.08 292.922 175.392 295.977 175.392 299.096V300.665C175.392 301.322 175.924 301.853 176.58 301.853H189.757C194.346 301.853 198.079 298.122 198.079 293.537C198.077 291.216 196.188 289.326 193.867 289.326ZM189.757 299.478H177.769V299.096C177.769 296.57 178.279 294.087 179.289 291.702H193.868C194.879 291.702 195.702 292.526 195.702 293.537C195.701 296.813 193.034 299.478 189.757 299.478Z" fill="#1977CC"/>
<path d="M464.228 285.102H456.891C454.57 285.102 452.687 286.983 452.687 289.307C452.687 294.781 457.129 299.223 462.608 299.223H465.363C465.374 298.052 465.365 296.841 465.332 295.59C465.238 292.056 464.827 288.514 464.228 285.102Z" fill="white"/>
<path d="M465.398 284.896C465.299 284.328 464.805 283.914 464.228 283.914H456.891C453.918 283.914 451.499 286.333 451.499 289.307C451.499 295.43 456.483 300.411 462.608 300.411H465.363C466.015 300.411 466.546 299.886 466.552 299.235C466.563 298.019 466.553 296.783 466.52 295.559C466.432 292.215 466.055 288.627 465.398 284.896ZM462.608 298.035C457.794 298.035 453.876 294.12 453.876 289.307C453.876 287.644 455.229 286.29 456.891 286.29H463.224C463.757 289.553 464.067 292.688 464.144 295.621C464.166 296.423 464.177 297.231 464.178 298.035H462.608Z" fill="#1977CC"/>
<path d="M336.077 233.453H330.169C326.559 233.453 323.037 234.281 319.701 235.914C316.538 237.463 313.682 239.661 311.212 242.448C306.267 248.031 303.431 255.486 303.431 262.899V328.71C303.431 329.366 303.963 329.898 304.619 329.898C305.276 329.898 305.808 329.366 305.808 328.71V262.899C305.808 256.058 308.427 249.179 312.993 244.023C317.673 238.739 323.774 235.829 330.17 235.829H336.078C336.734 235.829 337.266 235.297 337.266 234.641C337.266 233.985 336.733 233.453 336.077 233.453Z" fill="#1977CC"/>
<path d="M373.495 237.68C372.839 237.68 372.307 238.211 372.307 238.868V302.566C372.307 309.349 369.765 315.766 365.149 320.637C360.529 325.511 354.419 328.196 347.945 328.196H342.037C341.38 328.196 340.848 328.728 340.848 329.384C340.848 330.04 341.38 330.572 342.037 330.572H347.945C355.078 330.572 361.801 327.624 366.874 322.27C371.91 316.958 374.683 309.959 374.683 302.566V238.868C374.684 238.211 374.152 237.68 373.495 237.68Z" fill="#1977CC"/>
<path d="M361.74 268.632H353.34C352.684 268.632 352.152 269.164 352.152 269.82C352.152 270.476 352.684 271.008 353.34 271.008H361.74C362.396 271.008 362.928 270.476 362.928 269.82C362.928 269.164 362.396 268.632 361.74 268.632Z" fill="#1977CC"/>
<path d="M297.849 268.632H289.449C288.793 268.632 288.261 269.164 288.261 269.82C288.261 270.476 288.793 271.008 289.449 271.008H297.849C298.505 271.008 299.037 270.476 299.037 269.82C299.037 269.164 298.505 268.632 297.849 268.632Z" fill="#1977CC"/>
<path d="M362.148 339.668C352.881 339.668 345.367 342.622 345.367 346.267C345.367 349.912 352.881 352.866 362.148 352.866C371.413 352.866 378.926 349.912 378.926 346.267C378.926 342.622 371.413 339.668 362.148 339.668Z" fill="#6B3F1A"/>
<path d="M431.675 375.38L317.568 377.737C317.02 377.749 316.476 377.78 315.934 377.82C315.844 377.786 315.756 377.749 315.664 377.717L228.296 351.935C218.383 348.404 206.366 346.668 199.71 355.057C196.373 359.262 195.433 363.293 195.239 365.974C195.106 367.825 196.21 369.541 197.952 370.182L304.381 409.357C306.594 410.144 308.844 410.545 311.032 410.596C313.31 411.112 315.741 411.371 318.264 411.318L430.514 400.356C443.047 400.097 454.905 400.974 454.716 391.7C454.522 382.427 444.207 375.12 431.675 375.38Z" fill="white"/>
<path d="M448.509 378.996C443.951 375.767 437.96 374.063 431.65 374.192L317.542 376.55C317.103 376.559 316.644 376.581 316.113 376.617C316.093 376.609 316.071 376.602 316.051 376.594C316.034 376.588 316.017 376.583 316 376.577L228.664 350.805C222.69 348.68 217.333 347.683 212.741 347.839C206.725 348.044 202.027 350.225 198.778 354.319C195.241 358.777 194.256 363.071 194.054 365.889C193.883 368.255 195.318 370.479 197.542 371.297L303.971 410.472C303.974 410.473 303.979 410.475 303.982 410.476C306.223 411.274 308.545 411.713 310.884 411.781C313.074 412.267 315.336 412.513 317.619 412.513C317.842 412.513 318.065 412.51 318.289 412.506C318.319 412.505 318.349 412.504 318.379 412.5L430.584 401.543C431.802 401.518 433.026 401.504 434.21 401.49C442.791 401.389 450.201 401.301 453.802 397.586C455.247 396.095 455.954 394.107 455.905 391.677C455.802 386.805 453.176 382.302 448.509 378.996ZM452.094 395.934C449.182 398.939 441.897 399.025 434.182 399.115C432.978 399.13 431.732 399.145 430.489 399.17C430.458 399.171 430.428 399.172 430.398 399.175L318.194 410.132C315.851 410.176 313.53 409.945 311.294 409.439C311.217 409.422 311.139 409.412 311.06 409.409C308.935 409.36 306.823 408.966 304.785 408.241L198.364 369.068C197.128 368.614 196.33 367.376 196.425 366.06C196.604 363.576 197.481 359.779 200.641 355.796C203.437 352.273 207.535 350.395 212.822 350.214C217.121 350.066 222.193 351.023 227.897 353.055C227.918 353.062 227.939 353.068 227.96 353.075L315.297 378.848C315.336 378.861 315.373 378.877 315.412 378.892L315.506 378.929C315.67 378.992 315.846 379.017 316.021 379.005C316.624 378.96 317.124 378.935 317.592 378.925L431.699 376.567C431.908 376.562 432.115 376.56 432.323 376.56C443.896 376.56 453.35 383.272 453.528 391.724C453.564 393.523 453.095 394.9 452.094 395.934Z" fill="#1977CC"/>
<path d="M469.861 355.77C469.861 355.77 452.341 340.925 421.059 329.939C389.779 318.953 384.704 338.646 384.704 338.646L330.846 346.554C330.846 346.554 338.138 367.676 368.21 383.947C390.072 395.775 436.39 404.121 440.213 404.392C454.704 405.423 515.163 410.313 515.163 410.313L509.598 353.237L469.861 355.77Z" fill="white"/>
<path d="M510.779 353.121C510.717 352.484 510.163 352.01 509.521 352.051L470.253 354.554C469.023 353.554 464.82 350.26 457.811 345.961C450.198 341.292 437.709 334.527 421.451 328.818C414.853 326.501 408.884 325.357 403.699 325.42C399.353 325.474 395.517 326.371 392.3 328.087C386.663 331.095 384.474 335.745 383.801 337.578L330.672 345.379C330.322 345.43 330.013 345.635 329.828 345.937C329.645 346.239 329.605 346.607 329.721 346.942C329.798 347.165 331.671 352.489 337.304 359.869C340.593 364.18 344.496 368.307 348.904 372.136C354.402 376.914 360.707 381.239 367.643 384.991C379.276 391.284 397.475 396.44 410.693 399.656C425.354 403.223 437.969 405.422 440.127 405.576C454.447 406.594 514.46 411.448 515.065 411.496C515.096 411.499 515.129 411.5 515.161 411.5C515.478 411.5 515.783 411.373 516.008 411.145C516.254 410.893 516.378 410.546 516.343 410.197L510.779 353.121ZM440.295 403.207C438.662 403.091 426.416 401.038 411.255 397.349C398.173 394.166 380.184 389.076 368.774 382.902C362.02 379.248 355.881 375.042 350.531 370.402C346.253 366.692 342.464 362.698 339.271 358.529C335.459 353.552 333.412 349.503 332.522 347.509L384.875 339.821C385.346 339.752 385.731 339.406 385.852 338.945C385.867 338.89 387.387 333.376 393.47 330.155C396.349 328.631 399.816 327.837 403.773 327.795C408.664 327.743 414.347 328.842 420.662 331.059C436.695 336.688 449.006 343.353 456.511 347.952C464.647 352.938 469.047 356.638 469.09 356.676C469.324 356.875 469.625 356.975 469.934 356.955L508.524 354.494L513.839 409.014C504.632 408.27 453.39 404.137 440.295 403.207Z" fill="#1977CC"/>
<path d="M319.704 364.726L233.183 341.901C228.151 339.99 222.211 338.413 217.113 338.428C212.038 338.444 209.285 339.661 205.25 344.34C202.379 347.669 201.324 353.786 200.942 357.407C200.753 359.193 201.732 360.898 203.37 361.638C204.068 361.954 204.89 362.301 205.815 362.652L309.607 402.097C311.848 402.948 314.133 403.403 316.363 403.501C318.679 404.076 321.153 404.392 323.73 404.392H440.211L366.825 366.846C341.681 365.723 319.743 364.741 319.704 364.726Z" fill="white"/>
<path d="M440.211 403.204H323.73C321.323 403.204 318.94 402.916 316.649 402.347C316.573 402.328 316.494 402.317 316.415 402.313C314.249 402.219 312.101 401.773 310.029 400.986L206.237 361.541C205.43 361.235 204.63 360.903 203.859 360.555C202.686 360.025 201.989 358.81 202.124 357.531C202.471 354.234 203.457 348.237 206.15 345.116C209.861 340.812 212.218 339.63 217.116 339.615C217.139 339.615 217.161 339.615 217.185 339.615C221.465 339.615 226.993 340.82 232.761 343.01C232.799 343.025 232.839 343.037 232.88 343.049L319.344 365.858C319.485 365.906 319.629 365.913 320.653 365.961C321.306 365.992 322.265 366.036 323.493 366.092C325.948 366.204 329.479 366.363 333.796 366.557C342.429 366.945 354.199 367.471 366.77 368.032C367.423 368.065 367.982 367.553 368.011 366.898C368.04 366.243 367.532 365.688 366.877 365.658C330.303 364.027 320.957 363.601 319.892 363.546L233.546 340.768C225.465 337.707 219.849 337.239 217.177 337.239C217.155 337.239 217.131 337.239 217.108 337.239C211.495 337.256 208.514 338.734 204.348 343.565C201.389 346.995 200.219 352.917 199.758 357.282C199.515 359.582 200.769 361.768 202.879 362.72C203.694 363.088 204.538 363.439 205.39 363.762L309.183 403.207C311.454 404.069 313.811 404.566 316.19 404.682C318.632 405.279 321.169 405.581 323.728 405.581H440.209C440.865 405.581 441.397 405.049 441.397 404.393C441.397 403.737 440.867 403.204 440.211 403.204Z" fill="#1977CC"/>
<path d="M353.721 370.935L347.51 370.494C355.263 371.897 360.182 372.636 353.721 370.935Z" fill="#E0F4FC"/>
<path d="M270.267 352.861C269.928 358.292 276.032 365.425 284.076 365.985L347.51 370.494C337.135 368.616 321.687 365.546 321.653 365.532L270.267 352.861Z" fill="#E0F4FC"/>
<path d="M358.7 333.944C351.798 335.089 344.845 335.834 338.6 336.316L289.919 327.057C281.948 325.293 274.061 330.333 272.299 338.301C270.541 346.265 275.581 354.153 283.553 355.909L364.165 373.456L421.058 329.936C400.006 321.793 378.842 330.602 358.7 333.944Z" fill="white"/>
<path d="M421.486 328.831C405.068 322.479 388.695 326.201 372.862 329.8C368.125 330.877 363.227 331.99 358.505 332.774C352.457 333.777 345.782 334.567 338.665 335.12L290.158 325.895C285.998 324.98 281.731 325.738 278.14 328.031C274.545 330.326 272.059 333.884 271.137 338.048C270.219 342.21 270.978 346.481 273.275 350.075C275.572 353.669 279.131 356.155 283.299 357.073L363.911 374.619C363.996 374.638 364.081 374.647 364.165 374.647C364.711 374.647 365.204 374.268 365.325 373.711C365.464 373.07 365.058 372.437 364.416 372.298L283.807 354.751C280.262 353.969 277.232 351.855 275.278 348.795C273.323 345.735 272.677 342.101 273.457 338.558C274.242 335.013 276.358 331.985 279.419 330.031C282.48 328.078 286.117 327.434 289.661 328.217C289.672 328.219 289.684 328.221 289.696 328.224L338.376 337.482C338.479 337.502 338.585 337.507 338.69 337.499C345.935 336.939 352.732 336.137 358.893 335.116C363.685 334.32 368.617 333.199 373.388 332.114C388.873 328.595 404.886 324.954 420.627 331.044C421.24 331.28 421.928 330.977 422.164 330.365C422.403 329.755 422.099 329.068 421.486 328.831Z" fill="#1977CC"/>
<path d="M290.389 334.019L283.558 332.769C280.887 337.151 279.875 342.509 280.765 347.57L280.804 347.798L287.635 349.048C291.247 349.709 294.791 346.881 295.551 342.73C296.312 338.579 294.001 334.679 290.389 334.019Z" fill="#E0F4FC"/>
<path d="M290.817 331.681L283.986 330.431C283.843 330.405 283.699 330.393 283.557 330.393C282.738 330.393 281.964 330.817 281.527 331.532C280.048 333.959 279.026 336.631 278.49 339.474C277.953 342.317 277.93 345.179 278.423 347.98L278.462 348.209C278.634 349.187 279.397 349.955 280.375 350.134L287.206 351.384C287.694 351.474 288.193 351.519 288.688 351.519C290.858 351.519 292.989 350.655 294.685 349.084C296.329 347.563 297.466 345.458 297.888 343.157C298.359 340.586 297.92 337.993 296.654 335.855C295.324 333.609 293.25 332.127 290.817 331.681ZM295.552 342.73C294.866 346.474 291.913 349.143 288.69 349.143C288.341 349.143 287.989 349.112 287.636 349.047L280.805 347.797L280.766 347.568C279.876 342.508 280.887 337.15 283.559 332.767L290.39 334.017C294 334.679 296.312 338.579 295.552 342.73Z" fill="#1977CC"/>
<path d="M291.956 348.191C293.736 347.095 295.111 345.134 295.552 342.73C295.992 340.326 295.401 338.006 294.124 336.351C292.302 339.984 291.538 344.142 291.956 348.191Z" fill="white"/>
<path d="M315.794 340.654C315.149 340.535 314.53 340.962 314.411 341.608L312.791 350.458C312.673 351.103 313.1 351.721 313.746 351.84C313.818 351.854 313.891 351.859 313.961 351.859C314.523 351.859 315.024 351.458 315.129 350.885L316.75 342.036C316.867 341.39 316.44 340.771 315.794 340.654Z" fill="#1977CC"/>
<path d="M318.839 343.705C318.194 343.587 317.575 344.014 317.456 344.66L316.719 348.682C316.602 349.327 317.028 349.946 317.675 350.065C317.747 350.078 317.82 350.084 317.89 350.084C318.452 350.084 318.953 349.682 319.058 349.11L319.795 345.088C319.912 344.442 319.486 343.823 318.839 343.705Z" fill="#1977CC"/>
<path d="M220.765 357.797L211.313 355.764C209.247 355.319 207.134 356.292 206.137 358.154C205.429 359.476 204.679 360.952 204.25 362.024C204.731 362.227 205.253 362.439 205.814 362.653L230.396 371.995C230.758 365.173 226.809 359.097 220.765 357.797Z" fill="#E0F4FC"/>
<path d="M221.015 356.635L211.563 354.602C208.991 354.049 206.329 355.279 205.09 357.592C204.181 359.287 203.528 360.63 203.147 361.581C202.907 362.181 203.192 362.863 203.787 363.115C204.317 363.341 204.857 363.558 205.394 363.761L229.976 373.104C230.113 373.156 230.255 373.182 230.398 373.182C230.626 373.182 230.851 373.116 231.047 372.99C231.365 372.783 231.565 372.436 231.584 372.057C231.983 364.524 227.538 358.038 221.015 356.635ZM206.237 361.542C206.102 361.49 205.966 361.438 205.829 361.385C206.177 360.644 206.635 359.741 207.185 358.716C207.927 357.331 209.522 356.594 211.063 356.926L220.515 358.959C225.416 360.013 228.888 364.642 229.207 370.272L206.237 361.542Z" fill="#1977CC"/>
<path d="M215.784 368.657L205.983 366.549C204.121 366.149 202.214 367.01 201.29 368.674C200.836 369.491 200.386 370.334 200.092 370.972L225.345 380.267C224.726 374.549 221.051 369.79 215.784 368.657Z" fill="#E0F4FC"/>
<path d="M223.232 371.996C221.342 369.659 218.853 368.102 216.034 367.496L206.234 365.388C203.842 364.873 201.438 365.963 200.251 368.098C199.698 369.09 199.283 369.89 199.012 370.476C198.874 370.777 198.868 371.122 198.994 371.428C199.121 371.734 199.37 371.973 199.681 372.088L224.934 381.383C225.068 381.431 225.207 381.456 225.345 381.456C225.606 381.456 225.865 381.37 226.076 381.205C226.4 380.952 226.571 380.55 226.527 380.141C226.194 377.067 225.054 374.25 223.232 371.996ZM201.749 370.316C201.919 369.996 202.113 369.64 202.328 369.252C203.002 368.038 204.371 367.419 205.732 367.711L215.533 369.818C217.814 370.309 219.836 371.579 221.382 373.489C222.526 374.904 223.351 376.588 223.815 378.438L201.749 370.316Z" fill="#1977CC"/>
<path d="M469.861 355.769C469.861 355.769 467.925 354.129 464.195 351.538L457.208 405.686C480.332 407.495 515.163 410.312 515.163 410.312L509.599 353.235L469.861 355.769Z" fill="#E0F4FC"/>
<path d="M510.78 353.121C510.718 352.484 510.165 352.01 509.521 352.051L470.254 354.554C469.519 353.958 467.715 352.537 464.873 350.563C464.334 350.189 463.594 350.322 463.218 350.861C462.843 351.399 462.977 352.14 463.516 352.515C467.144 355.036 469.073 356.661 469.092 356.677C469.327 356.875 469.628 356.975 469.937 356.956L508.526 354.496L513.842 409.015C507.069 408.468 477.53 406.085 457.301 404.504C456.645 404.452 456.075 404.942 456.023 405.595C455.971 406.249 456.461 406.821 457.115 406.873C479.973 408.66 514.718 411.47 515.066 411.499C515.098 411.501 515.131 411.502 515.162 411.502C515.479 411.502 515.785 411.375 516.009 411.147C516.256 410.896 516.379 410.548 516.344 410.199L510.78 353.121Z" fill="#1977CC"/>
<path d="M476.015 329.746L464.583 423.176L537.385 432.076L548.817 338.646L476.015 329.746Z" fill="white"/>
<path d="M548.975 337.476L476.174 328.574C475.521 328.494 474.93 328.958 474.849 329.61L463.415 423.039C463.377 423.351 463.465 423.667 463.659 423.915C463.853 424.163 464.137 424.324 464.451 424.363L537.252 433.264C537.301 433.27 537.349 433.273 537.398 433.273C537.99 433.273 538.503 432.832 538.576 432.229L550.01 338.799C550.049 338.487 549.96 338.172 549.767 337.924C549.572 337.675 549.287 337.513 548.975 337.476ZM536.36 430.762L465.918 422.149L477.063 331.077L547.506 339.69L536.36 430.762Z" fill="#1977CC"/>
<path d="M486.056 325.379L474.093 422.964C474.056 423.076 474.02 423.188 473.986 423.3C471.151 432.497 477.725 441.924 487.323 442.67L679.999 465.999V332.738L505.499 315.653C492.378 315.058 488.737 317.328 486.056 325.379Z" fill="#A2DFFF"/>
<path d="M501.875 315.565C491.667 315.565 488.472 318.126 486.056 325.381L474.093 422.966C474.056 423.078 474.02 423.19 473.986 423.302C471.151 432.498 477.725 441.926 487.323 442.671L679.999 466V332.74L505.499 315.655C504.2 315.596 502.995 315.565 501.875 315.565ZM677.623 463.32L487.609 440.314C487.575 440.309 487.541 440.306 487.507 440.303C483.602 440 480.098 437.967 477.892 434.725C475.731 431.549 475.134 427.641 476.256 424.001C476.286 423.907 476.316 423.811 476.348 423.717C476.398 423.567 476.433 423.413 476.452 423.255L488.385 325.91C489.499 322.636 490.653 320.842 492.34 319.743C494.255 318.497 497.195 317.941 501.873 317.941C502.927 317.941 504.058 317.968 505.328 318.026L677.623 334.895V463.32Z" fill="#1977CC"/>
<path d="M135.911 185.62H86.37C84.5737 185.62 83.1182 187.075 83.1182 188.87V252.288C83.1182 254.084 84.5737 255.538 86.37 255.538H135.911C137.708 255.538 139.163 254.084 139.163 252.288V188.87C139.163 187.075 137.708 185.62 135.911 185.62Z" fill="#A2DFFF"/>
<path d="M135.911 184.432H86.37C83.9218 184.432 81.9297 186.423 81.9297 188.87V252.288C81.9297 254.735 83.9218 256.726 86.37 256.726H135.911C138.36 256.726 140.352 254.735 140.352 252.288V188.87C140.352 186.423 138.36 184.432 135.911 184.432ZM137.975 252.288C137.975 253.425 137.049 254.35 135.911 254.35H86.37C85.2324 254.35 84.3066 253.425 84.3066 252.288V188.87C84.3066 187.733 85.2324 186.807 86.37 186.807H135.911C137.049 186.807 137.975 187.733 137.975 188.87V252.288Z" fill="#1977CC"/>
<path d="M134.723 191.193H87.5583V252.731H134.723V191.193Z" fill="#72C8ED"/>
<path d="M134.724 189.44H87.5596V250.978H134.724V189.44Z" fill="white"/>
<path d="M134.723 188.253H87.5588C86.9023 188.253 86.3704 188.785 86.3704 189.441V250.978C86.3704 251.634 86.9023 252.166 87.5588 252.166H134.723C135.38 252.166 135.912 251.634 135.912 250.978V189.441C135.912 188.785 135.38 188.253 134.723 188.253ZM133.535 249.79H88.7473V190.629H133.535V249.79Z" fill="#1977CC"/>
<path d="M120.001 238.151C119.585 237.736 118.913 237.736 118.497 238.151L118.2 238.45C117.784 238.865 117.784 239.537 118.2 239.952L120.731 242.482C121.146 242.897 121.818 242.897 122.234 242.482L122.531 242.184C122.947 241.769 122.947 241.097 122.531 240.682L120.001 238.151Z" fill="#A2DFFF"/>
<path d="M127.455 235.292C127.004 234.842 126.273 234.842 125.822 235.292L120.495 240.616C120.045 241.066 120.045 241.797 120.495 242.248L120.664 242.417C121.114 242.867 121.845 242.867 122.297 242.417L127.624 237.093C128.074 236.643 128.074 235.912 127.624 235.46L127.455 235.292Z" fill="#A2DFFF"/>
<path d="M127.088 199.718H95.0178C94.3613 199.718 93.8293 200.249 93.8293 200.906C93.8293 201.562 94.3613 202.094 95.0178 202.094H127.088C127.744 202.094 128.276 201.562 128.276 200.906C128.276 200.249 127.743 199.718 127.088 199.718Z" fill="#A2DFFF"/>
<path d="M124.444 203.2H95.018C94.3616 203.2 93.8296 203.732 93.8296 204.388C93.8296 205.044 94.3616 205.576 95.018 205.576H124.443C125.099 205.576 125.631 205.044 125.631 204.388C125.631 203.732 125.101 203.2 124.444 203.2Z" fill="#A2DFFF"/>
<path d="M106.608 206.683H95.018C94.3616 206.683 93.8296 207.214 93.8296 207.871C93.8296 208.527 94.3616 209.058 95.018 209.058H106.607C107.264 209.058 107.796 208.527 107.796 207.871C107.796 207.214 107.264 206.683 106.608 206.683Z" fill="#A2DFFF"/>
<path d="M127.089 212.896H95.0185C94.3621 212.896 93.8301 213.427 93.8301 214.083C93.8301 214.74 94.3621 215.271 95.0185 215.271H127.089C127.745 215.271 128.277 214.74 128.277 214.083C128.277 213.427 127.744 212.896 127.089 212.896Z" fill="#A2DFFF"/>
<path d="M124.444 216.378H95.0183C94.3618 216.378 93.8298 216.91 93.8298 217.566C93.8298 218.222 94.3618 218.754 95.0183 218.754H124.443C125.1 218.754 125.632 218.222 125.632 217.566C125.632 216.91 125.101 216.378 124.444 216.378Z" fill="#A2DFFF"/>
<path d="M106.609 219.861H95.0183C94.3618 219.861 93.8298 220.393 93.8298 221.049C93.8298 221.705 94.3618 222.237 95.0183 222.237H106.607C107.264 222.237 107.796 221.705 107.796 221.049C107.796 220.393 107.264 219.861 106.609 219.861Z" fill="#A2DFFF"/>
<path d="M127.089 226.073H95.0185C94.3621 226.073 93.8301 226.605 93.8301 227.261C93.8301 227.917 94.3621 228.449 95.0185 228.449H127.089C127.745 228.449 128.277 227.917 128.277 227.261C128.277 226.605 127.744 226.073 127.089 226.073Z" fill="#A2DFFF"/>
<path d="M124.444 229.557H95.0183C94.3618 229.557 93.8298 230.088 93.8298 230.745C93.8298 231.401 94.3618 231.932 95.0183 231.932H124.443C125.1 231.932 125.632 231.401 125.632 230.745C125.632 230.088 125.101 229.557 124.444 229.557Z" fill="#A2DFFF"/>
<path d="M106.609 233.039H95.0183C94.3618 233.039 93.8298 233.571 93.8298 234.227C93.8298 234.883 94.3618 235.415 95.0183 235.415H106.607C107.264 235.415 107.796 234.883 107.796 234.227C107.796 233.571 107.264 233.039 106.609 233.039Z" fill="#A2DFFF"/>
<path d="M113.621 181.754H108.415C106.174 181.754 104.357 183.588 104.357 185.85V187.302H106.022V185.85C106.022 184.51 107.095 183.418 108.415 183.418H113.621C114.939 183.418 116.012 184.509 116.012 185.85V187.302H117.677V185.85C117.677 183.589 115.86 181.754 113.621 181.754Z" fill="#E0F4FC"/>
<path d="M113.621 179.378H108.415C104.868 179.378 101.981 182.281 101.981 185.85V187.302C101.981 188.614 103.045 189.678 104.358 189.678H106.023C107.336 189.678 108.399 188.614 108.399 187.302V185.85C108.399 185.816 108.414 185.8 108.422 185.794H113.613C113.621 185.8 113.635 185.816 113.635 185.85V187.302C113.635 188.614 114.699 189.678 116.012 189.678H117.677C118.99 189.678 120.054 188.614 120.054 187.302V185.85C120.054 182.282 117.168 179.378 113.621 179.378ZM117.677 187.302H116.012V185.85C116.012 184.51 114.939 183.418 113.621 183.418H108.415C107.096 183.418 106.023 184.508 106.023 185.85V187.302H104.358V185.85C104.358 183.589 106.174 181.754 108.415 181.754H113.621C115.862 181.754 117.677 183.588 117.677 185.85V187.302Z" fill="#1977CC"/>
<path d="M118.615 185.082H103.42C101.179 185.082 99.3625 186.916 99.3625 189.179V191.184H122.672V189.179C122.672 186.917 120.855 185.082 118.615 185.082Z" fill="#E0F4FC"/>
<path d="M118.615 182.706H103.42C99.8718 182.706 96.9856 185.61 96.9856 189.178V191.184C96.9856 192.497 98.0495 193.56 99.3625 193.56H122.672C123.985 193.56 125.049 192.497 125.049 191.184V189.178C125.049 185.61 122.163 182.706 118.615 182.706ZM122.672 191.184H99.3625V189.178C99.3625 186.916 101.18 185.082 103.42 185.082H118.614C120.855 185.082 122.672 186.916 122.672 189.178V191.184Z" fill="#1977CC"/>
<path d="M496.838 145.716C487.03 148.953 476.548 148.178 467.323 143.535C458.099 138.892 451.235 130.935 447.997 121.132C447.791 120.509 447.118 120.171 446.496 120.377C445.872 120.583 445.534 121.255 445.74 121.877C447.477 127.135 450.193 131.897 453.812 136.03C457.307 140.021 461.494 143.26 466.255 145.656C471.015 148.052 476.111 149.486 481.4 149.917C482.512 150.007 483.622 150.053 484.73 150.053C489.08 150.053 493.39 149.356 497.583 147.972C498.207 147.766 498.546 147.094 498.34 146.472C498.132 145.85 497.46 145.51 496.838 145.716Z" fill="#1977CC"/>
<path d="M524.589 108.147C524.586 108.147 524.583 108.147 524.58 108.147C523.928 108.147 523.397 108.674 523.392 109.326C523.36 113.31 522.71 117.257 521.461 121.057C520.225 124.814 518.43 128.35 516.124 131.564C511.336 138.24 504.666 143.134 496.837 145.717C492.421 147.174 487.846 147.824 483.243 147.648C478.793 147.478 474.434 146.545 470.285 144.874C461.929 141.509 454.98 135.32 450.72 127.447C450.407 126.87 449.686 126.655 449.109 126.967C448.532 127.279 448.317 128 448.629 128.577C453.152 136.936 460.528 143.507 469.397 147.078C473.801 148.85 478.428 149.841 483.151 150.022C483.673 150.043 484.194 150.052 484.715 150.052C489.074 150.052 493.395 149.354 497.582 147.972C505.892 145.23 512.972 140.035 518.055 132.947C520.501 129.536 522.407 125.785 523.718 121.798C525.044 117.764 525.735 113.573 525.768 109.343C525.773 108.688 525.246 108.152 524.589 108.147Z" fill="#1977CC"/>
<path d="M525.586 108.703C525.39 108.392 525.062 108.188 524.695 108.153C524.331 108.118 523.968 108.252 523.715 108.519L518.364 114.187C517.913 114.665 517.935 115.416 518.412 115.866C518.89 116.317 519.642 116.295 520.092 115.818L524.39 111.265L527.618 116.398C527.844 116.757 528.23 116.954 528.625 116.954C528.841 116.954 529.06 116.895 529.257 116.771C529.813 116.422 529.98 115.689 529.63 115.133L525.586 108.703Z" fill="#1977CC"/>
<path d="M509.901 103.793H502.593C502.213 102.488 501.696 101.243 501.054 100.074L506.22 94.9105C507.458 93.6728 507.458 91.6669 506.22 90.4293L503.311 87.5218C502.073 86.2841 500.066 86.2841 498.828 87.5218L493.662 92.6851C492.493 92.0437 491.247 91.5278 489.942 91.1465V83.8427C489.942 82.0925 488.522 80.6738 486.771 80.6738H482.657C480.906 80.6738 479.487 82.0925 479.487 83.8427V91.1465C478.182 91.5267 476.935 92.0437 475.766 92.6851L470.6 87.5218C469.362 86.2841 467.355 86.2841 466.117 87.5218L463.208 90.4293C461.97 91.6669 461.97 93.6728 463.208 94.9105L468.374 100.074C467.732 101.243 467.216 102.488 466.835 103.793H459.527C457.776 103.793 456.357 105.211 456.357 106.961V111.074C456.357 112.824 457.776 114.243 459.527 114.243H466.835C467.216 115.547 467.732 116.793 468.374 117.961L463.208 123.125C461.97 124.362 461.97 126.368 463.208 127.606L466.117 130.513C467.355 131.751 469.362 131.751 470.6 130.513L475.766 125.35C476.935 125.991 478.182 126.507 479.487 126.889V134.192C479.487 135.943 480.906 137.361 482.657 137.361H486.771C488.522 137.361 489.942 135.943 489.942 134.192V126.889C491.247 126.508 492.493 125.991 493.662 125.35L498.828 130.513C500.066 131.751 502.073 131.751 503.311 130.513L506.22 127.606C507.458 126.368 507.458 124.362 506.22 123.125L501.054 117.961C501.696 116.793 502.212 115.547 502.593 114.243H509.901C511.652 114.243 513.071 112.824 513.071 111.074V106.961C513.07 105.211 511.652 103.793 509.901 103.793ZM484.714 117.942C479.822 117.942 475.856 113.978 475.856 109.088C475.856 104.199 479.822 100.234 484.714 100.234C489.605 100.234 493.571 104.199 493.571 109.088C493.573 113.978 489.607 117.942 484.714 117.942Z" fill="#A2DFFF"/>
<path d="M509.902 102.604H503.464C503.194 101.813 502.875 101.043 502.509 100.298L507.061 95.7493C508.76 94.0512 508.76 91.2874 507.061 89.5892L504.152 86.6817C502.453 84.9836 499.688 84.9836 497.988 86.6817L493.438 91.2308C492.693 90.8665 491.921 90.5475 491.131 90.2771V83.8421C491.131 81.4403 489.176 79.4854 486.772 79.4854H482.658C480.255 79.4854 478.299 81.4392 478.299 83.8421V90.2771C477.508 90.5463 476.737 90.8654 475.992 91.2308L471.441 86.6817C470.618 85.8593 469.524 85.4056 468.359 85.4056C467.194 85.4056 466.1 85.8581 465.277 86.6817L462.368 89.5892C460.669 91.2874 460.669 94.0512 462.368 95.7505L466.919 100.3C466.555 101.044 466.236 101.814 465.965 102.605H459.527C457.124 102.605 455.168 104.559 455.168 106.962V111.074C455.168 113.476 457.123 115.431 459.527 115.431H465.965C466.236 116.222 466.554 116.992 466.919 117.737L462.368 122.286C460.669 123.984 460.669 126.748 462.368 128.447L465.277 131.354C466.1 132.177 467.194 132.631 468.359 132.631C469.524 132.631 470.618 132.177 471.441 131.354L475.992 126.807C476.737 127.171 477.508 127.49 478.299 127.759V134.194C478.299 136.596 480.254 138.551 482.658 138.551H486.772C489.175 138.551 491.131 136.597 491.131 134.194V127.759C491.922 127.489 492.693 127.171 493.438 126.805L497.989 131.353C498.812 132.176 499.906 132.63 501.071 132.63C502.236 132.63 503.33 132.177 504.153 131.353L507.062 128.446C508.761 126.748 508.761 123.984 507.062 122.285L502.511 117.736C502.875 116.991 503.194 116.22 503.465 115.43H509.903C512.306 115.43 514.262 113.476 514.262 111.073V106.961C514.259 104.558 512.305 102.604 509.902 102.604ZM511.882 111.072C511.882 112.164 510.994 113.053 509.901 113.053H502.593C502.065 113.053 501.601 113.401 501.452 113.908C501.097 115.123 500.612 116.294 500.013 117.388C499.758 117.851 499.841 118.427 500.214 118.8L505.38 123.964C506.153 124.736 506.153 125.992 505.38 126.765L502.471 129.672C502.096 130.047 501.599 130.253 501.07 130.253C500.54 130.253 500.043 130.047 499.669 129.672L494.503 124.509C494.129 124.135 493.554 124.054 493.09 124.307C491.996 124.908 490.824 125.392 489.609 125.747C489.102 125.895 488.753 126.359 488.753 126.887V134.191C488.753 135.282 487.864 136.172 486.771 136.172H482.657C481.565 136.172 480.675 135.284 480.675 134.191V126.887C480.675 126.359 480.326 125.895 479.819 125.747C478.602 125.391 477.431 124.907 476.338 124.307C476.158 124.209 475.962 124.16 475.766 124.16C475.458 124.16 475.154 124.28 474.925 124.509L469.759 129.672C469.385 130.047 468.888 130.253 468.358 130.253C467.828 130.253 467.331 130.047 466.957 129.672L464.048 126.765C463.275 125.992 463.275 124.736 464.048 123.964L469.214 118.8C469.587 118.427 469.67 117.852 469.415 117.388C468.815 116.294 468.331 115.123 467.975 113.908C467.827 113.401 467.363 113.053 466.835 113.053H459.527C458.435 113.053 457.545 112.165 457.545 111.072V106.96C457.545 105.868 458.434 104.979 459.527 104.979H466.835C467.363 104.979 467.827 104.63 467.975 104.123C468.331 102.907 468.815 101.736 469.415 100.643C469.67 100.181 469.587 99.6049 469.214 99.2316L464.048 94.0682C463.275 93.2955 463.275 92.0397 464.048 91.267L466.957 88.3595C467.331 87.985 467.828 87.7791 468.358 87.7791C468.888 87.7791 469.385 87.985 469.759 88.3595L474.925 93.5229C475.299 93.8962 475.874 93.9788 476.338 93.7243C477.432 93.1235 478.604 92.6393 479.819 92.2852C480.326 92.137 480.675 91.6732 480.675 91.1448V83.8421C480.675 82.7504 481.563 81.8611 482.657 81.8611H486.771C487.863 81.8611 488.753 82.7492 488.753 83.8421V91.1459C488.753 91.6743 489.102 92.1381 489.609 92.2863C490.824 92.6404 491.996 93.1246 493.09 93.7254C493.553 93.9788 494.128 93.8973 494.503 93.524L499.669 88.3606C500.442 87.5879 501.698 87.5891 502.471 88.3606L505.38 91.2681C506.153 92.0397 506.153 93.2966 505.38 94.0693L500.214 99.2327C499.841 99.606 499.758 100.181 500.013 100.645C500.614 101.739 501.098 102.91 501.452 104.125C501.601 104.631 502.065 104.98 502.593 104.98H509.901C510.993 104.98 511.882 105.868 511.882 106.961V111.072Z" fill="#1977CC"/>
<path d="M484.715 99.0459C479.176 99.0459 474.669 103.551 474.669 109.088C474.669 114.624 479.176 119.129 484.715 119.129C490.255 119.129 494.762 114.624 494.762 109.088C494.762 103.55 490.255 99.0459 484.715 99.0459ZM484.715 116.753C480.487 116.753 477.046 113.314 477.046 109.088C477.046 104.861 480.487 101.422 484.715 101.422C488.944 101.422 492.385 104.861 492.385 109.088C492.385 113.314 488.944 116.753 484.715 116.753Z" fill="#1977CC"/>
<path d="M484.715 96.4355C477.763 96.4355 472.129 102.068 472.129 109.016C472.129 115.963 477.764 121.596 484.715 121.596C491.666 121.596 497.301 115.963 497.301 109.016C497.301 102.068 491.666 96.4355 484.715 96.4355ZM484.715 116.213C480.777 116.213 477.586 113.023 477.586 109.087C477.586 105.151 480.777 101.961 484.715 101.961C488.653 101.961 491.845 105.151 491.845 109.087C491.845 113.023 488.653 116.213 484.715 116.213Z" fill="#A2DFFF"/>
<path d="M484.715 100.772C480.129 100.772 476.397 104.502 476.397 109.087C476.397 113.671 480.129 117.401 484.715 117.401C489.301 117.401 493.033 113.671 493.033 109.087C493.033 104.502 489.301 100.772 484.715 100.772ZM484.715 115.026C481.439 115.026 478.774 112.362 478.774 109.088C478.774 105.814 481.439 103.149 484.715 103.149C487.991 103.149 490.656 105.814 490.656 109.088C490.656 112.362 487.991 115.026 484.715 115.026Z" fill="#1977CC"/>
<path d="M484.715 95.248C477.119 95.248 470.94 101.425 470.94 109.016C470.94 116.609 477.119 122.785 484.715 122.785C492.311 122.785 498.49 116.608 498.49 109.016C498.49 101.424 492.31 95.248 484.715 95.248ZM484.715 120.409C478.43 120.409 473.317 115.299 473.317 109.016C473.317 102.734 478.43 97.6238 484.715 97.6238C491 97.6238 496.113 102.734 496.113 109.016C496.113 115.299 490.999 120.409 484.715 120.409Z" fill="#1977CC"/>
<path d="M500.033 70.9552C495.629 69.1824 491.002 68.1913 486.279 68.0103C481.392 67.8237 476.535 68.5127 471.848 70.0592C463.538 72.8015 456.458 77.9966 451.375 85.0843C448.929 88.4953 447.023 92.2468 445.712 96.2336C444.385 100.268 443.695 104.458 443.662 108.688C443.656 109.345 444.185 109.881 444.842 109.885C444.845 109.885 444.848 109.885 444.851 109.885C445.503 109.885 446.033 109.359 446.039 108.706C446.071 104.723 446.72 100.776 447.97 96.9757C449.206 93.2186 451.001 89.6832 453.307 86.4691C458.094 79.7931 464.763 74.899 472.592 72.3162C477.009 70.859 481.584 70.2096 486.187 70.385C490.637 70.5547 494.995 71.488 499.145 73.159C507.501 76.5236 514.45 82.7131 518.71 90.586C519.022 91.163 519.743 91.3779 520.321 91.0657C520.898 90.7534 521.113 90.0328 520.801 89.4558C516.278 81.0964 508.902 74.5257 500.033 70.9552Z" fill="#1977CC"/>
<path d="M449.337 102.214L445.039 106.767L441.811 101.634C441.462 101.079 440.728 100.911 440.172 101.261C439.617 101.61 439.449 102.343 439.799 102.899L443.844 109.332C444.04 109.643 444.368 109.846 444.735 109.881C444.773 109.885 444.812 109.887 444.85 109.887C445.175 109.887 445.489 109.754 445.715 109.515L451.067 103.847C451.517 103.37 451.496 102.618 451.018 102.168C450.539 101.716 449.788 101.737 449.337 102.214Z" fill="#1977CC"/>
<path d="M192.237 65.2725C171.432 65.2725 154.566 68.4096 154.566 72.2788C154.566 72.3105 154.571 72.3433 154.573 72.3749H154.566V124.228C154.566 128.241 155.449 132.372 158.882 134.39C164.4 137.635 192.239 152.762 192.239 152.762C192.314 152.697 220.075 137.635 225.593 134.39C229.026 132.372 229.909 128.241 229.909 124.228V72.3761H229.902C229.904 72.3444 229.909 72.3116 229.909 72.2799C229.907 68.4096 213.042 65.2725 192.237 65.2725Z" fill="#A2DFFF"/>
<path d="M227.427 68.4645C225.446 67.5934 222.641 66.8173 219.093 66.1566C211.908 64.8205 202.371 64.084 192.238 64.084C182.105 64.084 172.568 64.8193 165.384 66.1566C161.834 66.8161 159.031 67.5934 157.05 68.4645C154.58 69.5506 153.379 70.7984 153.379 72.2793C153.379 72.2974 153.379 72.3144 153.381 72.3314C153.381 72.3461 153.379 72.3619 153.379 72.3766V124.23C153.379 129.74 155.029 133.503 158.281 135.415C163.753 138.633 191.395 153.656 191.674 153.807C191.851 153.905 192.047 153.951 192.241 153.951C192.456 153.951 192.67 153.892 192.857 153.779C193.062 153.664 194.788 152.722 196.962 151.537C205.085 147.108 221.988 137.891 226.196 135.415C229.449 133.503 231.098 129.74 231.098 124.23V72.3755C231.098 72.3608 231.098 72.3449 231.097 72.3302C231.097 72.3144 231.098 72.2963 231.098 72.2782C231.096 70.7973 229.896 69.5506 227.427 68.4645ZM193.01 153.665C193.011 153.665 193.011 153.664 193.012 153.664C193.011 153.664 193.011 153.665 193.01 153.665ZM193.012 153.663C193.014 153.661 193.014 153.661 193.015 153.66C193.014 153.661 193.014 153.663 193.012 153.663ZM228.719 124.229C228.719 128.902 227.499 131.891 224.99 133.367C220.814 135.823 203.934 145.026 195.822 149.45C193.872 150.513 192.818 151.088 192.236 151.408C188.236 149.232 164.485 136.307 159.485 133.365C156.975 131.89 155.755 128.901 155.755 124.228V72.5011C155.763 72.4298 155.764 72.3585 155.759 72.2861L155.756 72.2612C155.781 72.0587 156.215 71.4263 158.005 70.6389C159.794 69.8526 162.495 69.1105 165.817 68.4928C172.863 67.1827 182.246 66.4609 192.237 66.4609C202.229 66.4609 211.611 67.1827 218.657 68.4928C221.979 69.1105 224.681 69.8526 226.469 70.6389C228.257 71.4252 228.693 72.0576 228.718 72.2601C228.717 72.2714 228.716 72.2827 228.716 72.294C228.711 72.3619 228.712 72.4298 228.719 72.4965V124.229Z" fill="#1977CC"/>
<path d="M224.823 76.8577C224.823 74.8949 222.432 73.8427 221.646 73.4977C219.981 72.7657 217.629 72.1141 214.656 71.5609C208.656 70.4454 200.694 69.8311 192.237 69.8311C183.78 69.8311 175.818 70.4454 169.818 71.5609C166.845 72.1141 164.493 72.7657 162.828 73.4977C162.043 73.8427 159.651 74.8949 159.651 76.8577C159.651 76.8713 159.651 76.886 159.652 76.8996C159.652 76.912 159.651 76.9256 159.651 76.9381V121.724C159.651 126.392 161.058 129.586 163.834 131.218C168.398 133.9 190.723 146.034 191.671 146.55C191.849 146.647 192.045 146.694 192.238 146.694C192.452 146.694 192.665 146.636 192.852 146.523C193.031 146.422 194.45 145.648 196.237 144.673C203.017 140.977 217.123 133.284 220.64 131.217C223.415 129.584 224.823 126.391 224.823 121.723V76.9392C224.823 76.9245 224.823 76.9098 224.822 76.8962C224.822 76.8838 224.823 76.8713 224.823 76.8577ZM193.008 146.411C193.009 146.411 193.009 146.41 193.01 146.41C193.009 146.41 193.009 146.411 193.008 146.411ZM193.01 146.408C193.011 146.407 193.011 146.407 193.012 146.406C193.012 146.407 193.011 146.408 193.01 146.408ZM222.446 121.724C222.446 125.542 221.462 127.978 219.434 129.17C215.952 131.218 201.867 138.898 195.098 142.588C193.601 143.405 192.74 143.874 192.235 144.151C188.638 142.195 169.165 131.596 165.039 129.169C163.013 127.978 162.028 125.542 162.028 121.723V77.0501C162.033 76.9867 162.035 76.9222 162.03 76.8566C162.159 76.4324 163.99 75.0125 170.703 73.8145C176.511 72.777 184.158 72.2068 192.236 72.2068C200.314 72.2068 207.961 72.7782 213.768 73.8145C220.478 75.0125 222.311 76.4312 222.442 76.8566C222.437 76.9222 222.438 76.9878 222.445 77.0535V121.724H222.446ZM222.446 76.8702H222.447H222.446Z" fill="white"/>
<path d="M212.736 102.319C211.259 101.221 209.028 100.817 207.567 100.804L205.026 100.783C199.307 93.4418 198.984 93.1985 198.769 93.0356C198.108 92.5378 197.321 92.2708 196.492 92.2629L177.053 92.0977C175.806 92.0898 174.634 92.6826 173.907 93.6918C173.85 93.7574 173.688 93.9407 173.517 94.1341C166.665 101.892 165.712 103.951 165.703 105.02L165.678 107.936C165.668 109.157 166.133 110.309 166.99 111.18C167.847 112.051 168.991 112.535 170.212 112.547L173.471 112.574C173.474 112.574 173.478 112.574 173.481 112.574C174.133 112.574 174.664 112.049 174.669 111.396C174.675 110.74 174.148 110.204 173.491 110.198L170.232 110.171C169.646 110.166 169.096 109.933 168.685 109.515C168.274 109.096 168.05 108.543 168.055 107.957L168.08 105.073C168.159 104.687 168.932 102.914 175.299 95.7067C175.725 95.2236 175.767 95.1761 175.824 95.0946C176.098 94.7043 176.544 94.4735 177.019 94.4735C177.024 94.4735 177.027 94.4735 177.032 94.4735L196.47 94.6387C196.77 94.641 197.054 94.7326 197.296 94.9034C197.527 95.141 198.601 96.4002 203.501 102.695C203.724 102.981 204.066 103.151 204.429 103.153L207.544 103.179C208.931 103.19 210.516 103.631 211.314 104.224C213.544 105.883 214.897 108.459 215.638 110.328C215.646 110.348 215.671 110.409 215.621 110.482C215.587 110.53 215.545 110.554 215.481 110.554L208.788 110.498C208.785 110.498 208.781 110.498 208.778 110.498C208.126 110.498 207.595 111.023 207.589 111.675C207.584 112.332 208.111 112.868 208.768 112.873L215.46 112.93C215.467 112.93 215.475 112.93 215.482 112.93C216.322 112.93 217.105 112.518 217.58 111.825C218.059 111.126 218.159 110.239 217.846 109.452C216.995 107.297 215.413 104.31 212.736 102.319ZM173.88 93.7302C173.883 93.7257 173.887 93.7212 173.892 93.7144C173.887 93.7201 173.883 93.7257 173.88 93.7302Z" fill="white"/>
<path d="M198.414 110.41L183.86 110.287C183.857 110.287 183.853 110.287 183.85 110.287C183.198 110.287 182.667 110.812 182.661 111.465C182.656 112.121 183.183 112.657 183.84 112.663L198.393 112.786C198.397 112.786 198.4 112.786 198.403 112.786C199.055 112.786 199.586 112.261 199.592 111.609C199.597 110.952 199.069 110.416 198.414 110.41Z" fill="white"/>
<path d="M194.824 96.5548C194.337 96.1882 193.757 95.9914 193.146 95.9857L180.329 95.8771C179.406 95.8669 178.538 96.3127 178.003 97.0628C177.989 97.0809 177.968 97.108 177.94 97.1442C176.567 98.8831 175.582 100.447 175.015 101.792C174.861 102.157 174.899 102.575 175.117 102.906C175.334 103.238 175.703 103.438 176.1 103.441L198.05 103.627C198.054 103.627 198.057 103.627 198.061 103.627C198.512 103.627 198.925 103.371 199.126 102.965C199.327 102.556 199.279 102.069 198.998 101.709C195.213 96.8478 195.006 96.6917 194.824 96.5548ZM178.063 101.081C178.477 100.404 179.04 99.5833 179.805 98.6161C179.876 98.5256 179.921 98.4656 179.937 98.4441C179.978 98.3864 180.095 98.2529 180.305 98.2529C180.306 98.2529 180.307 98.2529 180.31 98.2529L193.127 98.3615C193.22 98.3626 193.293 98.3898 193.348 98.4215C193.489 98.5776 193.972 99.15 195.607 101.231L178.063 101.081Z" fill="white"/>
<path d="M214.865 105.38L212.752 105.362C212.486 105.019 212.091 104.627 211.555 104.373C210.961 104.094 210.253 104.347 209.973 104.941C209.692 105.534 209.947 106.242 210.54 106.523C210.758 106.626 210.954 106.912 211.02 107.042C211.205 107.474 211.617 107.729 212.089 107.733L214.844 107.757C214.848 107.757 214.851 107.757 214.854 107.757C215.506 107.757 216.037 107.232 216.043 106.579C216.048 105.922 215.52 105.386 214.865 105.38Z" fill="white"/>
<path d="M170.116 105L167.361 104.977C167.358 104.977 167.354 104.977 167.351 104.977C166.699 104.977 166.168 105.502 166.163 106.154C166.157 106.81 166.684 107.347 167.341 107.352L170.096 107.376C170.099 107.376 170.103 107.376 170.106 107.376C170.758 107.376 171.289 106.851 171.295 106.198C171.3 105.542 170.773 105.006 170.116 105Z" fill="white"/>
<path d="M203.588 104.439C201.908 104.427 200.312 105.068 199.108 106.249C197.906 107.431 197.235 109.009 197.222 110.695L198.41 110.705L197.222 110.695C197.192 114.175 200 117.029 203.482 117.059C203.5 117.059 203.518 117.059 203.537 117.059C205.204 117.059 206.772 116.417 207.962 115.248C209.164 114.066 209.835 112.488 209.849 110.802C209.878 107.322 207.07 104.468 203.588 104.439ZM206.296 113.554C205.546 114.29 204.55 114.688 203.502 114.683C202.451 114.674 201.466 114.256 200.728 113.507C199.991 112.758 199.59 111.766 199.599 110.715C199.608 109.664 200.025 108.68 200.776 107.942C201.517 107.214 202.496 106.813 203.535 106.813C203.546 106.813 203.558 106.813 203.569 106.813C204.621 106.822 205.605 107.24 206.343 107.99C207.08 108.739 207.482 109.731 207.473 110.782C207.463 111.833 207.045 112.817 206.296 113.554Z" fill="white"/>
<path d="M203.55 109.106C203.115 109.1 202.697 109.27 202.383 109.577C202.07 109.885 201.896 110.296 201.892 110.735C201.889 111.174 202.056 111.588 202.364 111.9C202.672 112.213 203.083 112.388 203.522 112.391C203.527 112.391 203.531 112.391 203.537 112.391C203.97 112.391 204.379 112.224 204.689 111.919C205.002 111.612 205.177 111.201 205.18 110.762C205.187 109.857 204.456 109.114 203.55 109.106ZM204.049 111.271C203.911 111.407 203.718 111.486 203.529 111.481C203.125 111.478 202.799 111.147 202.802 110.743L203.081 110.745L202.802 110.743C202.803 110.549 202.884 110.361 203.022 110.227C203.16 110.091 203.347 110.011 203.542 110.016C203.736 110.017 203.924 110.098 204.06 110.236C204.195 110.374 204.271 110.563 204.27 110.756C204.267 110.947 204.188 111.136 204.049 111.271Z" fill="white"/>
<path d="M178.637 104.227C175.16 104.193 172.3 107.004 172.27 110.483C172.241 113.963 175.049 116.817 178.531 116.847C178.549 116.847 178.567 116.847 178.585 116.847C182.042 116.847 184.868 114.051 184.897 110.589C184.927 107.111 182.119 104.256 178.637 104.227ZM178.584 114.471C178.572 114.471 178.561 114.471 178.55 114.471C176.379 114.453 174.628 112.672 174.647 110.503C174.665 108.345 176.428 106.602 178.583 106.602C178.594 106.602 178.605 106.602 178.617 106.602C179.668 106.611 180.653 107.028 181.391 107.778C182.129 108.528 182.529 109.519 182.52 110.57C182.502 112.729 180.74 114.472 178.584 114.471Z" fill="white"/>
<path d="M178.6 108.649C178.594 108.649 178.588 108.649 178.583 108.649C178.085 108.649 177.615 108.842 177.259 109.191C176.9 109.544 176.699 110.017 176.695 110.522L177.883 110.532L176.695 110.522C176.686 111.563 177.525 112.417 178.567 112.425C178.572 112.425 178.578 112.425 178.583 112.425C179.616 112.425 180.461 111.589 180.471 110.553C180.481 109.513 179.641 108.658 178.6 108.649ZM178.927 110.885C178.835 110.975 178.706 111.023 178.58 111.025C178.311 111.023 178.094 110.802 178.096 110.533C178.098 110.265 178.317 110.049 178.585 110.049C178.586 110.049 178.587 110.049 178.589 110.049C178.859 110.051 179.076 110.272 179.074 110.541C179.072 110.67 179.018 110.796 178.927 110.885Z" fill="white"/>
<path d="M188.342 97.1325C188.313 96.5068 187.8 96.0045 187.165 96C187.161 96 187.158 96 187.154 96C186.502 96 185.972 96.5249 185.966 97.1777C185.965 97.2954 185.963 97.5397 186.798 102.452C186.896 103.031 187.399 103.441 187.968 103.441C188.034 103.441 188.102 103.435 188.169 103.424C188.816 103.314 189.251 102.701 189.141 102.054C188.83 100.227 188.381 97.5182 188.342 97.1325ZM188.343 97.1969C188.343 97.1788 188.343 97.1619 188.342 97.1438C188.343 97.1664 188.343 97.1845 188.343 97.1969Z" fill="white"/>
<path d="M572.719 179.322C570.945 179.322 569.508 180.759 569.508 182.532V249.944C569.508 250.83 568.788 251.55 567.902 251.55H566.295C565.41 251.55 564.689 250.83 564.689 249.944V244.326C564.689 242.553 563.252 241.117 561.478 241.117C559.705 241.117 558.266 242.554 558.266 244.326V249.944C558.266 254.369 561.868 257.97 566.295 257.97H567.902C572.329 257.97 575.931 254.37 575.931 249.944V182.532C575.93 180.759 574.492 179.322 572.719 179.322Z" fill="#A2DFFF"/>
<path d="M572.719 178.135C570.292 178.135 568.319 180.108 568.319 182.532V249.945C568.319 250.174 568.132 250.362 567.902 250.362H566.295C566.066 250.362 565.878 250.176 565.878 249.945V244.327C565.878 241.901 563.904 239.928 561.477 239.928C559.05 239.928 557.078 241.901 557.078 244.327V249.945C557.078 255.024 561.212 259.158 566.295 259.158H567.902C572.984 259.158 577.119 255.026 577.119 249.945V182.532C577.118 180.108 575.144 178.135 572.719 178.135ZM574.741 249.945C574.741 253.715 571.673 256.782 567.9 256.782H566.294C562.522 256.782 559.453 253.715 559.453 249.945V244.327C559.453 243.211 560.361 242.304 561.476 242.304C562.592 242.304 563.5 243.211 563.5 244.327V249.945C563.5 251.484 564.754 252.738 566.294 252.738H567.9C569.441 252.738 570.695 251.486 570.695 249.945V182.532C570.695 181.417 571.603 180.511 572.718 180.511C573.834 180.511 574.741 181.418 574.741 182.532V249.945Z" fill="#1977CC"/>
<path d="M572.719 187.348C551.53 187.348 534.261 197.993 533.418 212.72H533.614C534.305 211.091 536.453 211.014 538.998 211.014C541.544 211.014 543.691 212.203 544.382 213.831H544.854C545.546 212.202 547.693 211.014 550.238 211.014C552.784 211.014 554.931 212.203 555.623 213.831H556.095C556.786 212.202 558.933 211.014 561.479 211.014C564.025 211.014 566.172 212.203 566.863 213.831H567.335C568.027 212.202 570.174 211.014 572.719 211.014C575.265 211.014 577.412 212.203 578.104 213.831H578.576C579.267 212.202 581.414 211.014 583.96 211.014C586.505 211.014 588.653 212.203 589.344 213.831H589.816C590.508 212.202 592.655 211.014 595.2 211.014C597.746 211.014 599.893 212.203 600.585 213.831H601.057C601.748 212.202 603.895 211.014 606.441 211.014C608.986 211.014 611.134 212.203 611.825 213.831H612.021C611.178 199.106 593.909 187.348 572.719 187.348Z" fill="white"/>
<path d="M600.665 194.084C593.106 188.974 583.181 186.16 572.718 186.16C562.158 186.16 552.243 188.77 544.798 193.51C537.12 198.399 532.657 205.197 532.229 212.652C532.21 212.978 532.328 213.298 532.552 213.536C532.776 213.774 533.089 213.908 533.415 213.908H533.61C534.086 213.908 534.518 213.623 534.704 213.184C535.09 212.275 536.801 212.202 538.995 212.202C540.966 212.202 542.77 213.082 543.285 214.296C543.472 214.735 543.902 215.02 544.38 215.02H544.852C545.328 215.02 545.759 214.735 545.946 214.296C546.461 213.084 548.265 212.202 550.237 212.202C552.208 212.202 554.012 213.082 554.528 214.296C554.715 214.735 555.145 215.02 555.622 215.02H556.094C556.571 215.02 557.002 214.735 557.189 214.296C557.704 213.084 559.508 212.202 561.48 212.202C563.451 212.202 565.254 213.082 565.771 214.296C565.957 214.735 566.387 215.02 566.865 215.02H567.337C567.814 215.02 568.245 214.735 568.432 214.296C568.947 213.084 570.751 212.202 572.721 212.202C574.692 212.202 576.496 213.082 577.012 214.296C577.199 214.735 577.629 215.02 578.107 215.02H578.579C579.055 215.02 579.486 214.735 579.673 214.296C580.188 213.084 581.992 212.202 583.963 212.202C585.933 212.202 587.738 213.082 588.254 214.296C588.441 214.735 588.871 215.02 589.348 215.02H589.82C590.297 215.02 590.728 214.735 590.915 214.296C591.43 213.084 593.234 212.202 595.206 212.202C597.176 212.202 598.98 213.082 599.495 214.296C599.682 214.735 600.112 215.02 600.59 215.02H601.062C601.538 215.02 601.97 214.735 602.156 214.296C602.671 213.084 604.476 212.202 606.447 212.202C608.419 212.202 610.222 213.082 610.738 214.296C610.925 214.735 611.355 215.02 611.833 215.02H612.027C612.354 215.02 612.667 214.886 612.891 214.648C613.115 214.411 613.232 214.09 613.214 213.765C612.777 206.249 608.323 199.26 600.665 194.084ZM606.441 209.825C604.139 209.825 602.06 210.677 600.82 212.043C599.58 210.677 597.501 209.825 595.199 209.825C592.897 209.825 590.819 210.677 589.578 212.043C588.338 210.677 586.259 209.825 583.957 209.825C581.656 209.825 579.577 210.677 578.336 212.043C577.097 210.677 575.018 209.825 572.716 209.825C570.415 209.825 568.335 210.677 567.095 212.043C565.854 210.677 563.776 209.825 561.474 209.825C559.172 209.825 557.094 210.677 555.853 212.043C554.613 210.677 552.535 209.825 550.232 209.825C547.931 209.825 545.852 210.677 544.612 212.043C543.371 210.677 541.293 209.825 538.991 209.825C537.676 209.825 536.186 209.825 534.933 210.212C536.09 204.547 539.968 199.399 546.071 195.513C553.138 191.014 562.599 188.535 572.712 188.535C582.705 188.535 592.158 191.204 599.327 196.05C605.255 200.059 609.089 205.195 610.376 210.761C609.262 210.166 607.896 209.825 606.441 209.825Z" fill="#1977CC"/>
<path d="M572.719 187.348C581.8 187.348 589.201 199.106 589.564 213.831H589.817C590.509 212.202 592.656 211.014 595.201 211.014C597.747 211.014 599.894 212.203 600.586 213.831H600.793C600.189 199.106 587.854 187.348 572.719 187.348Z" fill="#A2DFFF"/>
<path d="M593.023 194.205C587.541 189.017 580.33 186.16 572.719 186.16C572.063 186.16 571.531 186.692 571.531 187.348C571.531 188.004 572.063 188.536 572.719 188.536C576.681 188.536 580.477 191.081 583.408 195.704C586.441 200.488 588.206 206.937 588.375 213.861C588.391 214.506 588.919 215.019 589.564 215.019H589.817C590.294 215.019 590.725 214.734 590.912 214.295C591.496 212.921 593.512 212.201 595.203 212.201C596.894 212.201 598.91 212.921 599.494 214.295C599.68 214.734 600.11 215.019 600.588 215.019H600.795C601.119 215.019 601.428 214.887 601.653 214.654C601.877 214.421 601.996 214.106 601.984 213.783C601.675 206.335 598.493 199.383 593.023 194.205ZM595.2 209.825C593.452 209.825 591.832 210.316 590.611 211.152C589.873 202.12 586.55 194.474 581.873 190.101C585.388 191.347 588.628 193.317 591.388 195.93C595.657 199.969 598.405 205.183 599.303 210.85C598.153 210.2 596.725 209.825 595.2 209.825Z" fill="#1977CC"/>
<path d="M544.646 213.831H544.853C545.545 212.202 547.692 211.014 550.237 211.014C552.783 211.014 554.93 212.203 555.622 213.831H555.875C556.236 199.106 563.637 187.348 572.718 187.348C557.583 187.348 545.249 199.106 544.646 213.831Z" fill="#A2DFFF"/>
<path d="M572.719 186.16C565.109 186.16 557.898 189.017 552.416 194.205C546.945 199.383 543.764 206.336 543.46 213.783C543.446 214.106 543.566 214.421 543.79 214.654C544.014 214.887 544.325 215.019 544.648 215.019H544.855C545.332 215.019 545.763 214.734 545.95 214.295C546.534 212.921 548.55 212.201 550.241 212.201C551.931 212.201 553.948 212.921 554.532 214.295C554.718 214.734 555.148 215.019 555.626 215.019H555.88C556.525 215.019 557.052 214.504 557.068 213.861C557.238 206.937 559.002 200.488 562.036 195.704C564.966 191.081 568.761 188.536 572.724 188.536C573.38 188.536 573.912 188.004 573.912 187.348C573.912 186.692 573.375 186.16 572.719 186.16ZM554.827 211.152C553.606 210.317 551.986 209.826 550.237 209.826C548.712 209.826 547.284 210.2 546.134 210.85C547.033 205.183 549.782 199.97 554.049 195.93C556.81 193.317 560.049 191.347 563.565 190.101C558.888 194.474 555.565 202.12 554.827 211.152Z" fill="#1977CC"/>
<path d="M572.72 187.348C569.692 187.348 567.226 199.106 567.106 213.831H567.336C568.027 212.202 570.174 211.014 572.72 211.014C575.265 211.014 577.412 212.203 578.104 213.831H578.334C578.214 199.106 575.746 187.348 572.72 187.348Z" fill="#A2DFFF"/>
<path d="M572.72 186.16C570.546 186.16 568.892 188.993 567.659 194.823C566.594 199.862 565.975 206.609 565.916 213.822C565.914 214.139 566.037 214.443 566.26 214.669C566.483 214.894 566.788 215.02 567.104 215.02H567.334C567.811 215.02 568.242 214.735 568.429 214.296C569.013 212.922 571.029 212.202 572.719 212.202C574.408 212.202 576.425 212.922 577.009 214.296C577.196 214.735 577.626 215.02 578.104 215.02H578.334C578.651 215.02 578.954 214.894 579.178 214.669C579.402 214.443 579.525 214.139 579.522 213.822C579.463 206.609 578.844 199.862 577.779 194.823C576.548 188.993 574.893 186.16 572.72 186.16ZM572.72 209.825C571.073 209.825 569.539 210.261 568.346 211.01C568.518 205.148 569.072 199.735 569.938 195.539C571.106 189.878 572.425 188.576 572.72 188.535C573.014 188.576 574.334 189.877 575.502 195.538C576.368 199.734 576.921 205.147 577.093 211.009C575.899 210.262 574.366 209.825 572.72 209.825Z" fill="#1977CC"/>
<path d="M167.137 228.1L159.47 224.191C158.663 223.78 157.651 224.053 157.207 224.8C156.763 225.548 157.057 226.487 157.863 226.899L165.53 230.808C165.784 230.938 166.06 231 166.331 231C166.919 231 167.49 230.71 167.794 230.199C168.237 229.451 167.942 228.511 167.137 228.1Z" fill="white"/>
<path d="M179.293 235.1L173.021 231.191C172.361 230.78 171.533 231.053 171.169 231.8C170.806 232.548 171.046 233.487 171.706 233.899L177.978 237.808C178.186 237.938 178.413 238 178.634 238C179.115 238 179.582 237.71 179.831 237.199C180.194 236.451 179.953 235.511 179.293 235.1Z" fill="white"/>
<path d="M153.293 220.929L147.021 218.137C146.361 217.843 145.533 218.038 145.169 218.572C144.806 219.106 145.046 219.776 145.706 220.071L151.978 222.863C152.186 222.956 152.413 223 152.634 223C153.115 223 153.582 222.793 153.831 222.428C154.194 221.894 153.953 221.222 153.293 220.929Z" fill="white"/>
<path d="M192.293 242.515L186.021 239.164C185.361 238.812 184.533 239.046 184.169 239.686C183.806 240.327 184.046 241.132 184.706 241.485L190.978 244.836C191.186 244.947 191.413 245 191.634 245C192.115 245 192.582 244.752 192.831 244.314C193.194 243.672 192.953 242.868 192.293 242.515Z" fill="white"/>
<path d="M216.372 255.929L210.796 253.137C210.21 252.843 209.473 253.037 209.15 253.572C208.828 254.106 209.041 254.777 209.628 255.071L215.203 257.863C215.388 257.956 215.589 258 215.786 258C216.213 258 216.628 257.793 216.849 257.428C217.173 256.894 216.958 256.222 216.372 255.929Z" fill="white"/>
<path d="M203.372 249.1L197.797 245.191C197.21 244.781 196.473 245.052 196.15 245.8C195.828 246.549 196.041 247.487 196.628 247.899L202.204 251.808C202.388 251.938 202.589 252 202.786 252C203.214 252 203.629 251.71 203.85 251.199C204.172 250.451 203.958 249.512 203.372 249.1Z" fill="white"/>
<path d="M240.811 150.789C240.486 150.123 239.621 149.819 238.879 150.111C238.137 150.403 237.798 151.18 238.124 151.846C239.049 153.742 240.079 155.881 241.184 158.2C241.423 158.7 241.964 159 242.534 159C242.726 159 242.921 158.966 243.109 158.894C243.854 158.608 244.2 157.834 243.882 157.166C242.775 154.839 241.742 152.693 240.811 150.789Z" fill="white"/>
<path d="M246.858 163.803C246.54 163.135 245.667 162.822 244.91 163.103C244.153 163.384 243.798 164.154 244.117 164.822C245.07 166.82 246.088 168.964 247.14 171.192C247.378 171.696 247.931 172 248.513 172C248.704 172 248.897 171.967 249.084 171.898C249.843 171.619 250.201 170.852 249.885 170.182C248.833 167.95 247.814 165.804 246.858 163.803Z" fill="white"/>
<path d="M276.368 232.798C276.022 231.911 275.515 230.61 274.872 228.96C274.567 228.178 273.701 227.797 272.937 228.109C272.174 228.422 271.801 229.31 272.107 230.093C273.379 233.357 274.115 235.251 274.131 235.289L275.515 234.727L274.698 233.452L276.335 236C276.438 235.93 277.334 235.282 276.865 234.074L276.368 232.798Z" fill="white"/>
<path d="M254.906 183.192C254.049 181.001 253.205 178.853 252.401 176.81C252.138 176.142 251.408 175.823 250.771 176.1C250.135 176.376 249.831 177.143 250.095 177.811C250.899 179.852 251.741 181.998 252.598 184.188C252.797 184.694 253.262 185 253.752 185C253.911 185 254.071 184.968 254.227 184.902C254.863 184.627 255.168 183.861 254.906 183.192Z" fill="white"/>
<path d="M233.923 136.441C233.484 135.855 232.77 135.852 232.331 136.437C231.891 137.023 231.889 137.969 232.328 138.554C232.447 138.728 232.98 139.713 234.855 145.129C235.046 145.678 235.452 146 235.877 146C236.034 146 236.195 145.955 236.347 145.861C236.911 145.514 237.156 144.623 236.896 143.87C234.932 138.199 234.291 136.932 233.923 136.441Z" fill="white"/>
<path d="M271.891 222.207C270.99 220.27 269.993 218.124 268.917 215.819C268.604 215.15 267.724 214.825 266.949 215.095C266.173 215.365 265.797 216.126 266.11 216.795C267.185 219.1 268.182 221.243 269.082 223.18C269.319 223.691 269.887 224 270.487 224C270.675 224 270.865 223.97 271.049 223.905C271.826 223.636 272.202 222.876 271.891 222.207Z" fill="white"/>
<path d="M265.927 209.201C265.288 207.145 264.623 205.009 263.939 202.816C263.73 202.147 263.143 201.825 262.628 202.096C262.113 202.367 261.865 203.13 262.074 203.799C262.757 205.991 263.422 208.125 264.061 210.182C264.22 210.691 264.596 211 264.994 211C265.12 211 265.247 210.969 265.371 210.904C265.886 210.633 266.135 209.871 265.927 209.201Z" fill="white"/>
<path d="M261.87 196.398C260.722 194.528 259.555 192.63 258.38 190.724C258.013 190.129 256.99 189.843 256.092 190.087C255.195 190.33 254.764 191.009 255.131 191.604C256.305 193.51 257.471 195.405 258.619 197.275C258.897 197.727 259.552 198 260.245 198C260.466 198 260.69 197.972 260.906 197.914C261.804 197.672 262.236 196.994 261.87 196.398Z" fill="white"/>
<path d="M485.979 245.191L479.706 249.1C479.046 249.511 478.806 250.451 479.169 251.199C479.418 251.71 479.884 252 480.366 252C480.588 252 480.813 251.938 481.021 251.808L487.294 247.899C487.954 247.488 488.194 246.548 487.831 245.8C487.469 245.053 486.639 244.78 485.979 245.191Z" fill="white"/>
<path d="M473.979 253.137L467.706 255.929C467.046 256.222 466.806 256.894 467.169 257.428C467.417 257.793 467.884 258 468.365 258C468.588 258 468.813 257.956 469.021 257.863L475.294 255.071C475.954 254.777 476.194 254.106 475.831 253.572C475.467 253.038 474.639 252.843 473.979 253.137Z" fill="white"/>
<path d="M498.979 239.164L492.706 242.515C492.046 242.867 491.806 243.672 492.169 244.314C492.418 244.752 492.884 245 493.365 245C493.588 245 493.813 244.947 494.021 244.836L500.294 241.485C500.954 241.133 501.194 240.327 500.831 239.686C500.467 239.046 499.638 238.812 498.979 239.164Z" fill="white"/>
<path d="M536.754 218.137L529.785 220.929C529.051 221.222 528.785 221.894 529.188 222.428C529.464 222.793 529.982 223 530.517 223C530.765 223 531.015 222.956 531.246 222.863L538.215 220.071C538.948 219.778 539.216 219.106 538.812 218.572C538.408 218.038 537.486 217.843 536.754 218.137Z" fill="white"/>
<path d="M523.754 224.192L516.785 228.101C516.051 228.511 515.785 229.451 516.188 230.199C516.464 230.71 516.982 231 517.517 231C517.765 231 518.015 230.938 518.246 230.808L525.215 226.899C525.948 226.489 526.216 225.549 525.812 224.801C525.409 224.053 524.487 223.78 523.754 224.192Z" fill="white"/>
<path d="M511.754 231.192L504.785 235.101C504.051 235.511 503.785 236.451 504.188 237.199C504.464 237.71 504.982 238 505.517 238C505.765 238 506.015 237.938 506.246 237.808L513.215 233.899C513.949 233.489 514.215 232.549 513.812 231.801C513.408 231.053 512.488 230.78 511.754 231.192Z" fill="white"/>
<path d="M417.052 215.095C416.276 214.826 415.395 215.149 415.083 215.819C414.007 218.125 413.01 220.269 412.109 222.206C411.798 222.875 412.175 223.636 412.95 223.905C413.135 223.97 413.326 224 413.513 224C414.113 224 414.681 223.69 414.918 223.18C415.818 221.243 416.816 219.1 417.89 216.795C418.202 216.126 417.827 215.365 417.052 215.095Z" fill="white"/>
<path d="M422.215 202.096C421.571 201.825 420.838 202.147 420.577 202.817C419.721 205.009 418.891 207.145 418.092 209.202C417.832 209.872 418.143 210.634 418.787 210.904C418.941 210.968 419.1 211 419.257 211C419.755 211 420.226 210.69 420.424 210.182C421.222 208.126 422.052 205.99 422.908 203.798C423.168 203.129 422.858 202.368 422.215 202.096Z" fill="white"/>
<path d="M427.22 190.087C426.58 189.844 425.847 190.129 425.585 190.724C424.745 192.63 423.913 194.527 423.093 196.397C422.832 196.993 423.14 197.671 423.781 197.914C423.936 197.972 424.096 198 424.253 198C424.749 198 425.217 197.727 425.415 197.275C426.235 195.406 427.068 193.51 427.906 191.605C428.169 191.009 427.861 190.329 427.22 190.087Z" fill="white"/>
<path d="M411.235 228.106C410.612 227.803 409.904 228.171 409.654 228.931C408.67 231.926 408.078 233.733 408.007 233.951L408 233.972L409.13 234.521L408.901 235.974C408.973 235.991 409.048 236 409.124 236C409.557 236 410.045 235.723 410.266 235.047C410.338 234.829 410.929 233.023 411.913 230.03C412.162 229.27 411.859 228.409 411.235 228.106Z" fill="white"/>
<path d="M449.312 136.439C448.796 136.93 447.898 138.197 445.146 143.87C444.781 144.623 445.125 145.514 445.915 145.861C446.129 145.955 446.353 146 446.574 146C447.17 146 447.739 145.678 448.005 145.129C450.622 139.733 451.374 138.735 451.543 138.555C452.154 137.968 452.152 137.022 451.538 136.439C450.925 135.854 449.928 135.854 449.312 136.439Z" fill="white"/>
<path d="M433.074 176.1C432.309 175.823 431.434 176.141 431.118 176.81C430.152 178.853 429.141 181 428.113 183.192C427.798 183.861 428.164 184.627 428.929 184.902C429.115 184.968 429.308 185 429.498 185C430.087 185 430.646 184.693 430.883 184.188C431.912 181.998 432.921 179.853 433.886 177.811C434.202 177.143 433.839 176.376 433.074 176.1Z" fill="white"/>
<path d="M444.121 150.111C443.379 149.819 442.514 150.123 442.189 150.789C441.258 152.695 440.226 154.84 439.118 157.166C438.8 157.834 439.145 158.608 439.891 158.894C440.079 158.966 440.275 159 440.466 159C441.036 159 441.577 158.7 441.816 158.2C442.92 155.882 443.95 153.744 444.876 151.846C445.202 151.18 444.863 150.403 444.121 150.111Z" fill="white"/>
<path d="M438.242 163.103C437.611 162.822 436.885 163.135 436.618 163.803C435.824 165.8 434.976 167.946 434.096 170.182C433.832 170.852 434.131 171.619 434.763 171.898C434.919 171.967 435.08 172 435.239 172C435.724 172 436.185 171.696 436.383 171.192C437.262 168.96 438.108 166.816 438.902 164.822C439.169 164.154 438.873 163.384 438.242 163.103Z" fill="white"/>
<path d="M338.5 189C337.671 189 337 189.556 337 190.241V196.759C337 197.444 337.671 198 338.5 198C339.329 198 340 197.444 340 196.759V190.241C340 189.556 339.329 189 338.5 189Z" fill="white"/>
<path d="M338.5 203C337.671 203 337 203.556 337 204.241V210.759C337 211.444 337.671 212 338.5 212C339.329 212 340 211.444 340 210.759V204.241C340 203.556 339.329 203 338.5 203Z" fill="white"/>
<path d="M338.5 217C337.671 217 337 217.614 337 218.371V223.629C337 224.386 337.671 225 338.5 225C339.329 225 340 224.386 340 223.629V218.371C340 217.614 339.329 217 338.5 217Z" fill="white"/>
<path d="M338.5 175C337.671 175 337 175.617 337 176.379V183.621C337 184.383 337.671 185 338.5 185C339.329 185 340 184.383 340 183.621V176.379C340 175.617 339.329 175 338.5 175Z" fill="white"/>
<path d="M338.5 117C337.671 117 337 117.617 337 118.379V125.621C337 126.383 337.671 127 338.5 127C339.329 127 340 126.383 340 125.621V118.379C340 117.617 339.329 117 338.5 117Z" fill="white"/>
<path d="M338.5 161C337.671 161 337 161.556 337 162.241V168.759C337 169.444 337.671 170 338.5 170C339.329 170 340 169.444 340 168.759V162.241C340 161.556 339.329 161 338.5 161Z" fill="white"/>
<path d="M338.5 132C337.671 132 337 132.617 337 133.379V140.621C337 141.383 337.671 142 338.5 142C339.329 142 340 141.383 340 140.621V133.379C340 132.617 339.329 132 338.5 132Z" fill="white"/>
<path d="M338.5 146C337.671 146 337 146.617 337 147.379V154.621C337 155.383 337.671 156 338.5 156C339.329 156 340 155.383 340 154.621V147.379C340 146.617 339.329 146 338.5 146Z" fill="white"/>
</svg>
