<svg width="226" height="190" viewBox="0 0 226 190" fill="none" xmlns="http://www.w3.org/2000/svg">
<path d="M124.658 137.049C162.524 137.049 193.22 106.37 193.22 68.5246C193.22 30.6795 162.524 0 124.658 0C86.7925 0 56.0962 30.6795 56.0962 68.5246C56.0962 106.37 86.7925 137.049 124.658 137.049Z" fill="#E9EAEB"/>
<path d="M143.357 40.4912H49.8633C55.0366 40.4912 59.2127 44.665 59.2127 49.8355V174.426C59.2127 181.309 64.7911 186.885 71.6785 186.885H152.706V49.8355C152.706 44.665 148.53 40.4912 143.357 40.4912Z" fill="white"/>
<path d="M105.96 18.689H12.4658C17.6391 18.689 21.8152 22.8627 21.8152 28.0332V146.394C21.8152 153.277 27.3937 158.853 34.281 158.853H115.309V28.0332C115.309 22.8627 111.133 18.689 105.96 18.689Z" fill="white"/>
<path d="M31.1646 158.853H52.9798" stroke="#2A5082" stroke-width="2" stroke-miterlimit="10"/>
<path d="M49.8633 40.4912H143.357C148.53 40.4912 152.706 44.665 152.706 49.8355V171.311" stroke="#2A5082" stroke-width="2" stroke-miterlimit="10"/>
<path d="M12.4658 18.689H105.96C111.133 18.689 115.309 22.8627 115.309 28.0332V34.2627" stroke="#2A5082" stroke-width="2" stroke-miterlimit="10"/>
<path d="M71.6785 186.886C64.7911 186.886 59.2127 181.31 59.2127 174.427V49.8365C59.2127 44.666 55.0366 40.4922 49.8633 40.4922C44.69 40.4922 40.5139 44.666 40.5139 49.8365V149.509C40.5139 154.679 36.3379 158.853 31.1646 158.853C25.9913 158.853 21.8152 154.679 21.8152 149.509V28.0332C21.8152 22.8627 17.6391 18.689 12.4658 18.689C7.29251 18.689 3.11646 22.8627 3.11646 28.0332V37.3775H15.5823" stroke="#2A5082" stroke-width="2" stroke-miterlimit="10"/>
<path d="M84.1443 174.426V171.311H171.405V174.426C171.405 181.309 165.827 186.885 158.939 186.885H71.6785C78.5658 186.885 84.1443 181.309 84.1443 174.426Z" fill="#A3D4FF" stroke="#2A5082" stroke-width="2" stroke-miterlimit="10"/>
<path d="M196.659 33.6494L190.928 39.3805" stroke="#BCC0C4" stroke-width="2" stroke-miterlimit="10"/>
<path d="M210.987 19.3218L205.256 25.0529" stroke="#BCC0C4" stroke-width="2" stroke-miterlimit="10"/>
<path d="M205.256 33.6494L210.987 39.3805" stroke="#BCC0C4" stroke-width="2" stroke-miterlimit="10"/>
<path d="M190.928 19.3218L196.659 25.0529" stroke="#BCC0C4" stroke-width="2" stroke-miterlimit="10"/>
<path d="M168.003 45.1118V62.3051" stroke="#BCC0C4" stroke-width="2" stroke-miterlimit="10"/>
<path d="M159.407 53.7085H176.6" stroke="#BCC0C4" stroke-width="2" stroke-miterlimit="10"/>
<path d="M137.319 93.3593L96.2329 134.446L85.8518 136.518L87.9247 126.137L129.011 85.051C129.82 84.2421 131.134 84.2421 131.943 85.051L137.319 90.427C138.128 91.2359 138.128 92.5504 137.319 93.3593Z" fill="#A3D4FF" stroke="#2A5082" stroke-width="2" stroke-miterlimit="10" stroke-linejoin="round"/>
</svg>
