<svg width="584" height="526" viewBox="0 0 584 526" fill="none" xmlns="http://www.w3.org/2000/svg">
<path d="M150.44 516.104C138.085 513.432 -10.3516 489.358 0.574322 311.825C11.5003 134.291 25.2146 80.8982 82.9243 61.368C140.634 41.8378 280.915 -50.5922 390.997 37.2936C501.079 125.179 619.865 204 572.725 344.328C525.585 484.656 517.868 531.463 394.882 524.3C271.903 517.142 209.188 528.815 150.44 516.104Z" fill="#FAFAFA"/>
<path d="M39.4305 392.728C31.5846 391.719 28.6971 390.529 32.4479 389.129C58.5582 379.387 176.089 379.684 233.105 379.696C304.815 379.708 379.43 379.451 444.023 381.825C471.055 382.817 532.294 383.733 542.794 387.029C570.345 395.685 374.955 398.071 343.327 398.188C290.61 398.38 84.2309 398.491 39.4305 392.728Z" fill="#E3E3E3"/>
<path d="M518.912 385.856H46.7281C33.8072 385.856 23.2896 375.344 23.2896 362.417V361.011C23.2896 360.253 23.9021 359.635 24.6662 359.635H541.003C541.761 359.635 542.38 360.247 542.38 361.011V362.388C542.38 375.327 531.85 385.856 518.912 385.856Z" fill="#E3E3E3"/>
<path d="M497.544 369.633V109.021C497.544 104.302 493.834 100.44 489.296 100.44H76.7233C72.1849 100.44 68.4749 104.302 68.4749 109.021V369.633H497.544Z" fill="#E3E3E3"/>
<path d="M504.603 360.032V108.916C504.603 104.384 500.893 100.668 496.354 100.668H83.7819C79.2435 100.668 75.5334 104.378 75.5334 108.916V360.032H504.603Z" fill="white"/>
<path d="M506.032 359.343C506.032 352.098 506.032 344.847 506.032 337.602C506.032 319.851 506.032 302.094 506.032 284.343C506.032 262.066 506.032 239.788 506.032 217.51C506.032 196.691 506.032 175.871 506.032 155.052C506.032 141.67 506.032 128.288 506.032 114.907C506.032 112.882 506.108 110.835 506.032 108.811C505.804 102.645 500.852 99.6173 495.234 99.6173C488.082 99.6173 480.937 99.6173 473.785 99.6173C459.458 99.6173 445.131 99.6173 430.804 99.6173C411.513 99.6173 392.222 99.6173 372.931 99.6173C350.887 99.6173 328.843 99.6173 306.798 99.6173C284.217 99.6173 261.63 99.6173 239.049 99.6173C218.142 99.6173 197.23 99.6173 176.323 99.6173C159.301 99.6173 142.279 99.6173 125.257 99.6173C114.337 99.6173 103.411 99.6173 92.4911 99.6173C85.211 99.6173 74.5184 98.5323 74.1101 109.032C73.8184 116.598 74.1101 124.234 74.1101 131.806C74.1101 149.837 74.1101 167.874 74.1101 185.905C74.1101 208.223 74.1101 230.548 74.1101 252.866C74.1101 273.551 74.1101 294.237 74.1101 314.916C74.1101 327.983 74.1101 341.05 74.1101 354.116C74.1101 355.925 74.1101 357.739 74.1101 359.547C74.1101 361.035 76.9685 360.632 76.9685 359.343C76.9685 352.209 76.9685 345.081 76.9685 337.946C76.9685 320.434 76.9685 302.928 76.9685 285.417C76.9685 263.454 76.9685 241.497 76.9685 219.534C76.9685 198.738 76.9685 177.948 76.9685 157.152C76.9685 143.479 76.9685 129.805 76.9685 116.137C76.9685 113.734 76.8868 111.319 76.9685 108.922C77.1085 104.932 79.681 101.898 83.776 101.711C84.2835 101.688 84.791 101.711 85.2985 101.711C92.7011 101.711 100.104 101.711 107.512 101.711C121.897 101.711 136.282 101.711 150.668 101.711C169.789 101.711 188.905 101.711 208.027 101.711C229.897 101.711 251.772 101.711 273.641 101.711C296.03 101.711 318.424 101.711 340.813 101.711C361.486 101.711 382.16 101.711 402.827 101.711C419.808 101.711 436.795 101.711 453.776 101.711C464.819 101.711 475.861 101.711 486.904 101.711C493.082 101.711 502.8 100.078 503.173 109.172C503.506 117.345 503.173 125.599 503.173 133.772C503.173 151.873 503.173 169.974 503.173 188.075C503.173 210.148 503.173 232.228 503.173 254.301C503.173 274.736 503.173 295.164 503.173 315.599C503.173 328.467 503.173 341.335 503.173 354.204C503.173 355.983 503.173 357.762 503.173 359.541C503.173 361.041 506.032 360.632 506.032 359.343Z" fill="#6A79A8"/>
<path d="M526.145 385.856H53.9615C41.0405 385.856 30.5229 375.344 30.5229 362.417V361.011C30.5229 360.253 31.1413 359.635 31.8996 359.635H548.236C548.995 359.635 549.613 360.247 549.613 361.011V362.388C549.613 375.327 539.084 385.856 526.145 385.856Z" fill="#EFEFEF"/>
<path d="M522.873 378.669H57.2342C44.4882 378.669 34.1223 371.039 34.1223 361.653V360.632C34.1223 360.084 34.729 359.635 35.4757 359.635H544.66C545.407 359.635 546.014 360.084 546.014 360.632V361.63C546.02 371.027 535.636 378.669 522.873 378.669Z" fill="white"/>
<path d="M156.682 384.893C141.427 384.893 126.173 384.893 110.919 384.893C92.6368 384.893 74.3492 384.893 56.0673 384.893C51.8498 384.893 47.7897 384.17 44.0622 382.064C40.4397 380.016 37.3421 376.936 35.3121 373.302C34.3613 371.604 33.6321 369.779 33.1363 367.894C32.5996 365.864 32.7396 363.829 32.3604 361.816C32.2204 361.075 32.0979 360.165 31.2637 360.597C31.3746 360.538 31.6487 360.603 31.7771 360.597C32.4712 360.556 33.1829 360.597 33.8771 360.597C36.6946 360.597 39.518 360.597 42.3355 360.597C63.4465 360.597 84.5518 360.597 105.663 360.597C121.915 360.597 138.178 360.807 154.424 360.597C154.692 360.591 154.955 360.597 155.223 360.597C156.507 360.597 159.143 358.672 156.687 358.672C142.337 358.672 127.987 358.672 113.637 358.672C91.2135 358.672 68.7958 358.672 46.3722 358.672C41.8572 358.672 37.1788 358.316 32.6696 358.672C30.2954 358.858 28.8195 359.815 28.697 362.207C28.4987 366.104 29.5079 370.152 31.2812 373.605C34.8221 380.483 41.548 385.313 49.1897 386.509C54.5506 387.349 60.3315 386.824 65.7274 386.824C76.5308 386.824 87.3284 386.824 98.1319 386.824C116.816 386.824 135.512 386.987 154.197 386.824C154.535 386.818 154.879 386.824 155.217 386.824C156.495 386.818 159.137 384.893 156.682 384.893Z" fill="#6A79A8"/>
<path d="M476.637 360.603C496.605 360.603 516.573 360.603 536.54 360.603C538.652 360.603 540.77 360.603 542.881 360.603C544.06 360.603 545.611 360.335 546.766 360.603C546.918 360.638 547.326 360.51 547.449 360.603C548.236 361.192 547.735 364.325 547.665 365.037C547.227 369.528 545.425 373.833 542.555 377.31C538.185 382.601 532.125 384.888 525.416 384.888C520.685 384.888 515.954 384.888 511.223 384.888C500.309 384.888 489.401 384.888 478.487 384.888C477.203 384.888 474.566 386.813 477.022 386.813C487.102 386.813 497.177 386.813 507.257 386.813C517.955 386.813 530.625 388.598 540.058 382.507C547.058 377.992 551.999 369.697 551.445 361.198C551.223 357.838 547.128 358.661 544.649 358.661C532.539 358.661 520.434 358.661 508.324 358.661C498.25 358.661 488.176 358.661 478.102 358.661C476.818 358.672 474.181 360.603 476.637 360.603Z" fill="#6A79A8"/>
<path d="M230.404 359.646C231.063 363.607 234.511 366.634 238.652 366.634H341.483C345.625 366.634 349.072 363.607 349.732 359.646H230.404Z" fill="white"/>
<path d="M228.998 360.019C230.754 368.145 238.39 367.579 244.772 367.579C253.615 367.579 262.459 367.579 271.302 367.579C291.841 367.579 312.386 367.579 332.926 367.579C340.002 367.579 349.195 368.6 351.155 359.512C351.26 359.022 350.648 358.689 350.239 358.689C336.758 358.689 323.277 358.689 309.796 358.689C288.423 358.689 267.055 358.689 245.682 358.689C240.758 358.689 235.835 358.689 230.912 358.689C229.657 358.689 228.001 360.591 229.897 360.591C243.377 360.591 256.858 360.591 270.339 360.591C291.713 360.591 313.081 360.591 334.454 360.591C339.378 360.591 344.301 360.591 349.224 360.591C348.921 360.317 348.618 360.043 348.309 359.768C346.716 367.154 338.899 365.678 333.258 365.678C324.66 365.678 316.056 365.678 307.457 365.678C288.073 365.678 268.683 365.678 249.298 365.678C246.504 365.678 243.704 365.678 240.91 365.678C236.576 365.678 232.837 364.015 231.81 359.261C231.559 358.071 228.736 358.794 228.998 360.019Z" fill="#6A79A8"/>
<path d="M484.652 120.577H95.4895V347.577H484.652V120.577Z" fill="#F9F9F9"/>
<path d="M476.439 348.394C478.994 348.394 481.555 348.394 484.11 348.394C484.565 348.394 486.064 348.126 486.064 347.409C486.064 339.883 486.064 332.358 486.064 324.833C486.064 306.761 486.064 288.695 486.064 270.624C486.064 248.76 486.064 226.902 486.064 205.039C486.064 186.139 486.064 167.238 486.064 148.338C486.064 142.108 486.064 135.884 486.064 129.654C486.064 126.947 486.659 123.453 486.064 120.787C486.041 120.67 486.064 120.525 486.064 120.402C486.064 119.93 485.632 119.76 485.195 119.76C472.221 119.76 459.248 119.76 446.274 119.76C415.334 119.76 384.388 119.76 353.448 119.76C316.044 119.76 278.64 119.76 241.237 119.76C208.745 119.76 176.253 119.76 143.761 119.76C128.098 119.76 112.348 119.3 96.691 119.76C96.4694 119.766 96.2477 119.76 96.0319 119.76C95.5769 119.76 94.0777 120.029 94.0777 120.746C94.0777 128.271 94.0777 135.796 94.0777 143.322C94.0777 161.393 94.0777 179.459 94.0777 197.531C94.0777 219.395 94.0777 241.252 94.0777 263.116C94.0777 282.016 94.0777 300.916 94.0777 319.817C94.0777 326.047 94.0777 332.271 94.0777 338.501C94.0777 341.208 93.4827 344.702 94.0777 347.368C94.101 347.484 94.0777 347.63 94.0777 347.753C94.0777 348.225 94.5094 348.394 94.9469 348.394C112.558 348.394 130.175 348.394 147.786 348.394C150.259 348.394 152.738 348.394 155.212 348.394C156.291 348.394 158.192 346.761 156.297 346.761C138.686 346.761 121.069 346.761 103.458 346.761C100.984 346.761 98.5052 346.761 96.0319 346.761C96.3177 346.977 96.6094 347.193 96.901 347.403C96.901 339.878 96.901 332.353 96.901 324.827C96.901 306.756 96.901 288.69 96.901 270.618C96.901 248.754 96.901 226.897 96.901 205.033C96.901 186.133 96.901 167.233 96.901 148.332C96.901 142.102 96.901 135.878 96.901 129.648C96.901 127.711 96.901 125.769 96.901 123.832C96.901 122.998 97.181 121.581 96.901 120.787C96.866 120.688 96.901 120.513 96.901 120.402C96.2477 120.729 95.6002 121.061 94.9469 121.388C107.92 121.388 120.894 121.388 133.867 121.388C164.808 121.388 195.754 121.388 226.694 121.388C264.098 121.388 301.501 121.388 338.905 121.388C371.397 121.388 403.889 121.388 436.381 121.388C446.98 121.388 457.58 121.388 468.179 121.388C471.521 121.388 474.864 121.388 478.206 121.388C479.781 121.388 481.911 121.767 483.451 121.388C483.643 121.341 483.906 121.388 484.11 121.388C483.818 121.172 483.532 120.956 483.241 120.746C483.241 128.271 483.241 135.796 483.241 143.322C483.241 161.393 483.241 179.459 483.241 197.531C483.241 219.395 483.241 241.252 483.241 263.116C483.241 282.016 483.241 300.916 483.241 319.817C483.241 326.047 483.241 332.271 483.241 338.501C483.241 340.438 483.241 342.38 483.241 344.317C483.241 345.151 482.961 346.568 483.241 347.362C483.276 347.461 483.241 347.636 483.241 347.747C483.894 347.42 484.541 347.088 485.195 346.761C482.64 346.761 480.079 346.761 477.524 346.761C476.445 346.761 474.537 348.394 476.439 348.394Z" fill="#6A79A8"/>
<path d="M195.515 412.817C192.58 423.585 187.214 430.364 178.592 430.34C178.884 430.334 179.175 430.329 179.467 430.329C175.069 430.218 170.828 428.089 167.806 424.886C162.334 419.099 162.177 412.84 162.177 405.694C162.177 364.983 163.343 170.352 161.448 163.62C159.674 157.326 154.599 150.128 147.062 150.128L392.695 150.093C399.322 150.005 406.234 154.631 407.628 167.225L407.914 199.851V413.237L195.515 412.817Z" fill="#EFEFEF"/>
<path d="M194.47 410.297C194.36 410.653 194.255 410.997 194.132 411.301C190.9 418.983 181.024 427.786 173.499 419.444C169.002 414.462 168.629 407.48 168.629 401.133C168.629 302.934 168.629 279.384 168.629 181.191C168.629 179.091 168.57 176.997 168.564 174.897C168.559 171.898 168.85 168.935 168.331 165.96C167.526 161.293 165.321 156.819 161.838 153.576C159.762 151.639 156.816 150.122 153.911 150.122L393.092 150.087C399.543 150 406.275 154.561 407.634 166.981L407.914 198.93C407.914 198.93 407.914 408.384 407.914 408.565C407.914 408.565 407.768 408.565 407.763 408.565C390.047 408.535 372.331 408.5 354.615 408.465C322.268 408.407 289.916 408.343 257.57 408.285C243.763 408.261 229.961 408.232 216.153 408.209C211.218 408.197 194.82 408.722 194.82 408.722C194.82 408.722 194.739 409.428 194.47 410.297Z" fill="white"/>
<path d="M406.508 208.631C406.508 231.288 406.508 253.945 406.508 276.602C406.508 279.804 406.508 283.013 406.508 286.215C406.508 286.962 409.326 286.472 409.326 285.463C409.326 262.806 409.326 240.149 409.326 217.492C409.326 214.289 409.326 211.081 409.326 207.878C409.326 207.132 406.508 207.616 406.508 208.631Z" fill="#6A79A8"/>
<path d="M144.723 150.822C151.344 150.822 157.971 150.822 164.592 150.822C180.599 150.822 196.606 150.822 212.612 150.822C231.892 150.822 251.171 150.822 270.45 150.822C287.134 150.822 303.817 150.822 320.501 150.822C328.604 150.822 336.916 151.37 345.007 150.822C345.124 150.816 345.24 150.822 345.357 150.822C346.325 150.822 348.379 149.363 346.489 149.363C339.868 149.363 333.241 149.363 326.62 149.363C310.613 149.363 294.607 149.363 278.6 149.363C259.32 149.363 240.041 149.363 220.762 149.363C204.078 149.363 187.395 149.363 170.711 149.363C162.609 149.363 154.296 148.815 146.205 149.363C146.088 149.369 145.972 149.363 145.855 149.363C144.887 149.363 142.833 150.822 144.723 150.822Z" fill="#6A79A8"/>
<path d="M258.865 459.041C255.931 469.809 250.564 476.588 241.943 476.564C242.234 476.558 242.526 476.553 242.818 476.553C238.419 476.442 234.178 474.313 231.157 471.11C225.685 465.323 225.527 459.064 225.527 451.918C225.527 411.207 225.527 416.935 225.527 376.224C225.527 365.024 225.527 353.83 225.527 342.63C225.527 336.93 225.527 331.231 225.527 325.526C225.527 318.596 226.694 310.499 224.798 303.762C223.025 297.468 217.95 290.269 210.413 290.269L456.045 290.234C462.672 290.147 469.585 294.773 470.979 307.367L471.265 356.303V459.449L258.865 459.041Z" fill="#EFEFEF"/>
<path d="M252.699 454.386C253.347 454.392 252.25 460.213 252.157 460.744C251.626 463.678 250.903 466.467 248.178 468.141C244.323 470.509 239.673 468.794 236.85 465.668C232.352 460.686 231.979 453.703 231.979 447.357C231.979 349.157 231.979 419.531 231.979 321.338C231.979 319.238 231.921 317.144 231.915 315.044C231.909 312.045 232.201 309.082 231.682 306.107C230.877 301.44 228.672 296.966 225.189 293.723C223.112 291.786 220.167 290.269 217.261 290.269L456.442 290.234C462.894 290.147 469.626 294.708 470.985 307.128L471.265 355.393V454.794C471.265 454.794 252.693 454.386 252.699 454.386Z" fill="white"/>
<path d="M240.204 476.354C247.444 477.731 255.879 472.819 257.442 459.455H503.804C502.409 472.049 497.521 476.681 490.894 476.587L240.204 476.354Z" fill="#E3E3E3"/>
<path d="M252.927 470.561C254.543 470.62 255.879 468.24 257.436 459.455H503.798C502.404 467.732 497.515 470.777 490.888 470.713L252.927 470.561Z" fill="#F9F9F9"/>
<path d="M241.429 477.294C254.105 477.288 266.781 477.276 279.457 477.259C299.816 477.235 320.174 477.218 340.533 477.194C361.941 477.171 383.356 477.148 404.764 477.118C420.648 477.101 436.539 477.078 452.423 477.06C456.145 477.054 459.86 477.049 463.582 477.043C471.23 477.031 478.883 477.002 486.537 477.008C492.271 477.013 498.466 476.413 501.768 471.058C503.932 467.546 504.731 463.282 505.192 459.245C505.244 458.802 504.696 458.773 504.369 458.773C496.173 458.773 487.977 458.773 479.781 458.773C460.205 458.773 440.628 458.773 421.045 458.773C397.367 458.773 373.69 458.773 350.012 458.773C329.455 458.773 308.892 458.773 288.336 458.773C278.413 458.773 268.356 458.3 258.439 458.773C258.294 458.778 258.148 458.773 258.002 458.773C257.576 458.773 256.106 459.047 256.024 459.671C255.004 467.453 250.5 477.27 241.079 475.689C240.333 475.561 237.801 476.78 239.306 477.031C250.529 478.915 257.512 469.302 258.83 459.245C258.171 459.543 257.512 459.84 256.853 460.143C265.049 460.143 273.245 460.143 281.44 460.143C301.017 460.143 320.594 460.143 340.177 460.143C363.855 460.143 387.532 460.143 411.21 460.143C431.767 460.143 452.33 460.143 472.886 460.143C479.659 460.143 486.432 460.143 493.198 460.143C495.304 460.143 497.41 460.143 499.516 460.143C500.403 460.143 501.937 460.447 502.783 460.143C502.893 460.103 503.092 460.143 503.22 460.143C502.946 459.986 502.672 459.828 502.398 459.671C501.925 463.813 501.143 468.52 498.629 471.979C495.806 475.87 491.197 475.648 486.881 475.643C479.461 475.637 472.046 475.672 464.626 475.683C460.998 475.689 457.37 475.695 453.747 475.701C438.586 475.718 423.419 475.742 408.258 475.759C367.495 475.806 326.725 475.853 285.961 475.899C271.506 475.917 257.045 475.934 242.59 475.934C241.68 475.928 239.551 477.294 241.429 477.294Z" fill="#6A79A8"/>
<path d="M208.634 291.033C214.409 291.033 220.19 291.033 225.971 291.033C240.513 291.033 255.056 291.033 269.593 291.033C288.61 291.033 307.632 291.033 326.649 291.033C346.162 291.033 365.669 291.033 385.181 291.033C400.908 291.033 416.641 291.033 432.368 291.033C440.126 291.033 447.885 291.021 455.643 291.033C464.399 291.044 468.966 298.237 470.197 306.258C470.623 309.017 470.396 311.893 470.396 314.675C470.396 329.76 470.396 344.846 470.396 359.931C470.396 379.379 470.396 398.822 470.396 418.27C470.396 430.561 470.396 442.852 470.396 455.137C470.396 455.744 470.396 456.345 470.396 456.952C470.396 457.815 473.213 457.29 473.213 456.199C473.213 447.309 473.213 438.413 473.213 429.523C473.213 410.541 473.213 391.559 473.213 372.577C473.213 355.421 473.213 338.271 473.213 321.115C473.213 310.545 475.08 294.76 462.532 290.28C459.878 289.335 457.16 289.434 454.4 289.434C450.591 289.434 446.782 289.434 442.973 289.434C428.979 289.434 414.99 289.434 400.996 289.434C382.014 289.434 363.032 289.434 344.056 289.434C324.246 289.434 304.436 289.434 284.625 289.434C268.444 289.434 252.262 289.434 236.08 289.434C227.68 289.434 219.28 289.393 210.88 289.434C210.495 289.434 210.104 289.434 209.719 289.434C208.675 289.44 206.738 291.033 208.634 291.033Z" fill="#6A79A8"/>
<path d="M181.532 430.137L176.854 430.131C178.388 430.423 179.969 430.428 181.532 430.137Z" fill="#E3E3E3"/>
<path d="M225.055 413.231C225.055 411.691 225.049 410.157 225.049 408.617C225.043 406.074 225.043 403.531 225.037 400.987C225.032 397.761 225.026 394.535 225.026 391.31C225.02 387.594 225.014 383.878 225.008 380.162C225.002 376.149 224.997 372.135 224.991 368.122C224.985 364.003 224.979 359.885 224.973 355.767C224.967 351.736 224.962 347.705 224.956 343.674C224.95 339.923 224.944 336.172 224.938 332.421C224.932 329.143 224.927 325.865 224.927 322.586C224.921 319.973 224.921 317.36 224.915 314.746C224.909 312.302 225.02 309.811 224.839 307.361C224.763 306.329 224.635 305.296 224.431 304.281C223.807 301.236 222.593 298.273 220.703 295.799C220.347 295.339 219.968 294.889 219.572 294.469C216.923 291.675 213.202 290.036 209.328 290.258C208.774 290.287 208.22 290.357 207.677 290.462C198.326 292.235 195.346 299.218 194.441 306.93L194.43 307.064C194.144 309.59 194.074 312.185 194.074 314.705C194.074 324.861 194.074 335.017 194.074 345.173C194.074 352.792 194.074 360.41 194.074 368.034C194.074 382.606 193.893 397.055 193.893 411.633C193.893 415.477 193.222 419.071 191.35 422.518C189.594 425.744 185.645 430.142 181.55 430.137C181.602 430.137 199.213 430.154 224.979 430.177L225.055 413.231Z" fill="#E3E3E3"/>
<path d="M179.216 431.245C192.621 431.239 206.027 431.222 219.432 431.21C220.569 431.21 222.395 429.489 220.493 429.495C207.088 429.507 193.683 429.53 180.278 429.53C179.146 429.53 177.32 431.245 179.216 431.245Z" fill="#6A79A8"/>
<path d="M161.36 167.405C159.803 154.041 151.368 149.129 144.123 150.506C136.353 151.982 130.245 159.233 130.706 167.108L161.36 167.405Z" fill="#E3E3E3"/>
<path d="M241.068 475.607C225.288 472.142 226.309 453.878 226.309 441.196C226.309 432.149 226.309 423.107 226.309 414.059C226.309 387.231 226.309 360.41 226.309 333.582C226.309 325.468 226.309 317.353 226.309 309.245C226.309 298.931 219.496 287.673 207.864 289.697C199.137 291.22 192.831 298.64 192.843 307.437C192.843 309.257 192.843 311.077 192.843 312.897C192.843 324.009 192.843 335.122 192.843 346.234C192.843 367.538 193.263 388.882 192.843 410.18C192.721 416.305 191.052 424.139 185.283 427.884C181.299 430.474 176.504 429.774 172.607 427.319C167.514 424.11 164.504 418.504 163.53 412.683C162.445 406.149 162.964 399.155 162.964 392.493C162.964 373.36 162.964 354.226 162.964 335.093C162.964 307.337 162.964 279.582 162.964 251.827C162.964 229.158 162.964 206.49 162.964 183.821C162.964 178.589 162.964 173.35 162.964 168.118C162.964 157.962 155.34 147.503 144.333 149.591C135.88 151.195 129.236 158.551 129.498 167.289C129.51 167.622 130.14 167.686 130.35 167.686C138.593 167.686 146.835 167.686 155.072 167.686C156.104 167.686 158.07 166.134 156.18 166.134C147.938 166.134 139.695 166.134 131.458 166.134C131.744 166.269 132.03 166.403 132.31 166.531C132.007 156.457 143.183 146.511 152.639 152.933C157.364 156.142 159.89 162.378 160.141 167.943C160.334 172.149 160.141 176.407 160.141 180.619C160.141 201.817 160.141 223.016 160.141 244.214C160.141 271.812 160.141 299.404 160.141 327.002C160.141 347.611 160.141 368.226 160.141 388.836C160.141 392.464 160.118 396.092 160.141 399.721C160.194 409.276 159.884 419.502 167.514 426.508C172.963 431.507 180.995 432.691 187.26 428.514C195.334 423.124 195.655 413.231 195.655 404.51C195.655 393.683 195.655 382.856 195.655 372.03C195.655 350.452 195.672 328.868 195.655 307.291C195.649 299.76 200.316 291.832 208.529 291.051C217.489 290.199 223.031 299.97 223.486 307.752C223.795 312.984 223.486 318.322 223.486 323.56C223.486 349.151 223.486 374.748 223.486 400.339C223.486 418.347 222.902 436.471 223.579 454.473C223.958 464.53 228.678 474.756 239.323 477.095C240.204 477.293 242.643 475.951 241.068 475.607Z" fill="#6A79A8"/>
<path d="M193.7 180.666C218.492 180.666 243.278 180.666 268.07 180.666C271.547 180.666 275.03 180.666 278.506 180.666C280.081 180.666 280.7 178.7 278.78 178.7C253.988 178.7 229.202 178.7 204.411 178.7C200.934 178.7 197.451 178.7 193.975 178.7C192.405 178.7 191.781 180.666 193.7 180.666Z" fill="#6A79A8"/>
<path d="M192.231 201.945C217.022 201.945 241.809 201.945 266.6 201.945C270.077 201.945 273.56 201.945 277.036 201.945C277.672 201.945 280.239 200.738 278.851 200.738C254.059 200.738 229.273 200.738 204.481 200.738C201.004 200.738 197.521 200.738 194.045 200.738C193.403 200.738 190.842 201.945 192.231 201.945Z" fill="#6A79A8"/>
<path d="M443.311 379.256H416.023C413.713 379.256 411.84 377.383 411.84 375.073V363.844C411.84 361.534 413.713 359.662 416.023 359.662H443.311C445.621 359.662 447.494 361.534 447.494 363.844V375.073C447.5 377.383 445.621 379.256 443.311 379.256Z" fill="#B9F7BA"/>
<path d="M439.823 294.205C444.303 294.94 444.822 303.685 445.038 307.144C445.277 311.023 445.102 314.955 445.102 318.834C445.102 329.614 445.102 340.394 445.102 351.174C445.102 358.985 445.102 366.802 445.102 374.613C445.102 376.66 445.026 378.97 442.535 379.268C439.432 379.641 436.049 379.268 432.922 379.268C425.269 379.268 417.621 379.268 409.968 379.268C408.877 379.268 406.987 380.913 408.883 380.913C416.256 380.913 423.635 380.913 431.009 380.913C434.514 380.913 438.032 380.971 441.538 380.913C444.781 380.86 447.675 379.396 447.92 375.791C448.386 368.844 447.92 361.703 447.92 354.738C447.92 343.147 447.92 331.551 447.92 319.96C447.92 315.375 448.153 310.714 447.832 306.135C447.54 301.952 446.852 293.499 441.532 292.624C440.605 292.479 438.219 293.943 439.823 294.205Z" fill="#6A79A6"/>
<path d="M443.043 356.873C433.535 356.873 424.02 356.873 414.512 356.873C393.593 356.873 372.669 356.873 351.75 356.873C330.47 356.873 309.196 356.873 287.916 356.873C280.711 356.873 273.513 356.873 266.309 356.873C263.369 356.873 259.962 357.357 257.045 356.873C253.259 356.243 254.123 351.39 254.123 348.63C254.123 342.686 254.123 336.742 254.123 330.792C254.123 324.434 254.123 318.081 254.123 311.723C254.123 305.965 253.983 299.875 250.214 295.156C249.584 294.368 248.855 293.604 247.998 293.062C247.193 292.554 244.603 293.727 245.764 294.456C249.707 296.929 250.99 302.996 251.247 307.213C251.614 313.181 251.305 319.259 251.305 325.233C251.305 331.813 251.305 338.393 251.305 344.973C251.305 347.965 251.072 351.063 251.305 354.05C251.719 359.364 257.25 358.512 261.006 358.512C267.201 358.512 273.391 358.512 279.586 358.512C300.078 358.512 320.565 358.512 341.058 358.512C362.846 358.512 384.627 358.512 406.415 358.512C418.059 358.512 429.778 358.897 441.421 358.512C441.602 358.506 441.777 358.512 441.958 358.512C443.055 358.518 444.939 356.873 443.043 356.873Z" fill="#6A79A6"/>
<path d="M259.297 314.086C279.813 314.086 300.335 314.086 320.851 314.086C353.553 314.086 386.249 314.086 418.951 314.086C426.453 314.086 433.949 314.086 441.451 314.086C443.008 314.086 443.656 312.161 441.736 312.161C421.22 312.161 400.698 312.161 380.182 312.161C347.48 312.161 314.784 312.161 282.082 312.161C274.581 312.161 267.085 312.161 259.583 312.161C258.025 312.155 257.378 314.086 259.297 314.086Z" fill="#6A79A6"/>
<path d="M259.297 336.486C279.813 336.486 300.335 336.486 320.851 336.486C353.553 336.486 386.249 336.486 418.951 336.486C426.453 336.486 433.949 336.486 441.451 336.486C443.008 336.486 443.656 334.561 441.736 334.561C421.22 334.561 400.698 334.561 380.182 334.561C347.48 334.561 314.784 334.561 282.082 334.561C274.581 334.561 267.085 334.561 259.583 334.561C258.025 334.555 257.378 336.486 259.297 336.486Z" fill="#6A79A6"/>
<path d="M402.763 294.73C407.529 298.044 408.27 304.566 408.27 309.839C408.27 315.859 408.27 321.873 408.27 327.893C408.27 341.217 408.27 354.546 408.27 367.869C408.27 370.949 408.27 374.029 408.27 377.115C408.27 378.51 411.117 378.037 411.117 376.865C411.117 354.365 411.117 331.866 411.117 309.366C411.117 303.568 410.137 296.772 404.957 293.179C404.006 292.514 401.492 293.85 402.763 294.73Z" fill="#6A79A6"/>
<path d="M362.98 294.853C367.256 296.539 368.195 304.046 368.218 308.136C368.247 314.033 368.218 319.931 368.218 325.828C368.218 335.768 368.218 345.709 368.218 355.643C368.218 357.037 371.065 356.564 371.065 355.392C371.065 347.879 371.065 340.365 371.065 332.852C371.065 327.164 371.065 321.477 371.065 315.789C371.065 310.807 371.596 305.423 370.237 300.587C369.414 297.671 367.647 294.241 364.636 293.051C363.522 292.613 361.346 294.206 362.98 294.853Z" fill="#6A79A6"/>
<path d="M266.688 294.853C270.771 296.469 271.874 304.18 271.926 308.322C271.996 314.126 271.926 319.931 271.926 325.735C271.926 335.704 271.926 345.673 271.926 355.643C271.926 357.037 274.773 356.564 274.773 355.392C274.773 347.843 274.773 340.295 274.773 332.752C274.773 327.1 274.773 321.441 274.773 315.789C274.773 310.708 275.275 305.271 273.799 300.354C272.959 297.548 271.25 294.211 268.345 293.062C267.231 292.613 265.049 294.205 266.688 294.853Z" fill="#6A79A6"/>
<path d="M381.361 244.132H201.15C198.84 244.132 196.967 242.259 196.967 239.949V228.72C196.967 226.41 198.84 224.538 201.15 224.538H381.361C383.671 224.538 385.543 226.41 385.543 228.72V239.949C385.549 242.259 383.671 244.132 381.361 244.132Z" fill="#B9F7BA"/>
<path d="M195.795 290.332C195.795 280.363 195.795 270.394 195.795 260.425C195.795 249.067 195.451 237.651 195.795 226.293C195.888 223.184 197.201 222.834 199.511 222.834C202.34 222.834 205.169 222.834 207.998 222.834C218.51 222.834 229.022 222.834 239.533 222.834C268.916 222.834 298.293 222.834 327.676 222.834C339.967 222.834 352.258 222.834 364.549 222.834C370.697 222.834 377.12 222.298 383.245 222.834C386.622 223.132 386.768 225.984 386.768 228.662C386.768 234.297 386.768 239.926 386.768 245.561C386.768 258.57 386.768 271.578 386.768 284.587C386.768 285.45 386.768 286.313 386.768 287.177C386.768 288.378 389.592 287.801 389.592 286.838C389.592 276.192 389.592 265.541 389.592 254.895C389.592 247.795 389.592 240.702 389.592 233.603C389.592 230.791 390.531 225.354 388.629 222.928C387.072 220.938 384.715 221.189 382.492 221.189C379.407 221.189 376.326 221.189 373.241 221.189C361.912 221.189 350.59 221.189 339.261 221.189C309.015 221.189 278.763 221.189 248.517 221.189C236.71 221.189 224.903 221.189 213.097 221.189C208.302 221.189 203.431 220.933 198.641 221.189C195.614 221.353 193.193 223.155 192.977 226.311C192.896 227.53 192.977 228.779 192.977 229.998C192.977 236.035 192.977 242.073 192.977 248.11C192.977 261.434 192.977 274.763 192.977 288.087C192.977 288.95 192.977 289.807 192.977 290.671C192.971 291.872 195.795 291.295 195.795 290.332Z" fill="#6A79A6"/>
<path d="M201.226 245.602C221.742 245.602 242.264 245.602 262.78 245.602C295.482 245.602 328.178 245.602 360.88 245.602C368.382 245.602 375.878 245.602 383.379 245.602C384.937 245.602 385.584 243.677 383.665 243.677C363.149 243.677 342.627 243.677 322.111 243.677C289.409 243.677 256.713 243.677 224.011 243.677C216.509 243.677 209.013 243.677 201.512 243.677C199.954 243.671 199.307 245.602 201.226 245.602Z" fill="#6A79A6"/>
<path d="M200.963 268.003C221.479 268.003 242.001 268.003 262.517 268.003C295.219 268.003 327.915 268.003 360.617 268.003C368.119 268.003 375.615 268.003 383.117 268.003C384.674 268.003 385.322 266.078 383.403 266.078C362.887 266.078 342.365 266.078 321.849 266.078C289.147 266.078 256.451 266.078 223.749 266.078C216.247 266.078 208.751 266.078 201.249 266.078C199.692 266.072 199.044 268.003 200.963 268.003Z" fill="#6A79A6"/>
<path d="M349.936 225.243C349.936 243.321 349.936 261.393 349.936 279.471C349.936 282.072 349.936 284.674 349.936 287.276C349.936 288.67 352.783 288.197 352.783 287.025C352.783 268.947 352.783 250.875 352.783 232.798C352.783 230.196 352.783 227.594 352.783 224.993C352.777 223.598 349.936 224.071 349.936 225.243Z" fill="#6A79A6"/>
<path d="M309.884 225.243C309.884 242.796 309.884 260.349 309.884 277.896C309.884 280.363 309.884 282.831 309.884 285.298C309.884 286.692 312.731 286.22 312.731 285.047C312.731 267.495 312.731 249.942 312.731 232.395C312.731 229.928 312.731 227.46 312.731 224.993C312.725 223.598 309.884 224.071 309.884 225.243Z" fill="#6A79A6"/>
<path d="M213.587 225.243C213.587 243.286 213.587 261.335 213.587 279.377C213.587 281.932 213.587 284.487 213.587 287.042C213.587 288.436 216.433 287.964 216.433 286.791C216.433 268.749 216.433 250.7 216.433 232.658C216.433 230.103 216.433 227.548 216.433 224.993C216.433 223.598 213.587 224.071 213.587 225.243Z" fill="#6A79A6"/>
<path d="M369.647 426.909C392.059 426.909 414.471 426.909 436.883 426.909C440.12 426.909 443.358 426.909 446.595 426.909C448.194 426.909 448.766 424.873 446.852 424.873C424.44 424.873 402.028 424.873 379.616 424.873C376.379 424.873 373.141 424.873 369.904 424.873C368.306 424.873 367.728 426.909 369.647 426.909Z" fill="#6A79A8"/>
<path d="M369.647 409.409C392.059 409.409 414.471 409.409 436.883 409.409C440.12 409.409 443.358 409.409 446.595 409.409C448.194 409.409 448.766 407.374 446.852 407.374C424.44 407.374 402.028 407.374 379.616 407.374C376.379 407.374 373.141 407.374 369.904 407.374C368.306 407.374 367.728 409.409 369.647 409.409Z" fill="#6A79A8"/>
<path d="M260.644 428.864C256.52 428.864 253.178 425.172 253.178 420.61V413.662C253.178 409.107 256.52 405.408 260.644 405.408H344.534C348.659 405.408 352.001 409.101 352.001 413.662V420.61C352.001 425.166 348.659 428.864 344.534 428.864H260.644Z" fill="#EFEFEF"/>
<path d="M262.558 407.392C265.935 404.621 269.581 402.224 273.525 400.328C275.444 399.406 277.421 398.601 279.445 397.93C280.116 397.709 281.925 396.851 282.759 396.968C284.433 397.201 284.276 398.572 284.34 399.844C284.567 404.324 282.753 408.699 280.665 412.572C279.078 415.518 276.488 418.05 276.47 421.573C276.47 421.911 277.497 421.765 277.625 421.742C280.029 421.281 282.456 420.733 284.684 419.695C285.728 419.21 286.696 418.586 287.694 418.02C289.689 416.883 291.13 417.227 292.734 418.738C294.116 420.045 294.601 421.462 296.497 422.121C298.492 422.815 300.586 422.67 302.604 422.18C303.666 421.923 304.687 421.52 305.725 421.2C307.831 420.558 309.867 420.61 312.031 420.826C315.274 421.141 318.483 421.783 321.743 421.97C329.385 422.407 337.167 421.981 344.82 421.975C345.444 421.975 348.017 420.785 346.634 420.785C338.975 420.785 331.199 421.217 323.558 420.78C317.59 420.435 311.558 418.435 305.661 420.208C302.569 421.135 299.122 422.366 296.812 419.42C295.616 417.898 294.181 416.288 292.18 415.915C290.675 415.635 289.111 416.09 287.752 416.702C284.48 418.172 281.761 419.963 278.145 420.651C278.53 420.71 278.915 420.768 279.3 420.82C279.311 417.991 281.149 415.891 282.584 413.61C284.001 411.359 285.156 408.862 286.014 406.348C286.784 404.079 289.117 395.772 284.894 395.585C283.179 395.509 281.172 396.379 279.568 396.88C277.252 397.609 274.983 398.479 272.772 399.494C268.17 401.605 263.923 404.359 260.009 407.573C259.384 408.08 262.01 407.841 262.558 407.392Z" fill="#6A79A6"/>
<path d="M414.904 197.904C430.452 182.356 430.452 157.149 414.904 141.601C399.356 126.053 374.148 126.053 358.601 141.601C343.053 157.149 343.053 182.356 358.601 197.904C374.148 213.452 399.356 213.452 414.904 197.904Z" fill="#96E296"/>
<path d="M366.829 172.651C370.884 176.717 374.944 180.777 378.998 184.843C380.789 186.639 384.796 185.782 386.348 184.02C394.194 175.118 402.046 166.223 409.891 157.321C413.281 153.477 405.131 153.062 402.996 155.489C395.151 164.391 387.299 173.287 379.453 182.189C381.903 181.914 384.353 181.64 386.803 181.366C382.749 177.3 378.689 173.24 374.634 169.174C372.307 166.847 364.28 170.102 366.829 172.651Z" fill="white"/>
</svg>
