<svg width="24" height="24" viewBox="0 0 24 24" fill="none" xmlns="http://www.w3.org/2000/svg">
<path d="M5 7H6.55556H19" stroke="#4080FE" stroke-width="2" stroke-linecap="round" stroke-linejoin="round"/>
<path d="M9.14286 7.2V5.6C9.14286 5.17565 9.29337 4.76869 9.56128 4.46863C9.82919 4.16857 10.1925 4 10.5714 4H13.4286C13.8075 4 14.1708 4.16857 14.4387 4.46863C14.7066 4.76869 14.8571 5.17565 14.8571 5.6V7.2M17 7.2V18.4C17 18.8243 16.8495 19.2313 16.5816 19.5314C16.3137 19.8314 15.9503 20 15.5714 20H8.42857C8.04969 20 7.68633 19.8314 7.41842 19.5314C7.15051 19.2313 7 18.8243 7 18.4V7.2H17Z" stroke="#4080FE" stroke-width="2" stroke-linecap="round" stroke-linejoin="round"/>
</svg>
