<svg width="49" height="64" viewBox="0 0 49 64" fill="none" xmlns="http://www.w3.org/2000/svg">
<g clip-path="url(#clip0)">
<path d="M39.0962 41.1766C49.1351 33.3925 50.9629 18.9442 43.1787 8.90534C35.3946 -1.13349 20.9463 -2.96129 10.9074 4.82284C0.868605 12.607 -0.959192 27.0553 6.82493 37.0941C14.6091 47.133 29.0574 48.9608 39.0962 41.1766Z" fill="#E9EAEB"/>
<path d="M40.84 46.94C39.76 39.45 29.5201 27.57 27 24H25C22.43 27.57 12.39 39.45 11.19 46.94C9.77005 55.8 16.36 62.96 25.89 62.96C35.43 62.96 42.1201 55.8 40.84 46.94Z" fill="#A3D4FF" stroke="#2A5082" stroke-width="2" stroke-miterlimit="10"/>
<path d="M31.83 16H24L21 11H20.1C18 11 15.94 12.8 14.51 14.49C13.07 16.18 12.26 16 11.35 16C10.45 16 9 16 9 16V29C9 29 10.79 29 12.11 29C13.43 29 15.92 32 18.57 32C18.57 32 29.69 32 32.84 32C35.15 32 35.37 23.56 35.51 18.81C35.56 17.23 33.53 16 31.83 16Z" fill="white"/>
<path d="M29 16C29.8 16 33.49 10.03 34.4 8.83995C34.72 8.42995 34.78 8.09995 34.54 7.80995C34.29 7.49995 33.76 7.46995 33.17 7.63995C32.06 7.95995 30.7 7.59995 29.15 7.14995C26.06 6.25995 21.61 4.98995 19.81 8.23995C19.64 8.55995 19.76 8.75995 20.1 9.13995C20.37 9.43995 20.58 10.15 20.99 11L23.99 16H29Z" fill="#A3D4FF" stroke="#2A5082" stroke-width="2" stroke-miterlimit="10"/>
<path d="M21 16H31.83C33.53 16 35.57 17.23 35.52 18.81C35.37 23.56 35.16 32 32.84 32C29.69 32 18.57 32 18.57 32C15.92 32 13.43 29 12.11 29C10.79 29 9 29 9 29V16C9 16 10.45 16 11.35 16C12.26 16 13.07 16.18 14.5 14.49C15.95 12.8 18 11 20.1 11H21" stroke="#2A5082" stroke-width="2" stroke-miterlimit="10" stroke-linecap="round"/>
<path d="M9 13H1V32H9V13Z" fill="#A3D4FF" stroke="#2A5082" stroke-width="2" stroke-miterlimit="10"/>
<path d="M5 16V18" stroke="#2A5082" stroke-width="2" stroke-miterlimit="10"/>
<path d="M44 20V22" stroke="#BCC0C4" stroke-width="2" stroke-miterlimit="10"/>
<path d="M44 24V26" stroke="#BCC0C4" stroke-width="2" stroke-miterlimit="10"/>
<path d="M43 23H41" stroke="#BCC0C4" stroke-width="2" stroke-miterlimit="10"/>
<path d="M47 23H45" stroke="#BCC0C4" stroke-width="2" stroke-miterlimit="10"/>
<path d="M3 40V42" stroke="#BCC0C4" stroke-width="2" stroke-miterlimit="10"/>
<path d="M3 44V46" stroke="#BCC0C4" stroke-width="2" stroke-miterlimit="10"/>
<path d="M2 43H0" stroke="#BCC0C4" stroke-width="2" stroke-miterlimit="10"/>
<path d="M6 43H4" stroke="#BCC0C4" stroke-width="2" stroke-miterlimit="10"/>
<path d="M46 6V8" stroke="#BCC0C4" stroke-width="2" stroke-miterlimit="10"/>
<path d="M46 10V12" stroke="#BCC0C4" stroke-width="2" stroke-miterlimit="10"/>
<path d="M45 9H43" stroke="#BCC0C4" stroke-width="2" stroke-miterlimit="10"/>
<path d="M49 9H47" stroke="#BCC0C4" stroke-width="2" stroke-miterlimit="10"/>
<path d="M31 51.8351C31 52.8727 30.6225 53.7553 29.8676 54.483C29.1126 55.1972 28.0058 55.5947 26.547 55.6755V58H25.5873V55.6957C24.6532 55.6418 23.7703 55.4532 22.9386 55.1298C22.1196 54.7929 21.4734 54.3684 21 53.8564L21.5566 52.7043C22.0045 53.1624 22.5867 53.5465 23.3033 53.8564C24.0326 54.1663 24.794 54.3482 25.5873 54.4021V49.0862C24.7044 48.8571 23.9686 48.6145 23.38 48.3585C22.7914 48.089 22.2988 47.705 21.9021 47.2064C21.5182 46.6943 21.3263 46.0206 21.3263 45.1851C21.3263 44.1475 21.6846 43.2784 22.4012 42.5777C23.1177 41.8635 24.1798 41.4457 25.5873 41.3245V39H26.547V41.3043C27.2764 41.3312 27.9802 41.4592 28.6583 41.6883C29.3493 41.9039 29.9443 42.1936 30.4434 42.5574L29.9635 43.75C29.4389 43.3996 28.8823 43.1234 28.2937 42.9213C27.7051 42.7191 27.1228 42.6046 26.547 42.5777V47.934C27.4939 48.1766 28.2681 48.4259 28.8695 48.6819C29.4709 48.9245 29.9763 49.3018 30.3858 49.8138C30.7953 50.3259 31 50.9996 31 51.8351ZM22.7274 45.1447C22.7274 45.8454 22.9706 46.3777 23.4568 46.7415C23.9559 47.1053 24.666 47.4152 25.5873 47.6713V42.6181C24.6404 42.6989 23.9239 42.9752 23.4376 43.4468C22.9642 43.905 22.7274 44.4709 22.7274 45.1447ZM26.547 54.4021C27.5579 54.3213 28.3193 54.0585 28.8311 53.6138C29.3429 53.1691 29.5988 52.6032 29.5988 51.916C29.5988 51.1883 29.3365 50.6426 28.8119 50.2787C28.2873 49.9149 27.5323 49.605 26.547 49.3489V54.4021Z" fill="#2A5082"/>
</g>
<defs>
<clipPath id="clip0">
<rect width="49" height="63.96" fill="white"/>
</clipPath>
</defs>
</svg>
