<svg width="161" height="135" viewBox="0 0 161 135" fill="none" xmlns="http://www.w3.org/2000/svg">
<path d="M88.5731 97.377C115.478 97.377 137.288 75.5785 137.288 48.6885C137.288 21.7986 115.478 0 88.5731 0C61.6684 0 39.8579 21.7986 39.8579 48.6885C39.8579 75.5785 61.6684 97.377 88.5731 97.377Z" fill="#E9EAEB"/>
<path d="M101.859 28.7705H35.4292C39.105 28.7705 42.0722 31.7361 42.0722 35.4099V123.934C42.0722 128.825 46.0358 132.787 50.9295 132.787H108.502V35.4099C108.502 31.7361 105.535 28.7705 101.859 28.7705Z" fill="white"/>
<path d="M75.2871 13.2787H8.85736C12.5331 13.2787 15.5003 16.2443 15.5003 19.918V104.016C15.5003 108.907 19.464 112.869 24.3576 112.869H81.9301V19.918C81.9301 16.2443 78.9629 13.2787 75.2871 13.2787Z" fill="white"/>
<path d="M22.1433 112.869H37.6436" stroke="#2A5082" stroke-width="2" stroke-miterlimit="10"/>
<path d="M35.4292 28.7705H101.859C105.535 28.7705 108.502 31.7361 108.502 35.4099V121.721" stroke="#2A5082" stroke-width="2" stroke-miterlimit="10"/>
<path d="M8.85736 13.2787H75.2871C78.9629 13.2787 81.9301 16.2443 81.9301 19.918V24.3443" stroke="#2A5082" stroke-width="2" stroke-miterlimit="10"/>
<path d="M50.9295 132.787C46.0358 132.787 42.0722 128.825 42.0722 123.934V35.4098C42.0722 31.7361 39.105 28.7705 35.4292 28.7705C31.7534 28.7705 28.7863 31.7361 28.7863 35.4098V106.23C28.7863 109.903 25.8191 112.869 22.1433 112.869C18.4675 112.869 15.5003 109.903 15.5003 106.23V19.918C15.5003 16.2443 12.5331 13.2787 8.85733 13.2787C5.18155 13.2787 2.21436 16.2443 2.21436 19.918V26.5574H11.0717" stroke="#2A5082" stroke-width="2" stroke-miterlimit="10"/>
<path d="M59.7868 123.934V121.721H121.788V123.934C121.788 128.825 117.824 132.787 112.931 132.787H50.9295C55.8232 132.787 59.7868 128.825 59.7868 123.934Z" fill="#A3D4FF" stroke="#2A5082" stroke-width="2" stroke-miterlimit="10"/>
<path d="M139.731 23.9092L135.659 27.9813" stroke="#BCC0C4" stroke-width="2" stroke-miterlimit="10"/>
<path d="M149.912 13.7288L145.84 17.8009" stroke="#BCC0C4" stroke-width="2" stroke-miterlimit="10"/>
<path d="M145.84 23.9092L149.912 27.9813" stroke="#BCC0C4" stroke-width="2" stroke-miterlimit="10"/>
<path d="M135.659 13.7288L139.731 17.8009" stroke="#BCC0C4" stroke-width="2" stroke-miterlimit="10"/>
<path d="M119.371 32.0532V44.2695" stroke="#BCC0C4" stroke-width="2" stroke-miterlimit="10"/>
<path d="M113.263 38.1614H125.479" stroke="#BCC0C4" stroke-width="2" stroke-miterlimit="10"/>
<path d="M78.01 106C79.2306 105.651 100 93.5872 100 82.5592C100 73.2745 100 69.8774 100 59.0985C94.3975 59.0985 81.4816 52.922 78 49.2161C74.5184 52.922 61.6025 59.0985 56 59.0985C56 69.8874 56 73.2745 56 82.5592C56 93.5872 76.7694 105.651 77.99 106H78.01Z" fill="white"/>
<path d="M78 49.2161C74.5184 52.922 61.6025 59.0985 56 59.0985V82.5592C56 93.5872 76.7694 105.651 77.99 106H78.01C79.2306 105.651 100 93.5872 100 82.5592V59.0985C94.3975 59.0985 81.4816 52.922 78 49.2161ZM94.9977 81.4335C94.9977 89.951 78.9504 99.2756 78.01 99.5445H77.99C77.0496 99.2756 61.0023 89.951 61.0023 81.4335V63.3025C65.3242 63.3025 75.3088 58.5306 78 55.6715C80.6912 58.5306 90.6758 63.3025 94.9977 63.3025V81.4335Z" fill="#A3D4FF"/>
<path d="M78.01 106C79.2306 105.651 100 93.5872 100 82.5592C100 73.2745 100 69.8774 100 59.0985C94.3975 59.0985 81.4816 52.922 78 49.2161C74.5184 52.922 61.6025 59.0985 56 59.0985C56 69.8874 56 73.2745 56 82.5592C56 93.5872 76.7694 105.651 77.99 106H78.01Z" stroke="#2A5082" stroke-width="2" stroke-miterlimit="10" stroke-linecap="round" stroke-linejoin="round"/>
<path d="M90.4956 90.1902C93.0567 87.4506 94.9976 84.3923 94.9976 81.4335C94.9976 74.2608 94.9976 71.6408 94.9976 63.3025C90.6756 63.3025 80.6911 58.5307 77.9999 55.6716C77.0294 56.7076 75.1086 57.9828 72.8475 59.1982" stroke="#2A5082" stroke-width="2" stroke-miterlimit="10" stroke-linecap="round" stroke-linejoin="round"/>
<path d="M67.3552 61.7283C64.9041 62.6747 62.573 63.3023 61.0023 63.3023C61.0023 71.6306 61.0023 74.2606 61.0023 81.4333C61.0023 89.9509 77.0496 99.2754 77.99 99.5444H78.01C78.4202 99.4249 81.6417 97.6217 85.1833 94.922" stroke="#2A5082" stroke-width="2" stroke-miterlimit="10" stroke-linecap="round" stroke-linejoin="round"/>
</svg>
