<svg width="62" height="62" viewBox="0 0 62 62" fill="none" xmlns="http://www.w3.org/2000/svg">
<g clip-path="url(#clip0)">
<path d="M54.3224 48.6521C65.1766 36.8753 64.4288 18.5293 52.652 7.67509C40.8753 -3.17913 22.5292 -2.43127 11.675 9.34549C0.82081 21.1222 1.56867 39.4683 13.3454 50.3225C25.1222 61.1767 43.4682 60.4288 54.3224 48.6521Z" fill="#E9EAEB"/>
<path d="M45 12L43 14" stroke="#BCC0C4" stroke-width="2" stroke-miterlimit="10"/>
<path d="M50 7L48 9" stroke="#BCC0C4" stroke-width="2" stroke-miterlimit="10"/>
<path d="M48 12L50 14" stroke="#BCC0C4" stroke-width="2" stroke-miterlimit="10"/>
<path d="M43 7L45 9" stroke="#BCC0C4" stroke-width="2" stroke-miterlimit="10"/>
<path d="M56 32V34" stroke="#BCC0C4" stroke-width="2" stroke-miterlimit="10"/>
<path d="M56 36V38" stroke="#BCC0C4" stroke-width="2" stroke-miterlimit="10"/>
<path d="M55 35H53" stroke="#BCC0C4" stroke-width="2" stroke-miterlimit="10"/>
<path d="M59 35H57" stroke="#BCC0C4" stroke-width="2" stroke-miterlimit="10"/>
<path d="M50 41V43" stroke="#BCC0C4" stroke-width="2" stroke-miterlimit="10"/>
<path d="M50 45V47" stroke="#BCC0C4" stroke-width="2" stroke-miterlimit="10"/>
<path d="M49 44H47" stroke="#BCC0C4" stroke-width="2" stroke-miterlimit="10"/>
<path d="M53 44H51" stroke="#BCC0C4" stroke-width="2" stroke-miterlimit="10"/>
<path d="M9 9L1 17V61H38V9H9Z" fill="white"/>
<path d="M1 18H10V9H9L1 17V18Z" fill="#A3D4FF"/>
<path d="M38 28V9H9L1 17V61H38V49" stroke="#2A5082" stroke-width="2" stroke-miterlimit="10" stroke-linecap="round" stroke-linejoin="round"/>
<path d="M5 18H10V13" stroke="#2A5082" stroke-width="2" stroke-miterlimit="10" stroke-linecap="round" stroke-linejoin="round"/>
<path d="M53.64 28.2L29.26 52.58L23.1 53.81L24.33 47.65L48.71 23.27C49.19 22.79 49.97 22.79 50.45 23.27L53.64 26.46C54.12 26.94 54.12 27.72 53.64 28.2Z" fill="#A3D4FF" stroke="#2A5082" stroke-width="2" stroke-miterlimit="10" stroke-linejoin="round"/>
<path d="M45.88 26.0901L50.81 31.0201" stroke="#2A5082" stroke-width="2" stroke-miterlimit="10"/>
<path d="M20 54H11" stroke="#2A5082" stroke-width="2" stroke-miterlimit="10" stroke-linecap="round" stroke-linejoin="round"/>
<path d="M20 38.8617C20 40.0631 19.547 41.0851 18.6411 41.9277C17.7351 42.7546 16.4069 43.2149 14.6564 43.3085V46H13.5048V43.3319C12.3839 43.2695 11.3244 43.0511 10.3263 42.6766C9.34357 42.2865 8.56814 41.795 8 41.2021L8.66795 39.8681C9.20537 40.3986 9.90403 40.8433 10.7639 41.2021C11.6392 41.561 12.5528 41.7716 13.5048 41.834V35.6787C12.4453 35.4135 11.5624 35.1326 10.856 34.8362C10.1497 34.5241 9.55854 34.0794 9.08253 33.5021C8.62188 32.9092 8.39155 32.1291 8.39155 31.1617C8.39155 29.9603 8.8215 28.9539 9.68138 28.1426C10.5413 27.3156 11.8157 26.8319 13.5048 26.6915V24H14.6564V26.6681C15.5317 26.6993 16.3762 26.8475 17.19 27.1128C18.0192 27.3624 18.7332 27.6979 19.3321 28.1191L18.7562 29.5C18.1267 29.0943 17.4587 28.7745 16.7524 28.5404C16.0461 28.3064 15.3474 28.1738 14.6564 28.1426V34.3447C15.7927 34.6255 16.7217 34.9142 17.4434 35.2106C18.1651 35.4915 18.7716 35.9284 19.263 36.5213C19.7543 37.1142 20 37.8943 20 38.8617ZM10.0729 31.1149C10.0729 31.9262 10.3647 32.5426 10.9482 32.9638C11.547 33.3851 12.3992 33.744 13.5048 34.0404V28.1894C12.3685 28.283 11.5086 28.6028 10.9251 29.1489C10.357 29.6794 10.0729 30.3348 10.0729 31.1149ZM14.6564 41.834C15.8695 41.7404 16.7831 41.4362 17.3973 40.9213C18.0115 40.4064 18.3186 39.7511 18.3186 38.9553C18.3186 38.1128 18.0038 37.4809 17.3743 37.0596C16.7447 36.6383 15.8388 36.2794 14.6564 35.983V41.834Z" fill="#2A5082"/>
</g>
<defs>
<clipPath id="clip0">
<rect width="62" height="62" fill="white"/>
</clipPath>
</defs>
</svg>
