<svg width="161" height="135" viewBox="0 0 161 135" fill="none" xmlns="http://www.w3.org/2000/svg">
<path d="M88.573 97.377C115.478 97.377 137.288 75.5785 137.288 48.6885C137.288 21.7986 115.478 0 88.573 0C61.6684 0 39.8579 21.7986 39.8579 48.6885C39.8579 75.5785 61.6684 97.377 88.573 97.377Z" fill="#E9EAEB"/>
<path d="M101.859 28.7705H35.4292C39.105 28.7705 42.0722 31.7361 42.0722 35.4099V123.934C42.0722 128.825 46.0358 132.787 50.9295 132.787H108.502V35.4099C108.502 31.7361 105.535 28.7705 101.859 28.7705Z" fill="white"/>
<path d="M75.2871 13.2787H8.85735C12.5331 13.2787 15.5003 16.2443 15.5003 19.918V104.016C15.5003 108.907 19.464 112.869 24.3576 112.869H81.9301V19.918C81.9301 16.2443 78.9629 13.2787 75.2871 13.2787Z" fill="white"/>
<path d="M22.1433 112.869H37.6436" stroke="#2A5082" stroke-width="2" stroke-miterlimit="10"/>
<path d="M35.4292 28.7705H101.859C105.535 28.7705 108.502 31.7361 108.502 35.4099V121.721" stroke="#2A5082" stroke-width="2" stroke-miterlimit="10"/>
<path d="M8.85735 13.2787H75.2871C78.9629 13.2787 81.9301 16.2443 81.9301 19.918V24.3443" stroke="#2A5082" stroke-width="2" stroke-miterlimit="10"/>
<path d="M50.9295 132.787C46.0358 132.787 42.0722 128.825 42.0722 123.934V35.4098C42.0722 31.7361 39.105 28.7705 35.4292 28.7705C31.7534 28.7705 28.7862 31.7361 28.7862 35.4098V106.23C28.7862 109.903 25.819 112.869 22.1433 112.869C18.4675 112.869 15.5003 109.903 15.5003 106.23V19.918C15.5003 16.2443 12.5331 13.2787 8.85731 13.2787C5.18154 13.2787 2.21434 16.2443 2.21434 19.918V26.5574H11.0716" stroke="#2A5082" stroke-width="2" stroke-miterlimit="10"/>
<path d="M59.7868 123.934V121.721H121.788V123.934C121.788 128.825 117.824 132.787 112.931 132.787H50.9295C55.8231 132.787 59.7868 128.825 59.7868 123.934Z" fill="#A3D4FF" stroke="#2A5082" stroke-width="2" stroke-miterlimit="10"/>
<path d="M139.731 23.9092L135.659 27.9813" stroke="#BCC0C4" stroke-width="2" stroke-miterlimit="10"/>
<path d="M149.912 13.7288L145.84 17.8009" stroke="#BCC0C4" stroke-width="2" stroke-miterlimit="10"/>
<path d="M145.84 23.9092L149.912 27.9813" stroke="#BCC0C4" stroke-width="2" stroke-miterlimit="10"/>
<path d="M135.659 13.7288L139.731 17.8009" stroke="#BCC0C4" stroke-width="2" stroke-miterlimit="10"/>
<path d="M119.371 32.0532V44.2695" stroke="#BCC0C4" stroke-width="2" stroke-miterlimit="10"/>
<path d="M113.263 38.1614H125.479" stroke="#BCC0C4" stroke-width="2" stroke-miterlimit="10"/>
<path d="M97.5689 66.3343L68.3761 95.5272L61 97L62.4728 89.6239L91.6657 60.4311C92.2405 59.8563 93.1744 59.8563 93.7492 60.4311L97.5689 64.2508C98.1437 64.8256 98.1437 65.7595 97.5689 66.3343Z" fill="#A3D4FF" stroke="#2A5082" stroke-width="2" stroke-miterlimit="10" stroke-linejoin="round"/>
</svg>
