<svg width="161" height="135" viewBox="0 0 161 135" fill="none" xmlns="http://www.w3.org/2000/svg">
<path d="M88.573 97.377C115.478 97.377 137.288 75.5785 137.288 48.6885C137.288 21.7986 115.478 0 88.573 0C61.6684 0 39.8578 21.7986 39.8578 48.6885C39.8578 75.5785 61.6684 97.377 88.573 97.377Z" fill="#E9EAEB"/>
<path d="M101.859 28.7705H35.4292C39.105 28.7705 42.0722 31.7361 42.0722 35.4099V123.934C42.0722 128.825 46.0358 132.787 50.9295 132.787H108.502V35.4099C108.502 31.7361 105.535 28.7705 101.859 28.7705Z" fill="white"/>
<path d="M75.2871 13.2787H8.85733C12.5331 13.2787 15.5003 16.2443 15.5003 19.918V104.016C15.5003 108.907 19.4639 112.869 24.3576 112.869H81.9301V19.918C81.9301 16.2443 78.9629 13.2787 75.2871 13.2787Z" fill="white"/>
<path d="M22.1432 112.869H37.6435" stroke="#2A5082" stroke-width="2" stroke-miterlimit="10"/>
<path d="M35.4292 28.7705H101.859C105.535 28.7705 108.502 31.7361 108.502 35.4099V121.721" stroke="#2A5082" stroke-width="2" stroke-miterlimit="10"/>
<path d="M8.85733 13.2787H75.2871C78.9629 13.2787 81.9301 16.2443 81.9301 19.918V24.3443" stroke="#2A5082" stroke-width="2" stroke-miterlimit="10"/>
<path d="M50.9295 132.787C46.0358 132.787 42.0722 128.825 42.0722 123.934V35.4098C42.0722 31.7361 39.105 28.7705 35.4292 28.7705C31.7534 28.7705 28.7862 31.7361 28.7862 35.4098V106.23C28.7862 109.903 25.819 112.869 22.1432 112.869C18.4675 112.869 15.5003 109.903 15.5003 106.23V19.918C15.5003 16.2443 12.5331 13.2787 8.8573 13.2787C5.18152 13.2787 2.21432 16.2443 2.21432 19.918V26.5574H11.0716" stroke="#2A5082" stroke-width="2" stroke-miterlimit="10"/>
<path d="M59.7868 123.934V121.721H121.788V123.934C121.788 128.825 117.824 132.787 112.931 132.787H50.9295C55.8231 132.787 59.7868 128.825 59.7868 123.934Z" fill="#A3D4FF" stroke="#2A5082" stroke-width="2" stroke-miterlimit="10"/>
<path d="M139.731 23.9092L135.659 27.9813" stroke="#BCC0C4" stroke-width="2" stroke-miterlimit="10"/>
<path d="M149.912 13.7288L145.84 17.8009" stroke="#BCC0C4" stroke-width="2" stroke-miterlimit="10"/>
<path d="M145.84 23.9092L149.912 27.9813" stroke="#BCC0C4" stroke-width="2" stroke-miterlimit="10"/>
<path d="M135.659 13.7288L139.731 17.8009" stroke="#BCC0C4" stroke-width="2" stroke-miterlimit="10"/>
<path d="M119.371 32.0532V44.2695" stroke="#BCC0C4" stroke-width="2" stroke-miterlimit="10"/>
<path d="M113.263 38.1614H125.479" stroke="#BCC0C4" stroke-width="2" stroke-miterlimit="10"/>
<path d="M91 86.75C91 89.3167 90.0563 91.5 88.1689 93.3C86.2815 95.0667 83.5144 96.05 79.8676 96.25V102H77.4683V96.3C75.1331 96.1667 72.9258 95.7 70.8464 94.9C68.7991 94.0667 67.1836 93.0167 66 91.75L67.3916 88.9C68.5112 90.0333 69.9667 90.9833 71.7582 91.75C73.5816 92.5167 75.485 92.9667 77.4683 93.1V79.95C75.261 79.3833 73.4216 78.7833 71.9501 78.15C70.4786 77.4833 69.247 76.5333 68.2553 75.3C67.2956 74.0333 66.8157 72.3667 66.8157 70.3C66.8157 67.7333 67.7115 65.5833 69.5029 63.85C71.2943 62.0833 73.9495 61.05 77.4683 60.75V55H79.8676V60.7C81.691 60.7667 83.4504 61.0833 85.1459 61.65C86.8733 62.1833 88.3608 62.9 89.6084 63.8L88.4088 66.75C87.0972 65.8833 85.7057 65.2 84.2342 64.7C82.7626 64.2 81.3071 63.9167 79.8676 63.85V77.1C82.2348 77.7 84.1702 78.3167 85.6737 78.95C87.1772 79.55 88.4408 80.4833 89.4645 81.75C90.4882 83.0167 91 84.6833 91 86.75ZM70.3186 70.2C70.3186 71.9333 70.9264 73.25 72.142 74.15C73.3896 75.05 75.1651 75.8167 77.4683 76.45V63.95C75.1011 64.15 73.3097 64.8333 72.094 66C70.9104 67.1333 70.3186 68.5333 70.3186 70.2ZM79.8676 93.1C82.3948 92.9 84.2981 92.25 85.5777 91.15C86.8573 90.05 87.4971 88.65 87.4971 86.95C87.4971 85.15 86.8413 83.8 85.5298 82.9C84.2182 82 82.3308 81.2333 79.8676 80.6V93.1Z" fill="#2A5082"/>
</svg>
