<svg width="62" height="62" viewBox="0 0 62 62" fill="none" xmlns="http://www.w3.org/2000/svg">
<path d="M54.3224 48.6521C65.1766 36.8753 64.4288 18.5293 52.652 7.67509C40.8753 -3.17913 22.5292 -2.43127 11.675 9.34549C0.82081 21.1222 1.56867 39.4683 13.3454 50.3225C25.1222 61.1767 43.4682 60.4288 54.3224 48.6521Z" fill="#E9EAEB"/>
<path d="M45 12L43 14" stroke="#BCC0C4" stroke-width="2" stroke-miterlimit="10"/>
<path d="M50 7L48 9" stroke="#BCC0C4" stroke-width="2" stroke-miterlimit="10"/>
<path d="M48 12L50 14" stroke="#BCC0C4" stroke-width="2" stroke-miterlimit="10"/>
<path d="M43 7L45 9" stroke="#BCC0C4" stroke-width="2" stroke-miterlimit="10"/>
<path d="M56 32V34" stroke="#BCC0C4" stroke-width="2" stroke-miterlimit="10"/>
<path d="M56 36V38" stroke="#BCC0C4" stroke-width="2" stroke-miterlimit="10"/>
<path d="M55 35H53" stroke="#BCC0C4" stroke-width="2" stroke-miterlimit="10"/>
<path d="M59 35H57" stroke="#BCC0C4" stroke-width="2" stroke-miterlimit="10"/>
<path d="M50 41V43" stroke="#BCC0C4" stroke-width="2" stroke-miterlimit="10"/>
<path d="M50 45V47" stroke="#BCC0C4" stroke-width="2" stroke-miterlimit="10"/>
<path d="M49 44H47" stroke="#BCC0C4" stroke-width="2" stroke-miterlimit="10"/>
<path d="M53 44H51" stroke="#BCC0C4" stroke-width="2" stroke-miterlimit="10"/>
<path d="M9 9L1 17V61H38V9H9Z" fill="white"/>
<path d="M1 18H10V9H9L1 17V18Z" fill="#A3D4FF"/>
<path d="M38 28V9H9L1 17V61H38V49" stroke="#2A5082" stroke-width="2" stroke-miterlimit="10" stroke-linecap="round" stroke-linejoin="round"/>
<path d="M5 18H10V13" stroke="#2A5082" stroke-width="2" stroke-miterlimit="10" stroke-linecap="round" stroke-linejoin="round"/>
<path d="M53.64 28.2L29.26 52.58L23.1 53.81L24.33 47.65L48.71 23.27C49.19 22.79 49.97 22.79 50.45 23.27L53.64 26.46C54.12 26.94 54.12 27.72 53.64 28.2Z" fill="#A3D4FF" stroke="#2A5082" stroke-width="2" stroke-miterlimit="10" stroke-linejoin="round"/>
<path d="M45.88 26.0901L50.81 31.0201" stroke="#2A5082" stroke-width="2" stroke-miterlimit="10"/>
<path d="M20 54H11" stroke="#2A5082" stroke-width="2" stroke-miterlimit="10" stroke-linecap="round" stroke-linejoin="round"/>
</svg>
