<svg width="94" height="89" viewBox="0 0 94 89" fill="none" xmlns="http://www.w3.org/2000/svg">
<path d="M73.4799 60.6304C84.3341 48.8536 83.5863 30.5076 71.8095 19.6534C60.0327 8.79914 41.6867 9.54701 30.8325 21.3238C19.9783 33.1005 20.7261 51.4465 32.5029 62.3008C44.2797 73.155 62.6257 72.4071 73.4799 60.6304Z" fill="#E9EAEB"/>
<path d="M64.1577 23.9785L62.1577 25.9785" stroke="#BCC0C4" stroke-width="2" stroke-miterlimit="10"/>
<path d="M69.1577 18.9785L67.1577 20.9785" stroke="#BCC0C4" stroke-width="2" stroke-miterlimit="10"/>
<path d="M67.1577 23.9785L69.1577 25.9785" stroke="#BCC0C4" stroke-width="2" stroke-miterlimit="10"/>
<path d="M62.1577 18.9785L64.1577 20.9785" stroke="#BCC0C4" stroke-width="2" stroke-miterlimit="10"/>
<path d="M75.1577 43.9785V45.9785" stroke="#BCC0C4" stroke-width="2" stroke-miterlimit="10"/>
<path d="M75.1577 47.9785V49.9785" stroke="#BCC0C4" stroke-width="2" stroke-miterlimit="10"/>
<path d="M74.1577 46.9785H72.1577" stroke="#BCC0C4" stroke-width="2" stroke-miterlimit="10"/>
<path d="M78.1577 46.9785H76.1577" stroke="#BCC0C4" stroke-width="2" stroke-miterlimit="10"/>
<path d="M69.1577 52.9785V54.9785" stroke="#BCC0C4" stroke-width="2" stroke-miterlimit="10"/>
<path d="M69.1577 56.9785V58.9785" stroke="#BCC0C4" stroke-width="2" stroke-miterlimit="10"/>
<path d="M68.1577 55.9785H66.1577" stroke="#BCC0C4" stroke-width="2" stroke-miterlimit="10"/>
<path d="M72.1577 55.9785H70.1577" stroke="#BCC0C4" stroke-width="2" stroke-miterlimit="10"/>
<path d="M10.8948 30.8742C13.3159 26.0321 23.6053 22.804 28.4475 21.7952C29.6579 21.3917 33.6525 20.8268 39.9472 21.7952C47.8156 23.0057 54.4735 32.6899 58.1051 35.7163C61.0104 38.1373 62.1402 46.8128 62.342 50.8478L60.5262 50.2426L54.4735 48.4268L49.0262 50.2426H44.7893L39.9472 49.0321L34.4999 50.2426H30.263L22.3946 49.0321L16.9472 50.2426H14.5262L8.47354 48.4268C6.45607 48.8303 2.30009 49.1531 1.81588 47.2163C1.21062 44.7952 7.86851 36.9268 10.8948 30.8742Z" fill="#A3D4FF"/>
<path d="M32.079 19.9785C49.3637 19.9785 64.049 34.8604 64.1579 52.1545C64.1595 52.4762 64.0602 52.7904 63.8741 53.0524C63.6879 53.3144 63.4244 53.511 63.1208 53.6143C62.8172 53.7177 62.489 53.7225 62.1825 53.6282C61.876 53.5339 61.6068 53.3452 61.413 53.0888C60.4408 51.7852 57.6393 49.8784 54.9925 49.8784C52.2652 49.8784 49.5189 51.7612 48.5958 53.0648C48.4525 53.2613 48.2646 53.4207 48.0477 53.5299C47.8308 53.639 47.5912 53.6947 47.3486 53.6924C47.106 53.6901 46.8674 53.6298 46.6526 53.5165C46.4379 53.4033 46.253 53.2403 46.1135 53.0411C45.1978 51.7359 42.4583 49.8786 39.7168 49.8786C37.323 49.8786 34.7723 51.4914 33.6065 52.7536V80.5452C33.6065 83.9209 35.5856 85.9119 38.953 85.9119C42.3206 85.9119 44.2995 83.921 44.2995 80.5452C44.2966 80.342 44.334 80.1402 44.4095 79.9517C44.485 79.7631 44.5971 79.5916 44.7392 79.4469C44.8813 79.3022 45.0507 79.1873 45.2374 79.1088C45.4242 79.0304 45.6246 78.99 45.8271 78.99C46.0295 78.99 46.2299 79.0304 46.4167 79.1088C46.6034 79.1873 46.7728 79.3022 46.9149 79.4469C47.0571 79.5916 47.1691 79.7631 47.2446 79.9517C47.3201 80.1402 47.3575 80.342 47.3546 80.5452C47.3546 85.331 43.726 88.9786 38.953 88.9785C34.1801 88.9785 30.5514 85.331 30.5514 80.5452V52.7536C29.3856 51.4914 26.8349 49.8786 24.4411 49.8786C21.6997 49.8786 18.9601 51.7359 18.0444 53.0411C17.9049 53.2403 17.72 53.4033 17.5053 53.5165C17.2905 53.6298 17.0519 53.6901 16.8093 53.6924C16.5667 53.6947 16.3271 53.639 16.1102 53.5299C15.8933 53.4207 15.7054 53.2613 15.5621 53.0648C14.639 51.7612 11.8927 49.8784 9.16543 49.8784C6.51861 49.8784 3.71712 51.7852 2.74487 53.0888C2.55112 53.3452 2.28194 53.5339 1.97544 53.6282C1.66894 53.7225 1.34065 53.7177 1.03706 53.6143C0.733468 53.511 0.469956 53.3144 0.283838 53.0524C0.0977201 52.7904 -0.00157267 52.4762 1.8837e-05 52.1545C0.109004 34.8604 14.7943 19.9785 32.0789 19.9785H32.079ZM38.0699 23.74C43.7445 29.493 47.4244 38.5048 48.6913 48.8243C50.3817 47.6518 52.5509 46.8118 54.9925 46.8118C57.1546 46.8118 59.0908 47.5108 60.697 48.4889C58.9891 36.547 49.6777 26.4048 38.0699 23.74ZM26.088 23.74C14.4802 26.4048 5.16887 36.547 3.46092 48.4889C5.06715 47.5108 7.00327 46.8118 9.16543 46.8118C11.607 46.8118 13.7762 47.6518 15.4666 48.8243C16.7335 38.5048 20.4134 29.493 26.088 23.74H26.088ZM33.6065 23.9077V48.7284C35.2686 47.6095 37.3732 46.8118 39.7168 46.8118C41.9517 46.8118 43.9466 47.5215 45.5645 48.5368C44.0829 37.6335 39.6656 28.5848 33.6065 23.9077ZM30.5514 23.9077C24.4924 28.5848 20.075 37.6335 18.5934 48.5368C20.2113 47.5215 22.2062 46.8118 24.4411 46.8118C26.7847 46.8118 28.8893 47.6095 30.5514 48.7284V23.9077H30.5514Z" fill="#2A5082"/>
<g clip-path="url(#clip0)">
<path d="M53.8827 55.6237L49.6827 59.7527V82.4624H69.1077V55.6237H53.8827Z" fill="white"/>
<path d="M49.6827 60.2688H54.4077V55.6237H53.8827L49.6827 59.7527V60.2688Z" fill="#A3D4FF"/>
<path d="M69.1077 76.2688V55.6237H53.8827L49.6827 59.7527V82.4624H69.1077V76.2688Z" stroke="#2A5082" stroke-width="2" stroke-miterlimit="10" stroke-linecap="round" stroke-linejoin="round"/>
<path d="M51.7827 60.2688H54.4077V57.6881" stroke="#2A5082" stroke-width="2" stroke-miterlimit="10" stroke-linecap="round" stroke-linejoin="round"/>
<path d="M62.8078 78.8495H58.0828" stroke="#2A5082" stroke-width="2" stroke-miterlimit="10" stroke-linecap="round" stroke-linejoin="round"/>
<path d="M62.8077 71.0363C62.8077 71.6564 62.5699 72.1838 62.0943 72.6187C61.6186 73.0455 60.9213 73.2831 60.0023 73.3314V74.7206H59.3977V73.3435C58.8092 73.3113 58.253 73.1985 57.729 73.0053C57.2131 72.8039 56.806 72.5503 56.5077 72.2442L56.8584 71.5557C57.1405 71.8295 57.5073 72.059 57.9587 72.2442C58.4182 72.4295 58.8979 72.5382 59.3977 72.5704V69.3935C58.8415 69.2565 58.3779 69.1116 58.0071 68.9586C57.6363 68.7975 57.3259 68.568 57.076 68.27C56.8342 67.964 56.7133 67.5614 56.7133 67.0621C56.7133 66.442 56.939 65.9226 57.3904 65.5038C57.8419 65.077 58.511 64.8274 59.3977 64.7549V63.3657H60.0023V64.7428C60.4618 64.7589 60.9052 64.8354 61.3325 64.9723C61.7678 65.1012 62.1426 65.2743 62.457 65.4917L62.1547 66.2044C61.8242 65.9951 61.4735 65.83 61.1027 65.7092C60.7319 65.5884 60.3651 65.5199 60.0023 65.5038V68.7049C60.5989 68.8499 61.0866 68.9988 61.4655 69.1519C61.8444 69.2968 62.1628 69.5223 62.4207 69.8283C62.6787 70.1343 62.8077 70.537 62.8077 71.0363ZM57.596 67.0379C57.596 67.4567 57.7491 67.7748 58.0555 67.9922C58.3699 68.2096 58.8173 68.3949 59.3977 68.5479V65.528C58.8012 65.5763 58.3497 65.7414 58.0434 66.0232C57.7451 66.297 57.596 66.6353 57.596 67.0379ZM60.0023 72.5704C60.6392 72.5221 61.1188 72.365 61.4413 72.0993C61.7637 71.8335 61.925 71.4953 61.925 71.0846C61.925 70.6497 61.7597 70.3236 61.4292 70.1061C61.0987 69.8887 60.623 69.7035 60.0023 69.5505V72.5704Z" fill="#2A5082"/>
</g>
<defs>
<clipPath id="clip0">
<rect width="21" height="32" fill="white" transform="translate(49.1577 50.9785)"/>
</clipPath>
</defs>
</svg>
