<svg width="49" height="20" viewBox="0 0 49 20" fill="none" xmlns="http://www.w3.org/2000/svg">
<path d="M6.28001 4.41997C6.28001 4.95997 6.19001 5.44997 6.03001 5.87997C5.86001 6.31997 5.62001 6.69996 5.31001 7.00996C5.00001 7.31996 4.63002 7.55998 4.19002 7.73997C3.76002 7.90998 3.27002 7.99997 2.75002 7.99997H0.0800171V0.839966H2.75002C3.28002 0.839966 3.76002 0.929976 4.19002 1.09998C4.63002 1.26998 5.00001 1.51997 5.31001 1.82997C5.62001 2.14997 5.86001 2.51998 6.03001 2.95998C6.19001 3.38998 6.28001 3.87997 6.28001 4.41997ZM5.28001 4.41997C5.28001 3.97997 5.22002 3.58997 5.10002 3.23997C4.98002 2.88998 4.81001 2.59997 4.59001 2.35997C4.37001 2.11997 4.10001 1.93997 3.79001 1.80997C3.48001 1.67997 3.13002 1.61996 2.74002 1.61996H1.03001V7.20998H2.74002C3.13002 7.20998 3.48001 7.14997 3.79001 7.01997C4.10001 6.88997 4.37001 6.70997 4.59001 6.46997C4.81001 6.22997 4.98002 5.93997 5.10002 5.58997C5.22002 5.24997 5.28001 4.85997 5.28001 4.41997Z" fill="#5A5E60"/>
<path d="M12.09 7.20998L12.08 7.99997H7.67001V0.839966H12.08V1.62997H8.63002V3.99997H11.42V4.75996H8.63002V7.19997H12.09V7.20998Z" fill="#5A5E60"/>
<path d="M18.32 6.52002C18.37 6.52002 18.42 6.54001 18.46 6.59001L18.85 7.00002C18.56 7.34002 18.2 7.61001 17.78 7.79001C17.36 7.98001 16.86 8.08002 16.26 8.08002C15.75 8.08002 15.28 7.99001 14.86 7.81001C14.44 7.63001 14.08 7.38001 13.79 7.06001C13.49 6.74001 13.26 6.35001 13.1 5.90001C12.94 5.45001 12.85 4.96001 12.85 4.42001C12.85 3.88001 12.93 3.38002 13.1 2.94002C13.27 2.49002 13.51 2.10001 13.82 1.78001C14.13 1.46001 14.5 1.21001 14.93 1.03001C15.36 0.850014 15.83 0.76001 16.35 0.76001C16.86 0.76001 17.31 0.84001 17.7 1.01001C18.09 1.17001 18.43 1.39001 18.73 1.67001L18.41 2.11002C18.39 2.14002 18.37 2.17002 18.33 2.19002C18.3 2.21002 18.26 2.22002 18.2 2.22002C18.14 2.22002 18.07 2.19001 17.98 2.12001C17.89 2.06001 17.78 1.98001 17.64 1.90001C17.5 1.82001 17.32 1.75001 17.12 1.68001C16.91 1.61001 16.65 1.58002 16.34 1.58002C15.97 1.58002 15.63 1.64002 15.32 1.77002C15.01 1.90002 14.75 2.08002 14.53 2.33002C14.31 2.57002 14.14 2.87002 14.01 3.22002C13.89 3.57002 13.83 3.97002 13.83 4.41002C13.83 4.86002 13.89 5.26002 14.02 5.61002C14.15 5.96002 14.32 6.26002 14.54 6.50002C14.76 6.74002 15.02 6.93002 15.33 7.05002C15.63 7.18002 15.96 7.24002 16.31 7.24002C16.52 7.24002 16.72 7.23001 16.89 7.20001C17.06 7.18001 17.22 7.14002 17.37 7.08002C17.52 7.03002 17.65 6.96002 17.78 6.88002C17.9 6.80002 18.03 6.70001 18.15 6.59001C18.21 6.54001 18.26 6.52002 18.32 6.52002Z" fill="#5A5E60"/>
<path d="M25.27 7.99997H24.41C24.23 7.99997 24.1 7.92996 24.02 7.78996L22.16 5.22997C22.1 5.14997 22.04 5.08997 21.98 5.05997C21.91 5.01997 21.81 5.00996 21.68 5.00996H20.94V7.99997H19.98V0.839966H22C22.45 0.839966 22.85 0.889965 23.18 0.979965C23.51 1.06997 23.78 1.19997 24 1.37997C24.21 1.54997 24.37 1.75996 24.48 2.00996C24.58 2.24996 24.63 2.52997 24.63 2.82997C24.63 3.07997 24.59 3.31996 24.51 3.53996C24.43 3.75996 24.31 3.95997 24.16 4.12997C24.01 4.29997 23.82 4.44997 23.61 4.57997C23.39 4.69997 23.14 4.79997 22.87 4.85997C22.99 4.92997 23.1 5.02997 23.19 5.15997L25.27 7.99997ZM21.96 4.29997C22.24 4.29997 22.49 4.26997 22.7 4.19997C22.91 4.12997 23.09 4.02997 23.24 3.90997C23.39 3.78997 23.49 3.63998 23.57 3.45998C23.64 3.28998 23.68 3.08997 23.68 2.88997C23.68 2.45997 23.54 2.13997 23.26 1.91997C22.98 1.69997 22.56 1.58997 22 1.58997H20.94V4.29997H21.96Z" fill="#5A5E60"/>
<path d="M30.66 7.20998V7.99997H26.24V0.839966H30.66V1.62997H27.21V3.99997H30V4.75996H27.21V7.19997H30.66V7.20998Z" fill="#5A5E60"/>
<path d="M37.84 7.99997H37.09C37 7.99997 36.93 7.97997 36.88 7.93997C36.83 7.89997 36.79 7.83997 36.76 7.76997L36.09 6.03996H32.88L32.21 7.76997C32.19 7.82997 32.15 7.87996 32.09 7.92996C32.03 7.97996 31.96 7.99997 31.88 7.99997H31.13L34 0.839966H34.98L37.84 7.99997ZM35.82 5.33997L34.7 2.42996C34.67 2.33996 34.63 2.23997 34.59 2.12997C34.55 2.00997 34.52 1.88996 34.48 1.75996C34.41 2.02996 34.34 2.25996 34.27 2.42996L33.15 5.33997H35.82Z" fill="#5A5E60"/>
<path d="M42.45 1.95999C42.42 2.00999 42.39 2.04999 42.35 2.06999C42.31 2.08999 42.27 2.10999 42.22 2.10999C42.16 2.10999 42.1 2.07999 42.02 2.01999C41.94 1.95999 41.85 1.89999 41.73 1.82999C41.61 1.75999 41.48 1.69998 41.31 1.63998C41.15 1.57998 40.95 1.55998 40.72 1.55998C40.5 1.55998 40.31 1.58998 40.15 1.64998C39.99 1.70998 39.85 1.78998 39.74 1.88998C39.63 1.98998 39.54 2.10999 39.49 2.23999C39.43 2.37999 39.41 2.51998 39.41 2.67998C39.41 2.87998 39.46 3.04998 39.56 3.17998C39.66 3.30998 39.79 3.41999 39.95 3.51999C40.11 3.60999 40.3 3.68998 40.5 3.75998C40.71 3.82998 40.91 3.89999 41.13 3.96999C41.35 4.03999 41.56 4.12999 41.76 4.21999C41.97 4.30999 42.15 4.42999 42.31 4.56999C42.47 4.70999 42.6 4.87999 42.7 5.07999C42.8 5.27999 42.85 5.52999 42.85 5.82999C42.85 6.13999 42.8 6.43999 42.69 6.70999C42.58 6.98999 42.43 7.21998 42.22 7.42998C42.01 7.62998 41.76 7.78999 41.47 7.90999C41.17 8.02999 40.83 8.08998 40.45 8.08998C39.98 8.08998 39.56 8.00998 39.18 7.83998C38.8 7.66998 38.47 7.43999 38.2 7.15999L38.48 6.69998C38.51 6.65998 38.54 6.62999 38.58 6.60999C38.62 6.58999 38.66 6.56999 38.71 6.56999C38.75 6.56999 38.8 6.58998 38.86 6.61998C38.92 6.65998 38.98 6.69998 39.05 6.74998C39.12 6.79998 39.2 6.85998 39.29 6.91998C39.38 6.97998 39.48 7.03998 39.6 7.08998C39.72 7.13998 39.85 7.18999 39.99 7.21999C40.14 7.25999 40.3 7.26999 40.48 7.26999C40.71 7.26999 40.92 7.23998 41.1 7.16998C41.28 7.10998 41.43 7.01998 41.56 6.89998C41.68 6.77998 41.78 6.64999 41.85 6.48999C41.92 6.32999 41.95 6.14998 41.95 5.94998C41.95 5.72998 41.9 5.55998 41.8 5.41998C41.7 5.27998 41.57 5.16999 41.41 5.06999C41.25 4.97999 41.07 4.89999 40.86 4.82999C40.65 4.76999 40.44 4.69999 40.23 4.62999C40.02 4.55999 39.81 4.47998 39.6 4.38998C39.39 4.29998 39.21 4.17998 39.05 4.03998C38.89 3.89998 38.76 3.71998 38.66 3.49998C38.56 3.28998 38.51 3.01998 38.51 2.69998C38.51 2.44998 38.56 2.19999 38.66 1.96999C38.76 1.72999 38.9 1.51998 39.09 1.33998C39.28 1.15998 39.51 1.00998 39.79 0.899979C40.07 0.789979 40.38 0.72998 40.74 0.72998C41.14 0.72998 41.5 0.789983 41.83 0.919983C42.16 1.04998 42.45 1.22999 42.7 1.46999L42.45 1.95999Z" fill="#5A5E60"/>
<path d="M48.63 7.20998V7.99997H44.21V0.839966H48.63V1.62997H45.18V3.99997H47.97V4.75996H45.18V7.19997H48.63V7.20998Z" fill="#5A5E60"/>
<path d="M19.59 20H18.73C18.55 20 18.42 19.93 18.34 19.79L16.48 17.23C16.42 17.15 16.36 17.09 16.3 17.06C16.24 17.02 16.13 17.01 16 17.01H15.26V20H14.3V12.84H16.33C16.78 12.84 17.17 12.89 17.5 12.98C17.83 13.07 18.1 13.2 18.32 13.38C18.53 13.55 18.69 13.76 18.8 14.01C18.9 14.25 18.96 14.53 18.96 14.83C18.96 15.08 18.92 15.32 18.84 15.54C18.76 15.76 18.64 15.96 18.49 16.13C18.34 16.3 18.15 16.45 17.93 16.58C17.71 16.7 17.47 16.8 17.19 16.86C17.31 16.93 17.42 17.03 17.51 17.16L19.59 20ZM16.28 16.3C16.56 16.3 16.81 16.27 17.02 16.2C17.23 16.13 17.42 16.03 17.56 15.91C17.7 15.79 17.81 15.64 17.89 15.46C17.96 15.29 18 15.09 18 14.89C18 14.46 17.86 14.14 17.58 13.92C17.3 13.7 16.88 13.59 16.32 13.59H15.26V16.3H16.28Z" fill="#5A5E60"/>
<path d="M26.39 20H25.64C25.55 20 25.48 19.98 25.43 19.94C25.38 19.9 25.34 19.84 25.31 19.77L24.64 18.04H21.43L20.76 19.77C20.74 19.83 20.7 19.88 20.64 19.93C20.58 19.98 20.51 20 20.43 20H19.68L22.55 12.84H23.53L26.39 20ZM24.37 17.34L23.25 14.43C23.22 14.34 23.18 14.24 23.14 14.13C23.1 14.01 23.07 13.89 23.03 13.76C22.96 14.03 22.89 14.26 22.82 14.43L21.7 17.34H24.37Z" fill="#5A5E60"/>
<path d="M31.47 13.6499H29.15V20H28.19V13.6499H25.86V12.83H31.47V13.6499Z" fill="#5A5E60"/>
<path d="M36.95 19.21V20H32.53V12.84H36.95V13.63H33.5V16H36.29V16.76H33.5V19.2H36.95V19.21Z" fill="#5A5E60"/>
</svg>
