<svg width="55" height="20" viewBox="0 0 55 20" fill="none" xmlns="http://www.w3.org/2000/svg">
<path d="M5.72 6.52002C5.77 6.52002 5.81999 6.54001 5.85999 6.59001L6.23999 7.00002C5.94999 7.34002 5.59001 7.61001 5.17001 7.79001C4.75001 7.98001 4.24999 8.08002 3.64999 8.08002C3.13999 8.08002 2.67 7.99001 2.25 7.81001C1.83 7.63001 1.46999 7.38001 1.17999 7.06001C0.879993 6.74001 0.64999 6.35001 0.48999 5.90001C0.32999 5.45001 0.23999 4.96001 0.23999 4.42001C0.23999 3.88001 0.31999 3.38002 0.48999 2.94002C0.65999 2.49002 0.899991 2.10001 1.20999 1.78001C1.51999 1.46001 1.89001 1.21001 2.32001 1.03001C2.75001 0.850014 3.22999 0.76001 3.73999 0.76001C4.24999 0.76001 4.7 0.84001 5.09 1.01001C5.48 1.17001 5.81999 1.39001 6.12 1.67001L5.79999 2.11002C5.77999 2.14002 5.75 2.17002 5.72 2.19002C5.69 2.21002 5.65 2.22002 5.59 2.22002C5.53 2.22002 5.46 2.19001 5.37 2.12001C5.27999 2.06001 5.17 1.98001 5.03 1.90001C4.89 1.82001 4.72001 1.75001 4.51001 1.68001C4.30001 1.61001 4.04001 1.58002 3.73001 1.58002C3.36001 1.58002 3.02 1.64002 2.72 1.77002C2.41 1.90002 2.14999 2.08002 1.92999 2.33002C1.70999 2.57002 1.54 2.87002 1.41 3.22002C1.29 3.57002 1.23001 3.97002 1.23001 4.41002C1.23001 4.86002 1.29001 5.26002 1.42001 5.61002C1.55001 5.96002 1.72001 6.26002 1.95001 6.50002C2.17001 6.74002 2.43001 6.93002 2.73001 7.05002C3.03001 7.18002 3.35999 7.24002 3.70999 7.24002C3.91999 7.24002 4.12001 7.23001 4.29001 7.20001C4.46001 7.18001 4.62001 7.14002 4.76001 7.08002C4.91001 7.03002 5.04001 6.96002 5.17001 6.88002C5.29001 6.80002 5.42001 6.70001 5.54001 6.59001C5.61001 6.54001 5.67 6.52002 5.72 6.52002Z" fill="#5A5E60"/>
<path d="M13.2 7.99997H12.45C12.36 7.99997 12.29 7.97997 12.24 7.93997C12.19 7.89997 12.15 7.83997 12.12 7.76997L11.45 6.03996H8.23999L7.57001 7.76997C7.55001 7.82997 7.51001 7.87996 7.45001 7.92996C7.39001 7.97996 7.31999 7.99997 7.23999 7.99997H6.48999L9.35999 0.839966H10.34L13.2 7.99997ZM11.18 5.33997L10.06 2.42996C10.03 2.33996 9.99001 2.23997 9.95001 2.12997C9.91001 2.00997 9.88 1.88996 9.84 1.75996C9.77 2.02996 9.7 2.25996 9.63 2.42996L8.51001 5.33997H11.18Z" fill="#5A5E60"/>
<path d="M18.21 7.18997V7.99997H14.14V0.839966H15.1V7.18997H18.21Z" fill="#5A5E60"/>
<path d="M23.97 6.52002C24.02 6.52002 24.07 6.54001 24.11 6.59001L24.49 7.00002C24.2 7.34002 23.84 7.61001 23.42 7.79001C23 7.98001 22.5 8.08002 21.9 8.08002C21.39 8.08002 20.92 7.99001 20.5 7.81001C20.08 7.63001 19.72 7.38001 19.43 7.06001C19.13 6.74001 18.9 6.35001 18.74 5.90001C18.58 5.45001 18.49 4.96001 18.49 4.42001C18.49 3.88001 18.57 3.38002 18.74 2.94002C18.91 2.49002 19.15 2.10001 19.46 1.78001C19.77 1.46001 20.14 1.21001 20.57 1.03001C21 0.850014 21.48 0.76001 21.99 0.76001C22.5 0.76001 22.95 0.84001 23.34 1.01001C23.73 1.17001 24.07 1.39001 24.37 1.67001L24.05 2.11002C24.03 2.14002 24 2.17002 23.97 2.19002C23.94 2.21002 23.9 2.22002 23.84 2.22002C23.78 2.22002 23.71 2.19001 23.62 2.12001C23.53 2.06001 23.42 1.98001 23.28 1.90001C23.14 1.82001 22.97 1.75001 22.76 1.68001C22.55 1.61001 22.29 1.58002 21.98 1.58002C21.61 1.58002 21.27 1.64002 20.97 1.77002C20.66 1.90002 20.4 2.08002 20.18 2.33002C19.96 2.57002 19.79 2.87002 19.66 3.22002C19.54 3.57002 19.48 3.97002 19.48 4.41002C19.48 4.86002 19.54 5.26002 19.67 5.61002C19.8 5.96002 19.97 6.26002 20.2 6.50002C20.42 6.74002 20.68 6.93002 20.98 7.05002C21.28 7.18002 21.61 7.24002 21.96 7.24002C22.17 7.24002 22.37 7.23001 22.54 7.20001C22.71 7.18001 22.87 7.14002 23.01 7.08002C23.16 7.03002 23.29 6.96002 23.42 6.88002C23.54 6.80002 23.67 6.70001 23.79 6.59001C23.86 6.54001 23.92 6.52002 23.97 6.52002Z" fill="#5A5E60"/>
<path d="M28.39 7.22997C28.69 7.22997 28.95 7.17997 29.19 7.07997C29.42 6.97997 29.62 6.83997 29.78 6.65997C29.94 6.47997 30.07 6.26997 30.15 6.01997C30.23 5.76997 30.28 5.48997 30.28 5.18997V0.839966H31.24V5.18997C31.24 5.59997 31.17 5.98997 31.04 6.33997C30.91 6.68997 30.72 6.99996 30.48 7.25996C30.23 7.51996 29.94 7.71996 29.58 7.86996C29.23 8.01996 28.83 8.08997 28.39 8.08997C27.95 8.08997 27.55 8.01996 27.2 7.86996C26.85 7.71996 26.55 7.51996 26.3 7.25996C26.05 6.99996 25.86 6.69997 25.73 6.33997C25.6 5.98997 25.53 5.59997 25.53 5.18997V0.839966H26.49V5.18997C26.49 5.48997 26.53 5.75996 26.62 6.00996C26.7 6.25996 26.83 6.46996 26.99 6.64996C27.15 6.82996 27.35 6.96998 27.58 7.06998C27.83 7.17998 28.09 7.22997 28.39 7.22997Z" fill="#5A5E60"/>
<path d="M37.04 7.18997V7.99997H32.97V0.839966H33.93V7.18997H37.04Z" fill="#5A5E60"/>
<path d="M43.94 7.99997H43.19C43.1 7.99997 43.03 7.97997 42.98 7.93997C42.93 7.89997 42.89 7.83997 42.86 7.76997L42.19 6.03996H38.98L38.31 7.76997C38.29 7.82997 38.25 7.87996 38.19 7.92996C38.13 7.97996 38.06 7.99997 37.98 7.99997H37.23L40.1 0.839966H41.08L43.94 7.99997ZM41.92 5.33997L40.8 2.42996C40.77 2.33996 40.73 2.23997 40.69 2.12997C40.65 2.00997 40.62 1.88996 40.58 1.75996C40.51 2.02996 40.44 2.25996 40.37 2.42996L39.25 5.33997H41.92Z" fill="#5A5E60"/>
<path d="M49.02 1.65007H46.7V8.00008H45.74V1.65007H43.41V0.830078H49.02V1.65007Z" fill="#5A5E60"/>
<path d="M54.5 7.20998V7.99997H50.08V0.839966H54.5V1.62997H51.05V3.99997H53.84V4.75996H51.05V7.19997H54.5V7.20998Z" fill="#5A5E60"/>
<path d="M21.57 20H20.71C20.53 20 20.4 19.93 20.32 19.79L18.46 17.23C18.4 17.15 18.34 17.09 18.28 17.06C18.22 17.02 18.11 17.01 17.98 17.01H17.24V20H16.28V12.84H18.3C18.75 12.84 19.15 12.89 19.48 12.98C19.81 13.07 20.08 13.2 20.3 13.38C20.51 13.55 20.67 13.76 20.78 14.01C20.88 14.25 20.93 14.53 20.93 14.83C20.93 15.08 20.89 15.32 20.81 15.54C20.73 15.76 20.61 15.96 20.46 16.13C20.31 16.3 20.12 16.45 19.9 16.58C19.68 16.7 19.43 16.8 19.16 16.86C19.28 16.93 19.39 17.03 19.48 17.16L21.57 20ZM18.26 16.3C18.54 16.3 18.79 16.27 19 16.2C19.21 16.13 19.39 16.03 19.54 15.91C19.68 15.79 19.79 15.64 19.87 15.46C19.94 15.29 19.98 15.09 19.98 14.89C19.98 14.46 19.84 14.14 19.56 13.92C19.28 13.7 18.86 13.59 18.3 13.59H17.24V16.3H18.26Z" fill="#5A5E60"/>
<path d="M28.36 20H27.61C27.52 20 27.45 19.98 27.4 19.94C27.35 19.9 27.31 19.84 27.28 19.77L26.61 18.04H23.4L22.73 19.77C22.71 19.83 22.67 19.88 22.61 19.93C22.55 19.98 22.48 20 22.4 20H21.65L24.52 12.84H25.5L28.36 20ZM26.34 17.34L25.22 14.43C25.19 14.34 25.15 14.24 25.11 14.13C25.07 14.01 25.04 13.89 25 13.76C24.93 14.03 24.86 14.26 24.79 14.43L23.67 17.34H26.34Z" fill="#5A5E60"/>
<path d="M33.45 13.6501H31.13V20.0001H30.17V13.6501H27.84V12.8301H33.45V13.6501Z" fill="#5A5E60"/>
<path d="M38.93 19.21V20H34.51V12.84H38.93V13.63H35.48V16H38.27V16.76H35.48V19.2H38.93V19.21Z" fill="#5A5E60"/>
</svg>
