<svg width="81" height="89" viewBox="0 0 81 89" fill="none" xmlns="http://www.w3.org/2000/svg">
<path d="M36.3103 72.3125C56.364 72.3125 72.6207 56.1248 72.6207 36.1562C72.6207 16.1877 56.364 0 36.3103 0C16.2567 0 0 16.1877 0 36.1562C0 56.1248 16.2567 72.3125 36.3103 72.3125Z" fill="#E9EAEB"/>
<path d="M48.9072 87.6094C50.611 87.1227 79.6034 70.2822 79.6034 54.888C79.6034 41.9273 79.6034 37.1853 79.6034 22.1388C71.7828 22.1388 53.7533 13.5169 48.8933 8.34375C44.0333 13.5169 26.0038 22.1388 18.1831 22.1388C18.1831 37.1992 18.1831 41.9273 18.1831 54.888C18.1831 70.2822 47.1755 87.1227 48.8793 87.6094H48.9072Z" fill="white"/>
<path d="M48.8933 8.34375C44.0333 13.5169 26.0038 22.1388 18.1831 22.1388V54.888C18.1831 70.2822 47.1755 87.1227 48.8793 87.6094H48.9072C50.611 87.1227 79.6034 70.2822 79.6034 54.888V22.1388C71.7828 22.1388 53.7533 13.5169 48.8933 8.34375ZM72.6207 53.3166C72.6207 65.2064 50.22 78.2227 48.9072 78.5981H48.8793C47.5666 78.2227 25.1659 65.2064 25.1659 53.3166V28.0072C31.199 28.0072 45.1365 21.3461 48.8933 17.355C52.65 21.3461 66.5876 28.0072 72.6207 28.0072V53.3166Z" fill="#A3D4FF"/>
<path d="M48.9072 87.6094C50.611 87.1227 79.6034 70.2822 79.6034 54.888C79.6034 41.9273 79.6034 37.1853 79.6034 22.1388C71.7828 22.1388 53.7533 13.5169 48.8933 8.34375C44.0333 13.5169 26.0038 22.1388 18.1831 22.1388C18.1831 37.1992 18.1831 41.9273 18.1831 54.888C18.1831 70.2822 47.1755 87.1227 48.8793 87.6094H48.9072Z" stroke="#2A5082" stroke-width="2" stroke-miterlimit="10" stroke-linecap="round" stroke-linejoin="round"/>
<path d="M66.3363 65.5406C69.9115 61.7164 72.6208 57.4472 72.6208 53.317C72.6208 43.3045 72.6208 39.6472 72.6208 28.0077C66.5877 28.0077 52.6501 21.3466 48.8934 17.3555C47.5388 18.8017 44.8574 20.5817 41.7012 22.2783" stroke="#2A5082" stroke-width="2" stroke-miterlimit="10" stroke-linecap="round" stroke-linejoin="round"/>
<path d="M34.0341 25.8096C30.6126 27.1307 27.3586 28.0068 25.166 28.0068C25.166 39.6324 25.166 43.3036 25.166 53.3161C25.166 65.206 47.5667 78.2222 48.8795 78.5977H48.9074C49.48 78.4308 53.9769 75.9138 58.9207 72.1452" stroke="#2A5082" stroke-width="2" stroke-miterlimit="10" stroke-linecap="round" stroke-linejoin="round"/>
<path d="M13.9655 72.3125V75.0938" stroke="#BCC0C4" stroke-width="2" stroke-miterlimit="10"/>
<path d="M13.9655 77.875V80.6562" stroke="#BCC0C4" stroke-width="2" stroke-miterlimit="10"/>
<path d="M12.569 76.4844H9.77588" stroke="#BCC0C4" stroke-width="2" stroke-miterlimit="10"/>
<path d="M18.1552 76.4844H15.3621" stroke="#BCC0C4" stroke-width="2" stroke-miterlimit="10"/>
<path d="M75.4138 5.5625V8.34375" stroke="#BCC0C4" stroke-width="2" stroke-miterlimit="10"/>
<path d="M75.4138 11.125V13.9062" stroke="#BCC0C4" stroke-width="2" stroke-miterlimit="10"/>
<path d="M74.0172 9.73438H71.2241" stroke="#BCC0C4" stroke-width="2" stroke-miterlimit="10"/>
<path d="M79.6034 9.73438H76.8103" stroke="#BCC0C4" stroke-width="2" stroke-miterlimit="10"/>
<path d="M13.9655 12.5156L11.1724 15.2969" stroke="#BCC0C4" stroke-width="2" stroke-miterlimit="10"/>
<path d="M20.9483 5.5625L18.1552 8.34375" stroke="#BCC0C4" stroke-width="2" stroke-miterlimit="10"/>
<path d="M18.1552 12.5156L20.9483 15.2969" stroke="#BCC0C4" stroke-width="2" stroke-miterlimit="10"/>
<path d="M11.1724 5.5625L13.9655 8.34375" stroke="#BCC0C4" stroke-width="2" stroke-miterlimit="10"/>
<path d="M58.1759 52.0798C58.1759 53.7224 57.5466 55.1198 56.2879 56.2718C55.0292 57.4024 53.1839 58.0318 50.7519 58.1598V61.8398H49.1519V58.1918C47.5946 58.1064 46.1226 57.8078 44.7359 57.2958C43.3706 56.7624 42.2932 56.0904 41.5039 55.2798L42.4319 53.4558C43.1786 54.1811 44.1492 54.7891 45.3439 55.2798C46.5599 55.7704 47.8292 56.0584 49.1519 56.1438V47.7278C47.6799 47.3651 46.4532 46.9811 45.4719 46.5758C44.4906 46.1491 43.6692 45.5411 43.0079 44.7518C42.3679 43.9411 42.0479 42.8744 42.0479 41.5518C42.0479 39.9091 42.6452 38.5331 43.8399 37.4238C45.0346 36.2931 46.8052 35.6318 49.1519 35.4398V31.7598H50.7519V35.4078C51.9679 35.4504 53.1412 35.6531 54.2719 36.0158C55.4239 36.3571 56.4159 36.8158 57.2479 37.3918L56.4479 39.2798C55.5732 38.7251 54.6452 38.2878 53.6639 37.9678C52.6826 37.6478 51.7119 37.4664 50.7519 37.4238V45.9038C52.3306 46.2878 53.6212 46.6824 54.6239 47.0878C55.6266 47.4718 56.4692 48.0691 57.1519 48.8798C57.8346 49.6904 58.1759 50.7571 58.1759 52.0798ZM44.3839 41.4878C44.3839 42.5971 44.7892 43.4398 45.5999 44.0158C46.4319 44.5918 47.6159 45.0824 49.1519 45.4878V37.4878C47.5732 37.6158 46.3786 38.0531 45.5679 38.7998C44.7786 39.5251 44.3839 40.4211 44.3839 41.4878ZM50.7519 56.1438C52.4372 56.0158 53.7066 55.5998 54.5599 54.8958C55.4132 54.1918 55.8399 53.2958 55.8399 52.2078C55.8399 51.0558 55.4026 50.1918 54.5279 49.6158C53.6532 49.0398 52.3946 48.5491 50.7519 48.1438V56.1438Z" fill="#2A5082"/>
</svg>
