<svg width="26" height="9" viewBox="0 0 26 9" fill="none" xmlns="http://www.w3.org/2000/svg">
<path d="M4.85999 7.18997V7.99997H0.789978V0.829956H1.74998V7.17996H4.85999V7.18997Z" fill="#5A5E60"/>
<path d="M12.21 4.42001C12.21 4.96001 12.12 5.44999 11.95 5.89999C11.78 6.34999 11.54 6.73 11.23 7.06C10.92 7.38 10.55 7.63 10.11 7.81C9.66999 7.99 9.18998 8.07999 8.66998 8.07999C8.13998 8.07999 7.65998 7.99 7.22998 7.81C6.79998 7.63 6.41999 7.38 6.10999 7.06C5.79999 6.74 5.55998 6.34999 5.38998 5.89999C5.21998 5.44999 5.13998 4.96001 5.13998 4.42001C5.13998 3.88001 5.22998 3.39 5.38998 2.94C5.55998 2.49 5.79999 2.1 6.10999 1.78C6.41999 1.45 6.78998 1.19999 7.22998 1.01999C7.65998 0.839989 8.13998 0.75 8.66998 0.75C9.19998 0.75 9.67999 0.839989 10.11 1.01999C10.55 1.19999 10.92 1.45 11.23 1.78C11.54 2.1 11.78 2.49 11.95 2.94C12.13 3.39 12.21 3.88001 12.21 4.42001ZM11.22 4.42001C11.22 3.98001 11.16 3.59001 11.04 3.23001C10.92 2.88001 10.75 2.59 10.53 2.34C10.31 2.1 10.04 1.91 9.72998 1.78C9.41998 1.65 9.06998 1.59 8.67998 1.59C8.29998 1.59 7.94998 1.65 7.63998 1.78C7.32998 1.91 7.05998 2.1 6.83998 2.34C6.61998 2.58 6.44999 2.88001 6.32999 3.23001C6.20999 3.58001 6.14998 3.98001 6.14998 4.42001C6.14998 4.86001 6.20999 5.25001 6.32999 5.60001C6.44999 5.95001 6.61998 6.24001 6.83998 6.48001C7.05998 6.72001 7.32998 6.91001 7.63998 7.04001C7.94998 7.17001 8.29998 7.23001 8.67998 7.23001C9.06998 7.23001 9.41998 7.17001 9.72998 7.04001C10.04 6.91001 10.31 6.73001 10.53 6.48001C10.75 6.24001 10.92 5.94001 11.04 5.60001C11.16 5.25001 11.22 4.86001 11.22 4.42001Z" fill="#5A5E60"/>
<path d="M19.23 7.99997H18.48C18.39 7.99997 18.32 7.97997 18.27 7.93997C18.22 7.89997 18.18 7.83996 18.15 7.76996L17.48 6.03998H14.26L13.59 7.76996C13.57 7.82996 13.53 7.87996 13.48 7.92996C13.42 7.97996 13.35 7.99997 13.27 7.99997H12.52L15.39 0.829956H16.37L19.23 7.99997ZM17.21 5.33997L16.09 2.41998C16.06 2.32998 16.02 2.22996 15.99 2.11996C15.95 1.99996 15.92 1.87997 15.88 1.74997C15.81 2.01997 15.74 2.24998 15.67 2.41998L14.55 5.32996H17.21V5.33997Z" fill="#5A5E60"/>
<path d="M25.98 0.829956V7.99997H25.49C25.41 7.99997 25.35 7.98996 25.3 7.95996C25.25 7.92996 25.2 7.88996 25.15 7.82996L21 2.42996C21.01 2.50996 21.01 2.59996 21.01 2.67996C21.01 2.75996 21.02 2.83996 21.02 2.89996V7.99997H20.17V0.829956H20.67C20.71 0.829956 20.75 0.829966 20.78 0.839966C20.81 0.849966 20.84 0.849965 20.86 0.869965C20.88 0.879965 20.91 0.899983 20.93 0.919983C20.95 0.939983 20.98 0.969969 21.01 0.999969L25.16 6.38998C25.15 6.29998 25.15 6.21998 25.14 6.13998C25.14 6.05998 25.13 5.97997 25.13 5.90997V0.829956H25.98Z" fill="#5A5E60"/>
</svg>
