<svg width="65" height="9" viewBox="0 0 65 9" fill="none" xmlns="http://www.w3.org/2000/svg">
<path d="M6 6.52002C6.05 6.52002 6.10001 6.54003 6.14001 6.59003L6.53 7.01004C6.24 7.35004 5.87999 7.62002 5.45999 7.80002C5.03999 7.99002 4.54 8.09003 3.94 8.09003C3.43 8.09003 2.96001 8.00004 2.54001 7.82004C2.12001 7.64004 1.75999 7.39004 1.45999 7.07004C1.15999 6.75004 0.929989 6.36003 0.769989 5.91003C0.609989 5.46003 0.519989 4.97002 0.519989 4.43002C0.519989 3.89002 0.599989 3.39004 0.769989 2.95004C0.939989 2.50004 1.17999 2.11004 1.48999 1.79004C1.79999 1.47004 2.17001 1.22004 2.60001 1.04004C3.03001 0.860039 3.49999 0.77002 4.01999 0.77002C4.52999 0.77002 4.98 0.85002 5.37 1.02002C5.75999 1.18002 6.09999 1.40003 6.39999 1.69003L6.07999 2.13004C6.05999 2.16004 6.03 2.19002 6 2.21002C5.97 2.23002 5.93 2.24002 5.87 2.24002C5.81 2.24002 5.73999 2.21005 5.64999 2.14005C5.55999 2.08005 5.45 2.00004 5.31 1.92004C5.17 1.84004 4.99 1.77004 4.78 1.70004C4.57 1.63004 4.31001 1.60004 4.01001 1.60004C3.64001 1.60004 3.29999 1.66004 2.98999 1.79004C2.67999 1.92004 2.42001 2.10004 2.20001 2.35004C1.98001 2.59004 1.80999 2.89002 1.67999 3.24002C1.55999 3.59002 1.48999 3.99002 1.48999 4.43002C1.48999 4.88002 1.54999 5.28004 1.67999 5.63004C1.80999 5.98004 1.98001 6.28002 2.20001 6.52002C2.42001 6.76002 2.67999 6.95004 2.98999 7.07004C3.28999 7.20004 3.62 7.26004 3.97 7.26004C4.18 7.26004 4.37999 7.25003 4.54999 7.22003C4.71999 7.20003 4.88 7.16004 5.03 7.10004C5.17 7.05004 5.30999 6.98002 5.42999 6.90002C5.54999 6.82002 5.67999 6.72002 5.79999 6.61002C5.88999 6.54002 5.95 6.52002 6 6.52002Z" fill="#5A5E60"/>
<path d="M12.95 8.00003H12.09C11.91 8.00003 11.78 7.93004 11.7 7.79004L9.84 5.23004C9.78 5.15004 9.72 5.09003 9.66 5.06003C9.6 5.02003 9.48999 5.01004 9.35999 5.01004H8.62V8.00003H7.66V0.830017H9.67999C10.13 0.830017 10.53 0.880032 10.86 0.970032C11.19 1.06003 11.46 1.19003 11.68 1.37003C11.89 1.54003 12.05 1.75003 12.16 2.00003C12.26 2.24003 12.31 2.52004 12.31 2.82004C12.31 3.07004 12.27 3.31003 12.19 3.53003C12.11 3.75003 11.99 3.95003 11.84 4.12003C11.69 4.29003 11.5 4.44004 11.28 4.57004C11.06 4.69004 10.81 4.79004 10.54 4.85004C10.66 4.92004 10.77 5.02002 10.86 5.15002L12.95 8.00003ZM9.64001 4.30002C9.92001 4.30002 10.17 4.27004 10.38 4.20004C10.59 4.13004 10.77 4.03003 10.92 3.91003C11.06 3.79003 11.17 3.64002 11.25 3.46002C11.32 3.29002 11.36 3.09005 11.36 2.89005C11.36 2.46005 11.22 2.14004 10.94 1.92004C10.66 1.70004 10.24 1.59003 9.67999 1.59003H8.62V4.30002H9.64001Z" fill="#5A5E60"/>
<path d="M18.34 7.21002V8.00003H13.92V0.830017H18.34V1.62003H14.89V4.00003H17.68V4.76004H14.89V7.20004H18.34V7.21002Z" fill="#5A5E60"/>
<path d="M25.9 4.42004C25.9 4.96004 25.81 5.45004 25.65 5.88004C25.48 6.32004 25.24 6.70004 24.93 7.01004C24.62 7.32004 24.25 7.56002 23.81 7.74002C23.37 7.91002 22.89 8.00003 22.37 8.00003H19.7V0.830017H22.37C22.9 0.830017 23.38 0.920027 23.81 1.09003C24.24 1.26003 24.62 1.51004 24.93 1.82004C25.24 2.14004 25.48 2.51004 25.65 2.95004C25.82 3.39004 25.9 3.88004 25.9 4.42004ZM24.91 4.42004C24.91 3.98004 24.85 3.59002 24.73 3.24002C24.61 2.89002 24.44 2.60002 24.22 2.36002C24 2.12002 23.73 1.94003 23.42 1.81003C23.11 1.68003 22.76 1.62003 22.37 1.62003H20.66V7.21002H22.37C22.76 7.21002 23.11 7.15002 23.42 7.02002C23.73 6.89002 24 6.71003 24.22 6.47003C24.44 6.23003 24.61 5.94003 24.73 5.59003C24.85 5.25003 24.91 4.86004 24.91 4.42004Z" fill="#5A5E60"/>
<path d="M28.27 8.00003H27.3V0.830017H28.27V8.00003Z" fill="#5A5E60"/>
<path d="M34.94 1.65002H32.62V8.00003H31.66V1.65002H29.33V0.830017H34.94V1.65002Z" fill="#5A5E60"/>
<path d="M43.29 6.52002C43.34 6.52002 43.39 6.54003 43.43 6.59003L43.82 7.01004C43.53 7.35004 43.17 7.62002 42.75 7.80002C42.33 7.99002 41.83 8.09003 41.23 8.09003C40.72 8.09003 40.25 8.00004 39.83 7.82004C39.41 7.64004 39.05 7.39004 38.75 7.07004C38.45 6.75004 38.22 6.36003 38.06 5.91003C37.9 5.46003 37.81 4.97002 37.81 4.43002C37.81 3.89002 37.89 3.39004 38.06 2.95004C38.23 2.50004 38.47 2.11004 38.78 1.79004C39.09 1.47004 39.46 1.22004 39.89 1.04004C40.32 0.860039 40.79 0.77002 41.31 0.77002C41.82 0.77002 42.27 0.85002 42.66 1.02002C43.05 1.18002 43.39 1.40003 43.69 1.69003L43.37 2.13004C43.35 2.16004 43.32 2.19002 43.29 2.21002C43.26 2.23002 43.22 2.24002 43.16 2.24002C43.1 2.24002 43.03 2.21005 42.94 2.14005C42.85 2.08005 42.74 2.00004 42.6 1.92004C42.46 1.84004 42.28 1.77004 42.07 1.70004C41.86 1.63004 41.6 1.60004 41.3 1.60004C40.93 1.60004 40.59 1.66004 40.28 1.79004C39.97 1.92004 39.71 2.10004 39.49 2.35004C39.27 2.59004 39.1 2.89002 38.97 3.24002C38.85 3.59002 38.78 3.99002 38.78 4.43002C38.78 4.88002 38.84 5.28004 38.97 5.63004C39.1 5.98004 39.27 6.28002 39.49 6.52002C39.71 6.76002 39.97 6.95004 40.28 7.07004C40.58 7.20004 40.91 7.26004 41.26 7.26004C41.47 7.26004 41.67 7.25003 41.84 7.22003C42.01 7.20003 42.17 7.16004 42.32 7.10004C42.46 7.05004 42.6 6.98002 42.72 6.90002C42.84 6.82002 42.97 6.72002 43.09 6.61002C43.18 6.54002 43.24 6.52002 43.29 6.52002Z" fill="#5A5E60"/>
<path d="M50.77 8.00003H50.02C49.93 8.00003 49.86 7.98003 49.81 7.94003C49.76 7.90003 49.72 7.84002 49.69 7.77002L49.02 6.04004H45.81L45.14 7.77002C45.12 7.83002 45.08 7.88002 45.02 7.93002C44.96 7.98002 44.89 8.00003 44.81 8.00003H44.06L46.93 0.830017H47.91L50.77 8.00003ZM48.75 5.34003L47.63 2.42004C47.6 2.33004 47.56 2.23003 47.52 2.12003C47.48 2.00003 47.45 1.88003 47.41 1.75003C47.34 2.02003 47.27 2.25004 47.2 2.42004L46.08 5.33002H48.75V5.34003Z" fill="#5A5E60"/>
<path d="M57.01 8.00003H56.15C55.97 8.00003 55.84 7.93004 55.76 7.79004L53.9 5.23004C53.84 5.15004 53.78 5.09003 53.72 5.06003C53.66 5.02003 53.55 5.01004 53.42 5.01004H52.68V8.00003H51.72V0.830017H53.74C54.19 0.830017 54.59 0.880032 54.92 0.970032C55.25 1.06003 55.52 1.19003 55.74 1.37003C55.95 1.54003 56.11 1.75003 56.22 2.00003C56.32 2.24003 56.37 2.52004 56.37 2.82004C56.37 3.07004 56.33 3.31003 56.25 3.53003C56.17 3.75003 56.05 3.95003 55.9 4.12003C55.75 4.29003 55.56 4.44004 55.34 4.57004C55.12 4.69004 54.87 4.79004 54.6 4.85004C54.72 4.92004 54.83 5.02002 54.92 5.15002L57.01 8.00003ZM53.7 4.30002C53.98 4.30002 54.23 4.27004 54.44 4.20004C54.65 4.13004 54.83 4.03003 54.98 3.91003C55.12 3.79003 55.23 3.64002 55.31 3.46002C55.38 3.29002 55.42 3.09005 55.42 2.89005C55.42 2.46005 55.28 2.14004 55 1.92004C54.72 1.70004 54.3 1.59003 53.74 1.59003H52.68V4.30002H53.7Z" fill="#5A5E60"/>
<path d="M64.19 4.42004C64.19 4.96004 64.11 5.45004 63.94 5.88004C63.77 6.32004 63.53 6.70004 63.22 7.01004C62.91 7.32004 62.54 7.56002 62.1 7.74002C61.66 7.91002 61.18 8.00003 60.66 8.00003H57.99V0.830017H60.66C61.19 0.830017 61.67 0.920027 62.1 1.09003C62.53 1.26003 62.91 1.51004 63.22 1.82004C63.53 2.14004 63.77 2.51004 63.94 2.95004C64.1 3.39004 64.19 3.88004 64.19 4.42004ZM63.19 4.42004C63.19 3.98004 63.13 3.59002 63.01 3.24002C62.89 2.89002 62.72 2.60002 62.5 2.36002C62.28 2.12002 62.01 1.94003 61.7 1.81003C61.39 1.68003 61.04 1.62003 60.65 1.62003H58.94V7.21002H60.65C61.04 7.21002 61.39 7.15002 61.7 7.02002C62.01 6.89002 62.28 6.71003 62.5 6.47003C62.72 6.23003 62.89 5.94003 63.01 5.59003C63.13 5.25003 63.19 4.86004 63.19 4.42004Z" fill="#5A5E60"/>
</svg>
