<svg width="61" height="62" viewBox="0 0 61 62" fill="none" xmlns="http://www.w3.org/2000/svg">
<path d="M42 38C52.4934 38 61 29.4934 61 19C61 8.50659 52.4934 0 42 0C31.5066 0 23 8.50659 23 19C23 29.4934 31.5066 38 42 38Z" fill="#E9EAEB"/>
<path d="M26 52C36.4934 52 45 43.4934 45 33C45 22.5066 36.4934 14 26 14C15.5066 14 7 22.5066 7 33C7 43.4934 15.5066 52 26 52Z" fill="white"/>
<path d="M50.5 38.01C50.83 36.39 51 34.71 51 33C51 19.19 39.81 8 26 8C12.19 8 1 19.19 1 33C1 46.81 12.19 58 26 58C27.27 58 28.52 57.91 29.73 57.72L29 51.76C28.02 51.92 27.02 52 26 52C15.51 52 7 43.49 7 33C7 22.51 15.51 14 26 14C36.49 14 45 22.51 45 33C45 34.37 44.85 35.71 44.58 37L50.5 38.01Z" fill="#A3D4FF"/>
<path d="M26 17V20" stroke="#2A5082" stroke-width="2" stroke-miterlimit="10"/>
<path d="M10 33H13" stroke="#2A5082" stroke-width="2" stroke-miterlimit="10"/>
<path d="M39 33H42" stroke="#2A5082" stroke-width="2" stroke-miterlimit="10"/>
<path d="M18 25L26 35L34 30" stroke="#2A5082" stroke-width="2" stroke-miterlimit="10"/>
<path d="M29 51.76C28.02 51.92 27.02 52 26 52C15.51 52 7 43.49 7 33C7 22.51 15.51 14 26 14C36.49 14 45 22.51 45 33C45 34.37 44.85 35.71 44.58 37" stroke="#2A5082" stroke-width="2" stroke-miterlimit="10" stroke-linecap="round"/>
<path d="M29.73 57.72C28.52 57.91 27.27 58 26 58C12.19 58 1 46.81 1 33C1 19.19 12.19 8 26 8C39.81 8 51 19.19 51 33C51 34.71 50.83 36.39 50.5 38.01" stroke="#2A5082" stroke-width="2" stroke-miterlimit="10" stroke-linecap="round"/>
<path d="M37 51C39.2091 51 41 49.2091 41 47C41 44.7909 39.2091 43 37 43C34.7909 43 33 44.7909 33 47C33 49.2091 34.7909 51 37 51Z" stroke="#2A5082" stroke-width="2" stroke-miterlimit="10" stroke-linecap="round"/>
<path d="M49 61C46.79 61 45 59.21 45 57C45 54.79 46.79 53 49 53C51.21 53 53 54.79 53 57C53 59.21 51.21 61 49 61Z" stroke="#2A5082" stroke-width="2" stroke-miterlimit="10" stroke-linecap="round"/>
<path d="M35 61L51 43" stroke="#2A5082" stroke-width="2" stroke-miterlimit="10" stroke-linecap="round"/>
</svg>
