<svg width="47" height="20" viewBox="0 0 47 20" fill="none" xmlns="http://www.w3.org/2000/svg">
<path d="M1.70999 7.99997H0.73999V0.839966H1.70999V7.99997Z" fill="#5A5E60"/>
<path d="M9.34998 0.839966V7.99997H8.85999C8.77999 7.99997 8.71998 7.98998 8.66998 7.95998C8.61998 7.92998 8.56998 7.88997 8.51998 7.82997L4.37998 2.42996C4.38998 2.50996 4.38998 2.58996 4.38998 2.67996C4.38998 2.75996 4.39999 2.83996 4.39999 2.89996V7.99997H3.54999V0.839966H4.04999C4.08999 0.839966 4.12999 0.839976 4.15999 0.849976C4.18999 0.859976 4.21998 0.859974 4.23998 0.879974C4.25998 0.889974 4.28998 0.909962 4.30998 0.929962C4.32998 0.949962 4.35998 0.979964 4.38998 1.00996L8.52998 6.39996C8.51998 6.30996 8.51999 6.22996 8.50999 6.14996C8.50999 6.06996 8.49998 5.98997 8.49998 5.91997V0.839966H9.34998Z" fill="#5A5E60"/>
<path d="M16.21 6.52002C16.26 6.52002 16.31 6.54001 16.35 6.59001L16.74 7.00002C16.45 7.34002 16.09 7.61001 15.67 7.79001C15.25 7.98001 14.75 8.08002 14.15 8.08002C13.64 8.08002 13.17 7.99001 12.75 7.81001C12.33 7.63001 11.97 7.38001 11.68 7.06001C11.38 6.74001 11.15 6.35001 10.99 5.90001C10.83 5.45001 10.74 4.96001 10.74 4.42001C10.74 3.88001 10.82 3.38002 10.99 2.94002C11.16 2.49002 11.4 2.10001 11.71 1.78001C12.02 1.46001 12.39 1.21001 12.82 1.03001C13.25 0.850014 13.72 0.76001 14.24 0.76001C14.75 0.76001 15.2 0.84001 15.59 1.01001C15.98 1.17001 16.32 1.39001 16.62 1.67001L16.3 2.11002C16.28 2.14002 16.25 2.17002 16.22 2.19002C16.19 2.21002 16.15 2.22002 16.09 2.22002C16.03 2.22002 15.96 2.19001 15.87 2.12001C15.78 2.06001 15.67 1.98001 15.53 1.90001C15.39 1.82001 15.22 1.75001 15.01 1.68001C14.8 1.61001 14.54 1.58002 14.24 1.58002C13.87 1.58002 13.53 1.64002 13.22 1.77002C12.91 1.90002 12.65 2.08002 12.43 2.33002C12.21 2.57002 12.04 2.87002 11.91 3.22002C11.79 3.57002 11.73 3.97002 11.73 4.41002C11.73 4.86002 11.79 5.26002 11.92 5.61002C12.05 5.96002 12.22 6.26002 12.44 6.50002C12.66 6.74002 12.92 6.93002 13.22 7.05002C13.52 7.18002 13.85 7.24002 14.2 7.24002C14.41 7.24002 14.61 7.23001 14.78 7.20001C14.95 7.18001 15.11 7.14002 15.26 7.08002C15.41 7.03002 15.54 6.96002 15.66 6.88002C15.78 6.80002 15.91 6.70001 16.03 6.59001C16.09 6.54001 16.15 6.52002 16.21 6.52002Z" fill="#5A5E60"/>
<path d="M23.15 7.99997H22.29C22.11 7.99997 21.98 7.92996 21.9 7.78996L20.04 5.22997C19.98 5.14997 19.92 5.08997 19.86 5.05997C19.79 5.01997 19.69 5.00996 19.56 5.00996H18.82V7.99997H17.86V0.839966H19.88C20.33 0.839966 20.73 0.889965 21.06 0.979965C21.39 1.06997 21.66 1.19997 21.88 1.37997C22.09 1.54997 22.25 1.75996 22.36 2.00996C22.46 2.24996 22.51 2.52997 22.51 2.82997C22.51 3.07997 22.47 3.31996 22.39 3.53996C22.31 3.75996 22.19 3.95997 22.04 4.12997C21.89 4.29997 21.7 4.44997 21.48 4.57997C21.26 4.69997 21.01 4.79997 20.74 4.85997C20.86 4.92997 20.97 5.02997 21.06 5.15997L23.15 7.99997ZM19.84 4.29997C20.12 4.29997 20.37 4.26997 20.58 4.19997C20.79 4.12997 20.98 4.02997 21.12 3.90997C21.27 3.78997 21.37 3.63998 21.45 3.45998C21.52 3.28998 21.56 3.08997 21.56 2.88997C21.56 2.45997 21.42 2.13997 21.14 1.91997C20.86 1.69997 20.44 1.58997 19.88 1.58997H18.82V4.29997H19.84Z" fill="#5A5E60"/>
<path d="M28.54 7.20998V7.99997H24.13V0.839966H28.54V1.62997H25.09V3.99997H27.88V4.75996H25.09V7.19997H28.54V7.20998Z" fill="#5A5E60"/>
<path d="M35.72 7.99997H34.97C34.88 7.99997 34.81 7.97997 34.76 7.93997C34.71 7.89997 34.67 7.83997 34.64 7.76997L33.97 6.03996H30.75L30.08 7.76997C30.06 7.82997 30.02 7.87996 29.97 7.92996C29.91 7.97996 29.84 7.99997 29.76 7.99997H29.01L31.88 0.839966H32.86L35.72 7.99997ZM33.7 5.33997L32.58 2.42996C32.55 2.33996 32.51 2.23997 32.48 2.12997C32.44 2.00997 32.41 1.88996 32.37 1.75996C32.3 2.02996 32.23 2.25996 32.16 2.42996L31.04 5.33997H33.7Z" fill="#5A5E60"/>
<path d="M40.33 1.95999C40.3 2.00999 40.27 2.04999 40.23 2.06999C40.19 2.08999 40.15 2.10999 40.1 2.10999C40.04 2.10999 39.98 2.07999 39.9 2.01999C39.82 1.95999 39.73 1.89999 39.61 1.82999C39.49 1.75999 39.36 1.69998 39.2 1.63998C39.04 1.57998 38.84 1.55998 38.61 1.55998C38.39 1.55998 38.2 1.58998 38.04 1.64998C37.87 1.70998 37.74 1.78998 37.62 1.88998C37.51 1.98998 37.42 2.10999 37.37 2.23999C37.31 2.37999 37.28 2.51998 37.28 2.67998C37.28 2.87998 37.33 3.04998 37.43 3.17998C37.53 3.30998 37.66 3.41999 37.82 3.51999C37.98 3.60999 38.16 3.68998 38.37 3.75998C38.58 3.82998 38.79 3.89999 39 3.96999C39.22 4.03999 39.43 4.12999 39.63 4.21999C39.83 4.30999 40.02 4.42999 40.18 4.56999C40.34 4.70999 40.47 4.87999 40.57 5.07999C40.67 5.27999 40.72 5.52999 40.72 5.82999C40.72 6.13999 40.67 6.43999 40.56 6.70999C40.45 6.98999 40.3 7.21998 40.09 7.42998C39.88 7.62998 39.63 7.78999 39.33 7.90999C39.03 8.02999 38.69 8.08998 38.31 8.08998C37.84 8.08998 37.42 8.00998 37.04 7.83998C36.66 7.66998 36.33 7.43999 36.06 7.15999L36.34 6.69998C36.37 6.65998 36.4 6.62999 36.44 6.60999C36.48 6.58999 36.52 6.56999 36.57 6.56999C36.61 6.56999 36.66 6.58998 36.72 6.61998C36.78 6.65998 36.84 6.69998 36.91 6.74998C36.98 6.79998 37.06 6.85998 37.15 6.91998C37.24 6.97998 37.34 7.03998 37.46 7.08998C37.58 7.13998 37.71 7.18999 37.85 7.21999C38 7.25999 38.16 7.26999 38.35 7.26999C38.58 7.26999 38.79 7.23998 38.97 7.16998C39.15 7.10998 39.3 7.01998 39.43 6.89998C39.55 6.77998 39.65 6.64999 39.72 6.48999C39.79 6.32999 39.82 6.14998 39.82 5.94998C39.82 5.72998 39.77 5.55998 39.67 5.41998C39.57 5.27998 39.44 5.16999 39.28 5.06999C39.12 4.97999 38.94 4.89999 38.73 4.82999C38.52 4.76999 38.31 4.69999 38.1 4.62999C37.89 4.55999 37.68 4.47998 37.47 4.38998C37.26 4.29998 37.08 4.17998 36.92 4.03998C36.76 3.89998 36.63 3.71998 36.53 3.49998C36.43 3.28998 36.38 3.01998 36.38 2.69998C36.38 2.44998 36.43 2.19999 36.53 1.96999C36.63 1.72999 36.77 1.51998 36.96 1.33998C37.15 1.15998 37.38 1.00998 37.66 0.899979C37.93 0.789979 38.25 0.72998 38.61 0.72998C39.01 0.72998 39.37 0.789983 39.7 0.919983C40.03 1.04998 40.32 1.22999 40.57 1.46999L40.33 1.95999Z" fill="#5A5E60"/>
<path d="M46.51 7.20998V7.99997H42.1V0.839966H46.51V1.62997H43.06V3.99997H45.85V4.75996H43.06V7.19997H46.51V7.20998Z" fill="#5A5E60"/>
<path d="M17.59 20H16.73C16.55 20 16.42 19.93 16.34 19.79L14.48 17.23C14.42 17.15 14.36 17.09 14.3 17.06C14.24 17.02 14.13 17.01 14 17.01H13.26V20H12.3V12.84H14.32C14.77 12.84 15.17 12.89 15.5 12.98C15.83 13.07 16.1 13.2 16.32 13.38C16.53 13.55 16.69 13.76 16.8 14.01C16.9 14.25 16.95 14.53 16.95 14.83C16.95 15.08 16.91 15.32 16.83 15.54C16.75 15.76 16.63 15.96 16.48 16.13C16.33 16.3 16.14 16.45 15.92 16.58C15.7 16.7 15.45 16.8 15.18 16.86C15.3 16.93 15.41 17.03 15.5 17.16L17.59 20ZM14.28 16.3C14.56 16.3 14.81 16.27 15.02 16.2C15.23 16.13 15.41 16.03 15.56 15.91C15.71 15.79 15.81 15.64 15.89 15.46C15.96 15.29 16 15.09 16 14.89C16 14.46 15.86 14.14 15.58 13.92C15.3 13.7 14.88 13.59 14.32 13.59H13.26V16.3H14.28Z" fill="#5A5E60"/>
<path d="M24.39 20H23.64C23.55 20 23.48 19.98 23.43 19.94C23.38 19.9 23.34 19.84 23.31 19.77L22.64 18.04H19.42L18.75 19.77C18.73 19.83 18.69 19.88 18.64 19.93C18.58 19.98 18.51 20 18.43 20H17.68L20.55 12.84H21.53L24.39 20ZM22.37 17.34L21.25 14.43C21.22 14.34 21.18 14.24 21.14 14.13C21.1 14.01 21.07 13.89 21.03 13.76C20.96 14.03 20.89 14.26 20.82 14.43L19.7 17.34H22.37Z" fill="#5A5E60"/>
<path d="M29.47 13.6499H27.15V20H26.19V13.6499H23.86V12.83H29.47V13.6499Z" fill="#5A5E60"/>
<path d="M34.95 19.21V20H30.54V12.84H34.95V13.63H31.5V16H34.29V16.76H31.5V19.2H34.95V19.21Z" fill="#5A5E60"/>
</svg>
