<svg width="55" height="21" viewBox="0 0 55 21" fill="none" xmlns="http://www.w3.org/2000/svg">
<path d="M7.56 0.829956V7.99997H6.71V2.72998C6.71 2.65998 6.71 2.58998 6.72 2.50998C6.73 2.42998 6.73 2.34996 6.74 2.26996L4.28 6.74997C4.2 6.89997 4.09 6.97998 3.93 6.97998H3.79C3.63 6.97998 3.52 6.89997 3.44 6.74997L0.93 2.24997C0.95 2.42997 0.960001 2.58996 0.960001 2.73996V7.99997H0.110001V0.829956H0.820001C0.910001 0.829956 0.97 0.839976 1.02 0.849976C1.07 0.869976 1.11 0.90996 1.15 0.98996L3.63 5.39996C3.67 5.47996 3.71 5.55996 3.75 5.64996C3.79 5.73996 3.82 5.81997 3.86 5.90997C3.89 5.81997 3.93 5.72998 3.97 5.63998C4.01 5.54998 4.05 5.46998 4.09 5.38998L6.52 0.98996C6.56 0.90996 6.6 0.869976 6.65 0.849976C6.7 0.829976 6.77 0.829956 6.85 0.829956H7.56Z" fill="#5A5E60"/>
<path d="M16.01 4.42001C16.01 4.96001 15.92 5.44999 15.75 5.89999C15.58 6.34999 15.34 6.73 15.03 7.06C14.72 7.38 14.35 7.63 13.91 7.81C13.47 7.99 12.99 8.07999 12.47 8.07999C11.94 8.07999 11.46 7.99 11.03 7.81C10.6 7.63 10.22 7.38 9.91 7.06C9.6 6.74 9.36 6.34999 9.19 5.89999C9.02 5.44999 8.94 4.96001 8.94 4.42001C8.94 3.88001 9.03 3.39 9.19 2.94C9.36 2.49 9.6 2.1 9.91 1.78C10.22 1.45 10.59 1.19999 11.03 1.01999C11.46 0.839989 11.94 0.75 12.47 0.75C13 0.75 13.48 0.839989 13.91 1.01999C14.34 1.19999 14.72 1.45 15.03 1.78C15.34 2.1 15.58 2.49 15.75 2.94C15.93 3.39 16.01 3.88001 16.01 4.42001ZM15.02 4.42001C15.02 3.98001 14.96 3.59001 14.84 3.23001C14.72 2.88001 14.55 2.59 14.33 2.34C14.11 2.1 13.84 1.91 13.53 1.78C13.22 1.65 12.87 1.59 12.48 1.59C12.1 1.59 11.75 1.65 11.44 1.78C11.13 1.91 10.86 2.1 10.64 2.34C10.42 2.58 10.25 2.88001 10.13 3.23001C10.01 3.58001 9.95 3.98001 9.95 4.42001C9.95 4.86001 10.01 5.25001 10.13 5.60001C10.25 5.95001 10.42 6.24001 10.64 6.48001C10.86 6.72001 11.13 6.91001 11.44 7.04001C11.75 7.17001 12.1 7.23001 12.48 7.23001C12.87 7.23001 13.22 7.17001 13.53 7.04001C13.84 6.91001 14.11 6.73001 14.33 6.48001C14.55 6.24001 14.72 5.94001 14.84 5.60001C14.96 5.25001 15.02 4.86001 15.02 4.42001Z" fill="#5A5E60"/>
<path d="M22.69 7.99997H21.83C21.65 7.99997 21.52 7.92998 21.44 7.78998L19.58 5.22998C19.52 5.14998 19.46 5.08997 19.4 5.05997C19.33 5.01997 19.23 5.00998 19.1 5.00998H18.36V7.99997H17.4V0.829956H19.42C19.87 0.829956 20.27 0.879971 20.6 0.969971C20.93 1.05997 21.2 1.18996 21.42 1.36996C21.63 1.53996 21.79 1.74997 21.9 1.99997C22 2.23997 22.05 2.51998 22.05 2.81998C22.05 3.06998 22.01 3.30997 21.93 3.52997C21.85 3.74997 21.73 3.94996 21.58 4.11996C21.43 4.28996 21.24 4.43998 21.02 4.56998C20.8 4.68998 20.55 4.78998 20.28 4.84998C20.4 4.91998 20.51 5.01996 20.6 5.14996L22.69 7.99997ZM19.38 4.29996C19.66 4.29996 19.91 4.26998 20.12 4.19998C20.33 4.12998 20.52 4.02997 20.66 3.90997C20.8 3.78997 20.91 3.63996 20.99 3.45996C21.06 3.28996 21.1 3.08998 21.1 2.88998C21.1 2.45998 20.96 2.13998 20.68 1.91998C20.4 1.69998 19.98 1.58997 19.42 1.58997H18.36V4.29996H19.38Z" fill="#5A5E60"/>
<path d="M28.27 1.64996H25.95V7.99997H24.99V1.64996H22.66V0.829956H28.27V1.64996Z" fill="#5A5E60"/>
<path d="M34.83 4.54999V7.29999C34.47 7.55999 34.09 7.76 33.68 7.88C33.27 8.01 32.82 8.07001 32.34 8.07001C31.76 8.07001 31.24 7.97999 30.78 7.79999C30.32 7.61999 29.92 7.36999 29.59 7.04999C29.26 6.72999 29.01 6.34001 28.83 5.89001C28.65 5.44001 28.57 4.95 28.57 4.41C28.57 3.86 28.66 3.37 28.83 2.91C29 2.46 29.25 2.08 29.56 1.75C29.88 1.43 30.26 1.18 30.72 1C31.17 0.82 31.68 0.73999 32.24 0.73999C32.52 0.73999 32.79 0.759988 33.03 0.799988C33.27 0.839988 33.5 0.900011 33.71 0.980011C33.92 1.06001 34.11 1.14999 34.28 1.26999C34.46 1.37999 34.62 1.50999 34.78 1.64999L34.51 2.09C34.47 2.16 34.41 2.2 34.34 2.22C34.27 2.24 34.2 2.22001 34.11 2.17001C34.03 2.12001 33.94 2.07 33.84 2C33.74 1.93 33.61 1.87 33.46 1.81C33.31 1.75 33.14 1.69999 32.93 1.64999C32.73 1.60999 32.49 1.59 32.21 1.59C31.81 1.59 31.44 1.65001 31.11 1.79001C30.78 1.92001 30.51 2.11001 30.27 2.35001C30.04 2.60001 29.86 2.88999 29.74 3.23999C29.62 3.58999 29.55 3.98 29.55 4.41C29.55 4.86 29.61 5.25999 29.74 5.62C29.87 5.98 30.05 6.28 30.29 6.53C30.53 6.78 30.82 6.97001 31.16 7.10001C31.5 7.23001 31.88 7.29999 32.3 7.29999C32.63 7.29999 32.93 7.26 33.19 7.19C33.45 7.11 33.7 7.01 33.95 6.88V5.29999H32.84C32.78 5.29999 32.73 5.28 32.69 5.25C32.65 5.21 32.63 5.17 32.63 5.12V4.57001H34.83V4.54999Z" fill="#5A5E60"/>
<path d="M42.08 7.99997H41.33C41.24 7.99997 41.17 7.97997 41.12 7.93997C41.07 7.89997 41.03 7.83996 41 7.76996L40.33 6.03998H37.11L36.44 7.76996C36.42 7.82996 36.38 7.87996 36.33 7.92996C36.27 7.97996 36.2 7.99997 36.12 7.99997H35.37L38.24 0.829956H39.22L42.08 7.99997ZM40.06 5.33997L38.94 2.41998C38.91 2.32998 38.87 2.22996 38.84 2.11996C38.8 1.99996 38.77 1.87997 38.73 1.74997C38.66 2.01997 38.59 2.24998 38.52 2.41998L37.4 5.32996H40.06V5.33997Z" fill="#5A5E60"/>
<path d="M48.66 4.54999V7.29999C48.3 7.55999 47.92 7.76 47.51 7.88C47.1 8.01 46.65 8.07001 46.17 8.07001C45.59 8.07001 45.07 7.97999 44.61 7.79999C44.15 7.61999 43.75 7.36999 43.42 7.04999C43.09 6.72999 42.84 6.34001 42.66 5.89001C42.48 5.44001 42.4 4.95 42.4 4.41C42.4 3.86 42.49 3.37 42.66 2.91C42.83 2.46 43.08 2.08 43.39 1.75C43.71 1.43 44.09 1.18 44.55 1C45 0.82 45.51 0.73999 46.07 0.73999C46.35 0.73999 46.62 0.759988 46.86 0.799988C47.1 0.839988 47.33 0.900011 47.54 0.980011C47.75 1.06001 47.94 1.14999 48.11 1.26999C48.29 1.37999 48.45 1.50999 48.61 1.64999L48.34 2.09C48.3 2.16 48.24 2.2 48.17 2.22C48.1 2.24 48.03 2.22001 47.94 2.17001C47.86 2.12001 47.77 2.07 47.67 2C47.57 1.93 47.44 1.87 47.29 1.81C47.14 1.75 46.97 1.69999 46.76 1.64999C46.56 1.60999 46.32 1.59 46.04 1.59C45.64 1.59 45.27 1.65001 44.94 1.79001C44.61 1.92001 44.34 2.11001 44.11 2.35001C43.88 2.60001 43.7 2.88999 43.58 3.23999C43.46 3.58999 43.4 3.98 43.4 4.41C43.4 4.86 43.46 5.25999 43.59 5.62C43.72 5.98 43.9 6.28 44.14 6.53C44.38 6.78 44.67 6.97001 45.01 7.10001C45.35 7.23001 45.73 7.29999 46.16 7.29999C46.49 7.29999 46.79 7.26 47.05 7.19C47.31 7.11 47.56 7.01 47.81 6.88V5.29999H46.7C46.64 5.29999 46.59 5.28 46.55 5.25C46.51 5.21 46.49 5.17 46.49 5.12V4.57001H48.66V4.54999Z" fill="#5A5E60"/>
<path d="M54.57 7.20996V7.99997H50.15V0.829956H54.57V1.61996H51.12V3.99997H53.91V4.75998H51.12V7.19998H54.57V7.20996Z" fill="#5A5E60"/>
<path d="M18.13 16.55V19.3C17.77 19.56 17.39 19.76 16.98 19.88C16.57 20 16.12 20.07 15.64 20.07C15.06 20.07 14.54 19.98 14.08 19.8C13.62 19.62 13.22 19.37 12.89 19.05C12.56 18.73 12.31 18.34 12.13 17.89C11.95 17.44 11.87 16.95 11.87 16.41C11.87 15.86 11.96 15.37 12.13 14.91C12.3 14.46 12.55 14.08 12.86 13.75C13.18 13.43 13.56 13.18 14.02 13C14.47 12.82 14.98 12.74 15.54 12.74C15.82 12.74 16.09 12.76 16.33 12.8C16.57 12.84 16.8 12.9 17.01 12.98C17.22 13.06 17.41 13.15 17.58 13.27C17.76 13.38 17.92 13.51 18.08 13.65L17.81 14.09C17.77 14.16 17.71 14.2 17.64 14.22C17.57 14.24 17.5 14.22 17.41 14.17C17.33 14.12 17.24 14.07 17.14 14C17.04 13.93 16.91 13.87 16.76 13.81C16.61 13.75 16.44 13.7 16.23 13.65C16.03 13.61 15.79 13.59 15.51 13.59C15.11 13.59 14.74 13.65 14.41 13.79C14.08 13.92 13.81 14.11 13.58 14.35C13.35 14.6 13.17 14.89 13.05 15.24C12.93 15.59 12.87 15.98 12.87 16.41C12.87 16.86 12.93 17.26 13.06 17.62C13.19 17.98 13.37 18.28 13.61 18.53C13.85 18.78 14.14 18.97 14.48 19.1C14.82 19.23 15.2 19.3 15.63 19.3C15.96 19.3 16.26 19.26 16.52 19.19C16.78 19.11 17.03 19.01 17.28 18.88V17.3H16.17C16.11 17.3 16.06 17.28 16.02 17.25C15.98 17.21 15.96 17.17 15.96 17.12V16.57H18.13V16.55Z" fill="#5A5E60"/>
<path d="M24.91 20H24.05C23.87 20 23.74 19.93 23.66 19.79L21.8 17.23C21.74 17.15 21.68 17.09 21.62 17.06C21.55 17.02 21.45 17.01 21.32 17.01H20.58V20H19.62V12.83H21.64C22.09 12.83 22.49 12.88 22.82 12.97C23.15 13.06 23.42 13.19 23.64 13.37C23.85 13.54 24.01 13.75 24.12 14C24.22 14.24 24.27 14.52 24.27 14.82C24.27 15.07 24.23 15.31 24.15 15.53C24.07 15.75 23.95 15.95 23.8 16.12C23.65 16.29 23.46 16.44 23.24 16.57C23.02 16.69 22.77 16.79 22.5 16.85C22.62 16.92 22.73 17.02 22.82 17.15L24.91 20ZM21.6 16.3C21.88 16.3 22.13 16.27 22.34 16.2C22.55 16.13 22.74 16.03 22.88 15.91C23.02 15.79 23.13 15.64 23.21 15.46C23.28 15.29 23.32 15.09 23.32 14.89C23.32 14.46 23.18 14.14 22.9 13.92C22.62 13.7 22.2 13.59 21.64 13.59H20.58V16.3H21.6Z" fill="#5A5E60"/>
<path d="M31.7 20H30.95C30.86 20 30.79 19.98 30.74 19.94C30.69 19.9 30.65 19.84 30.62 19.77L29.95 18.04H26.73L26.06 19.77C26.04 19.83 26 19.88 25.95 19.93C25.89 19.98 25.82 20 25.74 20H24.99L27.86 12.83H28.84L31.7 20ZM29.68 17.34L28.56 14.42C28.53 14.33 28.49 14.23 28.46 14.12C28.42 14 28.39 13.88 28.35 13.75C28.28 14.02 28.21 14.25 28.14 14.42L27.02 17.33H29.68V17.34Z" fill="#5A5E60"/>
<path d="M34.76 12.83C35.21 12.83 35.61 12.88 35.94 12.99C36.27 13.1 36.55 13.24 36.77 13.44C36.99 13.63 37.15 13.87 37.26 14.14C37.37 14.41 37.42 14.72 37.42 15.05C37.42 15.38 37.36 15.69 37.24 15.97C37.12 16.25 36.95 16.48 36.73 16.68C36.5 16.88 36.23 17.04 35.9 17.15C35.57 17.26 35.19 17.32 34.75 17.32H33.6V20H32.64V12.83H34.76ZM34.76 16.55C35.04 16.55 35.28 16.51 35.49 16.44C35.7 16.37 35.88 16.26 36.02 16.13C36.17 16 36.27 15.84 36.35 15.66C36.42 15.48 36.46 15.28 36.46 15.05C36.46 14.59 36.32 14.24 36.04 13.98C35.76 13.72 35.33 13.6 34.76 13.6H33.61V16.55H34.76Z" fill="#5A5E60"/>
<path d="M44.46 12.83V20H43.49V16.74H39.62V20H38.65V12.83H39.62V16.02H43.49V12.83H44.46Z" fill="#5A5E60"/>
</svg>
