<svg width="46" height="20" viewBox="0 0 46 20" fill="none" xmlns="http://www.w3.org/2000/svg">
<path d="M1.60001 7.99997H0.630005V0.829956H1.60001V7.99997Z" fill="#5A5E60"/>
<path d="M9.23001 0.829956V7.99997H8.74001C8.66001 7.99997 8.60001 7.98996 8.55001 7.95996C8.50001 7.92996 8.45001 7.88996 8.40001 7.82996L4.26001 2.42996C4.27001 2.50996 4.27001 2.59996 4.27001 2.67996C4.27001 2.75996 4.28001 2.83996 4.28001 2.89996V7.99997H3.43001V0.829956H3.93001C3.97001 0.829956 4.01001 0.829966 4.04001 0.839966C4.07001 0.849966 4.10001 0.849965 4.12001 0.869965C4.14001 0.879965 4.17001 0.899983 4.19001 0.919983C4.21001 0.939983 4.24001 0.969969 4.27001 0.999969L8.41001 6.38998C8.40001 6.29998 8.40001 6.21998 8.39001 6.13998C8.39001 6.05998 8.38001 5.97997 8.38001 5.90997V0.829956H9.23001Z" fill="#5A5E60"/>
<path d="M15.91 1.64996H13.59V7.99997H12.63V1.64996H10.3V0.829956H15.91V1.64996Z" fill="#5A5E60"/>
<path d="M21.39 7.20996V7.99997H16.98V0.829956H21.39V1.61996H17.94V3.99997H20.73V4.75998H17.94V7.19998H21.39V7.20996Z" fill="#5A5E60"/>
<path d="M28.04 7.99997H27.18C27 7.99997 26.87 7.92998 26.79 7.78998L24.93 5.22998C24.87 5.14998 24.81 5.08997 24.75 5.05997C24.69 5.01997 24.58 5.00998 24.45 5.00998H23.71V7.99997H22.75V0.829956H24.77C25.22 0.829956 25.62 0.879971 25.95 0.969971C26.28 1.05997 26.55 1.18996 26.77 1.36996C26.98 1.53996 27.14 1.74997 27.25 1.99997C27.35 2.23997 27.4 2.51998 27.4 2.81998C27.4 3.06998 27.36 3.30997 27.28 3.52997C27.2 3.74997 27.08 3.94996 26.93 4.11996C26.78 4.28996 26.59 4.43998 26.37 4.56998C26.15 4.68998 25.9 4.78998 25.63 4.84998C25.75 4.91998 25.86 5.01996 25.95 5.14996L28.04 7.99997ZM24.73 4.29996C25.01 4.29996 25.26 4.26998 25.47 4.19998C25.68 4.12998 25.87 4.02997 26.01 3.90997C26.16 3.78997 26.26 3.63996 26.34 3.45996C26.41 3.28996 26.45 3.08998 26.45 2.88998C26.45 2.45998 26.31 2.13998 26.03 1.91998C25.75 1.69998 25.33 1.58997 24.77 1.58997H23.71V4.29996H24.73Z" fill="#5A5E60"/>
<path d="M33.43 7.20996V7.99997H29.01V0.829956H33.43V1.61996H29.98V3.99997H32.77V4.75998H29.98V7.19998H33.43V7.20996Z" fill="#5A5E60"/>
<path d="M38.45 1.95999C38.42 2.00999 38.39 2.05001 38.35 2.07001C38.31 2.09001 38.27 2.10999 38.22 2.10999C38.16 2.10999 38.1 2.07999 38.02 2.01999C37.94 1.95999 37.85 1.89999 37.73 1.82999C37.61 1.75999 37.48 1.70001 37.31 1.64001C37.15 1.58001 36.95 1.56 36.72 1.56C36.5 1.56 36.31 1.58999 36.15 1.64999C35.98 1.70999 35.85 1.79001 35.73 1.89001C35.62 1.99001 35.53 2.10999 35.48 2.23999C35.42 2.37999 35.39 2.51999 35.39 2.67999C35.39 2.87999 35.44 3.04999 35.54 3.17999C35.64 3.30999 35.77 3.41999 35.93 3.51999C36.09 3.60999 36.27 3.69001 36.48 3.76001C36.69 3.83001 36.9 3.9 37.11 3.97C37.33 4.04 37.54 4.13 37.74 4.22C37.94 4.31 38.13 4.43001 38.29 4.57001C38.45 4.71001 38.58 4.87999 38.68 5.07999C38.78 5.27999 38.83 5.52999 38.83 5.82999C38.83 6.13999 38.78 6.43999 38.67 6.70999C38.56 6.98999 38.41 7.21999 38.2 7.42999C37.99 7.62999 37.74 7.79 37.44 7.91C37.14 8.03 36.8 8.09 36.42 8.09C35.95 8.09 35.53 8.01 35.15 7.84C34.77 7.67 34.44 7.44 34.17 7.16L34.45 6.70001C34.48 6.66001 34.51 6.62999 34.55 6.60999C34.59 6.58999 34.63 6.57001 34.68 6.57001C34.72 6.57001 34.77 6.58999 34.83 6.62C34.89 6.66 34.95 6.7 35.02 6.75C35.09 6.8 35.17 6.86001 35.26 6.92001C35.35 6.98001 35.45 7.04 35.57 7.09C35.69 7.14 35.82 7.19 35.96 7.22C36.11 7.26 36.27 7.26999 36.46 7.26999C36.69 7.26999 36.89 7.24001 37.08 7.17001C37.26 7.11001 37.41 7.01999 37.54 6.89999C37.67 6.77999 37.76 6.64999 37.83 6.48999C37.9 6.32999 37.93 6.15001 37.93 5.95001C37.93 5.73001 37.88 5.56001 37.78 5.42001C37.68 5.28001 37.55 5.17001 37.39 5.07001C37.23 4.98001 37.05 4.89999 36.84 4.82999C36.63 4.76999 36.42 4.7 36.21 4.63C36 4.56 35.79 4.48001 35.58 4.39001C35.37 4.30001 35.19 4.18001 35.03 4.04001C34.87 3.90001 34.74 3.72 34.64 3.5C34.54 3.29 34.49 3.02001 34.49 2.70001C34.49 2.45001 34.54 2.2 34.64 1.97C34.74 1.73 34.88 1.52 35.07 1.34C35.26 1.16 35.49 1.00999 35.77 0.899994C36.04 0.789994 36.36 0.73999 36.72 0.73999C37.12 0.73999 37.48 0.799993 37.81 0.929993C38.14 1.05999 38.43 1.24001 38.68 1.48001L38.45 1.95999Z" fill="#5A5E60"/>
<path d="M45.05 1.64996H42.73V7.99997H41.77V1.64996H39.44V0.829956H45.05V1.64996Z" fill="#5A5E60"/>
<path d="M16.51 20H15.65C15.47 20 15.34 19.93 15.26 19.79L13.4 17.23C13.34 17.15 13.28 17.09 13.22 17.06C13.15 17.02 13.05 17.01 12.92 17.01H12.18V20H11.22V12.83H13.24C13.69 12.83 14.09 12.88 14.42 12.97C14.75 13.06 15.02 13.19 15.24 13.37C15.45 13.54 15.61 13.75 15.72 14C15.82 14.24 15.87 14.52 15.87 14.82C15.87 15.07 15.83 15.31 15.75 15.53C15.67 15.75 15.55 15.95 15.4 16.12C15.25 16.29 15.06 16.44 14.84 16.57C14.62 16.69 14.37 16.79 14.1 16.85C14.22 16.92 14.33 17.02 14.42 17.15L16.51 20ZM13.2 16.3C13.48 16.3 13.73 16.27 13.94 16.2C14.15 16.13 14.34 16.03 14.48 15.91C14.62 15.79 14.73 15.64 14.81 15.46C14.88 15.29 14.92 15.09 14.92 14.89C14.92 14.46 14.78 14.14 14.5 13.92C14.22 13.7 13.8 13.59 13.24 13.59H12.18V16.3H13.2Z" fill="#5A5E60"/>
<path d="M23.31 20H22.56C22.47 20 22.4 19.98 22.35 19.94C22.3 19.9 22.26 19.84 22.23 19.77L21.56 18.04H18.34L17.67 19.77C17.65 19.83 17.61 19.88 17.56 19.93C17.5 19.98 17.43 20 17.35 20H16.6L19.47 12.83H20.45L23.31 20ZM21.29 17.34L20.17 14.42C20.14 14.33 20.1 14.23 20.06 14.12C20.02 14 19.99 13.88 19.95 13.75C19.88 14.02 19.81 14.25 19.74 14.42L18.62 17.33H21.29V17.34Z" fill="#5A5E60"/>
<path d="M28.39 13.65H26.07V20H25.1V13.65H22.77V12.83H28.38V13.65H28.39Z" fill="#5A5E60"/>
<path d="M33.87 19.21V20H29.45V12.83H33.87V13.62H30.42V16H33.21V16.76H30.42V19.2H33.87V19.21Z" fill="#5A5E60"/>
</svg>
