<svg width="35" height="9" viewBox="0 0 35 9" fill="none" xmlns="http://www.w3.org/2000/svg">
<path d="M5.88 6.52C5.93 6.52 5.98 6.54 6.02 6.59L6.41 7.00001C6.12 7.34001 5.76 7.61001 5.34 7.79001C4.92 7.98001 4.42 8.08001 3.82 8.08001C3.31 8.08001 2.84 7.99001 2.42 7.81001C2 7.63001 1.64 7.38001 1.35 7.06001C1.05 6.74001 0.820004 6.35001 0.660004 5.90001C0.500004 5.45001 0.410004 4.96001 0.410004 4.42001C0.410004 3.88001 0.490004 3.38001 0.660004 2.94001C0.830004 2.49001 1.07 2.10001 1.38 1.78001C1.69 1.46001 2.06 1.21001 2.49 1.03001C2.92 0.850006 3.39 0.76001 3.91 0.76001C4.42 0.76001 4.87 0.84001 5.26 1.01001C5.65 1.17001 5.99 1.39001 6.29 1.68001L5.97 2.12001C5.95 2.15001 5.92 2.18 5.89 2.2C5.86 2.22 5.82 2.23001 5.76 2.23001C5.7 2.23001 5.63 2.2 5.54 2.13C5.45 2.07 5.34 1.99001 5.2 1.91001C5.06 1.83001 4.89 1.76001 4.68 1.69001C4.47 1.63001 4.21 1.59 3.91 1.59C3.54 1.59 3.2 1.65001 2.89 1.78001C2.58 1.91001 2.32 2.09 2.1 2.34C1.88 2.58 1.71 2.88001 1.58 3.23001C1.46 3.58001 1.39 3.98001 1.39 4.41001C1.39 4.86001 1.45 5.26001 1.58 5.61001C1.71 5.96001 1.88 6.26001 2.1 6.50001C2.32 6.74001 2.58 6.93001 2.88 7.05001C3.18 7.18001 3.51 7.24001 3.86 7.24001C4.07 7.24001 4.27 7.23 4.44 7.2C4.61 7.18 4.77 7.14001 4.92 7.08001C5.07 7.03001 5.2 6.96 5.32 6.88C5.44 6.8 5.57 6.7 5.69 6.59C5.77 6.54 5.83 6.52 5.88 6.52Z" fill="#5A5E60"/>
<path d="M12.83 7.99995H11.97C11.79 7.99995 11.66 7.92996 11.58 7.78996L9.72001 5.22996C9.66001 5.14996 9.60001 5.08995 9.54001 5.05995C9.48001 5.01995 9.37001 5.00996 9.24001 5.00996H8.50001V7.99995H7.54001V0.829956H9.56001C10.01 0.829956 10.41 0.879955 10.74 0.969955C11.07 1.05996 11.34 1.18996 11.56 1.36996C11.77 1.53996 11.93 1.74995 12.04 1.99995C12.14 2.24995 12.19 2.51995 12.19 2.81995C12.19 3.06995 12.15 3.30995 12.07 3.52995C11.99 3.74995 11.87 3.94996 11.72 4.11996C11.57 4.28996 11.38 4.43995 11.16 4.56995C10.94 4.68995 10.69 4.78995 10.42 4.84995C10.54 4.91995 10.65 5.01996 10.74 5.14996L12.83 7.99995ZM9.52001 4.30995C9.80001 4.30995 10.05 4.27995 10.26 4.20995C10.47 4.13995 10.66 4.03995 10.8 3.91995C10.95 3.79995 11.05 3.64996 11.13 3.46996C11.2 3.29996 11.24 3.10996 11.24 2.89996C11.24 2.46996 11.1 2.14995 10.82 1.92995C10.54 1.70995 10.12 1.60995 9.56001 1.60995H8.50001V4.31995H9.52001V4.30995Z" fill="#5A5E60"/>
<path d="M18.22 7.20995V7.99995H13.8V0.829956H18.22V1.61996H14.77V3.99995H17.56V4.75996H14.77V7.19995H18.22V7.20995Z" fill="#5A5E60"/>
<path d="M25.78 4.41995C25.78 4.95995 25.69 5.43995 25.53 5.87995C25.36 6.31995 25.12 6.69996 24.81 7.00996C24.5 7.31996 24.13 7.56995 23.69 7.73995C23.26 7.90995 22.78 7.99995 22.25 7.99995H19.58V0.829956H22.25C22.78 0.829956 23.26 0.919951 23.69 1.08995C24.12 1.25995 24.5 1.50995 24.81 1.81995C25.12 2.13995 25.36 2.50995 25.53 2.94995C25.7 3.38995 25.78 3.87995 25.78 4.41995ZM24.79 4.41995C24.79 3.97995 24.73 3.58995 24.61 3.23995C24.49 2.88995 24.32 2.59995 24.1 2.35995C23.88 2.11995 23.61 1.93995 23.3 1.80995C22.99 1.67995 22.64 1.61996 22.25 1.61996H20.54V7.20995H22.25C22.64 7.20995 22.99 7.14995 23.3 7.01995C23.61 6.88995 23.88 6.70996 24.1 6.46996C24.32 6.22996 24.49 5.93995 24.61 5.58995C24.73 5.24995 24.79 4.85995 24.79 4.41995Z" fill="#5A5E60"/>
<path d="M28.15 7.99995H27.18V0.829956H28.15V7.99995Z" fill="#5A5E60"/>
<path d="M34.82 1.64997H32.5V7.99997H31.54V1.64997H29.21V0.839966H34.82V1.64997Z" fill="#5A5E60"/>
</svg>
