<svg width="81" height="89" viewBox="0 0 81 89" fill="none" xmlns="http://www.w3.org/2000/svg">
<path d="M36.3103 72.3125C56.364 72.3125 72.6207 56.1248 72.6207 36.1562C72.6207 16.1877 56.364 0 36.3103 0C16.2567 0 0 16.1877 0 36.1562C0 56.1248 16.2567 72.3125 36.3103 72.3125Z" fill="#E9EAEB"/>
<path d="M48.9072 87.6094C50.611 87.1227 79.6034 70.2822 79.6034 54.888C79.6034 41.9273 79.6034 37.1853 79.6034 22.1388C71.7828 22.1388 53.7533 13.5169 48.8933 8.34375C44.0333 13.5169 26.0038 22.1388 18.1831 22.1388C18.1831 37.1992 18.1831 41.9273 18.1831 54.888C18.1831 70.2822 47.1755 87.1227 48.8793 87.6094H48.9072Z" fill="white"/>
<path d="M48.8933 8.34375C44.0333 13.5169 26.0038 22.1388 18.1831 22.1388V54.888C18.1831 70.2822 47.1755 87.1227 48.8793 87.6094H48.9072C50.611 87.1227 79.6034 70.2822 79.6034 54.888V22.1388C71.7828 22.1388 53.7533 13.5169 48.8933 8.34375ZM72.6207 53.3166C72.6207 65.2064 50.22 78.2227 48.9072 78.5981H48.8793C47.5666 78.2227 25.1659 65.2064 25.1659 53.3166V28.0072C31.199 28.0072 45.1365 21.3461 48.8933 17.355C52.65 21.3461 66.5876 28.0072 72.6207 28.0072V53.3166Z" fill="#A3D4FF"/>
<path d="M48.9072 87.6094C50.611 87.1227 79.6034 70.2822 79.6034 54.888C79.6034 41.9273 79.6034 37.1853 79.6034 22.1388C71.7828 22.1388 53.7533 13.5169 48.8933 8.34375C44.0333 13.5169 26.0038 22.1388 18.1831 22.1388C18.1831 37.1992 18.1831 41.9273 18.1831 54.888C18.1831 70.2822 47.1755 87.1227 48.8793 87.6094H48.9072Z" stroke="#2A5082" stroke-width="2" stroke-miterlimit="10" stroke-linecap="round" stroke-linejoin="round"/>
<path d="M66.3362 65.5404C69.9113 61.7162 72.6206 57.4469 72.6206 53.3168C72.6206 43.3043 72.6206 39.6469 72.6206 28.0074C66.5875 28.0074 52.65 21.3463 48.8932 17.3552C47.5386 18.8015 44.8572 20.5815 41.701 22.278" stroke="#2A5082" stroke-width="2" stroke-miterlimit="10" stroke-linecap="round" stroke-linejoin="round"/>
<path d="M34.034 25.8098C30.6124 27.1309 27.3585 28.007 25.1659 28.007C25.1659 39.6326 25.1659 43.3039 25.1659 53.3164C25.1659 65.2062 47.5666 78.2225 48.8793 78.5979H48.9073C49.4799 78.4311 53.9768 75.914 58.9205 72.1454" stroke="#2A5082" stroke-width="2" stroke-miterlimit="10" stroke-linecap="round" stroke-linejoin="round"/>
<path d="M13.9655 72.3125V75.0938" stroke="#BCC0C4" stroke-width="2" stroke-miterlimit="10"/>
<path d="M13.9655 77.875V80.6562" stroke="#BCC0C4" stroke-width="2" stroke-miterlimit="10"/>
<path d="M12.569 76.4844H9.77588" stroke="#BCC0C4" stroke-width="2" stroke-miterlimit="10"/>
<path d="M18.1552 76.4844H15.3621" stroke="#BCC0C4" stroke-width="2" stroke-miterlimit="10"/>
<path d="M75.4138 5.5625V8.34375" stroke="#BCC0C4" stroke-width="2" stroke-miterlimit="10"/>
<path d="M75.4138 11.125V13.9062" stroke="#BCC0C4" stroke-width="2" stroke-miterlimit="10"/>
<path d="M74.0172 9.73438H71.2241" stroke="#BCC0C4" stroke-width="2" stroke-miterlimit="10"/>
<path d="M79.6034 9.73438H76.8103" stroke="#BCC0C4" stroke-width="2" stroke-miterlimit="10"/>
<path d="M13.9655 12.5156L11.1724 15.2969" stroke="#BCC0C4" stroke-width="2" stroke-miterlimit="10"/>
<path d="M20.9483 5.5625L18.1552 8.34375" stroke="#BCC0C4" stroke-width="2" stroke-miterlimit="10"/>
<path d="M18.1552 12.5156L20.9483 15.2969" stroke="#BCC0C4" stroke-width="2" stroke-miterlimit="10"/>
<path d="M11.1724 5.5625L13.9655 8.34375" stroke="#BCC0C4" stroke-width="2" stroke-miterlimit="10"/>
<path d="M40.5 45.8906C43.5852 45.8906 46.0862 43.4002 46.0862 40.3281C46.0862 37.256 43.5852 34.7656 40.5 34.7656C37.4148 34.7656 34.9138 37.256 34.9138 40.3281C34.9138 43.4002 37.4148 45.8906 40.5 45.8906Z" stroke="#2A5082" stroke-width="2" stroke-miterlimit="10" stroke-linecap="round"/>
<path d="M57.2586 59.7969C54.1723 59.7969 51.6724 57.3077 51.6724 54.2344C51.6724 51.1611 54.1723 48.6719 57.2586 48.6719C60.345 48.6719 62.8448 51.1611 62.8448 54.2344C62.8448 57.3077 60.345 59.7969 57.2586 59.7969Z" stroke="#2A5082" stroke-width="2" stroke-miterlimit="10" stroke-linecap="round"/>
<path d="M37.7069 59.7969L60.0517 34.7656" stroke="#2A5082" stroke-width="2" stroke-miterlimit="10" stroke-linecap="round"/>
</svg>
