<svg width="49" height="9" viewBox="0 0 49 9" fill="none" xmlns="http://www.w3.org/2000/svg">
<path d="M5.69002 6.52002C5.74002 6.52002 5.79002 6.54002 5.83002 6.59002L6.21002 7.01003C5.92002 7.35003 5.56001 7.62003 5.14001 7.80003C4.72001 7.99003 4.22001 8.09002 3.62001 8.09002C3.11001 8.09002 2.64002 8.00002 2.22002 7.82002C1.80002 7.64002 1.44001 7.39002 1.14001 7.07002C0.840015 6.75002 0.610012 6.36003 0.450012 5.91003C0.290012 5.46003 0.210022 4.97002 0.210022 4.43002C0.210022 3.89002 0.290022 3.39002 0.460022 2.95002C0.630022 2.50002 0.870008 2.11002 1.18001 1.79002C1.49001 1.47002 1.86001 1.22002 2.29001 1.04002C2.72001 0.860024 3.19002 0.77002 3.71002 0.77002C4.22002 0.77002 4.67001 0.85002 5.06001 1.02002C5.45001 1.18002 5.79001 1.40003 6.09001 1.69003L5.77002 2.13002C5.75002 2.16002 5.72002 2.19002 5.69002 2.21002C5.66002 2.23002 5.62001 2.24002 5.56001 2.24002C5.50001 2.24002 5.43001 2.21002 5.34001 2.14002C5.25001 2.08002 5.14002 2.00002 5.00002 1.92002C4.86002 1.84002 4.69001 1.77002 4.48001 1.70002C4.27001 1.64002 4.01002 1.60002 3.71002 1.60002C3.34002 1.60002 3.00002 1.66002 2.69002 1.79002C2.38002 1.92002 2.12001 2.10002 1.90001 2.35002C1.68001 2.59002 1.51002 2.89002 1.38002 3.24002C1.26002 3.59002 1.20001 3.99002 1.20001 4.42002C1.20001 4.87002 1.26001 5.27003 1.39001 5.62003C1.52001 5.97003 1.69001 6.27003 1.92001 6.51003C2.14001 6.75002 2.40002 6.94002 2.71002 7.06002C3.01002 7.19002 3.34002 7.25002 3.69002 7.25002C3.90002 7.25002 4.10002 7.24002 4.27002 7.21002C4.44002 7.19002 4.60002 7.15002 4.74002 7.09002C4.89002 7.04002 5.02001 6.97002 5.15001 6.89002C5.27001 6.81002 5.40002 6.71002 5.52002 6.60002C5.57002 6.54002 5.63002 6.52002 5.69002 6.52002Z" fill="#5A5E60"/>
<path d="M13.16 7.99995H12.41C12.32 7.99995 12.25 7.97996 12.2 7.93996C12.15 7.89996 12.11 7.83995 12.08 7.76995L11.41 6.03996H8.19002L7.52002 7.76995C7.50002 7.82995 7.46002 7.87995 7.41002 7.92995C7.35002 7.97995 7.28001 7.99995 7.20001 7.99995H6.45001L9.32002 0.829956H10.3L13.16 7.99995ZM11.14 5.33995L10.02 2.41995C9.99002 2.32995 9.95001 2.22996 9.92001 2.11996C9.88001 1.99996 9.85001 1.87995 9.81001 1.74995C9.74001 2.01995 9.67002 2.24995 9.60002 2.42995L8.48001 5.33995H11.14Z" fill="#5A5E60"/>
<path d="M19.4 7.99995H18.54C18.36 7.99995 18.23 7.92996 18.15 7.78996L16.29 5.22996C16.23 5.14996 16.17 5.08995 16.11 5.05995C16.05 5.02995 15.94 5.00996 15.81 5.00996H15.07V7.99995H14.11V0.829956H16.14C16.59 0.829956 16.99 0.879955 17.32 0.969955C17.65 1.05996 17.92 1.18996 18.14 1.36996C18.35 1.53996 18.52 1.74995 18.62 1.99995C18.72 2.24995 18.77 2.51995 18.77 2.81995C18.77 3.06995 18.73 3.30995 18.65 3.52995C18.57 3.74995 18.45 3.94996 18.3 4.11996C18.15 4.28996 17.96 4.43995 17.74 4.56995C17.52 4.68995 17.27 4.78995 17 4.84995C17.12 4.91995 17.23 5.01996 17.32 5.14996L19.4 7.99995ZM16.09 4.30995C16.37 4.30995 16.62 4.27995 16.83 4.20995C17.04 4.13995 17.22 4.03995 17.37 3.91995C17.52 3.79995 17.62 3.64996 17.7 3.46996C17.77 3.29996 17.81 3.10996 17.81 2.89996C17.81 2.46996 17.67 2.14995 17.39 1.92995C17.11 1.70995 16.69 1.60995 16.13 1.60995H15.07V4.31995H16.09V4.30995Z" fill="#5A5E60"/>
<path d="M27 7.18996V7.99995H22.94V0.829956H23.9V7.17995H27V7.18996Z" fill="#5A5E60"/>
<path d="M34.35 4.42C34.35 4.96 34.26 5.45 34.09 5.9C33.92 6.35 33.68 6.73 33.37 7.06C33.06 7.38 32.69 7.63 32.25 7.81C31.82 7.99 31.34 8.08 30.81 8.08C30.28 8.08 29.8 7.99 29.37 7.81C28.94 7.63 28.56 7.38 28.25 7.06C27.94 6.74 27.7 6.35 27.53 5.9C27.36 5.45 27.28 4.96 27.28 4.42C27.28 3.88 27.37 3.39 27.53 2.94C27.7 2.49 27.94 2.11 28.25 1.78C28.56 1.45 28.93 1.2 29.37 1.02C29.8 0.839997 30.28 0.75 30.81 0.75C31.34 0.75 31.82 0.839997 32.25 1.02C32.69 1.2 33.06 1.45 33.37 1.78C33.68 2.1 33.92 2.49 34.09 2.94C34.27 3.39 34.35 3.88 34.35 4.42ZM33.36 4.42C33.36 3.98 33.3 3.59 33.18 3.24C33.06 2.89 32.89 2.59 32.67 2.35C32.45 2.11 32.18 1.92 31.87 1.79C31.56 1.66 31.21 1.6 30.82 1.6C30.44 1.6 30.09 1.67 29.78 1.79C29.47 1.92 29.2 2.11 28.98 2.35C28.76 2.59 28.59 2.89 28.47 3.24C28.35 3.59 28.29 3.99 28.29 4.42C28.29 4.86 28.35 5.25 28.47 5.6C28.59 5.95 28.76 6.24 28.98 6.48C29.2 6.72 29.47 6.91 29.78 7.04C30.09 7.17 30.44 7.23 30.82 7.23C31.21 7.23 31.56 7.17 31.87 7.04C32.18 6.91 32.45 6.73 32.67 6.48C32.89 6.24 33.06 5.94 33.18 5.6C33.3 5.25 33.36 4.86 33.36 4.42Z" fill="#5A5E60"/>
<path d="M41.37 7.99995H40.62C40.53 7.99995 40.46 7.97996 40.41 7.93996C40.36 7.89996 40.32 7.83995 40.29 7.76995L39.62 6.03996H36.41L35.74 7.76995C35.72 7.82995 35.68 7.87995 35.62 7.92995C35.56 7.97995 35.49 7.99995 35.41 7.99995H34.66L37.53 0.829956H38.51L41.37 7.99995ZM39.35 5.33995L38.23 2.41995C38.2 2.32995 38.16 2.22996 38.12 2.11996C38.08 1.99996 38.05 1.87995 38.01 1.74995C37.94 2.01995 37.87 2.24995 37.8 2.42995L36.68 5.33995H39.35Z" fill="#5A5E60"/>
<path d="M48.12 0.829956V7.99995H47.63C47.55 7.99995 47.49 7.98995 47.44 7.95995C47.39 7.92995 47.34 7.88996 47.29 7.82996L43.15 2.42995C43.16 2.50995 43.16 2.59995 43.16 2.67995C43.16 2.75995 43.17 2.83996 43.17 2.90996V7.99995H42.32V0.829956H42.82C42.86 0.829956 42.9 0.829951 42.93 0.839951C42.96 0.849951 42.99 0.849957 43.01 0.869957C43.03 0.879957 43.06 0.899952 43.08 0.919952C43.1 0.939952 43.13 0.969954 43.15 0.999954L47.3 6.38995C47.29 6.29995 47.29 6.21995 47.28 6.13995C47.28 6.05995 47.27 5.97996 47.27 5.90996V0.829956H48.12Z" fill="#5A5E60"/>
</svg>
