<svg width="73" height="9" viewBox="0 0 73 9" fill="none" xmlns="http://www.w3.org/2000/svg">
<path d="M6.89001 4.4201C6.89001 4.9601 6.81001 5.4501 6.64001 5.8801C6.47001 6.3201 6.23001 6.7001 5.92001 7.0101C5.61001 7.3201 5.23999 7.56008 4.79999 7.74008C4.35999 7.91008 3.87999 8.00009 3.35999 8.00009H0.690002V0.830078H3.35999C3.88999 0.830078 4.36999 0.920088 4.79999 1.09009C5.22999 1.26009 5.61001 1.5101 5.92001 1.8201C6.23001 2.1401 6.47001 2.5101 6.64001 2.9501C6.80001 3.3901 6.89001 3.88011 6.89001 4.4201ZM5.89001 4.4201C5.89001 3.9801 5.82999 3.59008 5.70999 3.24008C5.58999 2.89008 5.42001 2.60008 5.20001 2.36008C4.98001 2.12008 4.70999 1.94009 4.39999 1.81009C4.08999 1.68009 3.74001 1.62009 3.35001 1.62009H1.64001V7.21008H3.35001C3.74001 7.21008 4.08999 7.15008 4.39999 7.02008C4.70999 6.89008 4.98001 6.71009 5.20001 6.47009C5.42001 6.23009 5.58999 5.94009 5.70999 5.59009C5.82999 5.25009 5.89001 4.86011 5.89001 4.4201Z" fill="#5A5E60"/>
<path d="M10.58 5.14008V8.00006H9.60999V5.14008L6.98999 0.830048H7.84C7.93 0.830048 7.99999 0.850076 8.04999 0.890076C8.09999 0.930076 8.13999 0.990049 8.17999 1.05005L9.82001 3.84006C9.88001 3.96006 9.93999 4.06007 9.98999 4.17007C10.04 4.27007 10.08 4.38007 10.12 4.48007C10.16 4.38007 10.2 4.27007 10.24 4.17007C10.29 4.07007 10.34 3.96006 10.4 3.84006L12.03 1.05005C12.06 0.990049 12.1 0.940076 12.15 0.890076C12.2 0.840076 12.27 0.820068 12.36 0.820068H13.21L10.58 5.14008Z" fill="#5A5E60"/>
<path d="M19.94 0.830078V8.00009H19.45C19.37 8.00009 19.31 7.99008 19.26 7.96008C19.21 7.93008 19.16 7.89008 19.11 7.83008L14.96 2.43008C14.97 2.51008 14.97 2.60008 14.97 2.68008C14.97 2.76008 14.98 2.84009 14.98 2.90009V8.00009H14.13V0.830078H14.63C14.67 0.830078 14.71 0.830088 14.74 0.840088C14.77 0.850088 14.8 0.850087 14.82 0.870087C14.84 0.880087 14.87 0.900105 14.89 0.920105C14.91 0.940105 14.94 0.970092 14.97 1.00009L19.12 6.39011C19.11 6.30011 19.11 6.22011 19.1 6.14011C19.1 6.06011 19.09 5.9801 19.09 5.9101V0.830078H19.94Z" fill="#5A5E60"/>
<path d="M27.59 8.00009H26.84C26.75 8.00009 26.68 7.98009 26.63 7.94009C26.58 7.90009 26.54 7.84008 26.51 7.77008L25.84 6.0401H22.63L21.96 7.77008C21.94 7.83008 21.9 7.88008 21.84 7.93008C21.78 7.98008 21.71 8.00009 21.63 8.00009H20.88L23.75 0.830078H24.73L27.59 8.00009ZM25.58 5.34009L24.46 2.4201C24.43 2.3301 24.39 2.23009 24.35 2.12009C24.31 2.00009 24.28 1.88009 24.24 1.75009C24.17 2.02009 24.1 2.25011 24.03 2.4201L22.91 5.33008H25.58V5.34009Z" fill="#5A5E60"/>
<path d="M36 0.830078V8.00009H35.15V2.7301C35.15 2.6601 35.15 2.5901 35.16 2.5101C35.16 2.4301 35.17 2.35008 35.18 2.27008L32.72 6.75009C32.64 6.90009 32.53 6.9801 32.37 6.9801H32.23C32.07 6.9801 31.96 6.90009 31.88 6.75009L29.37 2.25009C29.39 2.43009 29.4 2.59008 29.4 2.74008V8.00009H28.55V0.830078H29.26C29.35 0.830078 29.41 0.840098 29.46 0.850098C29.51 0.870098 29.55 0.910082 29.59 0.990082L32.06 5.40009C32.1 5.48009 32.14 5.56009 32.18 5.65009C32.22 5.74009 32.25 5.8201 32.29 5.9101C32.32 5.8201 32.36 5.73011 32.39 5.64011C32.43 5.55011 32.47 5.47011 32.51 5.39011L34.94 0.990082C34.98 0.910082 35.03 0.870098 35.07 0.850098C35.12 0.830098 35.19 0.830078 35.27 0.830078H36Z" fill="#5A5E60"/>
<path d="M38.79 8.00009H37.82V0.830078H38.79V8.00009Z" fill="#5A5E60"/>
<path d="M45.65 6.52002C45.7 6.52002 45.75 6.54003 45.79 6.59003L46.17 7.01004C45.88 7.35004 45.52 7.62002 45.1 7.80002C44.68 7.99002 44.18 8.09003 43.58 8.09003C43.07 8.09003 42.6 8.00004 42.18 7.82004C41.76 7.64004 41.4 7.39004 41.11 7.07004C40.81 6.75004 40.58 6.36003 40.42 5.91003C40.26 5.46003 40.17 4.97002 40.17 4.43002C40.17 3.89002 40.25 3.39004 40.42 2.95004C40.59 2.50004 40.83 2.11004 41.14 1.79004C41.45 1.47004 41.82 1.22004 42.25 1.04004C42.68 0.860039 43.16 0.77002 43.67 0.77002C44.18 0.77002 44.63 0.85002 45.02 1.02002C45.41 1.18002 45.75 1.40003 46.05 1.69003L45.73 2.13004C45.71 2.16004 45.68 2.19002 45.65 2.21002C45.62 2.23002 45.58 2.24002 45.52 2.24002C45.46 2.24002 45.39 2.21005 45.3 2.14005C45.21 2.08005 45.1 2.00004 44.96 1.92004C44.82 1.84004 44.65 1.77004 44.44 1.70004C44.23 1.63004 43.97 1.60004 43.66 1.60004C43.29 1.60004 42.95 1.66004 42.65 1.79004C42.34 1.92004 42.08 2.10004 41.86 2.35004C41.64 2.59004 41.47 2.89002 41.34 3.24002C41.22 3.59002 41.16 3.99002 41.16 4.43002C41.16 4.88002 41.22 5.28004 41.35 5.63004C41.48 5.98004 41.65 6.28002 41.88 6.52002C42.1 6.76002 42.36 6.95004 42.66 7.07004C42.96 7.20004 43.29 7.26004 43.64 7.26004C43.85 7.26004 44.05 7.25003 44.22 7.22003C44.39 7.20003 44.55 7.16004 44.69 7.10004C44.84 7.05004 44.97 6.98002 45.1 6.90002C45.22 6.82002 45.35 6.72002 45.47 6.61002C45.54 6.54002 45.6 6.52002 45.65 6.52002Z" fill="#5A5E60"/>
<path d="M55.16 8.00009H54.3C54.12 8.00009 53.99 7.9301 53.91 7.7901L52.05 5.2301C51.99 5.1501 51.93 5.09009 51.87 5.06009C51.8 5.02009 51.7 5.0101 51.57 5.0101H50.83V8.00009H49.87V0.830078H51.9C52.35 0.830078 52.74 0.880093 53.07 0.970093C53.4 1.06009 53.67 1.19009 53.89 1.37009C54.1 1.54009 54.26 1.75009 54.37 2.00009C54.47 2.24009 54.53 2.5201 54.53 2.8201C54.53 3.0701 54.49 3.31009 54.41 3.53009C54.33 3.75009 54.21 3.95009 54.06 4.12009C53.91 4.29009 53.72 4.4401 53.51 4.5701C53.29 4.6901 53.04 4.7901 52.77 4.8501C52.89 4.9201 53 5.02009 53.09 5.15009L55.16 8.00009ZM51.85 4.30008C52.13 4.30008 52.38 4.2701 52.59 4.2001C52.8 4.1301 52.99 4.0301 53.13 3.9101C53.28 3.7901 53.38 3.64008 53.46 3.46008C53.53 3.29008 53.57 3.09011 53.57 2.89011C53.57 2.46011 53.43 2.14011 53.15 1.9201C52.87 1.7001 52.45 1.59009 51.89 1.59009H50.83V4.30008H51.85Z" fill="#5A5E60"/>
<path d="M61.96 8.00009H61.21C61.12 8.00009 61.05 7.98009 61 7.94009C60.95 7.90009 60.91 7.84008 60.88 7.77008L60.21 6.0401H56.99L56.32 7.77008C56.3 7.83008 56.26 7.88008 56.21 7.93008C56.15 7.98008 56.08 8.00009 56 8.00009H55.25L58.12 0.830078H59.1L61.96 8.00009ZM59.93 5.34009L58.81 2.4201C58.78 2.3301 58.74 2.23009 58.71 2.12009C58.67 2.00009 58.64 1.88009 58.6 1.75009C58.53 2.02009 58.46 2.25011 58.39 2.4201L57.27 5.33008H59.93V5.34009Z" fill="#5A5E60"/>
<path d="M67.04 1.65009H64.72V8.00009H63.76V1.65009H61.43V0.830078H67.04V1.65009Z" fill="#5A5E60"/>
<path d="M72.52 7.21008V8.00009H68.1V0.830078H72.52V1.62009H69.07V4.00009H71.86V4.7601H69.07V7.2001H72.52V7.21008Z" fill="#5A5E60"/>
</svg>
