<svg width="42" height="9" viewBox="0 0 42 9" fill="none" xmlns="http://www.w3.org/2000/svg">
<path d="M6.83001 4.41998C6.83001 4.95998 6.75001 5.44997 6.58001 5.87997C6.41001 6.31997 6.17001 6.69998 5.86001 7.00998C5.55001 7.31998 5.18001 7.55996 4.74001 7.73996C4.30001 7.90996 3.82001 7.99997 3.30001 7.99997H0.630005V0.829956H3.30001C3.83001 0.829956 4.31001 0.919966 4.74001 1.08997C5.17001 1.25997 5.55001 1.50998 5.86001 1.81998C6.17001 2.13998 6.41001 2.50998 6.58001 2.94998C6.74001 3.38998 6.83001 3.87998 6.83001 4.41998ZM5.83001 4.41998C5.83001 3.97998 5.77001 3.58996 5.65001 3.23996C5.53001 2.88996 5.36001 2.59995 5.14001 2.35995C4.92001 2.11995 4.65 1.93997 4.34 1.80997C4.03 1.67997 3.68001 1.61996 3.29001 1.61996H1.58001V7.20996H3.29001C3.68001 7.20996 4.03 7.14996 4.34 7.01996C4.65 6.88996 4.92001 6.70997 5.14001 6.46997C5.36001 6.22997 5.53001 5.93997 5.65001 5.58997C5.77001 5.24997 5.83001 4.85998 5.83001 4.41998Z" fill="#5A5E60"/>
<path d="M12.64 7.20996V7.99997H8.23001V0.829956H12.64V1.61996H9.19002V3.99997H11.98V4.75998H9.19002V7.19998H12.64V7.20996Z" fill="#5A5E60"/>
<path d="M16.11 0.829956C16.56 0.829956 16.96 0.87996 17.29 0.98996C17.63 1.09996 17.9 1.23997 18.12 1.43997C18.34 1.62997 18.5 1.86998 18.61 2.13998C18.72 2.40998 18.77 2.71996 18.77 3.04996C18.77 3.37996 18.71 3.68997 18.59 3.96997C18.47 4.24997 18.3 4.47996 18.08 4.67996C17.85 4.87996 17.58 5.03996 17.25 5.14996C16.92 5.25996 16.54 5.31998 16.1 5.31998H14.95V7.99997H14V0.829956H16.11ZM16.11 4.54996C16.39 4.54996 16.63 4.50997 16.84 4.43997C17.05 4.36997 17.23 4.25997 17.37 4.12997C17.52 3.99997 17.62 3.83997 17.7 3.65997C17.77 3.47997 17.81 3.27996 17.81 3.04996C17.81 2.58996 17.67 2.23998 17.39 1.97998C17.11 1.71998 16.68 1.59998 16.11 1.59998H14.96V4.54996H16.11Z" fill="#5A5E60"/>
<path d="M26.62 4.42001C26.62 4.96001 26.53 5.44999 26.36 5.89999C26.19 6.34999 25.95 6.73 25.64 7.06C25.33 7.38 24.96 7.63 24.52 7.81C24.08 7.99 23.6 8.07999 23.08 8.07999C22.55 8.07999 22.07 7.99 21.64 7.81C21.21 7.63 20.83 7.38 20.52 7.06C20.21 6.74 19.97 6.34999 19.8 5.89999C19.63 5.44999 19.55 4.96001 19.55 4.42001C19.55 3.88001 19.63 3.39 19.8 2.94C19.97 2.49 20.21 2.1 20.52 1.78C20.83 1.45 21.2 1.19999 21.64 1.01999C22.07 0.839989 22.55 0.75 23.08 0.75C23.61 0.75 24.09 0.839989 24.52 1.01999C24.96 1.19999 25.33 1.45 25.64 1.78C25.95 2.1 26.19 2.49 26.36 2.94C26.54 3.39 26.62 3.88001 26.62 4.42001ZM25.63 4.42001C25.63 3.98001 25.57 3.59001 25.45 3.23001C25.33 2.88001 25.16 2.59 24.94 2.34C24.72 2.1 24.45 1.91 24.14 1.78C23.83 1.65 23.48 1.59 23.09 1.59C22.71 1.59 22.36 1.65 22.05 1.78C21.74 1.91 21.47 2.1 21.25 2.34C21.03 2.58 20.86 2.88001 20.74 3.23001C20.62 3.58001 20.56 3.98001 20.56 4.42001C20.56 4.86001 20.62 5.25001 20.74 5.60001C20.86 5.95001 21.03 6.24001 21.25 6.48001C21.47 6.72001 21.74 6.91001 22.05 7.04001C22.36 7.17001 22.71 7.23001 23.09 7.23001C23.48 7.23001 23.83 7.17001 24.14 7.04001C24.45 6.91001 24.72 6.73001 24.94 6.48001C25.16 6.24001 25.33 5.94001 25.45 5.60001C25.57 5.25001 25.63 4.86001 25.63 4.42001Z" fill="#5A5E60"/>
<path d="M31.67 1.95999C31.64 2.00999 31.61 2.05001 31.57 2.07001C31.53 2.09001 31.49 2.10999 31.44 2.10999C31.38 2.10999 31.32 2.07999 31.24 2.01999C31.16 1.95999 31.07 1.89999 30.95 1.82999C30.83 1.75999 30.7 1.70001 30.53 1.64001C30.37 1.58001 30.17 1.56 29.94 1.56C29.72 1.56 29.53 1.58999 29.37 1.64999C29.2 1.70999 29.07 1.79001 28.95 1.89001C28.84 1.99001 28.75 2.10999 28.7 2.23999C28.64 2.37999 28.61 2.51999 28.61 2.67999C28.61 2.87999 28.66 3.04999 28.76 3.17999C28.86 3.30999 28.99 3.41999 29.15 3.51999C29.31 3.60999 29.49 3.69001 29.7 3.76001C29.91 3.83001 30.12 3.9 30.33 3.97C30.55 4.04 30.76 4.13 30.96 4.22C31.16 4.31 31.35 4.43001 31.51 4.57001C31.67 4.71001 31.8 4.87999 31.9 5.07999C32 5.27999 32.05 5.52999 32.05 5.82999C32.05 6.13999 32 6.43999 31.89 6.70999C31.78 6.98999 31.63 7.21999 31.42 7.42999C31.21 7.62999 30.96 7.79 30.66 7.91C30.36 8.03 30.02 8.09 29.64 8.09C29.17 8.09 28.75 8.01 28.37 7.84C27.99 7.67 27.66 7.44 27.39 7.16L27.67 6.70001C27.7 6.66001 27.73 6.62999 27.77 6.60999C27.81 6.58999 27.85 6.57001 27.9 6.57001C27.94 6.57001 27.99 6.58999 28.05 6.62C28.11 6.66 28.17 6.7 28.24 6.75C28.31 6.8 28.39 6.86001 28.48 6.92001C28.57 6.98001 28.67 7.04 28.79 7.09C28.91 7.14 29.04 7.19 29.18 7.22C29.33 7.26 29.49 7.26999 29.68 7.26999C29.91 7.26999 30.11 7.24001 30.3 7.17001C30.48 7.11001 30.63 7.01999 30.76 6.89999C30.89 6.77999 30.98 6.64999 31.05 6.48999C31.12 6.32999 31.15 6.15001 31.15 5.95001C31.15 5.73001 31.1 5.56001 31 5.42001C30.9 5.28001 30.77 5.17001 30.61 5.07001C30.45 4.98001 30.27 4.89999 30.06 4.82999C29.85 4.76999 29.64 4.7 29.43 4.63C29.22 4.56 29.01 4.48001 28.8 4.39001C28.59 4.30001 28.41 4.18001 28.25 4.04001C28.09 3.90001 27.96 3.72 27.86 3.5C27.76 3.29 27.71 3.02001 27.71 2.70001C27.71 2.45001 27.76 2.2 27.86 1.97C27.96 1.73 28.1 1.52 28.29 1.34C28.48 1.16 28.71 1.00999 28.99 0.899994C29.26 0.789994 29.58 0.73999 29.94 0.73999C30.34 0.73999 30.7 0.799993 31.03 0.929993C31.36 1.05999 31.65 1.24001 31.9 1.48001L31.67 1.95999Z" fill="#5A5E60"/>
<path d="M34.4 7.99997H33.43V0.829956H34.4V7.99997Z" fill="#5A5E60"/>
<path d="M41.08 1.64996H38.76V7.99997H37.8V1.64996H35.47V0.829956H41.08V1.64996Z" fill="#5A5E60"/>
</svg>
