<svg width="54" height="21" viewBox="0 0 54 21" fill="none" xmlns="http://www.w3.org/2000/svg">
<path d="M19.31 1.95999C19.28 2.00999 19.25 2.05001 19.21 2.07001C19.17 2.09001 19.13 2.10999 19.08 2.10999C19.02 2.10999 18.96 2.07999 18.88 2.01999C18.8 1.95999 18.71 1.89999 18.59 1.82999C18.47 1.75999 18.34 1.70001 18.17 1.64001C18.01 1.58001 17.81 1.56 17.58 1.56C17.36 1.56 17.17 1.58999 17.01 1.64999C16.84 1.70999 16.71 1.79001 16.59 1.89001C16.48 1.99001 16.39 2.10999 16.34 2.23999C16.28 2.37999 16.26 2.51999 16.26 2.67999C16.26 2.87999 16.31 3.04999 16.41 3.17999C16.51 3.30999 16.64 3.41999 16.8 3.51999C16.96 3.60999 17.14 3.69001 17.35 3.76001C17.56 3.83001 17.77 3.9 17.98 3.97C18.19 4.04 18.4 4.13 18.61 4.22C18.82 4.31 19 4.43001 19.16 4.57001C19.32 4.71001 19.45 4.87999 19.55 5.07999C19.65 5.27999 19.7 5.52999 19.7 5.82999C19.7 6.13999 19.65 6.43999 19.54 6.70999C19.43 6.98999 19.28 7.21999 19.07 7.42999C18.86 7.62999 18.61 7.79 18.32 7.91C18.02 8.03 17.68 8.09 17.3 8.09C16.83 8.09 16.41 8.01 16.03 7.84C15.65 7.67 15.32 7.44 15.05 7.16L15.33 6.70001C15.36 6.66001 15.39 6.62999 15.43 6.60999C15.47 6.58999 15.51 6.57001 15.56 6.57001C15.6 6.57001 15.65 6.58999 15.71 6.62C15.77 6.66 15.83 6.7 15.9 6.75C15.97 6.8 16.05 6.86001 16.14 6.92001C16.23 6.98001 16.33 7.04 16.45 7.09C16.57 7.14 16.7 7.19 16.84 7.22C16.99 7.26 17.15 7.26999 17.34 7.26999C17.57 7.26999 17.77 7.24001 17.96 7.17001C18.14 7.11001 18.29 7.01999 18.42 6.89999C18.55 6.77999 18.64 6.64999 18.71 6.48999C18.78 6.32999 18.81 6.15001 18.81 5.95001C18.81 5.73001 18.76 5.56001 18.66 5.42001C18.56 5.28001 18.43 5.17001 18.27 5.07001C18.11 4.98001 17.93 4.89999 17.72 4.82999C17.51 4.76999 17.3 4.7 17.09 4.63C16.88 4.56 16.67 4.48001 16.46 4.39001C16.25 4.30001 16.07 4.18001 15.91 4.04001C15.75 3.90001 15.62 3.72 15.52 3.5C15.42 3.29 15.37 3.02001 15.37 2.70001C15.37 2.45001 15.42 2.2 15.52 1.97C15.62 1.73 15.76 1.52 15.95 1.34C16.14 1.16 16.37 1.00999 16.65 0.899994C16.92 0.789994 17.24 0.73999 17.6 0.73999C18 0.73999 18.36 0.799993 18.69 0.929993C19.02 1.05999 19.31 1.24001 19.56 1.48001L19.31 1.95999Z" fill="#5A5E60"/>
<path d="M22.04 7.99997H21.07V0.829956H22.04V7.99997Z" fill="#5A5E60"/>
<path d="M29.69 4.54999V7.29999C29.33 7.55999 28.95 7.76 28.54 7.88C28.13 8.01 27.68 8.07001 27.2 8.07001C26.62 8.07001 26.1 7.97999 25.64 7.79999C25.18 7.61999 24.78 7.36999 24.45 7.04999C24.12 6.72999 23.87 6.34001 23.69 5.89001C23.51 5.44001 23.43 4.95 23.43 4.41C23.43 3.86 23.52 3.37 23.69 2.91C23.86 2.46 24.11 2.08 24.42 1.75C24.74 1.43 25.12 1.18 25.58 1C26.03 0.82 26.54 0.73999 27.1 0.73999C27.38 0.73999 27.65 0.759988 27.89 0.799988C28.13 0.839988 28.36 0.900011 28.56 0.980011C28.77 1.06001 28.96 1.14999 29.14 1.26999C29.32 1.37999 29.48 1.50999 29.64 1.64999L29.36 2.09C29.32 2.16 29.26 2.2 29.19 2.22C29.12 2.24 29.05 2.22001 28.96 2.17001C28.88 2.12001 28.79 2.07 28.68 2C28.57 1.93 28.45 1.87 28.3 1.81C28.15 1.75 27.98 1.69999 27.77 1.64999C27.57 1.60999 27.33 1.59 27.05 1.59C26.65 1.59 26.28 1.65001 25.96 1.79001C25.63 1.92001 25.35 2.11001 25.12 2.35001C24.89 2.60001 24.71 2.88999 24.59 3.23999C24.47 3.58999 24.41 3.98 24.41 4.41C24.41 4.86 24.47 5.25999 24.6 5.62C24.73 5.98 24.91 6.28 25.15 6.53C25.39 6.78 25.68 6.97001 26.02 7.10001C26.36 7.23001 26.74 7.29999 27.17 7.29999C27.5 7.29999 27.8 7.26 28.06 7.19C28.32 7.11 28.57 7.01 28.82 6.88V5.29999H27.71C27.65 5.29999 27.6 5.28 27.56 5.25C27.52 5.21 27.5 5.17 27.5 5.12V4.57001H29.69V4.54999Z" fill="#5A5E60"/>
<path d="M36.98 0.829956V7.99997H36.49C36.41 7.99997 36.35 7.98996 36.3 7.95996C36.25 7.92996 36.2 7.88996 36.15 7.82996L32.01 2.42996C32.02 2.50996 32.02 2.59996 32.02 2.67996C32.02 2.75996 32.02 2.83996 32.02 2.89996V7.99997H31.17V0.829956H31.67C31.71 0.829956 31.75 0.829966 31.78 0.839966C31.81 0.849966 31.84 0.849965 31.86 0.869965C31.88 0.879965 31.91 0.899983 31.93 0.919983C31.95 0.939983 31.98 0.969969 32.01 0.999969L36.15 6.38998C36.14 6.29998 36.14 6.21998 36.13 6.13998C36.13 6.05998 36.12 5.97997 36.12 5.90997V0.829956H36.98Z" fill="#5A5E60"/>
<path d="M5.64998 18.52C5.69998 18.52 5.74998 18.54 5.78998 18.59L6.17998 19.01C5.88998 19.35 5.52999 19.62 5.10999 19.8C4.68999 19.99 4.18998 20.09 3.58998 20.09C3.07998 20.09 2.60999 20 2.18999 19.82C1.76999 19.64 1.40999 19.39 1.10999 19.07C0.809985 18.75 0.579983 18.36 0.419983 17.91C0.259983 17.46 0.169983 16.97 0.169983 16.43C0.169983 15.89 0.249983 15.39 0.419983 14.95C0.589983 14.5 0.829984 14.11 1.13998 13.79C1.44998 13.47 1.81998 13.22 2.24998 13.04C2.67998 12.86 3.14998 12.77 3.66998 12.77C4.17998 12.77 4.62999 12.85 5.01999 13.02C5.40999 13.18 5.74999 13.4 6.04999 13.69L5.72998 14.13C5.70998 14.16 5.67998 14.19 5.64998 14.21C5.61998 14.23 5.57999 14.24 5.51999 14.24C5.45999 14.24 5.38999 14.21 5.29999 14.14C5.20999 14.08 5.09999 14 4.95999 13.92C4.81999 13.84 4.63998 13.77 4.42998 13.7C4.21998 13.63 3.95999 13.6 3.65999 13.6C3.28999 13.6 2.94998 13.66 2.63998 13.79C2.32998 13.92 2.06999 14.1 1.84999 14.35C1.62999 14.59 1.45999 14.89 1.32999 15.24C1.20999 15.59 1.13998 15.99 1.13998 16.43C1.13998 16.88 1.19999 17.28 1.32999 17.63C1.45999 17.98 1.62999 18.28 1.84999 18.52C2.06999 18.76 2.32998 18.95 2.63998 19.07C2.93998 19.2 3.26998 19.26 3.61998 19.26C3.82998 19.26 4.02998 19.25 4.19998 19.22C4.36998 19.2 4.52998 19.16 4.67998 19.1C4.81998 19.05 4.95999 18.98 5.07999 18.9C5.19999 18.82 5.32998 18.72 5.44998 18.61C5.52998 18.54 5.58998 18.52 5.64998 18.52Z" fill="#5A5E60"/>
<path d="M13.78 16.42C13.78 16.96 13.69 17.45 13.53 17.9C13.36 18.35 13.12 18.73 12.81 19.06C12.5 19.38 12.13 19.63 11.69 19.81C11.26 19.99 10.77 20.08 10.25 20.08C9.71997 20.08 9.23997 19.99 8.80997 19.81C8.37997 19.63 7.99997 19.38 7.68997 19.06C7.37997 18.74 7.13997 18.35 6.96997 17.9C6.79997 17.45 6.71997 16.96 6.71997 16.42C6.71997 15.88 6.79997 15.39 6.96997 14.94C7.13997 14.49 7.37997 14.1 7.68997 13.78C7.99997 13.45 8.36997 13.2 8.80997 13.02C9.23997 12.84 9.71997 12.75 10.25 12.75C10.78 12.75 11.26 12.84 11.69 13.02C12.13 13.2 12.5 13.45 12.81 13.78C13.12 14.1 13.36 14.49 13.53 14.94C13.69 15.39 13.78 15.88 13.78 16.42ZM12.78 16.42C12.78 15.98 12.72 15.59 12.6 15.23C12.48 14.88 12.31 14.59 12.09 14.34C11.87 14.1 11.6 13.91 11.29 13.78C10.98 13.65 10.63 13.59 10.24 13.59C9.85997 13.59 9.50997 13.65 9.19997 13.78C8.88997 13.91 8.61996 14.1 8.39996 14.34C8.17996 14.58 8.00997 14.88 7.88997 15.23C7.76997 15.58 7.70998 15.98 7.70998 16.42C7.70998 16.86 7.76997 17.25 7.88997 17.6C8.00997 17.95 8.17996 18.24 8.39996 18.48C8.61996 18.72 8.88997 18.91 9.19997 19.04C9.50997 19.17 9.85997 19.23 10.24 19.23C10.63 19.23 10.98 19.17 11.29 19.04C11.6 18.91 11.87 18.73 12.09 18.48C12.31 18.24 12.48 17.94 12.6 17.6C12.72 17.25 12.78 16.86 12.78 16.42Z" fill="#5A5E60"/>
<path d="M20.97 12.83V20H20.48C20.4 20 20.34 19.99 20.29 19.96C20.24 19.93 20.19 19.89 20.14 19.83L15.99 14.43C16 14.51 16 14.6 16 14.68C16 14.76 16.01 14.84 16.01 14.9V20H15.16V12.83H15.66C15.7 12.83 15.74 12.83 15.77 12.84C15.8 12.85 15.83 12.85 15.85 12.87C15.87 12.88 15.9 12.9 15.92 12.92C15.94 12.94 15.97 12.97 16 13L20.15 18.39C20.14 18.3 20.14 18.22 20.13 18.14C20.13 18.06 20.12 17.98 20.12 17.91V12.83H20.97Z" fill="#5A5E60"/>
<path d="M27.64 13.65H25.32V20H24.36V13.65H22.03V12.83H27.64V13.65Z" fill="#5A5E60"/>
<path d="M34 20H33.14C32.96 20 32.83 19.93 32.75 19.79L30.89 17.23C30.83 17.15 30.77 17.09 30.71 17.06C30.64 17.02 30.54 17.01 30.41 17.01H29.67V20H28.71V12.83H30.74C31.19 12.83 31.58 12.88 31.91 12.97C32.24 13.06 32.51 13.19 32.73 13.37C32.94 13.54 33.1 13.75 33.21 14C33.31 14.24 33.37 14.52 33.37 14.82C33.37 15.07 33.33 15.31 33.25 15.53C33.17 15.75 33.05 15.95 32.9 16.12C32.75 16.29 32.56 16.44 32.35 16.57C32.13 16.69 31.88 16.79 31.61 16.85C31.73 16.92 31.84 17.02 31.93 17.15L34 20ZM30.69 16.3C30.97 16.3 31.22 16.27 31.43 16.2C31.64 16.13 31.83 16.03 31.97 15.91C32.12 15.79 32.22 15.64 32.3 15.46C32.37 15.29 32.41 15.09 32.41 14.89C32.41 14.46 32.27 14.14 31.99 13.92C31.71 13.7 31.29 13.59 30.73 13.59H29.67V16.3H30.69Z" fill="#5A5E60"/>
<path d="M40.79 20H40.04C39.95 20 39.88 19.98 39.83 19.94C39.78 19.9 39.74 19.84 39.71 19.77L39.04 18.04H35.83L35.16 19.77C35.14 19.83 35.1 19.88 35.04 19.93C34.98 19.98 34.91 20 34.83 20H34.08L36.95 12.83H37.93L40.79 20ZM38.77 17.34L37.65 14.42C37.62 14.33 37.58 14.23 37.54 14.12C37.5 14 37.47 13.88 37.43 13.75C37.36 14.02 37.29 14.25 37.22 14.42L36.1 17.33H38.77V17.34Z" fill="#5A5E60"/>
<path d="M46.58 18.52C46.63 18.52 46.68 18.54 46.72 18.59L47.11 19.01C46.82 19.35 46.46 19.62 46.04 19.8C45.62 19.99 45.12 20.09 44.52 20.09C44.01 20.09 43.54 20 43.12 19.82C42.7 19.64 42.34 19.39 42.04 19.07C41.74 18.75 41.51 18.36 41.35 17.91C41.19 17.46 41.1 16.97 41.1 16.43C41.1 15.89 41.18 15.39 41.35 14.95C41.52 14.5 41.76 14.11 42.07 13.79C42.38 13.47 42.75 13.22 43.18 13.04C43.61 12.86 44.08 12.77 44.6 12.77C45.11 12.77 45.56 12.85 45.95 13.02C46.34 13.18 46.68 13.4 46.98 13.69L46.66 14.13C46.64 14.16 46.61 14.19 46.58 14.21C46.55 14.23 46.51 14.24 46.45 14.24C46.39 14.24 46.32 14.21 46.23 14.14C46.14 14.08 46.03 14 45.89 13.92C45.75 13.84 45.57 13.77 45.36 13.7C45.15 13.63 44.89 13.6 44.59 13.6C44.22 13.6 43.88 13.66 43.57 13.79C43.26 13.92 43 14.1 42.78 14.35C42.56 14.59 42.39 14.89 42.26 15.24C42.14 15.59 42.07 15.99 42.07 16.43C42.07 16.88 42.13 17.28 42.26 17.63C42.39 17.98 42.56 18.28 42.78 18.52C43 18.76 43.26 18.95 43.57 19.07C43.87 19.2 44.2 19.26 44.55 19.26C44.76 19.26 44.96 19.25 45.13 19.22C45.3 19.2 45.46 19.16 45.61 19.1C45.75 19.05 45.89 18.98 46.01 18.9C46.13 18.82 46.26 18.72 46.38 18.61C46.47 18.54 46.52 18.52 46.58 18.52Z" fill="#5A5E60"/>
<path d="M53.08 13.65H50.76V20H49.8V13.65H47.47V12.83H53.08V13.65Z" fill="#5A5E60"/>
</svg>
