<svg width="161" height="135" viewBox="0 0 161 135" fill="none" xmlns="http://www.w3.org/2000/svg">
<path d="M88.5731 97.377C115.478 97.377 137.288 75.5785 137.288 48.6885C137.288 21.7986 115.478 0 88.5731 0C61.6684 0 39.8579 21.7986 39.8579 48.6885C39.8579 75.5785 61.6684 97.377 88.5731 97.377Z" fill="#E9EAEB"/>
<path d="M101.859 28.7705H35.4292C39.105 28.7705 42.0722 31.7361 42.0722 35.4099V123.934C42.0722 128.825 46.0358 132.787 50.9295 132.787H108.502V35.4099C108.502 31.7361 105.535 28.7705 101.859 28.7705Z" fill="white"/>
<path d="M75.287 13.2787H8.8573C12.5331 13.2787 15.5003 16.2443 15.5003 19.918V104.016C15.5003 108.907 19.4639 112.869 24.3576 112.869H81.93V19.918C81.93 16.2443 78.9628 13.2787 75.287 13.2787Z" fill="white"/>
<path d="M22.1433 112.869H37.6436" stroke="#2A5082" stroke-width="2" stroke-miterlimit="10"/>
<path d="M35.4292 28.7705H101.859C105.535 28.7705 108.502 31.7361 108.502 35.4099V121.721" stroke="#2A5082" stroke-width="2" stroke-miterlimit="10"/>
<path d="M8.8573 13.2787H75.287C78.9628 13.2787 81.93 16.2443 81.93 19.918V24.3443" stroke="#2A5082" stroke-width="2" stroke-miterlimit="10"/>
<path d="M50.9295 132.787C46.0358 132.787 42.0722 128.825 42.0722 123.934V35.4098C42.0722 31.7361 39.105 28.7705 35.4292 28.7705C31.7534 28.7705 28.7863 31.7361 28.7863 35.4098V106.23C28.7863 109.903 25.8191 112.869 22.1433 112.869C18.4675 112.869 15.5003 109.903 15.5003 106.23V19.918C15.5003 16.2443 12.5331 13.2787 8.85733 13.2787C5.18155 13.2787 2.21436 16.2443 2.21436 19.918V26.5574H11.0717" stroke="#2A5082" stroke-width="2" stroke-miterlimit="10"/>
<path d="M59.7867 123.934V121.721H121.788V123.934C121.788 128.825 117.824 132.787 112.931 132.787H50.9294C55.8231 132.787 59.7867 128.825 59.7867 123.934Z" fill="#A3D4FF" stroke="#2A5082" stroke-width="2" stroke-miterlimit="10"/>
<path d="M139.731 23.9092L135.659 27.9813" stroke="#BCC0C4" stroke-width="2" stroke-miterlimit="10"/>
<path d="M149.912 13.7288L145.84 17.8009" stroke="#BCC0C4" stroke-width="2" stroke-miterlimit="10"/>
<path d="M145.84 23.9092L149.912 27.9813" stroke="#BCC0C4" stroke-width="2" stroke-miterlimit="10"/>
<path d="M135.659 13.7288L139.731 17.8009" stroke="#BCC0C4" stroke-width="2" stroke-miterlimit="10"/>
<path d="M119.371 32.0532V44.2695" stroke="#BCC0C4" stroke-width="2" stroke-miterlimit="10"/>
<path d="M113.263 38.1614H125.479" stroke="#BCC0C4" stroke-width="2" stroke-miterlimit="10"/>
<path d="M49.4712 54.0004C48.9191 54.0163 48.4845 54.4768 48.5004 55.0288C48.5163 55.5809 48.9768 56.0155 49.5288 55.9996L49.4712 54.0004ZM101.529 54.4996C102.081 54.4837 102.516 54.0232 102.5 53.4712C102.484 52.9191 102.023 52.4845 101.471 52.5004L101.529 54.4996ZM49.5288 55.9996L101.529 54.4996L101.471 52.5004L49.4712 54.0004L49.5288 55.9996Z" fill="#2A5082"/>
<path d="M49.4712 60.5004C48.9191 60.5163 48.4845 60.9768 48.5004 61.5288C48.5163 62.0809 48.9768 62.5155 49.5288 62.4996L49.4712 60.5004ZM101.529 60.9996C102.081 60.9837 102.516 60.5232 102.5 59.9712C102.484 59.4191 102.023 58.9845 101.471 59.0004L101.529 60.9996ZM49.5288 62.4996L101.529 60.9996L101.471 59.0004L49.4712 60.5004L49.5288 62.4996Z" fill="#2A5082"/>
<path d="M49.4712 67.0004C48.9191 67.0163 48.4845 67.4768 48.5004 68.0288C48.5163 68.5809 48.9768 69.0155 49.5288 68.9996L49.4712 67.0004ZM101.529 67.4996C102.081 67.4837 102.516 67.0232 102.5 66.4712C102.484 65.9191 102.023 65.4845 101.471 65.5004L101.529 67.4996ZM49.5288 68.9996L101.529 67.4996L101.471 65.5004L49.4712 67.0004L49.5288 68.9996Z" fill="#2A5082"/>
<path d="M49.4712 73.5004C48.9191 73.5163 48.4845 73.9768 48.5004 74.5288C48.5163 75.0809 48.9768 75.5155 49.5288 75.4996L49.4712 73.5004ZM101.529 73.9996C102.081 73.9837 102.516 73.5232 102.5 72.9712C102.484 72.4191 102.023 71.9845 101.471 72.0004L101.529 73.9996ZM49.5288 75.4996L101.529 73.9996L101.471 72.0004L49.4712 73.5004L49.5288 75.4996Z" fill="#2A5082"/>
<path d="M49.4712 80.0004C48.9191 80.0163 48.4845 80.4768 48.5004 81.0288C48.5163 81.5809 48.9768 82.0155 49.5288 81.9996L49.4712 80.0004ZM101.529 80.4996C102.081 80.4837 102.516 80.0232 102.5 79.4712C102.484 78.9191 102.023 78.4845 101.471 78.5004L101.529 80.4996ZM49.5288 81.9996L101.529 80.4996L101.471 78.5004L49.4712 80.0004L49.5288 81.9996Z" fill="#2A5082"/>
<path d="M49.4712 86.5004C48.9191 86.5163 48.4845 86.9768 48.5004 87.5288C48.5163 88.0809 48.9768 88.5155 49.5288 88.4996L49.4712 86.5004ZM101.529 86.9996C102.081 86.9837 102.516 86.5232 102.5 85.9712C102.484 85.4191 102.023 84.9845 101.471 85.0004L101.529 86.9996ZM49.5288 88.4996L101.529 86.9996L101.471 85.0004L49.4712 86.5004L49.5288 88.4996Z" fill="#2A5082"/>
<path d="M49.4712 93.0004C48.9191 93.0163 48.4845 93.4768 48.5004 94.0288C48.5163 94.5809 48.9768 95.0155 49.5288 94.9996L49.4712 93.0004ZM101.529 93.4996C102.081 93.4837 102.516 93.0232 102.5 92.4712C102.484 91.9191 102.023 91.4845 101.471 91.5004L101.529 93.4996ZM49.5288 94.9996L101.529 93.4996L101.471 91.5004L49.4712 93.0004L49.5288 94.9996Z" fill="#2A5082"/>
<path d="M49.4712 99.5004C48.9191 99.5163 48.4845 99.9768 48.5004 100.529C48.5163 101.081 48.9768 101.516 49.5288 101.5L49.4712 99.5004ZM101.529 99.9996C102.081 99.9837 102.516 99.5232 102.5 98.9712C102.484 98.4191 102.023 97.9845 101.471 98.0004L101.529 99.9996ZM49.5288 101.5L101.529 99.9996L101.471 98.0004L49.4712 99.5004L49.5288 101.5Z" fill="#2A5082"/>
<path d="M49.4712 106C48.9191 106.016 48.4845 106.477 48.5004 107.029C48.5163 107.581 48.9768 108.016 49.5288 108L49.4712 106ZM101.529 106.5C102.081 106.484 102.516 106.023 102.5 105.471C102.484 104.919 102.023 104.484 101.471 104.5L101.529 106.5ZM49.5288 108L101.529 106.5L101.471 104.5L49.4712 106L49.5288 108Z" fill="#2A5082"/>
<path d="M100.767 89.4239L84.9871 105.204L81 106L81.7961 102.013L97.5761 86.233C97.8867 85.9223 98.3916 85.9223 98.7023 86.233L100.767 88.2977C101.078 88.6084 101.078 89.1133 100.767 89.4239Z" fill="#A3D4FF" stroke="#2A5082" stroke-width="2" stroke-miterlimit="10" stroke-linejoin="round"/>
</svg>
