<svg width="61" height="59" viewBox="0 0 61 59" fill="none" xmlns="http://www.w3.org/2000/svg">
<path d="M39.5 43C51.3741 43 61 33.3741 61 21.5C61 9.62588 51.3741 0 39.5 0C27.6259 0 18 9.62588 18 21.5C18 33.3741 27.6259 43 39.5 43Z" fill="#E9EAEB"/>
<path d="M9 6H36C37.1 6 38 6.9 38 8V56C38 57.1 37.1 58 36 58H3C1.9 58 1 57.1 1 56V14L9 6Z" fill="white"/>
<path d="M9 6H10V15H1V14L9 6Z" fill="#A3D4FF"/>
<path d="M38 27V8C38 6.9 37.1 6 36 6H9L1 14V56C1 57.1 1.9 58 3 58H36C37.1 58 38 57.1 38 56V53" stroke="#2A5082" stroke-width="2" stroke-miterlimit="10" stroke-linejoin="round"/>
<path d="M4 15H10V9" stroke="#2A5082" stroke-width="2" stroke-miterlimit="10" stroke-linejoin="round"/>
<path d="M55 50H29C27.9 50 27 49.1 27 48V32C27 30.9 27.9 30 29 30H55C56.1 30 57 30.9 57 32V48C57 49.1 56.1 50 55 50Z" fill="#A3D4FF" stroke="#2A5082" stroke-width="2" stroke-miterlimit="10" stroke-linecap="round"/>
<path d="M27 44H57" stroke="#2A5082" stroke-width="2" stroke-miterlimit="10" stroke-linecap="round"/>
<path d="M55 13L53 15" stroke="#BCC0C4" stroke-width="2" stroke-miterlimit="10"/>
<path d="M60 8L58 10" stroke="#BCC0C4" stroke-width="2" stroke-miterlimit="10"/>
<path d="M58 13L60 15" stroke="#BCC0C4" stroke-width="2" stroke-miterlimit="10"/>
<path d="M53 8L55 10" stroke="#BCC0C4" stroke-width="2" stroke-miterlimit="10"/>
<path d="M45 17V23" stroke="#BCC0C4" stroke-width="2" stroke-miterlimit="10"/>
<path d="M42 20H48" stroke="#BCC0C4" stroke-width="2" stroke-miterlimit="10"/>
<path d="M20 37.8617C20 39.0631 19.547 40.0851 18.6411 40.9277C17.7351 41.7546 16.4069 42.2149 14.6564 42.3085V45H13.5048V42.3319C12.3839 42.2695 11.3244 42.0511 10.3263 41.6766C9.34357 41.2865 8.56814 40.795 8 40.2021L8.66795 38.8681C9.20537 39.3986 9.90403 39.8433 10.7639 40.2021C11.6392 40.561 12.5528 40.7716 13.5048 40.834V34.6787C12.4453 34.4135 11.5624 34.1326 10.856 33.8362C10.1497 33.5241 9.55854 33.0794 9.08253 32.5021C8.62188 31.9092 8.39155 31.1291 8.39155 30.1617C8.39155 28.9603 8.8215 27.9539 9.68138 27.1426C10.5413 26.3156 11.8157 25.8319 13.5048 25.6915V23H14.6564V25.6681C15.5317 25.6993 16.3762 25.8475 17.19 26.1128C18.0192 26.3624 18.7332 26.6979 19.3321 27.1191L18.7562 28.5C18.1267 28.0943 17.4587 27.7745 16.7524 27.5404C16.0461 27.3064 15.3474 27.1738 14.6564 27.1426V33.3447C15.7927 33.6255 16.7217 33.9142 17.4434 34.2106C18.1651 34.4915 18.7716 34.9284 19.263 35.5213C19.7543 36.1142 20 36.8943 20 37.8617ZM10.0729 30.1149C10.0729 30.9262 10.3647 31.5426 10.9482 31.9638C11.547 32.3851 12.3992 32.744 13.5048 33.0404V27.1894C12.3685 27.283 11.5086 27.6028 10.9251 28.1489C10.357 28.6794 10.0729 29.3348 10.0729 30.1149ZM14.6564 40.834C15.8695 40.7404 16.7831 40.4362 17.3973 39.9213C18.0115 39.4064 18.3186 38.7511 18.3186 37.9553C18.3186 37.1128 18.0038 36.4809 17.3743 36.0596C16.7447 35.6383 15.8388 35.2794 14.6564 34.983V40.834Z" fill="#2A5082"/>
</svg>
