<svg width="59" height="9" viewBox="0 0 59 9" fill="none" xmlns="http://www.w3.org/2000/svg">
<path d="M5.97 0.829956V7.99995H5V4.73995H1.13V7.99995H0.160004V0.829956H1.13V4.01995H5V0.829956H5.97Z" fill="#5A5E60"/>
<path d="M14.42 4.42C14.42 4.96 14.34 5.45 14.16 5.9C13.99 6.35 13.75 6.73 13.44 7.06C13.13 7.38 12.76 7.63 12.32 7.81C11.88 7.99 11.4 8.08 10.88 8.08C10.35 8.08 9.87001 7.99 9.44001 7.81C9.01001 7.63 8.63001 7.38 8.32001 7.06C8.01001 6.74 7.77001 6.35 7.60001 5.9C7.43001 5.45 7.35001 4.96 7.35001 4.42C7.35001 3.88 7.44001 3.39 7.60001 2.94C7.77001 2.49 8.01001 2.11 8.32001 1.78C8.63001 1.45 9.00001 1.2 9.44001 1.02C9.87001 0.839997 10.35 0.75 10.88 0.75C11.41 0.75 11.89 0.839997 12.32 1.02C12.75 1.2 13.13 1.45 13.44 1.78C13.75 2.1 13.99 2.49 14.16 2.94C14.33 3.39 14.42 3.88 14.42 4.42ZM13.42 4.42C13.42 3.98 13.36 3.59 13.24 3.24C13.12 2.89 12.95 2.59 12.73 2.35C12.51 2.11 12.24 1.92 11.93 1.79C11.62 1.66 11.27 1.6 10.88 1.6C10.5 1.6 10.15 1.67 9.84 1.79C9.53 1.92 9.26001 2.11 9.04001 2.35C8.82001 2.59 8.65001 2.89 8.53001 3.24C8.41001 3.59 8.35001 3.99 8.35001 4.42C8.35001 4.86 8.41001 5.25 8.53001 5.6C8.65001 5.95 8.82001 6.24 9.04001 6.48C9.26001 6.72 9.53 6.91 9.84 7.04C10.15 7.17 10.5 7.23 10.88 7.23C11.27 7.23 11.62 7.17 11.93 7.04C12.24 6.91 12.51 6.73 12.73 6.48C12.95 6.24 13.12 5.94 13.24 5.6C13.36 5.25 13.42 4.86 13.42 4.42Z" fill="#5A5E60"/>
<path d="M23.26 0.829956V7.99995H22.41V2.72996C22.41 2.65996 22.41 2.57995 22.42 2.49995C22.43 2.41995 22.43 2.33996 22.44 2.25996L19.98 6.73995C19.9 6.88995 19.79 6.96996 19.63 6.96996H19.49C19.33 6.96996 19.22 6.88995 19.14 6.73995L16.63 2.23995C16.65 2.41995 16.66 2.57996 16.66 2.72996V7.99995H15.81V0.829956H16.52C16.61 0.829956 16.67 0.839953 16.72 0.849953C16.77 0.869953 16.81 0.909952 16.85 0.989952L19.33 5.39996C19.37 5.47996 19.41 5.55996 19.45 5.64996C19.49 5.73996 19.52 5.81996 19.56 5.90996C19.59 5.81996 19.63 5.72995 19.66 5.63995C19.7 5.54995 19.74 5.46995 19.78 5.38995L22.21 0.989952C22.25 0.909952 22.29 0.869953 22.34 0.849953C22.39 0.829953 22.46 0.829956 22.54 0.829956H23.26Z" fill="#5A5E60"/>
<path d="M29.51 7.20995V7.99995H25.1V0.829956H29.51V1.61996H26.06V3.99995H28.85V4.75996H26.06V7.19995H29.51V7.20995Z" fill="#5A5E60"/>
<path d="M37.49 7.18996V7.99995H33.42V0.829956H34.38V7.17995H37.49V7.18996Z" fill="#5A5E60"/>
<path d="M44.84 4.42C44.84 4.96 44.75 5.45 44.58 5.9C44.41 6.35 44.17 6.73 43.86 7.06C43.55 7.38 43.18 7.63 42.74 7.81C42.3 7.99 41.82 8.08 41.3 8.08C40.77 8.08 40.29 7.99 39.86 7.81C39.43 7.63 39.05 7.38 38.74 7.06C38.43 6.74 38.19 6.35 38.02 5.9C37.85 5.45 37.77 4.96 37.77 4.42C37.77 3.88 37.86 3.39 38.02 2.94C38.19 2.49 38.43 2.11 38.74 1.78C39.05 1.45 39.42 1.2 39.86 1.02C40.29 0.839997 40.77 0.75 41.3 0.75C41.83 0.75 42.31 0.839997 42.74 1.02C43.17 1.2 43.55 1.45 43.86 1.78C44.17 2.1 44.41 2.49 44.58 2.94C44.76 3.39 44.84 3.88 44.84 4.42ZM43.85 4.42C43.85 3.98 43.79 3.59 43.67 3.24C43.55 2.89 43.38 2.59 43.16 2.35C42.94 2.11 42.67 1.92 42.36 1.79C42.05 1.66 41.7 1.6 41.31 1.6C40.93 1.6 40.58 1.67 40.27 1.79C39.96 1.92 39.69 2.11 39.47 2.35C39.25 2.59 39.08 2.89 38.96 3.24C38.84 3.59 38.78 3.99 38.78 4.42C38.78 4.86 38.84 5.25 38.96 5.6C39.08 5.95 39.25 6.24 39.47 6.48C39.69 6.72 39.96 6.91 40.27 7.04C40.58 7.17 40.93 7.23 41.31 7.23C41.7 7.23 42.05 7.17 42.36 7.04C42.67 6.91 42.94 6.73 43.16 6.48C43.38 6.24 43.55 5.94 43.67 5.6C43.79 5.25 43.85 4.86 43.85 4.42Z" fill="#5A5E60"/>
<path d="M51.86 7.99995H51.11C51.02 7.99995 50.95 7.97996 50.9 7.93996C50.85 7.89996 50.81 7.83995 50.78 7.76995L50.11 6.03996H46.89L46.22 7.76995C46.2 7.82995 46.16 7.87995 46.11 7.92995C46.05 7.97995 45.98 7.99995 45.9 7.99995H45.15L48.02 0.829956H49L51.86 7.99995ZM49.84 5.33995L48.72 2.41995C48.69 2.32995 48.65 2.22996 48.62 2.11996C48.58 1.99996 48.55 1.87995 48.51 1.74995C48.44 2.01995 48.37 2.24995 48.3 2.42995L47.18 5.33995H49.84Z" fill="#5A5E60"/>
<path d="M58.61 0.829956V7.99995H58.12C58.04 7.99995 57.98 7.98995 57.93 7.95995C57.88 7.92995 57.83 7.88996 57.78 7.82996L53.63 2.42995C53.64 2.50995 53.64 2.59995 53.64 2.67995C53.64 2.75995 53.65 2.83996 53.65 2.90996V7.99995H52.8V0.829956H53.3C53.34 0.829956 53.38 0.829951 53.41 0.839951C53.44 0.849951 53.47 0.849957 53.49 0.869957C53.51 0.879957 53.54 0.899952 53.56 0.919952C53.58 0.939952 53.61 0.969954 53.64 0.999954L57.78 6.38995C57.77 6.29995 57.77 6.21995 57.76 6.13995C57.76 6.05995 57.75 5.97996 57.75 5.90996V0.829956H58.61Z" fill="#5A5E60"/>
</svg>
