<svg width="60" height="60" viewBox="0 0 60 60" fill="none" xmlns="http://www.w3.org/2000/svg">
<path d="M30 2C14.54 2 2 14.54 2 30C2 45.46 14.54 58 30 58C45.46 58 58 45.46 58 30C58 14.54 45.46 2 30 2ZM30 51C18.4 51 9 41.6 9 30C9 18.4 18.4 9 30 9C41.6 9 51 18.4 51 30C51 41.6 41.6 51 30 51Z" fill="#A3D4FF"/>
<path d="M12.35 41.39C10.23 38.11 9 34.2 9 30C9 18.4 18.4 9 30 9C34.04 9 37.82 10.14 41.03 12.12" stroke="#2A5082" stroke-width="2" stroke-miterlimit="10" stroke-linecap="round"/>
<path d="M47.89 19C49.86 22.2 51 25.97 51 30C51 41.6 41.6 51 30 51C25.95 51 22.16 49.85 18.95 47.86" stroke="#2A5082" stroke-width="2" stroke-miterlimit="10" stroke-linecap="round"/>
<path d="M13.99 46.01H5.98001V54.02" stroke="#2A5082" stroke-width="2" stroke-miterlimit="10" stroke-linecap="round"/>
<path d="M4.45001 41.39C-0.239989 31.09 1.75001 18.59 10.23 10.11C21.14 -0.800039 38.93 -0.740042 49.83 10.17L53.44 13.78" stroke="#2A5082" stroke-width="2" stroke-miterlimit="10" stroke-linecap="round"/>
<path d="M55.52 18.6399C60.22 28.9399 58.22 41.4399 49.74 49.9199C38.83 60.8299 21.04 60.7599 10.14 49.8599L6.53 46.2499" stroke="#2A5082" stroke-width="2" stroke-miterlimit="10" stroke-linecap="round"/>
<path d="M46.02 13.98H54.03V5.96997" stroke="#2A5082" stroke-width="2" stroke-miterlimit="10" stroke-linecap="round"/>
<path d="M25 29C26.6569 29 28 27.6569 28 26C28 24.3431 26.6569 23 25 23C23.3431 23 22 24.3431 22 26C22 27.6569 23.3431 29 25 29Z" stroke="#2A5082" stroke-width="2" stroke-miterlimit="10" stroke-linecap="round"/>
<path d="M35 37C33.34 37 32 35.66 32 34C32 32.34 33.34 31 35 31C36.66 31 38 32.34 38 34C38 35.66 36.66 37 35 37Z" stroke="#2A5082" stroke-width="2" stroke-miterlimit="10" stroke-linecap="round"/>
<path d="M24 37L36 23" stroke="#2A5082" stroke-width="2" stroke-miterlimit="10" stroke-linecap="round"/>
</svg>
