<svg width="70" height="9" viewBox="0 0 70 9" fill="none" xmlns="http://www.w3.org/2000/svg">
<path d="M2.28999 0.829956C2.73999 0.829956 3.14 0.87996 3.47 0.98996C3.8 1.09996 4.08 1.23997 4.3 1.43997C4.52 1.62997 4.67999 1.86998 4.78999 2.13998C4.89999 2.40998 4.95 2.71996 4.95 3.04996C4.95 3.37996 4.89 3.68997 4.78 3.96997C4.66 4.24997 4.49 4.47996 4.27 4.67996C4.05 4.87996 3.77 5.03996 3.44 5.14996C3.11 5.25996 2.72999 5.31998 2.28999 5.31998H1.14V7.99997H0.179993V0.829956H2.28999ZM2.28999 4.54996C2.56999 4.54996 2.81 4.50997 3.02 4.43997C3.23 4.36997 3.41 4.25997 3.56 4.12997C3.7 3.99997 3.81 3.83997 3.89 3.65997C3.96 3.47997 4 3.27996 4 3.04996C4 2.58996 3.86 2.23998 3.58 1.97998C3.3 1.71998 2.87 1.59998 2.3 1.59998H1.14999V4.54996H2.28999Z" fill="#5A5E60"/>
<path d="M11.47 7.99997H10.61C10.43 7.99997 10.3 7.92998 10.22 7.78998L8.36 5.22998C8.3 5.14998 8.23999 5.08997 8.17999 5.05997C8.10999 5.01997 8.01 5.00998 7.88 5.00998H7.14V7.99997H6.17999V0.829956H8.21001C8.66001 0.829956 9.05 0.879971 9.38 0.969971C9.71 1.05997 9.98 1.18996 10.2 1.36996C10.41 1.53996 10.57 1.74997 10.68 1.99997C10.78 2.23997 10.84 2.51998 10.84 2.81998C10.84 3.06998 10.8 3.30997 10.72 3.52997C10.64 3.74997 10.52 3.94996 10.37 4.11996C10.22 4.28996 10.03 4.43998 9.82001 4.56998C9.60001 4.68998 9.35 4.78998 9.08 4.84998C9.2 4.91998 9.30999 5.01996 9.39999 5.14996L11.47 7.99997ZM8.16 4.29996C8.44 4.29996 8.68999 4.26998 8.89999 4.19998C9.10999 4.12998 9.3 4.02997 9.44 3.90997C9.59 3.78997 9.69 3.63996 9.77 3.45996C9.84 3.28996 9.88 3.08998 9.88 2.88998C9.88 2.45998 9.74001 2.13998 9.46001 1.91998C9.18001 1.69998 8.76 1.58997 8.2 1.58997H7.14V4.29996H8.16Z" fill="#5A5E60"/>
<path d="M18.99 4.42001C18.99 4.96001 18.91 5.44999 18.74 5.89999C18.57 6.34999 18.33 6.73 18.02 7.06C17.71 7.38 17.34 7.63 16.9 7.81C16.47 7.99 15.99 8.07999 15.46 8.07999C14.93 8.07999 14.45 7.99 14.02 7.81C13.59 7.63 13.21 7.38 12.9 7.06C12.59 6.74 12.35 6.34999 12.18 5.89999C12.01 5.44999 11.93 4.96001 11.93 4.42001C11.93 3.88001 12.01 3.39 12.18 2.94C12.35 2.49 12.59 2.1 12.9 1.78C13.21 1.45 13.58 1.19999 14.02 1.01999C14.45 0.839989 14.93 0.75 15.46 0.75C15.99 0.75 16.47 0.839989 16.9 1.01999C17.34 1.19999 17.71 1.45 18.02 1.78C18.33 2.1 18.57 2.49 18.74 2.94C18.91 3.39 18.99 3.88001 18.99 4.42001ZM18 4.42001C18 3.98001 17.94 3.59001 17.82 3.23001C17.7 2.88001 17.53 2.59 17.31 2.34C17.09 2.1 16.82 1.91 16.51 1.78C16.2 1.65 15.85 1.59 15.46 1.59C15.08 1.59 14.73 1.65 14.42 1.78C14.11 1.91 13.84 2.1 13.62 2.34C13.4 2.58 13.23 2.88001 13.11 3.23001C12.99 3.58001 12.93 3.98001 12.93 4.42001C12.93 4.86001 12.99 5.25001 13.11 5.60001C13.23 5.95001 13.4 6.24001 13.62 6.48001C13.84 6.72001 14.11 6.91001 14.42 7.04001C14.73 7.17001 15.08 7.23001 15.46 7.23001C15.85 7.23001 16.2 7.17001 16.51 7.04001C16.82 6.91001 17.09 6.73001 17.31 6.48001C17.53 6.24001 17.7 5.94001 17.82 5.60001C17.94 5.25001 18 4.86001 18 4.42001Z" fill="#5A5E60"/>
<path d="M24.9 1.64996H22.58V7.99997H21.62V1.64996H19.29V0.829956H24.9V1.64996Z" fill="#5A5E60"/>
<path d="M30.38 7.20996V7.99997H25.96V0.829956H30.38V1.61996H26.93V3.99997H29.72V4.75998H26.93V7.19998H30.38V7.20996Z" fill="#5A5E60"/>
<path d="M36.61 6.52002C36.66 6.52002 36.71 6.54003 36.75 6.59003L37.14 7.01004C36.85 7.35004 36.49 7.62002 36.07 7.80002C35.65 7.99002 35.15 8.09003 34.55 8.09003C34.04 8.09003 33.57 8.00004 33.15 7.82004C32.73 7.64004 32.37 7.39004 32.07 7.07004C31.77 6.75004 31.54 6.36003 31.38 5.91003C31.22 5.46003 31.13 4.97002 31.13 4.43002C31.13 3.89002 31.22 3.39004 31.38 2.95004C31.55 2.50004 31.79 2.11004 32.1 1.79004C32.41 1.47004 32.78 1.22004 33.21 1.04004C33.64 0.860039 34.11 0.77002 34.63 0.77002C35.14 0.77002 35.59 0.85002 35.98 1.02002C36.37 1.18002 36.71 1.40003 37.01 1.69003L36.69 2.13004C36.67 2.16004 36.64 2.19002 36.61 2.21002C36.58 2.23002 36.54 2.24002 36.48 2.24002C36.42 2.24002 36.35 2.21005 36.26 2.14005C36.17 2.08005 36.06 2.00004 35.92 1.92004C35.78 1.84004 35.6 1.77004 35.39 1.70004C35.18 1.63004 34.92 1.60004 34.62 1.60004C34.25 1.60004 33.91 1.66004 33.6 1.79004C33.29 1.92004 33.03 2.10004 32.81 2.35004C32.59 2.59004 32.42 2.89002 32.29 3.24002C32.17 3.59002 32.1 3.99002 32.1 4.43002C32.1 4.88002 32.16 5.28004 32.29 5.63004C32.42 5.98004 32.59 6.28002 32.81 6.52002C33.03 6.76002 33.29 6.95004 33.6 7.07004C33.9 7.20004 34.23 7.26004 34.58 7.26004C34.79 7.26004 34.99 7.25003 35.16 7.22003C35.33 7.20003 35.49 7.16004 35.64 7.10004C35.78 7.05004 35.92 6.98002 36.04 6.90002C36.16 6.82002 36.29 6.72002 36.41 6.61002C36.5 6.54002 36.55 6.52002 36.61 6.52002Z" fill="#5A5E60"/>
<path d="M43.11 1.64996H40.79V7.99997H39.83V1.64996H37.5V0.829956H43.11V1.64996Z" fill="#5A5E60"/>
<path d="M51.72 7.99997H50.86C50.68 7.99997 50.55 7.92998 50.47 7.78998L48.61 5.22998C48.55 5.14998 48.49 5.08997 48.43 5.05997C48.36 5.01997 48.26 5.00998 48.13 5.00998H47.39V7.99997H46.43V0.829956H48.46C48.91 0.829956 49.3 0.879971 49.63 0.969971C49.96 1.05997 50.23 1.18996 50.45 1.36996C50.66 1.53996 50.82 1.74997 50.93 1.99997C51.03 2.23997 51.09 2.51998 51.09 2.81998C51.09 3.06998 51.05 3.30997 50.97 3.52997C50.89 3.74997 50.77 3.94996 50.62 4.11996C50.47 4.28996 50.28 4.43998 50.07 4.56998C49.85 4.68998 49.6 4.78998 49.33 4.84998C49.45 4.91998 49.56 5.01996 49.65 5.14996L51.72 7.99997ZM48.41 4.29996C48.69 4.29996 48.94 4.26998 49.15 4.19998C49.36 4.12998 49.55 4.02997 49.69 3.90997C49.84 3.78997 49.94 3.63996 50.02 3.45996C50.09 3.28996 50.13 3.08998 50.13 2.88998C50.13 2.45998 49.99 2.13998 49.71 1.91998C49.43 1.69998 49.01 1.58997 48.45 1.58997H47.39V4.29996H48.41Z" fill="#5A5E60"/>
<path d="M58.52 7.99997H57.77C57.68 7.99997 57.61 7.97997 57.56 7.93997C57.51 7.89997 57.47 7.83996 57.44 7.76996L56.77 6.03998H53.55L52.88 7.76996C52.86 7.82996 52.82 7.87996 52.77 7.92996C52.71 7.97996 52.64 7.99997 52.56 7.99997H51.81L54.68 0.829956H55.66L58.52 7.99997ZM56.5 5.33997L55.38 2.41998C55.35 2.32998 55.31 2.22996 55.28 2.11996C55.24 1.99996 55.21 1.87997 55.17 1.74997C55.1 2.01997 55.03 2.24998 54.96 2.41998L53.84 5.32996H56.5V5.33997Z" fill="#5A5E60"/>
<path d="M63.6 1.64996H61.28V7.99997H60.32V1.64996H57.99V0.829956H63.6V1.64996Z" fill="#5A5E60"/>
<path d="M69.08 7.20996V7.99997H64.66V0.829956H69.08V1.61996H65.63V3.99997H68.42V4.75998H65.63V7.19998H69.08V7.20996Z" fill="#5A5E60"/>
</svg>
