<svg width="61" height="59" viewBox="0 0 61 59" fill="none" xmlns="http://www.w3.org/2000/svg">
<path d="M22 44C34.1503 44 44 34.1503 44 22C44 9.84974 34.1503 0 22 0C9.84974 0 0 9.84974 0 22C0 34.1503 9.84974 44 22 44Z" fill="#E9EAEB"/>
<path d="M52 6H25C23.9 6 23 6.9 23 8V56C23 57.1 23.9 58 25 58H58C59.1 58 60 57.1 60 56V14L52 6Z" fill="white"/>
<path d="M52 6H51V15H60V14L52 6Z" fill="#A3D4FF"/>
<path d="M23 18V8C23 6.9 23.9 6 25 6H52L60 14V56C60 57.1 59.1 58 58 58H25C23.9 58 23 57.1 23 56V53" stroke="#2A5082" stroke-width="2" stroke-miterlimit="10" stroke-linejoin="round"/>
<path d="M57 15H51V9" stroke="#2A5082" stroke-width="2" stroke-miterlimit="10" stroke-linejoin="round"/>
<path d="M9 51H33L33 21L9 21L9 51Z" fill="white"/>
<path d="M9 30L33 30V21L9 21V30Z" fill="#A3D4FF"/>
<path d="M9 51H33L33 21L9 21L9 51Z" stroke="#2A5082" stroke-width="2" stroke-miterlimit="10"/>
<path d="M33 30H9" stroke="#2A5082" stroke-width="2" stroke-miterlimit="10"/>
<path d="M33 37H9" stroke="#2A5082" stroke-width="2" stroke-miterlimit="10"/>
<path d="M33 44H17" stroke="#2A5082" stroke-width="2" stroke-miterlimit="10"/>
<path d="M25 51V30" stroke="#2A5082" stroke-width="2" stroke-miterlimit="10"/>
<path d="M17 51V30" stroke="#2A5082" stroke-width="2" stroke-miterlimit="10"/>
<path d="M41.5 36C43.433 36 45 34.433 45 32.5C45 30.567 43.433 29 41.5 29C39.567 29 38 30.567 38 32.5C38 34.433 39.567 36 41.5 36Z" stroke="#2A5082" stroke-width="2" stroke-miterlimit="10" stroke-linecap="round"/>
<path d="M52.5 45C50.57 45 49 43.43 49 41.5C49 39.57 50.57 38 52.5 38C54.43 38 56 39.57 56 41.5C56 43.43 54.43 45 52.5 45Z" stroke="#2A5082" stroke-width="2" stroke-miterlimit="10" stroke-linecap="round"/>
<path d="M40 45L54 29" stroke="#2A5082" stroke-width="2" stroke-miterlimit="10" stroke-linecap="round"/>
</svg>
