<svg width="63" height="20" viewBox="0 0 63 20" fill="none" xmlns="http://www.w3.org/2000/svg">
<path d="M2.94 0.839966C3.39 0.839966 3.79 0.889969 4.12 0.999969C4.45 1.10997 4.73 1.24997 4.95 1.44997C5.17 1.63997 5.33 1.87996 5.44 2.14996C5.55 2.41996 5.6 2.72997 5.6 3.05997C5.6 3.38997 5.54 3.69997 5.42 3.97997C5.3 4.25997 5.13 4.48997 4.91 4.68997C4.68 4.88997 4.41 5.04997 4.07 5.15997C3.74 5.26997 3.36 5.32997 2.92 5.32997H1.79V7.99997H0.830002V0.839966H2.94ZM2.94 4.54997C3.22 4.54997 3.46 4.50997 3.67 4.43997C3.88 4.36997 4.06 4.25997 4.2 4.12997C4.35 3.99997 4.45 3.83997 4.53 3.65997C4.6 3.47997 4.64 3.27997 4.64 3.04997C4.64 2.58997 4.5 2.23997 4.22 1.97997C3.94 1.71997 3.51 1.59998 2.94 1.59998H1.79V4.54997H2.94Z" fill="#5A5E60"/>
<path d="M11.25 7.20998V7.99997H6.83V0.839966H11.24V1.62997H7.8V3.99997H10.59V4.75996H7.8V7.19997H11.25V7.20998Z" fill="#5A5E60"/>
<path d="M17.9 7.99997H17.04C16.86 7.99997 16.73 7.92996 16.65 7.78996L14.79 5.22997C14.73 5.14997 14.67 5.08997 14.61 5.05997C14.55 5.01997 14.44 5.00996 14.31 5.00996H13.57V7.99997H12.61V0.839966H14.63C15.08 0.839966 15.48 0.889965 15.81 0.979965C16.14 1.06997 16.41 1.19997 16.63 1.37997C16.84 1.54997 17 1.75996 17.11 2.00996C17.21 2.24996 17.26 2.52997 17.26 2.82997C17.26 3.07997 17.22 3.31996 17.14 3.53996C17.06 3.75996 16.94 3.95997 16.79 4.12997C16.64 4.29997 16.45 4.44997 16.23 4.57997C16.01 4.69997 15.76 4.79997 15.49 4.85997C15.61 4.92997 15.72 5.02997 15.81 5.15997L17.9 7.99997ZM14.59 4.29997C14.87 4.29997 15.12 4.26997 15.33 4.19997C15.54 4.12997 15.73 4.02997 15.87 3.90997C16.02 3.78997 16.12 3.63998 16.2 3.45998C16.27 3.28998 16.31 3.08997 16.31 2.88997C16.31 2.45997 16.17 2.13997 15.89 1.91997C15.61 1.69997 15.19 1.58997 14.63 1.58997H13.57V4.29997H14.59Z" fill="#5A5E60"/>
<path d="M23.83 6.52002C23.88 6.52002 23.93 6.54001 23.97 6.59001L24.36 7.00002C24.07 7.34002 23.71 7.61001 23.29 7.79001C22.87 7.98001 22.37 8.08002 21.77 8.08002C21.26 8.08002 20.79 7.99001 20.37 7.81001C19.95 7.63001 19.59 7.38001 19.3 7.06001C19 6.74001 18.77 6.35001 18.61 5.90001C18.45 5.45001 18.36 4.96001 18.36 4.42001C18.36 3.88001 18.44 3.38002 18.61 2.94002C18.78 2.49002 19.02 2.10001 19.33 1.78001C19.64 1.46001 20.01 1.21001 20.44 1.03001C20.87 0.850014 21.34 0.76001 21.86 0.76001C22.37 0.76001 22.82 0.84001 23.21 1.01001C23.6 1.17001 23.94 1.39001 24.24 1.67001L23.92 2.11002C23.9 2.14002 23.87 2.17002 23.84 2.19002C23.81 2.21002 23.77 2.22002 23.71 2.22002C23.65 2.22002 23.58 2.19001 23.49 2.12001C23.4 2.06001 23.29 1.98001 23.15 1.90001C23.01 1.82001 22.83 1.75001 22.63 1.68001C22.42 1.61001 22.16 1.58002 21.86 1.58002C21.49 1.58002 21.15 1.64002 20.84 1.77002C20.53 1.90002 20.27 2.08002 20.05 2.33002C19.83 2.57002 19.66 2.87002 19.53 3.22002C19.41 3.57002 19.34 3.97002 19.34 4.41002C19.34 4.86002 19.4 5.26002 19.53 5.61002C19.66 5.96002 19.83 6.26002 20.05 6.50002C20.27 6.74002 20.53 6.93002 20.83 7.05002C21.13 7.18002 21.46 7.24002 21.81 7.24002C22.02 7.24002 22.22 7.23001 22.39 7.20001C22.56 7.18001 22.72 7.14002 22.87 7.08002C23.02 7.03002 23.15 6.96002 23.27 6.88002C23.39 6.80002 23.52 6.70001 23.64 6.59001C23.72 6.54001 23.78 6.52002 23.83 6.52002Z" fill="#5A5E60"/>
<path d="M29.9 7.20998V7.99997H25.49V0.839966H29.9V1.62997H26.45V3.99997H29.24V4.75996H26.45V7.19997H29.9V7.20998Z" fill="#5A5E60"/>
<path d="M37.06 0.839966V7.99997H36.57C36.49 7.99997 36.43 7.98998 36.38 7.95998C36.33 7.92998 36.28 7.88997 36.23 7.82997L32.08 2.42996C32.09 2.50996 32.09 2.58996 32.09 2.67996C32.09 2.75996 32.1 2.83996 32.1 2.89996V7.99997H31.25V0.839966H31.75C31.79 0.839966 31.83 0.839976 31.86 0.849976C31.89 0.859976 31.92 0.859974 31.94 0.879974C31.96 0.889974 31.99 0.909962 32.01 0.929962C32.03 0.949962 32.06 0.979964 32.09 1.00996L36.24 6.39996C36.23 6.30996 36.23 6.22996 36.22 6.14996C36.22 6.06996 36.21 5.98997 36.21 5.91997V0.839966H37.06Z" fill="#5A5E60"/>
<path d="M43.74 1.64995H41.42V7.99995H40.46V1.64995H38.13V0.829956H43.74V1.64995Z" fill="#5A5E60"/>
<path d="M49.92 7.99997H49.17C49.08 7.99997 49.01 7.97997 48.96 7.93997C48.91 7.89997 48.87 7.83997 48.84 7.76997L48.17 6.03996H44.95L44.28 7.76997C44.26 7.82997 44.22 7.87996 44.17 7.92996C44.11 7.97996 44.04 7.99997 43.96 7.99997H43.21L46.08 0.839966H47.06L49.92 7.99997ZM47.9 5.33997L46.78 2.42996C46.75 2.33996 46.71 2.23997 46.68 2.12997C46.64 2.00997 46.61 1.88996 46.57 1.75996C46.5 2.02996 46.43 2.25996 46.36 2.42996L45.24 5.33997H47.9Z" fill="#5A5E60"/>
<path d="M56.5 4.54999V7.29999C56.14 7.55999 55.76 7.75999 55.35 7.87999C54.94 7.99999 54.49 8.06999 54.01 8.06999C53.43 8.06999 52.91 7.97999 52.45 7.79999C51.99 7.61999 51.59 7.36999 51.26 7.04999C50.93 6.72999 50.68 6.33998 50.5 5.88998C50.32 5.43998 50.24 4.94999 50.24 4.40999C50.24 3.85999 50.33 3.36999 50.5 2.90999C50.67 2.45999 50.92 2.06998 51.23 1.74998C51.55 1.42998 51.93 1.17998 52.39 0.999985C52.84 0.819985 53.35 0.73999 53.91 0.73999C54.19 0.73999 54.46 0.759988 54.7 0.799988C54.94 0.839988 55.17 0.89998 55.38 0.97998C55.59 1.05998 55.78 1.14999 55.95 1.26999C56.13 1.37999 56.29 1.50998 56.45 1.64998L56.18 2.08998C56.14 2.15998 56.08 2.19999 56.01 2.21999C55.94 2.23999 55.87 2.21998 55.78 2.16998C55.7 2.11998 55.61 2.06998 55.51 1.99998C55.41 1.92998 55.28 1.86998 55.13 1.80998C54.98 1.74998 54.81 1.69998 54.6 1.64998C54.4 1.60998 54.16 1.58998 53.88 1.58998C53.48 1.58998 53.11 1.64998 52.78 1.78998C52.45 1.91998 52.18 2.10999 51.95 2.34999C51.72 2.59999 51.54 2.88999 51.42 3.23999C51.3 3.58999 51.23 3.97999 51.23 4.40999C51.23 4.85999 51.29 5.25998 51.42 5.61998C51.55 5.97998 51.73 6.27998 51.97 6.52998C52.21 6.77998 52.5 6.96999 52.84 7.09999C53.18 7.22999 53.56 7.29999 53.99 7.29999C54.32 7.29999 54.62 7.25999 54.88 7.18999C55.14 7.11999 55.39 7.00999 55.64 6.87999V5.29999H54.53C54.47 5.29999 54.42 5.27998 54.38 5.24998C54.34 5.20998 54.32 5.16998 54.32 5.11998V4.56999H56.5V4.54999Z" fill="#5A5E60"/>
<path d="M62.41 7.20998V7.99997H57.99V0.839966H62.41V1.62997H58.96V3.99997H61.75V4.75996H58.96V7.19997H62.41V7.20998Z" fill="#5A5E60"/>
<path d="M25.59 20H24.73C24.55 20 24.42 19.93 24.34 19.79L22.48 17.23C22.42 17.15 22.36 17.09 22.3 17.06C22.23 17.02 22.13 17.01 22 17.01H21.26V20H20.3V12.84H22.32C22.77 12.84 23.17 12.89 23.5 12.98C23.83 13.07 24.1 13.2 24.32 13.38C24.53 13.55 24.69 13.76 24.8 14.01C24.9 14.25 24.95 14.53 24.95 14.83C24.95 15.08 24.91 15.32 24.83 15.54C24.75 15.76 24.63 15.96 24.48 16.13C24.33 16.3 24.14 16.45 23.92 16.58C23.7 16.7 23.45 16.8 23.18 16.86C23.3 16.93 23.41 17.03 23.5 17.16L25.59 20ZM22.28 16.3C22.56 16.3 22.81 16.27 23.02 16.2C23.23 16.13 23.42 16.03 23.56 15.91C23.71 15.79 23.81 15.64 23.89 15.46C23.96 15.29 24 15.09 24 14.89C24 14.46 23.86 14.14 23.58 13.92C23.3 13.7 22.88 13.59 22.32 13.59H21.26V16.3H22.28Z" fill="#5A5E60"/>
<path d="M32.38 20H31.63C31.54 20 31.47 19.98 31.42 19.94C31.37 19.9 31.33 19.84 31.3 19.77L30.63 18.04H27.41L26.74 19.77C26.72 19.83 26.68 19.88 26.63 19.93C26.57 19.98 26.5 20 26.42 20H25.67L28.54 12.84H29.52L32.38 20ZM30.36 17.34L29.24 14.43C29.21 14.34 29.17 14.24 29.14 14.13C29.1 14.01 29.07 13.89 29.03 13.76C28.96 14.03 28.89 14.26 28.82 14.43L27.7 17.34H30.36Z" fill="#5A5E60"/>
<path d="M37.47 13.6499H35.15V20H34.19V13.6499H31.86V12.83H37.47V13.6499Z" fill="#5A5E60"/>
<path d="M42.95 19.21V20H38.53V12.84H42.95V13.63H39.5V16H42.29V16.76H39.5V19.2H42.95V19.21Z" fill="#5A5E60"/>
</svg>
