<svg width="72" height="78" viewBox="0 0 72 78" fill="none" xmlns="http://www.w3.org/2000/svg">
<path d="M50.8718 42.0586C62.4639 42.0586 71.8611 32.6435 71.8611 21.0293C71.8611 9.41514 62.4639 0 50.8718 0C39.2797 0 29.8825 9.41514 29.8825 21.0293C29.8825 32.6435 39.2797 42.0586 50.8718 42.0586Z" fill="#E9EAEB"/>
<path d="M66.0036 12.7155L64.0511 14.6717" stroke="#BCC0C4" stroke-width="2" stroke-miterlimit="10"/>
<path d="M70.8849 7.82483L68.9324 9.78104" stroke="#BCC0C4" stroke-width="2" stroke-miterlimit="10"/>
<path d="M68.9324 12.7155L70.8849 14.6717" stroke="#BCC0C4" stroke-width="2" stroke-miterlimit="10"/>
<path d="M64.0511 7.82483L66.0036 9.78104" stroke="#BCC0C4" stroke-width="2" stroke-miterlimit="10"/>
<path d="M56.2411 16.6278V22.4964" stroke="#BCC0C4" stroke-width="2" stroke-miterlimit="10"/>
<path d="M53.3124 19.5623H59.1699" stroke="#BCC0C4" stroke-width="2" stroke-miterlimit="10"/>
<path d="M0.941223 55.8031C0.941223 58.5301 3.1719 60.769 5.89375 60.769H39.2801C42.002 60.769 44.2366 58.5315 44.2366 55.8031V11.9411C44.2366 9.21403 42.0033 6.97778 39.2801 6.97778L18.2244 6.98174C16.4467 6.98174 14.7151 7.66779 13.3969 8.98447L2.94673 19.4546C1.67205 20.7304 0.941223 22.4112 0.941223 24.2965V55.8031Z" fill="white"/>
<path d="M12.6341 23.3634H1.03174C1.23453 21.8594 1.88767 20.5123 2.94638 19.4542L13.3953 8.98281C14.479 7.89833 15.8498 7.26506 17.293 7.06848V18.6956C17.293 21.263 15.1953 23.3634 12.6341 23.3634Z" fill="white"/>
<path d="M18.1024 14.5453V21.1366C18.1024 22.7935 16.7593 24.1366 15.1024 24.1366H8.72369C6.07462 24.1366 4.72566 20.954 6.56788 19.0504L12.9466 12.459C14.8218 10.5213 18.1024 11.8488 18.1024 14.5453Z" fill="#A3D4FF"/>
<path d="M13.5456 25.2169H4.21736C3.69986 25.2169 3.27716 24.796 3.27716 24.2749C3.27716 23.7538 3.69986 23.3329 4.21736 23.3329H13.5456C15.5959 23.3329 17.2643 21.6613 17.2643 19.6072V10.2624C17.2643 9.74129 17.687 9.32043 18.2045 9.32043C18.722 9.32043 19.1447 9.74129 19.1447 10.2624V19.6072C19.1447 22.701 16.6322 25.2169 13.5456 25.2169Z" fill="#2A5082"/>
<path d="M39.2791 61.7107H5.89272C2.64547 61.7107 0 59.0602 0 55.8028V24.2962C0 22.2169 0.81247 20.2604 2.28203 18.788L12.7309 8.3166C14.2044 6.84556 16.1546 6.03814 18.2233 6.03814L39.2791 6.03418C42.5303 6.03418 45.1758 8.68469 45.1758 11.9408V55.8028C45.1758 59.0602 42.5303 61.7107 39.2791 61.7107ZM39.2791 7.91949L18.2233 7.92344C16.655 7.92344 15.1775 8.53693 14.0609 9.65175L3.61201 20.1205C2.48087 21.2538 1.88172 22.6972 1.88172 24.2962V55.8028C1.88172 58.0219 3.6818 59.8267 5.89404 59.8267H39.2804C41.4953 59.8267 43.2967 58.0232 43.2967 55.8028V11.9408C43.2954 9.72299 41.4953 7.91949 39.2791 7.91949Z" fill="#2A5082"/>
<path d="M35.2305 41.1029H9.94643C9.42892 41.1029 9.00623 40.682 9.00623 40.1609C9.00623 39.6397 9.42892 39.2189 9.94643 39.2189H35.2318C35.7493 39.2189 36.172 39.6411 36.172 40.1609C36.172 40.6807 35.7493 41.1029 35.2305 41.1029Z" fill="#2A5082"/>
<path d="M31.7449 50.9209H9.94643C9.42892 50.9209 9.00623 50.4974 9.00623 49.9789C9.00623 49.4604 9.42892 49.0369 9.94643 49.0369H31.7449C32.2624 49.0369 32.6851 49.4604 32.6851 49.9789C32.6851 50.4987 32.2624 50.9209 31.7449 50.9209Z" fill="#2A5082"/>
<path d="M35.2305 46.0144H9.94643C9.42892 46.0144 9.00623 45.5909 9.00623 45.0724C9.00623 44.55 9.42892 44.1278 9.94643 44.1278H35.2318C35.7493 44.1278 36.172 44.55 36.172 45.0724C36.172 45.5909 35.7493 46.0144 35.2305 46.0144Z" fill="#2A5082"/>
<path d="M47.8028 24.4608L51.4517 20.809C52.2273 20.0266 52.0035 19.1519 50.9303 18.8696L33.9039 14.2889C32.8386 14.0132 32.2065 14.6477 32.4857 15.7151L37.0564 32.7752C37.3395 33.8465 38.2138 34.0707 38.9855 33.2924L42.637 29.6352L49.8162 36.8268C50.5958 37.6092 51.8705 37.6092 52.6487 36.8228L54.9847 34.4903C55.7524 33.7119 55.7524 32.4348 54.9808 31.6498L47.8028 24.4608Z" fill="#A3D4FF"/>
<path d="M51.2298 38.3552C50.4437 38.3552 49.705 38.0504 49.1506 37.4937L42.6363 30.9683L39.6498 33.9592C38.4146 35.2086 36.5895 34.7046 36.1484 33.0172L31.5778 15.9611C31.3789 15.2025 31.4856 14.5111 31.8754 14.0032C32.3573 13.3739 33.2014 13.1351 34.139 13.3778L51.1719 17.9611C52.0094 18.1815 52.6006 18.7066 52.7889 19.4005C52.9799 20.0984 52.7336 20.8531 52.12 21.4745L49.1335 24.4614L55.6477 30.9868C56.7828 32.1412 56.7868 34.0093 55.6543 35.1558L53.3144 37.4937C52.7626 38.0478 52.0199 38.3552 51.2298 38.3552ZM42.6363 28.6938C42.8786 28.6938 43.1183 28.7862 43.3013 28.9695L50.4806 36.1611C50.8809 36.5662 51.5867 36.5569 51.9791 36.1598L54.3191 33.8246C54.7194 33.4222 54.7154 32.7283 54.3125 32.314L47.1372 25.129C46.9607 24.9522 46.862 24.7134 46.862 24.4627C46.862 24.2121 46.9607 23.9733 47.1372 23.7965L50.7861 20.1446C50.9151 20.014 50.9546 19.9217 50.9665 19.8874C50.9441 19.886 50.8677 19.828 50.6913 19.7831L33.661 15.1998C33.5727 15.1761 33.495 15.1708 33.4147 15.1642C33.3634 15.1642 33.337 15.2631 33.3963 15.4769L37.963 32.5317C38.0104 32.7085 38.0657 32.7876 38.092 32.8154C38.1026 32.7969 38.1908 32.756 38.3159 32.6293L41.9713 28.9709C42.1557 28.7862 42.398 28.6938 42.6363 28.6938Z" fill="#2A5082"/>
<path d="M22.3432 78.0001C21.9599 78.0001 21.6469 77.5766 21.6469 77.0581V65.4547C21.6469 64.9349 21.9599 64.5127 22.3432 64.5127C22.7264 64.5127 23.0395 64.9362 23.0395 65.4547V77.0581C23.0395 77.5766 22.7264 78.0001 22.3432 78.0001Z" fill="#2A5082"/>
<path d="M15.2184 74.8827C14.8386 74.8827 14.5285 74.4632 14.5285 73.9407V68.4853C14.5285 67.9629 14.8386 67.5433 15.2184 67.5433C15.5981 67.5433 15.9082 67.9629 15.9082 68.4853V73.9407C15.9082 74.4618 15.5981 74.8827 15.2184 74.8827Z" fill="#2A5082"/>
<path d="M29.4639 70.9466C29.0748 70.9466 28.757 70.5231 28.757 70.0046V68.1378C28.757 67.6193 29.0748 67.1958 29.4639 67.1958C29.8529 67.1958 30.1707 67.6193 30.1707 68.1378V70.0046C30.1717 70.5231 29.8539 70.9466 29.4639 70.9466Z" fill="#2A5082"/>
</svg>
