<svg width="161" height="135" viewBox="0 0 161 135" fill="none" xmlns="http://www.w3.org/2000/svg">
<path d="M88.5731 97.377C115.478 97.377 137.288 75.5785 137.288 48.6885C137.288 21.7986 115.478 0 88.5731 0C61.6684 0 39.8579 21.7986 39.8579 48.6885C39.8579 75.5785 61.6684 97.377 88.5731 97.377Z" fill="#E9EAEB"/>
<path d="M101.859 28.7705H35.4292C39.105 28.7705 42.0722 31.7361 42.0722 35.4099V123.934C42.0722 128.825 46.0358 132.787 50.9295 132.787H108.502V35.4099C108.502 31.7361 105.535 28.7705 101.859 28.7705Z" fill="white"/>
<path d="M75.287 13.2787H8.8573C12.5331 13.2787 15.5003 16.2443 15.5003 19.918V104.016C15.5003 108.907 19.4639 112.869 24.3576 112.869H81.93V19.918C81.93 16.2443 78.9628 13.2787 75.287 13.2787Z" fill="white"/>
<path d="M22.1433 112.869H37.6436" stroke="#2A5082" stroke-width="2" stroke-miterlimit="10"/>
<path d="M35.4292 28.7705H101.859C105.535 28.7705 108.502 31.7361 108.502 35.4099V121.721" stroke="#2A5082" stroke-width="2" stroke-miterlimit="10"/>
<path d="M8.8573 13.2787H75.287C78.9628 13.2787 81.93 16.2443 81.93 19.918V24.3443" stroke="#2A5082" stroke-width="2" stroke-miterlimit="10"/>
<path d="M50.9295 132.787C46.0358 132.787 42.0722 128.825 42.0722 123.934V35.4098C42.0722 31.7361 39.105 28.7705 35.4292 28.7705C31.7534 28.7705 28.7863 31.7361 28.7863 35.4098V106.23C28.7863 109.903 25.8191 112.869 22.1433 112.869C18.4675 112.869 15.5003 109.903 15.5003 106.23V19.918C15.5003 16.2443 12.5331 13.2787 8.85733 13.2787C5.18155 13.2787 2.21436 16.2443 2.21436 19.918V26.5574H11.0717" stroke="#2A5082" stroke-width="2" stroke-miterlimit="10"/>
<path d="M59.7867 123.934V121.721H121.788V123.934C121.788 128.825 117.824 132.787 112.931 132.787H50.9294C55.8231 132.787 59.7867 128.825 59.7867 123.934Z" fill="#A3D4FF" stroke="#2A5082" stroke-width="2" stroke-miterlimit="10"/>
<circle cx="76" cy="80" r="19" fill="#A3D4FF" stroke="#2A5082" stroke-width="2"/>
<path d="M85.125 71L80.0025 78.5682L72.75 89L66 80" stroke="white" stroke-width="2" stroke-linecap="round" stroke-linejoin="round"/>
<path d="M139.731 23.9092L135.659 27.9813" stroke="#BCC0C4" stroke-width="2" stroke-miterlimit="10"/>
<path d="M149.912 13.7288L145.84 17.8009" stroke="#BCC0C4" stroke-width="2" stroke-miterlimit="10"/>
<path d="M145.84 23.9092L149.912 27.9813" stroke="#BCC0C4" stroke-width="2" stroke-miterlimit="10"/>
<path d="M135.659 13.7288L139.731 17.8009" stroke="#BCC0C4" stroke-width="2" stroke-miterlimit="10"/>
<path d="M119.371 32.0532V44.2695" stroke="#BCC0C4" stroke-width="2" stroke-miterlimit="10"/>
<path d="M113.263 38.1614H125.479" stroke="#BCC0C4" stroke-width="2" stroke-miterlimit="10"/>
</svg>
