<svg width="57" height="21" viewBox="0 0 57 21" fill="none" xmlns="http://www.w3.org/2000/svg">
<path d="M6.17001 6.52002C6.22001 6.52002 6.27 6.54002 6.31 6.59002L6.70001 7.01003C6.41001 7.35003 6.05 7.62003 5.63 7.80003C5.21 7.99003 4.70999 8.09002 4.10999 8.09002C3.59999 8.09002 3.12999 8.00002 2.70999 7.82002C2.28999 7.64002 1.93 7.39002 1.63 7.07002C1.33 6.75002 1.1 6.36003 0.940002 5.91003C0.780002 5.46003 0.690002 4.97002 0.690002 4.43002C0.690002 3.89002 0.780002 3.39002 0.940002 2.95002C1.11 2.50002 1.35 2.11002 1.66 1.79002C1.97 1.47002 2.33999 1.22002 2.76999 1.04002C3.19999 0.860024 3.67 0.77002 4.19 0.77002C4.7 0.77002 5.15001 0.85002 5.54001 1.02002C5.93001 1.18002 6.27001 1.40003 6.57001 1.69003L6.25 2.13002C6.23 2.16002 6.20001 2.19002 6.17001 2.21002C6.14001 2.23002 6.10001 2.24002 6.04001 2.24002C5.98001 2.24002 5.91001 2.21002 5.82001 2.14002C5.73001 2.08002 5.62001 2.00002 5.48001 1.92002C5.34001 1.84002 5.16001 1.77002 4.95001 1.70002C4.74001 1.64002 4.47999 1.60002 4.17999 1.60002C3.80999 1.60002 3.47 1.66002 3.16 1.79002C2.85 1.92002 2.59 2.10002 2.37 2.35002C2.15 2.59002 1.98001 2.89002 1.85001 3.24002C1.73001 3.59002 1.66 3.99002 1.66 4.42002C1.66 4.87002 1.72001 5.27003 1.85001 5.62003C1.98001 5.97003 2.15 6.27003 2.37 6.51003C2.59 6.75002 2.85 6.94002 3.16 7.06002C3.46 7.19002 3.79001 7.25002 4.14001 7.25002C4.35001 7.25002 4.55 7.24002 4.72 7.21002C4.89 7.19002 5.05001 7.15002 5.20001 7.09002C5.34001 7.04002 5.48001 6.97002 5.60001 6.89002C5.72001 6.81002 5.85 6.71002 5.97 6.60002C6.05 6.54002 6.11001 6.52002 6.17001 6.52002Z" fill="#5A5E60"/>
<path d="M14.29 4.42C14.29 4.96 14.21 5.45 14.04 5.9C13.87 6.35 13.63 6.73 13.32 7.06C13.01 7.38 12.64 7.63 12.2 7.81C11.77 7.99 11.28 8.08 10.76 8.08C10.23 8.08 9.75001 7.99 9.32001 7.81C8.89001 7.63 8.51001 7.38 8.20001 7.06C7.89001 6.74 7.65001 6.35 7.48001 5.9C7.31001 5.45 7.23001 4.96 7.23001 4.42C7.23001 3.88 7.31001 3.39 7.48001 2.94C7.65001 2.49 7.89001 2.11 8.20001 1.78C8.51001 1.45 8.88001 1.2 9.32001 1.02C9.75001 0.839997 10.23 0.75 10.76 0.75C11.29 0.75 11.77 0.839997 12.2 1.02C12.64 1.2 13.01 1.45 13.32 1.78C13.63 2.1 13.87 2.49 14.04 2.94C14.21 3.39 14.29 3.88 14.29 4.42ZM13.3 4.42C13.3 3.98 13.24 3.59 13.12 3.24C13 2.89 12.83 2.59 12.61 2.35C12.39 2.11 12.12 1.92 11.81 1.79C11.5 1.66 11.15 1.6 10.76 1.6C10.38 1.6 10.03 1.67 9.70999 1.79C9.39999 1.92 9.13 2.11 8.91 2.35C8.69 2.59 8.51999 2.89 8.39999 3.24C8.27999 3.59 8.22 3.99 8.22 4.42C8.22 4.86 8.27999 5.25 8.39999 5.6C8.51999 5.95 8.69 6.24 8.91 6.48C9.13 6.72 9.39999 6.91 9.70999 7.04C10.02 7.17 10.37 7.23 10.76 7.23C11.15 7.23 11.5 7.17 11.81 7.04C12.12 6.91 12.39 6.73 12.61 6.48C12.83 6.24 13 5.94 13.12 5.6C13.24 5.25 13.3 4.86 13.3 4.42Z" fill="#5A5E60"/>
<path d="M21.49 0.829956V7.99995H21C20.92 7.99995 20.86 7.98995 20.81 7.95995C20.76 7.92995 20.71 7.88996 20.66 7.82996L16.51 2.42995C16.52 2.50995 16.52 2.59995 16.52 2.67995C16.52 2.75995 16.53 2.83996 16.53 2.90996V7.99995H15.68V0.829956H16.18C16.22 0.829956 16.26 0.829951 16.29 0.839951C16.32 0.849951 16.35 0.849957 16.37 0.869957C16.39 0.879957 16.42 0.899952 16.44 0.919952C16.46 0.939952 16.49 0.969954 16.52 0.999954L20.67 6.38995C20.66 6.29995 20.66 6.21995 20.65 6.13995C20.65 6.05995 20.64 5.97996 20.64 5.90996V0.829956H21.49Z" fill="#5A5E60"/>
<path d="M26.98 1.96C26.95 2.01 26.92 2.05 26.88 2.07C26.84 2.09 26.8 2.11 26.75 2.11C26.69 2.11 26.63 2.08 26.55 2.02C26.47 1.96 26.38 1.9 26.26 1.83C26.14 1.76 26.01 1.7 25.84 1.64C25.68 1.58 25.48 1.56 25.25 1.56C25.03 1.56 24.84 1.59 24.68 1.65C24.51 1.71 24.38 1.79 24.26 1.89C24.15 1.99 24.06 2.11 24.01 2.24C23.95 2.38 23.93 2.52 23.93 2.68C23.93 2.88 23.98 3.05 24.08 3.18C24.18 3.31 24.31 3.42 24.47 3.52C24.63 3.61 24.81 3.69 25.02 3.76C25.23 3.83 25.44 3.9 25.65 3.97C25.86 4.04 26.07 4.13 26.28 4.22C26.49 4.31 26.67 4.43 26.83 4.57C26.99 4.71 27.12 4.88 27.22 5.09C27.32 5.29 27.37 5.54 27.37 5.84C27.37 6.15 27.32 6.45 27.21 6.72C27.1 6.99 26.95 7.23 26.74 7.44C26.53 7.64 26.28 7.8 25.99 7.92C25.69 8.04 25.35 8.1 24.97 8.1C24.5 8.1 24.08 8.02 23.7 7.85C23.32 7.68 22.99 7.45 22.72 7.17L23 6.71C23.03 6.67 23.06 6.64 23.1 6.62C23.14 6.6 23.18 6.58 23.23 6.58C23.27 6.58 23.32 6.6 23.38 6.63C23.44 6.67 23.5 6.71 23.57 6.76C23.64 6.81 23.72 6.87 23.81 6.93C23.9 6.99 24 7.05 24.12 7.1C24.24 7.15 24.37 7.2 24.51 7.23C24.66 7.26 24.82 7.28 25.01 7.28C25.24 7.28 25.44 7.25 25.63 7.19C25.81 7.13 25.96 7.04 26.09 6.92C26.21 6.8 26.31 6.67 26.38 6.51C26.45 6.35 26.48 6.17 26.48 5.97C26.48 5.75 26.43 5.58 26.33 5.44C26.23 5.3 26.1 5.19 25.94 5.09C25.78 5 25.6 4.92 25.39 4.85C25.18 4.78 24.97 4.72 24.76 4.65C24.55 4.58 24.34 4.5 24.13 4.41C23.92 4.32 23.74 4.2 23.58 4.06C23.42 3.92 23.29 3.74 23.19 3.52C23.09 3.31 23.04 3.04 23.04 2.72C23.04 2.47 23.09 2.22 23.19 1.99C23.29 1.75 23.43 1.54 23.62 1.36C23.81 1.18 24.04 1.03 24.32 0.919998C24.59 0.809998 24.91 0.75 25.27 0.75C25.67 0.75 26.03 0.810002 26.36 0.940002C26.69 1.07 26.98 1.25 27.23 1.49L26.98 1.96Z" fill="#5A5E60"/>
<path d="M31.5 7.22996C31.8 7.22996 32.06 7.17996 32.29 7.07996C32.52 6.97996 32.72 6.83996 32.88 6.65996C33.04 6.47996 33.17 6.25996 33.25 6.00996C33.33 5.75996 33.38 5.48995 33.38 5.17995V0.829956H34.34V5.17995C34.34 5.58995 34.27 5.97996 34.14 6.32996C34.01 6.67996 33.82 6.98995 33.58 7.24995C33.33 7.50995 33.04 7.70995 32.68 7.85995C32.33 8.00995 31.93 8.07996 31.49 8.07996C31.05 8.07996 30.65 8.00995 30.3 7.85995C29.95 7.70995 29.65 7.50995 29.4 7.24995C29.15 6.98995 28.96 6.68996 28.83 6.32996C28.7 5.97996 28.63 5.58995 28.63 5.17995V0.829956H29.59V5.17995C29.59 5.47995 29.63 5.74995 29.72 5.99995C29.8 6.24995 29.93 6.46995 30.09 6.63995C30.25 6.81995 30.45 6.95995 30.68 7.05995C30.94 7.17995 31.21 7.22996 31.5 7.22996Z" fill="#5A5E60"/>
<path d="M43.55 0.829956V7.99995H42.7V2.72996C42.7 2.65996 42.7 2.57995 42.71 2.49995C42.71 2.41995 42.72 2.33996 42.73 2.25996L40.27 6.73995C40.19 6.88995 40.08 6.96996 39.92 6.96996H39.78C39.62 6.96996 39.51 6.88995 39.43 6.73995L36.92 2.23995C36.94 2.41995 36.95 2.57996 36.95 2.72996V7.99995H36.1V0.829956H36.81C36.9 0.829956 36.96 0.839953 37.01 0.849953C37.06 0.869953 37.1 0.909952 37.14 0.989952L39.61 5.39996C39.65 5.47996 39.69 5.55996 39.73 5.64996C39.77 5.73996 39.8 5.81996 39.84 5.90996C39.87 5.81996 39.91 5.72995 39.94 5.63995C39.98 5.54995 40.02 5.46995 40.06 5.38995L42.49 0.989952C42.53 0.909952 42.58 0.869953 42.62 0.849953C42.67 0.829953 42.74 0.829956 42.82 0.829956H43.55Z" fill="#5A5E60"/>
<path d="M49.8 7.20995V7.99995H45.38V0.829956H49.8V1.61996H46.35V3.99995H49.14V4.75996H46.35V7.19995H49.8V7.20995Z" fill="#5A5E60"/>
<path d="M56.45 7.99995H55.59C55.41 7.99995 55.28 7.92996 55.2 7.78996L53.34 5.22996C53.28 5.14996 53.22 5.08995 53.16 5.05995C53.09 5.01995 52.99 5.00996 52.86 5.00996H52.12V7.99995H51.16V0.829956H53.19C53.64 0.829956 54.03 0.879955 54.36 0.969955C54.69 1.05996 54.96 1.18996 55.18 1.36996C55.39 1.53996 55.55 1.74995 55.66 1.99995C55.76 2.24995 55.82 2.51995 55.82 2.81995C55.82 3.06995 55.78 3.30995 55.7 3.52995C55.62 3.74995 55.5 3.94996 55.35 4.11996C55.2 4.28996 55.01 4.43995 54.8 4.56995C54.58 4.68995 54.33 4.78995 54.06 4.84995C54.18 4.91995 54.29 5.01996 54.38 5.14996L56.45 7.99995ZM53.14 4.30995C53.42 4.30995 53.67 4.27995 53.88 4.20995C54.09 4.13995 54.28 4.03995 54.42 3.91995C54.57 3.79995 54.67 3.64996 54.75 3.46996C54.82 3.29996 54.86 3.10996 54.86 2.89996C54.86 2.46996 54.72 2.14995 54.44 1.92995C54.16 1.70995 53.74 1.60995 53.18 1.60995H52.12V4.31995H53.14V4.30995Z" fill="#5A5E60"/>
<path d="M16.94 18.52C16.99 18.52 17.04 18.54 17.08 18.59L17.47 19.01C17.18 19.35 16.82 19.62 16.4 19.8C15.98 19.99 15.48 20.09 14.88 20.09C14.37 20.09 13.9 20 13.48 19.82C13.06 19.64 12.7 19.39 12.4 19.07C12.1 18.75 11.87 18.36 11.71 17.91C11.55 17.46 11.46 16.97 11.46 16.43C11.46 15.89 11.54 15.39 11.71 14.95C11.88 14.5 12.12 14.11 12.43 13.79C12.74 13.47 13.11 13.22 13.54 13.04C13.97 12.86 14.44 12.77 14.96 12.77C15.47 12.77 15.92 12.85 16.31 13.02C16.7 13.18 17.04 13.4 17.34 13.69L17.02 14.13C17 14.16 16.97 14.19 16.94 14.21C16.91 14.23 16.87 14.24 16.81 14.24C16.75 14.24 16.68 14.21 16.59 14.14C16.5 14.08 16.39 14 16.25 13.92C16.11 13.84 15.93 13.77 15.72 13.7C15.51 13.64 15.25 13.6 14.95 13.6C14.58 13.6 14.24 13.66 13.93 13.79C13.62 13.92 13.36 14.1 13.14 14.35C12.92 14.59 12.75 14.89 12.62 15.24C12.5 15.59 12.43 15.99 12.43 16.42C12.43 16.87 12.49 17.27 12.62 17.62C12.75 17.97 12.92 18.27 13.14 18.51C13.36 18.75 13.62 18.94 13.93 19.06C14.23 19.19 14.56 19.25 14.91 19.25C15.12 19.25 15.32 19.24 15.49 19.21C15.66 19.19 15.82 19.15 15.97 19.09C16.11 19.04 16.25 18.97 16.37 18.89C16.49 18.81 16.62 18.71 16.74 18.6C16.83 18.54 16.89 18.52 16.94 18.52Z" fill="#5A5E60"/>
<path d="M23.89 20H23.03C22.85 20 22.72 19.93 22.64 19.79L20.78 17.23C20.72 17.15 20.66 17.09 20.6 17.06C20.54 17.02 20.43 17.01 20.3 17.01H19.56V20H18.6V12.83H20.62C21.07 12.83 21.47 12.88 21.8 12.97C22.13 13.06 22.4 13.19 22.62 13.37C22.83 13.54 22.99 13.75 23.1 14C23.2 14.25 23.25 14.52 23.25 14.82C23.25 15.07 23.21 15.31 23.13 15.53C23.05 15.75 22.93 15.95 22.78 16.12C22.63 16.29 22.44 16.44 22.22 16.57C22 16.69 21.75 16.79 21.48 16.85C21.6 16.92 21.71 17.02 21.8 17.15L23.89 20ZM20.58 16.31C20.86 16.31 21.11 16.28 21.32 16.21C21.53 16.14 21.71 16.04 21.86 15.92C22 15.8 22.11 15.65 22.19 15.47C22.26 15.3 22.3 15.11 22.3 14.9C22.3 14.47 22.16 14.15 21.88 13.93C21.6 13.71 21.18 13.61 20.62 13.61H19.56V16.32H20.58V16.31Z" fill="#5A5E60"/>
<path d="M29.28 19.21V20H24.86V12.83H29.28V13.62H25.83V16H28.62V16.76H25.83V19.2H29.28V19.21Z" fill="#5A5E60"/>
<path d="M36.84 16.42C36.84 16.96 36.75 17.44 36.59 17.88C36.42 18.32 36.18 18.7 35.87 19.01C35.56 19.32 35.19 19.57 34.75 19.74C34.31 19.91 33.83 20 33.31 20H30.64V12.83H33.31C33.84 12.83 34.32 12.92 34.75 13.09C35.18 13.26 35.56 13.51 35.87 13.82C36.18 14.14 36.42 14.51 36.59 14.95C36.76 15.39 36.84 15.88 36.84 16.42ZM35.85 16.42C35.85 15.98 35.79 15.59 35.67 15.24C35.55 14.89 35.38 14.6 35.16 14.36C34.94 14.12 34.67 13.94 34.36 13.81C34.05 13.68 33.7 13.62 33.31 13.62H31.61V19.21H33.31C33.7 19.21 34.05 19.15 34.36 19.02C34.67 18.89 34.94 18.71 35.16 18.47C35.38 18.23 35.55 17.94 35.67 17.59C35.79 17.25 35.85 16.86 35.85 16.42Z" fill="#5A5E60"/>
<path d="M39.21 20H38.24V12.83H39.21V20Z" fill="#5A5E60"/>
<path d="M45.88 13.65H43.56V20H42.6V13.65H40.27V12.84H45.88V13.65Z" fill="#5A5E60"/>
</svg>
