<svg width="24" height="24" viewBox="0 0 24 24" fill="none" xmlns="http://www.w3.org/2000/svg">
<path d="M14.125 4H7.625C7.19402 4 6.7807 4.16857 6.47595 4.46863C6.1712 4.76869 6 5.17565 6 5.6V18.4C6 18.8243 6.1712 19.2313 6.47595 19.5314C6.7807 19.8314 7.19402 20 7.625 20H17.375C17.806 20 18.2193 19.8314 18.524 19.5314C18.8288 19.2313 19 18.8243 19 18.4V8.8L14.125 4Z" stroke="#4080FE" stroke-width="2" stroke-linecap="round" stroke-linejoin="round"/>
<path d="M14 4V9H19" stroke="#4080FE" stroke-width="2" stroke-linecap="round" stroke-linejoin="round"/>
<path d="M16 13H9" stroke="#4080FE" stroke-width="2" stroke-linecap="round" stroke-linejoin="round"/>
<path d="M16 16H9" stroke="#4080FE" stroke-width="2" stroke-linecap="round" stroke-linejoin="round"/>
<path d="M11 9H10H9" stroke="#4080FE" stroke-width="2" stroke-linecap="round" stroke-linejoin="round"/>
</svg>
