<svg width="560" height="551" viewBox="0 0 560 551" fill="none" xmlns="http://www.w3.org/2000/svg">
<g clip-path="url(#clip0)">
<path opacity="0.43" d="M438.042 478.215L560 385.133L381.363 306.669L438.042 478.215Z" fill="url(#paint0_linear)"/>
<path d="M448.906 301.686C448.906 301.686 479.142 245.589 546.417 240.41C546.417 240.41 519.723 284.077 496.301 305.894C472.876 327.711 448.906 391.45 448.906 391.45V301.686Z" fill="url(#paint1_linear)"/>
<path d="M440.188 275.916C440.188 275.916 441.749 201.905 486.835 175.649C548.597 139.683 557.7 120.057 557.7 120.057C557.7 120.057 554.587 204.991 498.944 243.443C455.6 273.396 445.774 358.877 445.774 358.877L440.188 275.916Z" fill="url(#paint2_linear)"/>
<path opacity="0.43" d="M76.171 539.541L15.8494 515.408C-0.739706 508.77 -4.99934 497.18 6.38109 489.652L141.082 400.535C152.462 393.004 175.346 392.276 191.935 398.911L252.257 423.044C268.846 429.682 273.105 441.272 261.725 448.8L127.024 537.917C115.641 545.445 92.7574 546.176 76.171 539.541Z" fill="url(#paint3_linear)"/>
<path d="M245.309 407.137L234.696 407.954L234.291 412.65L197.364 383.269L165.677 391.634L164.638 408.618C164.39 411.512 165.308 414.45 167.499 416.194L49.2092 493.879C55.8583 499.169 100.721 518.444 108.233 513.7L234.071 434.405C241.005 430.477 243.126 422.561 243.126 422.561L245.309 407.137Z" fill="#0E2E82"/>
<path d="M65.4384 525.559L21.7674 506.186C18.7778 504.861 16.7513 502.199 16.3465 499.102C15.4924 492.565 15.3696 482.246 15.5426 480.21L31.4283 481.15L63.5152 467.308L115.979 509.493L93.1317 523.689C85.6117 528.366 78.7952 531.932 65.4384 525.559Z" fill="#0E2E82"/>
<path d="M446.402 98.1205L206.807 0.477009C204.784 -0.418649 202.961 -0.0112782 201.691 1.33918L201.688 1.33081L189.562 8.3203L199.89 43.8397V350.35C199.89 355.551 203.003 361.182 206.807 362.864L415.92 455.354L438.042 478.214L450.037 469.138L449.984 469.035C451.977 468.251 453.316 465.851 453.316 462.444V110.64C453.316 105.436 450.204 99.803 446.402 98.1205Z" fill="#0E2E82"/>
<path d="M433.272 478.083L193.677 372.111C189.872 370.429 186.76 364.798 186.76 359.597V15.1955C186.76 9.99455 189.872 7.11784 193.677 8.80034L433.272 107.37C437.076 109.053 440.189 114.683 440.189 119.884V471.688C440.189 476.889 437.076 479.766 433.272 478.083Z" fill="#91B0F5"/>
<path d="M426.868 452.321L205.641 354.474L205.643 37.958L426.871 128.707L426.868 452.321Z" fill="white" stroke="#35519C" stroke-width="3.0579" stroke-miterlimit="10"/>
<path d="M366.217 76.145L364.157 75.2326C362.759 64.5433 355.286 53.4885 346.348 49.5348L287.149 23.3514C278.211 19.3977 270.738 23.8425 269.34 33.2929L267.28 32.3805C257.354 27.9887 249.231 33.9542 249.231 45.6313C249.231 57.3111 257.354 70.4586 267.28 74.8476L366.22 118.609C376.146 123.001 384.269 117.036 384.269 105.359C384.266 93.6815 376.143 80.534 366.217 76.145Z" fill="#0E2E82"/>
<path d="M41.0109 422.843C39.445 421.942 37.9209 420.753 36.5168 419.218C33.0974 415.022 33.0639 405.092 42.6802 408.395C45.7507 409.455 48.7374 410.778 51.2888 412.246C55.7605 414.813 58.9008 417.815 58.8366 420.591C58.7641 424.257 49.2706 427.586 41.0109 422.843Z" fill="#0E53E6"/>
<path d="M183.34 341.723L236.706 366.126C219.332 365.309 224.7 378.944 187.887 380.033L153.207 403.281C143.337 409.899 135.195 418.711 129.269 429.199C126.005 434.975 122.561 440.979 120.333 444.604C117.606 449.032 108.074 466.1 108.074 466.1C108.074 466.1 90.0916 481.51 84.1935 489.306C82.2367 491.895 84.6094 494.392 83.1439 497.501C80.0901 503.996 84.6596 507.975 79.3058 518.26L15.7266 491.831C14.5542 485.438 15.8802 470.327 18.9339 463.831C20.3994 460.723 22.1468 457.827 24.1063 455.234C30.0073 447.439 45.2063 431.696 51.7912 425.201C53.5051 423.507 58.9148 409.031 67.8025 392.753C74.1333 381.16 83.1327 371.556 94.1587 364.622C94.1587 364.622 132.347 342.647 132.772 342.421C147.851 334.321 165.844 333.464 183.34 341.723Z" fill="#3072FF"/>
<path d="M75.2892 386.221L56.76 423.217L70.1251 429.031L70.1084 429.062L113.81 448.08L132.995 409.771L75.2892 386.221Z" fill="#173891"/>
<path d="M247.933 393.361L247.545 393.587C248.352 391.52 248.321 389.391 247.405 387.474L247.436 387.493L239.285 368.972C239.081 368.383 238.836 367.822 238.548 367.298L238.52 367.234L238.518 367.239C236.011 364.245 225.889 364.268 223.626 364.248C201.537 364.044 172.711 387.273 154.642 399.589C147.586 404.399 141.545 410.39 136.833 417.259C131.954 424.374 125.104 435.184 117.043 450.173C115.189 453.621 88.1434 475.321 86.3514 478.276C82.6081 484.453 81.4748 487.598 81.1064 493.828C81.1064 493.828 79.3087 518.05 79.3115 518.26C85.6647 517.911 89.4414 514.755 92.0011 513.513L96.4506 510.642C97.944 496.192 106.536 482.645 116.434 476.395C125.83 470.731 132.783 473.373 132.013 487.001L164.387 466.384L196.669 446.537C198.163 432.087 206.755 418.54 216.653 412.29C226.049 406.626 233.002 409.268 232.234 422.896L235.905 420.557L237.521 401.782L235.905 420.557L241.49 417.502C243.377 416.47 244.988 414.709 246.079 412.485C246.984 410.644 247.495 408.562 247.556 406.461L247.933 393.361Z" fill="#0E53E6"/>
<path d="M134.109 453.613L168.638 432.29L171.639 402.96C171.639 402.96 150.441 408.716 133.068 448.022C131.756 450.99 132.359 454.676 134.109 453.613Z" fill="#173891"/>
<path d="M184.577 426.467L204.694 413.281C209.529 410.117 214.629 401.327 217.819 393.785C217.892 393.607 217.97 393.431 218.043 393.252C221.038 385.967 219.885 378.403 215.639 379.184C210.788 380.069 190.788 392.454 189.735 393.105C189.61 393.172 189.487 393.244 189.361 393.325C187.192 394.737 185.11 398.241 184.496 401.618L180.795 421.863C180.03 426.065 181.827 428.256 184.577 426.467Z" fill="#173891"/>
<path d="M242.325 388.707L242.347 388.529C242.596 386.456 241.912 385.016 240.659 385.141C240.072 385.206 239.416 385.496 238.733 385.939C237.158 386.961 235.425 388.791 233.976 390.524C232.282 392.547 231.581 395.873 232.592 397.178C232.98 397.689 233.605 397.734 234.294 397.31L239.137 394.313C239.16 394.299 239.185 394.285 239.207 394.268C240.675 393.311 242.029 390.942 242.325 388.707Z" fill="white"/>
<path d="M306.702 148.406L370.898 173.803" stroke="#849AD1" stroke-width="9" stroke-miterlimit="10" stroke-linecap="round" stroke-linejoin="round"/>
<path d="M307.049 175.65L414.812 221.175" stroke="#849AD1" stroke-width="9" stroke-miterlimit="10" stroke-linecap="round" stroke-linejoin="round"/>
<path d="M273.373 174.087L231.612 154.145L230.026 104.281L271.788 124.223L273.373 174.087Z" fill="#3072FF"/>
<path d="M239.545 129.935L249.515 149.433L261.256 134.801" stroke="white" stroke-width="3" stroke-miterlimit="10" stroke-linecap="round" stroke-linejoin="round"/>
<path d="M306.702 230.815L370.898 256.211" stroke="#849AD1" stroke-width="9" stroke-miterlimit="10" stroke-linecap="round" stroke-linejoin="round"/>
<path d="M307.049 258.061L414.812 303.586" stroke="#849AD1" stroke-width="9" stroke-miterlimit="10" stroke-linecap="round" stroke-linejoin="round"/>
<path d="M273.373 256.496L231.612 236.554L230.026 186.693L271.788 206.635L273.373 256.496Z" fill="#40C2A6"/>
<path d="M239.545 212.346L249.515 231.844L261.256 217.212" stroke="white" stroke-width="3" stroke-miterlimit="10" stroke-linecap="round" stroke-linejoin="round"/>
<path d="M306.702 313.227L370.898 340.47" stroke="#849AD1" stroke-width="9" stroke-miterlimit="10" stroke-linecap="round" stroke-linejoin="round"/>
<path d="M307.049 340.47L414.812 385.995" stroke="#849AD1" stroke-width="9" stroke-miterlimit="10" stroke-linecap="round" stroke-linejoin="round"/>
<path d="M273.373 338.908L231.612 318.966L230.026 269.105L271.788 289.047L273.373 338.908Z" fill="#3072FF"/>
<path d="M239.545 294.755L249.515 314.253L261.256 299.624" stroke="white" stroke-width="3" stroke-miterlimit="10" stroke-linecap="round" stroke-linejoin="round"/>
<path d="M73.1062 104.786L99.7275 116.798V95.2522L73.1062 83.2432V104.786Z" fill="#BAD0FF"/>
<path d="M132.772 133.129L106.148 121.117V68.2764L132.772 80.2882V133.129Z" fill="#BAD0FF"/>
<path d="M142.327 51.9426V84.5658V104.784V137.407L168.951 149.419V116.796V96.5777V63.9545L142.327 51.9426Z" fill="#BAD0FF"/>
<path opacity="0.43" d="M269.725 518.486C287.042 518.486 301.08 510.547 301.08 500.754C301.08 490.961 287.042 483.022 269.725 483.022C252.408 483.022 238.369 490.961 238.369 500.754C238.369 510.547 252.408 518.486 269.725 518.486Z" fill="url(#paint4_linear)"/>
<path d="M290.576 494.409C290.833 495.567 290.345 504.244 289.82 505.489C288.829 509.459 285.368 513.226 279.525 516.002C266.707 522.093 247.31 521.108 236.201 513.801C231.023 510.394 228.212 506.934 228.147 502.612C227.98 500.274 227.91 493.748 227.91 493.748C228.318 492.322 229.97 493.806 231.02 492.475C232.75 489.85 235.653 487.439 239.718 485.508C252.536 479.417 271.933 480.402 283.043 487.71C287.718 490.784 290.25 490.692 290.576 494.409Z" fill="#91B0F5"/>
<path d="M259.266 512.141C276.583 512.141 290.621 504.202 290.621 494.409C290.621 484.616 276.583 476.677 259.266 476.677C241.949 476.677 227.91 484.616 227.91 494.409C227.91 504.202 241.949 512.141 259.266 512.141Z" fill="white"/>
<path d="M259.266 511.173C276.583 511.173 290.621 503.234 290.621 493.441C290.621 483.648 276.583 475.709 259.266 475.709C241.949 475.709 227.91 483.648 227.91 493.441C227.91 503.234 241.949 511.173 259.266 511.173Z" fill="#BAD0FF"/>
<path d="M259.243 505.372C271.35 505.372 281.164 499.821 281.164 492.975C281.164 486.128 271.35 480.578 259.243 480.578C247.137 480.578 237.323 486.128 237.323 492.975C237.323 499.821 247.137 505.372 259.243 505.372Z" fill="white" stroke="#35519C" stroke-width="2.0735" stroke-miterlimit="10"/>
<path opacity="0.43" d="M245.267 484.947C254.593 480.581 268.41 481.315 276.128 486.585C279.204 488.686 280.849 491.192 281.119 493.723C281.446 490.692 279.821 487.59 276.128 485.067C268.41 479.797 254.59 479.063 245.267 483.43C239.659 486.055 236.954 489.928 237.367 493.745C237.722 490.441 240.402 487.227 245.267 484.947Z" fill="#78B5EB"/>
<path d="M249.552 497.046C248.248 495.955 247.182 494.423 247.165 493.047L251.489 492.791C251.743 494.163 252.312 495.176 253.529 495.988C254.95 496.934 256.212 497.046 257.465 496.424C260.276 495.031 253.529 490.603 258.442 488.173C261.116 486.85 264.444 486.909 267.347 488.24L270.157 486.848L272.617 488.485L269.859 489.85C271.235 491.052 271.528 492.261 271.397 493.471L267.227 493.357C267.215 492.302 266.892 491.552 265.828 490.843C264.611 490.034 263.433 489.85 262.205 490.458C259.612 491.742 266.523 496.089 261.309 498.67C258.688 499.967 255.324 500.07 252.111 498.628L249.272 500.031L246.813 498.393L249.552 497.046Z" fill="#91B0F5"/>
<path d="M259.721 512.459L259.802 519.995" stroke="#35519C" stroke-width="2.0735" stroke-miterlimit="10" stroke-linecap="round" stroke-linejoin="round"/>
<path d="M267.788 511.898L267.818 519.231" stroke="#35519C" stroke-width="2.0735" stroke-miterlimit="10" stroke-linecap="round" stroke-linejoin="round"/>
<path d="M275.453 510.045L275.484 517.378" stroke="#35519C" stroke-width="2.0735" stroke-miterlimit="10" stroke-linecap="round" stroke-linejoin="round"/>
<path d="M282.331 506.915L282.359 513.675" stroke="#35519C" stroke-width="2.0735" stroke-miterlimit="10" stroke-linecap="round" stroke-linejoin="round"/>
<path d="M287.958 502.166L287.802 509.038" stroke="#35519C" stroke-width="2.0735" stroke-miterlimit="10" stroke-linecap="round" stroke-linejoin="round"/>
<path d="M251.28 511.898L251.249 519.231" stroke="#35519C" stroke-width="2.0735" stroke-miterlimit="10" stroke-linecap="round" stroke-linejoin="round"/>
<path d="M243.614 510.045L243.584 517.378" stroke="#35519C" stroke-width="2.0735" stroke-miterlimit="10" stroke-linecap="round" stroke-linejoin="round"/>
<path d="M236.737 506.915L236.711 513.675" stroke="#35519C" stroke-width="2.0735" stroke-miterlimit="10" stroke-linecap="round" stroke-linejoin="round"/>
<path d="M231.109 502.166L231.265 509.038" stroke="#35519C" stroke-width="2.0735" stroke-miterlimit="10" stroke-linecap="round" stroke-linejoin="round"/>
<path d="M290.576 481.381C290.833 482.539 290.345 491.217 289.82 492.461C288.829 496.432 285.368 500.199 279.525 502.975C266.707 509.066 247.31 508.081 236.201 500.773C231.023 497.367 228.212 493.907 228.147 489.585C227.98 487.246 227.91 480.72 227.91 480.72C228.318 479.294 229.97 480.779 231.02 479.448C232.75 476.822 235.653 474.412 239.718 472.481C252.536 466.39 271.933 467.375 283.043 474.682C287.718 477.76 290.25 477.665 290.576 481.381Z" fill="#91B0F5"/>
<path d="M259.266 499.113C276.583 499.113 290.621 491.174 290.621 481.381C290.621 471.588 276.583 463.65 259.266 463.65C241.949 463.65 227.91 471.588 227.91 481.381C227.91 491.174 241.949 499.113 259.266 499.113Z" fill="white"/>
<path d="M259.266 498.148C276.583 498.148 290.621 490.209 290.621 480.416C290.621 470.623 276.583 462.684 259.266 462.684C241.949 462.684 227.91 470.623 227.91 480.416C227.91 490.209 241.949 498.148 259.266 498.148Z" fill="#BAD0FF"/>
<path d="M259.243 492.347C271.35 492.347 281.164 486.797 281.164 479.95C281.164 473.103 271.35 467.553 259.243 467.553C247.137 467.553 237.323 473.103 237.323 479.95C237.323 486.797 247.137 492.347 259.243 492.347Z" fill="white" stroke="#35519C" stroke-width="2.0735" stroke-miterlimit="10"/>
<path opacity="0.43" d="M245.267 471.923C254.593 467.556 268.41 468.29 276.128 473.561C279.204 475.662 280.849 478.167 281.119 480.698C281.446 477.668 279.821 474.565 276.128 472.043C268.41 466.772 254.59 466.038 245.267 470.405C239.659 473.03 236.954 476.903 237.367 480.72C237.722 477.417 240.402 474.2 245.267 471.923Z" fill="#78B5EB"/>
<path d="M249.552 484.018C248.248 482.927 247.182 481.395 247.165 480.02L251.489 479.763C251.743 481.136 252.312 482.149 253.529 482.961C254.95 483.907 256.212 484.018 257.465 483.396C260.276 482.004 253.529 477.576 258.442 475.145C261.116 473.823 264.444 473.881 267.347 475.212L270.157 473.82L272.617 475.458L269.859 476.822C271.235 478.025 271.528 479.233 271.397 480.444L267.227 480.33C267.215 479.275 266.892 478.524 265.828 477.816C264.611 477.006 263.433 476.822 262.205 477.431C259.612 478.714 266.523 483.061 261.309 485.642C258.688 486.94 255.324 487.043 252.111 485.6L249.272 487.004L246.813 485.366L249.552 484.018Z" fill="#91B0F5"/>
<path d="M259.721 499.431L259.802 506.968" stroke="#35519C" stroke-width="2.0735" stroke-miterlimit="10" stroke-linecap="round" stroke-linejoin="round"/>
<path d="M267.788 498.87L267.818 506.203" stroke="#35519C" stroke-width="2.0735" stroke-miterlimit="10" stroke-linecap="round" stroke-linejoin="round"/>
<path d="M275.453 497.018L275.484 504.35" stroke="#35519C" stroke-width="2.0735" stroke-miterlimit="10" stroke-linecap="round" stroke-linejoin="round"/>
<path d="M282.331 493.887L282.359 500.651" stroke="#35519C" stroke-width="2.0735" stroke-miterlimit="10" stroke-linecap="round" stroke-linejoin="round"/>
<path d="M287.958 489.141L287.802 496.011" stroke="#35519C" stroke-width="2.0735" stroke-miterlimit="10" stroke-linecap="round" stroke-linejoin="round"/>
<path d="M251.28 498.87L251.249 506.203" stroke="#35519C" stroke-width="2.0735" stroke-miterlimit="10" stroke-linecap="round" stroke-linejoin="round"/>
<path d="M243.614 497.018L243.584 504.35" stroke="#35519C" stroke-width="2.0735" stroke-miterlimit="10" stroke-linecap="round" stroke-linejoin="round"/>
<path d="M236.737 493.887L236.711 500.651" stroke="#35519C" stroke-width="2.0735" stroke-miterlimit="10" stroke-linecap="round" stroke-linejoin="round"/>
<path d="M231.109 489.141L231.265 496.011" stroke="#35519C" stroke-width="2.0735" stroke-miterlimit="10" stroke-linecap="round" stroke-linejoin="round"/>
<path d="M290.576 468.354C290.833 469.512 290.345 478.189 289.82 479.434C288.829 483.404 285.368 487.171 279.525 489.947C266.707 496.038 247.31 495.053 236.201 487.746C231.023 484.339 228.212 480.879 228.147 476.557C227.98 474.219 227.91 467.693 227.91 467.693C228.318 466.267 229.97 467.751 231.02 466.42C232.75 463.795 235.653 461.384 239.718 459.453C252.536 453.362 271.933 454.347 283.043 461.655C287.718 464.732 290.25 464.637 290.576 468.354Z" fill="#91B0F5"/>
<path d="M259.266 486.086C276.583 486.086 290.621 478.147 290.621 468.354C290.621 458.561 276.583 450.622 259.266 450.622C241.949 450.622 227.91 458.561 227.91 468.354C227.91 478.147 241.949 486.086 259.266 486.086Z" fill="white"/>
<path d="M259.266 485.12C276.583 485.12 290.621 477.182 290.621 467.389C290.621 457.596 276.583 449.657 259.266 449.657C241.949 449.657 227.91 457.596 227.91 467.389C227.91 477.182 241.949 485.12 259.266 485.12Z" fill="#BAD0FF"/>
<path d="M259.243 479.319C271.35 479.319 281.164 473.769 281.164 466.923C281.164 460.076 271.35 454.526 259.243 454.526C247.137 454.526 237.323 460.076 237.323 466.923C237.323 473.769 247.137 479.319 259.243 479.319Z" fill="white" stroke="#35519C" stroke-width="2.0735" stroke-miterlimit="10"/>
<path d="M245.574 459.355C254.699 454.989 268.218 455.723 275.771 460.993C278.783 463.094 280.388 465.6 280.656 468.131C280.977 465.1 279.386 461.998 275.771 459.475C268.218 454.205 254.699 453.471 245.574 457.837C240.086 460.463 237.44 464.336 237.845 468.153C238.191 464.849 240.815 461.632 245.574 459.355Z" fill="#91B0F5"/>
<path d="M249.552 470.994C248.248 469.903 247.182 468.371 247.165 466.995L251.489 466.738C251.743 468.111 252.312 469.124 253.529 469.936C254.95 470.882 256.212 470.994 257.465 470.371C260.276 468.979 253.529 464.551 258.442 462.121C261.116 460.798 264.444 460.857 267.347 462.188L270.157 460.795L272.617 462.433L269.859 463.798C271.235 465 271.528 466.208 271.397 467.419L267.227 467.305C267.215 466.25 266.892 465.5 265.828 464.791C264.611 463.982 263.433 463.798 262.205 464.406C259.612 465.689 266.523 470.036 261.309 472.617C258.688 473.915 255.324 474.018 252.111 472.576L249.272 473.979L246.813 472.341L249.552 470.994Z" fill="#91B0F5"/>
<path d="M259.721 486.406L259.802 493.943" stroke="#35519C" stroke-width="2.0735" stroke-miterlimit="10" stroke-linecap="round" stroke-linejoin="round"/>
<path d="M267.788 485.846L267.818 493.178" stroke="#35519C" stroke-width="2.0735" stroke-miterlimit="10" stroke-linecap="round" stroke-linejoin="round"/>
<path d="M275.453 483.993L275.484 491.326" stroke="#35519C" stroke-width="2.0735" stroke-miterlimit="10" stroke-linecap="round" stroke-linejoin="round"/>
<path d="M282.331 480.862L282.359 487.623" stroke="#35519C" stroke-width="2.0735" stroke-miterlimit="10" stroke-linecap="round" stroke-linejoin="round"/>
<path d="M287.958 476.114L287.802 482.986" stroke="#35519C" stroke-width="2.0735" stroke-miterlimit="10" stroke-linecap="round" stroke-linejoin="round"/>
<path d="M251.28 485.846L251.249 493.178" stroke="#35519C" stroke-width="2.0735" stroke-miterlimit="10" stroke-linecap="round" stroke-linejoin="round"/>
<path d="M243.614 483.993L243.584 491.326" stroke="#35519C" stroke-width="2.0735" stroke-miterlimit="10" stroke-linecap="round" stroke-linejoin="round"/>
<path d="M236.737 480.862L236.711 487.623" stroke="#35519C" stroke-width="2.0735" stroke-miterlimit="10" stroke-linecap="round" stroke-linejoin="round"/>
<path d="M231.109 476.114L231.265 482.986" stroke="#35519C" stroke-width="2.0735" stroke-miterlimit="10" stroke-linecap="round" stroke-linejoin="round"/>
<path opacity="0.43" d="M215.257 549.2C232.574 549.2 246.612 541.262 246.612 531.469C246.612 521.676 232.574 513.737 215.257 513.737C197.94 513.737 183.901 521.676 183.901 531.469C183.901 541.262 197.94 549.2 215.257 549.2Z" fill="url(#paint5_linear)"/>
<path d="M236.109 525.121C236.365 526.279 235.877 534.956 235.352 536.201C234.361 540.171 230.9 543.938 225.057 546.714C212.239 552.805 192.842 551.82 181.733 544.513C176.555 541.106 173.744 537.646 173.679 533.324C173.512 530.986 173.442 524.459 173.442 524.459C173.85 523.034 175.502 524.518 176.552 523.187C178.282 520.562 181.185 518.151 185.25 516.22C198.068 510.129 217.465 511.114 228.575 518.421C233.253 521.499 235.785 521.407 236.109 525.121Z" fill="#91B0F5"/>
<path d="M204.8 542.853C222.118 542.853 236.156 534.914 236.156 525.121C236.156 515.328 222.118 507.389 204.8 507.389C187.483 507.389 173.445 515.328 173.445 525.121C173.445 534.914 187.483 542.853 204.8 542.853Z" fill="white"/>
<path d="M204.801 541.887C222.118 541.887 236.157 533.948 236.157 524.155C236.157 514.362 222.118 506.424 204.801 506.424C187.484 506.424 173.446 514.362 173.446 524.155C173.446 533.948 187.484 541.887 204.801 541.887Z" fill="#BAD0FF"/>
<path d="M204.778 536.086C216.885 536.086 226.699 530.536 226.699 523.689C226.699 516.843 216.885 511.292 204.778 511.292C192.672 511.292 182.857 516.843 182.857 523.689C182.857 530.536 192.672 536.086 204.778 536.086Z" fill="white" stroke="#35519C" stroke-width="2.0735" stroke-miterlimit="10"/>
<path d="M191.17 516.273C200.27 511.906 213.755 512.64 221.289 517.911C224.293 520.012 225.895 522.518 226.16 525.048C226.478 522.018 224.893 518.915 221.289 516.393C213.755 511.122 200.27 510.389 191.17 514.755C185.696 517.381 183.056 521.254 183.46 525.071C183.809 521.764 186.425 518.55 191.17 516.273Z" fill="#91B0F5"/>
<path d="M195.087 527.76C193.783 526.669 192.717 525.138 192.7 523.762L197.027 523.505C197.281 524.878 197.85 525.891 199.067 526.703C200.488 527.649 201.75 527.76 203.006 527.138C205.817 525.746 199.07 521.318 203.983 518.888C206.66 517.565 209.984 517.624 212.887 518.955L215.698 517.562L218.157 519.2L215.399 520.565C216.775 521.767 217.069 522.975 216.937 524.186L212.767 524.072C212.756 523.017 212.432 522.267 211.369 521.558C210.152 520.749 208.974 520.564 207.745 521.173C205.152 522.456 212.064 526.803 206.849 529.384C204.228 530.682 200.865 530.785 197.652 529.342L194.813 530.746L192.354 529.108L195.087 527.76Z" fill="#91B0F5"/>
<path d="M205.255 543.173L205.334 550.71" stroke="#35519C" stroke-width="2.0735" stroke-miterlimit="10" stroke-linecap="round" stroke-linejoin="round"/>
<path d="M213.322 542.613L213.353 549.945" stroke="#35519C" stroke-width="2.0735" stroke-miterlimit="10" stroke-linecap="round" stroke-linejoin="round"/>
<path d="M220.988 540.76L221.018 548.093" stroke="#35519C" stroke-width="2.0735" stroke-miterlimit="10" stroke-linecap="round" stroke-linejoin="round"/>
<path d="M227.865 537.629L227.891 544.39" stroke="#35519C" stroke-width="2.0735" stroke-miterlimit="10" stroke-linecap="round" stroke-linejoin="round"/>
<path d="M233.493 532.88L233.337 539.753" stroke="#35519C" stroke-width="2.0735" stroke-miterlimit="10" stroke-linecap="round" stroke-linejoin="round"/>
<path d="M196.814 542.613L196.784 549.945" stroke="#35519C" stroke-width="2.0735" stroke-miterlimit="10" stroke-linecap="round" stroke-linejoin="round"/>
<path d="M189.149 540.76L189.119 548.093" stroke="#35519C" stroke-width="2.0735" stroke-miterlimit="10" stroke-linecap="round" stroke-linejoin="round"/>
<path d="M182.271 537.629L182.246 544.39" stroke="#35519C" stroke-width="2.0735" stroke-miterlimit="10" stroke-linecap="round" stroke-linejoin="round"/>
<path d="M176.644 532.88L176.8 539.753" stroke="#35519C" stroke-width="2.0735" stroke-miterlimit="10" stroke-linecap="round" stroke-linejoin="round"/>
<path d="M121.548 289.194V328.525" stroke="#0E2E82" stroke-width="7" stroke-miterlimit="10" stroke-linecap="round" stroke-linejoin="round"/>
<path d="M159.124 277.642C180.234 264.453 180.522 226.852 159.767 193.658C139.012 160.464 105.073 144.246 83.9627 157.434C62.8523 170.623 62.5643 208.224 83.3194 241.418C104.075 274.612 138.013 290.83 159.124 277.642Z" stroke="#0E2E82" stroke-width="6" stroke-miterlimit="10" stroke-linecap="round" stroke-linejoin="round"/>
<path d="M91.8361 178.105C102.175 179.148 117.07 176.364 120.724 175.63C121.232 175.527 121.871 175.839 122.368 176.433C125.93 180.697 140.501 197.834 151.181 205.976C151.94 206.554 152.412 207.608 152.292 208.412C150.943 217.419 142.815 264.585 121.559 254.626C100.221 244.629 92.1097 189.458 90.8117 179.5C90.6944 178.627 91.1243 178.032 91.8361 178.105Z" stroke="#0E2E82" stroke-width="4" stroke-miterlimit="10" stroke-linecap="round" stroke-linejoin="round"/>
<path d="M100.752 188.8C107.887 189.433 117.833 187.625 120.733 187.053C121.238 186.953 121.863 187.259 122.357 187.848C125.182 191.216 134.907 202.575 142.257 208.309C143.011 208.898 143.48 209.933 143.357 210.734C142.229 218.03 136.381 250.145 121.559 243.2C106.678 236.228 100.841 198.37 99.7472 190.214C99.6272 189.341 100.046 188.738 100.752 188.8Z" fill="#40C2A6"/>
<path d="M124.397 511.094C127.728 503.112 126.137 494.853 120.844 492.646C115.552 490.439 108.561 495.12 105.23 503.101C101.899 511.083 103.49 519.342 108.782 521.549C114.075 523.756 121.066 519.075 124.397 511.094Z" fill="white"/>
<path d="M115.362 500.162C115.39 500.143 115.421 500.126 115.449 500.109C117.978 498.577 119.764 500.081 119.437 503.466C119.114 506.811 116.844 510.748 114.349 512.325C114.321 512.344 114.29 512.361 114.262 512.378C111.733 513.91 109.947 512.414 110.273 509.03C110.594 505.684 112.867 501.739 115.362 500.162Z" fill="#173891"/>
<path d="M116.92 484.825C125.537 479.598 131.616 484.707 130.497 496.234C130.472 496.504 130.441 496.778 130.408 497.051C130.047 499.981 129.263 503.028 128.158 506.022C125.034 514.468 119.32 522.504 113.202 526.371C113.093 526.438 112.987 526.505 112.878 526.572C106.899 530.205 102.139 528.854 100.16 523.832C99.4373 521.999 99.0884 519.674 99.1833 516.923C99.2028 516.357 99.2419 515.774 99.3005 515.171C100.4 503.778 108.113 490.388 116.61 485.017C116.713 484.953 116.814 484.889 116.92 484.825ZM113.827 518.653C118.921 515.433 123.552 507.395 124.214 500.567C124.878 493.653 121.232 490.595 116.063 493.734C115.996 493.773 115.932 493.815 115.865 493.856C110.781 497.068 106.159 505.101 105.497 511.923C104.833 518.837 108.479 521.895 113.64 518.77C113.704 518.728 113.765 518.692 113.827 518.653Z" fill="#173891"/>
<path d="M225.791 445.935C229.122 437.953 227.531 429.694 222.239 427.487C216.946 425.28 209.955 429.961 206.624 437.942C203.293 445.924 204.884 454.183 210.176 456.39C215.469 458.597 222.46 453.916 225.791 445.935Z" fill="white"/>
<path d="M216.753 435.003C216.781 434.983 216.812 434.966 216.84 434.95C219.369 433.418 221.155 434.922 220.829 438.306C220.505 441.652 218.235 445.589 215.74 447.165C215.712 447.185 215.681 447.201 215.653 447.218C213.124 448.75 211.338 447.254 211.664 443.87C211.986 440.524 214.258 436.582 216.753 435.003Z" fill="#173891"/>
<path d="M218.311 419.668C226.928 414.441 233.007 419.55 231.888 431.077C231.863 431.347 231.832 431.621 231.799 431.894C231.439 434.824 230.654 437.871 229.549 440.865C226.425 449.311 220.711 457.347 214.593 461.214C214.484 461.281 214.378 461.348 214.269 461.415C208.29 465.048 203.53 463.697 201.551 458.675C200.828 456.842 200.479 454.517 200.574 451.766C200.594 451.2 200.633 450.617 200.692 450.014C201.791 438.621 209.504 425.231 218.001 419.86C218.104 419.793 218.205 419.729 218.311 419.668ZM215.218 453.493C220.312 450.273 224.943 442.235 225.605 435.407C226.269 428.493 222.623 425.435 217.454 428.574C217.387 428.613 217.323 428.655 217.256 428.697C212.173 431.908 207.55 439.941 206.888 446.763C206.224 453.677 209.87 456.736 215.031 453.61C215.092 453.571 215.157 453.532 215.218 453.493Z" fill="#173891"/>
<path d="M20.3544 472.947C22.1018 473.678 23.8465 472.52 23.7208 470.734L22.7271 456.682C20.4884 460.357 18.487 464.406 17.4849 467.673C16.8541 469.738 18.1576 472.056 20.3377 472.941C20.3433 472.944 20.3489 472.947 20.3544 472.947Z" fill="white"/>
<path d="M69.9546 490.804L87.49 476.261C89.2263 474.822 92.1405 476.493 91.9004 478.803C91.4594 483.019 90.1474 488.388 86.527 491.758C80.4948 497.375 74.5967 497.216 70.6636 495.014C68.9999 494.085 68.6399 491.895 69.9546 490.804Z" fill="white"/>
<path d="M28.0254 475.129L60.3244 489.406" stroke="#2A417D" stroke-width="2.1899" stroke-miterlimit="10" stroke-linecap="round" stroke-linejoin="round"/>
<path d="M148.783 446.004C150.427 446.749 152.06 447.793 153.618 449.191C157.459 453.064 158.625 463.039 148.789 460.689C145.648 459.936 142.558 458.906 139.881 457.692C135.192 455.564 131.759 452.865 131.505 450.07C131.156 446.378 140.116 442.073 148.783 446.004Z" fill="#3072FF"/>
<path d="M359.671 80.1377L357.611 79.2253C356.213 68.536 348.74 57.4812 339.802 53.5274L280.606 27.3441C271.668 23.3904 264.195 27.8352 262.797 37.2856L260.737 36.3732C250.811 31.9814 242.688 37.9469 242.688 49.6239C242.688 61.3038 250.811 74.4512 260.737 78.8403L359.677 122.602C369.603 126.994 377.726 121.028 377.726 109.351C377.718 97.677 369.598 84.5295 359.671 80.1377Z" fill="#BAD0FF"/>
<path d="M307.113 342.867C307.113 342.867 301.259 383.291 326.354 382.831C351.448 382.373 319.649 342.867 319.649 342.867H307.113Z" fill="#40C2A6"/>
<path opacity="0.43" d="M383.739 518.603C375.535 514.175 361.807 513.848 352.592 517.771C351.763 515.888 349.966 514.091 347.172 512.581C338.722 508.019 324.414 507.81 315.21 512.113C306.007 516.415 305.399 523.6 313.848 528.162C322.052 532.59 335.78 532.917 344.994 528.994C345.823 530.877 347.621 532.674 350.415 534.183C358.865 538.745 373.173 538.955 382.376 534.652C391.577 530.347 392.188 523.162 383.739 518.603Z" fill="url(#paint6_linear)"/>
<path d="M355.3 324.309C355.3 324.309 362.016 326.176 362.008 329.622C361.999 333.068 361.341 336.243 361.341 336.243L338.775 331.491L341.112 322.177L355.3 324.309Z" fill="#27427A"/>
<path d="M319.919 513.313L332.408 504.755C334.281 504.15 336.528 504.027 339.102 504.78C340.257 505.118 340.472 504.253 340.372 505.335L341.449 509.928C342.502 513.003 340.068 514.853 336.553 515.913L324.615 519.325C322.141 520.126 318.655 519.674 316.869 518.324L316.363 517.942C314.58 516.591 317.276 514.744 319.919 513.313Z" fill="#0E2E82"/>
<path d="M340.311 506.175C340.107 509.735 331.442 509.244 331.646 505.681L332.305 494.11L340.969 494.604L340.311 506.175Z" fill="#6F7996"/>
<path d="M341.712 501.772C338.069 504.482 334.44 504.367 330.828 501.485C330.828 501.485 324.74 429.919 326.767 393.163L354.077 384.639C350.652 407.176 343.216 444.182 343.216 444.182C351.135 462.734 343.995 485.687 341.712 501.772Z" fill="#0E2E82"/>
<path d="M354.077 384.639L346.418 387.03C344.319 400.382 341.053 417.84 338.722 429.93C337.204 437.807 337.34 445.873 338.725 453.775C341.603 470.195 336.327 488.371 334.423 501.772C333.885 502.174 333.346 502.506 332.807 502.782C335.766 504.311 338.733 503.988 341.714 501.772C343.747 487.475 349.611 467.751 345.329 450.516C344.054 445.379 344.056 440.011 345.07 434.816C347.495 422.349 351.727 400.091 354.077 384.639Z" fill="#0C276E"/>
<path d="M371.164 515.093C371.529 518.639 362.898 519.532 362.53 515.985L361.338 504.456L369.972 503.563L371.164 515.093Z" fill="#6F7996"/>
<path d="M371.814 510.762C368.098 513.792 364.486 514.322 360.997 511.995C360.997 511.995 357.899 488.228 353.031 462.913C349.262 443.32 343.679 423.638 342.398 408.043L367.772 393.261C367.548 407.123 368.581 437.636 369.059 450.728C369.17 453.786 369.941 456.769 371.278 459.523C377.109 471.512 371.814 510.762 371.814 510.762Z" fill="#0E2E82"/>
<path d="M324.598 394.876C325.469 382.259 325.617 364 324.821 348.151C326.326 326.385 335.107 318.899 348.481 324.848L354.044 326.742C369.985 336.801 378.424 336.935 374.254 354.245L370.329 395.758C368.967 415.521 321.938 418.038 324.598 394.876Z" fill="#40C2A6"/>
<path d="M374.256 354.245L370.332 395.758C369.536 407.284 353.209 412.946 340.266 411.068C355.591 403.389 366.167 382.329 374.256 354.245Z" fill="#35A189"/>
<path d="M360.699 330.592C360.699 330.592 361.137 336.611 352.076 340.916C347.403 343.137 344.841 347.306 343.459 350.822C342.65 352.875 341.502 351.734 341.444 349.496C341.29 343.679 341.22 341.988 340.35 337.621C338.94 330.559 342.728 320.57 343.107 320.523C343.49 320.478 360.699 330.592 360.699 330.592Z" fill="white"/>
<path d="M349.131 325.188C349.131 325.188 340.617 327.119 341.86 335.079L341.259 344.332C341.259 344.332 335.727 333.319 339.554 323.773C343.378 314.228 349.131 325.188 349.131 325.188Z" fill="#27427A"/>
<path d="M345.673 325.272C345.673 325.272 346.985 327.797 347.903 328.363C348.821 328.93 362.633 324.147 362.259 313.067C362.022 306.05 348.693 306.672 348.693 306.672L345.673 325.272Z" fill="#A64C4B"/>
<path d="M350.468 335.816L349.801 335.863C347.546 336.028 345.567 334.318 345.405 332.063L344.481 319.357C344.316 317.102 346.027 315.124 348.283 314.962L348.95 314.915C351.205 314.75 353.184 316.46 353.346 318.715L356.031 330.796C356.193 333.048 352.724 335.654 350.468 335.816Z" fill="#ED5353"/>
<path d="M344.978 326.218C344.978 326.218 350.343 326.848 354.337 322.038C354.337 322.038 350.203 329.569 345.234 329.77L344.978 326.218Z" fill="#BA4141"/>
<path d="M356.964 324.797C356.964 324.797 362.189 332.456 351.13 337.217C351.13 337.217 346.678 341.14 346.22 345.799C346.22 345.799 350.002 343.277 352.185 341.915C354.368 340.551 370.519 332.25 356.964 324.797Z" fill="#27427A"/>
<path d="M351.225 314.788C352.202 308.04 349.894 302.122 346.069 301.568C342.244 301.015 338.35 306.036 337.373 312.783C336.396 319.53 338.704 325.448 342.529 326.002C346.354 326.556 350.248 321.535 351.225 314.788Z" fill="#ED5353"/>
<path d="M354.988 321.884C351.889 326.912 341.857 328.55 339.409 324.019C336.961 319.488 341.1 310.442 344.199 305.411C347.297 300.383 351.791 299.978 354.242 304.51C356.693 309.041 358.083 316.856 354.988 321.884Z" fill="#ED5353"/>
<path d="M351.102 307.598C351.102 307.598 347.945 318.087 355.998 322.021C355.998 322.021 366.572 318.224 361.408 306.644C356.855 296.438 345.673 301.555 345.673 301.555L351.102 307.598Z" fill="#A64C4B"/>
<path d="M337.424 312.579C337.424 312.579 339.389 308.196 345.326 307.264L341.396 303.84C341.396 303.837 336.707 304.052 337.424 312.579Z" fill="#A64C4B"/>
<path d="M354.404 314.691C352.994 311.851 349.011 311.159 342.982 312.174C342.063 312.328 341.109 312.308 340.246 311.96C336.196 310.333 336.503 305.001 336.503 305.001C336.227 301.348 338.82 300.19 342.471 299.914L351.984 299.192C357.371 298.754 361.589 303.876 361.868 307.529L362.002 308.145C362.284 311.795 358.058 314.412 354.404 314.691Z" fill="#A64C4B"/>
<path d="M357.251 321.318C357.719 319.96 356.996 318.48 355.638 318.013C354.279 317.546 352.799 318.268 352.331 319.626C351.864 320.984 352.586 322.464 353.945 322.931C355.303 323.398 356.784 322.676 357.251 321.318Z" fill="#ED5353"/>
<path d="M362.491 515.497L363.105 522.836C363.177 523.7 364.02 528.271 364.392 529.058C365.461 531.332 367.214 532.25 368.911 532.364C371.158 532.518 375.677 528.544 374.066 523.614C372.662 519.317 371.141 514.786 371.141 514.786C367.97 516.242 365.022 516.745 362.491 515.497Z" fill="#0E2E82"/>
<path d="M342.248 323.726C341.112 323.282 340.19 321.463 340.19 319.661L344.302 321.268C344.302 323.068 343.384 324.17 342.248 323.726Z" fill="white"/>
<path d="M375.301 428.325C375.261 428.25 375.22 428.18 375.18 428.105L375.186 428.102L363.451 405.644C360.18 399.38 353.017 396.511 347.454 399.235C341.891 401.958 340.034 409.243 343.306 415.507L355.041 437.965L355.046 437.963C355.083 438.038 355.119 438.113 355.158 438.189C358.429 444.453 365.592 447.321 371.155 444.598C376.716 441.875 378.572 434.589 375.301 428.325Z" fill="#3072FF"/>
<path d="M349.313 427.689L296.804 326.826L307.113 318.952L365.064 429.503L349.313 427.689Z" fill="#11389E"/>
<path d="M307.113 318.952C312.494 317.417 308.274 313.279 315.568 313.84L366.753 411.606C369.109 421.146 368.995 428.507 365.064 429.503L307.113 318.952Z" fill="#0E2E82"/>
<path d="M369.921 417.533C369.882 417.46 369.84 417.388 369.801 417.312L369.807 417.31L364.509 407.298C368.405 415.496 349.91 427.675 343.319 416.196C343.278 416.124 343.247 416.046 343.208 415.97L343.202 415.973L349.195 427.466L349.201 427.463C349.237 427.539 349.271 427.614 349.312 427.689C355.568 439.199 376.235 429.146 369.921 417.533Z" fill="white"/>
<path d="M315.23 312.961L290.303 294.805L295.738 325.355C302.055 331.924 319.107 319.365 315.23 312.961Z" fill="#DEDFE6"/>
<path d="M289.544 293.167L301.281 302.802C301.281 302.802 302.543 304.164 300.21 305.927C297.879 307.691 299.855 308.611 297.022 310.207C294.186 311.803 293.234 311.29 293.234 311.29L289.544 293.167Z" fill="#3072FF"/>
<path d="M360.615 421.213C362.161 422.279 364.3 421.886 365.366 420.337L369.067 414.96C370.131 413.415 369.737 411.28 368.191 410.214C366.644 409.148 364.506 409.542 363.44 411.09L359.738 416.467C358.675 418.013 359.071 420.15 360.615 421.213Z" fill="#ED5353"/>
<path d="M355.258 350.395C355.258 350.395 382.312 371.469 379.242 378.816C376.171 386.162 362.544 409.276 362.544 409.276L371.164 414.151C371.164 414.151 398.851 384.365 396.56 375.635C393.693 364.706 372.685 338.723 372.685 338.723L355.258 350.395Z" fill="#40C2A6"/>
<path d="M304.405 348.55C302.8 349.53 302.289 351.642 303.269 353.246L306.674 358.816C307.654 360.417 309.764 360.925 311.366 359.948C312.971 358.969 313.482 356.857 312.5 355.255L309.094 349.686C308.12 348.082 306.007 347.571 304.405 348.55Z" fill="#DB4D4D"/>
<path d="M121.548 200.92V234.135" stroke="#0E2E82" stroke-width="4" stroke-miterlimit="10" stroke-linecap="round" stroke-linejoin="round"/>
<path d="M110.812 211.269L131.242 219.98" stroke="#0E2E82" stroke-width="4" stroke-miterlimit="10" stroke-linecap="round" stroke-linejoin="round"/>
<path d="M267.581 47.8997L350.968 86.2902" stroke="white" stroke-width="8.2941" stroke-miterlimit="10" stroke-linecap="round" stroke-linejoin="round"/>
<path d="M461.364 300.015C461.364 300.015 450.539 320.386 448.906 331.843" stroke="#0E2E82" stroke-width="3" stroke-miterlimit="10" stroke-linecap="round" stroke-linejoin="round"/>
<path d="M453.316 269.105C453.316 269.105 467.427 228.432 482.679 217.528C497.931 206.624 544.781 165.965 552.407 129.935" stroke="#0E2E82" stroke-width="3" stroke-miterlimit="10" stroke-linecap="round" stroke-linejoin="round"/>
</g>
<defs>
<linearGradient id="paint0_linear" x1="381.364" y1="392.442" x2="560" y2="392.442" gradientUnits="userSpaceOnUse">
<stop stop-color="#7C98CC"/>
<stop offset="0.8911" stop-color="#DBEEFF"/>
</linearGradient>
<linearGradient id="paint1_linear" x1="471.143" y1="303.952" x2="559.992" y2="344.113" gradientUnits="userSpaceOnUse">
<stop stop-color="#2454BD"/>
<stop offset="0.0453" stop-color="#2557C4"/>
<stop offset="0.2803" stop-color="#2B66E4"/>
<stop offset="0.4776" stop-color="#2F6FF8"/>
<stop offset="0.612" stop-color="#3072FF"/>
</linearGradient>
<linearGradient id="paint2_linear" x1="440.188" y1="239.465" x2="557.7" y2="239.465" gradientUnits="userSpaceOnUse">
<stop stop-color="#2454BD"/>
<stop offset="0.074" stop-color="#2557C4"/>
<stop offset="0.458" stop-color="#2B66E4"/>
<stop offset="0.7804" stop-color="#2F6FF8"/>
<stop offset="1" stop-color="#3072FF"/>
</linearGradient>
<linearGradient id="paint3_linear" x1="1.12856" y1="469.224" x2="266.601" y2="479.185" gradientUnits="userSpaceOnUse">
<stop stop-color="#7C98CC"/>
<stop offset="0.8911" stop-color="#DBEEFF"/>
</linearGradient>
<linearGradient id="paint4_linear" x1="238.367" y1="500.754" x2="301.08" y2="500.754" gradientUnits="userSpaceOnUse">
<stop stop-color="#7CA6CC"/>
<stop offset="0.8911" stop-color="#DBEEFF"/>
</linearGradient>
<linearGradient id="paint5_linear" x1="183.902" y1="531.468" x2="246.614" y2="531.468" gradientUnits="userSpaceOnUse">
<stop stop-color="#7CA6CC"/>
<stop offset="0.8911" stop-color="#DBEEFF"/>
</linearGradient>
<linearGradient id="paint6_linear" x1="307.888" y1="523.382" x2="389.697" y2="523.382" gradientUnits="userSpaceOnUse">
<stop stop-color="#7C98CC"/>
<stop offset="0.8911" stop-color="#DBEEFF"/>
</linearGradient>
<clipPath id="clip0">
<rect width="560" height="551" fill="white"/>
</clipPath>
</defs>
</svg>
