<svg width="480" height="340" viewBox="0 0 480 340" fill="none" xmlns="http://www.w3.org/2000/svg">
<path d="M310.743 141.984H189.217V229.079H310.743V141.984Z" fill="#E0F4FC"/>
<path d="M310.742 140.08H189.216C188.163 140.08 187.309 140.932 187.309 141.984V229.079C187.309 230.131 188.163 230.983 189.216 230.983H310.742C311.796 230.983 312.65 230.131 312.65 229.079V141.984C312.65 140.933 311.796 140.08 310.742 140.08ZM310.742 229.08H189.216V141.984H310.742V229.08Z" fill="#1977CC"/>
<path d="M314.379 229.08H189.217V239.681H314.379V229.08Z" fill="#E0F4FC"/>
<path d="M314.379 227.176H189.217C188.163 227.176 187.31 228.028 187.31 229.08V239.681C187.31 240.733 188.163 241.585 189.217 241.585H314.379C315.433 241.585 316.287 240.733 316.287 239.681V229.08C316.287 228.028 315.432 227.176 314.379 227.176ZM314.379 239.68H189.217V229.079H314.379V239.68Z" fill="#1977CC"/>
<path d="M89.0452 141.984V229.08H189.217V141.984L136.236 103.477L89.0452 141.984Z" fill="white"/>
<path d="M190.34 140.445L137.358 101.938C137.023 101.694 136.629 101.574 136.236 101.574C135.807 101.574 135.378 101.718 135.029 102.004L87.837 140.511C87.3938 140.872 87.1367 141.414 87.1367 141.985V229.08C87.1367 230.132 87.9906 230.984 89.0442 230.984H189.216C190.27 230.984 191.124 230.132 191.124 229.08V141.984C191.125 141.376 190.833 140.804 190.34 140.445ZM189.217 229.08H89.0451V141.984L136.237 103.477L189.217 141.984V229.08Z" fill="#1977CC"/>
<path d="M189.217 229.08H84.241V239.681H189.217V229.08Z" fill="#E0F4FC"/>
<path d="M189.217 227.176H84.241C83.1873 227.176 82.3335 228.028 82.3335 229.08V239.681C82.3335 240.733 83.1873 241.585 84.241 241.585H189.217C190.271 241.585 191.125 240.733 191.125 239.681V229.08C191.125 228.028 190.271 227.176 189.217 227.176ZM189.217 239.68H84.241V229.079H189.217V239.68Z" fill="#1977CC"/>
<path d="M310.743 141.984H191.775V157.01H310.743V141.984Z" fill="#C5EDF9"/>
<path d="M89.0452 141.984V156.345L135.84 118.845L189.217 156.712V141.984L136.236 103.477L89.0452 141.984Z" fill="#C5EDF9"/>
<path d="M241.602 156.115H207.739V203.791H241.602V156.115Z" fill="#E0F4FC"/>
<path d="M241.601 154.211H207.738C206.684 154.211 205.83 155.064 205.83 156.115V203.791C205.83 204.842 206.684 205.695 207.738 205.695H241.601C242.655 205.695 243.509 204.842 243.509 203.791V156.115C243.509 155.064 242.655 154.211 241.601 154.211ZM241.601 203.791H207.738V156.116H241.601V203.791Z" fill="#1977CC"/>
<path d="M222.594 163.036H213.952V178.029H222.594V163.036Z" fill="#A2DFFF"/>
<path d="M235.388 163.036H226.745V178.029H235.388V163.036Z" fill="#A2DFFF"/>
<path d="M222.594 182.136H213.952V197.489H222.594V182.136Z" fill="#A2DFFF"/>
<path d="M235.388 182.136H226.745V197.489H235.388V182.136Z" fill="#A2DFFF"/>
<path d="M207.737 209.56H204.259V210.747V214.139V215.328H207.737H238.123H241.601V214.139V210.747V209.56H238.123H207.737Z" fill="#C5EDF9"/>
<path d="M207.737 203.791H204.259V204.979V208.371V209.56H207.737H238.123H241.601V208.371V204.979V203.791H238.123H207.737Z" fill="white"/>
<path d="M241.602 201.887H238.123H207.736H204.258C203.204 201.887 202.351 202.74 202.351 203.791V204.979V208.371V209.559C202.351 210.61 203.204 211.463 204.258 211.463H207.736H238.123H241.602C242.655 211.463 243.509 210.61 243.509 209.559V208.371V204.979V203.791C243.509 202.74 242.655 201.887 241.602 201.887ZM241.602 204.979V208.371V209.559H238.123H207.736H204.258V208.371V204.979V203.791H207.736H238.123H241.602V204.979Z" fill="#1977CC"/>
<path d="M292.546 156.115H258.683V203.791H292.546V156.115Z" fill="#E0F4FC"/>
<path d="M292.546 154.211H258.683C257.629 154.211 256.775 155.064 256.775 156.115V203.791C256.775 204.842 257.629 205.695 258.683 205.695H292.546C293.6 205.695 294.454 204.842 294.454 203.791V156.115C294.454 155.064 293.6 154.211 292.546 154.211ZM292.546 203.791H258.683V156.116H292.546V203.791Z" fill="#1977CC"/>
<path d="M286.333 163.036H277.69V178.029H286.333V163.036Z" fill="#A2DFFF"/>
<path d="M273.539 163.036H264.897V178.029H273.539V163.036Z" fill="#A2DFFF"/>
<path d="M286.333 182.136H277.69V197.489H286.333V182.136Z" fill="#A2DFFF"/>
<path d="M273.539 182.136H264.897V197.489H273.539V182.136Z" fill="#A2DFFF"/>
<path d="M258.681 209.56H255.203V210.747V214.139V215.328H258.681H289.068H292.546V214.139V210.747V209.56H289.068H258.681Z" fill="#C5EDF9"/>
<path d="M258.681 203.791H255.203V204.979V208.371V209.56H258.681H289.068H292.546V208.371V204.979V203.791H289.068H258.681Z" fill="white"/>
<path d="M292.546 201.887H289.068H258.681H255.203C254.149 201.887 253.295 202.74 253.295 203.791V204.979V208.371V209.559C253.295 210.61 254.149 211.463 255.203 211.463H258.681H289.068H292.546C293.6 211.463 294.454 210.61 294.454 209.559V208.371V204.979V203.791C294.454 202.74 293.6 201.887 292.546 201.887ZM292.546 204.979V208.371V209.559H289.068H258.681H255.203V208.371V204.979V203.791H258.681H289.068H292.546V204.979Z" fill="#1977CC"/>
<path d="M154.484 156.115H120.621V203.791H154.484V156.115Z" fill="#E0F4FC"/>
<path d="M154.484 154.211H120.621C119.567 154.211 118.713 155.064 118.713 156.115V203.791C118.713 204.842 119.567 205.695 120.621 205.695H154.484C155.538 205.695 156.392 204.842 156.392 203.791V156.115C156.392 155.064 155.538 154.211 154.484 154.211ZM154.484 203.791H120.621V156.116H154.484V203.791Z" fill="#1977CC"/>
<path d="M148.27 163.036H139.627V178.029H148.27V163.036Z" fill="#C5EDF9"/>
<path d="M135.477 163.036H126.834V178.029H135.477V163.036Z" fill="#C5EDF9"/>
<path d="M148.27 182.136H139.627V197.489H148.27V182.136Z" fill="#C5EDF9"/>
<path d="M135.477 182.136H126.834V197.489H135.477V182.136Z" fill="#C5EDF9"/>
<path d="M120.619 209.56H117.141V210.747V214.139V215.328H120.619H151.006H154.484V214.139V210.747V209.56H151.006H120.619Z" fill="#C5EDF9"/>
<path d="M120.619 203.791H117.141V204.979V208.371V209.56H120.619H151.006H154.484V208.371V204.979V203.791H151.006H120.619Z" fill="white"/>
<path d="M154.484 201.887H151.006H120.619H117.141C116.087 201.887 115.233 202.74 115.233 203.791V204.979V208.371V209.559C115.233 210.61 116.087 211.463 117.141 211.463H120.619H151.006H154.484C155.538 211.463 156.392 210.61 156.392 209.559V208.371V204.979V203.791C156.392 202.74 155.538 201.887 154.484 201.887ZM154.484 204.979V208.371V209.559H151.006H120.619H117.141V208.371V204.979V203.791H120.619H151.006H154.484V204.979Z" fill="#1977CC"/>
<path d="M135.84 95.636L191.778 135.955H314.034L258.096 95.636H135.84Z" fill="#A2DFFF"/>
<path d="M315.15 134.411L259.212 94.0929C258.887 93.859 258.497 93.733 258.096 93.733H135.84C135.012 93.733 134.279 94.2652 134.025 95.0513C133.771 95.8373 134.052 96.6969 134.723 97.181L190.661 137.499C190.987 137.733 191.377 137.859 191.778 137.859H314.034C314.861 137.859 315.594 137.326 315.849 136.54C316.103 135.754 315.821 134.895 315.15 134.411ZM191.778 135.955L135.84 95.637H258.096L314.034 135.955H191.778Z" fill="#1977CC"/>
<path d="M314.034 135.955H191.778V143.796H314.034V135.955Z" fill="#E0F4FC"/>
<path d="M314.034 134.051H191.778C190.724 134.051 189.87 134.903 189.87 135.955V143.796C189.87 144.847 190.724 145.7 191.778 145.7H314.034C315.088 145.7 315.941 144.847 315.941 143.796V135.955C315.941 134.903 315.088 134.051 314.034 134.051ZM314.034 143.795H191.778V135.954H314.034V143.795Z" fill="#1977CC"/>
<path d="M84.7444 135.955V143.795L136.236 103.477L191.778 143.795V135.955L135.84 95.636L84.7444 135.955Z" fill="white"/>
<path d="M192.894 134.411L136.956 94.0929C136.622 93.8527 136.23 93.733 135.84 93.733C135.421 93.733 135.003 93.8699 134.657 94.1437L83.5616 134.461C83.1038 134.822 82.8368 135.373 82.8368 135.955V143.796C82.8368 144.524 83.2537 145.189 83.9095 145.507C84.1748 145.636 84.46 145.7 84.7434 145.7C85.1621 145.7 85.5781 145.562 85.9206 145.293L136.279 105.863L190.655 145.335C190.988 145.576 191.381 145.7 191.777 145.7C192.072 145.7 192.369 145.632 192.643 145.492C193.282 145.167 193.684 144.512 193.684 143.796V135.955C193.685 135.343 193.391 134.769 192.894 134.411ZM191.778 143.795L136.236 103.477L84.7434 143.795V135.954L135.839 95.6361L191.777 135.954V143.795H191.778Z" fill="#1977CC"/>
<path d="M136.236 147.051C140.529 147.051 144.009 143.577 144.009 139.292C144.009 135.007 140.529 131.533 136.236 131.533C131.943 131.533 128.462 135.007 128.462 139.292C128.462 143.577 131.943 147.051 136.236 147.051Z" fill="#A2DFFF"/>
<path d="M136.236 129.629C130.898 129.629 126.555 133.964 126.555 139.292C126.555 144.621 130.898 148.955 136.236 148.955C141.574 148.955 145.917 144.621 145.917 139.292C145.917 133.964 141.574 129.629 136.236 129.629ZM136.236 147.051C131.943 147.051 128.462 143.578 128.462 139.292C128.462 135.007 131.942 131.533 136.236 131.533C140.529 131.533 144.009 135.006 144.009 139.292C144.009 143.577 140.529 147.051 136.236 147.051Z" fill="#1977CC"/>
<path d="M136.236 147.051C140.529 147.051 144.009 143.577 144.009 139.292C144.009 135.007 140.529 131.533 136.236 131.533C131.943 131.533 128.462 135.007 128.462 139.292C128.462 143.577 131.943 147.051 136.236 147.051Z" fill="#E0F4FC"/>
<path d="M136.236 129.629C130.898 129.629 126.555 133.964 126.555 139.292C126.555 144.621 130.898 148.955 136.236 148.955C141.574 148.955 145.917 144.621 145.917 139.292C145.917 133.964 141.574 129.629 136.236 129.629ZM136.236 147.051C131.943 147.051 128.462 143.578 128.462 139.292C128.462 135.007 131.942 131.533 136.236 131.533C140.529 131.533 144.009 135.006 144.009 139.292C144.009 143.577 140.529 147.051 136.236 147.051Z" fill="#1977CC"/>
<path d="M136.236 142.557C138.042 142.557 139.507 141.095 139.507 139.292C139.507 137.489 138.042 136.027 136.236 136.027C134.429 136.027 132.965 137.489 132.965 139.292C132.965 141.095 134.429 142.557 136.236 142.557Z" fill="#A2DFFF"/>
<path d="M136.236 134.123C133.381 134.123 131.057 136.442 131.057 139.292C131.057 142.143 133.38 144.461 136.236 144.461C139.091 144.461 141.414 142.143 141.414 139.292C141.414 136.442 139.092 134.123 136.236 134.123ZM136.236 142.557C134.429 142.557 132.965 141.095 132.965 139.292C132.965 137.489 134.429 136.027 136.236 136.027C138.042 136.027 139.507 137.489 139.507 139.292C139.507 141.095 138.042 142.557 136.236 142.557Z" fill="#1977CC"/>
<path d="M90.3314 50.3372C88.8018 51.4751 87.2685 52.652 85.7734 53.8342C85.3011 54.2069 85.2221 54.8914 85.5954 55.3629C85.8107 55.634 86.1286 55.7754 86.4501 55.7754C86.6872 55.7754 86.9261 55.6984 87.1259 55.5406C88.6047 54.3719 90.1216 53.2077 91.6339 52.0826C92.1163 51.7235 92.2162 51.0417 91.8565 50.5603C91.4968 50.077 90.8137 49.9773 90.3314 50.3372Z" fill="#A2DFFF"/>
<path d="M99.7426 43.7503C98.1502 44.7966 96.5507 45.8819 94.9892 46.9744C94.496 47.319 94.377 47.9981 94.7222 48.4895C94.9347 48.7914 95.2726 48.9528 95.616 48.9528C95.8322 48.9528 96.0502 48.8884 96.2409 48.7551C97.7851 47.6744 99.3674 46.6018 100.942 45.5664C101.445 45.2364 101.584 44.5609 101.252 44.0595C100.922 43.559 100.246 43.4194 99.7426 43.7503Z" fill="#A2DFFF"/>
<path d="M33.2463 119.718C32.7077 119.45 32.0528 119.669 31.7848 120.207C30.9319 121.915 30.0926 123.66 29.2905 125.393C29.038 125.939 29.276 126.585 29.8228 126.837C29.9709 126.905 30.1262 126.938 30.2797 126.938C30.6912 126.938 31.0854 126.704 31.2698 126.306C32.0628 124.592 32.893 122.867 33.7359 121.178C34.0039 120.639 33.785 119.986 33.2463 119.718Z" fill="#A2DFFF"/>
<path d="M28.3795 130.078C27.8254 129.842 27.185 130.099 26.9489 130.652C26.1977 132.409 25.4628 134.2 24.7653 135.978C24.5454 136.538 24.8216 137.169 25.382 137.388C25.5128 137.439 25.6472 137.463 25.7799 137.463C26.2149 137.463 26.6264 137.201 26.7954 136.772C27.4857 135.015 28.2124 133.243 28.9554 131.506C29.1906 130.953 28.9336 130.313 28.3795 130.078Z" fill="#A2DFFF"/>
<path d="M24.1339 140.71C23.5671 140.507 22.9431 140.802 22.7405 141.367C22.0947 143.166 21.467 145 20.8748 146.817C20.6886 147.388 21.0019 148.002 21.5742 148.187C21.6859 148.224 21.7995 148.241 21.9112 148.241C22.3708 148.241 22.7977 147.949 22.9476 147.489C23.5326 145.693 24.153 143.881 24.7924 142.102C24.995 141.536 24.7007 140.913 24.1339 140.71Z" fill="#A2DFFF"/>
<path d="M81.318 57.4627C79.8574 58.6885 78.3941 59.9533 76.9707 61.22C76.5211 61.6198 76.4821 62.308 76.8826 62.7558C77.0979 62.997 77.3967 63.1194 77.6965 63.1194C77.9545 63.1194 78.2133 63.0288 78.4213 62.8438C79.8293 61.5908 81.2763 60.3405 82.7214 59.1283C83.1819 58.742 83.2419 58.0557 82.854 57.5951C82.4662 57.1354 81.7786 57.0756 81.318 57.4627Z" fill="#A2DFFF"/>
<path d="M20.5232 151.581C19.9455 151.412 19.3396 151.742 19.1707 152.32C18.6329 154.155 18.1143 156.023 17.6311 157.872C17.4794 158.454 17.8282 159.048 18.4104 159.2C18.5031 159.224 18.5948 159.235 18.6865 159.235C19.1707 159.235 19.613 158.911 19.7402 158.422C20.218 156.593 20.7303 154.746 21.2626 152.932C21.4324 152.354 21.1009 151.75 20.5232 151.581Z" fill="#A2DFFF"/>
<path d="M38.7126 109.667C38.1903 109.368 37.5245 109.548 37.2247 110.068C36.2728 111.723 35.3327 113.415 34.4298 115.097C34.1455 115.626 34.3453 116.285 34.8758 116.569C35.0393 116.657 35.2155 116.698 35.3899 116.698C35.7787 116.698 36.1556 116.489 36.3518 116.123C37.2447 114.46 38.1739 112.787 39.1159 111.15C39.4156 110.631 39.2349 109.966 38.7126 109.667Z" fill="#A2DFFF"/>
<path d="M44.7603 99.9564C44.2571 99.6272 43.5813 99.7678 43.2515 100.27C42.2042 101.866 41.166 103.499 40.1668 105.124C39.8516 105.637 40.0124 106.307 40.5256 106.62C40.7037 106.729 40.9008 106.781 41.0952 106.781C41.4612 106.781 41.8191 106.597 42.0253 106.262C43.0136 104.655 44.04 103.04 45.0755 101.461C45.4043 100.96 45.2635 100.285 44.7603 99.9564Z" fill="#A2DFFF"/>
<path d="M64.6073 73.2314C63.2984 74.6187 61.9922 76.0448 60.7251 77.4701C60.3254 77.9198 60.3663 78.6071 60.8168 79.006C61.0248 79.1901 61.2828 79.2808 61.5399 79.2808C61.8405 79.2808 62.1403 79.1574 62.3555 78.9154C63.609 77.5055 64.9007 76.0956 66.1951 74.7229C66.6075 74.285 66.5866 73.5968 66.1487 73.1852C65.71 72.7736 65.0197 72.7944 64.6073 73.2314Z" fill="#A2DFFF"/>
<path d="M72.7334 65.1032C71.3463 66.4115 69.9593 67.7588 68.6113 69.1079C68.1862 69.5332 68.1872 70.2222 68.6132 70.6466C68.8257 70.8587 69.1046 70.9648 69.3834 70.9648C69.6632 70.9648 69.9421 70.8587 70.1546 70.6457C71.488 69.3119 72.8596 67.9791 74.2312 66.6853C74.669 66.2728 74.6881 65.5837 74.2748 65.1476C73.8606 64.7097 73.1712 64.6906 72.7334 65.1032Z" fill="#A2DFFF"/>
<path d="M51.3648 90.6186C50.8816 90.2605 50.1985 90.3611 49.8397 90.8435C48.7016 92.3748 47.5698 93.9434 46.4761 95.5083C46.1319 96.0015 46.2527 96.6797 46.7459 97.0233C46.9357 97.1557 47.1537 97.2191 47.369 97.2191C47.7133 97.2191 48.0521 97.0568 48.2637 96.754C49.3446 95.2072 50.4637 93.655 51.5901 92.1409C51.9489 91.6586 51.848 90.9767 51.3648 90.6186Z" fill="#A2DFFF"/>
<path d="M58.5025 81.6853C58.0411 81.2999 57.3535 81.3607 56.9674 81.8213C55.7412 83.2837 54.5204 84.7843 53.3377 86.2803C52.9653 86.7517 53.0462 87.4363 53.5185 87.808C53.7183 87.9658 53.9563 88.0419 54.1925 88.0419C54.5149 88.0419 54.8338 87.8996 55.049 87.6276C56.2181 86.1479 57.4252 84.6646 58.6388 83.2175C59.0257 82.7569 58.964 82.0715 58.5025 81.6853Z" fill="#A2DFFF"/>
<path d="M355.62 78.9988C355.225 78.5455 354.536 78.4974 354.082 78.8918C353.628 79.2862 353.58 79.9735 353.975 80.4268C355.213 81.8484 356.448 83.3073 357.644 84.7643C357.859 85.0272 358.173 85.1623 358.488 85.1623C358.731 85.1623 358.976 85.0816 359.178 84.9157C359.644 84.5349 359.712 83.8495 359.33 83.3843C358.121 81.9119 356.872 80.4359 355.62 78.9988Z" fill="#A2DFFF"/>
<path d="M362.91 87.8759C362.542 87.3999 361.857 87.312 361.381 87.6792C360.904 88.0464 360.816 88.73 361.184 89.2051C362.336 90.6948 363.483 92.2234 364.592 93.7475C364.805 94.0404 365.138 94.1963 365.475 94.1963C365.697 94.1963 365.921 94.1283 366.114 93.9887C366.601 93.636 366.709 92.9551 366.356 92.4691C365.234 90.9287 364.075 89.3828 362.91 87.8759Z" fill="#A2DFFF"/>
<path d="M347.823 70.5577C347.402 70.1279 346.712 70.1198 346.282 70.5405C345.851 70.9603 345.843 71.6493 346.264 72.0791C347.582 73.4255 348.9 74.8109 350.181 76.1972C350.396 76.4302 350.689 76.5481 350.982 76.5481C351.247 76.5481 351.512 76.4529 351.721 76.2598C352.163 75.8527 352.191 75.1645 351.783 74.7221C350.488 73.3194 349.156 71.9186 347.823 70.5577Z" fill="#A2DFFF"/>
<path d="M369.666 97.1602C369.326 96.6642 368.648 96.5364 368.151 96.8746C367.654 97.2137 367.526 97.8901 367.864 98.3869C368.928 99.9418 369.983 101.534 371 103.119C371.208 103.443 371.56 103.62 371.919 103.62C372.121 103.62 372.324 103.565 372.506 103.448C373.013 103.124 373.161 102.451 372.836 101.945C371.807 100.343 370.741 98.7333 369.666 97.1602Z" fill="#A2DFFF"/>
<path d="M335.232 58.7774C333.783 57.5353 332.295 56.2977 330.812 55.1C330.344 54.7219 329.657 54.7944 329.278 55.2614C328.9 55.7283 328.972 56.4137 329.44 56.7918C330.908 57.9768 332.378 59.2008 333.813 60.4293C334.018 60.6052 334.271 60.6914 334.522 60.6914C334.829 60.6914 335.134 60.5626 335.35 60.3124C335.742 59.8554 335.689 59.1691 335.232 58.7774Z" fill="#A2DFFF"/>
<path d="M339.544 62.5818C339.099 62.1774 338.41 62.21 338.005 62.6543C337.6 63.0986 337.632 63.7867 338.077 64.1911C339.474 65.4604 340.871 66.7669 342.229 68.0753C342.441 68.2793 342.714 68.3808 342.986 68.3808C343.271 68.3808 343.557 68.2693 343.771 68.0481C344.189 67.6156 344.177 66.9265 343.744 66.5095C342.368 65.1866 340.956 63.8647 339.544 62.5818Z" fill="#A2DFFF"/>
<path d="M375.864 106.82C375.554 106.305 374.885 106.137 374.369 106.446C373.853 106.755 373.685 107.424 373.995 107.939C374.965 109.553 375.925 111.204 376.846 112.844C377.046 113.199 377.416 113.4 377.798 113.4C377.979 113.4 378.161 113.355 378.33 113.26C378.855 112.966 379.042 112.302 378.748 111.778C377.816 110.122 376.846 108.453 375.864 106.82Z" fill="#A2DFFF"/>
<path d="M392.873 143.1C392.247 141.303 391.586 139.491 390.906 137.713C390.692 137.151 390.062 136.869 389.499 137.083C388.937 137.297 388.654 137.926 388.869 138.488C389.54 140.246 390.194 142.038 390.813 143.815C390.969 144.264 391.391 144.545 391.842 144.545C391.961 144.545 392.081 144.526 392.2 144.485C392.77 144.288 393.071 143.668 392.873 143.1Z" fill="#A2DFFF"/>
<path d="M394.682 148.552C394.501 147.979 393.889 147.661 393.315 147.841C392.741 148.022 392.422 148.633 392.603 149.206C392.671 149.421 392.738 149.637 392.806 149.853C392.952 150.319 393.382 150.618 393.847 150.618C393.954 150.618 394.064 150.602 394.172 150.569C394.747 150.391 395.067 149.781 394.889 149.207C394.819 148.988 394.751 148.77 394.682 148.552Z" fill="#A2DFFF"/>
<path d="M381.484 116.822C381.205 116.29 380.547 116.084 380.013 116.363C379.48 116.641 379.274 117.298 379.553 117.83C380.427 119.498 381.287 121.2 382.11 122.892C382.299 123.279 382.687 123.505 383.091 123.505C383.251 123.505 383.413 123.47 383.567 123.396C384.108 123.133 384.333 122.482 384.071 121.941C383.238 120.23 382.368 118.508 381.484 116.822Z" fill="#A2DFFF"/>
<path d="M388.784 132.391C388.053 130.634 387.287 128.865 386.505 127.131C386.258 126.583 385.612 126.339 385.064 126.585C384.515 126.832 384.27 127.476 384.517 128.024C385.29 129.738 386.048 131.488 386.771 133.225C386.945 133.644 387.35 133.896 387.778 133.896C387.917 133.896 388.059 133.868 388.196 133.812C388.752 133.582 389.015 132.945 388.784 132.391Z" fill="#A2DFFF"/>
<path d="M316.924 44.8582C315.338 43.7929 313.715 42.7366 312.1 41.7185C311.59 41.3975 310.918 41.5498 310.597 42.0575C310.275 42.5653 310.428 43.238 310.936 43.5581C312.533 44.5645 314.138 45.609 315.707 46.6625C315.894 46.7876 316.106 46.8484 316.315 46.8484C316.665 46.8484 317.009 46.6797 317.22 46.3678C317.556 45.8701 317.424 45.1937 316.924 44.8582Z" fill="#A2DFFF"/>
<path d="M326.284 51.5522C324.764 50.3962 323.206 49.2474 321.653 48.1377C321.163 47.7877 320.483 47.9001 320.132 48.3888C319.782 48.8775 319.894 49.5566 320.384 49.9066C321.919 51.0046 323.46 52.1406 324.963 53.2839C325.16 53.4335 325.393 53.5061 325.622 53.5061C325.951 53.5061 326.275 53.3583 326.49 53.0772C326.855 52.5985 326.762 51.9158 326.284 51.5522Z" fill="#A2DFFF"/>
<path d="M178.069 46.2771L177.47 54.3637L185.531 55.4635L188.479 53.0781L193.193 53.5704L193.686 48.8648L193.746 48.8158L198.46 49.3081L198.953 44.6025L199.013 44.5536L203.727 45.0459L204.22 40.3394L218.664 28.6506L211.202 19.4634L178.069 46.2771Z" fill="white"/>
<path d="M211.944 18.8641C211.785 18.6683 211.554 18.5431 211.302 18.5168C211.051 18.4906 210.799 18.5649 210.603 18.7245L177.47 45.5382C177.265 45.7033 177.138 45.9453 177.119 46.2074L176.519 54.2948C176.482 54.7962 176.842 55.2405 177.342 55.3085L185.403 56.4083C185.446 56.4146 185.489 56.4173 185.532 56.4173C185.749 56.4173 185.962 56.343 186.132 56.2052L188.773 54.0682L193.094 54.5188C193.619 54.5732 194.087 54.1942 194.141 53.671L194.541 49.8585L198.361 50.2574C198.886 50.3127 199.354 49.9329 199.409 49.4097L199.808 45.5963L203.628 45.9952C203.879 46.0215 204.131 45.9471 204.327 45.7876C204.523 45.6289 204.649 45.3977 204.675 45.1475L205.127 40.8335L219.264 29.3932C219.46 29.2346 219.585 29.0043 219.612 28.7531C219.638 28.502 219.564 28.2508 219.404 28.055L211.944 18.8641ZM203.62 39.5996C203.423 39.7582 203.298 39.9885 203.272 40.2397L202.878 43.9987L199.112 43.6061C198.86 43.5798 198.607 43.6551 198.411 43.8147L198.351 43.8636C198.156 44.0223 198.032 44.2526 198.005 44.5028L197.612 48.2619L193.846 47.8693C193.594 47.843 193.344 47.9173 193.147 48.076L193.087 48.1241C192.89 48.2827 192.765 48.5139 192.739 48.7651L192.345 52.5241L188.579 52.1315C188.328 52.1052 188.076 52.1796 187.88 52.3391L185.253 54.4653L178.489 53.5423L178.992 46.7577L211.064 20.8026L217.325 28.511L203.62 39.5996Z" fill="#1977CC"/>
<path d="M207.319 27.0477L180.132 49.0489C179.957 49.1903 179.849 49.3979 179.831 49.6228L179.592 52.8433C179.559 53.293 179.897 53.6837 180.347 53.7173C180.368 53.7191 180.388 53.7191 180.408 53.7191C180.832 53.7191 181.191 53.3918 181.223 52.9629L181.435 50.0933L208.348 28.3143C208.699 28.0305 208.753 27.5164 208.468 27.1665C208.185 26.8183 207.67 26.7639 207.319 27.0477Z" fill="#E0F4FC"/>
<path d="M210.648 5.48713C203.572 11.2127 202.487 21.5814 208.224 28.6452C213.96 35.7081 224.348 36.7916 231.424 31.0651C238.5 25.3386 239.585 14.97 233.849 7.90793C228.111 0.844996 217.724 -0.238472 210.648 5.48713ZM226.53 14.7134C224.838 16.0833 222.352 15.824 220.981 14.134C219.608 12.444 219.868 9.96334 221.561 8.59337C223.254 7.2234 225.739 7.48271 227.112 9.17273C228.482 10.8628 228.224 13.3434 226.53 14.7134Z" fill="white"/>
<path d="M220.96 7.85444C219.943 8.67679 219.308 9.84548 219.172 11.1447C219.036 12.444 219.416 13.7188 220.239 14.7333C221.063 15.7479 222.234 16.3816 223.536 16.5176C223.709 16.5358 223.883 16.5448 224.054 16.5448C225.174 16.5448 226.25 16.1658 227.131 15.4523C228.147 14.63 228.782 13.4613 228.919 12.1611C229.055 10.8619 228.676 9.58708 227.851 8.57252C226.15 6.47902 223.059 6.15625 220.96 7.85444ZM227.022 11.9644C226.938 12.7577 226.551 13.4712 225.93 13.9735C225.31 14.4758 224.53 14.707 223.735 14.6245C222.94 14.542 222.225 14.1549 221.721 13.5347C221.218 12.9145 220.986 12.1366 221.069 11.3433C221.151 10.55 221.539 9.83641 222.161 9.33412C222.714 8.88623 223.38 8.66862 224.043 8.66862C224.915 8.66862 225.779 9.0458 226.37 9.77295C226.873 10.3922 227.105 11.171 227.022 11.9644Z" fill="#1977CC"/>
<path d="M210.047 4.74818L210.647 5.48803L210.047 4.74818C206.426 7.67762 204.166 11.8392 203.682 16.4659C203.198 21.0927 204.548 25.6314 207.483 29.2445C210.418 32.8585 214.587 35.1143 219.222 35.5984C219.84 35.6628 220.456 35.6945 221.069 35.6945C225.053 35.6945 228.887 34.3436 232.024 31.8049C239.497 25.7566 240.648 14.7678 234.589 7.30861C228.53 -0.151443 217.521 -1.29928 210.047 4.74818ZM230.822 30.3252C227.598 32.9346 223.548 34.1351 219.42 33.7035C215.292 33.2728 211.578 31.2627 208.964 28.045C206.35 24.8263 205.147 20.7844 205.579 16.6627C206.01 12.5419 208.024 8.83544 211.248 6.22605C217.904 0.839546 227.71 1.86317 233.107 8.50632C238.504 15.1513 237.479 24.9387 230.822 30.3252Z" fill="#1977CC"/>
<path d="M228.515 27.4838C226.051 29.4775 222.956 30.3951 219.802 30.0659C216.647 29.7368 213.809 28.2009 211.812 25.7411C211.48 25.3331 210.88 25.2697 210.47 25.6015C210.062 25.9324 209.998 26.5318 210.33 26.9407C212.648 29.7949 215.942 31.5774 219.604 31.96C220.091 32.0108 220.578 32.0361 221.062 32.0361C224.21 32.0361 227.238 30.969 229.717 28.9634C230.126 28.6325 230.189 28.0332 229.857 27.6243C229.524 27.2154 228.924 27.1528 228.515 27.4838Z" fill="#1977CC"/>
<path d="M224.919 238.216C217.482 238.216 211.452 240.583 211.452 243.504C211.452 246.426 217.482 248.793 224.919 248.793C232.354 248.793 238.383 246.426 238.383 243.504C238.383 240.583 232.354 238.216 224.919 238.216Z" fill="#6B3F1A"/>
<path d="M280.715 266.837L189.143 268.726C188.703 268.735 188.266 268.761 187.831 268.792C187.759 268.765 187.688 268.735 187.615 268.71L117.501 248.048C109.545 245.218 99.9017 243.826 94.5598 250.549C91.882 253.919 91.1272 257.15 90.9719 259.299C90.8647 260.782 91.7512 262.157 93.1492 262.671L178.56 294.066C180.336 294.697 182.141 295.018 183.897 295.059C185.726 295.473 187.677 295.68 189.701 295.638L279.783 286.853C289.841 286.645 299.358 287.348 299.206 279.916C299.05 272.484 290.772 266.628 280.715 266.837Z" fill="white"/>
<path d="M294.225 269.734C290.567 267.147 285.759 265.781 280.695 265.885L189.122 267.774C188.769 267.781 188.402 267.799 187.976 267.828C187.959 267.821 187.942 267.816 187.926 267.809C187.912 267.805 187.898 267.8 187.885 267.796L117.796 247.142C113.002 245.438 108.703 244.64 105.017 244.765C100.19 244.929 96.4191 246.677 93.8122 249.958C90.9737 253.53 90.1834 256.972 90.0208 259.231C89.8837 261.126 91.0354 262.909 92.8203 263.564L178.231 294.96C178.234 294.96 178.237 294.962 178.24 294.963C180.038 295.602 181.901 295.954 183.779 296.009C185.537 296.398 187.351 296.595 189.184 296.595C189.363 296.595 189.541 296.593 189.721 296.59C189.746 296.589 189.769 296.588 189.794 296.585L279.84 287.804C280.817 287.784 281.8 287.772 282.75 287.762C289.636 287.681 295.583 287.61 298.472 284.633C299.632 283.438 300.2 281.845 300.16 279.897C300.078 275.993 297.97 272.384 294.225 269.734ZM297.102 283.309C294.766 285.717 288.919 285.786 282.727 285.858C281.761 285.87 280.761 285.882 279.764 285.902C279.739 285.903 279.714 285.904 279.691 285.907L189.645 294.688C187.765 294.723 185.903 294.537 184.108 294.132C184.046 294.118 183.983 294.11 183.92 294.108C182.215 294.068 180.52 293.753 178.884 293.172L93.4797 261.778C92.4878 261.414 91.8475 260.422 91.9238 259.367C92.0673 257.376 92.7712 254.334 95.3073 251.141C97.5509 248.318 100.84 246.813 105.083 246.668C108.533 246.549 112.603 247.316 117.181 248.944C117.197 248.951 117.214 248.955 117.231 248.961L187.321 269.616C187.351 269.626 187.381 269.639 187.412 269.651L187.488 269.681C187.619 269.732 187.761 269.752 187.901 269.742C188.385 269.705 188.787 269.685 189.162 269.677L280.735 267.788C280.903 267.784 281.069 267.782 281.236 267.782C290.523 267.782 298.11 273.162 298.253 279.935C298.282 281.377 297.906 282.48 297.102 283.309Z" fill="#1977CC"/>
<path d="M311.36 251.12C311.36 251.12 297.3 239.222 272.195 230.418C247.093 221.614 243.02 237.396 243.02 237.396L199.798 243.734C199.798 243.734 205.65 260.661 229.783 273.701C247.328 283.18 284.499 289.869 287.567 290.086C299.196 290.912 347.715 294.832 347.715 294.832L343.25 249.089L311.36 251.12Z" fill="white"/>
<path d="M344.198 248.997C344.148 248.487 343.703 248.107 343.188 248.139L311.675 250.146C310.688 249.344 307.315 246.704 301.69 243.259C295.58 239.517 285.558 234.095 272.51 229.52C267.216 227.663 262.425 226.747 258.264 226.797C254.776 226.84 251.698 227.559 249.116 228.934C244.593 231.345 242.836 235.072 242.296 236.54L199.658 242.793C199.378 242.834 199.13 242.998 198.982 243.24C198.835 243.482 198.803 243.776 198.895 244.045C198.957 244.223 200.461 248.49 204.981 254.405C207.621 257.86 210.753 261.167 214.29 264.236C218.703 268.065 223.762 271.531 229.328 274.538C238.664 279.582 253.269 283.713 263.877 286.291C275.642 289.15 285.767 290.912 287.498 291.035C298.99 291.851 347.152 295.741 347.637 295.78C347.662 295.782 347.689 295.783 347.714 295.783C347.968 295.783 348.214 295.681 348.394 295.498C348.592 295.297 348.691 295.018 348.662 294.738L344.198 248.997ZM287.633 289.137C286.323 289.044 276.495 287.399 264.328 284.442C253.83 281.891 239.393 277.812 230.237 272.864C224.816 269.936 219.89 266.565 215.596 262.846C212.163 259.873 209.122 256.672 206.56 253.331C203.501 249.342 201.858 246.097 201.144 244.499L243.158 238.338C243.536 238.283 243.844 238.005 243.942 237.636C243.953 237.592 245.173 233.173 250.056 230.592C252.365 229.37 255.148 228.734 258.323 228.7C262.249 228.659 266.81 229.539 271.877 231.316C284.744 235.828 294.624 241.169 300.647 244.854C307.176 248.85 310.707 251.816 310.741 251.846C310.929 252.005 311.171 252.086 311.419 252.07L342.388 250.098L346.653 293.791C339.265 293.194 298.142 289.882 287.633 289.137Z" fill="#1977CC"/>
<path d="M190.858 258.297L121.423 240.005C117.384 238.473 112.618 237.209 108.526 237.221C104.453 237.234 102.244 238.21 99.0061 241.96C96.7026 244.627 95.856 249.529 95.549 252.431C95.3973 253.863 96.183 255.229 97.4974 255.822C98.0578 256.075 98.7173 256.354 99.4594 256.635L182.754 288.247C184.553 288.928 186.387 289.294 188.176 289.372C190.035 289.832 192.02 290.086 194.089 290.086H287.566L228.673 259.996C208.494 259.096 190.889 258.309 190.858 258.297Z" fill="white"/>
<path d="M287.566 289.134H194.089C192.157 289.134 190.245 288.904 188.406 288.448C188.344 288.432 188.282 288.423 188.218 288.421C186.48 288.345 184.756 287.987 183.093 287.357L99.7982 255.745C99.1506 255.5 98.5084 255.234 97.8898 254.955C96.9488 254.53 96.3892 253.557 96.4973 252.531C96.7762 249.889 97.5673 245.083 99.7283 242.581C102.707 239.132 104.598 238.185 108.529 238.173C108.547 238.173 108.565 238.173 108.585 238.173C112.019 238.173 116.455 239.139 121.084 240.894C121.115 240.906 121.147 240.916 121.179 240.925L190.569 259.205C190.682 259.243 190.797 259.249 191.619 259.288C192.143 259.312 192.912 259.348 193.898 259.392C195.868 259.482 198.702 259.61 202.167 259.765C209.094 260.076 218.54 260.497 228.629 260.947C229.153 260.973 229.601 260.563 229.625 260.038C229.648 259.513 229.24 259.068 228.714 259.045C199.363 257.737 191.863 257.396 191.009 257.352L121.714 239.097C115.229 236.644 110.722 236.269 108.578 236.269C108.56 236.269 108.541 236.269 108.523 236.269C104.018 236.283 101.626 237.467 98.2822 241.338C95.9078 244.087 94.9686 248.834 94.5989 252.332C94.4036 254.175 95.4101 255.927 97.1032 256.69C97.7572 256.985 98.4348 257.266 99.1188 257.525L182.414 289.137C184.237 289.828 186.128 290.226 188.037 290.319C189.998 290.797 192.033 291.039 194.087 291.039H287.564C288.091 291.039 288.518 290.613 288.518 290.087C288.518 289.561 288.093 289.134 287.566 289.134Z" fill="#1977CC"/>
<path d="M151.184 248.789C150.911 253.141 155.81 258.858 162.265 259.307L213.172 262.921C204.846 261.416 192.449 258.955 192.422 258.944L151.184 248.789Z" fill="#E0F4FC"/>
<path d="M218.156 263.274L213.172 262.921C219.394 264.045 223.341 264.637 218.156 263.274Z" fill="#E0F4FC"/>
<path d="M222.151 233.629C216.612 234.547 211.033 235.143 206.02 235.529L166.954 228.109C160.556 226.696 154.227 230.735 152.813 237.121C151.402 243.503 155.447 249.825 161.844 251.232L226.537 265.294L272.194 230.417C255.3 223.891 238.315 230.951 222.151 233.629Z" fill="white"/>
<path d="M272.538 229.531C259.362 224.44 246.223 227.423 233.517 230.307C229.715 231.17 225.785 232.062 221.995 232.691C217.141 233.495 211.785 234.128 206.073 234.571L167.146 227.178C163.807 226.445 160.383 227.052 157.501 228.89C154.616 230.729 152.62 233.58 151.881 236.917C151.144 240.253 151.753 243.676 153.597 246.556C155.44 249.437 158.297 251.429 161.641 252.164L226.333 266.226C226.402 266.241 226.47 266.248 226.537 266.248C226.976 266.248 227.371 265.944 227.468 265.498C227.58 264.984 227.254 264.477 226.739 264.366L162.049 250.303C159.204 249.677 156.772 247.982 155.204 245.53C153.635 243.078 153.116 240.165 153.743 237.326C154.373 234.485 156.071 232.059 158.527 230.493C160.983 228.927 163.903 228.411 166.747 229.039C166.756 229.04 166.765 229.042 166.775 229.044L205.841 236.464C205.924 236.48 206.009 236.484 206.093 236.478C211.907 236.029 217.362 235.386 222.307 234.567C226.152 233.93 230.11 233.031 233.939 232.162C246.366 229.341 259.217 226.424 271.849 231.304C272.34 231.494 272.893 231.251 273.083 230.76C273.274 230.272 273.03 229.72 272.538 229.531Z" fill="#1977CC"/>
<path d="M167.331 233.688L161.849 232.686C159.706 236.198 158.893 240.492 159.607 244.548L159.639 244.731L165.121 245.733C168.02 246.263 170.863 243.996 171.474 240.669C172.084 237.343 170.229 234.217 167.331 233.688Z" fill="#E0F4FC"/>
<path d="M167.674 231.815L162.192 230.813C162.078 230.792 161.963 230.782 161.848 230.782C161.191 230.782 160.57 231.122 160.22 231.695C159.032 233.64 158.212 235.781 157.782 238.06C157.351 240.338 157.333 242.632 157.728 244.877L157.76 245.06C157.898 245.845 158.51 246.46 159.295 246.603L164.777 247.605C165.168 247.677 165.569 247.713 165.966 247.713C167.708 247.713 169.417 247.02 170.779 245.762C172.098 244.543 173.011 242.856 173.35 241.012C173.727 238.951 173.375 236.873 172.359 235.159C171.291 233.36 169.627 232.172 167.674 231.815ZM171.475 240.669C170.924 243.67 168.554 245.809 165.967 245.809C165.688 245.809 165.405 245.784 165.122 245.732L159.64 244.73L159.608 244.547C158.894 240.492 159.705 236.198 161.85 232.685L167.332 233.687C170.229 234.217 172.084 237.343 171.475 240.669Z" fill="#1977CC"/>
<path d="M168.588 245.046C170.017 244.167 171.12 242.596 171.474 240.669C171.827 238.743 171.353 236.883 170.328 235.557C168.866 238.469 168.253 241.801 168.588 245.046Z" fill="white"/>
<path d="M187.719 239.006C187.202 238.91 186.705 239.253 186.609 239.771L185.309 246.863C185.214 247.38 185.557 247.876 186.075 247.971C186.134 247.982 186.192 247.986 186.248 247.986C186.699 247.986 187.101 247.664 187.185 247.206L188.486 240.114C188.581 239.596 188.237 239.1 187.719 239.006Z" fill="#1977CC"/>
<path d="M190.163 241.451C189.645 241.356 189.148 241.698 189.053 242.216L188.461 245.439C188.367 245.956 188.709 246.452 189.228 246.547C189.286 246.558 189.344 246.563 189.401 246.563C189.852 246.563 190.254 246.241 190.338 245.782L190.929 242.559C191.024 242.041 190.681 241.545 190.163 241.451Z" fill="#1977CC"/>
<path d="M111.457 252.744L103.871 251.115C102.213 250.759 100.518 251.538 99.7173 253.031C99.1496 254.09 98.5474 255.273 98.2031 256.132C98.5892 256.295 99.0079 256.464 99.4584 256.636L119.186 264.123C119.476 258.656 116.307 253.786 111.457 252.744Z" fill="#E0F4FC"/>
<path d="M111.657 251.813L104.072 250.184C102.008 249.74 99.8718 250.726 98.8772 252.58C98.1478 253.938 97.6237 255.015 97.3185 255.777C97.1259 256.258 97.3539 256.804 97.8317 257.006C98.2568 257.187 98.69 257.361 99.1215 257.524L118.849 265.011C118.959 265.053 119.073 265.074 119.187 265.074C119.37 265.074 119.551 265.021 119.708 264.92C119.963 264.754 120.124 264.476 120.139 264.173C120.459 258.135 116.892 252.937 111.657 251.813ZM99.7982 255.745C99.6892 255.704 99.5802 255.662 99.4703 255.619C99.7501 255.025 100.117 254.302 100.558 253.48C101.154 252.371 102.434 251.78 103.67 252.046L111.256 253.675C115.189 254.52 117.976 258.23 118.232 262.742L99.7982 255.745Z" fill="#1977CC"/>
<path d="M107.46 261.448L99.5947 259.759C98.1005 259.438 96.5699 260.128 95.8278 261.462C95.4636 262.116 95.103 262.792 94.8668 263.303L115.133 270.752C114.636 266.17 111.686 262.356 107.46 261.448Z" fill="#E0F4FC"/>
<path d="M113.437 264.124C111.92 262.251 109.922 261.003 107.661 260.517L99.7954 258.828C97.8761 258.415 95.9468 259.289 94.994 260.999C94.5507 261.795 94.2173 262.436 94.0002 262.905C93.8894 263.146 93.884 263.423 93.9857 263.669C94.0874 263.914 94.2873 264.106 94.5371 264.197L114.803 271.646C114.91 271.685 115.022 271.705 115.133 271.705C115.342 271.705 115.55 271.637 115.719 271.504C115.979 271.301 116.116 270.979 116.081 270.651C115.814 268.188 114.899 265.93 113.437 264.124ZM96.1966 262.777C96.3328 262.521 96.4882 262.235 96.6607 261.924C97.2021 260.951 98.3003 260.455 99.393 260.689L107.258 262.379C109.089 262.772 110.712 263.789 111.953 265.321C112.87 266.454 113.532 267.804 113.905 269.286L96.1966 262.777Z" fill="#1977CC"/>
<path d="M311.36 251.12C311.36 251.12 309.806 249.805 306.813 247.729L301.206 291.123C319.763 292.573 347.715 294.831 347.715 294.831L343.25 249.089L311.36 251.12Z" fill="#E0F4FC"/>
<path d="M344.198 248.997C344.148 248.487 343.705 248.107 343.188 248.139L311.675 250.146C311.086 249.668 309.638 248.529 307.357 246.947C306.925 246.647 306.33 246.754 306.029 247.186C305.728 247.617 305.835 248.211 306.268 248.511C309.18 250.532 310.728 251.834 310.743 251.847C310.931 252.005 311.173 252.086 311.421 252.071L342.389 250.099L346.655 293.792C341.219 293.353 317.515 291.443 301.28 290.176C300.754 290.134 300.296 290.527 300.255 291.051C300.213 291.575 300.606 292.033 301.131 292.075C319.475 293.507 347.358 295.759 347.638 295.782C347.663 295.784 347.69 295.785 347.715 295.785C347.969 295.785 348.215 295.683 348.394 295.5C348.592 295.299 348.691 295.02 348.663 294.74L344.198 248.997Z" fill="#1977CC"/>
<path d="M316.3 230.264L307.125 305.141L365.55 312.273L374.724 237.396L316.3 230.264Z" fill="white"/>
<path d="M374.85 236.459L316.426 229.325C315.902 229.261 315.428 229.632 315.364 230.155L306.188 305.031C306.157 305.281 306.228 305.534 306.383 305.733C306.539 305.931 306.767 306.061 307.019 306.092L365.443 313.225C365.482 313.23 365.521 313.232 365.56 313.232C366.035 313.232 366.447 312.879 366.506 312.396L375.682 237.519C375.712 237.269 375.642 237.016 375.486 236.818C375.33 236.618 375.101 236.489 374.85 236.459ZM364.727 311.22L308.196 304.317L317.14 231.331L373.671 238.233L364.727 311.22Z" fill="#1977CC"/>
<path d="M324.357 226.765L314.757 304.971C314.727 305.061 314.698 305.15 314.671 305.24C312.396 312.611 317.672 320.166 325.375 320.763L480 339.46V232.662L339.961 218.97C329.431 218.493 326.509 220.312 324.357 226.765Z" fill="#A2DFFF"/>
<path d="M337.052 218.899C328.861 218.899 326.296 220.95 324.357 226.765L314.757 304.971C314.727 305.061 314.698 305.151 314.671 305.241C312.396 312.611 317.672 320.166 325.375 320.764L480 339.46V232.663L339.961 218.97C338.919 218.923 337.951 218.899 337.052 218.899ZM478.093 337.312L325.603 318.874C325.576 318.87 325.549 318.868 325.522 318.866C322.388 318.623 319.576 316.994 317.805 314.395C316.071 311.85 315.593 308.718 316.493 305.801C316.516 305.726 316.541 305.649 316.566 305.573C316.606 305.453 316.635 305.329 316.65 305.203L326.227 227.189C327.12 224.565 328.047 223.127 329.4 222.247C330.937 221.248 333.297 220.803 337.051 220.803C337.897 220.803 338.804 220.824 339.823 220.871L478.093 234.39V337.312Z" fill="#1977CC"/>
<path d="M43.3606 114.759H3.6028C2.16128 114.759 0.993164 115.925 0.993164 117.363V168.188C0.993164 169.626 2.16128 170.792 3.6028 170.792H43.3606C44.8021 170.792 45.9702 169.626 45.9702 168.188V117.363C45.9702 115.925 44.8021 114.759 43.3606 114.759Z" fill="#A2DFFF"/>
<path d="M43.3606 113.807H3.60282C1.63809 113.807 0.0394287 115.402 0.0394287 117.363V168.188C0.0394287 170.149 1.63809 171.744 3.60282 171.744H43.3606C45.3253 171.744 46.924 170.149 46.924 168.188V117.363C46.924 115.402 45.3253 113.807 43.3606 113.807ZM45.0165 168.188C45.0165 169.099 44.2734 169.84 43.3606 169.84H3.60282C2.68994 169.84 1.94693 169.099 1.94693 168.188V117.363C1.94693 116.452 2.68994 115.711 3.60282 115.711H43.3606C44.2734 115.711 45.0165 116.452 45.0165 117.363V168.188Z" fill="#1977CC"/>
<path d="M42.4069 119.226H4.55664V168.543H42.4069V119.226Z" fill="#72C8ED"/>
<path d="M42.4068 117.821H4.55652V167.139H42.4068V117.821Z" fill="white"/>
<path d="M42.4068 116.869H4.55653C4.0297 116.869 3.60278 117.295 3.60278 117.821V167.139C3.60278 167.664 4.0297 168.091 4.55653 168.091H42.4068C42.9336 168.091 43.3605 167.664 43.3605 167.139V117.821C43.3605 117.295 42.9336 116.869 42.4068 116.869ZM41.453 166.187H5.51028V118.773H41.453V166.187Z" fill="#1977CC"/>
<path d="M30.5922 156.859C30.2588 156.526 29.7192 156.526 29.3859 156.859L29.147 157.098C28.8136 157.431 28.8136 157.969 29.147 158.302L31.178 160.33C31.5114 160.662 32.0509 160.662 32.3843 160.33L32.6232 160.091C32.9565 159.758 32.9565 159.22 32.6232 158.887L30.5922 156.859Z" fill="#A2DFFF"/>
<path d="M36.5745 154.567C36.213 154.206 35.6262 154.206 35.2638 154.567L30.9892 158.834C30.6276 159.194 30.6276 159.78 30.9892 160.142L31.1245 160.277C31.486 160.638 32.0728 160.638 32.4352 160.277L36.7098 156.01C37.0714 155.649 37.0714 155.064 36.7098 154.702L36.5745 154.567Z" fill="#A2DFFF"/>
<path d="M36.2792 126.057H10.5425C10.0157 126.057 9.58875 126.484 9.58875 127.009C9.58875 127.535 10.0157 127.962 10.5425 127.962H36.2792C36.806 127.962 37.233 127.535 37.233 127.009C37.233 126.484 36.8051 126.057 36.2792 126.057Z" fill="#A2DFFF"/>
<path d="M34.1573 128.848H10.5425C10.0157 128.848 9.58875 129.274 9.58875 129.8C9.58875 130.326 10.0157 130.752 10.5425 130.752H34.1564C34.6833 130.752 35.1102 130.326 35.1102 129.8C35.1102 129.274 34.6842 128.848 34.1573 128.848Z" fill="#A2DFFF"/>
<path d="M19.8438 131.639H10.5425C10.0157 131.639 9.58875 132.065 9.58875 132.591C9.58875 133.117 10.0157 133.543 10.5425 133.543H19.8429C20.3698 133.543 20.7967 133.117 20.7967 132.591C20.7967 132.065 20.3698 131.639 19.8438 131.639Z" fill="#A2DFFF"/>
<path d="M36.2792 136.618H10.5425C10.0157 136.618 9.58875 137.044 9.58875 137.57C9.58875 138.096 10.0157 138.522 10.5425 138.522H36.2792C36.806 138.522 37.233 138.096 37.233 137.57C37.233 137.044 36.8051 136.618 36.2792 136.618Z" fill="#A2DFFF"/>
<path d="M34.1573 139.409H10.5425C10.0157 139.409 9.58875 139.835 9.58875 140.361C9.58875 140.887 10.0157 141.313 10.5425 141.313H34.1564C34.6833 141.313 35.1102 140.887 35.1102 140.361C35.1102 139.835 34.6842 139.409 34.1573 139.409Z" fill="#A2DFFF"/>
<path d="M19.8438 142.201H10.5425C10.0157 142.201 9.58875 142.627 9.58875 143.153C9.58875 143.679 10.0157 144.105 10.5425 144.105H19.8429C20.3698 144.105 20.7967 143.679 20.7967 143.153C20.7967 142.627 20.3698 142.201 19.8438 142.201Z" fill="#A2DFFF"/>
<path d="M36.2792 147.179H10.5425C10.0157 147.179 9.58875 147.605 9.58875 148.131C9.58875 148.657 10.0157 149.083 10.5425 149.083H36.2792C36.806 149.083 37.233 148.657 37.233 148.131C37.233 147.605 36.8051 147.179 36.2792 147.179Z" fill="#A2DFFF"/>
<path d="M34.1573 149.971H10.5425C10.0157 149.971 9.58875 150.397 9.58875 150.923C9.58875 151.449 10.0157 151.875 10.5425 151.875H34.1564C34.6833 151.875 35.1102 151.449 35.1102 150.923C35.1102 150.397 34.6842 149.971 34.1573 149.971Z" fill="#A2DFFF"/>
<path d="M19.8438 152.762H10.5425C10.0157 152.762 9.58875 153.188 9.58875 153.714C9.58875 154.239 10.0157 154.666 10.5425 154.666H19.8429C20.3698 154.666 20.7967 154.239 20.7967 153.714C20.7967 153.188 20.3698 152.762 19.8438 152.762Z" fill="#A2DFFF"/>
<path d="M25.4718 111.661H21.2943C19.4958 111.661 18.038 113.13 18.038 114.944V116.107H19.3741V114.944C19.3741 113.869 20.2352 112.994 21.2943 112.994H25.4718C26.53 112.994 27.3911 113.868 27.3911 114.944V116.107H28.7272V114.944C28.7272 113.131 27.2694 111.661 25.4718 111.661Z" fill="#E0F4FC"/>
<path d="M25.4718 109.757H21.2944C18.4477 109.757 16.1305 112.083 16.1305 114.944V116.107C16.1305 117.159 16.9843 118.011 18.038 118.011H19.3742C20.4278 118.011 21.2817 117.159 21.2817 116.107V114.944C21.2817 114.916 21.2935 114.904 21.2998 114.898H25.4654C25.4718 114.904 25.4836 114.916 25.4836 114.944V116.107C25.4836 117.159 26.3374 118.011 27.3911 118.011H28.7273C29.7809 118.011 30.6348 117.159 30.6348 116.107V114.944C30.6348 112.084 28.3185 109.757 25.4718 109.757ZM28.7273 116.107H27.3911V114.944C27.3911 113.869 26.53 112.994 25.4718 112.994H21.2944C20.2353 112.994 19.3742 113.868 19.3742 114.944V116.107H18.038V114.944C18.038 113.131 19.4959 111.661 21.2944 111.661H25.4718C27.2703 111.661 28.7273 113.13 28.7273 114.944V116.107Z" fill="#1977CC"/>
<path d="M29.4803 114.328H17.2859C15.4874 114.328 14.0295 115.798 14.0295 117.611V119.219H32.7358V117.611C32.7358 115.799 31.2779 114.328 29.4803 114.328Z" fill="#E0F4FC"/>
<path d="M29.4803 112.424H17.286C14.4383 112.424 12.1221 114.751 12.1221 117.611V119.219C12.1221 120.27 12.9759 121.123 14.0296 121.123H32.7358C33.7895 121.123 34.6433 120.27 34.6433 119.219V117.611C34.6433 114.751 32.3271 112.424 29.4803 112.424ZM32.7358 119.219H14.0296V117.611C14.0296 115.798 15.4884 114.328 17.286 114.328H29.4794C31.2779 114.328 32.7358 115.798 32.7358 117.611V119.219Z" fill="#1977CC"/>
<path d="M333.01 82.7805C325.139 85.3744 316.727 84.7534 309.324 81.0324C301.921 77.3115 296.413 70.9349 293.814 63.0786C293.649 62.579 293.11 62.3079 292.61 62.473C292.11 62.638 291.838 63.1765 292.003 63.6752C293.398 67.8894 295.577 71.7055 298.481 75.0176C301.286 78.2163 304.646 80.8121 308.467 82.7324C312.287 84.6527 316.377 85.8015 320.621 86.1469C321.513 86.2194 322.404 86.2557 323.294 86.2557C326.784 86.2557 330.243 85.6972 333.609 84.5883C334.109 84.4233 334.381 83.8848 334.215 83.3861C334.049 82.8874 333.51 82.6154 333.01 82.7805Z" fill="#1977CC"/>
<path d="M355.281 52.6719C355.279 52.6719 355.276 52.6719 355.274 52.6719C354.751 52.6719 354.325 53.0935 354.32 53.6167C354.295 56.8091 353.774 59.9724 352.771 63.0179C351.779 66.029 350.338 68.8623 348.488 71.4381C344.646 76.7884 339.293 80.7106 333.01 82.7805C329.466 83.9483 325.794 84.4697 322.1 84.3282C318.529 84.1922 315.031 83.4442 311.701 82.1051C304.995 79.4086 299.419 74.4483 296 68.1388C295.749 67.6764 295.171 67.5041 294.707 67.7544C294.244 68.0046 294.072 68.5821 294.322 69.0445C297.952 75.7439 303.872 81.0098 310.988 83.8713C314.523 85.292 318.236 86.0863 322.026 86.2313C322.445 86.2476 322.864 86.2549 323.282 86.2549C326.78 86.2549 330.248 85.6955 333.608 84.5884C340.277 82.3907 345.958 78.2273 350.038 72.547C352 69.8134 353.53 66.8069 354.582 63.6118C355.647 60.3786 356.201 57.0203 356.227 53.6303C356.231 53.1053 355.808 52.6756 355.281 52.6719Z" fill="#1977CC"/>
<path d="M356.082 53.1171C355.925 52.8678 355.661 52.7046 355.367 52.6764C355.074 52.6483 354.783 52.7562 354.58 52.9702L350.286 57.5126C349.924 57.8952 349.941 58.4973 350.325 58.8581C350.708 59.219 351.311 59.2017 351.673 58.8191L355.122 55.1707L357.712 59.2842C357.894 59.5717 358.204 59.7294 358.521 59.7294C358.694 59.7294 358.869 59.6823 359.027 59.5835C359.473 59.3033 359.608 58.7158 359.327 58.2706L356.082 53.1171Z" fill="#1977CC"/>
<path d="M343.494 49.1813H337.63C337.324 48.1359 336.909 47.1377 336.394 46.2011L340.54 42.063C341.534 41.0712 341.534 39.4636 340.54 38.4717L338.205 36.1416C337.212 35.1497 335.601 35.1497 334.608 36.1416L330.462 40.2796C329.524 39.7656 328.524 39.3521 327.476 39.0466V33.1931C327.476 31.7905 326.337 30.6536 324.932 30.6536H321.63C320.225 30.6536 319.086 31.7905 319.086 33.1931V39.0466C318.039 39.3512 317.039 39.7656 316.1 40.2796L311.955 36.1416C310.961 35.1497 309.35 35.1497 308.357 36.1416L306.022 38.4717C305.029 39.4636 305.029 41.0712 306.022 42.063L310.168 46.2011C309.653 47.1377 309.239 48.1359 308.933 49.1813H303.068C301.663 49.1813 300.524 50.3182 300.524 51.7209V55.0166C300.524 56.4192 301.663 57.5562 303.068 57.5562H308.933C309.239 58.6015 309.653 59.5998 310.168 60.5364L306.022 64.6744C305.029 65.6663 305.029 67.2738 306.022 68.2657L308.357 70.5958C309.35 71.5877 310.961 71.5877 311.955 70.5958L316.1 66.4578C317.039 66.9719 318.039 67.3853 319.086 67.6909V73.5443C319.086 74.9469 320.225 76.0839 321.63 76.0839H324.932C326.337 76.0839 327.476 74.9469 327.476 73.5443V67.6909C328.524 67.3862 329.524 66.9719 330.462 66.4578L334.608 70.5958C335.601 71.5877 337.212 71.5877 338.205 70.5958L340.54 68.2657C341.534 67.2738 341.534 65.6663 340.54 64.6744L336.394 60.5364C336.909 59.5998 337.323 58.6015 337.63 57.5562H343.494C344.899 57.5562 346.038 56.4192 346.038 55.0166V51.7209C346.037 50.3182 344.899 49.1813 343.494 49.1813ZM323.281 60.521C319.355 60.521 316.172 57.344 316.172 53.4254C316.172 49.5068 319.355 46.3298 323.281 46.3298C327.206 46.3298 330.389 49.5068 330.389 53.4254C330.39 57.344 327.207 60.521 323.281 60.521Z" fill="#A2DFFF"/>
<path d="M323.282 45.3778C318.836 45.3778 315.219 48.9882 315.219 53.4254C315.219 57.8626 318.836 61.473 323.282 61.473C327.727 61.473 331.344 57.8626 331.344 53.4254C331.344 48.9872 327.727 45.3778 323.282 45.3778ZM323.282 59.569C319.888 59.569 317.127 56.8127 317.127 53.4254C317.127 50.0381 319.888 47.2818 323.282 47.2818C326.675 47.2818 329.436 50.0381 329.436 53.4254C329.436 56.8127 326.675 59.569 323.282 59.569Z" fill="#1977CC"/>
<path d="M343.494 48.2293H338.327C338.111 47.5955 337.855 46.9781 337.562 46.3815L341.214 42.7358C342.577 41.3749 342.577 39.1599 341.214 37.799L338.88 35.4688C337.516 34.1079 335.297 34.1079 333.933 35.4688L330.281 39.1145C329.684 38.8226 329.064 38.5669 328.43 38.3502V33.1931C328.43 31.2683 326.861 29.7015 324.932 29.7015H321.63C319.702 29.7015 318.132 31.2673 318.132 33.1931V38.3502C317.497 38.566 316.879 38.8217 316.281 39.1145L312.629 35.4688C311.968 34.8097 311.09 34.4461 310.155 34.4461C309.221 34.4461 308.342 34.8088 307.682 35.4688L305.347 37.799C303.984 39.1599 303.984 41.3749 305.347 42.7367L309 46.3824C308.707 46.979 308.451 47.5964 308.234 48.2302H303.068C301.139 48.2302 299.57 49.796 299.57 51.7218V55.0175C299.57 56.9423 301.138 58.5091 303.068 58.5091H308.234C308.451 59.1428 308.707 59.7603 309 60.3568L305.347 64.0026C303.984 65.3635 303.984 67.5784 305.347 68.9403L307.682 71.2704C308.342 71.9295 309.221 72.2931 310.155 72.2931C311.09 72.2931 311.968 71.9295 312.629 71.2704L316.281 67.6256C316.879 67.9175 317.497 68.1732 318.132 68.389V73.5461C318.132 75.471 319.701 77.0377 321.63 77.0377H324.932C326.86 77.0377 328.43 75.4719 328.43 73.5461V68.389C329.065 68.1723 329.684 67.9175 330.281 67.6247L333.934 71.2695C334.594 71.9286 335.472 72.2922 336.407 72.2922C337.342 72.2922 338.22 71.9295 338.88 71.2695L341.215 68.9394C342.578 67.5784 342.578 65.3635 341.215 64.0016L337.562 60.3559C337.855 59.7593 338.111 59.141 338.328 58.5082H343.495C345.423 58.5082 346.993 56.9423 346.993 55.0166V51.7208C346.991 49.7951 345.422 48.2293 343.494 48.2293ZM345.083 55.0157C345.083 55.8906 344.37 56.6032 343.493 56.6032H337.629C337.205 56.6032 336.832 56.8825 336.713 57.2887C336.428 58.2624 336.039 59.2008 335.558 60.0776C335.353 60.4484 335.42 60.9099 335.719 61.2091L339.865 65.3471C340.485 65.9664 340.485 66.9728 339.865 67.592L337.531 69.9222C337.23 70.2223 336.831 70.3873 336.406 70.3873C335.981 70.3873 335.582 70.2223 335.282 69.9222L331.136 65.7842C330.836 65.485 330.375 65.4197 330.002 65.6228C329.124 66.1042 328.184 66.4923 327.208 66.776C326.801 66.8948 326.522 67.2665 326.522 67.69V73.5434C326.522 74.4183 325.809 75.131 324.931 75.131H321.629C320.753 75.131 320.039 74.4192 320.039 73.5434V67.69C320.039 67.2665 319.759 66.8948 319.352 66.776C318.376 66.4914 317.436 66.1033 316.558 65.6228C316.414 65.5439 316.257 65.5049 316.099 65.5049C315.852 65.5049 315.608 65.601 315.425 65.7842L311.279 69.9222C310.978 70.2223 310.579 70.3873 310.154 70.3873C309.729 70.3873 309.331 70.2223 309.03 69.9222L306.695 67.592C306.075 66.9728 306.075 65.9664 306.695 65.3471L310.841 61.2091C311.141 60.9099 311.207 60.4493 311.003 60.0776C310.521 59.2008 310.133 58.2624 309.847 57.2887C309.728 56.8825 309.356 56.6032 308.932 56.6032H303.068C302.191 56.6032 301.477 55.8915 301.477 55.0157V51.7199C301.477 50.845 302.19 50.1324 303.068 50.1324H308.932C309.356 50.1324 309.728 49.8531 309.847 49.4469C310.133 48.4723 310.521 47.5339 311.003 46.658C311.207 46.2872 311.141 45.8257 310.841 45.5265L306.695 41.3885C306.075 40.7692 306.075 39.7628 306.695 39.1436L309.03 36.8134C309.331 36.5133 309.729 36.3483 310.154 36.3483C310.579 36.3483 310.978 36.5133 311.279 36.8134L315.425 40.9515C315.724 41.2507 316.186 41.3168 316.558 41.1128C317.437 40.6314 318.377 40.2433 319.352 39.9596C319.759 39.8408 320.039 39.4691 320.039 39.0456V33.1931C320.039 32.3182 320.752 31.6055 321.629 31.6055H324.931C325.808 31.6055 326.522 32.3173 326.522 33.1931V39.0465C326.522 39.47 326.801 39.8417 327.208 39.9605C328.184 40.2443 329.124 40.6323 330.002 41.1138C330.374 41.3168 330.835 41.2516 331.136 40.9524L335.282 36.8143C335.902 36.1951 336.91 36.196 337.531 36.8143L339.865 39.1445C340.485 39.7628 340.485 40.7701 339.865 41.3894L335.719 45.5274C335.42 45.8266 335.353 46.2872 335.558 46.6589C336.04 47.5357 336.429 48.4741 336.713 49.4478C336.832 49.854 337.205 50.1333 337.629 50.1333H343.493C344.369 50.1333 345.083 50.845 345.083 51.7208V55.0157Z" fill="#1977CC"/>
<path d="M323.282 43.2861C317.703 43.2861 313.181 47.8004 313.181 53.3683C313.181 58.9361 317.704 63.4504 323.282 63.4504C328.86 63.4504 333.382 58.9361 333.382 53.3683C333.382 47.8004 328.86 43.2861 323.282 43.2861ZM323.282 59.1365C320.122 59.1365 317.56 56.5797 317.56 53.4254C317.56 50.2711 320.122 47.7143 323.282 47.7143C326.442 47.7143 329.003 50.2711 329.003 53.4254C329.003 56.5797 326.442 59.1365 323.282 59.1365Z" fill="#A2DFFF"/>
<path d="M323.282 42.3341C317.186 42.3341 312.227 47.2845 312.227 53.3682C312.227 59.4529 317.186 64.4023 323.282 64.4023C329.377 64.4023 334.336 59.452 334.336 53.3682C334.336 47.2836 329.377 42.3341 323.282 42.3341ZM323.282 62.4983C318.238 62.4983 314.135 58.4029 314.135 53.3682C314.135 48.3335 318.238 44.2381 323.282 44.2381C328.326 44.2381 332.429 48.3335 332.429 53.3682C332.429 58.4029 328.325 62.4983 323.282 62.4983Z" fill="#1977CC"/>
<path d="M323.282 46.7614C319.601 46.7614 316.606 49.7506 316.606 53.4244C316.606 57.0983 319.601 60.0875 323.282 60.0875C326.962 60.0875 329.957 57.0983 329.957 53.4244C329.957 49.7506 326.962 46.7614 323.282 46.7614ZM323.282 58.1844C320.653 58.1844 318.514 56.0492 318.514 53.4253C318.514 50.8015 320.653 48.6663 323.282 48.6663C325.91 48.6663 328.05 50.8015 328.05 53.4253C328.05 56.0492 325.91 58.1844 323.282 58.1844Z" fill="#1977CC"/>
<path d="M335.574 22.8653C332.04 21.4445 328.327 20.6503 324.536 20.5052C320.614 20.3556 316.716 20.9078 312.955 22.1472C306.286 24.3449 300.604 28.5083 296.525 34.1886C294.562 36.9222 293.032 39.9287 291.98 43.1238C290.916 46.357 290.362 49.7153 290.335 53.1053C290.331 53.6312 290.755 54.0609 291.282 54.0645C291.285 54.0645 291.287 54.0645 291.289 54.0645C291.812 54.0645 292.238 53.6429 292.243 53.1198C292.268 49.9274 292.79 46.7641 293.793 43.7186C294.785 40.7075 296.225 37.8742 298.075 35.2984C301.918 29.9481 307.27 26.0259 313.552 23.956C317.097 22.7882 320.768 22.2678 324.462 22.4083C328.033 22.5443 331.531 23.2923 334.861 24.6314C341.567 27.3279 347.144 32.2882 350.563 38.5977C350.813 39.0601 351.392 39.2324 351.855 38.9822C352.318 38.7319 352.491 38.1544 352.24 37.692C348.611 30.9926 342.692 25.7267 335.574 22.8653Z" fill="#1977CC"/>
<path d="M294.89 47.9174L291.441 51.5658L288.85 47.4523C288.57 47.0071 287.981 46.8729 287.535 47.1531C287.089 47.4332 286.955 48.0207 287.235 48.4659L290.482 53.6212C290.639 53.8705 290.902 54.0337 291.197 54.0619C291.227 54.0646 291.258 54.0664 291.289 54.0664C291.55 54.0664 291.802 53.9594 291.983 53.7681L296.278 49.2257C296.639 48.8431 296.622 48.2411 296.239 47.8802C295.855 47.5175 295.251 47.5348 294.89 47.9174Z" fill="#1977CC"/>
<path d="M393.905 109.712C392.482 109.712 391.329 110.864 391.329 112.284V166.31C391.329 167.02 390.751 167.596 390.04 167.596H388.751C388.04 167.596 387.462 167.02 387.462 166.31V161.807C387.462 160.387 386.308 159.235 384.885 159.235C383.461 159.235 382.307 160.388 382.307 161.807V166.31C382.307 169.856 385.197 172.742 388.751 172.742H390.04C393.593 172.742 396.483 169.857 396.483 166.31V112.284C396.482 110.864 395.329 109.712 393.905 109.712Z" fill="#A2DFFF"/>
<path d="M393.906 108.76C391.958 108.76 390.375 110.341 390.375 112.284V166.31C390.375 166.494 390.225 166.644 390.04 166.644H388.751C388.566 166.644 388.416 166.495 388.416 166.31V161.807C388.416 159.863 386.831 158.282 384.884 158.282C382.937 158.282 381.353 159.863 381.353 161.807V166.31C381.353 170.381 384.671 173.694 388.751 173.694H390.04C394.118 173.694 397.437 170.382 397.437 166.31V112.284C397.436 110.341 395.852 108.76 393.906 108.76ZM395.529 166.31C395.529 169.332 393.066 171.79 390.039 171.79H388.75C385.722 171.79 383.26 169.332 383.26 166.31V161.807C383.26 160.913 383.988 160.186 384.883 160.186C385.779 160.186 386.507 160.913 386.507 161.807V166.31C386.507 167.544 387.514 168.548 388.75 168.548H390.039C391.275 168.548 392.281 167.545 392.281 166.31V112.284C392.281 111.39 393.01 110.664 393.905 110.664C394.8 110.664 395.529 111.391 395.529 112.284V166.31Z" fill="#1977CC"/>
<path d="M393.906 116.144C376.901 116.144 363.042 124.676 362.365 136.478H362.523C363.078 135.172 364.801 135.111 366.844 135.111C368.886 135.111 370.61 136.063 371.165 137.368H371.543C372.098 136.063 373.821 135.111 375.864 135.111C377.907 135.111 379.63 136.063 380.185 137.368H380.564C381.119 136.063 382.842 135.111 384.885 135.111C386.928 135.111 388.651 136.063 389.206 137.368H389.585C390.14 136.063 391.863 135.111 393.906 135.111C395.948 135.111 397.672 136.063 398.227 137.368H398.605C399.16 136.063 400.883 135.111 402.926 135.111C404.969 135.111 406.692 136.063 407.247 137.368H407.626C408.181 136.063 409.904 135.111 411.947 135.111C413.99 135.111 415.713 136.063 416.268 137.368H416.647C417.202 136.063 418.925 135.111 420.968 135.111C423.01 135.111 424.733 136.063 425.288 137.368H425.446C424.769 125.567 410.91 116.144 393.906 116.144Z" fill="white"/>
<path d="M416.332 121.542C410.266 117.447 402.301 115.192 393.905 115.192C385.43 115.192 377.473 117.284 371.499 121.083C365.337 125 361.755 130.449 361.412 136.423C361.396 136.685 361.491 136.941 361.671 137.132C361.85 137.322 362.102 137.43 362.364 137.43H362.52C362.902 137.43 363.248 137.201 363.398 136.85C363.708 136.121 365.08 136.063 366.842 136.063C368.423 136.063 369.871 136.768 370.284 137.741C370.434 138.093 370.779 138.321 371.163 138.321H371.541C371.924 138.321 372.27 138.093 372.42 137.741C372.833 136.769 374.281 136.063 375.863 136.063C377.445 136.063 378.893 136.768 379.307 137.741C379.457 138.093 379.802 138.321 380.185 138.321H380.564C380.946 138.321 381.292 138.093 381.442 137.741C381.856 136.769 383.303 136.063 384.886 136.063C386.468 136.063 387.915 136.768 388.329 137.741C388.479 138.093 388.824 138.321 389.208 138.321H389.586C389.969 138.321 390.315 138.093 390.465 137.741C390.878 136.769 392.326 136.063 393.907 136.063C395.489 136.063 396.937 136.768 397.351 137.741C397.501 138.093 397.846 138.321 398.229 138.321H398.608C398.99 138.321 399.336 138.093 399.486 137.741C399.9 136.769 401.347 136.063 402.929 136.063C404.51 136.063 405.958 136.768 406.372 137.741C406.522 138.093 406.867 138.321 407.251 138.321H407.629C408.012 138.321 408.358 138.093 408.508 137.741C408.921 136.769 410.369 136.063 411.951 136.063C413.533 136.063 414.981 136.768 415.394 137.741C415.544 138.093 415.889 138.321 416.272 138.321H416.651C417.033 138.321 417.38 138.093 417.529 137.741C417.943 136.769 419.391 136.063 420.973 136.063C422.555 136.063 424.002 136.768 424.416 137.741C424.566 138.093 424.911 138.321 425.295 138.321H425.451C425.714 138.321 425.964 138.213 426.144 138.023C426.324 137.832 426.417 137.576 426.403 137.315C426.052 131.292 422.478 125.69 416.332 121.542ZM420.967 134.158C419.121 134.158 417.452 134.84 416.457 135.935C415.462 134.84 413.793 134.158 411.946 134.158C410.098 134.158 408.431 134.84 407.435 135.935C406.44 134.84 404.772 134.158 402.924 134.158C401.078 134.158 399.409 134.84 398.414 135.935C397.419 134.84 395.75 134.158 393.903 134.158C392.056 134.158 390.388 134.84 389.392 135.935C388.396 134.84 386.729 134.158 384.881 134.158C383.034 134.158 381.366 134.84 380.37 135.935C379.375 134.84 377.707 134.158 375.86 134.158C374.013 134.158 372.344 134.84 371.349 135.935C370.353 134.84 368.686 134.158 366.838 134.158C365.783 134.158 364.587 134.158 363.582 134.468C364.51 129.927 367.622 125.802 372.52 122.687C378.191 119.082 385.784 117.095 393.9 117.095C401.92 117.095 409.505 119.234 415.259 123.118C420.016 126.33 423.093 130.447 424.126 134.907C423.232 134.431 422.136 134.158 420.967 134.158Z" fill="#1977CC"/>
<path d="M393.905 116.144C401.193 116.144 407.133 125.567 407.423 137.368H407.627C408.182 136.063 409.905 135.111 411.948 135.111C413.99 135.111 415.714 136.063 416.269 137.368H416.435C415.951 125.567 406.052 116.144 393.905 116.144Z" fill="#A2DFFF"/>
<path d="M410.199 121.639C405.8 117.481 400.013 115.192 393.905 115.192C393.379 115.192 392.952 115.618 392.952 116.144C392.952 116.67 393.379 117.096 393.905 117.096C397.085 117.096 400.131 119.136 402.483 122.841C404.917 126.675 406.333 131.843 406.47 137.392C406.482 137.909 406.906 138.32 407.423 138.32H407.627C408.009 138.32 408.355 138.092 408.505 137.74C408.974 136.638 410.592 136.062 411.949 136.062C413.306 136.062 414.923 136.638 415.392 137.74C415.542 138.092 415.887 138.32 416.27 138.32H416.437C416.696 138.32 416.944 138.214 417.125 138.027C417.305 137.841 417.4 137.589 417.39 137.329C417.142 131.361 414.589 125.789 410.199 121.639ZM411.947 134.158C410.543 134.158 409.244 134.551 408.264 135.221C407.671 127.982 405.004 121.855 401.251 118.35C404.072 119.349 406.672 120.928 408.887 123.022C412.313 126.259 414.518 130.438 415.239 134.979C414.317 134.458 413.17 134.158 411.947 134.158Z" fill="#1977CC"/>
<path d="M371.376 137.368H371.542C372.097 136.063 373.82 135.111 375.863 135.111C377.906 135.111 379.629 136.063 380.184 137.368H380.388C380.677 125.567 386.617 116.144 393.905 116.144C381.758 116.144 371.86 125.567 371.376 137.368Z" fill="#A2DFFF"/>
<path d="M393.905 115.192C387.798 115.192 382.011 117.481 377.612 121.639C373.221 125.789 370.669 131.362 370.424 137.329C370.413 137.589 370.51 137.841 370.689 138.027C370.869 138.214 371.118 138.32 371.378 138.32H371.544C371.927 138.32 372.273 138.092 372.423 137.74C372.891 136.638 374.509 136.062 375.866 136.062C377.222 136.062 378.841 136.638 379.309 137.74C379.459 138.092 379.805 138.32 380.188 138.32H380.391C380.909 138.32 381.332 137.908 381.345 137.392C381.481 131.843 382.897 126.675 385.332 122.841C387.683 119.136 390.729 117.096 393.909 117.096C394.436 117.096 394.863 116.67 394.863 116.144C394.863 115.618 394.431 115.192 393.905 115.192ZM379.547 135.221C378.566 134.552 377.267 134.159 375.863 134.159C374.639 134.159 373.493 134.458 372.571 134.979C373.292 130.438 375.498 126.26 378.923 123.022C381.138 120.928 383.738 119.349 386.559 118.35C382.806 121.855 380.139 127.982 379.547 135.221Z" fill="#1977CC"/>
<path d="M393.905 116.144C391.476 116.144 389.496 125.567 389.4 137.368H389.585C390.14 136.063 391.863 135.111 393.905 135.111C395.948 135.111 397.671 136.063 398.226 137.368H398.411C398.315 125.567 396.334 116.144 393.905 116.144Z" fill="#A2DFFF"/>
<path d="M393.905 115.192C392.161 115.192 390.833 117.462 389.844 122.134C388.99 126.173 388.493 131.58 388.445 137.361C388.444 137.615 388.543 137.859 388.722 138.039C388.901 138.22 389.145 138.321 389.399 138.321H389.584C389.966 138.321 390.312 138.093 390.462 137.741C390.931 136.639 392.548 136.063 393.905 136.063C395.261 136.063 396.879 136.639 397.348 137.741C397.498 138.093 397.843 138.321 398.226 138.321H398.411C398.665 138.321 398.909 138.22 399.088 138.039C399.268 137.859 399.367 137.615 399.365 137.361C399.317 131.58 398.82 126.173 397.966 122.134C396.977 117.462 395.649 115.192 393.905 115.192ZM393.905 134.158C392.584 134.158 391.353 134.507 390.396 135.107C390.534 130.41 390.978 126.071 391.673 122.708C392.61 118.171 393.669 117.128 393.905 117.095C394.142 117.128 395.201 118.17 396.138 122.707C396.833 126.07 397.277 130.409 397.415 135.106C396.457 134.508 395.227 134.158 393.905 134.158Z" fill="#1977CC"/>
<path d="M88.5629 18.3102C71.8669 18.3102 58.3318 20.8244 58.3318 23.9252C58.3318 23.9506 58.3354 23.9768 58.3372 24.0022H58.3318V65.5584C58.3318 68.7743 59.0403 72.0846 61.7953 73.7021C66.2234 76.3024 88.5648 88.4254 88.5648 88.4254C88.6247 88.3738 110.903 76.3024 115.332 73.7021C118.087 72.0846 118.795 68.7743 118.795 65.5584V24.0031H118.79C118.791 23.9778 118.795 23.9515 118.795 23.9261C118.794 20.8244 105.259 18.3102 88.5629 18.3102Z" fill="#A2DFFF"/>
<path d="M116.803 20.8688C115.213 20.1706 112.963 19.5487 110.115 19.0192C104.349 17.9484 96.6952 17.3582 88.5638 17.3582C80.4315 17.3582 72.7779 17.9475 67.0127 19.0192C64.1641 19.5478 61.9142 20.1706 60.3246 20.8688C58.3426 21.7392 57.3789 22.7392 57.3789 23.926C57.3789 23.9406 57.3789 23.9541 57.3798 23.9678C57.3798 23.9795 57.3789 23.9922 57.3789 24.004V65.5602C57.3789 69.9756 58.7023 72.9921 61.3129 74.5244C65.7038 77.1029 87.8871 89.1426 88.1105 89.2641C88.2531 89.342 88.4103 89.3792 88.5656 89.3792C88.7382 89.3792 88.9098 89.3321 89.0606 89.2414C89.225 89.1489 90.6102 88.3946 92.3542 87.4444C98.8733 83.8948 112.438 76.5082 115.816 74.5244C118.426 72.9921 119.75 69.9756 119.75 65.5602V24.0031C119.75 23.9913 119.75 23.9786 119.749 23.9668C119.749 23.9542 119.75 23.9396 119.75 23.9251C119.748 22.7383 118.785 21.7392 116.803 20.8688ZM89.1833 89.1498C89.1842 89.1498 89.1842 89.1489 89.1851 89.1489C89.1842 89.1489 89.1842 89.1498 89.1833 89.1498ZM89.1851 89.148C89.186 89.1471 89.186 89.1471 89.1869 89.1462C89.186 89.1471 89.186 89.148 89.1851 89.148ZM117.84 65.5593C117.84 69.3047 116.861 71.7001 114.847 72.8824C111.496 74.8508 97.9496 82.2265 91.4396 85.7716C89.8745 86.6238 89.0288 87.0844 88.562 87.341C85.3519 85.5975 66.2915 75.2388 62.2784 72.8815C60.2647 71.6992 59.2855 69.3038 59.2855 65.5584V24.1037C59.2919 24.0466 59.2928 23.9895 59.2882 23.9315L59.2864 23.9115C59.3064 23.7492 59.6543 23.2424 61.0913 22.6114C62.5264 21.9812 64.6946 21.3865 67.3606 20.8914C73.0149 19.8415 80.545 19.2631 88.5629 19.2631C96.5816 19.2631 104.111 19.8415 109.765 20.8914C112.431 21.3865 114.599 21.9812 116.034 22.6114C117.47 23.2415 117.819 23.7483 117.839 23.9106C117.838 23.9197 117.838 23.9288 117.838 23.9378C117.834 23.9922 117.835 24.0466 117.84 24.1001V65.5593Z" fill="#1977CC"/>
<path d="M114.714 27.5953C114.714 26.0222 112.795 25.179 112.164 24.9025C110.828 24.3159 108.94 23.7936 106.554 23.3503C101.739 22.4563 95.35 21.964 88.5629 21.964C81.7758 21.964 75.3866 22.4563 70.5716 23.3503C68.1854 23.7936 66.2978 24.3159 64.9617 24.9025C64.3313 25.179 62.412 26.0222 62.412 27.5953C62.412 27.6062 62.412 27.618 62.4129 27.6288C62.4129 27.6388 62.412 27.6497 62.412 27.6597V63.5519C62.412 67.2928 63.5411 69.8523 65.7692 71.1606C69.4316 73.3103 87.3476 83.0343 88.1087 83.4478C88.2513 83.5258 88.4085 83.5629 88.5638 83.5629C88.7355 83.5629 88.9063 83.5167 89.0561 83.426C89.1997 83.3453 90.3387 82.7252 91.773 81.9436C97.2139 78.9815 108.534 72.8162 111.357 71.1597C113.584 69.8514 114.714 67.2919 114.714 63.551V27.6606C114.714 27.6488 114.714 27.637 114.713 27.6261C114.713 27.6162 114.714 27.6062 114.714 27.5953ZM89.1815 83.3363C89.1824 83.3363 89.1824 83.3354 89.1833 83.3354C89.1824 83.3354 89.1824 83.3363 89.1815 83.3363ZM89.1833 83.3344C89.1842 83.3335 89.1842 83.3335 89.1851 83.3326C89.1851 83.3335 89.1842 83.3344 89.1833 83.3344ZM112.806 63.5519C112.806 66.6119 112.016 68.5639 110.389 69.5196C107.594 71.1606 96.291 77.3151 90.8592 80.2726C89.6574 80.9272 88.9662 81.3035 88.5611 81.5257C85.6744 79.958 70.0474 71.4635 66.7357 69.5187C65.1097 68.5639 64.3195 66.6119 64.3195 63.551V27.7494C64.324 27.6987 64.3249 27.647 64.3213 27.5944C64.4249 27.2544 65.8945 26.1165 71.2819 25.1564C75.9425 24.325 82.0792 23.868 88.562 23.868C95.0448 23.868 101.181 24.3259 105.842 25.1564C111.227 26.1165 112.697 27.2535 112.803 27.5944C112.799 27.647 112.8 27.6996 112.805 27.7522V63.5519H112.806ZM112.806 27.6053H112.807H112.806Z" fill="white"/>
<path d="M104.369 46.9953C103.842 46.9953 103.415 47.4214 103.415 47.9473V63.037H88.5856C88.0588 63.037 87.6318 63.4631 87.6318 63.989C87.6318 64.5148 88.0588 64.941 88.5856 64.941H104.369C104.896 64.941 105.322 64.5148 105.322 63.989V47.9473C105.322 47.4214 104.896 46.9953 104.369 46.9953Z" fill="white"/>
<path d="M91.5876 34.1913H80.9728C80.446 34.1913 80.019 34.6175 80.019 35.1433C80.019 35.6692 80.446 36.0953 80.9728 36.0953H91.5876C92.1144 36.0953 92.5413 35.6692 92.5413 35.1433C92.5413 34.6175 92.1144 34.1913 91.5876 34.1913Z" fill="white"/>
<path d="M96.9059 34.5595C96.7251 34.3274 96.4472 34.1923 96.1529 34.1923H94.5733C94.0464 34.1923 93.6195 34.6184 93.6195 35.1443C93.6195 35.6701 94.0464 36.0963 94.5733 36.0963H95.686L105.403 48.5702C105.591 48.8114 105.873 48.9383 106.157 48.9383C106.362 48.9383 106.568 48.873 106.742 48.7379C107.158 48.4151 107.233 47.8167 106.909 47.4024L96.9059 34.5595Z" fill="white"/>
<path d="M89.1542 44.8374C88.6273 44.8374 88.2004 45.2635 88.2004 45.7894V63.036H74.0077V45.5119C74.0077 44.9861 73.5808 44.5599 73.054 44.5599C72.5271 44.5599 72.1002 44.9861 72.1002 45.5119V63.988C72.1002 64.5139 72.5271 64.94 73.054 64.94H89.1542C89.681 64.94 90.1079 64.5139 90.1079 63.988V45.7894C90.1079 45.2635 89.681 44.8374 89.1542 44.8374Z" fill="white"/>
<path d="M106.156 47.0334H91.4423L81.7249 34.5595C81.5442 34.3274 81.2662 34.1923 80.9719 34.1923C80.6776 34.1923 80.3997 34.3283 80.2189 34.5595L70.2154 47.4015C69.8921 47.8168 69.9675 48.4142 70.3826 48.737C70.557 48.8721 70.7632 48.9374 70.9675 48.9374C71.2519 48.9374 71.5334 48.8114 71.7215 48.5693L80.9719 36.6938L90.2224 48.5693C90.4032 48.8014 90.6811 48.9365 90.9754 48.9365H106.155C106.682 48.9365 107.109 48.5104 107.109 47.9845C107.11 47.4595 106.683 47.0334 106.156 47.0334Z" fill="white"/>
<path d="M94.5605 31.5239H91.6293C91.1025 31.5239 90.6755 31.9501 90.6755 32.4759V37.1851C90.6755 37.711 91.1025 38.1371 91.6293 38.1371H94.5605C95.0873 38.1371 95.5143 37.711 95.5143 37.1851V32.4759C95.5143 31.9501 95.0873 31.5239 94.5605 31.5239ZM93.6067 36.2331H92.583V33.4279H93.6067V36.2331Z" fill="white"/>
<path d="M84.7497 49.9392H78.1344C77.6076 49.9392 77.1807 50.3653 77.1807 50.8912V63.988C77.1807 64.5139 77.6076 64.94 78.1344 64.94H84.7497C85.2766 64.94 85.7035 64.5139 85.7035 63.988V50.8912C85.7035 50.3653 85.2766 49.9392 84.7497 49.9392ZM83.796 63.036H79.0882V51.8432H83.796V63.036Z" fill="white"/>
<path d="M100.2 50.6047H96.6696C96.1427 50.6047 95.7158 51.0309 95.7158 51.5567V59.403C95.7158 59.9289 96.1427 60.355 96.6696 60.355H100.2C100.727 60.355 101.154 59.9289 101.154 59.403V51.5567C101.154 51.0318 100.727 50.6047 100.2 50.6047ZM99.2465 58.451H97.6233V52.5087H99.2465V58.451Z" fill="white"/>
<path d="M96.6697 50.6047H93.0908C92.564 50.6047 92.1371 51.0309 92.1371 51.5567V59.403C92.1371 59.9289 92.564 60.355 93.0908 60.355H96.6697C97.1965 60.355 97.6234 59.9289 97.6234 59.403V51.5567C97.6234 51.0318 97.1965 50.6047 96.6697 50.6047ZM95.7159 58.451H94.0446V52.5087H95.7159V58.451Z" fill="white"/>
<path d="M100.832 58.451H92.4596C91.9328 58.451 91.5059 58.8772 91.5059 59.4031C91.5059 59.9289 91.9328 60.355 92.4596 60.355H100.832C101.359 60.355 101.786 59.9289 101.786 59.4031C101.786 58.8772 101.359 58.451 100.832 58.451Z" fill="white"/>
</svg>
