<svg width="301" height="120" viewBox="0 0 301 120" fill="none" xmlns="http://www.w3.org/2000/svg">
<path d="M290.554 36.0703C288.519 30.0969 282.932 26.0524 276.618 26.0037C267.585 25.9336 253.416 25.0512 238.775 21.0949C234.24 19.8697 224.246 12.3724 217.9 7.35266C214.136 4.37613 209.481 2.75494 204.682 2.74249C189.585 2.7029 157.101 2.62258 156.775 2.66557C156.758 2.66783 156.742 2.67007 156.725 2.67234C150.048 2.66781 143.737 2.6633 138.907 2.66104C132.935 2.65765 127.04 4.01863 121.674 6.63992C108.139 13.2525 82.4323 25.8069 81.6513 26.1655C81.323 26.3126 81.1521 26.3895 81.1521 26.3895C50.7176 31.2396 29.9888 41.0878 17.5757 47.8237C11.0415 51.3693 6.97696 58.2093 6.97696 65.6421V78.8787C6.97696 84.1247 10.0805 88.874 14.8864 90.9828C16.8954 91.8641 19.0652 92.3189 21.2587 92.3189H264.183L284.151 90.5959C289.078 90.1705 293.158 86.5706 294.158 81.7296C295.117 77.0788 295.95 70.5046 295.731 62.1373C295.48 52.607 292.92 43.0144 290.554 36.0703Z" fill="#E0F4FC"/>
<path d="M296.258 47.6302C295.391 43.6343 294.229 39.4869 292.804 35.3033C290.444 28.3761 283.947 23.6834 276.636 23.6268C267.535 23.5567 253.687 22.6618 239.393 18.8006C236.316 17.969 229.019 13.1168 219.373 5.48822C217.293 3.84327 214.967 2.56599 212.461 1.69148C209.956 0.818092 207.342 0.372351 204.687 0.365563C192.014 0.332755 169.418 0.276184 160.477 0.276184C157.457 0.276184 156.831 0.279569 156.597 0.295408C149.968 0.290883 143.706 0.286374 138.908 0.284111H138.885C135.736 0.284111 132.583 0.643868 129.516 1.35321C126.449 2.06255 123.458 3.12262 120.629 4.5051C95.9305 16.5707 81.376 23.6721 80.6629 24.0035C80.5871 24.0375 80.5203 24.0669 80.4614 24.094C66.9629 26.2651 53.9499 29.6557 41.7768 34.1719C30.362 38.4076 21.8493 42.7994 16.4402 45.7352C9.13515 49.6983 4.59753 57.3257 4.59866 65.6409V78.8775C4.59866 85.0647 8.26136 90.6704 13.9297 93.1571C16.2534 94.1764 18.7186 94.6935 21.2574 94.6935H264.181C264.249 94.6935 264.318 94.6901 264.386 94.6844L284.354 92.9614C287.286 92.708 290 91.545 292.201 89.5957C294.409 87.6419 295.889 85.0873 296.483 82.207C297.749 76.0729 298.294 69.2985 298.104 62.0727C297.989 57.6006 297.366 52.7404 296.258 47.6302ZM294.157 81.7296C293.158 86.5705 289.079 90.1715 284.151 90.5958L264.182 92.3188H21.2585C19.0649 92.3188 16.8952 91.864 14.8861 90.9827C10.0803 88.8739 6.9767 84.1246 6.9767 78.8786V65.6421C6.9767 58.2104 11.0412 51.3692 17.5754 47.8237C29.9874 41.0889 50.7173 31.2395 81.1519 26.3895C81.1519 26.3895 81.3239 26.3115 81.651 26.1655C82.4331 25.8069 108.139 13.2514 121.674 6.63991C127.034 4.02088 132.92 2.66103 138.886 2.66103C138.892 2.66103 138.9 2.66103 138.907 2.66103C143.736 2.6633 150.048 2.6678 156.725 2.67233C156.742 2.67007 156.758 2.66783 156.775 2.66556C156.84 2.65651 158.209 2.65311 160.478 2.65311C169.476 2.65311 192.625 2.71081 204.682 2.74249C209.481 2.75493 214.136 4.37612 217.9 7.35265C224.246 12.3724 234.24 19.8697 238.774 21.0949C253.416 25.05 267.585 25.9336 276.618 26.0037C282.932 26.0524 288.518 30.0969 290.553 36.0703C292.92 43.0155 295.479 52.608 295.729 62.1372C295.95 70.5045 295.117 77.0787 294.157 81.7296Z" fill="#1977CC"/>
<path d="M6.97672 66.7111V78.8786C6.97672 82.1458 8.18102 85.2208 10.2512 87.5852C11.4125 87.9767 12.6564 88.1883 13.9501 88.1883H286.221C288.15 88.1883 289.968 87.7154 291.568 86.8816C292.839 85.455 293.752 83.6946 294.157 81.7295C294.912 78.0708 295.589 73.2196 295.736 67.2428C295.143 66.9046 294.457 66.7111 293.726 66.7111H6.97672Z" fill="#A2DFFF"/>
<path d="M293.725 72.9887H6.44518C4.19844 72.9887 2.37727 74.809 2.37727 77.0547V82.898C2.37727 89.2866 7.55892 94.4658 13.9505 94.4658H286.221C292.613 94.4658 297.794 89.2866 297.794 82.898V77.0547C297.793 74.809 295.972 72.9887 293.725 72.9887Z" fill="#E0F4FC"/>
<path d="M293.725 70.6129H6.44481C2.89077 70.6129 0 73.5023 0 77.0546V82.898C0 86.6223 1.45104 90.1238 4.086 92.7575C6.72097 95.3912 10.2241 96.8416 13.9501 96.8416H286.221C289.947 96.8416 293.45 95.3912 296.085 92.7575C298.72 90.1238 300.171 86.6223 300.171 82.898V77.0546C300.17 73.5023 297.279 70.6129 293.725 70.6129ZM297.793 82.898C297.793 89.2866 292.611 94.4658 286.22 94.4658H13.949C7.55741 94.4658 2.37577 89.2866 2.37577 82.898V77.0546C2.37577 74.8089 4.19693 72.9886 6.44367 72.9886H293.725C295.972 72.9886 297.793 74.8089 297.793 77.0546V82.898Z" fill="#1977CC"/>
<path d="M13.9489 94.4662H286.219C290.428 94.4662 294.111 92.2205 296.137 88.8639H4.03154C6.05756 92.2205 9.74063 94.4662 13.9489 94.4662Z" fill="#A2DFFF"/>
<path d="M64.3572 58.8983C48.3471 58.8983 35.3669 71.8712 35.3669 87.875C35.3669 90.2485 35.6839 92.5429 36.2215 94.7478H92.4906C93.0294 92.5417 93.3452 90.2485 93.3452 87.875C93.3463 71.8712 80.3673 58.8983 64.3572 58.8983Z" fill="#A2DFFF"/>
<path d="M86.5353 65.7055C83.6558 62.8274 80.301 60.567 76.5659 58.9876C72.6972 57.3517 68.5897 56.5225 64.3554 56.5225C60.1211 56.5225 56.0136 57.3517 52.1449 58.9876C48.4098 60.567 45.055 62.8274 42.1755 65.7055C39.2961 68.5836 37.0346 71.9368 35.4545 75.6702C33.8179 79.5371 32.9882 83.6438 32.9882 87.875C32.9882 90.3005 33.2983 92.8019 33.9107 95.3112C34.1699 96.3758 35.124 97.1236 36.2197 97.1236H92.4889C93.5845 97.1236 94.5387 96.3746 94.7978 95.3112C95.4102 92.8019 95.7203 90.3005 95.7203 87.875C95.7203 83.6438 94.8907 79.5371 93.254 75.6702C91.6773 71.9368 89.4159 68.5847 86.5353 65.7055ZM92.4911 94.7489H36.2219C35.6832 92.5428 35.3674 90.2496 35.3674 87.8761C35.3674 71.8723 48.3464 58.8994 64.3577 58.8994C80.3689 58.8994 93.348 71.8723 93.348 87.8761C93.3457 90.2496 93.0288 92.5428 92.4911 94.7489Z" fill="#1977CC"/>
<path d="M193.22 2.71275C183.02 2.68786 153.859 2.66863 138.909 2.66071C132.936 2.65732 127.041 4.01829 121.675 6.63958C108.079 13.2816 82.1991 25.9208 81.6422 26.1697H225.368C227.928 26.1697 227.774 24.8075 225.171 21.4871C220.428 15.4368 206.118 2.71275 193.22 2.71275Z" fill="white"/>
<path d="M227.042 20.0222C222.008 13.6008 207.121 0.340465 193.226 0.337071C183.154 0.312182 154.872 0.294085 138.911 0.285034H138.91H138.888C135.739 0.285034 132.587 0.644791 129.52 1.35413C126.452 2.06348 123.462 3.12354 120.632 4.50603C95.8867 16.5943 81.3242 23.7001 80.6621 24.0067C79.6457 24.4672 79.0854 25.5736 79.3185 26.6665C79.5528 27.7627 80.5217 28.5467 81.6434 28.5467H225.369C226.132 28.5467 226.768 28.454 227.315 28.2639C228.442 27.8713 228.995 27.1382 229.261 26.5929C229.764 25.5623 229.681 24.3506 229.018 22.9919C228.617 22.1762 227.99 21.2327 227.042 20.0222ZM225.367 26.171H81.6411C82.1991 25.9221 108.078 13.2829 121.674 6.64083C127.034 4.0218 132.92 2.66196 138.886 2.66196C138.893 2.66196 138.901 2.66196 138.907 2.66196C153.858 2.66987 183.02 2.6891 193.219 2.71399C206.116 2.71399 220.426 15.438 225.169 21.4884C227.773 24.8088 227.927 26.171 225.367 26.171Z" fill="#1977CC"/>
<path d="M80.2794 103.794C89.0759 95.002 89.0759 80.7467 80.2794 71.9543C71.4829 63.1619 57.2209 63.1619 48.4244 71.9543C39.6279 80.7467 39.6279 95.002 48.4244 103.794C57.2209 112.587 71.4829 112.587 80.2794 103.794Z" fill="#A2DFFF"/>
<path d="M81.9646 70.2751C79.6783 67.9898 77.015 66.1955 74.0496 64.942C70.9777 63.6432 67.7168 62.9848 64.3563 62.9848C60.9959 62.9848 57.7339 63.6432 54.6631 64.942C51.6977 66.1955 49.0344 67.9898 46.748 70.2751C44.4617 72.5604 42.6666 75.2224 41.4125 78.1865C40.1131 81.2569 39.4543 84.5163 39.4543 87.8752C39.4543 91.2341 40.1131 94.4946 41.4125 97.565C42.6666 100.529 44.4617 103.191 46.748 105.476C49.0344 107.762 51.6977 109.556 54.6631 110.809C57.735 112.108 60.9959 112.767 64.3563 112.767C67.7168 112.767 70.9789 112.108 74.0496 110.809C77.015 109.556 79.6783 107.762 81.9646 105.476C84.251 103.191 86.0461 100.529 87.3002 97.565C88.5996 94.4946 89.2583 91.2352 89.2583 87.8752C89.2583 84.5151 88.5996 81.2558 87.3002 78.1865C86.0461 75.2224 84.251 72.5604 81.9646 70.2751ZM64.3563 110.391C51.9161 110.391 41.8312 100.311 41.8312 87.8763C41.8312 75.4419 51.9161 65.3617 64.3563 65.3617C76.7966 65.3617 86.8814 75.4419 86.8814 87.8763C86.8814 100.311 76.7966 110.391 64.3563 110.391Z" fill="#1977CC"/>
<path d="M65.0879 95.465C69.283 95.0499 72.3471 91.3143 71.9319 87.1211C71.5166 82.928 67.7792 79.8653 63.5842 80.2803C59.3891 80.6954 56.3249 84.4311 56.7402 88.6242C57.1554 92.8173 60.8928 95.8801 65.0879 95.465Z" fill="#E0F4FC"/>
<path d="M64.3565 79.0582C59.4918 79.0582 55.5348 83.0133 55.5348 87.8758C55.5348 92.7383 59.4918 96.6934 64.3565 96.6934C69.2212 96.6934 73.1782 92.7383 73.1782 87.8758C73.1782 83.0133 69.2201 79.0582 64.3565 79.0582ZM64.3565 94.3164C60.8025 94.3164 57.9117 91.427 57.9117 87.8747C57.9117 84.3223 60.8025 81.4329 64.3565 81.4329C67.9106 81.4329 70.8013 84.3223 70.8013 87.8747C70.8013 91.427 67.9094 94.3164 64.3565 94.3164Z" fill="#1977CC"/>
<path d="M246.077 58.8983C230.067 58.8983 217.087 71.8712 217.087 87.875C217.087 90.2485 217.404 92.5429 217.941 94.7478H274.21C274.749 92.5417 275.065 90.2485 275.065 87.875C275.067 71.8712 262.087 58.8983 246.077 58.8983Z" fill="#A2DFFF"/>
<path d="M268.257 65.7055C265.378 62.8274 262.023 60.567 258.288 58.9876C254.419 57.3517 250.311 56.5225 246.077 56.5225C241.843 56.5225 237.735 57.3517 233.867 58.9876C230.132 60.567 226.777 62.8274 223.897 65.7055C221.018 68.5836 218.756 71.9368 217.176 75.6702C215.54 79.5371 214.71 83.6438 214.71 87.875C214.71 90.3005 215.02 92.8019 215.632 95.3112C215.892 96.3758 216.846 97.1236 217.941 97.1236H274.211C275.306 97.1236 276.26 96.3746 276.52 95.3112C277.132 92.8019 277.442 90.3005 277.442 87.875C277.442 83.6438 276.612 79.5371 274.976 75.6702C273.398 71.9368 271.136 68.5847 268.257 65.7055ZM274.212 94.7489H217.943C217.404 92.5428 217.088 90.2496 217.088 87.8761C217.088 71.8723 230.067 58.8994 246.078 58.8994C262.088 58.8994 275.069 71.8723 275.069 87.8761C275.067 90.2496 274.75 92.5428 274.212 94.7489Z" fill="#1977CC"/>
<path d="M262 103.795C270.796 95.003 270.796 80.7477 262 71.9553C253.203 63.1629 238.941 63.1629 230.145 71.9553C221.348 80.7477 221.348 95.003 230.145 103.795C238.941 112.588 253.203 112.588 262 103.795Z" fill="#A2DFFF"/>
<path d="M263.686 70.2743C261.4 67.989 258.737 66.1947 255.771 64.9412C252.699 63.6424 249.438 62.984 246.077 62.984C242.715 62.984 239.454 63.6424 236.383 64.9412C233.418 66.1947 230.755 67.989 228.468 70.2743C226.182 72.5596 224.387 75.2216 223.133 78.1857C221.833 81.2561 221.175 84.5155 221.175 87.8744C221.175 91.2333 221.833 94.4938 223.133 97.5642C224.387 100.528 226.182 103.19 228.468 105.476C230.755 107.761 233.418 109.555 236.383 110.809C239.455 112.107 242.716 112.766 246.077 112.766C249.437 112.766 252.699 112.107 255.771 110.809C258.737 109.555 261.4 107.761 263.686 105.476C265.973 103.19 267.768 100.528 269.022 97.5642C270.321 94.4938 270.98 91.2344 270.98 87.8744C270.98 84.5143 270.321 81.255 269.022 78.1857C267.768 75.2216 265.973 72.5596 263.686 70.2743ZM246.078 110.39C233.638 110.39 223.553 100.31 223.553 87.8755C223.553 75.4411 233.638 65.3609 246.078 65.3609C258.518 65.3609 268.603 75.4411 268.603 87.8755C268.603 100.31 258.518 110.39 246.078 110.39Z" fill="#1977CC"/>
<path d="M247.633 95.3418C251.762 94.4944 254.423 90.4612 253.575 86.3334C252.727 82.2056 248.692 79.5463 244.563 80.3937C240.433 81.2411 237.772 85.2743 238.62 89.4021C239.468 93.5299 243.503 96.1892 247.633 95.3418Z" fill="#E0F4FC"/>
<path d="M246.077 79.0581C241.213 79.0581 237.256 83.0132 237.256 87.8757C237.256 92.7381 241.213 96.6932 246.077 96.6932C250.942 96.6932 254.899 92.7381 254.899 87.8757C254.899 83.0132 250.941 79.0581 246.077 79.0581ZM246.077 94.3163C242.523 94.3163 239.633 91.4269 239.633 87.8745C239.633 84.3222 242.523 81.4328 246.077 81.4328C249.631 81.4328 252.522 84.3222 252.522 87.8745C252.522 91.4269 249.631 94.3163 246.077 94.3163Z" fill="#1977CC"/>
<path d="M24.2646 57.0608H8.91316C7.67717 59.7058 6.97655 62.6179 6.97655 65.643V67.2122H20.1537C24.0925 67.2122 27.2866 64.0185 27.2866 60.0826C27.2866 58.4127 25.9341 57.0608 24.2646 57.0608Z" fill="white"/>
<path d="M24.265 55.8729H8.91358C8.45179 55.8729 8.03187 56.1399 7.83719 56.5585C6.47782 59.4683 5.78966 62.524 5.78966 65.6431V67.2122C5.78966 67.8684 6.32163 68.4001 6.97811 68.4001H20.1552C24.7438 68.4001 28.4766 64.669 28.4766 60.0838C28.4755 57.7623 26.5864 55.8729 24.265 55.8729ZM20.1552 66.0243H8.16656V65.6431C8.16656 63.1168 8.67702 60.6336 9.68664 58.2487H24.2661C25.2769 58.2487 26.0997 59.0723 26.0997 60.0838C26.0986 63.3601 23.4319 66.0243 20.1552 66.0243Z" fill="#1977CC"/>
<path d="M294.625 51.6486H287.289C284.967 51.6486 283.085 53.5299 283.085 55.8537C283.085 61.3282 287.527 65.7698 293.006 65.7698H295.761C295.772 64.5988 295.763 63.3883 295.73 62.1371C295.636 58.6028 295.225 55.0606 294.625 51.6486Z" fill="white"/>
<path d="M295.796 51.4429C295.697 50.8749 295.203 50.4609 294.626 50.4609H287.289C284.316 50.4609 281.897 52.8796 281.897 55.8539C281.897 61.9767 286.881 66.9579 293.006 66.9579H295.761C296.413 66.9579 296.944 66.433 296.95 65.7813C296.961 64.5663 296.951 63.3297 296.918 62.1056C296.83 58.7614 296.453 55.174 295.796 51.4429ZM293.006 64.5821C288.191 64.5821 284.274 60.6666 284.274 55.8539C284.274 54.1909 285.627 52.8367 287.289 52.8367H293.622C294.155 56.0994 294.465 59.2343 294.542 62.1679C294.564 62.97 294.575 63.7777 294.576 64.5821H293.006Z" fill="#1977CC"/>
<path d="M166.475 0H160.566C156.957 0 153.435 0.828133 150.099 2.46064C146.935 4.00943 144.08 6.2076 141.61 8.9952C136.665 14.5783 133.828 22.0326 133.828 29.4462V95.2567C133.828 95.9129 134.36 96.4446 135.017 96.4446C135.673 96.4446 136.205 95.9129 136.205 95.2567V29.4462C136.205 22.6051 138.825 15.7255 143.39 10.57C148.071 5.28556 154.171 2.37579 160.567 2.37579H166.476C167.132 2.37579 167.664 1.84407 167.664 1.1879C167.664 0.531724 167.131 0 166.475 0Z" fill="#1977CC"/>
<path d="M203.893 4.22675C203.237 4.22675 202.705 4.75847 202.705 5.41464V69.1129C202.705 75.8964 200.163 82.3133 195.547 87.1836C190.927 92.0585 184.817 94.7432 178.343 94.7432H172.435C171.778 94.7432 171.246 95.2749 171.246 95.9311C171.246 96.5872 171.778 97.119 172.435 97.119H178.343C185.476 97.119 192.199 94.1707 197.272 88.8173C202.308 83.5046 205.081 76.5062 205.081 69.1129V5.41464C205.082 4.75847 204.55 4.22675 203.893 4.22675Z" fill="#1977CC"/>
<path d="M192.138 35.1785H183.738C183.081 35.1785 182.549 35.7102 182.549 36.3664C182.549 37.0225 183.081 37.5542 183.738 37.5542H192.138C192.794 37.5542 193.326 37.0225 193.326 36.3664C193.326 35.7102 192.794 35.1785 192.138 35.1785Z" fill="#1977CC"/>
<path d="M128.247 35.1785H119.847C119.191 35.1785 118.659 35.7102 118.659 36.3664C118.659 37.0225 119.191 37.5542 119.847 37.5542H128.247C128.903 37.5542 129.435 37.0225 129.435 36.3664C129.435 35.7102 128.903 35.1785 128.247 35.1785Z" fill="#1977CC"/>
</svg>
