<svg width="234" height="148" viewBox="0 0 234 148" fill="none" xmlns="http://www.w3.org/2000/svg">
<path d="M228.409 48.251H106.884V135.346H228.409V48.251Z" fill="#E0F4FC"/>
<path d="M228.409 46.347H106.883C105.829 46.347 104.975 47.1993 104.975 48.251V135.346C104.975 136.398 105.829 137.25 106.883 137.25H228.409C229.462 137.25 230.316 136.398 230.316 135.346V48.251C230.316 47.2002 229.462 46.347 228.409 46.347ZM228.409 135.347H106.883V48.251H228.409V135.347Z" fill="#1977CC"/>
<path d="M232.046 135.347H106.884V145.948H232.046V135.347Z" fill="#E0F4FC"/>
<path d="M232.046 133.443H106.884C105.83 133.443 104.976 134.296 104.976 135.347V145.948C104.976 147 105.83 147.852 106.884 147.852H232.046C233.099 147.852 233.953 147 233.953 145.948V135.347C233.953 134.296 233.098 133.443 232.046 133.443ZM232.046 145.947H106.884V135.346H232.046V145.947Z" fill="#1977CC"/>
<path d="M6.71169 48.251V135.347H106.884V48.251L53.9023 9.74396L6.71169 48.251Z" fill="white"/>
<path d="M108.006 46.7124L55.025 8.20535C54.6898 7.96146 54.2956 7.84088 53.9023 7.84088C53.4736 7.84088 53.0448 7.98504 52.6951 8.27064L5.50357 46.7777C5.06031 47.1394 4.80325 47.6807 4.80325 48.2519V135.347C4.80325 136.399 5.65709 137.251 6.71075 137.251H106.883C107.936 137.251 108.79 136.399 108.79 135.347V48.251C108.791 47.6426 108.499 47.0705 108.006 46.7124ZM106.884 135.347H6.71166V48.251L53.9032 9.74397L106.884 48.251V135.347Z" fill="#1977CC"/>
<path d="M106.884 135.347H1.90746V145.948H106.884V135.347Z" fill="#E0F4FC"/>
<path d="M106.884 133.443H1.9075C0.853833 133.443 0 134.296 0 135.347V145.948C0 147 0.853833 147.852 1.9075 147.852H106.884C107.937 147.852 108.791 147 108.791 145.948V135.347C108.791 134.296 107.937 133.443 106.884 133.443ZM106.884 145.947H1.9075V135.346H106.884V145.947Z" fill="#1977CC"/>
<path d="M228.41 48.251H109.441V63.2772H228.41V48.251Z" fill="#C5EDF9"/>
<path d="M6.71169 48.251V62.6117L53.5063 25.112L106.884 62.9789V48.251L53.9023 9.74396L6.71169 48.251Z" fill="#C5EDF9"/>
<path d="M159.269 62.3823H125.405V110.058H159.269V62.3823Z" fill="#E0F4FC"/>
<path d="M159.268 60.4783H125.404C124.351 60.4783 123.497 61.3306 123.497 62.3823V110.058C123.497 111.109 124.351 111.962 125.404 111.962H159.268C160.322 111.962 161.175 111.109 161.175 110.058V62.3823C161.175 61.3306 160.322 60.4783 159.268 60.4783ZM159.268 110.058H125.404V62.3832H159.268V110.058Z" fill="#1977CC"/>
<path d="M140.261 69.3029H131.618V84.2965H140.261V69.3029Z" fill="#A2DFFF"/>
<path d="M153.055 69.3029H144.412V84.2965H153.055V69.3029Z" fill="#A2DFFF"/>
<path d="M140.261 88.4027H131.618V103.756H140.261V88.4027Z" fill="#A2DFFF"/>
<path d="M153.055 88.4027H144.412V103.756H153.055V88.4027Z" fill="#A2DFFF"/>
<path d="M125.404 115.827H121.926V117.014V120.406V121.595H125.404H155.79H159.268V120.406V117.014V115.827H155.79H125.404Z" fill="#C5EDF9"/>
<path d="M125.404 110.058H121.926V111.246V114.638V115.827H125.404H155.79H159.268V114.638V111.246V110.058H155.79H125.404Z" fill="white"/>
<path d="M159.268 108.155H155.79H125.403H121.925C120.871 108.155 120.017 109.007 120.017 110.059V111.246V114.638V115.826C120.017 116.878 120.871 117.73 121.925 117.73H125.403H155.79H159.268C160.322 117.73 161.176 116.878 161.176 115.826V114.638V111.246V110.059C161.176 109.007 160.322 108.155 159.268 108.155ZM159.268 111.246V114.638V115.826H155.79H125.403H121.925V114.638V111.246V110.059H125.403H155.79H159.268V111.246Z" fill="#1977CC"/>
<path d="M210.213 62.3823H176.349V110.058H210.213V62.3823Z" fill="#E0F4FC"/>
<path d="M210.213 60.4783H176.349C175.296 60.4783 174.442 61.3306 174.442 62.3823V110.058C174.442 111.109 175.296 111.962 176.349 111.962H210.213C211.267 111.962 212.12 111.109 212.12 110.058V62.3823C212.12 61.3306 211.267 60.4783 210.213 60.4783ZM210.213 110.058H176.349V62.3832H210.213V110.058Z" fill="#1977CC"/>
<path d="M203.999 69.3029H195.356V84.2965H203.999V69.3029Z" fill="#A2DFFF"/>
<path d="M191.206 69.3029H182.563V84.2965H191.206V69.3029Z" fill="#A2DFFF"/>
<path d="M203.999 88.4027H195.356V103.756H203.999V88.4027Z" fill="#A2DFFF"/>
<path d="M191.206 88.4027H182.563V103.756H191.206V88.4027Z" fill="#A2DFFF"/>
<path d="M176.347 115.827H172.869V117.014V120.406V121.595H176.347H206.735H210.213V120.406V117.014V115.827H206.735H176.347Z" fill="#C5EDF9"/>
<path d="M176.347 110.058H172.869V111.246V114.638V115.827H176.347H206.735H210.213V114.638V111.246V110.058H206.735H176.347Z" fill="white"/>
<path d="M210.213 108.155H206.735H176.347H172.869C171.816 108.155 170.962 109.007 170.962 110.059V111.246V114.638V115.826C170.962 116.878 171.816 117.73 172.869 117.73H176.347H206.735H210.213C211.267 117.73 212.12 116.878 212.12 115.826V114.638V111.246V110.059C212.12 109.007 211.267 108.155 210.213 108.155ZM210.213 111.246V114.638V115.826H206.735H176.347H172.869V114.638V111.246V110.059H176.347H206.735H210.213V111.246Z" fill="#1977CC"/>
<path d="M72.1507 62.3823H38.2871V110.058H72.1507V62.3823Z" fill="#E0F4FC"/>
<path d="M72.1507 60.4783H38.2871C37.2334 60.4783 36.3796 61.3306 36.3796 62.3823V110.058C36.3796 111.109 37.2334 111.962 38.2871 111.962H72.1507C73.2043 111.962 74.0582 111.109 74.0582 110.058V62.3823C74.0582 61.3306 73.2043 60.4783 72.1507 60.4783ZM72.1507 110.058H38.2871V62.3832H72.1507V110.058Z" fill="#1977CC"/>
<path d="M65.9367 69.3029H57.2939V84.2965H65.9367V69.3029Z" fill="#C5EDF9"/>
<path d="M53.1438 69.3029H44.501V84.2965H53.1438V69.3029Z" fill="#C5EDF9"/>
<path d="M65.9367 88.4027H57.2939V103.756H65.9367V88.4027Z" fill="#C5EDF9"/>
<path d="M53.1438 88.4027H44.501V103.756H53.1438V88.4027Z" fill="#C5EDF9"/>
<path d="M38.2853 115.827H34.8073V117.014V120.406V121.595H38.2853H68.6727H72.1507V120.406V117.014V115.827H68.6727H38.2853Z" fill="#C5EDF9"/>
<path d="M38.2853 110.058H34.8073V111.246V114.638V115.827H38.2853H68.6727H72.1507V114.638V111.246V110.058H68.6727H38.2853Z" fill="white"/>
<path d="M72.1507 108.155H68.6727H38.2853H34.8073C33.7536 108.155 32.8998 109.007 32.8998 110.059V111.246V114.638V115.826C32.8998 116.878 33.7536 117.73 34.8073 117.73H38.2853H68.6727H72.1507C73.2043 117.73 74.0582 116.878 74.0582 115.826V114.638V111.246V110.059C74.0582 109.007 73.2043 108.155 72.1507 108.155ZM72.1507 111.246V114.638V115.826H68.6727H38.2853H34.8073V114.638V111.246V110.059H38.2853H68.6727H72.1507V111.246Z" fill="#1977CC"/>
<path d="M53.5063 1.90308L109.444 42.2217H231.7L175.763 1.90308H53.5063Z" fill="#A2DFFF"/>
<path d="M232.817 40.6776L176.879 0.359955C176.554 0.126035 176.163 0 175.762 0H53.5063C52.6788 0 51.9458 0.532217 51.6915 1.3183C51.4371 2.10438 51.7187 2.9639 52.39 3.44806L108.328 43.7657C108.653 43.9996 109.044 44.1257 109.444 44.1257H231.7C232.528 44.1257 233.261 43.5934 233.515 42.8074C233.77 42.0213 233.488 41.1618 232.817 40.6776ZM109.444 42.2217L53.5063 1.904H175.762L231.7 42.2217H109.444Z" fill="#1977CC"/>
<path d="M231.7 42.2217H109.444V50.0625H231.7V42.2217Z" fill="#E0F4FC"/>
<path d="M231.7 40.3177H109.444C108.391 40.3177 107.537 41.1699 107.537 42.2217V50.0625C107.537 51.1142 108.391 51.9665 109.444 51.9665H231.7C232.754 51.9665 233.608 51.1142 233.608 50.0625V42.2217C233.608 41.1699 232.754 40.3177 231.7 40.3177ZM231.7 50.0616H109.444V42.2207H231.7V50.0616Z" fill="#1977CC"/>
<path d="M2.41078 42.2216V50.0616L53.9024 9.74393L109.444 50.0616V42.2216L53.5063 1.90308L2.41078 42.2216Z" fill="white"/>
<path d="M110.561 40.6776L54.6227 0.359955C54.2884 0.119688 53.8969 0 53.5063 0C53.0876 0 52.6698 0.136909 52.3237 0.410723L1.2281 40.7284C0.770298 41.0893 0.50325 41.6396 0.50325 42.2217V50.0625C0.50325 50.7915 0.92017 51.4561 1.57599 51.7743C1.84122 51.9031 2.12644 51.9665 2.40984 51.9665C2.82858 51.9665 3.2446 51.8287 3.58704 51.5604L53.9451 12.1303L108.322 51.6021C108.654 51.8432 109.047 51.9665 109.443 51.9665C109.739 51.9665 110.036 51.8985 110.309 51.7589C110.948 51.4343 111.351 50.7788 111.351 50.0625V42.2217C111.352 41.6097 111.057 41.0358 110.561 40.6776ZM109.444 50.0616L53.9024 9.74396L2.40984 50.0616V42.2208L53.5054 1.9031L109.443 42.2208V50.0616H109.444Z" fill="#1977CC"/>
<path d="M53.9022 53.3184C58.1954 53.3184 61.6758 49.8445 61.6758 45.5591C61.6758 41.2738 58.1954 37.7999 53.9022 37.7999C49.609 37.7999 46.1287 41.2738 46.1287 45.5591C46.1287 49.8445 49.609 53.3184 53.9022 53.3184Z" fill="#A2DFFF"/>
<path d="M53.9023 35.8958C48.564 35.8958 44.2213 40.2306 44.2213 45.5591C44.2213 50.8876 48.564 55.2223 53.9023 55.2223C59.2406 55.2223 63.5833 50.8876 63.5833 45.5591C63.5833 40.2306 59.2406 35.8958 53.9023 35.8958ZM53.9023 53.3183C49.6095 53.3183 46.1288 49.8449 46.1288 45.5591C46.1288 41.2742 49.6086 37.7998 53.9023 37.7998C58.1951 37.7998 61.6758 41.2733 61.6758 45.5591C61.6758 49.844 58.1951 53.3183 53.9023 53.3183Z" fill="#1977CC"/>
<path d="M53.9022 53.3184C58.1954 53.3184 61.6758 49.8445 61.6758 45.5591C61.6758 41.2738 58.1954 37.7999 53.9022 37.7999C49.609 37.7999 46.1287 41.2738 46.1287 45.5591C46.1287 49.8445 49.609 53.3184 53.9022 53.3184Z" fill="#E0F4FC"/>
<path d="M53.9023 35.8958C48.564 35.8958 44.2213 40.2306 44.2213 45.5591C44.2213 50.8876 48.564 55.2223 53.9023 55.2223C59.2406 55.2223 63.5833 50.8876 63.5833 45.5591C63.5833 40.2306 59.2406 35.8958 53.9023 35.8958ZM53.9023 53.3183C49.6095 53.3183 46.1288 49.8449 46.1288 45.5591C46.1288 41.2742 49.6086 37.7998 53.9023 37.7998C58.1951 37.7998 61.6758 41.2733 61.6758 45.5591C61.6758 49.844 58.1951 53.3183 53.9023 53.3183Z" fill="#1977CC"/>
<path d="M53.9022 48.824C55.7087 48.824 57.1731 47.3623 57.1731 45.5591C57.1731 43.7559 55.7087 42.2942 53.9022 42.2942C52.0957 42.2942 50.6313 43.7559 50.6313 45.5591C50.6313 47.3623 52.0957 48.824 53.9022 48.824Z" fill="#A2DFFF"/>
<path d="M53.9022 40.3902C51.0473 40.3902 48.7238 42.7085 48.7238 45.5591C48.7238 48.4097 51.0464 50.728 53.9022 50.728C56.7571 50.728 59.0806 48.4097 59.0806 45.5591C59.0806 42.7085 56.758 40.3902 53.9022 40.3902ZM53.9022 48.824C52.0956 48.824 50.6313 47.3625 50.6313 45.5591C50.6313 43.7557 52.0956 42.2942 53.9022 42.2942C55.7089 42.2942 57.1731 43.7557 57.1731 45.5591C57.1731 47.3616 55.7089 48.824 53.9022 48.824Z" fill="#1977CC"/>
</svg>
