<svg width="144" height="172" viewBox="0 0 144 172" fill="none" xmlns="http://www.w3.org/2000/svg">
<path d="M21.7362 2.62146C14.305 2.62146 8.28044 8.64602 8.28044 16.0771V37.1348H35.1908V16.0771C35.1908 8.64602 29.1673 2.62146 21.7362 2.62146Z" fill="#6EBDFF"/>
<path d="M21.7362 1.7771C13.8511 1.7771 7.43613 8.19204 7.43613 16.0771V37.1348C7.43613 37.6007 7.81459 37.9791 8.28046 37.9791H35.1909C35.6567 37.9791 36.0352 37.6007 36.0352 37.1348V16.0771C36.0352 8.19204 29.6202 1.7771 21.7362 1.7771ZM34.3465 36.2905H9.12479V16.0771C9.12479 9.12379 14.7818 3.46577 21.7362 3.46577C28.6905 3.46577 34.3475 9.1228 34.3475 16.0771V36.2905H34.3465Z" fill="#1977CC"/>
<path d="M41.0356 84.3807L32.7811 84.7622L33.5608 101.616C33.6661 103.896 35.5991 105.658 37.8788 105.553C40.1585 105.447 41.9207 103.514 41.8154 101.235L41.0356 84.3807Z" fill="white"/>
<path d="M41.8789 84.342C41.8571 83.8761 41.4618 83.5175 40.9969 83.5374L32.7423 83.9188C32.5188 83.9287 32.3082 84.0281 32.1572 84.193C32.0062 84.3579 31.9278 84.5774 31.9377 84.8009L32.7174 101.655C32.779 102.983 33.3532 104.207 34.3356 105.103C35.2594 105.945 36.4405 106.402 37.6821 106.402C37.7606 106.402 37.8391 106.4 37.9175 106.397C39.2456 106.335 40.4694 105.761 41.3654 104.779C42.2614 103.796 42.7203 102.524 42.6587 101.197L41.8789 84.342ZM40.1178 103.641C39.5257 104.289 38.7172 104.67 37.8401 104.709C36.963 104.75 36.1226 104.446 35.4739 103.855C34.8253 103.263 34.4449 102.454 34.4051 101.577L33.6651 85.5678L40.233 85.2638L40.973 101.273C41.0128 102.15 40.7088 102.991 40.1178 103.641Z" fill="#1977CC"/>
<path d="M34.5313 34.2988L30.6752 34.1747L29.3292 40.0264L32.2039 99.8002L43.1336 99.2747L40.2589 39.5009C40.1138 36.4832 37.55 34.1538 34.5313 34.2988Z" fill="#C5EDF9"/>
<path d="M39.04 35.0886C37.8004 33.9622 36.1981 33.383 34.5253 33.4536L30.702 33.3304C30.2371 33.3155 29.8457 33.681 29.8308 34.1469C29.8159 34.6128 30.1815 35.0032 30.6473 35.0181L34.5035 35.1422C34.5263 35.1432 34.5492 35.1432 34.571 35.1412C35.8057 35.0816 36.9888 35.5068 37.9036 36.3372C38.8185 37.1676 39.3549 38.306 39.4145 39.5397L42.2485 98.4702L33.0055 98.9152L30.1715 39.9847C30.1487 39.5189 29.7533 39.1593 29.2875 39.1821C28.8216 39.205 28.462 39.6003 28.4849 40.0662L31.3596 99.84C31.3705 100.063 31.4698 100.274 31.6357 100.424C31.7917 100.565 31.9943 100.644 32.2029 100.644C32.2168 100.644 32.2297 100.644 32.2436 100.643L43.1733 100.117C43.6392 100.094 43.9988 99.6989 43.9759 99.2331L41.1012 39.4593C41.0217 37.7756 40.2897 36.223 39.04 35.0886Z" fill="#1977CC"/>
<path d="M43.4604 166.029L31.9357 157.881L35.5077 106.129C35.0081 104.233 23.697 108.398 23.697 108.398L24.7658 157.639V162.318V169.427H27.1359L27.7726 165.711C28.9766 166.249 30.4934 166.86 32.2397 167.422C35.7462 168.551 36.3104 169.428 43.6322 169.428C45.3547 169.426 44.9563 166.881 43.4604 166.029Z" fill="#A2DFFF"/>
<path d="M43.9162 165.317L32.8098 157.466L36.349 106.186C36.355 106.095 36.3471 106.002 36.3232 105.913C36.2547 105.653 36.0749 105.292 35.61 105.05C34.9316 104.696 33.5141 104.477 28.5285 105.926C25.8813 106.695 23.4288 107.596 23.4049 107.605C23.0662 107.729 22.8447 108.055 22.8527 108.415L23.9205 157.647V169.426C23.9205 169.892 24.2989 170.27 24.7648 170.27H27.1349C27.5461 170.27 27.8978 169.974 27.9673 169.569L28.4232 166.911C29.5904 167.398 30.7834 167.839 31.9804 168.225C32.6588 168.443 33.22 168.65 33.7624 168.851C35.9974 169.675 37.6116 170.271 43.6312 170.271C44.5708 170.271 45.298 169.731 45.5284 168.863C45.8582 167.616 45.137 166.037 43.9162 165.317ZM43.8964 168.429C43.8715 168.52 43.8557 168.582 43.6322 168.582C37.9145 168.582 36.4951 168.058 34.3475 167.265C33.8151 167.069 33.2111 166.846 32.4979 166.617C31.0158 166.14 29.5417 165.576 28.1173 164.938C28.0071 164.889 27.8898 164.864 27.7726 164.864C27.6355 164.864 27.4994 164.897 27.3753 164.964C27.1448 165.087 26.9849 165.308 26.9402 165.566L26.4237 168.581H25.6101V157.637C25.6101 157.631 25.6101 157.625 25.6101 157.619L24.5552 108.986C25.4204 108.68 27.1657 108.08 29.0083 107.544C32.8187 106.438 34.1856 106.427 34.6365 106.494L31.0943 157.822C31.0745 158.116 31.2085 158.399 31.4489 158.57L42.9736 166.717C42.9964 166.733 43.0193 166.748 43.0431 166.762C43.7186 167.148 44.0046 168.02 43.8964 168.429Z" fill="#1977CC"/>
<path d="M38.7569 162.806L31.9357 157.88L35.5077 106.128C35.0081 104.232 34.2899 102.458 33.3929 101.195C31.5086 98.5416 27.4428 95.4653 24.0248 95.4653L23.698 108.396L24.7668 157.638V159.947C24.7668 159.947 33.4188 164.485 37.9275 164.485C39.648 164.485 40.2529 163.659 38.7569 162.806Z" fill="white"/>
<path d="M39.2158 162.097L32.8098 157.471L36.349 106.186C36.355 106.095 36.347 106.001 36.3232 105.913C35.9308 104.427 35.2236 102.316 34.0803 100.706C33.0373 99.2369 31.4569 97.7508 29.7454 96.6294C28.3478 95.7135 26.22 94.6208 24.0228 94.6208C23.5649 94.6208 23.1904 94.9864 23.1785 95.4443L22.8517 108.376C22.8517 108.388 22.8517 108.402 22.8517 108.415L23.9195 157.647V159.947C23.9195 160.26 24.0933 160.548 24.3714 160.694C24.732 160.884 33.2618 165.329 37.9235 165.329C39.2903 165.329 40.1952 164.871 40.4068 164.074C40.52 163.658 40.5091 162.85 39.2158 162.097ZM37.9265 163.641C34.2472 163.641 27.425 160.341 25.6102 159.43V157.638C25.6102 157.632 25.6102 157.626 25.6102 157.62L24.5423 108.398L24.8463 96.3741C27.6981 96.8052 31.0327 99.3303 32.7045 101.684C33.4753 102.769 34.1488 104.333 34.6554 106.211L31.0933 157.824C31.0735 158.115 31.2046 158.396 31.441 158.567L38.2622 163.493C38.287 163.511 38.3119 163.526 38.3387 163.542C38.3784 163.565 38.4142 163.587 38.448 163.607C38.3109 163.626 38.138 163.641 37.9265 163.641Z" fill="#1977CC"/>
<path d="M29.9709 166.029L18.4462 157.881L22.0182 106.129C21.5186 104.233 10.2085 108.398 10.2085 108.398L11.2773 157.639V162.318V169.427H13.6474L14.2841 165.711C15.4881 166.249 17.0049 166.86 18.7512 167.422C22.2576 168.551 22.8218 169.428 30.1437 169.428C31.8651 169.426 31.4678 166.881 29.9709 166.029Z" fill="#A2DFFF"/>
<path d="M30.4278 165.317L19.3223 157.466L22.8616 106.186C22.8675 106.094 22.8596 106.002 22.8357 105.913C22.7672 105.653 22.5874 105.292 22.1225 105.05C21.4441 104.697 20.0266 104.477 15.0411 105.926C12.3938 106.695 9.9413 107.596 9.91746 107.605C9.57873 107.729 9.35724 108.055 9.36518 108.415L10.433 157.647V169.426C10.433 169.892 10.8115 170.27 11.2773 170.27H13.6474C14.0587 170.27 14.4103 169.974 14.4798 169.569L14.9358 166.911C16.1029 167.399 17.2959 167.84 18.4929 168.225C19.1713 168.444 19.7326 168.65 20.2749 168.851C22.5099 169.675 24.1241 170.271 30.1437 170.271C31.0834 170.271 31.8105 169.731 32.041 168.863C32.3698 167.616 31.6476 166.037 30.4278 165.317ZM30.4079 168.429C30.3831 168.52 30.3672 168.582 30.1437 168.582C24.4261 168.582 23.0066 168.058 20.859 167.265C20.3266 167.069 19.7226 166.846 19.0094 166.617C17.5274 166.14 16.0533 165.576 14.6288 164.938C14.5186 164.889 14.4014 164.865 14.2842 164.865C14.1471 164.865 14.011 164.897 13.8868 164.964C13.6564 165.087 13.4964 165.309 13.4517 165.566L12.9352 168.581H12.1217V157.637C12.1217 157.631 12.1217 157.625 12.1217 157.619L11.0667 108.986C11.9319 108.68 13.6772 108.08 15.5199 107.544C19.3303 106.438 20.6971 106.427 21.1481 106.494L17.6059 157.822C17.586 158.116 17.7201 158.399 17.9605 158.57L29.4851 166.717C29.5079 166.733 29.5308 166.748 29.5547 166.762C30.2301 167.148 30.5152 168.02 30.4079 168.429Z" fill="#1977CC"/>
<path d="M25.2674 162.806L18.4462 157.88L22.0182 106.128C21.5185 104.232 20.8004 102.458 19.9034 101.195C18.019 98.5416 13.9534 95.4653 10.5353 95.4653L10.2085 108.396L11.2773 157.638V159.947C11.2773 159.947 19.9292 164.485 24.438 164.485C26.1594 164.485 26.7643 163.659 25.2674 162.806Z" fill="white"/>
<path d="M25.7274 162.097L19.3214 157.471L22.8616 106.186C22.8676 106.094 22.8596 106.001 22.8358 105.913C22.4434 104.427 21.7362 102.316 20.5928 100.706C19.5498 99.2369 17.9694 97.7508 16.2579 96.6294C14.8603 95.7135 12.7326 94.6208 10.5353 94.6208C10.0774 94.6208 9.7029 94.9864 9.69098 95.4443L9.36417 108.376C9.36417 108.388 9.36417 108.402 9.36417 108.415L10.432 157.647V159.947C10.432 160.26 10.6058 160.548 10.884 160.694C11.2446 160.884 19.7743 165.329 24.4361 165.329C25.8029 165.329 26.7078 164.871 26.9194 164.074C27.0307 163.658 27.0197 162.85 25.7274 162.097ZM24.4371 163.641C20.7577 163.641 13.9355 160.341 12.1207 159.43V157.638C12.1207 157.632 12.1207 157.626 12.1207 157.62L11.0528 108.398L11.3568 96.3741C14.2087 96.8052 17.5433 99.3303 19.2151 101.684C19.9859 102.769 20.6594 104.333 21.166 106.211L17.6039 157.824C17.584 158.115 17.7151 158.396 17.9516 158.567L24.7728 163.493C24.7976 163.511 24.8225 163.526 24.8493 163.542C24.889 163.565 24.9248 163.587 24.9586 163.607C24.8225 163.626 24.6496 163.641 24.4371 163.641Z" fill="#1977CC"/>
<path d="M12.9134 34.1746C9.31352 34.1746 6.39609 37.093 6.39609 40.6919V87.1173H37.1934V40.6919L30.6762 34.1746H12.9134Z" fill="#C5EDF9"/>
<path d="M37.1924 39.8476C36.7265 39.8476 36.3481 40.226 36.3481 40.6919V86.273H7.23944V40.6919C7.23944 37.5639 9.78437 35.019 12.9124 35.019H30.6742C31.14 35.019 31.5185 34.6405 31.5185 34.1747C31.5185 33.7088 31.14 33.3303 30.6742 33.3303H12.9134C8.85362 33.3303 5.55177 36.6332 5.55177 40.6919V87.1173C5.55177 87.5832 5.93023 87.9616 6.39611 87.9616H37.1934C37.6593 87.9616 38.0377 87.5832 38.0377 87.1173V40.6919C38.0367 40.226 37.6593 39.8476 37.1924 39.8476Z" fill="#1977CC"/>
<path d="M25.7035 27.2173H17.7062V34.1747H25.7035V27.2173Z" fill="white"/>
<path d="M25.7035 26.373H17.7062C17.2404 26.373 16.8619 26.7515 16.8619 27.2174V34.1747C16.8619 34.6406 17.2404 35.019 17.7062 35.019H25.7035C26.1694 35.019 26.5479 34.6406 26.5479 34.1747V27.2174C26.5479 26.7505 26.1704 26.373 25.7035 26.373ZM24.8592 33.3303H18.5506V28.0617H24.8592V33.3303Z" fill="#1977CC"/>
<path d="M25.9936 16.1606C25.8138 15.6122 25.2237 15.3123 24.6744 15.492C24.1261 15.6718 23.8261 16.2619 24.0059 16.8112L26.1426 23.3384C26.233 23.6155 26.1555 23.8718 26.0909 23.9761H24.9992C24.4221 23.9761 23.9533 24.444 23.9533 25.0221C23.9533 25.6002 24.4211 26.0681 24.9992 26.0681H26.1962C26.8071 26.0681 27.3813 25.7602 27.7707 25.2228C28.2763 24.5254 28.4133 23.555 28.1302 22.6888L25.9936 16.1606Z" fill="#6EBDFF"/>
<path d="M22.6262 16.6523H21.9338C21.3567 16.6523 20.8879 17.1201 20.8879 17.6983C20.8879 18.2764 21.3557 18.7442 21.9338 18.7442H22.6262C23.2033 18.7442 23.6722 18.2764 23.6722 17.6983C23.6722 17.1201 23.2033 16.6523 22.6262 16.6523Z" fill="#6EBDFF"/>
<path d="M28.7015 16.6523H28.0091C27.432 16.6523 26.9631 17.1201 26.9631 17.6983C26.9631 18.2764 27.431 18.7442 28.0091 18.7442H28.7015C29.2786 18.7442 29.7475 18.2764 29.7475 17.6983C29.7475 17.1201 29.2786 16.6523 28.7015 16.6523Z" fill="#6EBDFF"/>
<path d="M26.4932 27.5968H23.2361C22.659 27.5968 22.1901 28.0646 22.1901 28.6428C22.1901 29.2209 22.658 29.6888 23.2361 29.6888H26.4932C27.0703 29.6888 27.5392 29.2209 27.5392 28.6428C27.5392 28.0646 27.0713 27.5968 26.4932 27.5968Z" fill="#6EBDFF"/>
<path d="M13.5322 22.2189C13.5322 26.9333 17.3536 30.7546 22.0679 30.7546C26.7823 30.7546 30.6036 26.9333 30.6036 22.2189V14.2584L13.5322 16.7159V22.2189Z" fill="white"/>
<path d="M30.6037 13.414C30.1378 13.414 29.7593 13.7925 29.7593 14.2583V22.2189C29.7593 26.4604 26.3085 29.9103 22.068 29.9103C17.8274 29.9103 14.3766 26.4594 14.3766 22.2189V16.7158C14.3766 16.25 13.9981 15.8715 13.5322 15.8715C13.0664 15.8715 12.6879 16.25 12.6879 16.7158V22.2189C12.6879 27.3912 16.8957 31.5989 22.068 31.5989C27.2402 31.5989 31.448 27.3912 31.448 22.2189V14.2583C31.448 13.7915 31.0705 13.414 30.6037 13.414Z" fill="#1977CC"/>
<path d="M23.6771 10.9773L22.4007 12.9819L18.2088 15.7165L13.5322 16.7148L30.6036 14.2583L25.4234 12.3839L23.6771 10.9773Z" fill="white"/>
<path d="M13.8809 16.7148C18.4175 16.7148 22.2825 13.853 23.7745 9.83597L12.4128 16.6105C12.8935 16.6781 13.3833 16.7148 13.8809 16.7148Z" fill="#6EBDFF"/>
<path d="M24.0695 9.04431C23.6324 8.88141 23.1467 9.10491 22.9838 9.54198C21.5772 13.3276 17.9198 15.8705 13.8809 15.8705C13.4408 15.8705 12.9869 15.8387 12.529 15.7751C12.0671 15.7106 11.6409 16.0334 11.5764 16.4953C11.5118 16.9572 11.8346 17.3834 12.2965 17.4479C12.8309 17.5224 13.3634 17.5602 13.8809 17.5602C16.253 17.5602 18.5277 16.838 20.4577 15.4722C22.3441 14.1371 23.7645 12.2895 24.5671 10.131C24.7291 9.69297 24.5065 9.20722 24.0695 9.04431Z" fill="#1977CC"/>
<path d="M31.3328 14.2206L22.7186 7.54044C23.7308 11.4969 27.3128 14.2265 31.3328 14.2206Z" fill="#6EBDFF"/>
<path d="M31.3328 13.3762C31.3278 13.3762 31.3238 13.3762 31.3189 13.3762C27.6475 13.3762 24.449 10.8919 23.5371 7.33085C23.4219 6.87889 22.9619 6.60673 22.51 6.72196C22.058 6.83718 21.7858 7.29709 21.9011 7.74905C23.0037 12.0581 26.8757 15.0639 31.3189 15.0639C31.3238 15.0639 31.3288 15.0639 31.3347 15.0639C31.8006 15.0629 32.1781 14.6844 32.1781 14.2186C32.1761 13.7537 31.7986 13.3762 31.3328 13.3762Z" fill="#1977CC"/>
<path d="M12.2856 20.9544C12.2856 21.9686 13.1071 22.7901 14.1213 22.7901H14.6845V19.1188H14.1213C13.1081 19.1188 12.2856 19.9402 12.2856 20.9544Z" fill="white"/>
<path d="M14.1213 19.9631H14.6845C15.1504 19.9631 15.5288 19.5846 15.5288 19.1187C15.5288 18.6529 15.1504 18.2744 14.6845 18.2744H14.1213C12.6432 18.2744 11.4413 19.4763 11.4413 20.9544C11.4413 22.4325 12.6432 23.6344 14.1213 23.6344H14.6845C15.1504 23.6344 15.5288 23.2559 15.5288 22.7901C15.5288 22.3242 15.1504 21.9457 14.6845 21.9457H14.1213C13.5749 21.9457 13.1299 21.5007 13.1299 20.9544C13.1299 20.4081 13.5749 19.9631 14.1213 19.9631Z" fill="#1977CC"/>
<path d="M25.0171 17.6029C24.8632 17.1341 24.3586 16.8778 23.8897 17.0317C23.4209 17.1857 23.1646 17.6903 23.3185 18.1592L24.7569 22.5517C24.7787 22.6183 24.7777 22.6819 24.7698 22.7315H24.1678C23.6742 22.7315 23.2739 23.1318 23.2739 23.6255C23.2739 24.1192 23.6742 24.5195 24.1678 24.5195H24.9734C25.4462 24.5195 25.8883 24.2831 26.1873 23.8719C26.5627 23.3543 26.665 22.6352 26.4564 21.9955L25.0171 17.6029Z" fill="#6EBDFF"/>
<path d="M21.4292 16.8043H20.7369C20.2432 16.8043 19.8429 17.2046 19.8429 17.6983C19.8429 18.1919 20.2432 18.5923 20.7369 18.5923H21.4292C21.9229 18.5923 22.3232 18.1919 22.3232 17.6983C22.3232 17.2046 21.9229 16.8043 21.4292 16.8043Z" fill="#6EBDFF"/>
<path d="M27.5044 16.8043H26.8121C26.3184 16.8043 25.9181 17.2046 25.9181 17.6983C25.9181 18.1919 26.3184 18.5923 26.8121 18.5923H27.5044C27.9981 18.5923 28.3984 18.1919 28.3984 17.6983C28.3984 17.2046 27.9981 16.8043 27.5044 16.8043Z" fill="#6EBDFF"/>
<path d="M24.2145 25.63C23.8728 25.7551 23.4775 25.8217 23.0732 25.8217C22.5328 25.8217 22.0163 25.7035 21.6179 25.4899C21.1829 25.2565 20.6405 25.4204 20.4071 25.8555C20.1737 26.2905 20.3375 26.8329 20.7726 27.0663C21.4362 27.4219 22.2318 27.6107 23.0732 27.6107C23.6851 27.6107 24.292 27.5064 24.8294 27.3097C25.2933 27.1398 25.5317 26.6263 25.3618 26.1624C25.192 25.6985 24.6784 25.4601 24.2145 25.63Z" fill="#6EBDFF"/>
<path d="M7.67163 130.687H36.2816L37.1925 87.1173H6.39618L7.67163 130.687Z" fill="#6EBDFF"/>
<path d="M37.1924 86.273H6.39517C6.1667 86.273 5.94818 86.3654 5.78925 86.5293C5.63032 86.6932 5.54388 86.9137 5.55083 87.1421L6.82727 130.712C6.84019 131.169 7.21467 131.531 7.6716 131.531H36.2805C36.7394 131.531 37.1149 131.164 37.1248 130.705L38.0367 87.1352C38.0417 86.9087 37.9543 86.6892 37.7953 86.5273C37.6374 86.3644 37.4198 86.273 37.1924 86.273ZM35.4541 129.843H8.4921L7.26532 87.9616H36.3302L35.4541 129.843Z" fill="#1977CC"/>
<path d="M2.16348 101.235C2.05819 103.514 3.82035 105.447 6.10005 105.553C8.37975 105.658 10.3128 103.896 10.4181 101.616L11.1978 84.7621L2.94323 84.3807L2.16348 101.235Z" fill="white"/>
<path d="M11.2366 83.9198L2.98204 83.5383C2.51715 83.5155 2.1208 83.8771 2.09994 84.3429L1.32019 101.197C1.2586 102.525 1.71852 103.796 2.61351 104.779C3.50851 105.761 4.73329 106.335 6.06138 106.397C6.13985 106.401 6.21831 106.402 6.29679 106.402C7.53846 106.402 8.71953 105.946 9.64333 105.103C10.6257 104.208 11.2009 102.983 11.2615 101.655L12.0413 84.8009C12.0512 84.5774 11.9727 84.3588 11.8217 84.1929C11.6707 84.027 11.4601 83.9297 11.2366 83.9198ZM9.5748 101.577C9.53407 102.454 9.15461 103.263 8.50597 103.855C7.85732 104.447 7.01697 104.75 6.13886 104.709C5.26175 104.669 4.45315 104.289 3.86112 103.64C3.26909 102.992 2.96614 102.151 3.00687 101.274L3.7469 85.2647L10.3148 85.5687L9.5748 101.577Z" fill="#1977CC"/>
<path d="M9.44765 34.2988C6.4289 34.1538 3.86511 36.4832 3.72009 39.5009L0.845383 99.2747L11.775 99.8002L14.6497 40.0264L13.3038 34.1747L9.44765 34.2988Z" fill="#C5EDF9"/>
<path d="M14.6904 39.1831C14.2245 39.1602 13.8292 39.5198 13.8063 39.9857L10.9724 98.9162L1.72942 98.4712L4.5634 39.5407C4.623 38.306 5.15939 37.1686 6.07425 36.3382C6.98911 35.5068 8.17217 35.0826 9.40688 35.1422C9.42973 35.1432 9.45257 35.1432 9.47442 35.1432L13.3305 35.019C13.7964 35.0041 14.162 34.6138 14.1471 34.1479C14.1322 33.682 13.7438 33.3184 13.2759 33.3314L9.45257 33.4545C7.78079 33.384 6.17855 33.9631 4.93788 35.0896C3.68927 36.224 2.95718 37.7765 2.87573 39.4612L0.00103117 99.2351C-0.0218154 99.7009 0.337754 100.096 0.803626 100.119L11.7333 100.645C11.7472 100.646 11.7601 100.646 11.774 100.646C11.9836 100.646 12.1862 100.568 12.3412 100.426C12.5071 100.275 12.6064 100.065 12.6173 99.842L15.492 40.0682C15.5159 39.6013 15.1563 39.2059 14.6904 39.1831Z" fill="#1977CC"/>
<path d="M101.919 99.3542C101.814 101.634 103.576 103.567 105.856 103.672C108.135 103.778 110.068 102.015 110.174 99.7356L110.953 82.8817L102.699 82.5003L101.919 99.3542Z" fill="white"/>
<path d="M110.992 82.0384L102.738 81.657C102.514 81.646 102.296 81.7255 102.13 81.8765C101.964 82.0275 101.865 82.2381 101.856 82.4616L101.076 99.3154C100.949 102.056 103.075 104.389 105.817 104.517C105.894 104.521 105.972 104.522 106.049 104.522C108.689 104.522 110.894 102.438 111.017 99.7754L111.797 82.9215C111.819 82.4556 111.458 82.0603 110.992 82.0384ZM109.33 99.6969C109.247 101.508 107.707 102.915 105.894 102.829C104.084 102.745 102.679 101.204 102.762 99.3929L103.502 83.3834L110.07 83.6873L109.33 99.6969Z" fill="#1977CC"/>
<path d="M109.203 30.8817C106.184 30.7367 103.621 33.0661 103.476 36.0838L100.601 97.3944L111.531 97.9198L114.405 36.6093L113.059 30.7576L109.203 30.8817Z" fill="white"/>
<path d="M114.445 35.7659C113.981 35.7431 113.584 36.1037 113.562 36.5695L110.727 97.0346L101.484 96.5906L104.319 36.1235C104.378 34.8888 104.915 33.7514 105.83 32.921C106.745 32.0906 107.927 31.6654 109.162 31.725C109.185 31.726 109.208 31.726 109.23 31.726L113.086 31.6019C113.552 31.587 113.917 31.1966 113.902 30.7307C113.888 30.2738 113.513 29.9132 113.059 29.9132C113.05 29.9132 113.04 29.9132 113.031 29.9132L109.208 30.0364C107.534 29.9659 105.934 30.545 104.693 31.6714C103.445 32.8058 102.713 34.3584 102.631 36.044L99.7565 97.3545C99.7347 97.8204 100.094 98.2147 100.559 98.2376L111.489 98.763C111.503 98.764 111.516 98.764 111.529 98.764C111.739 98.764 111.942 98.6855 112.098 98.5445C112.264 98.3935 112.363 98.1829 112.373 97.9594L115.247 36.649C115.27 36.1831 114.91 35.7878 114.445 35.7659Z" fill="#1977CC"/>
<path d="M93.12 166.62C91.7701 167.389 92.3154 169.449 93.869 169.449H114.36C115.587 169.449 116.584 168.453 116.584 167.225V161.618H106.91L93.12 166.62Z" fill="#A2DFFF"/>
<path d="M116.584 160.774H106.91C106.811 160.774 106.714 160.791 106.621 160.824L92.832 165.826C92.7873 165.842 92.7436 165.863 92.7019 165.886C91.7582 166.423 91.3112 167.489 91.5893 168.538C91.8675 169.587 92.7833 170.292 93.869 170.292H114.36C116.051 170.292 117.428 168.915 117.428 167.224V161.617C117.428 161.151 117.049 160.774 116.584 160.774ZM115.739 167.225C115.739 167.986 115.12 168.604 114.36 168.604H93.869C93.3912 168.604 93.2532 168.223 93.2224 168.107C93.1926 167.994 93.129 167.624 93.4876 167.386L107.059 162.464H115.739V167.225Z" fill="#1977CC"/>
<path d="M127.95 161.618H137.992V85.2369H123.068L127.95 161.618Z" fill="#C5EDF9"/>
<path d="M137.992 84.3926H123.069C122.836 84.3926 122.613 84.4889 122.453 84.6588C122.293 84.8286 122.212 85.0571 122.227 85.2906L127.108 161.672C127.137 162.116 127.505 162.463 127.95 162.463H137.992C138.458 162.463 138.836 162.084 138.836 161.618V85.2369C138.836 84.771 138.458 84.3926 137.992 84.3926ZM137.148 160.774H128.742L123.968 86.0812H137.147V160.774H137.148Z" fill="#1977CC"/>
<path d="M106.542 161.618H116.584L121.465 85.2369H106.542V161.618Z" fill="#C5EDF9"/>
<path d="M121.465 84.3926H106.542C106.076 84.3926 105.698 84.771 105.698 85.2369V161.618C105.698 162.084 106.076 162.463 106.542 162.463H116.584C117.029 162.463 117.398 162.117 117.426 161.672L122.307 85.2906C122.322 85.0581 122.24 84.8286 122.081 84.6588C121.921 84.4889 121.698 84.3926 121.465 84.3926ZM115.791 160.774H107.385V86.0812H120.564L115.791 160.774Z" fill="#1977CC"/>
<path d="M117.078 93.8571H123.667L127.95 161.618H137.992V85.2369H106.542L117.078 93.8571Z" fill="#C5EDF9"/>
<path d="M137.992 84.3926H106.542C106.076 84.3926 105.698 84.771 105.698 85.2369C105.698 85.7028 106.076 86.0812 106.542 86.0812H137.148V160.774H128.743L124.509 93.8034C124.482 93.3584 124.112 93.0127 123.667 93.0127H117.079C116.613 93.0127 116.235 93.3912 116.235 93.8571C116.235 94.3229 116.613 94.7014 117.079 94.7014H122.874L127.108 161.672C127.136 162.117 127.505 162.463 127.95 162.463H137.992C138.458 162.463 138.836 162.084 138.836 161.618V85.2369C138.836 84.771 138.458 84.3926 137.992 84.3926Z" fill="#1977CC"/>
<path d="M114.528 166.62C113.178 167.389 113.724 169.449 115.277 169.449H135.768C136.996 169.449 137.992 168.453 137.992 167.225V161.618H128.318L114.528 166.62Z" fill="#A2DFFF"/>
<path d="M137.992 160.774H128.318C128.219 160.774 128.122 160.791 128.03 160.824L114.24 165.826C114.196 165.842 114.152 165.863 114.11 165.886C113.167 166.423 112.72 167.489 112.998 168.538C113.276 169.587 114.192 170.292 115.277 170.292H135.768C137.459 170.292 138.836 168.915 138.836 167.224V161.617C138.836 161.151 138.458 160.774 137.992 160.774ZM137.148 167.225C137.148 167.986 136.529 168.604 135.768 168.604H115.277C114.8 168.604 114.661 168.223 114.631 168.107C114.601 167.995 114.537 167.624 114.896 167.386L128.467 162.464H137.148V167.225Z" fill="#1977CC"/>
<path d="M124.355 23.7993H116.358V30.7566H124.355V23.7993Z" fill="white"/>
<path d="M124.355 22.955H116.358C115.892 22.955 115.514 23.3334 115.514 23.7993V30.7566C115.514 31.2225 115.892 31.6009 116.358 31.6009H124.355C124.821 31.6009 125.2 31.2225 125.2 30.7566V23.7993C125.2 23.3334 124.821 22.955 124.355 22.955ZM123.511 29.9133H117.202V24.6446H123.511V29.9133Z" fill="#1977CC"/>
<path d="M120.179 0.845337C120.204 0.845337 120.228 0.846329 120.252 0.846329C120.287 0.846329 120.321 0.845337 120.357 0.845337H120.179Z" fill="#6EBDFF"/>
<path d="M120.583 0.852298C120.474 0.848324 120.362 0.847337 120.252 0.846344C113.851 0.898991 111.362 5.68387 111.362 12.1276L112.547 22.8089H127.665C128.85 22.8089 129.884 22.0033 130.173 20.8541L131.417 15.9182C133.978 8.75824 128.183 1.10858 120.583 0.852298Z" fill="#6EBDFF"/>
<path d="M120.611 0.00795508C120.547 0.00596841 120.483 0.00398902 120.419 0.00299569C120.398 0.00100902 120.377 0.00100708 120.356 0.00100708H120.178C120.159 0.00100708 120.139 0.00200235 120.12 0.00299569C116.877 0.0586223 114.395 1.25658 112.742 3.56509C111.265 5.62824 110.517 8.50989 110.517 12.1276C110.517 12.1584 110.519 12.1902 110.522 12.221L111.707 22.9023C111.755 23.3304 112.117 23.6533 112.547 23.6533H127.665C129.24 23.6533 130.607 22.5874 130.992 21.0607L132.226 16.1635C133.456 12.6829 132.921 8.85954 130.752 5.66896C128.438 2.26083 124.646 0.144042 120.611 0.00795508ZM130.622 15.6341C130.613 15.6599 130.605 15.6857 130.599 15.7125L129.355 20.6484C129.159 21.4232 128.465 21.9646 127.665 21.9646H113.303L112.206 12.0819C112.212 8.84564 112.855 6.31066 114.116 4.54849C115.459 2.67208 117.527 1.71153 120.266 1.69067C120.362 1.69166 120.459 1.69364 120.554 1.69662C124.052 1.81483 127.342 3.65449 129.357 6.61859C131.226 9.36913 131.687 12.6561 130.622 15.6341Z" fill="#1977CC"/>
<path d="M117.909 13.3345C118.089 12.7862 117.79 12.1952 117.24 12.0154C116.691 11.8356 116.101 12.1346 115.921 12.6839L113.784 19.2111C113.501 20.0773 113.638 21.0478 114.144 21.7451C114.533 22.2825 115.108 22.5904 115.718 22.5904H116.915C117.493 22.5904 117.961 22.1226 117.961 21.5444C117.961 20.9663 117.494 20.4985 116.915 20.4985H115.824C115.758 20.3932 115.681 20.1379 115.772 19.8607L117.909 13.3345Z" fill="#6EBDFF"/>
<path d="M119.981 13.1765H119.288C118.711 13.1765 118.242 13.6444 118.242 14.2225C118.242 14.8006 118.71 15.2685 119.288 15.2685H119.981C120.558 15.2685 121.027 14.8006 121.027 14.2225C121.027 13.6444 120.558 13.1765 119.981 13.1765Z" fill="#6EBDFF"/>
<path d="M113.906 13.1765H113.213C112.636 13.1765 112.167 13.6444 112.167 14.2225C112.167 14.8006 112.635 15.2685 113.213 15.2685H113.906C114.483 15.2685 114.952 14.8006 114.952 14.2225C114.952 13.6444 114.484 13.1765 113.906 13.1765Z" fill="#6EBDFF"/>
<path d="M120.172 11.9637H116.914C116.337 11.9637 115.868 12.4316 115.868 13.0097C115.868 13.5878 116.336 14.0557 116.914 14.0557H120.172C120.749 14.0557 121.218 13.5878 121.218 13.0097C121.218 12.4316 120.75 11.9637 120.172 11.9637Z" fill="#6EBDFF"/>
<path d="M116.501 6.72382C113.634 6.72382 111.311 7.91483 111.311 10.7816V18.7422C111.311 23.4565 115.132 27.2779 119.847 27.2779C124.561 27.2779 128.383 23.4565 128.383 18.7422V13.2391L127.827 6.72382H116.501Z" fill="white"/>
<path d="M128.383 12.3948C127.918 12.3948 127.539 12.7732 127.539 13.2391V18.7422C127.539 22.9837 124.088 26.4336 119.848 26.4336C115.607 26.4336 112.156 22.9827 112.156 18.7422V10.7816C112.156 7.98534 114.879 7.56813 116.502 7.56813H127.829C128.295 7.56813 128.673 7.18967 128.673 6.72379C128.673 6.25792 128.295 5.87946 127.829 5.87946H116.502C114.82 5.87946 113.384 6.26189 112.349 6.98603C111.118 7.84527 110.468 9.15847 110.468 10.7816V18.7422C110.468 23.9145 114.675 28.1222 119.848 28.1222C125.02 28.1222 129.228 23.9145 129.228 18.7422V13.2391C129.228 12.7732 128.849 12.3948 128.383 12.3948Z" fill="#1977CC"/>
<path d="M127.247 15.643H126.684V19.3144H127.247C128.261 19.3144 129.083 18.4929 129.083 17.4787C129.082 16.4645 128.26 15.643 127.247 15.643Z" fill="white"/>
<path d="M127.247 14.7987H126.684C126.218 14.7987 125.84 15.1772 125.84 15.643C125.84 16.1089 126.218 16.4874 126.684 16.4874H127.247C127.793 16.4874 128.238 16.9324 128.238 17.4787C128.238 18.025 127.793 18.4701 127.247 18.4701H126.684C126.218 18.4701 125.84 18.8485 125.84 19.3144C125.84 19.7803 126.218 20.1587 126.684 20.1587H127.247C128.725 20.1587 129.927 18.9568 129.927 17.4787C129.927 16.0006 128.724 14.7987 127.247 14.7987Z" fill="#1977CC"/>
<path d="M118.597 14.6835C118.751 14.2147 118.495 13.7091 118.026 13.5561C117.557 13.4022 117.051 13.6584 116.898 14.1273L115.46 18.5198C115.251 19.1595 115.354 19.8786 115.729 20.3962C116.027 20.8074 116.47 21.0438 116.943 21.0438H117.749C118.242 21.0438 118.643 20.6435 118.643 20.1498C118.643 19.6561 118.242 19.2558 117.749 19.2558H117.148C117.14 19.2062 117.139 19.1426 117.161 19.076L118.597 14.6835Z" fill="#6EBDFF"/>
<path d="M121.178 13.3286H120.485C119.992 13.3286 119.592 13.7289 119.592 14.2226C119.592 14.7162 119.992 15.1166 120.485 15.1166H121.178C121.671 15.1166 122.072 14.7162 122.072 14.2226C122.072 13.7289 121.671 13.3286 121.178 13.3286Z" fill="#6EBDFF"/>
<path d="M115.103 13.3286H114.41C113.917 13.3286 113.516 13.7289 113.516 14.2226C113.516 14.7162 113.917 15.1166 114.41 15.1166H115.103C115.596 15.1166 115.997 14.7162 115.997 14.2226C115.997 13.7289 115.596 13.3286 115.103 13.3286Z" fill="#6EBDFF"/>
<path d="M120.092 21.9328C119.694 22.1463 119.176 22.2646 118.637 22.2646C118.232 22.2646 117.838 22.198 117.495 22.0728C117.031 21.903 116.518 22.1414 116.348 22.6053C116.178 23.0692 116.417 23.5827 116.88 23.7526C117.417 23.9493 118.025 24.0536 118.637 24.0536C119.478 24.0536 120.274 23.8658 120.937 23.5092C121.372 23.2758 121.536 22.7344 121.303 22.2983C121.069 21.8632 120.527 21.6993 120.092 21.9328Z" fill="#6EBDFF"/>
<path d="M121.133 0.845337H110.984C110.984 0.845337 110.205 9.5817 118.67 9.5817H122.701C124.087 9.5817 125.452 9.99791 126.565 10.8254C127.57 11.5723 128.462 11.5763 128.383 13.2402L131.292 9.70885C130.38 5.32726 125.347 0.845337 121.133 0.845337Z" fill="#6EBDFF"/>
<path d="M128.008 2.99887C125.839 1.09365 123.333 0 121.133 0H110.984C110.547 0 110.182 0.33376 110.143 0.769833C110.127 0.94764 109.785 5.14745 112.374 7.97646C113.86 9.60056 115.978 10.425 118.67 10.425H122.701C123.933 10.425 125.126 10.8075 126.061 11.5018C126.332 11.7035 126.586 11.8525 126.81 11.9836C127.444 12.3551 127.576 12.4326 127.539 13.1994C127.517 13.6653 127.877 14.0606 128.343 14.0825C128.357 14.0835 128.37 14.0835 128.384 14.0835C128.831 14.0835 129.205 13.7308 129.226 13.2789C129.31 11.4929 128.397 10.9575 127.663 10.5273C127.468 10.4121 127.264 10.2929 127.067 10.1469C125.844 9.238 124.293 8.73735 122.7 8.73735H118.669C116.475 8.73735 114.779 8.10064 113.626 6.84606C112.127 5.21302 111.85 2.88365 111.815 1.69065H121.132C124.911 1.69065 129.62 5.82391 130.464 9.88168C130.559 10.3386 131.006 10.6316 131.462 10.5363C131.919 10.4409 132.212 9.99393 132.116 9.53799C131.645 7.26027 130.147 4.87825 128.008 2.99887Z" fill="#1977CC"/>
<path d="M130.821 30.7576H113.059L106.542 37.2748V85.2369H137.339V37.2748C137.338 33.675 134.421 30.7576 130.821 30.7576Z" fill="white"/>
<path d="M130.821 29.9132H113.059C112.593 29.9132 112.215 30.2917 112.215 30.7575C112.215 31.2234 112.593 31.6019 113.059 31.6019H130.821C133.949 31.6019 136.494 34.1468 136.494 37.2748V84.3926H107.385V37.2748C107.385 36.8089 107.007 36.4305 106.541 36.4305C106.075 36.4305 105.697 36.8089 105.697 37.2748V85.2369C105.697 85.7028 106.075 86.0812 106.541 86.0812H137.338C137.804 86.0812 138.183 85.7028 138.183 85.2369V37.2748C138.183 33.216 134.881 29.9132 130.821 29.9132Z" fill="#1977CC"/>
<path d="M140.791 82.5003L132.537 82.8817L133.316 99.7356C133.422 102.015 135.355 103.778 137.634 103.672C139.914 103.567 141.676 101.634 141.571 99.3542L140.791 82.5003Z" fill="white"/>
<path d="M141.634 82.4616C141.625 82.2381 141.525 82.0275 141.36 81.8765C141.194 81.7255 140.976 81.646 140.752 81.657L132.498 82.0384C132.032 82.0603 131.671 82.4546 131.693 82.9205L132.473 99.7743C132.596 102.437 134.801 104.52 137.441 104.52C137.518 104.52 137.596 104.518 137.673 104.515C139.001 104.454 140.225 103.879 141.121 102.897C142.017 101.916 142.476 100.642 142.414 99.3153L141.634 82.4616ZM139.872 101.759C139.28 102.408 138.472 102.788 137.595 102.828C135.784 102.913 134.242 101.507 134.159 99.6958L133.419 83.6853L139.987 83.3814L140.727 99.3908C140.767 100.27 140.464 101.11 139.872 101.759Z" fill="#1977CC"/>
<path d="M134.287 30.8817L130.431 30.7576L129.085 36.6093L131.959 97.9198L142.889 97.3944L140.014 36.0838C139.869 33.0661 137.305 30.7367 134.287 30.8817Z" fill="white"/>
<path d="M138.796 31.6714C137.555 30.545 135.955 29.9659 134.281 30.0364L130.458 29.9132C129.995 29.9003 129.601 30.2639 129.586 30.7298C129.572 31.1956 129.937 31.586 130.403 31.6009L134.259 31.7251C134.282 31.7261 134.304 31.7261 134.327 31.7241C135.562 31.6645 136.744 32.0896 137.659 32.9201C138.574 33.7515 139.111 34.8888 139.17 36.1216L142.005 96.5897L132.762 97.0337L129.927 36.5686C129.905 36.1027 129.513 35.7421 129.044 35.7649C128.578 35.7868 128.219 36.1821 128.24 36.648L131.115 97.9585C131.126 98.182 131.224 98.3926 131.39 98.5435C131.546 98.6856 131.749 98.7631 131.959 98.7631C131.972 98.7631 131.985 98.7631 131.999 98.7621L142.929 98.2366C143.395 98.2138 143.753 97.8194 143.732 97.3535L140.857 36.0421C140.777 34.3584 140.044 32.8058 138.796 31.6714Z" fill="#1977CC"/>
<path d="M87.6359 167.828L86.9207 167.281L75.5162 165.698V171.137H86.5164C88.2806 171.137 89.0375 168.898 87.6359 167.828Z" fill="#6EBDFF"/>
<path d="M88.1485 167.156L87.4333 166.61C87.3171 166.522 87.181 166.465 87.037 166.445L75.6324 164.862C75.3911 164.828 75.1457 164.9 74.9619 165.061C74.7782 165.222 74.6719 165.454 74.6719 165.698V171.138C74.6719 171.603 75.0504 171.982 75.5162 171.982H86.5165C87.6886 171.982 88.6879 171.265 89.0634 170.155C89.4388 169.045 89.0793 167.867 88.1485 167.156ZM87.4631 169.614C87.4095 169.774 87.182 170.293 86.5155 170.293H76.3596V166.668L86.584 168.087L87.1224 168.498C87.6518 168.903 87.5167 169.454 87.4631 169.614Z" fill="#1977CC"/>
<path d="M76.6397 167.828L75.9244 167.281L64.52 165.698V171.137H75.5202C77.2843 171.137 78.0422 168.898 76.6397 167.828Z" fill="#6EBDFF"/>
<path d="M77.1522 167.156L76.437 166.61C76.3208 166.522 76.1847 166.465 76.0407 166.445L64.6362 164.862C64.3949 164.828 64.1495 164.9 63.9657 165.061C63.782 165.221 63.6757 165.454 63.6757 165.698V171.138C63.6757 171.603 64.0542 171.982 64.52 171.982H75.5202C76.6923 171.982 77.6916 171.265 78.0671 170.155C78.4425 169.045 78.0839 167.867 77.1522 167.156ZM76.4678 169.614C76.4142 169.774 76.1867 170.293 75.5202 170.293H65.3644V166.668L75.5887 168.087L76.1271 168.498C76.6565 168.903 76.5215 169.454 76.4678 169.614Z" fill="#1977CC"/>
<path d="M73.0458 37.4516C66.9884 37.4516 62.0774 42.3627 62.0774 48.42V65.5858H84.0142V48.42C84.0142 42.3627 79.1031 37.4516 73.0458 37.4516Z" fill="#6EBDFF"/>
<path d="M73.0458 36.6073C66.5325 36.6073 61.2331 41.9067 61.2331 48.42V65.5858C61.2331 66.0517 61.6115 66.4301 62.0774 66.4301H84.0141C84.48 66.4301 84.8585 66.0517 84.8585 65.5858V48.42C84.8585 41.9067 79.559 36.6073 73.0458 36.6073ZM83.1698 64.7415H62.9217V48.42C62.9217 42.8375 67.4632 38.296 73.0458 38.296C78.6283 38.296 83.1698 42.8375 83.1698 48.42V64.7415Z" fill="#1977CC"/>
<path d="M88.7782 104.099L82.0493 104.41L82.6851 118.149C82.7705 120.008 84.3469 121.444 86.2055 121.358C88.064 121.271 89.5004 119.696 89.414 117.837L88.7782 104.099Z" fill="white"/>
<path d="M89.6215 104.061C89.5997 103.595 89.2043 103.237 88.7394 103.256L82.0106 103.567C81.7871 103.577 81.5765 103.676 81.4255 103.841C81.2745 104.006 81.196 104.225 81.206 104.449L81.8417 118.188C81.8933 119.312 82.3801 120.348 83.2115 121.106C83.9943 121.819 84.9936 122.206 86.0445 122.206C86.1111 122.206 86.1776 122.204 86.2442 122.201C87.3686 122.149 88.4047 121.663 89.1626 120.831C89.9205 120 90.3099 118.923 90.2573 117.798L89.6215 104.061ZM87.914 119.694C87.46 120.192 86.8392 120.483 86.1657 120.514C85.4912 120.545 84.8475 120.313 84.3489 119.859C83.8502 119.405 83.5592 118.784 83.5284 118.11L82.9324 105.216L87.9746 104.982L88.5706 117.877C88.6014 118.55 88.3689 119.195 87.914 119.694Z" fill="#1977CC"/>
<path d="M83.4758 63.2743L80.3319 63.173L79.2353 67.943L81.5786 116.668L90.4887 116.24L88.1454 67.5148C88.0272 65.0543 85.9363 63.1561 83.4758 63.2743Z" fill="#6EBDFF"/>
<path d="M87.2563 63.8028C86.2163 62.8581 84.8734 62.3714 83.4708 62.43L80.3597 62.3297L80.305 64.0173L83.4489 64.1186C83.4717 64.1196 83.4946 64.1196 83.5165 64.1176C84.481 64.071 85.4058 64.4037 86.121 65.0524C86.8362 65.702 87.2553 66.59 87.302 67.5556L89.6046 115.437L82.3821 115.785L80.0795 67.9032C80.0567 67.4374 79.6594 67.0768 79.1955 67.1006C78.7296 67.1235 78.37 67.5188 78.3929 67.9847L80.7361 116.71C80.758 117.162 81.1315 117.513 81.5785 117.513C81.5924 117.513 81.6063 117.513 81.6202 117.512L90.5304 117.084C90.7539 117.073 90.9645 116.974 91.1144 116.808C91.2644 116.642 91.3439 116.423 91.333 116.2L88.9897 67.4751C88.9202 66.0596 88.3053 64.7554 87.2563 63.8028Z" fill="#1977CC"/>
<path d="M86.9206 167.281L81.36 164.014L84.2714 121.827C83.8641 120.282 83.2791 118.836 82.548 117.806C81.0123 115.644 77.6976 113.136 74.9113 113.136L74.6451 123.677L75.5162 163.817V165.699C75.5162 165.699 82.5689 168.65 86.2442 168.65C87.6468 168.649 88.1404 167.976 86.9206 167.281Z" fill="white"/>
<path d="M87.3429 166.55L82.2381 163.55L85.1138 121.884C85.1198 121.792 85.1118 121.699 85.088 121.611C84.7652 120.386 84.1821 118.648 83.2364 117.316C82.3752 116.103 81.0719 114.877 79.6614 113.952C78.5042 113.193 76.741 112.289 74.9112 112.289C74.4533 112.289 74.0788 112.655 74.0669 113.113L73.8007 123.654C73.8007 123.667 73.8007 123.681 73.8007 123.694L74.6719 163.824V165.698C74.6719 166.039 74.8765 166.346 75.1904 166.477C75.4844 166.6 82.4437 169.493 86.2442 169.493C87.9349 169.493 88.3283 168.697 88.4196 168.354C88.521 167.968 88.517 167.221 87.3429 166.55ZM76.3595 165.129V163.816C76.3595 163.81 76.3595 163.804 76.3595 163.798L75.4894 123.678L75.7327 114.059C77.9737 114.476 80.5494 116.45 81.8596 118.295C82.4646 119.147 83.0169 120.427 83.4202 121.91L80.5176 163.957C80.4958 164.276 80.6557 164.58 80.9319 164.742L86.1439 167.805C83.2185 167.76 78.0134 165.785 76.3595 165.129ZM86.8184 168.247H86.8194H86.8184Z" fill="#1977CC"/>
<path d="M75.9244 167.281L70.3638 164.014L73.2752 121.827C72.868 120.282 72.2829 118.836 71.5518 117.806C70.0161 115.644 66.7014 113.136 63.9151 113.136L63.6488 123.677L64.52 163.817V165.699C64.52 165.699 71.5727 168.65 75.248 168.65C76.6516 168.649 77.1443 167.976 75.9244 167.281Z" fill="white"/>
<path d="M76.3476 166.55L71.2429 163.55L74.1186 121.884C74.1245 121.792 74.1166 121.699 74.0928 121.611C73.7699 120.386 73.1868 118.648 72.2412 117.316C71.38 116.103 70.0767 114.877 68.6662 113.952C67.5089 113.193 65.7458 112.289 63.916 112.289C63.4581 112.289 63.0836 112.655 63.0717 113.113L62.8055 123.654C62.8055 123.667 62.8055 123.681 62.8055 123.694L63.6767 163.824V165.698C63.6767 166.039 63.8813 166.346 64.1952 166.477C64.4892 166.6 71.4485 169.493 75.249 169.493C76.9397 169.493 77.333 168.697 77.4244 168.354C77.5247 167.968 77.5208 167.221 76.3476 166.55ZM65.3643 165.129V163.816C65.3643 163.81 65.3643 163.804 65.3643 163.798L64.4942 123.678L64.7375 114.059C66.9785 114.476 69.5542 116.45 70.8644 118.295C71.4694 119.147 72.0216 120.427 72.4249 121.91L69.5224 163.957C69.5006 164.276 69.6605 164.58 69.9367 164.742L75.1487 167.805C72.2233 167.76 67.0172 165.785 65.3643 165.129ZM75.8222 168.247H75.8232H75.8222Z" fill="#1977CC"/>
<path d="M76.2801 57.5011H69.7608V63.173H76.2801V57.5011Z" fill="white"/>
<path d="M76.2801 56.6567H69.7608C69.2949 56.6567 68.9165 57.0352 68.9165 57.5011V63.173C68.9165 63.6389 69.2949 64.0173 69.7608 64.0173H76.2801C76.7459 64.0173 77.1244 63.6389 77.1244 63.173V57.5011C77.1244 57.0352 76.7459 56.6567 76.2801 56.6567ZM75.4357 62.3287H70.6052V58.3454H75.4357V62.3287Z" fill="#1977CC"/>
<path d="M76.7003 48.428C76.5205 47.8796 75.9305 47.5796 75.3811 47.7594C74.8328 47.9392 74.5328 48.5293 74.7126 49.0786L76.4549 54.3988C76.4877 54.4982 76.4818 54.5955 76.4659 54.6651H75.707C75.1298 54.6651 74.661 55.1329 74.661 55.711C74.661 56.2891 75.1288 56.757 75.707 56.757H76.6824C77.2437 56.757 77.7682 56.4769 78.1228 55.9882C78.5708 55.3703 78.693 54.5131 78.4436 53.7492L76.7003 48.428Z" fill="#6EBDFF"/>
<path d="M73.7709 48.6962H73.2067C72.6296 48.6962 72.1607 49.164 72.1607 49.7421C72.1607 50.3203 72.6286 50.7881 73.2067 50.7881H73.7709C74.3481 50.7881 74.8169 50.3203 74.8169 49.7421C74.8169 49.164 74.349 48.6962 73.7709 48.6962Z" fill="#6EBDFF"/>
<path d="M78.7237 48.6962H78.1595C77.5823 48.6962 77.1135 49.164 77.1135 49.7421C77.1135 50.3203 77.5813 50.7881 78.1595 50.7881H78.7237C79.3008 50.7881 79.7697 50.3203 79.7697 49.7421C79.7697 49.164 79.3008 48.6962 78.7237 48.6962Z" fill="#6EBDFF"/>
<path d="M76.9238 57.6182H74.2686C73.6915 57.6182 73.2226 58.0861 73.2226 58.6642C73.2226 59.2423 73.6905 59.7102 74.2686 59.7102H76.9238C77.5009 59.7102 77.9697 59.2423 77.9697 58.6642C77.9697 58.0861 77.5009 57.6182 76.9238 57.6182Z" fill="#6EBDFF"/>
<path d="M66.3577 53.4264C66.3577 57.2696 69.4728 60.3848 73.316 60.3848C77.1592 60.3848 80.2743 57.2696 80.2743 53.4264V46.937L66.3577 48.9395V53.4264Z" fill="white"/>
<path d="M80.2743 46.0936C79.8084 46.0936 79.43 46.4721 79.43 46.9379V53.4274C79.43 56.7988 76.6874 59.5414 73.316 59.5414C69.9446 59.5414 67.202 56.7988 67.202 53.4274V48.9415C67.202 48.4756 66.8236 48.0971 66.3577 48.0971C65.8918 48.0971 65.5134 48.4756 65.5134 48.9415V53.4274C65.5134 57.7295 69.0138 61.23 73.316 61.23C77.6181 61.23 81.1186 57.7295 81.1186 53.4274V46.9379C81.1186 46.4711 80.7412 46.0936 80.2743 46.0936Z" fill="#1977CC"/>
<path d="M74.6282 44.2629L73.5882 45.8969L70.1701 48.126L66.3577 48.9405L80.2743 46.938L76.0516 45.4102L74.6282 44.2629Z" fill="white"/>
<path d="M66.6428 48.9406C70.341 48.9406 73.4918 46.6072 74.7077 43.3333L65.4458 48.8561C65.8372 48.9108 66.2365 48.9406 66.6428 48.9406Z" fill="#6EBDFF"/>
<path d="M75.0017 42.5415C74.5647 42.3786 74.0789 42.6021 73.916 43.0391C72.7925 46.0638 69.8692 48.0962 66.6418 48.0962C66.2902 48.0962 65.9276 48.0704 65.5611 48.0197C65.0992 47.9552 64.673 48.278 64.6085 48.7399C64.5439 49.2018 64.8667 49.6279 65.3286 49.6925C65.7707 49.7541 66.2127 49.7849 66.6418 49.7849C70.5714 49.7849 74.1306 47.3105 75.4984 43.6272C75.6623 43.1901 75.4398 42.7044 75.0017 42.5415Z" fill="#1977CC"/>
<path d="M80.8683 46.9072L73.8465 41.4616C74.6719 44.686 77.5913 46.9121 80.8683 46.9072Z" fill="#6EBDFF"/>
<path d="M80.8682 46.0628C80.8642 46.0628 80.8603 46.0628 80.8563 46.0628C77.9349 46.0628 75.389 44.0861 74.6639 41.2521C74.5487 40.8001 74.0888 40.528 73.6368 40.6432C73.1848 40.7584 72.9127 41.2183 73.0279 41.6703C73.9447 45.2523 77.1621 47.7505 80.8563 47.7505C80.8603 47.7505 80.8652 47.7505 80.8692 47.7505C81.3351 47.7495 81.7125 47.3711 81.7125 46.9052C81.7115 46.4403 81.3341 46.0628 80.8682 46.0628Z" fill="#1977CC"/>
<path d="M85.6452 68.4853L80.3329 63.173H65.8541C62.9198 63.173 60.5418 65.552 60.5418 68.4853V106.329L61.5818 141.846H70.8267H78.5171H84.9032L85.6462 106.329V68.4853H85.6452Z" fill="#6EBDFF"/>
<path d="M85.6452 67.641C85.1794 67.641 84.8009 68.0195 84.8009 68.4854V106.321L84.0758 141.002H62.4012L61.3851 106.317V68.4854C61.3851 66.0219 63.3896 64.0173 65.8531 64.0173H80.3319C80.7978 64.0173 81.1762 63.6389 81.1762 63.173C81.1762 62.7071 80.7978 62.3287 80.3319 62.3287H65.8531C62.4579 62.3287 59.6964 65.0911 59.6964 68.4854V106.329C59.6964 106.337 59.6964 106.346 59.6964 106.354L60.7364 141.871C60.7493 142.328 61.1238 142.69 61.5807 142.69H84.9022C85.3612 142.69 85.7366 142.323 85.7466 141.864L86.4896 106.347C86.4896 106.341 86.4896 106.335 86.4896 106.329V68.4854C86.4896 68.0195 86.1121 67.641 85.6452 67.641Z" fill="#1977CC"/>
<path d="M57.0908 117.838C57.0044 119.697 58.4418 121.272 60.2993 121.358C62.1578 121.444 63.7332 120.007 63.8196 118.15L64.4554 104.411L57.7266 104.1L57.0908 117.838Z" fill="white"/>
<path d="M64.4942 103.567L57.7653 103.256C57.3005 103.236 56.9041 103.595 56.8832 104.061L56.2475 117.799C56.1959 118.924 56.5843 120.001 57.3422 120.832C58.1001 121.663 59.1371 122.15 60.2606 122.202C60.3271 122.205 60.3937 122.207 60.4602 122.207C61.5112 122.207 62.5115 121.82 63.2932 121.107C64.1246 120.349 64.6114 119.313 64.663 118.189L65.2987 104.45C65.3087 104.226 65.2302 104.008 65.0792 103.842C64.9282 103.676 64.7177 103.578 64.4942 103.567ZM62.9763 118.11C62.9455 118.784 62.6535 119.405 62.1559 119.858C61.6572 120.312 61.0115 120.545 60.339 120.514C59.6656 120.483 59.0447 120.191 58.5908 119.694C58.1368 119.196 57.9034 118.55 57.9352 117.877L58.5312 104.982L63.5733 105.216L62.9763 118.11Z" fill="#1977CC"/>
<path d="M63.029 63.2743C60.5685 63.1561 58.4785 65.0543 58.3603 67.5148L56.017 116.24L64.9272 116.668L67.2705 67.943L66.1739 63.173L63.029 63.2743Z" fill="#6EBDFF"/>
<path d="M67.3092 67.1006C66.8434 67.0787 66.448 67.4373 66.4252 67.9032L64.1226 115.785L56.9002 115.437L59.2027 67.5555C59.2494 66.591 59.6685 65.702 60.3837 65.0523C61.0989 64.4027 62.0237 64.0709 62.9882 64.1176C63.0111 64.1186 63.034 64.1186 63.0558 64.1186L66.1997 64.0173C66.6656 64.0024 67.0311 63.612 67.0162 63.1461C67.0013 62.6803 66.6139 62.3167 66.1451 62.3296L63.034 62.4299C61.6314 62.3723 60.2884 62.8581 59.2484 63.8027C58.1994 64.7553 57.5846 66.0596 57.516 67.4741L55.1727 116.199C55.1618 116.423 55.2403 116.641 55.3913 116.807C55.5423 116.973 55.7519 117.072 55.9754 117.083L64.8855 117.511C64.8994 117.512 64.9133 117.512 64.9272 117.512C65.3752 117.512 65.7477 117.161 65.7696 116.709L68.1128 67.9837C68.1347 67.5178 67.7751 67.1225 67.3092 67.1006Z" fill="#1977CC"/>
<path d="M70.0419 50.1762C69.6486 50.1762 69.3287 50.4951 69.3287 50.8894C69.3287 51.2838 69.6476 51.6017 70.0419 51.6017C70.4353 51.6017 70.7541 51.2828 70.7541 50.8894C70.7541 50.4961 70.4353 50.1762 70.0419 50.1762Z" fill="#6EBDFF"/>
<path d="M76.6327 50.1762C76.2394 50.1762 75.9205 50.4951 75.9205 50.8894C75.9205 51.2838 76.2394 51.6017 76.6327 51.6017C77.0261 51.6017 77.3459 51.2828 77.3459 50.8894C77.3459 50.4961 77.0261 50.1762 76.6327 50.1762Z" fill="#6EBDFF"/>
<path d="M76.3626 54.53C76.0606 54.2926 75.6235 54.3443 75.3861 54.6462C74.9649 55.1816 74.1792 55.5144 73.3359 55.5144C72.5223 55.5144 71.7743 55.2124 71.3373 54.7078C71.086 54.4178 70.6469 54.386 70.3569 54.6373C70.0668 54.8886 70.035 55.3277 70.2863 55.6177C70.9846 56.4233 72.124 56.9041 73.3359 56.9041C74.6143 56.9041 75.7894 56.3806 76.4788 55.5045C76.7162 55.2045 76.6645 54.7674 76.3626 54.53Z" fill="#6EBDFF"/>
</svg>
