<svg width="81" height="82" viewBox="0 0 81 82" fill="none" xmlns="http://www.w3.org/2000/svg">
<path d="M40.4918 1.18774C38.7181 1.18774 37.2807 2.62453 37.2807 4.39732V71.8098C37.2807 72.6957 36.5608 73.4152 35.6746 73.4152H34.0685C33.1834 73.4152 32.4624 72.6957 32.4624 71.8098V66.1916C32.4624 64.4188 31.0249 62.9821 29.2513 62.9821C27.4777 62.9821 26.0391 64.42 26.0391 66.1916V71.8098C26.0391 76.2345 29.6407 79.8355 34.0685 79.8355H35.6746C40.1024 79.8355 43.7039 76.2356 43.7039 71.8098V4.39732C43.7028 2.62453 42.2654 1.18774 40.4918 1.18774Z" fill="#A2DFFF"/>
<path d="M40.4918 0C38.0651 0 36.0922 1.97304 36.0922 4.39747V71.81C36.0922 72.0396 35.9055 72.2274 35.6746 72.2274H34.0685C33.8387 72.2274 33.6508 72.0407 33.6508 71.81V66.1918C33.6508 63.7662 31.6769 61.7932 29.2502 61.7932C26.8235 61.7932 24.8506 63.7662 24.8506 66.1918V71.81C24.8506 76.8896 28.9853 81.0235 34.0685 81.0235H35.6746C40.7566 81.0235 44.8924 76.8908 44.8924 71.81V4.39747C44.8913 1.97304 42.9173 0 40.4918 0ZM42.5144 71.81C42.5144 75.5807 39.4459 78.6477 35.6735 78.6477H34.0674C30.2949 78.6477 27.2264 75.5807 27.2264 71.81V66.1918C27.2264 65.0763 28.1341 64.169 29.249 64.169C30.365 64.169 31.2728 65.0763 31.2728 66.1918V71.81C31.2728 73.3497 32.5269 74.6032 34.0674 74.6032H35.6735C37.2139 74.6032 38.468 73.3508 38.468 71.81V4.39747C38.468 3.28198 39.3758 2.37579 40.4907 2.37579C41.6067 2.37579 42.5144 3.28312 42.5144 4.39747V71.81Z" fill="#1977CC"/>
<path d="M40.4924 9.21313C19.3029 9.21313 2.03415 19.8589 1.19092 34.5854H1.38673C2.07829 32.9563 4.22546 32.8794 6.77101 32.8794C9.31655 32.8794 11.4637 34.0684 12.1552 35.6964H12.6272C13.3188 34.0673 15.4659 32.8794 18.0114 32.8794C20.557 32.8794 22.7041 34.0684 23.3957 35.6964H23.8677C24.5593 34.0673 26.7064 32.8794 29.2519 32.8794C31.7975 32.8794 33.9446 34.0684 34.6362 35.6964H35.1082C35.7997 34.0673 37.9468 32.8794 40.4924 32.8794C43.0379 32.8794 45.1851 34.0684 45.8767 35.6964H46.3486C47.0402 34.0673 49.1873 32.8794 51.7329 32.8794C54.2784 32.8794 56.4255 34.0684 57.1171 35.6964H57.5891C58.2807 34.0673 60.4278 32.8794 62.9734 32.8794C65.5189 32.8794 67.666 34.0684 68.3576 35.6964H68.8296C69.5211 34.0673 71.6683 32.8794 74.2138 32.8794C76.7594 32.8794 78.9065 34.0684 79.5981 35.6964H79.7939C78.9506 20.971 61.6819 9.21313 40.4924 9.21313Z" fill="white"/>
<path d="M68.4376 15.9496C60.879 10.8394 50.9538 8.02576 40.4909 8.02576C29.9307 8.02576 20.0156 10.6357 12.5714 15.376C4.89283 20.2645 0.429881 27.0626 0.00203809 34.5181C-0.0172035 34.8439 0.100521 35.1641 0.324629 35.4016C0.548737 35.6392 0.862248 35.7739 1.18822 35.7739H1.38293C1.85944 35.7739 2.29067 35.4888 2.47743 35.0498C2.86339 34.1402 4.57364 34.0678 6.76832 34.0678C8.73888 34.0678 10.5431 34.948 11.0581 36.1619C11.2448 36.6009 11.6749 36.886 12.1525 36.886H12.6245C13.101 36.886 13.5323 36.6009 13.719 36.1619C14.234 34.9491 16.0382 34.0678 18.0099 34.0678C19.9805 34.0678 21.7847 34.948 22.3008 36.1619C22.4876 36.6009 22.9177 36.886 23.3953 36.886H23.8673C24.3438 36.886 24.775 36.6009 24.9618 36.1619C25.4768 34.9491 27.281 34.0678 29.2527 34.0678C31.2244 34.0678 33.0274 34.948 33.5435 36.1619C33.7303 36.6009 34.1604 36.886 34.6381 36.886H35.11C35.5866 36.886 36.0178 36.6009 36.2045 36.1619C36.7195 34.9491 38.5237 34.0678 40.4943 34.0678C42.4648 34.0678 44.269 34.948 44.7852 36.1619C44.9719 36.6009 45.402 36.886 45.8797 36.886H46.3516C46.8281 36.886 47.2594 36.6009 47.4461 36.1619C47.9611 34.9491 49.7653 34.0678 51.7359 34.0678C53.7064 34.0678 55.5106 34.948 56.0268 36.1619C56.2135 36.6009 56.6436 36.886 57.1213 36.886H57.5932C58.0697 36.886 58.501 36.6009 58.6878 36.1619C59.2028 34.9491 61.0069 34.0678 62.9786 34.0678C64.9492 34.0678 66.7534 34.948 67.2684 36.1619C67.4552 36.6009 67.8853 36.886 68.3629 36.886H68.8349C69.3114 36.886 69.7426 36.6009 69.9294 36.1619C70.4444 34.9491 72.2486 34.0678 74.2203 34.0678C76.192 34.0678 77.995 34.948 78.5111 36.1619C78.6979 36.6009 79.128 36.886 79.6057 36.886H79.8003C80.1274 36.886 80.4398 36.7513 80.6639 36.5138C80.888 36.2762 81.0046 35.956 80.9865 35.6302C80.5496 28.1148 76.0957 21.1254 68.4376 15.9496ZM74.2135 31.6909C71.9124 31.6909 69.8332 32.5428 68.5927 33.9083C67.3533 32.5428 65.274 31.6909 62.9718 31.6909C60.6696 31.6909 58.5916 32.5428 57.3511 33.9083C56.1105 32.5428 54.0324 31.6909 51.7302 31.6909C49.4292 31.6909 47.3499 32.5428 46.1094 33.9083C44.87 32.5428 42.7908 31.6909 40.4886 31.6909C38.1876 31.6909 36.1083 32.5428 34.8678 33.9083C33.6273 32.5428 31.5492 31.6909 29.247 31.6909C26.9448 31.6909 24.8667 32.5428 23.6262 33.9083C22.3857 32.5428 20.3076 31.6909 18.0054 31.6909C15.7043 31.6909 13.6251 32.5428 12.3846 33.9083C11.144 32.5428 9.06599 31.6909 6.76379 31.6909C5.44857 31.6909 3.95903 31.6909 2.70606 32.0778C3.86282 26.4121 7.74056 21.2646 13.8435 17.3785C20.9109 12.8792 30.3721 10.4004 40.4852 10.4004C50.4784 10.4004 59.9305 13.0692 67.0997 17.9158C73.0284 21.9241 76.862 27.0604 78.1489 32.6265C77.0352 32.0314 75.669 31.6909 74.2135 31.6909Z" fill="#1977CC"/>
<path d="M40.4922 9.21326C49.5731 9.21326 56.9744 20.9711 57.3366 35.6965H57.5901C58.2817 34.0674 60.4288 32.8795 62.9743 32.8795C65.5199 32.8795 67.667 34.0685 68.3586 35.6965H68.5657C67.9624 20.9711 55.6274 9.21326 40.4922 9.21326Z" fill="#A2DFFF"/>
<path d="M60.7957 16.0705C55.3141 10.8822 48.103 8.02563 40.4924 8.02563C39.8359 8.02563 39.304 8.55736 39.304 9.21353C39.304 9.8697 39.8359 10.4014 40.4924 10.4014C44.4539 10.4014 48.2502 12.9469 51.1806 17.5695C54.2139 22.3539 55.9785 28.8025 56.1483 35.7262C56.1641 36.3711 56.6916 36.8847 57.3368 36.8847H57.5903C58.0668 36.8847 58.498 36.5996 58.6848 36.1606C59.2688 34.7861 61.2847 34.0666 62.9756 34.0666C64.6666 34.0666 66.6825 34.7861 67.2665 36.1606C67.4533 36.5996 67.8834 36.8847 68.361 36.8847H68.5682C68.8919 36.8847 69.2008 36.7523 69.4261 36.5193C69.6502 36.2862 69.7691 35.9717 69.7566 35.6481C69.4476 28.2006 66.2659 21.2486 60.7957 16.0705ZM62.9734 31.6908C61.2247 31.6908 59.605 32.1818 58.3837 33.0178C57.6457 23.9853 54.3226 16.3398 49.6458 11.966C53.1613 13.2128 56.4007 15.1824 59.1613 17.7958C63.4295 21.8346 66.1777 27.0489 67.0764 32.7157C65.9264 32.0652 64.498 31.6908 62.9734 31.6908Z" fill="#1977CC"/>
<path d="M12.4191 35.6965H12.6263C13.3178 34.0674 15.4649 32.8795 18.0105 32.8795C20.556 32.8795 22.7031 34.0685 23.3947 35.6965H23.6483C24.0093 20.9711 31.4106 9.21326 40.4914 9.21326C25.3563 9.21326 13.0224 20.9711 12.4191 35.6965Z" fill="#A2DFFF"/>
<path d="M40.4924 8.02563C32.8818 8.02563 25.6707 10.8822 20.1892 16.0705C14.7178 21.2486 11.5373 28.2017 11.2328 35.6481C11.2192 35.9717 11.3392 36.2862 11.5633 36.5193C11.7874 36.7523 12.0975 36.8847 12.4212 36.8847H12.6284C13.1049 36.8847 13.5361 36.5996 13.7229 36.1606C14.3069 34.7861 16.3227 34.0666 18.0137 34.0666C19.7036 34.0666 21.7206 34.7861 22.3046 36.1606C22.4913 36.5996 22.9214 36.8847 23.3991 36.8847H23.6527C24.2978 36.8847 24.8253 36.3699 24.8411 35.7262C25.0109 28.8025 26.7754 22.3539 29.8088 17.5695C32.7392 12.9469 36.5343 10.4014 40.4969 10.4014C41.1534 10.4014 41.6854 9.8697 41.6854 9.21353C41.6854 8.55736 41.1477 8.02563 40.4924 8.02563ZM22.6 33.0178C21.3787 32.1829 19.7591 31.6919 18.0103 31.6919C16.4846 31.6919 15.0573 32.0652 13.9074 32.7157C14.806 27.0489 17.5553 21.8358 21.8224 17.7958C24.583 15.1824 27.8224 13.2128 31.3379 11.966C26.6611 16.3398 23.338 23.9853 22.6 33.0178Z" fill="#1977CC"/>
<path d="M40.4926 9.21326C37.4649 9.21326 34.9986 20.9711 34.8786 35.6965H35.1084C35.8 34.0674 37.9471 32.8795 40.4926 32.8795C43.0382 32.8795 45.1853 34.0685 45.8769 35.6965H46.1066C45.9867 20.9711 43.5192 9.21326 40.4926 9.21326Z" fill="#A2DFFF"/>
<path d="M40.4926 8.02563C38.3195 8.02563 36.6647 10.8585 35.4321 16.6882C34.367 21.7272 33.7479 28.4744 33.6891 35.6878C33.6868 36.0045 33.8102 36.3089 34.0331 36.534C34.2561 36.7591 34.5606 36.8858 34.8775 36.8858H35.1072C35.5838 36.8858 36.015 36.6007 36.2017 36.1618C36.7858 34.7872 38.8017 34.0677 40.4915 34.0677C42.1814 34.0677 44.1983 34.7872 44.7824 36.1618C44.9691 36.6007 45.3993 36.8858 45.8769 36.8858H46.1066C46.4236 36.8858 46.7269 36.7591 46.951 36.534C47.1751 36.3089 47.2985 36.0045 47.2951 35.6878C47.2362 28.4744 46.6171 21.7272 45.552 16.6882C44.3206 10.8585 42.6658 8.02563 40.4926 8.02563ZM40.4926 31.6908C38.8458 31.6908 37.3121 32.1263 36.1191 32.8753C36.2912 27.0139 36.8446 21.6005 37.7105 17.4044C38.8786 11.7432 40.1983 10.441 40.4926 10.4003C40.7869 10.441 42.1067 11.7421 43.2747 17.4032C44.1406 21.5993 44.6941 27.0127 44.8661 32.8741C43.672 32.1275 42.1395 31.6908 40.4926 31.6908Z" fill="#1977CC"/>
</svg>
