<svg width="92" height="75" viewBox="0 0 92 75" fill="none" xmlns="http://www.w3.org/2000/svg">
<path d="M44.5 14.5L11 39.5V66.5L7 68.5V72.5H85V68.5L81 66.5V39.5L44.5 14.5Z" fill="white"/>
<path d="M21 49V67.5L38 68V49L36 47H23L21 49Z" fill="#A2DFFF"/>
<rect x="50" y="45" width="21" height="17" fill="#A2DFFF"/>
<path d="M18 1.5L18.5 22L28.5 14L28 3.5L27 1H22.5L18 1.5Z" fill="#E0F4FC"/>
<path d="M2 42.5H9.5L11 39L45.5 14.5L81.5 40V42.5H84H91.5L90 35L48.5 5.5L44 4L2 36V42.5Z" fill="#E0F4FC"/>
<path d="M90.708 34.381L48.315 3.657C47.3764 2.97257 46.2421 2.60904 45.0806 2.62039C43.919 2.63174 42.792 3.01736 41.867 3.72L29.426 13.114V3.72C29.4249 2.73389 29.0328 1.78846 28.3356 1.09108C27.6384 0.393707 26.6931 0.00132342 25.707 0H20.5C19.5137 0.00105881 18.5681 0.393326 17.8707 1.09073C17.1733 1.78814 16.7811 2.73372 16.78 3.72V22.663L1.243 34.388C0.85709 34.6807 0.544089 35.0586 0.32846 35.4923C0.112831 35.926 0.000415536 36.4037 0 36.888V43.188C0 43.4532 0.105357 43.7076 0.292893 43.8951C0.48043 44.0826 0.734784 44.188 1 44.188H9.43V67.188H8.18C7.46946 67.1888 6.78826 67.4714 6.28583 67.9738C5.7834 68.4763 5.50079 69.1575 5.5 69.868V72.378H3.03C2.76478 72.378 2.51043 72.4834 2.32289 72.6709C2.13536 72.8584 2.03 73.1128 2.03 73.378C2.03 73.6432 2.13536 73.8976 2.32289 74.0851C2.51043 74.2727 2.76478 74.378 3.03 74.378H89.2C89.4652 74.378 89.7196 74.2727 89.9071 74.0851C90.0946 73.8976 90.2 73.6432 90.2 73.378C90.2 73.1128 90.0946 72.8584 89.9071 72.6709C89.7196 72.4834 89.4652 72.378 89.2 72.378H86.5V69.868C86.4992 69.1575 86.2166 68.4763 85.7142 67.9738C85.2117 67.4714 84.5305 67.1888 83.82 67.188H82.57V44.188H91C91.2652 44.188 91.5196 44.0826 91.7071 43.8951C91.8946 43.7076 92 43.4532 92 43.188V36.913C91.9992 36.419 91.8818 35.9323 91.6572 35.4923C91.4327 35.0523 91.1075 34.6715 90.708 34.381ZM18.778 21.151V3.72C18.7785 3.26399 18.9599 2.82681 19.2824 2.50436C19.6048 2.18191 20.042 2.00053 20.498 2H25.707C26.1628 2.00079 26.5998 2.18229 26.922 2.50471C27.2442 2.82713 27.4255 3.26416 27.426 3.72V14.62L25.132 16.351L18.778 21.151ZM84.5 69.868V72.378H7.5V69.868C7.50026 69.6877 7.57199 69.5149 7.69946 69.3875C7.82693 69.26 7.99973 69.1883 8.18 69.188H83.82C84.0003 69.1883 84.1731 69.26 84.3005 69.3875C84.428 69.5149 84.4997 69.6877 84.5 69.868ZM36.71 67.188H22.31V49.488C22.3103 49.1035 22.4631 48.7349 22.735 48.463C23.0069 48.1911 23.3755 48.0383 23.76 48.038H35.27C35.6532 48.0396 36.02 48.1932 36.29 48.4651C36.56 48.7369 36.7111 49.1048 36.71 49.488V67.188ZM38.71 67.188V49.488C38.7105 48.5746 38.3486 47.6983 37.7036 47.0514C37.0587 46.4046 36.1834 46.0401 35.27 46.038H23.76C22.8452 46.0388 21.9682 46.4025 21.3214 47.0494C20.6745 47.6962 20.3108 48.5732 20.31 49.488V67.188H11.43V40.176C45.208 14.946 43.794 15.076 45.468 15.201C45.9063 15.2307 46.3275 15.3824 46.684 15.639L80.57 40.188V67.188H38.71ZM90 42.188H82.57V39.678C82.5699 39.5201 82.5324 39.3645 82.4607 39.2239C82.3889 39.0833 82.2848 38.9617 82.157 38.869L47.856 14.018C47.1056 13.47 46.1987 13.1782 45.2696 13.1858C44.3404 13.1933 43.4384 13.4999 42.697 14.06L9.828 38.88C9.7038 38.9731 9.603 39.0939 9.53357 39.2328C9.46415 39.3716 9.428 39.5248 9.428 39.68V42.188H2V36.888C2.00031 36.7136 2.0409 36.5417 2.11861 36.3855C2.19632 36.2294 2.30905 36.0934 2.448 35.988L23.576 20.036L29.028 15.92L43.07 5.32C43.6544 4.8772 44.3659 4.63431 45.0991 4.62729C45.8322 4.62027 46.5482 4.84948 47.141 5.281L89.534 36C89.6781 36.1047 89.7954 36.242 89.8764 36.4007C89.9574 36.5593 89.9997 36.7349 90 36.913V42.188ZM48.856 27.588H43.381C43.1158 27.588 42.8614 27.4826 42.6739 27.2951C42.4864 27.1076 42.381 26.8532 42.381 26.588C42.381 26.3228 42.4864 26.0684 42.6739 25.8809C42.8614 25.6934 43.1158 25.588 43.381 25.588H48.856C49.1212 25.588 49.3756 25.6934 49.5631 25.8809C49.7506 26.0684 49.856 26.3228 49.856 26.588C49.856 26.8532 49.7506 27.1076 49.5631 27.2951C49.3756 27.4826 49.1212 27.588 48.856 27.588ZM41.707 38.188C41.707 38.4532 41.6016 38.7076 41.4141 38.8951C41.2266 39.0826 40.9722 39.188 40.707 39.188H28.575C28.3098 39.188 28.0554 39.0826 27.8679 38.8951C27.6804 38.7076 27.575 38.4532 27.575 38.188C27.575 37.9228 27.6804 37.6684 27.8679 37.4809C28.0554 37.2934 28.3098 37.188 28.575 37.188H40.707C40.9722 37.188 41.2266 37.2934 41.4141 37.4809C41.6016 37.6684 41.707 37.9228 41.707 38.188ZM59.152 35.008H63.57C63.8352 35.008 64.0896 35.1134 64.2771 35.3009C64.4646 35.4884 64.57 35.7428 64.57 36.008C64.57 36.2732 64.4646 36.5276 64.2771 36.7151C64.0896 36.9026 63.8352 37.008 63.57 37.008H59.152C58.8868 37.008 58.6324 36.9026 58.4449 36.7151C58.2574 36.5276 58.152 36.2732 58.152 36.008C58.152 35.7428 58.2574 35.4884 58.4449 35.3009C58.6324 35.1134 58.8868 35.008 59.152 35.008ZM63.952 51.121C64.0406 51.218 64.1092 51.3314 64.154 51.4549C64.1987 51.5784 64.2187 51.7095 64.2127 51.8408C64.2068 51.972 64.175 52.1007 64.1193 52.2197C64.0636 52.3386 63.985 52.4454 63.888 52.534C60.119 55.873 59.113 57.503 58.137 56.434C58.0482 56.3371 57.9794 56.2236 57.9345 56.1C57.8896 55.9765 57.8694 55.8453 57.8753 55.7139C57.8812 55.5826 57.9128 55.4537 57.9686 55.3346C58.0243 55.2156 58.1029 55.1086 58.2 55.02C61.585 52.308 62.783 49.849 63.947 51.121H63.952ZM34.11 64.708C33.9696 64.8456 33.7921 64.939 33.5992 64.9768C33.4063 65.0146 33.2066 64.995 33.0247 64.9206C32.8428 64.8461 32.6867 64.72 32.5757 64.5578C32.4647 64.3956 32.4036 64.2045 32.4 64.008C32.3991 63.7757 32.4796 63.5504 32.6276 63.3714C32.7756 63.1923 32.9817 63.0708 33.21 63.028C33.4158 62.9989 33.6256 63.0338 33.811 63.1278C33.9964 63.2218 34.1485 63.3705 34.2467 63.5537C34.3448 63.737 34.3844 63.9459 34.3599 64.1524C34.3355 64.3588 34.2482 64.5527 34.11 64.708ZM71.02 43.758H51.26C50.7483 43.7585 50.2577 43.962 49.8959 44.3239C49.534 44.6857 49.3305 45.1763 49.33 45.688V61.278C49.3305 61.7897 49.534 62.2803 49.8959 62.6421C50.2577 63.004 50.7483 63.2075 51.26 63.208H71.02C71.5317 63.2075 72.0223 63.004 72.3841 62.6421C72.746 62.2803 72.9495 61.7897 72.95 61.278V45.688C72.9495 45.1763 72.746 44.6857 72.3841 44.3239C72.0223 43.962 71.5317 43.7585 71.02 43.758ZM51.33 61.278L51.26 45.758H70.951L71.02 61.208L51.33 61.278Z" fill="#1977CC"/>
</svg>
