<svg width="53" height="58" viewBox="0 0 53 58" fill="none" xmlns="http://www.w3.org/2000/svg">
<path d="M50.6005 44.9239L50.6121 44.9514L50.6258 44.9792L50.9413 45.617C51.3269 46.4295 51.7865 47.4319 51.9448 48.4893C52.0983 49.5148 51.9597 50.526 51.1988 51.444L51.1935 51.4505L51.1882 51.4571C50.1147 52.7976 47.4599 55.7531 44.4258 56.8795L44.4038 56.8869H44.3988L44.2958 56.9088C43.8473 57.0043 42.4947 57.0748 40.4401 56.8534C38.4204 56.6357 35.7977 56.1439 32.8374 55.1713C26.9205 53.2273 19.6648 49.3668 13.1642 41.9422L13.1639 41.9418C6.5991 34.4522 3.42434 26.2651 2.00877 19.703C1.30099 16.422 1.03526 13.5571 1.00334 11.4035C0.987365 10.326 1.03007 9.4361 1.10243 8.76797C1.13865 8.43354 1.18131 8.16403 1.22493 7.95966C1.24667 7.8578 1.26744 7.77784 1.28579 7.71771C1.29487 7.68796 1.30272 7.66517 1.30896 7.64856C1.31203 7.64036 1.31452 7.63418 1.31635 7.62984C1.31665 7.62912 1.31693 7.62847 1.31719 7.62788C2.7746 4.75398 6.03252 2.44269 7.4448 1.53206C7.7885 1.33641 8.19565 1.17962 8.61935 1.07106C10.2487 0.730656 11.8073 1.67047 13.1339 2.54192L13.7032 2.92564L13.7392 2.94992L13.7772 2.97098C13.7772 2.97095 13.7773 2.97106 13.7777 2.97134C13.7863 2.97808 13.9178 3.08082 14.1307 3.45009C14.3327 3.80039 14.5469 4.28153 14.7653 4.87404C15.2009 6.05558 15.6126 7.5673 15.9675 9.10201C16.3211 10.6312 16.6122 12.1564 16.8106 13.3526C16.9098 13.9509 16.9849 14.4614 17.0329 14.8452C17.0797 15.2199 17.09 15.3978 17.0922 15.4343C17.0924 15.438 17.0925 15.4402 17.0926 15.4411C17.0508 15.912 16.8162 16.4576 16.1049 17.3028C15.3814 18.1623 14.2682 19.2142 12.6313 20.7068L12.6123 20.7241L12.5941 20.7424C11.8728 21.4717 11.4415 22.6376 11.8537 23.7836L11.857 23.7927L11.8604 23.8018C13.3153 27.6123 16.3856 32.2936 18.9396 35.1406C21.2748 37.7632 25.9515 42.1068 29.8479 44.3099L29.8478 44.31L29.8572 44.3151C30.9617 44.9242 32.1825 44.7012 33.0446 43.9302C34.4861 42.6673 35.5352 41.7642 36.3853 41.1427C37.2123 40.5381 37.7616 40.2689 38.2056 40.1734L38.737 40.1246C38.7604 40.129 38.7922 40.1353 38.8338 40.1441C38.9464 40.1682 39.0971 40.2038 39.2835 40.2512C39.6553 40.3458 40.1482 40.4818 40.7239 40.6517C41.8752 40.9913 43.3386 41.4606 44.7999 41.9927C46.2664 42.5267 47.7048 43.1147 48.8187 43.6892C49.3772 43.9773 49.8277 44.2486 50.152 44.4931C50.3134 44.6148 50.4288 44.7188 50.5065 44.8031C50.5803 44.8831 50.6003 44.924 50.6005 44.9239Z" fill="#E0F4FC" stroke="#1977CC" stroke-width="2"/>
</svg>
