<svg width="66" height="64" viewBox="0 0 66 64" fill="none" xmlns="http://www.w3.org/2000/svg">
<path d="M43.9411 0H22.7096C18.0529 0 14.2643 3.78857 14.2643 8.44631V15.9649C14.2643 16.541 14.7311 17.0079 15.3073 17.0079H19.4217C19.9978 17.0079 20.4647 16.541 20.4647 15.9649C20.4647 15.3887 19.9978 14.9219 19.4217 14.9219H16.3503V8.44631C16.3503 4.93885 19.2031 2.086 22.7096 2.086H43.9411C47.4476 2.086 50.3004 4.93885 50.3004 8.44631V14.9219H47.6661C47.09 14.9219 46.6231 15.3887 46.6231 15.9649C46.6231 16.541 47.09 17.0079 47.6661 17.0079H51.3434C51.9195 17.0079 52.3864 16.541 52.3864 15.9649V8.44631C52.3864 3.78957 48.5978 0 43.9411 0Z" fill="#1977CC"/>
<path fill-rule="evenodd" clip-rule="evenodd" d="M57.0887 12.9024H8.4453C4.37463 12.9024 1.043 16.234 1.043 20.3047V54.8479C1.043 58.9206 4.37463 62.2512 8.4453 62.2512H57.0887C61.1604 62.2512 64.4911 58.9206 64.4911 54.8479V20.3057C64.4911 16.235 61.1604 12.9024 57.0887 12.9024Z" fill="white"/>
<path d="M57.0889 11.8594H8.44532C3.78858 11.8594 0 15.648 0 20.3048V54.8479C0 59.5047 3.78858 63.2942 8.44532 63.2942H57.0889C61.7456 63.2942 65.5342 59.5057 65.5342 54.8479V20.3057C65.5342 15.649 61.7456 11.8594 57.0889 11.8594ZM63.4482 54.8489C63.4482 58.3554 60.5954 61.2092 57.0889 61.2092H8.44532C4.93886 61.2092 2.086 58.3564 2.086 54.8489V20.3057C2.086 16.7993 4.93886 13.9464 8.44532 13.9464H57.0889C60.5954 13.9464 63.4482 16.7993 63.4482 20.3057V54.8489Z" fill="#1977CC"/>
<path d="M54.2469 16.4814H45.0745C44.4984 16.4814 44.0315 16.9483 44.0315 17.5244C44.0315 18.1005 44.4984 18.5674 45.0745 18.5674H54.2469C56.5196 18.5674 58.3682 20.416 58.3682 22.6887V32.335C58.3682 32.9111 58.835 33.378 59.4112 33.378C59.9873 33.378 60.4542 32.9111 60.4542 32.335V22.6887C60.4542 19.2657 57.6699 16.4814 54.2469 16.4814Z" fill="#A2DFFF"/>
<path d="M40.2063 16.4814H17.8572C17.281 16.4814 16.8141 16.9483 16.8141 17.5244C16.8141 18.1005 17.281 18.5674 17.8572 18.5674H40.2063C40.7824 18.5674 41.2493 18.1005 41.2493 17.5244C41.2493 16.9483 40.7824 16.4814 40.2063 16.4814Z" fill="#A2DFFF"/>
<path fill-rule="evenodd" clip-rule="evenodd" d="M45.8881 32.6061H37.7388V24.4558C37.7388 23.9085 37.2928 23.4615 36.7455 23.4615H28.7918C28.2435 23.4615 27.7955 23.9085 27.7955 24.4558V32.6061H19.6462C19.0979 32.6061 18.6519 33.0531 18.6519 33.6004V41.554C18.6519 42.1024 19.0979 42.5504 19.6462 42.5504H27.7955V50.6987C27.7955 51.247 28.2425 51.693 28.7918 51.693H36.7455C37.2928 51.693 37.7388 51.247 37.7388 50.6987V42.5504H45.8881C46.4364 42.5504 46.8824 42.1024 46.8824 41.554V33.6004C46.8824 33.0531 46.4364 32.6061 45.8881 32.6061Z" fill="#A2DFFF"/>
<path d="M45.8881 31.5632H38.7818V24.4558C38.7818 23.3324 37.8679 22.4185 36.7454 22.4185H28.7918C27.6673 22.4185 26.7525 23.3324 26.7525 24.4558V31.5632H19.6462C18.5227 31.5632 17.6088 32.477 17.6088 33.6005V41.5541C17.6088 42.6786 18.5227 43.5934 19.6462 43.5934H26.7525V50.6987C26.7525 51.8222 27.6673 52.7361 28.7918 52.7361H36.7454C37.8689 52.7361 38.7818 51.8222 38.7818 50.6987V43.5934H45.8881C47.0115 43.5934 47.9254 42.6786 47.9254 41.5541V33.6005C47.9254 32.477 47.0115 31.5632 45.8881 31.5632ZM45.8394 41.5074H37.7388C37.1626 41.5074 36.6958 41.9743 36.6958 42.5504V50.6501H28.8385V42.5504C28.8385 41.9743 28.3716 41.5074 27.7955 41.5074H19.6948V33.6501H27.7955C28.3716 33.6501 28.8385 33.1833 28.8385 32.6071V24.5055H36.6958V32.6071C36.6958 33.1833 37.1626 33.6501 37.7388 33.6501H45.8394V41.5074Z" fill="#1977CC"/>
</svg>
