<svg width="91" height="83" viewBox="0 0 91 83" fill="none" xmlns="http://www.w3.org/2000/svg">
<path d="M57.2213 77.7363C47.4137 80.9731 36.9316 80.1981 27.707 75.5551C18.4823 70.9122 11.6187 62.9555 8.38047 53.1526C8.17447 52.5292 7.50214 52.191 6.87962 52.3969C6.25597 52.6028 5.91755 53.2748 6.12355 53.897C7.86095 59.1554 10.5763 63.9172 14.1959 68.0499C17.6911 72.0412 21.8779 75.2802 26.6385 77.6764C31.3991 80.0725 36.4947 81.5059 41.7839 81.937C42.8954 82.0275 44.0057 82.0727 45.1138 82.0727C49.4636 82.0727 53.7737 81.3758 57.9672 79.9922C58.5909 79.7863 58.9293 79.1143 58.7233 78.4921C58.5161 77.8698 57.8438 77.5304 57.2213 77.7363Z" fill="#1977CC"/>
<path d="M84.9732 40.1671C84.9698 40.1671 84.9664 40.1671 84.9641 40.1671C84.3121 40.1671 83.7813 40.6932 83.7756 41.346C83.7439 45.3294 83.0943 49.2766 81.8447 53.0767C80.6087 56.8339 78.8136 60.3693 76.508 63.5834C71.7202 70.2593 65.0502 75.1535 57.2211 77.7363C52.8046 79.1934 48.2296 79.8439 43.6264 79.6675C39.177 79.4978 34.8183 78.5644 30.6689 76.8934C22.3124 73.5289 15.3639 67.3394 11.1036 59.4665C10.7912 58.8895 10.0702 58.6745 9.49298 58.9868C8.91574 59.299 8.70069 60.0197 9.01308 60.5967C13.536 68.956 20.9123 75.5268 29.7804 79.0973C34.1844 80.8701 38.8115 81.8611 43.5347 82.0421C44.0565 82.0625 44.5783 82.0715 45.099 82.0715C49.4577 82.0715 53.7791 81.3735 57.9659 79.9922C66.276 77.2498 73.3558 72.0548 78.4389 64.967C80.8849 61.556 82.7909 57.8045 84.1016 53.8177C85.4281 49.7834 86.1186 45.593 86.1514 41.3629C86.157 40.7079 85.6296 40.1716 84.9732 40.1671Z" fill="#1977CC"/>
<path d="M85.97 40.7227C85.7742 40.4115 85.446 40.2079 85.0793 40.1728C84.7148 40.1378 84.3515 40.2724 84.0991 40.5394L78.7477 46.2073C78.2972 46.6848 78.3186 47.436 78.7963 47.8862C79.2739 48.3365 80.0255 48.315 80.476 47.8376L84.7737 43.2851L88.0017 48.418C88.2281 48.7766 88.614 48.9734 89.0091 48.9734C89.2252 48.9734 89.4437 48.9146 89.6406 48.7913C90.1964 48.4417 90.3639 47.7086 90.0142 47.1531L85.97 40.7227Z" fill="#1977CC"/>
<path d="M70.2846 35.8119H62.9773C62.597 34.5075 62.0798 33.2619 61.438 32.0933L66.6038 26.9299C67.8421 25.6922 67.8421 23.6864 66.6038 22.4487L63.6949 19.5412C62.4567 18.3035 60.4499 18.3035 59.2117 19.5412L54.0458 24.7045C52.8766 24.0631 51.6305 23.5472 50.3254 23.1659V15.8621C50.3254 14.1119 48.9061 12.6932 47.1551 12.6932H43.0408C41.2898 12.6932 39.8705 14.1119 39.8705 15.8621V23.1659C38.5655 23.5461 37.3193 24.0631 36.1501 24.7045L30.9843 19.5412C29.746 18.3035 27.7393 18.3035 26.501 19.5412L23.5921 22.4487C22.3539 23.6864 22.3539 25.6922 23.5921 26.9299L28.7579 32.0933C28.1162 33.2619 27.6 34.5075 27.2186 35.8119H19.9113C18.1603 35.8119 16.741 37.2306 16.741 38.9808V43.0932C16.741 44.8433 18.1603 46.262 19.9113 46.262H27.2186C27.6 47.5664 28.1162 48.812 28.7579 49.9807L23.5921 55.1441C22.3539 56.3817 22.3539 58.3876 23.5921 59.6253L26.501 62.5328C27.7393 63.7704 29.746 63.7704 30.9843 62.5328L36.1501 57.3694C37.3193 58.0109 38.5655 58.5267 39.8705 58.908V66.2119C39.8705 67.962 41.2898 69.3807 43.0408 69.3807H47.1551C48.9061 69.3807 50.3254 67.962 50.3254 66.2119V58.908C51.6305 58.5279 52.8766 58.0109 54.0458 57.3694L59.2117 62.5328C60.4499 63.7704 62.4567 63.7704 63.6949 62.5328L66.6038 59.6253C67.8421 58.3876 67.8421 56.3817 66.6038 55.1441L61.438 49.9807C62.0798 48.812 62.5959 47.5664 62.9773 46.262H70.2846C72.0356 46.262 73.4549 44.8433 73.4549 43.0932V38.9808C73.4538 37.2306 72.0356 35.8119 70.2846 35.8119ZM45.0974 49.9615C40.2055 49.9615 36.2395 45.9973 36.2395 41.1077C36.2395 36.2181 40.2055 32.2539 45.0974 32.2539C49.9893 32.2539 53.9553 36.2181 53.9553 41.1077C53.9565 45.9973 49.9904 49.9615 45.0974 49.9615Z" fill="#A2DFFF"/>
<path d="M70.2854 34.6238H63.8474C63.578 33.833 63.2588 33.0626 62.8933 32.3182L67.4444 27.7691C69.1434 26.071 69.1434 23.3071 67.4444 21.609L64.5356 18.7015C62.8366 17.0034 60.0715 17.0034 58.3715 18.7015L53.8214 23.2506C53.0767 22.8863 52.3047 22.5673 51.5147 22.2969V15.8619C51.5147 13.4601 49.56 11.5051 47.1559 11.5051H43.0416C40.6387 11.5051 38.6829 13.4589 38.6829 15.8619V22.2969C37.8917 22.5661 37.1208 22.8852 36.3761 23.2506L31.8249 18.7015C31.002 17.879 29.9075 17.4254 28.7429 17.4254C27.5782 17.4254 26.4837 17.8779 25.6608 18.7015L22.7519 21.609C21.053 23.3071 21.053 26.071 22.7519 27.7702L27.3032 32.3193C26.9387 33.0637 26.6195 33.8342 26.349 34.625H19.911C17.5081 34.625 15.5522 36.5788 15.5522 38.9817V43.0941C15.5522 45.4959 17.5069 47.4508 19.911 47.4508H26.349C26.6195 48.2416 26.9376 49.0121 27.3032 49.7565L22.7519 54.3055C21.053 56.0037 21.053 58.7675 22.7519 60.4668L25.6608 63.3743C26.4837 64.1967 27.5782 64.6504 28.7429 64.6504C29.9075 64.6504 31.002 64.1967 31.8249 63.3743L36.3761 58.8263C37.1208 59.1906 37.8917 59.5097 38.6829 59.7789V66.2139C38.6829 68.6157 40.6375 70.5707 43.0416 70.5707H47.1559C49.5588 70.5707 51.5147 68.6169 51.5147 66.2139V59.7789C52.3058 59.5085 53.0767 59.1906 53.8214 58.8252L58.3726 63.3731C59.1955 64.1956 60.29 64.6493 61.4547 64.6493C62.6194 64.6493 63.7139 64.1968 64.5367 63.3731L67.4456 60.4656C69.1445 58.7675 69.1445 56.0037 67.4456 54.3044L62.8944 49.7553C63.2588 49.0109 63.578 48.2394 63.8485 47.4497H70.2865C72.6895 47.4497 74.6453 45.4959 74.6453 43.0929V38.9806C74.6431 36.5776 72.6884 34.6238 70.2854 34.6238ZM72.2662 43.0918C72.2662 44.1835 71.3776 45.0728 70.2843 45.0728H62.977C62.4484 45.0728 61.9843 45.4212 61.8361 45.9281C61.4807 47.1431 60.9963 48.314 60.3964 49.408C60.1417 49.8707 60.2243 50.4466 60.5978 50.8199L65.7636 55.9833C66.5367 56.756 66.5367 58.0118 65.7636 58.7845L62.8547 61.692C62.4801 62.0665 61.9832 62.2724 61.4535 62.2724C60.9238 62.2724 60.4269 62.0665 60.0523 61.692L54.8865 56.5286C54.513 56.1553 53.938 56.0738 53.4739 56.3272C52.3794 56.928 51.208 57.4122 49.9924 57.7663C49.4853 57.9145 49.1367 58.3783 49.1367 58.9067V66.2105C49.1367 67.3022 48.2481 68.1915 47.1548 68.1915H43.0405C41.9483 68.1915 41.0586 67.3034 41.0586 66.2105V58.9067C41.0586 58.3783 40.71 57.9145 40.2029 57.7663C38.9862 57.411 37.8147 56.9268 36.7213 56.3272C36.5414 56.2288 36.3455 56.1802 36.1497 56.1802C35.8419 56.1802 35.5374 56.3001 35.3088 56.5286L30.143 61.692C29.7683 62.0665 29.2715 62.2724 28.7417 62.2724C28.212 62.2724 27.7151 62.0665 27.3405 61.692L24.4316 58.7845C23.6586 58.0118 23.6586 56.756 24.4316 55.9833L29.5974 50.8199C29.9709 50.4466 30.0535 49.8719 29.7989 49.408C29.199 48.314 28.7145 47.1431 28.3591 45.9281C28.2109 45.4212 27.7468 45.0728 27.2183 45.0728H19.911C18.8188 45.0728 17.9291 44.1847 17.9291 43.0918V38.9794C17.9291 37.8877 18.8176 36.9985 19.911 36.9985H27.2183C27.7468 36.9985 28.2109 36.65 28.3591 36.1432C28.7145 34.927 29.199 33.7561 29.7989 32.6632C30.0535 32.2005 29.9709 31.6247 29.5974 31.2513L24.4316 26.0879C23.6586 25.3152 23.6586 24.0595 24.4316 23.2868L27.3405 20.3793C27.7151 20.0048 28.212 19.7989 28.7417 19.7989C29.2715 19.7989 29.7683 20.0048 30.143 20.3793L35.3088 25.5426C35.6823 25.916 36.2573 25.9986 36.7213 25.744C37.8158 25.1433 38.9873 24.6591 40.2029 24.305C40.71 24.1568 41.0586 23.6929 41.0586 23.1646V15.8619C41.0586 14.7701 41.9471 13.8809 43.0405 13.8809H47.1548C48.247 13.8809 49.1367 14.769 49.1367 15.8619V23.1657C49.1367 23.6941 49.4853 24.1579 49.9924 24.3061C51.208 24.6602 52.3794 25.1444 53.4739 25.7452C53.9369 25.9986 54.5118 25.9171 54.8865 25.5438L60.0523 20.3804C60.8253 19.6077 62.0817 19.6088 62.8547 20.3804L65.7636 23.2879C66.5367 24.0595 66.5367 25.3164 65.7636 26.0891L60.5978 31.2525C60.2243 31.6258 60.1417 32.2005 60.3964 32.6644C60.9974 33.7584 61.4818 34.9293 61.8361 36.1443C61.9843 36.6512 62.4484 36.9996 62.977 36.9996H70.2843C71.3765 36.9996 72.2662 37.8877 72.2662 38.9806V43.0918Z" fill="#1977CC"/>
<path d="M45.0991 31.0657C39.5598 31.0657 35.0527 35.5706 35.0527 41.1073C35.0527 46.6441 39.5598 51.149 45.0991 51.149C50.6384 51.149 55.1455 46.6441 55.1455 41.1073C55.1455 35.5695 50.6384 31.0657 45.0991 31.0657ZM45.0991 48.7732C40.8705 48.7732 37.4296 45.334 37.4296 41.1073C37.4296 36.8807 40.8705 33.4415 45.0991 33.4415C49.3277 33.4415 52.7686 36.8807 52.7686 41.1073C52.7686 45.334 49.3277 48.7732 45.0991 48.7732Z" fill="#1977CC"/>
<path d="M45.0991 28.4558C38.1473 28.4558 32.5128 34.0887 32.5128 41.0362C32.5128 47.9837 38.1484 53.6166 45.0991 53.6166C52.0498 53.6166 57.6853 47.9837 57.6853 41.0362C57.6853 34.0887 52.0498 28.4558 45.0991 28.4558ZM45.0991 48.2337C41.1614 48.2337 37.9695 45.0434 37.9695 41.1075C37.9695 37.1716 41.1614 33.9812 45.0991 33.9812C49.0368 33.9812 52.2287 37.1716 52.2287 41.1075C52.2287 45.0434 49.0368 48.2337 45.0991 48.2337Z" fill="#A2DFFF"/>
<path d="M45.0988 32.7925C40.5125 32.7925 36.7808 36.5225 36.7808 41.1066C36.7808 45.6907 40.5125 49.4207 45.0988 49.4207C49.685 49.4207 53.4167 45.6907 53.4167 41.1066C53.4167 36.5225 49.685 32.7925 45.0988 32.7925ZM45.0988 47.0461C41.8232 47.0461 39.1577 44.3818 39.1577 41.1077C39.1577 37.8337 41.8232 35.1694 45.0988 35.1694C48.3744 35.1694 51.0398 37.8337 51.0398 41.1077C51.0398 44.3818 48.3744 47.0461 45.0988 47.0461Z" fill="#1977CC"/>
<path d="M45.099 27.2681C37.5031 27.2681 31.3242 33.4451 31.3242 41.0363C31.3242 48.6287 37.5031 54.8046 45.099 54.8046C52.6948 54.8046 58.8736 48.6276 58.8736 41.0363C58.8736 33.444 52.6937 27.2681 45.099 27.2681ZM45.099 52.4288C38.8138 52.4288 33.7011 47.3186 33.7011 41.0363C33.7011 34.7541 38.8138 29.6439 45.099 29.6439C51.3842 29.6439 56.4967 34.7541 56.4967 41.0363C56.4967 47.3186 51.383 52.4288 45.099 52.4288Z" fill="#1977CC"/>
<path d="M60.4169 2.97472C56.0129 1.20193 51.3858 0.21088 46.6626 0.0298671C41.7752 -0.156802 36.9184 0.532182 32.2314 2.07871C23.9213 4.82105 16.8415 10.0161 11.7584 17.1039C9.31243 20.5148 7.40638 24.2663 6.09569 28.2531C4.76915 32.2874 4.07871 36.4779 4.04588 40.7079C4.04022 41.3641 4.56882 41.9003 5.2253 41.9049C5.22869 41.9049 5.23207 41.9049 5.23433 41.9049C5.88628 41.9049 6.41712 41.3788 6.42278 40.726C6.45447 36.7426 7.10417 32.7954 8.35374 28.9953C9.58973 25.2381 11.3848 21.7027 13.6904 18.4886C18.4782 11.8127 25.1471 6.91852 32.9761 4.3357C37.3926 2.87855 41.9676 2.22918 46.5709 2.40453C51.0202 2.57423 55.379 3.50757 59.5284 5.17854C67.8849 8.54311 74.8334 14.7326 79.0937 22.6055C79.4061 23.1825 80.1271 23.3975 80.7043 23.0852C81.2816 22.773 81.4966 22.0523 81.1842 21.4753C76.6613 13.1159 69.2862 6.54519 60.4169 2.97472Z" fill="#1977CC"/>
<path d="M9.72087 34.2343L5.4232 38.7868L2.19514 33.654C1.84539 33.0985 1.11195 32.931 0.556208 33.2806C0.0004648 33.6302 -0.167056 34.3633 0.182689 34.9188L4.22795 41.3515C4.42376 41.6626 4.75199 41.8663 5.11871 41.9013C5.15719 41.9047 5.19568 41.907 5.23416 41.907C5.55901 41.907 5.87255 41.7735 6.09892 41.5348L11.4504 35.8668C11.9008 35.3894 11.8793 34.6382 11.4017 34.188C10.9229 33.7354 10.1713 33.7569 9.72087 34.2343Z" fill="#1977CC"/>
</svg>
