<svg width="549" height="588" viewBox="0 0 549 588" fill="none" xmlns="http://www.w3.org/2000/svg">
<g clip-path="url(#clip0)">
<path d="M57.2719 470.388C57.2719 470.388 57.4778 443.224 40.3189 422.859C25.116 404.824 17.0342 393.383 21.8387 388.108C26.6432 382.832 36.9042 381.565 50.803 396.14C64.6845 410.716 65.7656 451.154 63.8438 460.3L57.2719 470.388Z" fill="#1E68D7"/>
<path d="M60.2411 441.186C59.8464 441.186 59.4861 440.912 59.4003 440.501C53.3947 412.463 37.9688 396.963 29.3207 390.214C28.9432 389.923 28.8746 389.392 29.1663 389.015C29.458 388.639 29.9899 388.57 30.3674 388.861C39.2042 395.747 54.9561 411.572 61.0647 440.141C61.1677 440.604 60.8759 441.066 60.4127 441.152C60.3612 441.169 60.2925 441.186 60.2411 441.186Z" fill="white"/>
<path d="M56.688 480.494L49.7214 484.518C49.7214 484.518 47.9369 478.267 40.3183 476.486C32.6998 474.704 24.7552 475.064 19.4188 468.453C14.0823 461.842 20.5856 454.665 19.4188 449.784C18.2519 444.92 17.4798 443.515 7.92227 438.651C-1.65242 433.787 -5.42739 425.72 1.77936 420.239C8.98612 414.758 20.6885 418.783 27.7237 423.579C34.0039 427.861 39.9752 428.991 46.9932 429.848C53.994 430.704 65.439 434.626 63.6888 450.88C61.9214 467.168 56.688 480.494 56.688 480.494Z" fill="#95C5F5"/>
<path d="M29.8478 459.084C29.4874 459.084 29.1442 458.862 29.0241 458.485C28.8869 458.04 29.1271 457.543 29.5732 457.406C30.2081 457.2 45.0506 452.524 51.3307 457.56C51.7082 457.851 51.7597 458.399 51.468 458.759C51.1763 459.136 50.6272 459.187 50.2669 458.896C44.7074 454.443 30.2596 458.999 30.1051 459.05C30.0193 459.084 29.9335 459.084 29.8478 459.084Z" fill="white"/>
<path d="M57.4789 479.175C57.0499 479.175 56.6724 478.85 56.6209 478.405C52.7945 442.334 9.26227 425.224 8.8333 425.052C8.38716 424.881 8.1641 424.384 8.33569 423.939C8.50728 423.494 9.00489 423.271 9.45102 423.442C9.89715 423.614 54.4074 441.101 58.3368 478.216C58.3883 478.679 58.0451 479.107 57.5818 479.158C57.5475 479.175 57.5132 479.175 57.4789 479.175Z" fill="white"/>
<path d="M484.272 456.772C484.477 456.189 491.821 418.355 484.272 391.533C477.339 366.938 468.451 357.86 455.685 355.856C442.919 353.852 437.376 363.033 444.154 375.45C450.932 387.885 467.233 404.396 471.248 432.177C472.895 443.618 474.268 453.552 474.268 453.552L484.272 456.772Z" fill="#0051D8"/>
<path opacity="0.2" d="M484.272 456.772C484.477 456.189 491.821 418.355 484.272 391.533C477.339 366.938 468.451 357.86 455.685 355.856C442.919 353.852 437.376 363.033 444.154 375.45C450.932 387.885 467.233 404.396 471.248 432.177C472.895 443.618 474.268 453.552 474.268 453.552L484.272 456.772Z" fill="#0051D8"/>
<path d="M479.961 435.054C479.944 435.054 479.926 435.054 479.909 435.054C479.429 435.02 479.069 434.626 479.103 434.146C480.853 403.522 470.798 376.187 452.833 362.776C452.455 362.485 452.369 361.954 452.661 361.577C452.953 361.2 453.485 361.115 453.862 361.406C472.274 375.142 482.603 403.043 480.819 434.232C480.802 434.711 480.424 435.054 479.961 435.054Z" fill="white"/>
<path d="M504.016 476.468C503.038 469.429 507.088 458.878 516.714 456.378C526.34 453.894 530.63 448.362 527.164 442.333C523.68 436.304 524.504 430.772 533.238 428.272C541.972 425.771 549.625 421.386 544.597 412.206C540.942 405.543 540.136 401.244 549.093 388.108C556.523 377.215 550.448 370.826 541.148 372.042C531.848 373.258 526.1 384.288 520.3 386.155C514.5 388.022 513.128 378.122 505.458 382.541C497.787 386.96 498.268 398.281 498.011 406.177C497.77 414.073 497.256 415.854 490.323 414.895C483.391 413.919 476.613 415.066 476.751 431.8C476.871 446.153 484.541 463.931 484.541 463.931L504.016 476.468Z" fill="#95C5F5"/>
<path d="M491.846 465.763C491.812 465.763 491.777 465.763 491.743 465.763C491.28 465.712 490.937 465.284 490.988 464.821C495.827 421.66 532.924 385.281 542.602 377.899C542.98 377.608 543.511 377.677 543.803 378.053C544.095 378.43 544.026 378.961 543.649 379.252C534.108 386.532 497.474 422.448 492.704 465.01C492.652 465.438 492.275 465.763 491.846 465.763Z" fill="white"/>
<path d="M508.772 419.656C508.429 419.656 508.103 419.451 507.965 419.091C507.794 418.646 508.034 418.149 508.463 417.995C522.31 412.856 537.976 415.271 538.645 415.374C539.109 415.443 539.435 415.888 539.349 416.35C539.28 416.813 538.817 417.121 538.371 417.07C538.216 417.036 522.464 414.621 509.063 419.588C508.978 419.639 508.875 419.656 508.772 419.656Z" fill="white"/>
<path d="M496.449 445.57C496.209 445.57 495.968 445.467 495.797 445.279C486.565 434.848 484.575 422.396 484.489 421.865C484.42 421.403 484.747 420.958 485.21 420.889C485.69 420.82 486.119 421.146 486.188 421.608C486.205 421.728 488.195 434.094 497.084 444.148C497.393 444.508 497.358 445.039 497.015 445.364C496.861 445.501 496.655 445.57 496.449 445.57Z" fill="white"/>
<path d="M56.6921 215.394V480.493L328.524 323.845V82.8271L126.392 199.311L119.425 179.238L56.6921 215.394Z" fill="#0051D8"/>
<path d="M56.6921 480.493L70.6424 239.492L342.474 82.8271L328.524 323.845L56.6921 480.493Z" fill="#E0E0E0"/>
<path d="M56.6921 480.493L77.6089 243.5L349.441 86.8516L328.524 323.845L56.6921 480.493Z" fill="#0051D8"/>
<path d="M98.5259 239.494V504.593L370.358 347.945V106.927L168.225 223.428L161.259 203.338L98.5259 239.494Z" fill="#5A98FF"/>
<path d="M98.5259 504.593L112.459 263.592L384.291 106.927L370.358 347.945L98.5259 504.593Z" fill="#E0E0E0"/>
<path d="M98.5259 504.593L119.425 267.6L391.257 110.952L370.358 347.945L98.5259 504.593Z" fill="#5A98FF"/>
<path d="M328.515 588.946C279.732 560.822 234.45 530.267 213.791 494.385L276.524 458.229L328.515 588.946Z" fill="#E0E0E0"/>
<path d="M147.299 267.599V532.716L419.13 376.051V135.05L216.998 251.534L210.032 231.46L147.299 267.599Z" fill="#1763E1"/>
<path d="M225.613 345.993C224.927 345.993 224.824 345.205 224.824 344.725V118.608C224.824 117.015 225.991 115.011 227.363 114.206L423.558 1.14761C423.884 0.95921 424.193 0.856445 424.451 0.856445C425.137 0.856445 425.24 1.64431 425.24 2.12388V228.241C425.24 229.834 424.073 231.838 422.7 232.643L226.505 345.701C226.179 345.89 225.87 345.993 225.613 345.993Z" fill="white"/>
<path d="M424.347 1.72988C424.365 1.81551 424.399 1.93541 424.399 2.12381V228.241C424.399 229.508 423.387 231.255 422.288 231.889L226.076 344.948C225.922 345.033 225.802 345.085 225.716 345.102C225.699 345.016 225.681 344.896 225.681 344.708V118.608C225.681 117.34 226.694 115.593 227.792 114.96L423.987 1.88402C424.142 1.79839 424.262 1.747 424.347 1.72988ZM424.45 0C424.056 0 423.593 0.13702 423.129 0.41106L226.934 113.47C225.287 114.412 223.966 116.724 223.966 118.608V344.725C223.966 346.061 224.635 346.849 225.613 346.849C226.007 346.849 226.471 346.712 226.934 346.438L423.129 233.379C424.776 232.437 426.098 230.125 426.098 228.241V2.12381C426.098 0.770737 425.428 0 424.45 0Z" fill="#DBEDFF"/>
<path d="M244.885 127.223L314.584 87.0588V167.404L244.885 207.568V127.223Z" fill="#D1E2F3"/>
<path d="M304.118 107.15V131.248L301.939 132.464C301.939 132.464 301.939 129.158 301.939 125.082C301.939 121.006 298.61 119.618 294.509 121.982L264.944 139.024C260.843 141.387 257.514 146.611 257.514 150.688V158.07L255.335 159.371V135.256L304.118 107.15Z" fill="white"/>
<path d="M290.682 168.569C287.113 170.625 284.213 168.466 284.213 163.739V125.083L275.256 129.947V168.895C275.256 173.622 272.356 179.137 268.787 181.192L262.318 184.926V187.478L297.168 167.387V164.835C297.151 164.835 294.251 166.514 290.682 168.569Z" fill="white"/>
<path d="M328.516 83.0507C328.516 85.2773 330.506 85.911 332.977 84.5066L400.738 45.4559C403.191 44.0343 405.199 41.0884 405.199 38.8618C405.199 36.6524 403.208 36.0015 400.738 37.406L332.977 76.4566C330.506 77.8782 328.516 80.8242 328.516 83.0507Z" fill="#0B295C"/>
<path d="M328.516 107.149C328.516 109.375 330.506 110.009 332.977 108.605L400.738 69.554C403.191 68.1325 405.199 65.1865 405.199 62.96C405.199 60.7505 403.208 60.0997 400.738 61.5041L332.977 100.555C330.506 101.976 328.516 104.922 328.516 107.149Z" fill="#0B295C"/>
<path d="M328.516 131.248C328.516 133.475 330.506 134.108 332.977 132.704L400.738 93.6532C403.191 92.2316 405.199 89.2856 405.199 87.0591C405.199 84.8496 403.208 84.1988 400.738 85.6032L332.977 124.654C330.506 126.075 328.516 129.021 328.516 131.248Z" fill="#0B295C"/>
<path d="M328.516 155.346C328.516 157.573 330.506 158.206 332.977 156.802L400.738 117.751C403.191 116.33 405.199 113.384 405.199 111.157C405.199 108.948 403.208 108.297 400.738 109.701L332.977 148.752C330.506 150.174 328.516 153.12 328.516 155.346Z" fill="#0B295C"/>
<path d="M244.885 227.658C244.885 229.884 246.875 230.518 249.346 229.113L400.739 141.866C403.193 140.444 405.201 137.499 405.201 135.272C405.201 133.063 403.21 132.412 400.739 133.816L249.346 221.064C246.875 222.485 244.885 225.431 244.885 227.658Z" fill="#0B295C"/>
<path d="M244.885 251.756C244.885 253.965 246.875 254.616 249.346 253.212L400.739 165.964C403.193 164.542 405.201 161.597 405.201 159.37C405.201 157.143 403.21 156.51 400.739 157.914L249.346 245.162C246.875 246.583 244.885 249.529 244.885 251.756Z" fill="#0B295C"/>
<path d="M244.885 275.855C244.885 278.064 246.875 278.715 249.346 277.311L400.739 190.063C403.193 188.642 405.201 185.696 405.201 183.469C405.201 181.243 403.21 180.609 400.739 182.013L249.346 269.261C246.875 270.682 244.885 273.646 244.885 275.855Z" fill="#0B295C"/>
<path d="M147.299 532.717L196.081 319.822L467.913 163.174L419.13 376.051L147.299 532.717Z" fill="#0051D8"/>
<path d="M213.808 336.504V494.385L276.524 458.229V300.347L213.808 336.504Z" fill="#0742A6"/>
<path d="M328.585 587.918C323.249 583.962 271.823 544.705 245.673 488.647C217.841 428.975 217.858 359.369 217.876 333.181V332.359L404.359 224.901C404.342 251.346 404.393 321.037 432.328 380.915C457.878 435.672 507.347 474.466 515.189 480.392L328.585 587.918Z" fill="white"/>
<path d="M403.484 226.392C403.484 253.933 404.016 322.323 431.521 381.293C456.213 434.199 503.16 472.274 513.61 480.307L328.636 586.908C321.413 581.462 271.892 542.89 246.428 488.288C218.665 428.787 218.699 359.335 218.699 333.181V332.856L403.484 226.392ZM405.2 223.428L217 331.88C217 356.526 216.486 428.136 244.884 489.025C272.767 548.782 328.516 588.963 328.516 588.963L516.715 480.512C516.715 480.512 460.949 440.348 433.066 380.573C404.668 319.668 405.2 248.058 405.2 223.428Z" fill="#DBEDFF"/>
<path d="M403.484 226.392C403.484 253.933 404.016 322.323 431.521 381.293C456.213 434.199 503.16 472.274 513.61 480.307L328.636 586.908C321.412 581.462 271.892 542.89 246.428 488.288C218.665 428.787 218.699 359.335 218.699 333.181V332.856L403.484 226.392ZM405.2 223.428L217 331.88C217 356.526 216.486 428.136 244.884 489.025C272.767 548.782 328.516 588.963 328.516 588.963L516.715 480.512C516.715 480.512 460.949 440.348 433.066 380.573C404.668 319.668 405.2 248.058 405.2 223.428Z" fill="#DBEDFF"/>
<path d="M383.906 259.791L324.381 294.097C321.91 295.519 319.971 298.43 320.057 300.588C320.143 302.763 322.219 303.363 324.69 301.941L384.214 267.635C386.668 266.213 388.59 263.302 388.504 261.144C388.418 258.968 386.376 258.369 383.906 259.791Z" fill="#0B295C"/>
<path d="M385.171 283.153L325.646 317.459C323.176 318.881 321.322 321.741 321.494 323.865C321.683 325.971 323.845 326.537 326.298 325.115L385.84 290.809C388.294 289.387 390.13 286.527 389.941 284.42C389.769 282.296 387.642 281.731 385.171 283.153Z" fill="#0B295C"/>
<path d="M387.557 305.88L328.032 340.187C325.562 341.608 323.794 344.417 324.086 346.472C324.378 348.528 326.625 349.042 329.096 347.62L388.621 313.314C391.074 311.892 392.825 309.083 392.533 307.028C392.224 304.973 390.011 304.476 387.557 305.88Z" fill="#0B295C"/>
<path d="M391.128 327.924L331.604 362.23C329.133 363.652 327.452 366.409 327.863 368.396C328.275 370.383 330.609 370.828 333.08 369.424L392.604 335.117C395.058 333.696 396.722 330.938 396.31 328.951C395.881 326.982 393.582 326.519 391.128 327.924Z" fill="#0B295C"/>
<path d="M395.97 349.248L336.446 383.554C333.992 384.976 332.396 387.682 332.928 389.6C333.46 391.518 335.897 391.912 338.368 390.491L397.892 356.184C400.363 354.763 401.907 352.074 401.375 350.155C400.826 348.237 398.424 347.826 395.97 349.248Z" fill="#0B295C"/>
<path d="M402.161 369.783L257.1 453.383C254.646 454.804 253.153 457.442 253.822 459.292C254.491 461.124 257.048 461.45 259.502 460.045L404.563 376.446C407.017 375.024 408.458 372.387 407.789 370.554C407.12 368.704 404.615 368.362 402.161 369.783Z" fill="#0B295C"/>
<path d="M409.885 389.377L264.823 472.976C262.369 474.398 261.013 476.967 261.82 478.714C262.626 480.461 265.303 480.718 267.757 479.313L412.819 395.714C415.29 394.292 416.611 391.74 415.787 389.976C414.998 388.246 412.355 387.972 409.885 389.377Z" fill="#0B295C"/>
<path d="M419.352 408.081L274.29 491.68C271.837 493.102 270.601 495.602 271.579 497.263C272.557 498.925 275.371 499.096 277.825 497.675L422.887 414.075C425.357 412.654 426.524 410.17 425.546 408.526C424.568 406.865 421.806 406.659 419.352 408.081Z" fill="#0B295C"/>
<path d="M430.502 425.738L285.44 509.337C282.987 510.759 281.871 513.191 283.004 514.767C284.136 516.343 287.053 516.445 289.507 515.024L434.569 431.425C437.022 430.003 438.103 427.588 436.971 426.029C435.856 424.454 432.973 424.317 430.502 425.738Z" fill="#0B295C"/>
<path d="M443.175 442.541L298.114 526.14C295.66 527.562 294.648 529.942 295.9 531.432C297.153 532.922 300.173 532.974 302.644 531.552L447.705 447.953C450.159 446.531 451.137 444.185 449.885 442.695C448.632 441.205 445.629 441.119 443.175 442.541Z" fill="#0B295C"/>
<path d="M457.191 458.555L312.13 542.155C309.659 543.576 308.766 545.888 310.139 547.327C311.512 548.749 314.635 548.749 317.088 547.327L462.15 463.728C464.604 462.306 465.479 460.011 464.106 458.59C462.751 457.151 459.662 457.134 457.191 458.555Z" fill="#0B295C"/>
<path d="M472.534 473.832L327.473 557.431C325.019 558.853 324.212 561.114 325.705 562.484C327.198 563.837 330.407 563.786 332.878 562.364L477.939 478.765C480.393 477.343 481.182 475.117 479.689 473.747C478.179 472.376 474.988 472.411 472.534 473.832Z" fill="#0B295C"/>
<path opacity="0.8" d="M302.833 306.514L234.404 345.958C235.159 370.691 237.99 406.401 248.371 442.352L316.801 402.907C306.42 366.957 303.588 331.246 302.833 306.514Z" fill="#F4FAFF"/>
<path d="M262.298 340.478C262.298 336.641 261.045 333.695 258.952 331.794L234.38 345.958C234.586 352.501 234.929 359.814 235.53 367.676C238.224 368.121 241.398 367.625 244.83 366.049C254.473 361.544 262.298 350.103 262.298 340.478Z" fill="#D1E2F3"/>
<path d="M310.974 379.272C306.409 373.517 297.126 355.807 293.163 348.082C292.459 346.712 290.451 346.901 289.988 348.374C283.142 370.331 282.558 393.333 282.558 393.333C277.05 388.983 273.104 384.667 268.025 377.199C267.287 376.12 265.622 376.411 265.296 377.679C257.815 406.436 261.573 434.73 261.573 434.73L316.773 402.925C314.491 394.978 312.587 387.065 310.974 379.272Z" fill="#D1E2F3"/>
</g>
<defs>
<clipPath id="clip0">
<rect width="549" height="588" fill="white"/>
</clipPath>
</defs>
</svg>
