<svg width="87" height="69" viewBox="0 0 87 69" fill="none" xmlns="http://www.w3.org/2000/svg">
<rect x="23.7272" y="26.3636" width="39.5455" height="23.7273" fill="white"/>
<circle cx="43.5" cy="36.9091" r="2.63636" fill="#A2DFFF"/>
<circle cx="74.4773" cy="12.5227" r="3.29545" fill="#E0F4FC"/>
<circle cx="82.3863" cy="37.5682" r="3.29545" fill="#E0F4FC"/>
<circle cx="74.4773" cy="63.9318" r="3.29545" fill="#E0F4FC"/>
<circle cx="12.5227" cy="63.9318" r="3.29545" fill="#E0F4FC"/>
<circle cx="4.61354" cy="38.8864" r="3.29545" fill="#E0F4FC"/>
<circle cx="12.5227" cy="12.5227" r="3.29545" fill="#E0F4FC"/>
<path d="M61.7145 52.4712H25.2862C23.11 52.4712 21.3394 50.7011 21.3394 48.5243V27.9355C21.3394 25.7587 23.11 23.9886 25.2862 23.9886H61.7145C63.8906 23.9886 65.6606 25.7587 65.6606 27.9355V48.5243C65.6606 50.7011 63.8906 52.4712 61.7145 52.4712ZM25.2862 26.625C24.5634 26.625 23.9757 27.2133 23.9757 27.9355V48.5243C23.9757 49.2465 24.5634 49.8348 25.2862 49.8348H61.7145C62.4366 49.8348 63.0243 49.2465 63.0243 48.5243V27.9355C63.0243 27.2133 62.4366 26.625 61.7145 26.625H25.2862Z" fill="#1977CC"/>
<path d="M56.9798 26.625H30.0208C29.2929 26.625 28.7026 26.0354 28.7026 25.3068V14.7974C28.7026 6.63854 35.3405 0 43.5 0C51.6595 0 58.298 6.63854 58.298 14.7974V25.3068C58.298 26.0354 57.7078 26.625 56.9798 26.625ZM31.339 23.9886H55.6616V14.7974C55.6616 8.09188 50.2061 2.63636 43.5 2.63636C36.7945 2.63636 31.339 8.09188 31.339 14.7974V23.9886Z" fill="#1977CC"/>
<path d="M43.5 39.9832C41.5722 39.9832 40.0043 38.4153 40.0043 36.4882C40.0043 34.5599 41.5722 32.9919 43.5 32.9919C45.4277 32.9919 46.9956 34.5599 46.9956 36.4882C46.9956 38.4153 45.4277 39.9832 43.5 39.9832ZM43.5 35.6283C43.0262 35.6283 42.6407 36.0145 42.6407 36.4882C42.6407 36.9619 43.0262 37.3468 43.5 37.3468C43.9737 37.3468 44.3592 36.9619 44.3592 36.4882C44.3592 36.0145 43.9737 35.6283 43.5 35.6283Z" fill="#1977CC"/>
<path d="M43.5002 43.4679C42.7722 43.4679 42.182 42.8784 42.182 42.1497V38.6329C42.182 37.9043 42.7722 37.3147 43.5002 37.3147C44.2281 37.3147 44.8183 37.9043 44.8183 38.6329V42.1497C44.8183 42.8784 44.2281 43.4679 43.5002 43.4679Z" fill="#1977CC"/>
<path d="M22.6576 31.1214H12.1476C11.4196 31.1214 10.8294 30.5318 10.8294 29.8032V15.7254C10.8294 14.9968 11.4196 14.4072 12.1476 14.4072C12.8755 14.4072 13.4657 14.9968 13.4657 15.7254V28.485H22.6576C23.3856 28.485 23.9758 29.0746 23.9758 29.8032C23.9758 30.5318 23.3856 31.1214 22.6576 31.1214Z" fill="#1977CC"/>
<path d="M12.1475 17.0436C9.54392 17.0436 7.42569 14.926 7.42569 12.3219C7.42569 9.71768 9.54392 7.6001 12.1475 7.6001C14.751 7.6001 16.8692 9.71768 16.8692 12.3219C16.8692 14.926 14.751 17.0436 12.1475 17.0436ZM12.1475 10.2365C10.9973 10.2365 10.0621 11.1723 10.0621 12.3219C10.0621 13.4714 10.9973 14.4073 12.1475 14.4073C13.2976 14.4073 14.2329 13.4714 14.2329 12.3219C14.2329 11.1723 13.2976 10.2365 12.1475 10.2365Z" fill="#1977CC"/>
<path d="M12.1476 62.051C11.4196 62.051 10.8294 61.4615 10.8294 60.7329V46.6551C10.8294 45.9265 11.4196 45.3369 12.1476 45.3369H22.6576C23.3856 45.3369 23.9758 45.9265 23.9758 46.6551C23.9758 47.3837 23.3856 47.9733 22.6576 47.9733H13.4657V60.7329C13.4657 61.4615 12.8755 62.051 12.1476 62.051Z" fill="#1977CC"/>
<path d="M12.1475 68.8582C9.54395 68.8582 7.42572 66.7406 7.42572 64.1364C7.42572 61.5323 9.54395 59.4147 12.1475 59.4147C14.751 59.4147 16.8693 61.5323 16.8693 64.1364C16.8693 66.7406 14.751 68.8582 12.1475 68.8582ZM12.1475 62.051C10.9973 62.051 10.0621 62.9869 10.0621 64.1364C10.0621 65.286 10.9973 66.2218 12.1475 66.2218C13.2977 66.2218 14.2329 65.286 14.2329 64.1364C14.2329 62.9869 13.2977 62.051 12.1475 62.051Z" fill="#1977CC"/>
<path d="M22.6575 39.548H8.12531C7.39735 39.548 6.80713 38.9584 6.80713 38.2298C6.80713 37.5012 7.39735 36.9116 8.12531 36.9116H22.6575C23.3855 36.9116 23.9757 37.5012 23.9757 38.2298C23.9757 38.9584 23.3855 39.548 22.6575 39.548Z" fill="#1977CC"/>
<path d="M4.72177 42.9516C2.11823 42.9516 0 40.834 0 38.2298C0 35.6256 2.11823 33.5081 4.72177 33.5081C7.32531 33.5081 9.44354 35.6256 9.44354 38.2298C9.44354 40.834 7.32531 42.9516 4.72177 42.9516ZM4.72177 36.1444C3.57158 36.1444 2.63636 37.0803 2.63636 38.2298C2.63636 39.3794 3.57158 40.3152 4.72177 40.3152C5.87196 40.3152 6.80717 39.3794 6.80717 38.2298C6.80717 37.0803 5.87196 36.1444 4.72177 36.1444Z" fill="#1977CC"/>
<path d="M74.8531 31.1214H64.3424C63.6145 31.1214 63.0242 30.5318 63.0242 29.8032C63.0242 29.0746 63.6145 28.485 64.3424 28.485H73.5349V15.7254C73.5349 14.9968 74.1251 14.4072 74.8531 14.4072C75.5811 14.4072 76.1713 14.9968 76.1713 15.7254V29.8032C76.1713 30.5318 75.5811 31.1214 74.8531 31.1214Z" fill="#1977CC"/>
<path d="M74.8531 17.0436C72.2496 17.0436 70.1313 14.926 70.1313 12.3219C70.1313 9.71768 72.2496 7.6001 74.8531 7.6001C77.4566 7.6001 79.5742 9.71768 79.5742 12.3219C79.5742 14.926 77.4566 17.0436 74.8531 17.0436ZM74.8531 10.2365C73.7029 10.2365 72.7677 11.1723 72.7677 12.3219C72.7677 13.4714 73.7029 14.4073 74.8531 14.4073C76.0026 14.4073 76.9379 13.4714 76.9379 12.3219C76.9379 11.1723 76.0026 10.2365 74.8531 10.2365Z" fill="#1977CC"/>
<path d="M74.8531 62.051C74.1251 62.051 73.5349 61.4615 73.5349 60.7329V47.9733H64.3424C63.6145 47.9733 63.0242 47.3837 63.0242 46.6551C63.0242 45.9265 63.6145 45.3369 64.3424 45.3369H74.8531C75.5811 45.3369 76.1713 45.9265 76.1713 46.6551V60.7329C76.1713 61.4615 75.5811 62.051 74.8531 62.051Z" fill="#1977CC"/>
<path d="M74.8531 68.8582C72.2495 68.8582 70.1313 66.7406 70.1313 64.1364C70.1313 61.5323 72.2495 59.4147 74.8531 59.4147C77.4566 59.4147 79.5742 61.5323 79.5742 64.1364C79.5742 66.7406 77.4566 68.8582 74.8531 68.8582ZM74.8531 62.051C73.7029 62.051 72.7677 62.9869 72.7677 64.1364C72.7677 65.286 73.7029 66.2218 74.8531 66.2218C76.0026 66.2218 76.9378 65.286 76.9378 64.1364C76.9378 62.9869 76.0026 62.051 74.8531 62.051Z" fill="#1977CC"/>
<path d="M78.8752 39.548H64.3424C63.6144 39.548 63.0242 38.9584 63.0242 38.2298C63.0242 37.5012 63.6144 36.9116 64.3424 36.9116H78.8752C79.6032 36.9116 80.1934 37.5012 80.1934 38.2298C80.1934 38.9584 79.6032 39.548 78.8752 39.548Z" fill="#1977CC"/>
<path d="M82.2788 42.9516C79.6752 42.9516 77.557 40.834 77.557 38.2298C77.557 35.6256 79.6752 33.5081 82.2788 33.5081C84.8823 33.5081 86.9999 35.6256 86.9999 38.2298C86.9999 40.834 84.8823 42.9516 82.2788 42.9516ZM82.2788 36.1444C81.1286 36.1444 80.1934 37.0803 80.1934 38.2298C80.1934 39.3794 81.1286 40.3152 82.2788 40.3152C83.4283 40.3152 84.3635 39.3794 84.3635 38.2298C84.3635 37.0803 83.4283 36.1444 82.2788 36.1444Z" fill="#1977CC"/>
</svg>
