<svg width="80" height="78" viewBox="0 0 80 78" fill="none" xmlns="http://www.w3.org/2000/svg">
<path d="M7.3222 51.9214L38.6082 46.5961H43.2678L43.9334 43.2678H51.2557L58.5779 39.2738L60.5749 36.6112L62.5719 37.9425L65.9002 40.6052L71.8911 41.2708V38.6082L62.5719 37.2769L61.2406 35.9456V24.6294H50.59V11.9818L43.2678 12.6475V5.99092H63.9032L65.2345 3.99394L62.5719 1.33131L41.2708 0.665649L37.2768 3.32828L36.6112 11.9818L27.9576 12.6475L29.2889 24.6294H27.9576L18.6384 25.9607V38.6082L7.98786 39.2738L7.3222 51.9214Z" fill="white"/>
<path d="M39.2739 46.5961L5.32532 53.9183L9.98493 66.5658H41.9365H57.2467L67.2316 62.5719L39.2739 46.5961Z" fill="#E0F4FC"/>
<path d="M58.5779 38.6082L60.5749 35.9456L63.9032 38.6082L68.5628 41.2708L73.8881 42.6021L78.5477 43.2678V50.59V57.9123L76.5507 65.2345L73.8881 69.2285L69.8941 73.2224L66.5658 74.5538L63.9032 75.8851H60.5749L57.9123 74.5538L53.9183 73.2224L49.9243 71.2255L43.2678 60.5749V43.2678H45.9304L53.9183 41.9365L58.5779 38.6082Z" fill="#A2DFFF"/>
<path d="M59.6581 44.466L61.0145 42.6022L63.2753 44.466L66.4403 46.3299L70.0574 47.2618L73.2225 47.7277V52.8533V57.9789L71.866 63.1045L70.0574 65.9002L67.3446 68.696L65.0838 69.6279L63.2753 70.5598H61.0145L59.2059 69.6279L56.4931 68.696L53.7802 67.2981L49.2587 59.8427V47.7277H51.0673L56.4931 46.7958L59.6581 44.466Z" fill="white"/>
<path d="M78.3448 41.2802L78.0159 41.3201C77.2856 41.4077 76.5508 41.4521 75.8153 41.4532C74.9324 41.4468 74.0513 41.3742 73.1793 41.2362V38.6082C73.1793 38.2551 73.039 37.9165 72.7893 37.6668C72.5396 37.4171 72.201 37.2769 71.8479 37.2769H64.4285C63.75 36.7072 63.115 36.0878 62.5287 35.4237V25.295C62.5287 24.9419 62.3885 24.6033 62.1388 24.3536C61.8891 24.104 61.5505 23.9637 61.1974 23.9637H51.8782V11.9819C51.8782 11.6288 51.7379 11.2901 51.4882 11.0405C51.2386 10.7908 50.8999 10.6505 50.5469 10.6505H43.8903V7.67238L61.1974 6.8483V10.6505C61.1974 11.0036 61.3377 11.3423 61.5873 11.5919C61.837 11.8416 62.1756 11.9819 62.5287 11.9819C62.792 11.9819 63.0494 12.0599 63.2684 12.2062C63.4873 12.3525 63.6579 12.5604 63.7587 12.8037C63.8595 13.047 63.8858 13.3146 63.8344 13.5729C63.7831 13.8312 63.6563 14.0684 63.4701 14.2546C63.2839 14.4407 63.0467 14.5675 62.7884 14.6189C62.5302 14.6703 62.2625 14.6439 62.0192 14.5431C61.776 14.4424 61.5681 14.2717 61.4218 14.0528C61.2755 13.8339 61.1974 13.5765 61.1974 13.3132H58.5348C58.5349 14.0454 58.7363 14.7634 59.117 15.3889C59.4976 16.0143 60.0429 16.5231 60.6932 16.8596C61.3435 17.1961 62.0738 17.3474 62.8042 17.2969C63.5346 17.2463 64.2371 16.996 64.8349 16.5732C65.4327 16.1505 65.9028 15.5715 66.1938 14.8996C66.4847 14.2277 66.5854 13.4887 66.4848 12.7635C66.3841 12.0383 66.0861 11.3546 65.6232 10.7874C65.1603 10.2201 64.5503 9.79094 63.86 9.54688V6.72182L65.2539 6.65659C65.5961 6.64049 65.9188 6.49315 66.1551 6.2452C66.3914 5.99726 66.523 5.66778 66.5227 5.32527V3.99395C66.5227 2.93469 66.1019 1.91881 65.3529 1.1698C64.6039 0.42079 63.588 0 62.5287 0H39.8963C38.8371 0 37.8212 0.42079 37.0722 1.1698C36.3232 1.91881 35.9024 2.93469 35.9024 3.99395V10.6505H29.2458C28.8927 10.6505 28.5541 10.7908 28.3044 11.0405C28.0547 11.2901 27.9145 11.6288 27.9145 11.9819V23.9637H18.5952C18.2422 23.9637 17.9035 24.104 17.6539 24.3536C17.4042 24.6033 17.2639 24.9419 17.2639 25.295V37.2769H7.94471C7.59162 37.2769 7.25299 37.4171 7.00332 37.6668C6.75365 37.9165 6.61339 38.2551 6.61339 38.6082V51.6405L5.03045 51.9453C4.84603 51.9806 4.67117 52.0545 4.51734 52.1622C4.3635 52.2699 4.23419 52.4089 4.13788 52.5701C4.04157 52.7312 3.98045 52.911 3.95852 53.0975C3.9366 53.2839 3.95437 53.473 4.01066 53.6521L9.78059 72.1055C8.99913 72.285 8.26166 72.6196 7.61188 73.0893L6.53218 73.8881C5.87322 74.3269 5.09922 74.561 4.30755 74.561C3.51587 74.561 2.74188 74.3269 2.08292 73.8881C1.79954 73.6943 1.45225 73.6174 1.11356 73.6736C0.774873 73.7297 0.470968 73.9146 0.265309 74.1895C0.0596507 74.4644 -0.0318615 74.8081 0.00988215 75.1489C0.0516258 75.4896 0.223398 75.8011 0.48933 76.0182C1.60931 76.7957 2.94015 77.2124 4.30355 77.2124C5.66695 77.2124 6.99779 76.7957 8.11778 76.0182L9.19614 75.2194C9.85532 74.7799 10.6298 74.5454 11.4221 74.5454C12.2144 74.5454 12.9889 74.7799 13.6481 75.2194L14.7251 76.0182C15.845 76.7954 17.1755 77.2119 18.5387 77.2119C19.9018 77.2119 21.2324 76.7954 22.3522 76.0182L23.4319 75.2194C24.0909 74.78 24.8652 74.5456 25.6572 74.5456C26.4492 74.5456 27.2235 74.78 27.8825 75.2194L28.9595 76.0182C30.0795 76.7957 31.4104 77.2124 32.7738 77.2124C34.1372 77.2124 35.468 76.7957 36.588 76.0182L37.6677 75.2194C38.3267 74.78 39.101 74.5456 39.893 74.5456C40.685 74.5456 41.4593 74.78 42.1183 75.2194L43.1953 76.0182C44.3153 76.7957 45.6461 77.2124 47.0095 77.2124C48.3729 77.2124 49.7038 76.7957 50.8238 76.0182L51.9021 75.2194C52.5613 74.7799 53.3358 74.5454 54.1281 74.5454C54.9204 74.5454 55.6949 74.7799 56.3541 75.2194L57.4311 76.0182C58.551 76.7952 59.8816 77.2116 61.2447 77.2116C62.6077 77.2116 63.9383 76.7952 65.0582 76.0182L66.1379 75.2194C66.7971 74.7799 67.5716 74.5454 68.3639 74.5454C69.1561 74.5454 69.9307 74.7799 70.5898 75.2194L71.6655 76.0182C72.7855 76.7964 74.1167 77.2134 75.4804 77.2134C76.8442 77.2134 78.1754 76.7964 79.2953 76.0182C79.4471 75.9185 79.5768 75.7889 79.6766 75.6372C79.7764 75.4856 79.8441 75.3151 79.8756 75.1363C79.9071 74.9575 79.9017 74.7742 79.8597 74.5975C79.8177 74.4209 79.74 74.2547 79.6314 74.1092C79.5229 73.9637 79.3857 73.842 79.2283 73.7514C79.0709 73.6609 78.8967 73.6035 78.7163 73.5828C78.536 73.5621 78.3533 73.5785 78.1795 73.631C78.0057 73.6835 77.8445 73.771 77.7057 73.8881C77.0468 74.3275 76.2725 74.562 75.4804 74.562C74.6884 74.562 73.9141 74.3275 73.2551 73.8881L72.1781 73.0893C72.045 72.9895 71.8892 72.9136 71.7441 72.8231C74.2506 70.9685 76.288 68.5527 77.6931 65.7693C79.0982 62.9858 79.8321 59.912 79.8358 56.794V42.6022C79.8359 42.4138 79.796 42.2276 79.7187 42.0558C79.6415 41.8841 79.5287 41.7306 79.3877 41.6057C79.2468 41.4807 79.081 41.3871 78.9012 41.331C78.7214 41.2749 78.5317 41.2576 78.3448 41.2802ZM70.5166 39.9395V40.6291C69.8916 40.433 69.2779 40.2028 68.6781 39.9395H70.5166ZM59.8661 35.413C59.2779 36.0818 58.6397 36.7049 57.957 37.2769H43.8903V26.6263H59.8661V35.413ZM35.9024 39.9395V46.0077L30.5771 47.0314V39.9395H35.9024ZM44.05 41.2802C43.9965 41.2817 43.9432 41.2866 43.8903 41.2948V39.9395H49.2155V41.2442C47.6156 41.4888 45.9897 41.5143 44.3829 41.3201L44.05 41.2802ZM51.8782 39.9395H53.6981C53.1044 40.199 52.4968 40.4257 51.8782 40.6185V39.9395ZM49.2155 13.3132V23.9637H43.8903V13.3132H49.2155ZM41.2276 45.2648H38.565V7.92666L41.2276 7.79353V45.2648ZM38.565 3.99395C38.565 3.64086 38.7053 3.30224 38.9549 3.05257C39.2046 2.8029 39.5432 2.66263 39.8963 2.66263H62.5287C62.8818 2.66263 63.2204 2.8029 63.4701 3.05257C63.7198 3.30224 63.86 3.64086 63.86 3.99395L38.565 5.26004V3.99395ZM30.5771 13.3132H35.9024V23.9637H30.5771V13.3132ZM19.9266 26.6263H35.9024V37.2769H19.9266V26.6263ZM9.27602 50.5901V39.9395H27.9145V47.544L12.0718 50.5901H9.27602ZM39.8963 47.9527L42.559 48.4666V56.794C42.5692 59.7131 43.22 62.5944 44.4654 65.2346H10.4236L6.99814 54.2791L39.8963 47.9527ZM49.2395 73.8881C48.5803 74.3276 47.8058 74.5621 47.0135 74.5621C46.2213 74.5621 45.4468 74.3276 44.7876 73.8881L43.7105 73.0893C42.5908 72.3118 41.2602 71.8951 39.897 71.8951C38.5338 71.8951 37.2031 72.3118 36.0834 73.0893L35.0037 73.8881C34.3446 74.3276 33.57 74.5621 32.7778 74.5621C31.9855 74.5621 31.211 74.3276 30.5518 73.8881L29.4761 73.0893C28.3561 72.3118 27.0253 71.8952 25.6619 71.8952C24.2985 71.8952 22.9676 72.3118 21.8477 73.0893L20.768 73.8881C20.109 74.3275 19.3347 74.562 18.5427 74.562C17.7506 74.562 16.9763 74.3275 16.3174 73.8881L15.2403 73.0893C14.4397 72.5102 13.5113 72.1326 12.5338 71.9883L11.2557 67.8972H45.9418C47.2273 69.8119 48.8344 71.4896 50.692 72.8563C50.5682 72.9336 50.435 72.9975 50.3179 73.084L49.2395 73.8881ZM77.1732 56.794C77.1738 59.5941 76.4959 62.3526 75.1975 64.8335C73.8991 67.3143 72.0189 69.4436 69.7178 71.0391L68.4757 71.9018C67.0741 71.858 65.6966 72.2742 64.5536 73.0867L63.4739 73.8855C62.815 74.3248 62.0407 74.5593 61.2487 74.5593C60.4566 74.5593 59.6823 74.3248 59.0234 73.8855L57.9463 73.0867C56.7784 72.2598 55.3688 71.8444 53.9391 71.9058L52.677 71.0364C50.376 69.4415 48.4959 67.3126 47.1975 64.8322C45.8991 62.3518 45.2211 59.5937 45.2216 56.794V44.0746C48.1713 44.2796 51.1301 43.8362 53.8901 42.7754C56.6501 41.7146 59.1443 40.0623 61.1974 37.9346C63.0943 39.8937 65.366 41.4509 67.8774 42.5136C70.3888 43.5762 73.0883 44.1225 75.8153 44.1199C76.2599 44.1199 76.7099 44.1039 77.1732 44.0719V56.794Z" fill="#1977CC"/>
<path d="M73.3216 46.6507C69.2129 46.2086 65.3 44.6649 61.9961 42.1828C61.7657 42.0099 61.4854 41.9165 61.1973 41.9165C60.9093 41.9165 60.629 42.0099 60.3985 42.1828C57.095 44.6647 53.1825 46.2083 49.0743 46.6507C48.7479 46.6858 48.4459 46.8404 48.2264 47.0846C48.007 47.3289 47.8856 47.6456 47.8855 47.974V56.7993C47.8855 59.1671 48.4596 61.4996 49.5587 63.5968C50.6577 65.6941 52.2489 67.4936 54.1959 68.8411L60.4411 73.1652C60.6637 73.3192 60.928 73.4017 61.1986 73.4017C61.4693 73.4017 61.7336 73.3192 61.9562 73.1652L68.204 68.8411C70.1503 67.4931 71.7407 65.6935 72.839 63.5962C73.9374 61.499 74.5109 59.1667 74.5105 56.7993V47.974C74.5104 47.6456 74.389 47.3289 74.1695 47.0846C73.9501 46.8404 73.6481 46.6858 73.3216 46.6507ZM71.8478 56.7993C71.8479 58.7363 71.3784 60.6445 70.4794 62.3603C69.5805 64.0762 68.2789 65.5484 66.6863 66.651L61.1973 70.452L55.7096 66.651C54.1168 65.5486 52.815 64.0764 51.9158 62.3605C51.0166 60.6447 50.5468 58.7365 50.5468 56.7993V49.1416C54.3728 48.5477 58.0143 47.0938 61.1973 44.8893C64.3803 47.0938 68.0218 48.5477 71.8478 49.1416V56.7993Z" fill="#1977CC"/>
<path d="M55.3396 58.8442L53.742 60.9743L59.0673 64.9683C59.3466 65.178 59.6971 65.2695 60.0432 65.2232C60.3894 65.1769 60.7035 64.9964 60.9178 64.7207L70.237 52.7388L68.1336 51.1039L59.6131 62.0527L55.3396 58.8442Z" fill="#1977CC"/>
</svg>
