<svg width="69" height="79" viewBox="0 0 69 79" fill="none" xmlns="http://www.w3.org/2000/svg">
<path d="M34.1021 1.04297C15.8436 1.04297 1.04199 3.79748 1.04199 7.19468C1.04199 7.2225 1.04596 7.2513 1.04795 7.27911H1.04199V52.8076C1.04199 56.3309 1.81679 59.9576 4.82957 61.7297C9.67207 64.5786 34.1041 77.8604 34.1041 77.8604C34.1696 77.8038 58.5331 64.5786 63.3756 61.7297C66.3884 59.9576 67.1632 56.3309 67.1632 52.8076V7.28011H67.1572C67.1592 7.2523 67.1632 7.22349 67.1632 7.19568C67.1622 3.79748 52.3605 1.04297 34.1021 1.04297Z" fill="#A2DFFF"/>
<path d="M64.9848 3.84618C63.2465 3.08132 60.785 2.39989 57.6709 1.81979C51.3652 0.646661 42.9954 0 34.1031 0C25.2098 0 16.84 0.645668 10.5353 1.81979C7.42019 2.3989 4.9597 3.08132 3.22137 3.84618C1.05392 4.79979 0 5.89544 0 7.19571C0 7.2116 9.70074e-07 7.2265 0.000994303 7.2414C0.000994303 7.25431 0 7.26822 0 7.28113V52.8096C0 57.6471 1.44728 60.9519 4.30212 62.6307C9.10389 65.4557 33.3631 78.6462 33.6074 78.7793C33.7634 78.8647 33.9352 78.9055 34.1051 78.9055C34.2938 78.9055 34.4815 78.8538 34.6464 78.7545C34.8262 78.6532 36.3411 77.8267 38.2483 76.7857C45.3774 72.8968 60.2118 64.8041 63.9051 62.6307C66.7599 60.9519 68.2072 57.6471 68.2072 52.8096V7.28014C68.2072 7.26723 68.2072 7.25332 68.2062 7.24041C68.2062 7.2265 68.2072 7.21061 68.2072 7.19471C68.2052 5.89444 67.1523 4.79979 64.9848 3.84618ZM34.7805 78.6541C34.7815 78.6541 34.7815 78.6531 34.7825 78.6531C34.7815 78.6531 34.7815 78.6541 34.7805 78.6541ZM34.7825 78.6522C34.7835 78.6512 34.7835 78.6512 34.7845 78.6502C34.7835 78.6512 34.7835 78.6522 34.7825 78.6522ZM66.1192 52.8086C66.1192 56.9121 65.0484 59.5364 62.8462 60.8317C59.1818 62.9883 44.3672 71.069 37.248 74.953C35.5365 75.8867 34.6117 76.3913 34.1011 76.6724C30.5907 74.7623 9.74657 63.4134 5.35803 60.8308C3.15581 59.5354 2.085 56.9111 2.085 52.8076V7.3904C2.09196 7.32782 2.09295 7.26524 2.08799 7.20167L2.086 7.17981C2.10785 7.00201 2.4883 6.44674 4.05975 5.75538C5.62922 5.06501 8.0003 4.41338 10.9157 3.87102C17.0992 2.72074 25.3339 2.08699 34.1021 2.08699C42.8712 2.08699 51.105 2.72074 57.2885 3.87102C60.2039 4.41338 62.575 5.06501 64.1444 5.75538C65.7139 6.44574 66.0964 7.00101 66.1182 7.17882C66.1172 7.18875 66.1162 7.19869 66.1162 7.20862C66.1122 7.26822 66.1132 7.32782 66.1192 7.38643V52.8086Z" fill="#1977CC"/>
<path d="M62.7002 11.2157C62.7002 9.4923 60.6013 8.5685 59.9119 8.26553C58.4507 7.62285 56.3866 7.05069 53.7771 6.56495C48.5114 5.58552 41.5243 5.04614 34.1021 5.04614C26.6799 5.04614 19.6928 5.58552 14.4272 6.56495C11.8177 7.05069 9.75352 7.62285 8.29232 8.26553C7.60295 8.5685 5.50403 9.4923 5.50403 11.2157C5.50403 11.2277 5.50403 11.2406 5.50502 11.2525C5.50502 11.2634 5.50403 11.2753 5.50403 11.2863V50.6093C5.50403 54.7078 6.73875 57.512 9.1754 58.9454C13.1805 61.3006 32.773 71.9541 33.6054 72.4071C33.7614 72.4925 33.9332 72.5332 34.1031 72.5332C34.2908 72.5332 34.4776 72.4825 34.6415 72.3832C34.7984 72.2948 36.0441 71.6154 37.6125 70.7591C43.5626 67.5139 55.9425 60.7592 59.0288 58.9444C61.4645 57.511 62.7002 54.7068 62.7002 50.6084V11.2873C62.7002 11.2743 62.7002 11.2614 62.6992 11.2495C62.6992 11.2386 62.7002 11.2277 62.7002 11.2157ZM34.7786 72.2849C34.7796 72.2849 34.7796 72.2839 34.7806 72.2839C34.7796 72.2839 34.7796 72.2849 34.7786 72.2849ZM34.7806 72.2829C34.7816 72.2819 34.7815 72.2819 34.7825 72.2809C34.7825 72.2819 34.7816 72.2829 34.7806 72.2829ZM60.6142 50.6093C60.6142 53.9618 59.75 56.1005 57.9709 57.1475C54.9144 58.9454 42.5534 65.6881 36.6133 68.9284C35.2991 69.6456 34.5431 70.0578 34.1001 70.3012C30.9433 68.5837 13.854 59.2772 10.2323 57.1465C8.45424 56.1005 7.59003 53.9618 7.59003 50.6084V11.3846C7.595 11.329 7.59599 11.2724 7.59202 11.2147C7.70526 10.8422 9.31247 9.59561 15.2039 8.54367C20.3007 7.63278 27.0117 7.13214 34.1011 7.13214C41.1905 7.13214 47.9015 7.63378 52.9983 8.54367C58.8868 9.59561 60.495 10.8412 60.6102 11.2147C60.6062 11.2724 60.6072 11.33 60.6132 11.3876V50.6093H60.6142ZM60.6142 11.2267H60.6152H60.6142Z" fill="white"/>
<path d="M47.223 28.1819H40.1168V21.0746C40.1168 19.9511 39.2029 19.0372 38.0804 19.0372H30.1268C29.0024 19.0372 28.0875 19.9511 28.0875 21.0746V28.1819H20.9812C19.8578 28.1819 18.9439 29.0957 18.9439 30.2192V38.1728C18.9439 39.2973 19.8578 40.2111 20.9812 40.2111H28.0875V47.3165C28.0875 48.4399 29.0024 49.3538 30.1268 49.3538H38.0804C39.2039 49.3538 40.1168 48.4399 40.1168 47.3165V40.2111H47.223C48.3465 40.2111 49.2604 39.2963 49.2604 38.1728V30.2192C49.2604 29.0957 48.3465 28.1819 47.223 28.1819ZM38.0804 21.1232H38.0794H38.0804ZM47.1744 38.1261H39.0738C38.4976 38.1261 38.0308 38.593 38.0308 39.1691V47.2688H30.1735V39.1691C30.1735 38.593 29.7067 38.1261 29.1305 38.1261H21.0299V30.2689H29.1305C29.7067 30.2689 30.1735 29.802 30.1735 29.2259V21.1232H38.0308V29.2249C38.0308 29.801 38.4976 30.2679 39.0738 30.2679H47.1744V38.1261Z" fill="white"/>
</svg>
