<svg width="78" height="70" viewBox="0 0 78 70" fill="none" xmlns="http://www.w3.org/2000/svg">
<path d="M1.93466 56.6612L1.18762 66.7515L11.2329 68.1238L14.9058 65.1473L20.7801 65.7616L21.3947 59.89L21.4694 59.8289L27.3437 60.4432L27.9572 54.5716L28.0319 54.5105L33.9062 55.1237L34.5208 49.2521L52.5196 34.667L43.2214 23.2032L1.93466 56.6612Z" fill="white"/>
<path d="M44.1446 22.4555C43.9465 22.2111 43.6591 22.055 43.3455 22.0222C43.032 21.9894 42.7185 22.0822 42.474 22.2813L1.18722 55.7392C0.93255 55.9451 0.774105 56.2472 0.750336 56.5741L0.00329923 66.6656C-0.0431069 67.2912 0.405114 67.8455 1.02764 67.9304L11.0729 69.3027C11.1261 69.3095 11.1804 69.314 11.2336 69.314C11.5041 69.314 11.769 69.2212 11.9818 69.0493L15.2721 66.3827L20.6563 66.945C21.3105 67.014 21.8934 66.54 21.9613 65.8872L22.4594 61.13L27.2199 61.6266C27.8741 61.6956 28.4571 61.2216 28.525 60.5688L29.023 55.8105L33.7825 56.3082C34.096 56.3411 34.4095 56.2483 34.654 56.0492C34.8985 55.8512 35.0547 55.5638 35.0875 55.2493L35.65 49.8665L53.2663 35.5914C53.5107 35.3934 53.6669 35.106 53.6998 34.7926C53.7326 34.4793 53.6398 34.1659 53.4406 33.9215L44.1446 22.4555ZM33.7723 48.329C33.5278 48.527 33.3716 48.8143 33.3388 49.1277L32.8487 53.8182L28.156 53.3283C27.8413 53.2955 27.5267 53.3894 27.2822 53.5885L27.2075 53.6496C26.9642 53.8476 26.8091 54.135 26.7763 54.4472L26.2862 59.1377L21.5935 58.6478C21.28 58.615 20.9676 58.7078 20.7231 58.9058L20.6484 58.9657C20.4028 59.1637 20.2466 59.4522 20.2138 59.7656L19.7236 64.4561L15.031 63.9662C14.7174 63.9334 14.4039 64.0262 14.1594 64.2253L10.8861 66.8782L2.45719 65.7265L3.08421 57.2608L43.049 24.8743L50.8497 34.4928L33.7723 48.329Z" fill="#1977CC"/>
<path d="M38.3826 32.6666L4.50486 60.1194C4.28641 60.2959 4.15171 60.5549 4.1302 60.8355L3.83254 64.854C3.79066 65.4151 4.21172 65.9027 4.77312 65.9446C4.79915 65.9468 4.82405 65.9469 4.84895 65.9469C5.37753 65.9469 5.82461 65.5384 5.86422 65.0033L6.12909 61.4227L39.665 34.247C40.1019 33.8929 40.1686 33.2515 39.8144 32.8148C39.4612 32.3792 38.8195 32.3125 38.3826 32.6666Z" fill="#E0F4FC"/>
<path d="M42.5314 5.76392C33.7142 12.9083 32.3617 25.8461 39.5105 34.6603C46.6582 43.4734 59.6021 44.8253 68.4193 37.6798C77.2365 30.5343 78.5891 17.5965 71.4414 8.78456C64.2914 -0.0284843 51.3486 -1.38042 42.5314 5.76392ZM62.322 17.2763C60.2133 18.9858 57.1154 18.6622 55.4063 16.5534C53.6961 14.4446 54.0198 11.3493 56.1296 9.63985C58.2394 7.93041 61.3361 8.25397 63.0464 10.3628C64.7543 12.4716 64.4318 15.5669 62.322 17.2763Z" fill="white"/>
<path d="M41.7812 4.84175C37.2696 8.49707 34.4535 13.6899 33.8502 19.463C33.247 25.2362 34.9289 30.8996 38.5859 35.408C42.243 39.9174 47.4382 42.7322 53.2141 43.3363C53.9837 43.4166 54.7511 43.4562 55.5151 43.4562C60.4794 43.4562 65.257 41.7706 69.1665 38.6028C78.4782 31.0558 79.9123 17.3441 72.3628 8.03662C64.8122 -1.27195 51.0941 -2.70421 41.7812 4.84175ZM67.669 36.7565C63.6509 40.0125 58.6051 41.5104 53.4608 40.973C48.3165 40.4356 43.6895 37.9274 40.432 33.9124C37.1745 29.8961 35.6759 24.8527 36.2136 19.7097C36.7512 14.5678 39.2605 9.94291 43.2775 6.68695C51.5717 -0.0342738 63.7913 1.243 70.5156 9.53224C77.2411 17.8226 75.9633 30.0353 67.669 36.7565Z" fill="#1977CC"/>
<path d="M55.3803 8.71768C54.1137 9.74379 53.3225 11.2021 53.1528 12.8233C52.983 14.4445 53.4561 16.0351 54.4827 17.3011C55.5093 18.567 56.9683 19.3578 58.5902 19.5275C58.8064 19.5501 59.0226 19.5615 59.2365 19.5615C60.631 19.5615 61.9722 19.0886 63.0701 18.1982C64.3367 17.1721 65.1278 15.7138 65.2976 14.0915C65.4674 12.4703 64.9954 10.8796 63.9677 9.61369C61.8477 7.00145 57.996 6.5987 55.3803 8.71768ZM62.9343 13.846C62.8301 14.8359 62.348 15.7263 61.5738 16.353C60.8007 16.9798 59.8285 17.2683 58.8381 17.1642C57.8477 17.0601 56.957 16.5781 56.3288 15.8043C55.7017 15.0305 55.4131 14.0598 55.5161 13.0699C55.6191 12.08 56.1024 11.1896 56.8766 10.5629C57.5659 10.004 58.3967 9.73248 59.2218 9.73248C60.3084 9.73248 61.3859 10.2031 62.1216 11.1104C62.7487 11.8843 63.0373 12.8561 62.9343 13.846Z" fill="#1977CC"/>
<path d="M64.7943 33.2109C61.7235 35.6987 57.8684 36.8436 53.9363 36.4329C50.0053 36.0222 46.4694 34.1057 43.9804 31.0376C43.5673 30.5285 42.8191 30.4493 42.3087 30.8634C41.7993 31.2763 41.7201 32.0241 42.1344 32.5343C45.0229 36.0958 49.127 38.3199 53.6895 38.7974C54.2974 38.8607 54.904 38.8924 55.5073 38.8924C59.4292 38.8924 63.2029 37.5608 66.2917 35.0583C66.801 34.6454 66.8802 33.8976 66.466 33.3873C66.0517 32.876 65.3036 32.7979 64.7943 33.2109Z" fill="#1977CC"/>
</svg>
