<svg width="82" height="82" viewBox="0 0 82 82" fill="none" xmlns="http://www.w3.org/2000/svg">
<path d="M31.4333 23.9169L2.73341 49.8834V51.9334H9.56672L10.9334 79.95H78.5831V49.8834L49.8832 23.9169H31.4333Z" fill="white"/>
<rect x="34.1666" y="57.4001" width="13.6666" height="8.19997" fill="#A2DFFF"/>
<rect x="15.0334" y="57.4001" width="10.9333" height="23.2332" fill="#A2DFFF"/>
<rect x="58.7665" y="57.4001" width="13.6666" height="8.19997" fill="#A2DFFF"/>
<path d="M5.46673 34.8502L7.51672 43.7335L31.4333 23.9169H51.2499C58.7665 30.978 74.2098 45.1001 75.8498 45.1001C82.9564 38.5402 80.6331 29.1557 78.5831 25.2835C76.7609 21.4113 73.1165 14.8969 73.1165 19.8169C73.1165 24.7369 70.3832 27.3335 69.0165 28.0169L66.9665 22.5502L59.4499 13.6669L53.9832 8.8836V17.7669L50.5666 21.1836L51.2499 18.4502L46.4666 15.0336L44.4166 11.6169L45.0999 6.15028L46.4666 2.05029L39.6333 6.15028L34.85 12.9836L34.1666 17.7669L28.0166 15.0336L26.65 12.3003L18.45 22.5502L17.0834 26.6502L10.25 19.8169H4.10007L5.46673 21.8669L7.51672 28.0169L5.46673 34.8502Z" fill="#E0F4FC"/>
<path d="M31.4333 40.2294L41.1366 50.3987L43.1073 48.5168L32.4228 37.3102C32.1588 37.0508 31.8034 36.9054 31.4333 36.9054C31.0632 36.9054 30.7079 37.0508 30.4439 37.3102L19.7593 48.5168L21.7369 50.4042L31.4333 40.2294Z" fill="#1977CC"/>
<path d="M32.8 57.4001V65.6001C32.8 65.9625 32.944 66.3102 33.2003 66.5665C33.4566 66.8228 33.8042 66.9667 34.1666 66.9667H47.8333C48.1957 66.9667 48.5433 66.8228 48.7996 66.5665C49.0559 66.3102 49.1999 65.9625 49.1999 65.6001V57.4001C49.1999 57.0376 49.0559 56.69 48.7996 56.4337C48.5433 56.1774 48.1957 56.0334 47.8333 56.0334H34.1666C33.8042 56.0334 33.4566 56.1774 33.2003 56.4337C32.944 56.69 32.8 57.0376 32.8 57.4001ZM35.5333 58.7668H46.4666V64.2334H35.5333V58.7668Z" fill="#1977CC"/>
<path d="M57.3999 57.4001V65.6001C57.3999 65.9625 57.5439 66.3102 57.8002 66.5665C58.0565 66.8228 58.4041 66.9667 58.7665 66.9667H71.0665C71.4289 66.9667 71.7766 66.8228 72.0329 66.5665C72.2892 66.3102 72.4331 65.9625 72.4331 65.6001V57.4001C72.4331 57.0376 72.2892 56.69 72.0329 56.4337C71.7766 56.1774 71.4289 56.0334 71.0665 56.0334H58.7665C58.4041 56.0334 58.0565 56.1774 57.8002 56.4337C57.5439 56.69 57.3999 57.0376 57.3999 57.4001ZM60.1332 58.7668H69.6998V64.2334H60.1332V58.7668Z" fill="#1977CC"/>
<path d="M82 32.0622C82.0063 29.9505 81.5936 27.8586 80.7859 25.9075C79.9782 23.9565 78.7915 22.185 77.2946 20.6957L73.3996 16.8007C73.2084 16.6096 72.965 16.4795 72.6999 16.4268C72.4348 16.3741 72.1601 16.4011 71.9104 16.5045C71.6607 16.608 71.4473 16.7831 71.2971 17.0078C71.1469 17.2325 71.0667 17.4966 71.0667 17.7669V21.0332C71.0677 22.3249 70.7479 23.5966 70.136 24.7341C69.8578 25.2548 69.5232 25.7434 69.1383 26.191C67.4876 20.975 64.4298 16.3155 60.3015 12.7253L54.2198 7.1903C53.9999 6.99068 53.721 6.86812 53.4252 6.84117C53.1295 6.81422 52.833 6.88436 52.5806 7.04096C52.3283 7.19756 52.1338 7.4321 52.0266 7.70909C51.9195 7.98608 51.9055 8.29043 51.9867 8.5761L52.9147 11.8124C53.2343 12.9567 53.3043 14.1564 53.1199 15.3302C52.9355 16.5039 52.5011 17.6244 51.846 18.6156C51.6771 17.5886 51.2475 16.6221 50.5983 15.8085C49.9492 14.9949 49.1021 14.3616 48.1382 13.9689C48.0986 13.9498 47.9783 13.8897 47.9387 13.8746C47.1998 13.5862 46.5893 13.0416 46.2187 12.3403C45.8481 11.639 45.7421 10.8278 45.9201 10.0548L47.7938 1.66489C47.8534 1.39848 47.8318 1.12034 47.7318 0.866307C47.6319 0.612274 47.4582 0.393994 47.233 0.239595C47.0079 0.0851968 46.7417 0.00175641 46.4687 2.74243e-05C46.1958 -0.00170156 45.9285 0.07836 45.7014 0.229894L40.2225 3.87888C38.1348 5.26588 36.3877 7.10693 35.1119 9.26435C33.836 11.4218 33.0644 13.8397 32.8548 16.3374C29.2386 15.9602 28.7002 13.9402 28.7002 11.7809V10.9336C28.6999 10.6566 28.6156 10.3862 28.4582 10.1583C28.3009 9.93037 28.078 9.75562 27.8191 9.65721C27.5602 9.55881 27.2775 9.54139 27.0084 9.60728C26.7394 9.67316 26.4967 9.81922 26.3126 10.0261L22.2769 14.5648C19.8602 17.2938 17.9817 20.4553 16.7405 23.8827C14.1516 20.8513 10.5472 18.8667 6.60125 18.2999L2.92493 17.7806C2.66382 17.7436 2.39761 17.783 2.15839 17.894C1.91918 18.005 1.71717 18.1828 1.57675 18.406C1.43632 18.6292 1.36347 18.8883 1.36698 19.152C1.37049 19.4156 1.45022 19.6727 1.59653 19.8921L4.83689 24.7574C5.41288 25.6223 5.78403 26.6072 5.9221 27.6371C6.06016 28.667 5.96151 29.7149 5.63365 30.701C4.94085 32.7791 4.58917 34.9556 4.59226 37.1462C4.59278 39.0366 4.85352 40.9179 5.36715 42.7372C5.62228 43.6178 5.94204 44.4784 6.32382 45.312L0.423939 50.944C0.226186 51.1324 0.0894262 51.3757 0.0313025 51.6426C-0.0268212 51.9095 -0.0036418 52.1877 0.0978502 52.4413C0.199342 52.6948 0.37449 52.9122 0.600699 53.0653C0.826907 53.2184 1.0938 53.3002 1.36694 53.3001H8.20024V80.6333C8.20024 80.9958 8.34423 81.3434 8.60053 81.5997C8.85683 81.856 9.20444 82 9.56691 82H77.9C78.2625 82 78.6101 81.856 78.8664 81.5997C79.1227 81.3434 79.2667 80.9958 79.2667 80.6333V53.3001H80.6333C80.9065 53.3002 81.1733 53.2184 81.3996 53.0653C81.6258 52.9122 81.8009 52.6948 81.9024 52.4413C82.0039 52.1877 82.0271 51.9095 81.9689 51.6426C81.9108 51.3757 81.7741 51.1324 81.5763 50.944L76.7561 46.3424L80.2971 39.2508C81.4152 37.0193 81.9982 34.5581 82 32.0622ZM7.99934 41.9964C7.5523 40.4185 7.32557 38.7862 7.32558 37.1462C7.32279 35.2512 7.62647 33.3682 8.22484 31.5702C8.68526 30.1873 8.82413 28.7176 8.63088 27.273C8.43763 25.8283 7.91735 24.4468 7.10965 23.2335L5.55985 20.9102L6.21448 21.0018C9.65603 21.4973 12.7799 23.2842 14.9516 25.9997L16.1378 27.4757C16.2833 27.702 16.4924 27.8803 16.7388 27.9883C16.9853 28.0963 17.2581 28.1291 17.5231 28.0827C17.7881 28.0363 18.0335 27.9127 18.2286 27.7274C18.4237 27.5421 18.5597 27.3033 18.6197 27.0411C19.661 23.0907 21.6143 19.4396 24.3228 16.3811L26.2538 14.2136C27.0971 17.4416 29.7935 19.1336 34.1668 19.1336C34.5293 19.1336 34.8769 18.9896 35.1332 18.7333C35.3895 18.477 35.5335 18.1294 35.5335 17.7669C35.5284 15.4681 36.0931 13.2039 37.1771 11.1768C38.261 9.14959 39.8304 7.42262 41.745 6.15027L44.3908 4.38728L43.2606 9.45623C42.9345 10.8415 43.1131 12.2976 43.7644 13.5629C44.4158 14.8282 45.497 15.8197 46.8139 16.3592C46.8494 16.377 46.9683 16.4344 47.0066 16.4508C47.6534 16.7038 48.2087 17.1461 48.6001 17.7199C48.9914 18.2936 49.2005 18.9721 49.2001 19.6666V21.8669H31.4335H31.4116C31.2621 21.8693 31.1142 21.8975 30.9743 21.9502C30.9308 21.9678 30.8883 21.9879 30.8472 22.0104C30.743 22.0596 30.6457 22.1221 30.5575 22.1962C30.5342 22.2154 30.5069 22.2222 30.4864 22.2413L8.43531 43.2975C8.27541 42.8711 8.12371 42.4406 7.99934 41.9964ZM31.4335 25.1236L51.425 44.2063L58.0834 50.5668H53.8618L32.3902 29.2906C32.1342 29.0369 31.7884 28.8945 31.428 28.8945C31.0676 28.8945 30.7218 29.0369 30.4659 29.2906L9.00521 50.5668H4.78359L31.4335 25.1236ZM10.9336 52.5033L31.4335 32.1852L51.9334 52.5033V79.2667H27.3335V57.4001C27.3335 57.0376 27.1895 56.69 26.9332 56.4337C26.6769 56.1774 26.3293 56.0334 25.9668 56.0334H15.0336C14.6711 56.0334 14.3235 56.1774 14.0672 56.4337C13.8109 56.69 13.6669 57.0376 13.6669 57.4001V79.2667H10.9336V52.5033ZM16.4002 79.2667V58.7667H24.6002V79.2667H16.4002ZM76.5333 79.2667H54.6667V53.3001H76.5333V79.2667ZM62.0467 50.5668L34.8501 24.6002H50.0201L77.2167 50.5668H62.0467ZM77.8522 38.0249L74.6856 44.3676L51.8596 22.5775C53.3577 21.3675 54.5121 19.7857 55.2076 17.9899C55.9031 16.1942 56.1152 14.2474 55.8229 12.344L58.4606 14.7452C62.7777 18.4226 65.7732 23.4113 66.9899 28.9503C67.0311 29.1721 67.1266 29.3802 67.2677 29.5561C67.4089 29.732 67.5914 29.8702 67.799 29.9585C68.0066 30.0467 68.2328 30.0822 68.4574 30.0617C68.6821 30.0413 68.8981 29.9656 69.0864 29.8413C70.5301 28.8759 71.7148 27.571 72.5366 26.041C73.3585 24.511 73.7923 22.8027 73.8 21.066L75.3621 22.6281C77.3421 24.6075 78.6484 27.1602 79.0956 29.924C79.5428 32.6877 79.1082 35.5221 77.8535 38.0249H77.8522Z" fill="#1977CC"/>
</svg>
