<svg width="72" height="72" viewBox="0 0 72 72" fill="none" xmlns="http://www.w3.org/2000/svg">
<path d="M59.3334 10.0691H20.4445C22.5963 10.0691 24.3333 11.8052 24.3333 13.9559V65.7794C24.3333 68.6426 26.6537 70.9617 29.5185 70.9617H63.2222V13.9559C63.2222 11.8052 61.4852 10.0691 59.3334 10.0691Z" fill="white"/>
<path d="M43.7778 1H4.88893C7.04078 1 8.77782 2.73609 8.77782 4.88676V54.1191C8.77782 56.9824 11.0982 59.3015 13.963 59.3015H47.6667V4.88676C47.6667 2.73609 45.9297 1 43.7778 1Z" fill="white"/>
<path d="M12.6667 59.3015H21.7408" stroke="#1977CC" stroke-width="2" stroke-miterlimit="10"/>
<path d="M20.4445 10.0691H59.3334C61.4852 10.0691 63.2222 11.8052 63.2222 13.9559V64.4838" stroke="#1977CC" stroke-width="2" stroke-miterlimit="10"/>
<path d="M4.88893 1H43.7778C45.9297 1 47.6667 2.73609 47.6667 4.88676V7.47794" stroke="#1977CC" stroke-width="2" stroke-miterlimit="10"/>
<path d="M29.5185 70.9617C26.6537 70.9617 24.3333 68.6426 24.3333 65.7794V13.9559C24.3333 11.8052 22.5963 10.0691 20.4444 10.0691C18.2926 10.0691 16.5556 11.8052 16.5556 13.9559V55.4147C16.5556 57.5654 14.8185 59.3015 12.6667 59.3015C10.5148 59.3015 8.77778 57.5654 8.77778 55.4147V4.88676C8.77778 2.73609 7.04074 1 4.88889 1C2.73704 1 1 2.73609 1 4.88676V8.77353H6.18518" stroke="#1977CC" stroke-width="2" stroke-miterlimit="10"/>
<path d="M34.7037 65.7794V64.4838H71V65.7794C71 68.6427 68.6796 70.9618 65.8148 70.9618H29.5185C32.3833 70.9618 34.7037 68.6427 34.7037 65.7794Z" fill="#A2DFFF" stroke="#1977CC" stroke-width="2" stroke-miterlimit="10"/>
<path d="M29.531 26.4736C28.9789 26.4896 28.5443 26.95 28.5602 27.502C28.5762 28.0541 29.0366 28.4887 29.5886 28.4728L29.531 26.4736ZM60.0302 27.5947C60.5822 27.5788 61.0168 27.1183 61.0009 26.5663C60.985 26.0142 60.5246 25.5796 59.9725 25.5955L60.0302 27.5947ZM29.5886 28.4728L60.0302 27.5947L59.9725 25.5955L29.531 26.4736L29.5886 28.4728Z" fill="#E0F4FC"/>
<path d="M29.531 30.2788C28.9789 30.2947 28.5443 30.7552 28.5602 31.3072C28.5762 31.8593 29.0366 32.2939 29.5886 32.278L29.531 30.2788ZM60.0302 31.3999C60.5822 31.3839 61.0168 30.9235 61.0009 30.3714C60.985 29.8194 60.5246 29.3848 59.9725 29.4007L60.0302 31.3999ZM29.5886 32.278L60.0302 31.3999L59.9725 29.4007L29.531 30.2788L29.5886 32.278Z" fill="#E0F4FC"/>
<path d="M29.531 34.084C28.9789 34.0999 28.5443 34.5603 28.5602 35.1124C28.5762 35.6645 29.0366 36.0991 29.5886 36.0831L29.531 34.084ZM60.0302 35.205C60.5822 35.1891 61.0168 34.7287 61.0009 34.1766C60.985 33.6246 60.5246 33.1899 59.9725 33.2059L60.0302 35.205ZM29.5886 36.0831L60.0302 35.205L59.9725 33.2059L29.531 34.084L29.5886 36.0831Z" fill="#E0F4FC"/>
<path d="M29.531 37.8892C28.9789 37.9051 28.5443 38.3655 28.5602 38.9176C28.5762 39.4696 29.0366 39.9042 29.5886 39.8883L29.531 37.8892ZM60.0302 39.0102C60.5822 38.9943 61.0168 38.5338 61.0009 37.9818C60.985 37.4297 60.5246 36.9951 59.9725 37.011L60.0302 39.0102ZM29.5886 39.8883L60.0302 39.0102L59.9725 37.011L29.531 37.8892L29.5886 39.8883Z" fill="#E0F4FC"/>
<path d="M29.531 41.6943C28.9789 41.7103 28.5443 42.1707 28.5602 42.7228C28.5762 43.2748 29.0366 43.7094 29.5886 43.6935L29.531 41.6943ZM60.0302 42.8154C60.5822 42.7995 61.0168 42.339 61.0009 41.787C60.985 41.2349 60.5246 40.8003 59.9725 40.8162L60.0302 42.8154ZM29.5886 43.6935L60.0302 42.8154L59.9725 40.8162L29.531 41.6943L29.5886 43.6935Z" fill="#E0F4FC"/>
<path d="M29.531 45.4996C28.9789 45.5155 28.5443 45.9759 28.5602 46.528C28.5762 47.08 29.0366 47.5147 29.5886 47.4987L29.531 45.4996ZM60.0302 46.6206C60.5822 46.6047 61.0168 46.1443 61.0009 45.5922C60.985 45.0401 60.5246 44.6055 59.9725 44.6214L60.0302 46.6206ZM29.5886 47.4987L60.0302 46.6206L59.9725 44.6214L29.531 45.4996L29.5886 47.4987Z" fill="#E0F4FC"/>
<path d="M29.531 49.3047C28.9789 49.3207 28.5443 49.7811 28.5602 50.3332C28.5762 50.8852 29.0366 51.3198 29.5886 51.3039L29.531 49.3047ZM60.0302 50.4258C60.5822 50.4099 61.0168 49.9494 61.0009 49.3974C60.985 48.8453 60.5246 48.4107 59.9725 48.4266L60.0302 50.4258ZM29.5886 51.3039L60.0302 50.4258L59.9725 48.4266L29.531 49.3047L29.5886 51.3039Z" fill="#E0F4FC"/>
<path d="M29.531 53.1099C28.9789 53.1258 28.5443 53.5863 28.5602 54.1383C28.5762 54.6904 29.0366 55.125 29.5886 55.1091L29.531 53.1099ZM60.0302 54.231C60.5822 54.215 61.0168 53.7546 61.0009 53.2026C60.985 52.6505 60.5246 52.2159 59.9725 52.2318L60.0302 54.231ZM29.5886 55.1091L60.0302 54.231L59.9725 52.2318L29.531 53.1099L29.5886 55.1091Z" fill="#E0F4FC"/>
<path d="M29.531 56.9152C28.9789 56.9311 28.5443 57.3915 28.5602 57.9436C28.5762 58.4956 29.0366 58.9303 29.5886 58.9143L29.531 56.9152ZM60.0302 58.0362C60.5822 58.0203 61.0168 57.5598 61.0009 57.0078C60.985 56.4557 60.5246 56.0211 59.9725 56.037L60.0302 58.0362ZM29.5886 58.9143L60.0302 58.0362L59.9725 56.037L29.531 56.9152L29.5886 58.9143Z" fill="#E0F4FC"/>
<path d="M63.2614 37.3282L46.1715 54.4182L41.8535 55.2804L42.7157 50.9623L59.8056 33.8724C60.1421 33.5359 60.6888 33.5359 61.0253 33.8724L63.2614 36.1085C63.5979 36.445 63.5979 36.9918 63.2614 37.3282Z" fill="#A2DFFF" stroke="#1977CC" stroke-width="2" stroke-miterlimit="10" stroke-linejoin="round"/>
<path d="M42.7237 23.6794L45.287 25.4477C45.405 25.5291 45.5455 25.5728 45.6895 25.5728C45.8335 25.5728 45.974 25.5291 46.0921 25.4477L48.6554 23.6788C49.4761 23.1104 50.1459 22.355 50.6079 21.4767C51.0699 20.5984 51.3105 19.6231 51.3093 18.6334V15.0276C51.3093 14.8567 51.2453 14.6918 51.1297 14.5646C51.014 14.4374 50.8548 14.3568 50.6827 14.3384C49.0214 14.1583 47.441 13.5353 46.111 12.5362C45.9889 12.4448 45.8399 12.3954 45.6867 12.3954C45.5335 12.3954 45.3845 12.4448 45.2624 12.5362C43.9334 13.5324 42.3552 14.1534 40.6964 14.3328C40.5239 14.3513 40.3644 14.4322 40.2487 14.5598C40.133 14.6875 40.0693 14.8529 40.0698 15.0242V18.6334C40.0688 19.6231 40.3094 20.5985 40.7714 21.4769C41.2334 22.3553 41.9031 23.1108 42.7237 23.6794ZM41.4747 15.6274C42.9862 15.3736 44.4241 14.7997 45.6895 13.9452C46.955 14.7997 48.3929 15.3736 49.9044 15.6274V18.6334C49.9056 19.3998 49.7196 20.1552 49.3622 20.8355C49.0047 21.5158 48.4864 22.101 47.851 22.5415L45.6895 24.0331L43.5287 22.5422C42.8932 22.1017 42.3747 21.5164 42.0171 20.8359C41.6596 20.1555 41.4735 19.4 41.4747 18.6334V15.6274Z" fill="#1977CC"/>
<path d="M44.9629 21.6971H46.4163V19.517H48.5964V18.0636H46.4163V15.8835H44.9629V18.0636H42.7828V19.517H44.9629V21.6971Z" fill="#1977CC"/>
</svg>
