<svg width="59" height="78" viewBox="0 0 59 78" fill="none" xmlns="http://www.w3.org/2000/svg">
<path d="M53.9817 6.24158H4.44032C2.64406 6.24158 1.18849 7.69646 1.18849 9.49188V72.9096C1.18849 74.7051 2.64406 76.16 4.44032 76.16H53.9817C55.778 76.16 57.2336 74.7051 57.2336 72.9096V9.49188C57.2336 7.69646 55.778 6.24158 53.9817 6.24158Z" fill="#A2DFFF"/>
<path d="M53.9817 5.05341H4.44027C1.99207 5.05341 0 7.04454 0 9.49161V72.9094C0 75.3564 1.99207 77.3476 4.44027 77.3476H53.9817C56.4299 77.3476 58.4219 75.3564 58.4219 72.9094V9.49161C58.4219 7.04454 56.4299 5.05341 53.9817 5.05341ZM56.045 72.9094C56.045 74.0463 55.1192 74.9718 53.9817 74.9718H4.44027C3.30276 74.9718 2.3769 74.0463 2.3769 72.9094V9.49161C2.3769 8.35462 3.30276 7.4292 4.44027 7.4292H53.9817C55.1192 7.4292 56.045 8.35462 56.045 9.49161V72.9094Z" fill="#1977CC"/>
<path d="M52.7933 11.8154H5.62875V73.3529H52.7933V11.8154Z" fill="#72C8ED"/>
<path d="M52.7945 10.063H5.62999V71.6005H52.7945V10.063Z" fill="white"/>
<path d="M52.7937 8.87518H5.62917C4.97269 8.87518 4.44072 9.40691 4.44072 10.0631V71.6006C4.44072 72.2567 4.97269 72.7885 5.62917 72.7885H52.7937C53.4501 72.7885 53.9821 72.2567 53.9821 71.6006V10.0631C53.9821 9.40691 53.4501 8.87518 52.7937 8.87518ZM51.6052 70.4127H6.81762V11.251H51.6052V70.4127Z" fill="#1977CC"/>
<path d="M38.0709 58.7732C37.6555 58.3581 36.9832 58.3581 36.5678 58.7732L36.2701 59.0719C35.8548 59.4871 35.8548 60.1591 36.2701 60.5743L38.801 63.1039C39.2164 63.5191 39.8887 63.5191 40.3041 63.1039L40.6018 62.8064C41.0172 62.3912 41.0172 61.7192 40.6018 61.304L38.0709 58.7732Z" fill="#A2DFFF"/>
<path d="M45.5252 55.9133C45.0748 55.4631 44.3436 55.4631 43.892 55.9133L38.5654 61.2374C38.115 61.6877 38.115 62.4185 38.5654 62.8699L38.7341 63.0385C39.1846 63.4887 39.9157 63.4887 40.3674 63.0385L45.6939 57.7144C46.1444 57.2641 46.1444 56.5333 45.6939 56.0819L45.5252 55.9133Z" fill="#A2DFFF"/>
<path d="M45.1582 20.34H13.0881C12.4317 20.34 11.8997 20.8717 11.8997 21.5279C11.8997 22.184 12.4317 22.7157 13.0881 22.7157H45.1582C45.8147 22.7157 46.3466 22.184 46.3466 21.5279C46.3466 20.8717 45.8135 20.34 45.1582 20.34Z" fill="#A2DFFF"/>
<path d="M42.5144 23.8222H13.0883C12.4319 23.8222 11.8999 24.3539 11.8999 25.0101C11.8999 25.6663 12.4319 26.198 13.0883 26.198H42.5132C43.1697 26.198 43.7017 25.6663 43.7017 25.0101C43.7017 24.3539 43.1708 23.8222 42.5144 23.8222Z" fill="#A2DFFF"/>
<path d="M24.6786 27.3044H13.0883C12.4319 27.3044 11.8999 27.8361 11.8999 28.4923C11.8999 29.1485 12.4319 29.6802 13.0883 29.6802H24.6774C25.3339 29.6802 25.8659 29.1485 25.8659 28.4923C25.8659 27.8361 25.3339 27.3044 24.6786 27.3044Z" fill="#A2DFFF"/>
<path d="M45.1588 33.5178H13.0888C12.4323 33.5178 11.9003 34.0496 11.9003 34.7057C11.9003 35.3619 12.4323 35.8936 13.0888 35.8936H45.1588C45.8153 35.8936 46.3473 35.3619 46.3473 34.7057C46.3473 34.0496 45.8142 33.5178 45.1588 33.5178Z" fill="#A2DFFF"/>
<path d="M42.5145 37.0004H13.0885C12.432 37.0004 11.9 37.5321 11.9 38.1883C11.9 38.8444 12.432 39.3761 13.0885 39.3761H42.5134C43.1699 39.3761 43.7018 38.8444 43.7018 38.1883C43.7018 37.5321 43.171 37.0004 42.5145 37.0004Z" fill="#A2DFFF"/>
<path d="M24.6787 40.4835H13.0885C12.432 40.4835 11.9 41.0152 11.9 41.6714C11.9 42.3276 12.432 42.8593 13.0885 42.8593H24.6776C25.3341 42.8593 25.866 42.3276 25.866 41.6714C25.866 41.0152 25.3341 40.4835 24.6787 40.4835Z" fill="#A2DFFF"/>
<path d="M45.1588 46.6956H13.0888C12.4323 46.6956 11.9003 47.2273 11.9003 47.8835C11.9003 48.5396 12.4323 49.0714 13.0888 49.0714H45.1588C45.8153 49.0714 46.3473 48.5396 46.3473 47.8835C46.3473 47.2273 45.8142 46.6956 45.1588 46.6956Z" fill="#A2DFFF"/>
<path d="M42.5145 50.1786H13.0885C12.432 50.1786 11.9 50.7104 11.9 51.3665C11.9 52.0227 12.432 52.5544 13.0885 52.5544H42.5134C43.1699 52.5544 43.7018 52.0227 43.7018 51.3665C43.7018 50.7104 43.171 50.1786 42.5145 50.1786Z" fill="#A2DFFF"/>
<path d="M24.6787 53.6611H13.0885C12.432 53.6611 11.9 54.1928 11.9 54.849C11.9 55.5051 12.432 56.0369 13.0885 56.0369H24.6776C25.3341 56.0369 25.866 55.5051 25.866 54.849C25.866 54.1928 25.3341 53.6611 24.6787 53.6611Z" fill="#A2DFFF"/>
<path d="M31.6909 2.37592H26.4855C24.2444 2.37592 22.4278 4.20979 22.4278 6.47245V7.92393H24.0927V6.47245C24.0927 5.13182 25.1657 4.04009 26.4855 4.04009H31.6909C33.0095 4.04009 34.0825 5.13069 34.0825 6.47245V7.92393H35.7475V6.47245C35.7475 4.21092 33.9308 2.37592 31.6909 2.37592Z" fill="#E0F4FC"/>
<path d="M31.691 0H26.4856C22.9383 0 20.0509 2.90298 20.0509 6.47231V7.9238C20.0509 9.23613 21.1149 10.2996 22.4278 10.2996H24.0928C25.4058 10.2996 26.4697 9.23613 26.4697 7.9238V6.47231C26.4697 6.43837 26.4844 6.42253 26.4924 6.41574H31.6831C31.691 6.42253 31.7057 6.43837 31.7057 6.47231V7.9238C31.7057 9.23613 32.7696 10.2996 34.0826 10.2996H35.7475C37.0605 10.2996 38.1244 9.23613 38.1244 7.9238V6.47231C38.1244 2.90411 35.2382 0 31.691 0ZM35.7475 7.9238H34.0826V6.47231C34.0826 5.13169 33.0096 4.03996 31.691 4.03996H26.4856C25.1658 4.03996 24.0928 5.13056 24.0928 6.47231V7.9238H22.4278V6.47231C22.4278 4.21079 24.2445 2.37578 26.4856 2.37578H31.691C33.9321 2.37578 35.7475 4.20966 35.7475 6.47231V7.9238Z" fill="#1977CC"/>
<path d="M36.6858 5.70392H21.4906C19.2495 5.70392 17.4329 7.5378 17.4329 9.80045V11.8063H40.7424V9.80045C40.7424 7.53893 38.9258 5.70392 36.6858 5.70392Z" fill="#E0F4FC"/>
<path d="M36.6857 3.32819H21.4906C17.9422 3.32819 15.056 6.23232 15.056 9.80053V11.8064C15.056 13.1187 16.1199 14.1822 17.4329 14.1822H40.7423C42.0553 14.1822 43.1192 13.1187 43.1192 11.8064V9.80053C43.1192 6.23232 40.233 3.32819 36.6857 3.32819ZM40.7423 11.8064H17.4329V9.80053C17.4329 7.53787 19.2506 5.70398 21.4906 5.70398H36.6846C38.9257 5.70398 40.7423 7.53787 40.7423 9.80053V11.8064Z" fill="#1977CC"/>
</svg>
