<svg width="78" height="90" viewBox="0 0 78 90" fill="none" xmlns="http://www.w3.org/2000/svg">
<path d="M38.8575 1.18811C18.0528 1.18811 1.18703 4.32528 1.18703 8.19443C1.18703 8.22611 1.19155 8.25891 1.19382 8.29059H1.18703V60.1439C1.18703 64.1567 2.06988 68.2872 5.50281 70.3055C11.0206 73.5502 38.8598 88.6772 38.8598 88.6772C38.9345 88.6127 66.6956 73.5502 72.2134 70.3055C75.6463 68.2872 76.5291 64.1567 76.5291 60.1439V8.29172H76.5223C76.5246 8.26004 76.5291 8.22724 76.5291 8.19556C76.528 4.32529 59.6622 1.18811 38.8575 1.18811Z" fill="#A2DFFF"/>
<path d="M74.0472 4.3805C72.0665 3.50938 69.2617 2.73329 65.7134 2.07259C58.5283 0.736496 48.9913 0 38.8589 0C28.7254 0 19.1884 0.735364 12.0045 2.07259C8.45497 2.73216 5.65136 3.50938 3.67061 4.3805C1.20089 5.46658 0 6.71444 0 8.19534C0 8.21345 1.10535e-06 8.23041 0.00113296 8.24738C0.00113296 8.26209 0 8.27793 0 8.29264V60.1459C0 65.6555 1.64911 69.4194 4.90207 71.3314C10.3735 74.5489 38.0157 89.5718 38.2941 89.7234C38.4718 89.8207 38.6676 89.8671 38.8612 89.8671C39.0762 89.8671 39.2901 89.8083 39.478 89.6951C39.6829 89.5797 41.409 88.6385 43.5822 87.4528C51.7055 83.0237 68.6087 73.8067 72.8169 71.3314C76.0699 69.4194 77.719 65.6555 77.719 60.1459V8.2915C77.719 8.2768 77.719 8.26096 77.7178 8.24626C77.7178 8.23042 77.719 8.21231 77.719 8.19421C77.7167 6.7133 76.5169 5.46658 74.0472 4.3805ZM39.6308 89.5809C39.632 89.5809 39.632 89.5797 39.6331 89.5797C39.632 89.5797 39.632 89.5809 39.6308 89.5809ZM39.6331 89.5786C39.6342 89.5775 39.6342 89.5775 39.6354 89.5763C39.6342 89.5775 39.6342 89.5786 39.6331 89.5786ZM75.3398 60.1448C75.3398 64.8183 74.1197 67.8073 71.6103 69.2826C67.4349 71.7387 50.5544 80.942 42.4424 85.3655C40.4922 86.429 39.4384 87.0037 38.8566 87.3239C34.8567 85.1483 11.1058 72.2229 6.10523 69.2814C3.5959 67.8062 2.37577 64.8172 2.37577 60.1437V8.41708C2.38369 8.34581 2.38483 8.27454 2.37917 8.20213L2.3769 8.17724C2.4018 7.97473 2.8353 7.34232 4.6259 6.55492C6.41423 5.76864 9.11598 5.02649 12.438 4.40878C19.4838 3.09871 28.8669 2.37692 38.8578 2.37692C48.8498 2.37692 58.2318 3.09871 65.2776 4.40878C68.5996 5.02649 71.3013 5.76864 73.0897 6.55492C74.878 7.34119 75.3138 7.9736 75.3387 8.17611C75.3375 8.18742 75.3364 8.19874 75.3364 8.21005C75.3319 8.27793 75.333 8.34581 75.3398 8.41256V60.1448Z" fill="#1977CC"/>
<path d="M71.4437 12.774C71.4437 10.8111 69.0521 9.759 68.2666 9.41395C66.6017 8.68198 64.2497 8.03033 61.2763 7.47711C55.2763 6.36162 47.3148 5.74731 38.8576 5.74731C30.4003 5.74731 22.4388 6.36162 16.4389 7.47711C13.4655 8.03033 11.1135 8.68198 9.4485 9.41395C8.66299 9.759 6.27137 10.8111 6.27137 12.774C6.27137 12.7876 6.27137 12.8023 6.2725 12.8159C6.2725 12.8283 6.27137 12.8419 6.27137 12.8543V57.6402C6.27137 62.3081 7.67828 65.5018 10.4547 67.1343C15.0184 69.8167 37.3431 81.9502 38.2916 82.4661C38.4693 82.5634 38.6651 82.6098 38.8587 82.6098C39.0726 82.6098 39.2854 82.5521 39.4722 82.4389C39.651 82.3382 41.0703 81.5644 42.8575 80.5892C49.6374 76.8932 63.7437 69.2001 67.2604 67.1332C70.0357 65.5007 71.4437 62.307 71.4437 57.6391V12.8555C71.4437 12.8407 71.4437 12.826 71.4426 12.8125C71.4426 12.8 71.4437 12.7876 71.4437 12.774ZM39.6284 82.3269C39.6295 82.3269 39.6295 82.3258 39.6306 82.3258C39.6295 82.3258 39.6295 82.3269 39.6284 82.3269ZM39.6306 82.3247C39.6318 82.3235 39.6317 82.3235 39.6329 82.3224C39.6329 82.3235 39.6318 82.3247 39.6306 82.3247ZM69.0668 57.6402C69.0668 61.4584 68.0821 63.8942 66.055 65.0866C62.5722 67.1343 48.4874 74.8138 41.7189 78.5042C40.2214 79.321 39.3601 79.7905 38.8553 80.0677C35.2582 78.1116 15.7858 67.5122 11.659 65.0855C9.633 63.8942 8.64827 61.4585 8.64827 57.6391V12.9663C8.65393 12.903 8.65506 12.8385 8.65054 12.7729C8.77957 12.3486 10.6109 10.9288 17.324 9.73072C23.1315 8.6933 30.7784 8.1231 38.8564 8.1231C46.9345 8.1231 54.5813 8.69443 60.3889 9.73072C67.0985 10.9288 68.931 12.3475 69.0623 12.7729C69.0578 12.8385 69.0589 12.9041 69.0657 12.9697V57.6402H69.0668ZM69.0668 12.7864H69.068H69.0668Z" fill="white"/>
<path d="M61.5642 39.1375C60.0871 38.039 57.8562 37.6351 56.395 37.6227L53.854 37.6012C48.1347 30.26 47.8121 30.0168 47.5971 29.8538C46.936 29.3561 46.1494 29.0891 45.3197 29.0811L25.8812 28.916C24.6339 28.9081 23.4625 29.5009 22.7347 30.51C22.6781 30.5756 22.5162 30.7589 22.3453 30.9524C15.493 38.7099 14.54 40.7689 14.531 41.838L14.5061 44.7546C14.4959 45.9753 14.9611 47.127 15.8179 47.9981C16.6747 48.8692 17.819 49.3534 19.0403 49.3647L22.2989 49.3919C22.3023 49.3919 22.3057 49.3919 22.3091 49.3919C22.961 49.3919 23.4919 48.867 23.4975 48.2142C23.5032 47.558 22.9757 47.0218 22.3193 47.0161L19.0606 46.989C18.4743 46.9844 17.9243 46.7514 17.5134 46.3328C17.1025 45.9142 16.8784 45.361 16.883 44.7749L16.9079 41.8912C16.9871 41.5054 17.7601 39.7326 24.1268 32.5249C24.5536 32.0418 24.5954 31.9943 24.652 31.9129C24.9259 31.5226 25.3719 31.2918 25.8473 31.2918C25.8518 31.2918 25.8552 31.2918 25.8597 31.2918L45.2982 31.4569C45.5982 31.4592 45.8823 31.5508 46.1245 31.7217C46.3554 31.9592 47.4295 33.2184 52.3293 39.5131C52.5523 39.7994 52.8941 39.9691 53.2575 39.9713L56.3723 39.9973C57.7589 40.0087 59.3446 40.4487 60.1426 41.0427C62.3723 42.7012 63.7249 45.2773 64.4662 47.1462C64.4742 47.1666 64.4991 47.2277 64.4493 47.3001C64.4153 47.3487 64.3734 47.3725 64.3089 47.3725L57.6162 47.3159C57.6128 47.3159 57.6095 47.3159 57.6061 47.3159C56.9541 47.3159 56.4233 47.8408 56.4176 48.4936C56.4119 49.1498 56.9394 49.686 57.5959 49.6917L64.2886 49.7483C64.2953 49.7483 64.3033 49.7483 64.3101 49.7483C65.1499 49.7483 65.9331 49.3365 66.4085 48.643C66.8873 47.9438 66.9869 47.0568 66.6745 46.2706C65.8233 44.1154 64.241 41.1287 61.5642 39.1375ZM22.7086 30.5485C22.7109 30.544 22.7154 30.5394 22.72 30.5326C22.7154 30.5383 22.7109 30.544 22.7086 30.5485Z" fill="white"/>
<path d="M47.2415 47.2288L32.6881 47.1055C32.6847 47.1055 32.6813 47.1055 32.6779 47.1055C32.0259 47.1055 31.4951 47.6304 31.4894 48.2832C31.4838 48.9394 32.0112 49.4756 32.6677 49.4813L47.2211 49.6046C47.2245 49.6046 47.2279 49.6046 47.2313 49.6046C47.8833 49.6046 48.4141 49.0797 48.4198 48.4269C48.4254 47.7707 47.8969 47.2344 47.2415 47.2288Z" fill="white"/>
<path d="M43.6515 33.3723C43.1648 33.0057 42.5853 32.8089 41.9741 32.8032L29.1569 32.6946C28.2345 32.6844 27.3663 33.1302 26.831 33.8803C26.8174 33.8984 26.7959 33.9255 26.7676 33.9617C25.3946 35.7006 24.4099 37.2641 23.8429 38.6092C23.6889 38.9746 23.7274 39.3921 23.9447 39.7235C24.162 40.055 24.531 40.2553 24.9283 40.2587L46.8784 40.4442C46.8818 40.4442 46.8852 40.4442 46.8886 40.4442C47.3402 40.4442 47.7534 40.1885 47.9537 39.7824C48.1552 39.374 48.1065 38.8864 47.8258 38.5266C44.0409 33.6653 43.8337 33.5092 43.6515 33.3723ZM26.8909 37.8987C27.3052 37.2211 27.8677 36.4009 28.6329 35.4336C28.7042 35.3431 28.7495 35.2831 28.7653 35.2616C28.8061 35.2039 28.9226 35.0704 29.1332 35.0704C29.1343 35.0704 29.1354 35.0704 29.1377 35.0704L41.9548 35.179C42.0477 35.1802 42.1212 35.2073 42.1756 35.239C42.317 35.3951 42.8003 35.9676 44.4347 38.0481L26.8909 37.8987Z" fill="white"/>
<path d="M63.6926 42.1979L61.5805 42.1798C61.3145 41.837 60.9195 41.4445 60.383 41.191C59.7888 40.9116 59.0814 41.165 58.8007 41.759C58.52 42.3518 58.7746 43.06 59.3677 43.3406C59.5862 43.4435 59.782 43.7297 59.8476 43.8598C60.0333 44.292 60.4453 44.5466 60.9172 44.5511L63.6722 44.5748C63.6756 44.5748 63.679 44.5748 63.6824 44.5748C64.3343 44.5748 64.8652 44.0499 64.8708 43.3971C64.8765 42.7398 64.3479 42.2036 63.6926 42.1979Z" fill="white"/>
<path d="M18.9442 41.8186L16.1893 41.7948C16.1859 41.7948 16.1825 41.7948 16.1791 41.7948C15.5271 41.7948 14.9963 42.3197 14.9906 42.9725C14.985 43.6287 15.5124 44.1649 16.1689 44.1706L18.9238 44.1944C18.9272 44.1944 18.9306 44.1944 18.934 44.1944C19.586 44.1944 20.1168 43.6694 20.1225 43.0166C20.1281 42.3605 19.6007 41.8242 18.9442 41.8186Z" fill="white"/>
<path d="M52.4163 41.2565C50.7355 41.2452 49.1396 41.8855 47.9364 43.0666C46.7344 44.2489 46.0632 45.8271 46.0496 47.5127L47.2381 47.5229L46.0496 47.5127C46.0202 50.9927 48.8283 53.8471 52.3099 53.8765C52.328 53.8765 52.3462 53.8765 52.3654 53.8765C54.0315 53.8765 55.6003 53.235 56.7898 52.0664C57.9919 50.8841 58.6631 49.3059 58.6766 47.6202C58.7061 44.1403 55.8979 41.2859 52.4163 41.2565ZM55.1237 50.3716C54.3745 51.1081 53.3784 51.5063 52.3303 51.5007C51.2788 51.4916 50.2941 51.0742 49.5561 50.3252C48.8193 49.5763 48.4175 48.5841 48.4265 47.5331C48.4356 46.4821 48.8533 45.4978 49.6037 44.7602C50.345 44.0316 51.3241 43.6312 52.3631 43.6312C52.3745 43.6312 52.3858 43.6312 52.3971 43.6312C53.4486 43.6402 54.4333 44.0577 55.1713 44.8077C55.9081 45.5567 56.3099 46.5489 56.3009 47.5999C56.2907 48.6509 55.873 49.6351 55.1237 50.3716Z" fill="white"/>
<path d="M52.3783 45.923C51.9426 45.9173 51.5249 46.087 51.2114 46.3948C50.8979 46.7025 50.7236 47.1131 50.7202 47.5521C50.7168 47.9911 50.8843 48.4051 51.1921 48.7174C51.5 49.0308 51.9109 49.205 52.35 49.2084C52.3546 49.2084 52.3591 49.2084 52.3648 49.2084C52.7983 49.2084 53.2069 49.0409 53.517 48.7366C53.8305 48.4289 54.0048 48.0182 54.0082 47.5793C54.015 46.6742 53.2838 45.9309 52.3783 45.923ZM52.8775 48.0884C52.7394 48.2241 52.5459 48.3033 52.3568 48.2988C51.9528 48.2954 51.6268 47.9639 51.6302 47.56L51.9086 47.5623L51.6302 47.56C51.6313 47.3666 51.7117 47.1788 51.8498 47.0441C51.9878 46.9084 52.1746 46.8281 52.3704 46.8337C52.564 46.8348 52.7519 46.9152 52.8877 47.0532C53.0235 47.1912 53.0993 47.3801 53.0982 47.5736C53.0948 47.7648 53.0156 47.9537 52.8775 48.0884Z" fill="white"/>
<path d="M27.465 41.0449C23.988 41.0109 21.1278 43.8223 21.0983 47.3011C21.0689 50.7811 23.877 53.6354 27.3586 53.6648C27.3767 53.6648 27.3948 53.6648 27.4129 53.6648C30.8696 53.6648 33.6959 50.8693 33.7253 47.4074C33.7547 43.9286 30.9466 41.0743 27.465 41.0449ZM27.4118 51.289C27.4005 51.289 27.3892 51.289 27.3779 51.289C25.207 51.2709 23.456 49.4902 23.4752 47.3215C23.4933 45.1629 25.2556 43.4195 27.4107 43.4195C27.422 43.4195 27.4333 43.4195 27.4446 43.4195C28.4961 43.4286 29.4808 43.846 30.2188 44.5961C30.9568 45.3462 31.3575 46.3372 31.3484 47.3882C31.3303 49.5468 29.568 51.2902 27.4118 51.289Z" fill="white"/>
<path d="M27.4275 45.4673C27.4218 45.4673 27.4162 45.4673 27.4105 45.4673C26.9125 45.4673 26.4428 45.6596 26.0874 46.0092C25.7275 46.3622 25.5271 46.8351 25.5226 47.3396L26.711 47.3498L25.5226 47.3396C25.5135 48.3805 26.3534 49.2346 27.3947 49.2425C27.4003 49.2425 27.406 49.2425 27.4105 49.2425C28.4439 49.2425 29.2894 48.4065 29.2985 47.3713C29.3086 46.3305 28.4688 45.4763 27.4275 45.4673ZM27.7546 47.7028C27.6629 47.7933 27.5339 47.8408 27.4083 47.8431C27.1389 47.8408 26.9216 47.6202 26.9238 47.3509C26.9261 47.0828 27.1445 46.8667 27.4128 46.8667C27.4139 46.8667 27.4151 46.8667 27.4173 46.8667C27.6867 46.869 27.904 47.0896 27.9018 47.3589C27.8995 47.4878 27.8463 47.6134 27.7546 47.7028Z" fill="white"/>
<path d="M37.1698 33.9503C37.1415 33.3247 36.6276 32.8224 35.9926 32.8179C35.9892 32.8179 35.9858 32.8179 35.9824 32.8179C35.3305 32.8179 34.7996 33.3428 34.794 33.9956C34.7928 34.1132 34.7906 34.3576 35.6259 39.2698C35.7244 39.8491 36.2269 40.2586 36.7962 40.2586C36.8619 40.2586 36.9298 40.2529 36.9966 40.2416C37.644 40.1319 38.0786 39.5187 37.9689 38.8716C37.6576 37.0445 37.2094 34.3361 37.1698 33.9503ZM37.1709 34.0148C37.1709 33.9967 37.1709 33.9797 37.1698 33.9616C37.1709 33.9843 37.1709 34.0024 37.1709 34.0148Z" fill="white"/>
</svg>
