<svg width="64" height="82" viewBox="0 0 64 82" fill="none" xmlns="http://www.w3.org/2000/svg">
<path d="M31.7241 80.2656C33.4279 79.7789 62.4203 62.9384 62.4203 47.5442C62.4203 34.5836 62.4203 29.8416 62.4203 14.795C54.5997 14.795 36.5702 6.17313 31.7102 1C26.8502 6.17313 8.82069 14.795 1 14.795C1 29.8555 1 34.5836 1 47.5442C1 62.9384 29.9924 79.7789 31.6962 80.2656H31.7241Z" fill="white"/>
<path d="M31.7102 1C26.8502 6.17313 8.82069 14.795 1 14.795V47.5442C1 62.9384 29.9924 79.7789 31.6962 80.2656H31.7241C33.4279 79.7789 62.4203 62.9384 62.4203 47.5442V14.795C54.5997 14.795 36.5702 6.17313 31.7102 1ZM55.4376 45.9728C55.4376 57.8627 33.0369 70.8789 31.7241 71.2544H31.6962C30.3834 70.8789 7.98276 57.8627 7.98276 45.9728V20.6634C14.0159 20.6634 27.9534 14.0023 31.7102 10.0112C35.4669 14.0023 49.4045 20.6634 55.4376 20.6634V45.9728Z" fill="#A2DFFF"/>
<path d="M31.7241 80.2656C33.4279 79.7789 62.4203 62.9384 62.4203 47.5442C62.4203 34.5836 62.4203 29.8416 62.4203 14.795C54.5997 14.795 36.5702 6.17313 31.7102 1C26.8502 6.17313 8.82069 14.795 1 14.795C1 29.8555 1 34.5836 1 47.5442C1 62.9384 29.9924 79.7789 31.6962 80.2656H31.7241Z" stroke="#1977CC" stroke-width="2" stroke-miterlimit="10" stroke-linecap="round" stroke-linejoin="round"/>
<path d="M49.153 58.1966C52.7282 54.3724 55.4375 50.1032 55.4375 45.973C55.4375 35.9605 55.4375 32.3032 55.4375 20.6637C49.4044 20.6637 35.4668 14.0026 31.7101 10.0115C30.3554 11.4577 27.674 13.2377 24.5178 14.9343" stroke="#1977CC" stroke-width="2" stroke-miterlimit="10" stroke-linecap="round" stroke-linejoin="round"/>
<path d="M16.8509 18.4661C13.4293 19.7872 10.1754 20.6633 7.98279 20.6633C7.98279 32.2889 7.98279 35.9601 7.98279 45.9726C7.98279 57.8625 30.3835 70.8787 31.6962 71.2542H31.7242C32.2968 71.0873 36.7936 68.5703 41.7374 64.8017" stroke="#1977CC" stroke-width="2" stroke-miterlimit="10" stroke-linecap="round" stroke-linejoin="round"/>
<ellipse cx="19.6964" cy="35.4342" rx="2" ry="3.5" transform="rotate(-24.0464 19.6964 35.4342)" fill="#E0F4FC"/>
<ellipse cx="27.2059" cy="31.4072" rx="2" ry="3.81966" transform="rotate(-9.74459 27.2059 31.4072)" fill="#E0F4FC"/>
<ellipse cx="35.7979" cy="31.8855" rx="2" ry="4.11495" transform="rotate(16.758 35.7979 31.8855)" fill="#E0F4FC"/>
<ellipse cx="43.7979" cy="35.4511" rx="2" ry="4.11495" transform="rotate(16.758 43.7979 35.4511)" fill="#E0F4FC"/>
<path d="M25.6964 39.9342L23.1964 42.4342L23.6964 49.4342L25.6964 52.9342L30.6964 53.9342L37.6964 52.4342L40.6964 47.9342V42.9342L38.6964 40.9342L35.1964 39.9342H25.6964Z" fill="#E0F4FC"/>
<path d="M26.6964 38.9342C25.3708 38.9358 24.1 39.4631 23.1626 40.4004C22.2253 41.3378 21.698 42.6086 21.6964 43.9342V44.9342C21.6965 45.0071 21.7042 45.0799 21.7194 45.1512L22.8494 50.2362C23.1403 51.5717 23.8807 52.7669 24.9469 53.622C26.0132 54.4771 27.3406 54.9403 28.7074 54.9342H34.6854C36.0525 54.9402 37.3801 54.4767 38.4464 53.6212C39.5127 52.7657 40.253 51.5701 40.5434 50.2342L41.6734 45.1492C41.6884 45.0785 41.6961 45.0065 41.6964 44.9342V43.9342C41.6948 42.6086 41.1675 41.3378 40.2302 40.4004C39.2929 39.4631 38.022 38.9358 36.6964 38.9342H26.6964ZM39.6964 43.9342V44.8252L38.5904 49.8022C38.3966 50.6925 37.9031 51.4893 37.1923 52.0594C36.4815 52.6295 35.5966 52.9383 34.6854 52.9342H28.7074C27.7971 52.9372 26.9133 52.6279 26.2036 52.0579C25.4938 51.4879 25.001 50.6917 24.8074 49.8022L23.6964 44.8252V43.9342C23.6964 43.1386 24.0125 42.3755 24.5751 41.8129C25.1377 41.2503 25.9008 40.9342 26.6964 40.9342H36.6964C37.4921 40.9342 38.2551 41.2503 38.8177 41.8129C39.3803 42.3755 39.6964 43.1386 39.6964 43.9342Z" fill="#1977CC"/>
<path d="M34.6854 48.9342H28.7074V50.9342H34.6854C35.1375 50.9374 35.5771 50.7861 35.9313 50.5053C36.2856 50.2245 36.5333 49.831 36.6334 49.3902L37.6684 45.1722L35.7244 44.6962L34.6854 48.9342Z" fill="#1977CC"/>
<path d="M35.1574 36.8502C35.2948 36.8745 35.4339 36.8869 35.5734 36.8872C36.0668 36.8576 36.5473 36.7182 36.9798 36.4791C37.4123 36.24 37.786 35.9072 38.0734 35.5052C38.8472 34.4919 39.3563 33.3017 39.5544 32.0422C40.0994 28.9552 39.0284 26.3652 37.0634 26.0182C36.5006 25.9572 35.9317 26.0501 35.4175 26.287C34.9032 26.5239 34.4629 26.8958 34.1434 27.3632C33.3696 28.3765 32.8606 29.5667 32.6624 30.8262C32.1214 33.9132 33.1964 36.5032 35.1574 36.8502ZM34.6344 31.1732C34.7764 30.2496 35.1409 29.3745 35.6964 28.6232C35.8036 28.4581 35.9428 28.3163 36.1058 28.206C36.2689 28.0957 36.4523 28.0193 36.6454 27.9812C36.6689 27.9811 36.6923 27.9831 36.7154 27.9872C37.3034 28.0872 37.9514 29.6222 37.5864 31.6952C37.4433 32.6191 37.0774 33.4943 36.5204 34.2452C36.1624 34.6862 35.7704 34.9312 35.5014 34.8812C34.9174 34.7772 34.2694 33.2462 34.6344 31.1732Z" fill="#1977CC"/>
<path d="M22.1414 34.0861C21.1684 31.4081 19.2184 29.8271 17.6124 30.4131C16.0064 30.9991 15.5284 33.4591 16.5044 36.1381C16.8717 37.207 17.4765 38.1787 18.2734 38.9801C18.8088 39.55 19.5427 39.8923 20.3234 39.9361C20.5653 39.9361 20.8053 39.8934 21.0324 39.8101C22.6384 39.2251 23.1164 36.7651 22.1414 34.0861ZM20.3484 37.9341C20.3094 37.9441 20.0614 37.9211 19.6484 37.5341C19.093 36.9338 18.6628 36.2288 18.3831 35.4602C18.1034 34.6917 17.9797 33.875 18.0194 33.0581C18.0854 32.4901 18.2634 32.3101 18.2964 32.2991C18.3098 32.2942 18.3242 32.2921 18.3384 32.2931C18.6384 32.2931 19.6384 33.0491 20.2624 34.7761C20.9244 36.5891 20.5824 37.8461 20.3484 37.9341Z" fill="#1977CC"/>
<path d="M42.3575 39.8082C42.5846 39.8915 42.8246 39.9341 43.0665 39.9342C43.8473 39.8902 44.5813 39.5476 45.1164 38.9772C45.9144 38.176 46.5196 37.2038 46.8865 36.1342C47.8615 33.4562 47.3865 30.9962 45.7775 30.4112C45.2864 30.2699 44.7649 30.273 44.2756 30.4204C43.7862 30.5678 43.3498 30.8531 43.0185 31.2422C42.2377 32.0561 41.6352 33.0238 41.2493 34.0836C40.8635 35.1433 40.7028 36.2719 40.7775 37.3972C40.7826 37.9081 40.9342 38.4068 41.2143 38.8342C41.4943 39.2615 41.8911 39.5996 42.3575 39.8082ZM43.1285 34.7682C43.3918 33.9916 43.825 33.2834 44.3965 32.6952C44.5716 32.4873 44.8114 32.344 45.0775 32.2882H45.0965C45.3305 32.3732 45.6725 33.6302 45.0115 35.4502C44.747 36.2262 44.3144 36.934 43.7445 37.5232C43.3315 37.9152 43.0825 37.9372 43.0445 37.9232C43.0065 37.9092 42.8335 37.7322 42.7675 37.1632C42.71 36.3481 42.8332 35.5302 43.1285 34.7682Z" fill="#1977CC"/>
<path d="M25.2314 35.5052C25.5188 35.9073 25.8925 36.24 26.325 36.4791C26.7575 36.7182 27.238 36.8576 27.7314 36.8872C27.8709 36.8869 28.01 36.8745 28.1474 36.8502C30.1124 36.5032 31.1834 33.9132 30.6384 30.8262C30.4402 29.5667 29.9312 28.3765 29.1574 27.3632C28.8376 26.8961 28.3972 26.5244 27.8831 26.2876C27.3689 26.0508 26.8002 25.9577 26.2374 26.0182C24.2724 26.3652 23.2014 28.9552 23.7464 32.0422C23.9457 33.3021 24.4561 34.4923 25.2314 35.5052ZM26.5894 27.9872C26.6125 27.9831 26.6359 27.9811 26.6594 27.9812C26.8525 28.0193 27.036 28.0957 27.199 28.206C27.362 28.3163 27.5012 28.4581 27.6084 28.6232C28.1654 29.3741 28.5312 30.2493 28.6744 31.1732C29.0394 33.2462 28.3914 34.7732 27.8034 34.8812C27.5384 34.9322 27.1424 34.6872 26.7844 34.2452C26.2274 33.4943 25.8615 32.6191 25.7184 31.6952C25.3534 29.6222 26.0014 28.0912 26.5894 27.9872Z" fill="#1977CC"/>
</svg>
