<svg width="614" height="416" viewBox="0 0 614 416" fill="none" xmlns="http://www.w3.org/2000/svg">
<path d="M604.79 254.63C591.15 226.74 560.88 212.83 539.56 190.73C515.09 165.35 503.28 130.14 488.5 97.67C473.73 65.21 452.68 32.21 420 20.82C391.02 10.72 359.48 19.92 329.11 16.92C281.66 12.26 240.05 -15.36 195.16 11.74C139.8 45.19 93.83 94.25 59.67 150.37C45.38 173.84 27.96 203.88 16.88 235.24C5.06999 268.67 0.449991 303.59 14.51 333.64C37.03 381.76 81.76 388.97 127.03 379.15C178.99 367.87 232.76 364.2 285.61 372.46C325.95 378.76 365.69 391.3 405.62 397.82C388.32 399.69 377.65 402.24 377.65 405.05C377.65 410.79 422.09 415.45 476.92 415.45C531.75 415.45 576.19 410.79 576.19 405.05C576.19 400.31 545.89 396.31 504.48 395.06C509.08 393.76 513.69 392.27 518.32 390.55C529.95 386.22 542.2 380.48 553.9 373.48C556.59 371.86 559.25 370.19 561.86 368.44C561.86 368.43 561.86 368.43 561.87 368.43C562.01 368.35 562.15 368.26 562.27 368.16C563.06 367.64 563.83 367.11 564.6 366.56C566.96 364.93 569.28 363.24 571.55 361.5C573.03 360.37 574.47 359.21 575.91 358.02C576.72 357.36 577.52 356.69 578.31 356C579.71 354.81 581.07 353.58 582.41 352.34C583.18 351.63 583.94 350.91 584.69 350.18C587.12 347.83 589.43 345.41 591.61 342.9C592.56 341.82 593.48 340.74 594.37 339.64C600.75 331.78 605.88 323.25 609.23 314.09C615.69 296.44 615.49 276.5 604.79 254.63Z" fill="url(#paint0_linear)"/>
<path d="M151.16 400.74C174.615 400.74 193.63 397.946 193.63 394.5C193.63 391.054 174.615 388.26 151.16 388.26C127.704 388.26 108.69 391.054 108.69 394.5C108.69 397.946 127.704 400.74 151.16 400.74Z" fill="url(#paint1_linear)"/>
<path d="M278.11 399.02C311.589 399.02 338.73 394.802 338.73 389.6C338.73 384.397 311.589 380.18 278.11 380.18C244.63 380.18 217.49 384.397 217.49 389.6C217.49 394.802 244.63 399.02 278.11 399.02Z" fill="url(#paint2_linear)"/>
<path d="M216.85 33.9399H184.05V49.2999H216.85V33.9399Z" fill="#C1BED7"/>
<path d="M236.42 54.84H203.62V70.2H236.42V54.84Z" fill="#C1BED7"/>
<path d="M167.26 70.6799C152.72 70.6799 140.9 82.5099 140.9 97.0399C140.9 111.57 152.73 123.4 167.26 123.4C181.8 123.4 193.63 111.57 193.63 97.0399C193.63 82.5099 181.8 70.6799 167.26 70.6799ZM169.32 75.2199C172.17 76.3899 174.67 79.9099 176.27 84.7199C174.08 85.1499 171.73 85.4199 169.32 85.5099V75.2199ZM165.21 85.5099C162.81 85.4099 160.46 85.1499 158.26 84.7199C159.86 79.9099 162.35 76.3899 165.21 75.2199V85.5099ZM165.21 89.6299V94.9899H156.43C156.53 92.7999 156.8 90.6799 157.21 88.7099C159.73 89.2199 162.41 89.5299 165.21 89.6299ZM165.21 99.0999V104.47C162.44 104.57 159.73 104.88 157.21 105.39C156.8 103.41 156.54 101.29 156.43 99.0999H165.21ZM165.21 108.58V118.87C162.36 117.7 159.87 114.18 158.27 109.38C160.46 108.94 162.81 108.68 165.21 108.58ZM169.32 108.58C171.71 108.68 174.06 108.94 176.27 109.38C174.67 114.19 172.17 117.71 169.32 118.87V108.58ZM169.32 104.47V99.0999H178.1C178 101.3 177.73 103.41 177.32 105.39C174.8 104.88 172.08 104.57 169.32 104.47ZM169.32 94.9899V89.6299C172.12 89.5299 174.81 89.2199 177.32 88.7099C177.73 90.6899 177.99 92.7999 178.1 94.9899H169.32ZM152.33 94.9899H145.12C145.43 91.6099 146.51 88.4599 148.17 85.6899C149.67 86.4699 151.37 87.1399 153.23 87.7099C152.74 89.9899 152.44 92.4299 152.33 94.9899ZM152.33 99.0999C152.44 101.66 152.75 104.1 153.23 106.39C151.37 106.96 149.67 107.63 148.17 108.41C146.51 105.63 145.43 102.48 145.12 99.0999H152.33ZM182.2 99.0999H189.41C189.1 102.48 188.02 105.63 186.36 108.41C184.86 107.63 183.16 106.96 181.3 106.39C181.79 104.1 182.1 101.66 182.2 99.0999ZM182.2 94.9899C182.09 92.4299 181.78 89.9899 181.3 87.7099C183.16 87.1399 184.86 86.4699 186.36 85.6899C188.02 88.4599 189.1 91.6099 189.41 94.9899H182.2ZM183.92 82.3299C182.83 82.8599 181.59 83.3199 180.26 83.7299C179.45 81.2399 178.41 79.0199 177.19 77.1499C179.75 78.4399 182.03 80.1999 183.92 82.3299ZM157.35 77.1499C156.13 79.0199 155.09 81.2399 154.28 83.7299C152.95 83.3199 151.71 82.8599 150.62 82.3299C152.5 80.1999 154.78 78.4399 157.35 77.1499ZM150.62 111.76C151.71 111.23 152.95 110.77 154.28 110.36C155.09 112.85 156.13 115.06 157.35 116.93C154.78 115.65 152.5 113.89 150.62 111.76ZM177.19 116.94C178.41 115.07 179.44 112.86 180.26 110.37C181.59 110.78 182.83 111.24 183.92 111.77C182.03 113.89 179.75 115.65 177.19 116.94Z" fill="white"/>
<path d="M77.492 331.357H110.292V315.997H77.492V331.357Z" fill="#DFDEEE"/>
<path d="M38.3577 331.357H71.1577V315.997H38.3577V331.357Z" fill="#DFDEEE"/>
<path d="M57.93 352.266H90.73V336.906H57.93V352.266Z" fill="#DFDEEE"/>
<path d="M474.49 316.85L459.36 317.79L470.54 321C466.57 324.95 463.37 327.95 458.62 332.06L436.57 330.19L453.38 336.59C447.9 341.08 445.05 343.49 439.04 347.23C429.37 344.61 418.93 342.37 418.93 342.37L431.85 351.66C424.53 355.81 417.04 359 409.67 360.51C408.48 360.75 409.62 360.55 408.48 360.75L394.97 356.28L400.72 362.05C369.6 366.25 361.05 354.78 361.05 354.78C361.05 354.78 361.1 354.19 361.36 353.05C361.56 352.2 361.88 351.01 362.41 349.55C364.43 343.83 369.47 333.81 381.84 321.19L382.66 331.82L386.86 318.11C387.99 317.27 389.16 316.42 390.39 315.58C394.31 312.84 393.55 312.77 398.32 310.83L399.32 325.65L405.17 307.94C408 306.85 410.95 305.88 413.96 305.03L411.68 319.2L420.97 303.43C426.67 301.97 428.75 301.61 434.61 300.78L432.08 315.5L442.4 300.01C451.24 298.95 450.88 299.08 458.51 298.93L454.77 311.2L464.59 298.39C477.34 298.37 490.23 299.32 490.23 299.32C490.23 299.32 484.99 306.13 474.49 316.85Z" fill="#0797A7"/>
<path d="M441.13 255.26L431.44 263.1L440.46 259.92C439.68 264.46 438.98 268 437.76 273.01L422.1 282.27L436.41 278.54C434.88 284.16 434.12 287.14 431.88 292.5C424.15 295.36 416.09 298.84 416.09 298.84L429.17 298.9C426.25 305.17 422.75 310.88 418.53 315.4C417.85 316.13 418.51 315.45 417.85 316.13L406.67 319.58L413.27 320.71C394.43 338.37 383.23 334.76 383.23 334.76C383.23 334.76 382.98 334.34 382.61 333.45C382.34 332.78 381.99 331.83 381.65 330.61C380.28 325.82 378.87 316.7 381.14 302.35L386.76 309.07L383.04 297.89C383.4 296.79 383.77 295.66 384.19 294.51C385.51 290.81 384.96 291.12 387.24 287.55L394.97 297L390.44 282.35C391.82 280.27 393.33 278.22 394.94 276.21L400.17 286.79L398.87 271.79C401.99 268.09 403.21 266.86 406.75 263.51L412.07 274.58L411.59 259.28C417 254.35 416.83 254.62 421.87 250.88L425.22 260.88L425.69 247.61C434.22 241.51 443.31 236.01 443.31 236.01C443.31 236.01 443.05 243.07 441.13 255.26Z" fill="#0CC3BE"/>
<path d="M7.48 247.49L21.01 254.35L9.47 252.87C11.55 258.07 13.29 262.09 16.03 267.75L37.01 274.77L19.04 273.98C22.29 280.27 23.96 283.62 27.99 289.43C37.91 290.86 48.38 292.94 48.38 292.94L32.84 296.35C37.91 303.05 43.53 308.96 49.7 313.26C50.7 313.95 49.73 313.31 50.7 313.95L64.88 315.2L57.32 318.22C84.23 334.41 96.63 327.26 96.63 327.26C96.63 327.26 96.82 326.7 97.03 325.55C97.18 324.68 97.36 323.47 97.45 321.92C97.86 315.87 97.21 304.67 90.84 288.18L85.88 297.61L87.45 283.36C86.74 282.14 86.01 280.9 85.22 279.64C82.7 275.57 83.44 275.81 79.82 272.14L73.03 285.35L74.68 266.77C72.51 264.65 70.19 262.59 67.77 260.62L64.25 274.53L61.97 256.36C57.31 252.76 55.55 251.61 50.49 248.52L46.98 263.04L43.65 244.73C35.95 240.25 36.23 240.52 29.28 237.36L27.85 250.11L23.91 234.45C12.21 229.38 0 225.15 0 225.15C0 225.15 2.09 233.49 7.48 247.49Z" fill="#0797A7"/>
<path d="M24.75 154.08C28.8 159.54 30.7 166.98 29.81 173.65C30.18 174.8 30.6 176.13 31.08 177.61C33.59 171.47 38 166.19 43.28 162.23C41.72 168.9 37.2 175.19 31.47 178.81C32.26 181.25 33.18 184.06 34.23 187.18C34.72 188.62 35.23 190.12 35.77 191.69C36.03 192.43 36.3 193.18 36.58 193.95C40.95 185.3 48.27 178.4 56.73 173.79C53.4 182.96 45.72 190.91 36.78 194.5C37.02 195.17 37.27 195.84 37.52 196.53C38.69 199.89 40.08 203.39 41.49 207.1C42.15 208.76 42.83 210.46 43.53 212.17C47.87 201.41 55.82 192.42 65.42 185.95C62.68 197.52 54.53 208.09 44.17 213.72C45.82 217.72 47.58 221.84 49.45 226.02C49.5 226.06 49.56 226.09 49.62 226.12C49.58 226.13 49.55 226.13 49.51 226.14C50.15 227.58 50.81 229.01 51.47 230.46C51.54 230.6 51.6 230.74 51.67 230.88C56.02 218.46 65.86 207.62 77.72 202.41C72.85 214.93 63.63 225.26 52.48 232.61C55.9 239.8 59.32 246.43 62.54 252.34C62.81 252.82 63.08 253.3 63.35 253.77C66 237.86 75.93 222.73 89.42 214.29C85.75 230.25 76.32 244.29 64.03 254.97C65.29 257.21 66.5 259.37 67.69 261.33C68.51 262.71 69.29 264.06 70.06 265.33C70.84 266.57 71.58 267.77 72.29 268.91C72.31 268.94 72.33 268.97 72.35 269C76.71 254.27 87.75 241.1 101.41 234.57C96.24 249.24 85.89 261.51 73.21 270.36C78.39 278.54 81.71 283.17 81.6 283.69C81.54 284.03 78.89 281.19 74.63 275.35C63.16 280.92 50.02 282.15 37.51 280C48.02 273.2 61.93 271.09 73.91 274.36C73.24 273.42 72.53 272.42 71.79 271.34C71.76 271.36 71.73 271.38 71.7 271.4C71.71 271.35 71.73 271.31 71.74 271.26C71.7 271.2 71.66 271.14 71.62 271.08C70.87 269.98 70.09 268.83 69.28 267.63C68.48 266.4 67.66 265.07 66.8 263.72C66.49 263.24 66.18 262.74 65.87 262.24C50.49 266.95 33.87 266.02 18.63 261.03C32.82 254.55 50.25 254.29 64.6 260.16C63.57 258.44 62.52 256.63 61.43 254.77C60.06 252.34 58.65 249.78 57.23 247.1C41.07 248.99 24.71 244.97 10.52 237.14C25.8 233.4 43.14 236.48 56.17 245.09C54.11 241.14 52.02 236.94 49.95 232.52C49.02 230.52 48.13 228.52 47.25 226.54C34.14 228.58 20.67 225.97 8.72998 220.25C20.92 216.51 35.01 218.03 46.17 224.07C44.15 219.39 42.29 214.79 40.59 210.38C28.84 209.74 17.07 203.88 9.71998 194.9C20.73 196 31.01 200.77 39.57 207.68C38.27 204.12 37.01 200.73 35.95 197.48C35.37 195.75 34.8 194.09 34.28 192.47C34.07 191.79 33.87 191.13 33.66 190.47C26.09 191.31 18.41 188.15 13.57 182.08C20.77 181.72 27.53 184.33 33.15 188.82C33.05 188.48 32.94 188.14 32.84 187.81C31.9 184.69 31.1 181.89 30.43 179.43C30.42 179.44 30.41 179.44 30.4 179.45C30.41 179.43 30.42 179.41 30.42 179.39C30.32 179 30.21 178.62 30.11 178.26C23.49 176.53 17.31 171.99 13.87 166.26C19.95 168.09 25.34 171.76 29.62 176.39C29.41 175.56 29.22 174.8 29.04 174.1C25.65 168.04 24.34 160.95 24.75 154.08Z" fill="#0CC3BE"/>
<path d="M78.3201 85.8599C83.2701 90.5199 90.4401 93.2699 97.1701 93.1599C98.2701 93.6599 99.5401 94.2399 100.95 94.8899C94.5601 96.6699 88.8001 100.43 84.2601 105.22C91.0701 104.44 97.8401 100.69 102.1 95.4199C104.44 96.4899 107.11 97.7299 110.09 99.1399C111.46 99.7899 112.9 100.48 114.39 101.19C115.1 101.53 115.81 101.89 116.54 102.26C107.44 105.59 99.7401 112.06 94.1701 119.92C103.66 117.69 112.45 110.98 117.06 102.52C117.7 102.84 118.34 103.16 118.99 103.49C122.19 105.05 125.5 106.83 129.03 108.66C130.6 109.51 132.21 110.38 133.83 111.28C122.64 114.33 112.79 121.19 105.24 129.96C117.05 128.58 128.5 121.72 135.29 112.09C139.07 114.19 142.96 116.42 146.89 118.77C146.92 118.83 146.94 118.89 146.97 118.95C146.98 118.91 146.99 118.88 147 118.84C148.35 119.65 149.7 120.46 151.06 121.29C151.19 121.37 151.32 121.45 151.46 121.54C138.62 124.42 126.71 132.93 120.15 144.1C133.15 140.72 144.49 132.77 153.09 122.55C159.84 126.79 166.02 130.96 171.52 134.84C171.97 135.17 172.41 135.49 172.85 135.81C156.74 136.59 140.56 144.68 130.6 157.1C146.88 155.32 161.92 147.58 173.96 136.62C176.04 138.13 178.04 139.58 179.85 140.99C181.12 141.96 182.38 142.9 183.54 143.81C184.69 144.72 185.78 145.6 186.83 146.44C186.86 146.46 186.89 146.49 186.92 146.51C171.78 149.12 157.42 158.55 149.34 171.36C164.51 167.93 177.9 159.09 188.17 147.52C195.69 153.62 199.91 157.45 200.43 157.41C200.78 157.39 198.26 154.42 192.96 149.52C199.83 138.78 202.58 125.87 201.9 113.19C193.92 122.84 190.2 136.41 192.06 148.69C191.21 147.91 190.29 147.09 189.31 146.23C189.33 146.2 189.36 146.17 189.38 146.15C189.33 146.16 189.28 146.17 189.23 146.17C189.17 146.12 189.12 146.08 189.07 146.03C188.06 145.16 187.01 144.25 185.91 143.3C184.78 142.36 183.56 141.39 182.31 140.38C181.87 140.02 181.41 139.65 180.94 139.28C187.4 124.55 188.42 107.94 185.24 92.2199C177.15 105.56 174.86 122.84 179.02 137.78C177.43 136.56 175.75 135.3 174.04 134C171.79 132.35 169.41 130.66 166.91 128.93C170.67 113.1 168.58 96.3899 162.46 81.3799C156.96 96.1199 158 113.7 165.04 127.65C161.35 125.14 157.43 122.58 153.28 120.01C151.4 118.86 149.52 117.73 147.65 116.63C151.2 103.85 150.18 90.1599 145.89 77.6399C140.76 89.3099 140.62 103.48 145.32 115.27C140.9 112.72 136.56 110.34 132.37 108.13C133.1 96.3799 128.66 84.0099 120.59 75.6699C120.4 86.7299 123.94 97.4999 129.81 106.8C126.42 105.09 123.21 103.45 120.1 102.02C118.45 101.24 116.86 100.48 115.32 99.7799C114.67 99.4899 114.03 99.2099 113.4 98.9299C115.12 91.4999 112.87 83.5199 107.41 77.9999C106.21 85.0999 108.02 92.1199 111.82 98.2299C111.5 98.0899 111.17 97.9399 110.85 97.7999C107.86 96.4999 105.17 95.3799 102.81 94.4299C102.82 94.4199 102.83 94.4099 102.83 94.3999C102.81 94.3999 102.79 94.4099 102.77 94.4199C102.4 94.2699 102.03 94.1199 101.68 93.9799C100.73 87.2099 96.9401 80.5299 91.6601 76.4499C92.7701 82.6999 95.7901 88.4799 99.8901 93.2699C99.0901 92.9599 98.3601 92.6899 97.6801 92.4299C92.0801 88.3899 85.1901 86.2599 78.3201 85.8599Z" fill="#0CC3BE"/>
<path d="M401.78 155.24V351.26C401.78 352.25 401.66 353.22 401.43 354.13C400.15 359.25 395.51 363.04 390 363.04H77.3C70.79 363.04 65.52 357.76 65.52 351.25V155.24C65.52 148.73 70.79 143.46 77.3 143.46H389.99C396.5 143.46 401.78 148.73 401.78 155.24Z" fill="#FD7658"/>
<path d="M401.78 155.24V320.46C380.93 317.95 360.32 311.08 344.36 297.57C326.71 282.63 315.77 258.6 320.5 235.97C308.55 267.81 269.81 284.43 236.5 277.53C203.19 270.63 176.24 244.5 161.01 214.08C152.95 197.99 140.87 168.96 139.16 143.48H389.99C396.5 143.46 401.78 148.73 401.78 155.24Z" fill="#F88859"/>
<path d="M401.42 354.14C400.14 359.26 395.5 363.05 389.99 363.05H77.3C70.79 363.05 65.52 357.77 65.52 351.26V326.76C67.59 329.83 70.05 332.64 72.81 335.05C85.15 345.89 102.23 349.94 118.65 349.85C135.06 349.76 151.2 345.96 167.31 342.85C218.91 332.9 271.86 329.97 324.23 334.16C350.72 336.29 378.83 341.26 401.42 354.14Z" fill="#DE624C"/>
<path d="M137.92 222.31H98.79C95.73 222.31 93.24 219.83 93.24 216.76V177.63C93.24 174.57 95.72 172.08 98.79 172.08H137.92C140.98 172.08 143.47 174.56 143.47 177.63V216.76C143.47 219.83 140.98 222.31 137.92 222.31Z" fill="#FDA859"/>
<path d="M136.86 220.18H99.8599C97.3899 220.18 95.3899 218.18 95.3899 215.71V178.71C95.3899 176.24 97.3899 174.24 99.8599 174.24H136.86C139.33 174.24 141.33 176.24 141.33 178.71V215.71C141.33 218.17 139.33 220.18 136.86 220.18Z" fill="#FCC700"/>
<path d="M126.58 213.23H110.12C107.44 213.23 105.26 211.05 105.26 208.37V186.04C105.26 183.36 107.44 181.18 110.12 181.18H126.58C129.26 181.18 131.44 183.36 131.44 186.04V208.37C131.45 211.05 129.27 213.23 126.58 213.23ZM110.13 185.45C109.81 185.45 109.54 185.71 109.54 186.04V208.37C109.54 208.69 109.8 208.96 110.13 208.96H126.59C126.91 208.96 127.18 208.7 127.18 208.37V186.04C127.18 185.72 126.92 185.45 126.59 185.45H110.13Z" fill="#FDA859"/>
<path d="M107.4 187.05H95.3799V191.32H107.4V187.05Z" fill="#FDA859"/>
<path d="M107.4 195.06H95.3799V199.33H107.4V195.06Z" fill="#FDA859"/>
<path d="M107.4 203.08H95.3799V207.35H107.4V203.08Z" fill="#FDA859"/>
<path d="M141.33 187.05H129.31V191.32H141.33V187.05Z" fill="#FDA859"/>
<path d="M141.33 195.06H129.31V199.33H141.33V195.06Z" fill="#FDA859"/>
<path d="M141.33 203.08H129.31V207.35H141.33V203.08Z" fill="#FDA859"/>
<path d="M99.58 245.74V259.71H95.93V248.73H93.24V245.74H99.58Z" fill="white"/>
<path d="M115.08 255.31C115.08 258 112.87 259.87 109.4 259.87C107.37 259.87 105.26 259.19 103.9 258.16L105.37 255.35C106.47 256.49 107.78 257.08 109.12 257.08C110.65 257.08 111.51 256.44 111.51 255.35C111.51 254.23 110.65 253.66 109.1 253.66H106.75V251.71L110.02 248.58H104.64L104.62 245.77H114.38V247.88L110.61 251.39L111.31 251.49C113.52 251.82 115.08 253.18 115.08 255.31Z" fill="white"/>
<path d="M127.61 252.72C127.61 257.28 125.66 259.81 122.15 259.81C118.6 259.81 116.67 257.28 116.67 252.72C116.67 248.16 118.6 245.65 122.15 245.65C125.66 245.64 127.61 248.16 127.61 252.72ZM120.16 252.72C120.16 255.91 120.74 257.24 122.15 257.24C123.54 257.24 124.12 255.91 124.12 252.72C124.12 249.51 123.54 248.2 122.15 248.2C120.73 248.2 120.16 249.51 120.16 252.72Z" fill="white"/>
<path d="M140.16 245.72V248.25L134.9 259.71H131.05L136.15 248.67H132.24V250.62H129.01V245.72H140.16Z" fill="white"/>
<path d="M168.48 257.1C170.65 257.1 171.71 255.7 171.67 253.41C171.01 254.35 169.94 254.92 168.42 254.92C165.71 254.92 164 253.11 164 250.38C164 247.43 166.03 245.58 169.12 245.58C172.81 245.58 175.04 248.21 175.04 252.49C175.04 256.95 172.57 259.86 168.7 259.86C167.17 259.86 165.43 259.4 164.26 258.7L165.62 256.19C166.41 256.78 167.43 257.1 168.48 257.1ZM167.27 250.41C167.27 251.61 167.97 252.32 169.2 252.32C170.55 252.32 171.29 251.48 171.27 250.35C171.29 249.33 170.65 248.44 169.26 248.44C168.02 248.43 167.27 249.15 167.27 250.41Z" fill="white"/>
<path d="M183.94 245.74V259.71H180.29V248.73H177.6V245.74H183.94Z" fill="white"/>
<path d="M196.23 245.74V259.71H192.58V248.73H189.89V245.74H196.23Z" fill="white"/>
<path d="M211.73 255.31C211.73 258 209.52 259.87 206.05 259.87C204.02 259.87 201.91 259.19 200.55 258.16L202.02 255.35C203.12 256.49 204.43 257.08 205.77 257.08C207.3 257.08 208.16 256.44 208.16 255.35C208.16 254.23 207.3 253.66 205.75 253.66H203.4V251.71L206.67 248.58H201.29L201.27 245.77H211.03V247.88L207.26 251.39L207.96 251.49C210.17 251.82 211.73 253.18 211.73 255.31Z" fill="white"/>
<path d="M247.17 252.72C247.17 257.28 245.22 259.81 241.71 259.81C238.16 259.81 236.23 257.28 236.23 252.72C236.23 248.16 238.16 245.65 241.71 245.65C245.21 245.64 247.17 248.16 247.17 252.72ZM239.71 252.72C239.71 255.91 240.29 257.24 241.7 257.24C243.09 257.24 243.67 255.91 243.67 252.72C243.67 249.51 243.09 248.2 241.7 248.2C240.29 248.2 239.71 249.51 239.71 252.72Z" fill="white"/>
<path d="M254 250.79C257.29 250.79 259.42 252.52 259.42 255.01C259.42 257.96 257.17 259.87 253.72 259.87C251.85 259.87 249.69 259.17 248.18 258.12L249.63 255.29C250.73 256.45 252 257.04 253.28 257.04C254.7 257.04 255.49 256.4 255.49 255.27C255.49 254.21 254.69 253.62 253.3 253.62C252.56 253.62 250.27 253.64 249.4 253.7V245.73H258.78V248.68H252.74V250.81C253.04 250.79 253.72 250.79 254 250.79Z" fill="white"/>
<path d="M265.13 257.1C267.3 257.1 268.36 255.7 268.32 253.41C267.66 254.35 266.59 254.92 265.07 254.92C262.36 254.92 260.65 253.11 260.65 250.38C260.65 247.43 262.68 245.58 265.77 245.58C269.46 245.58 271.69 248.21 271.69 252.49C271.69 256.95 269.22 259.86 265.35 259.86C263.82 259.86 262.08 259.4 260.91 258.7L262.27 256.19C263.06 256.78 264.08 257.1 265.13 257.1ZM263.92 250.41C263.92 251.61 264.62 252.32 265.85 252.32C267.21 252.32 267.94 251.48 267.92 250.35C267.94 249.33 267.3 248.44 265.91 248.44C264.67 248.43 263.92 249.15 263.92 250.41Z" fill="white"/>
<path d="M279.75 249.79C279.75 249.03 279.17 248.6 278.16 248.6C277.02 248.6 275.59 249.28 274.29 250.37L272.92 247.68C274.71 246.37 276.67 245.57 278.7 245.57C281.53 245.57 283.58 247.04 283.58 249.26C283.58 250.77 282.42 252.35 280.87 253.92L278 256.79H283.98V259.72H273.34L273.32 257.31L278.4 252.09C279.18 251.28 279.75 250.39 279.75 249.79Z" fill="white"/>
<path d="M314.95 249.79C314.95 249.03 314.37 248.6 313.36 248.6C312.22 248.6 310.79 249.28 309.49 250.37L308.12 247.68C309.91 246.37 311.87 245.57 313.9 245.57C316.73 245.57 318.78 247.04 318.78 249.26C318.78 250.77 317.62 252.35 316.07 253.92L313.2 256.79H319.18V259.72H308.54L308.52 257.31L313.6 252.09C314.37 251.28 314.95 250.39 314.95 249.79Z" fill="white"/>
<path d="M331.78 245.72V248.25L326.52 259.71H322.67L327.77 248.67H323.86V250.62H320.63V245.72H331.78Z" fill="white"/>
<path d="M340.37 245.74V259.71H336.72V248.73H334.03V245.74H340.37Z" fill="white"/>
<path d="M352.66 245.74V259.71H349.01V248.73H346.32V245.74H352.66Z" fill="white"/>
<path d="M97.32 285.12V294.1H94.97V287.04H93.24V285.12H97.32Z" fill="white"/>
<path d="M105.23 285.12V294.1H102.88V287.04H101.15V285.12H105.23Z" fill="white"/>
<path d="M113.48 283.72L109.33 295.51H107.41L111.56 283.72H113.48Z" fill="white"/>
<path d="M117.16 287.72C117.16 287.23 116.79 286.95 116.13 286.95C115.4 286.95 114.48 287.39 113.64 288.09L112.76 286.36C113.91 285.51 115.17 285 116.48 285C118.3 285 119.62 285.95 119.62 287.37C119.62 288.34 118.88 289.36 117.88 290.37L116.03 292.22H119.88V294.1H113.04L113.03 292.55L116.3 289.19C116.79 288.68 117.16 288.1 117.16 287.72Z" fill="white"/>
<path d="M127.67 291.27C127.67 293 126.25 294.2 124.02 294.2C122.71 294.2 121.35 293.76 120.48 293.1L121.43 291.29C122.13 292.02 122.98 292.41 123.84 292.41C124.83 292.41 125.38 292 125.38 291.29C125.38 290.57 124.83 290.2 123.83 290.2H122.32V288.94L124.42 286.93H120.96L120.95 285.12H127.23V286.48L124.81 288.74L125.26 288.8C126.67 289.02 127.67 289.9 127.67 291.27Z" fill="white"/>
<path d="M94.3 276.73L95.24 279.44L96.18 276.73H97.18L95.71 280.48H94.7L93.25 276.73H94.3Z" fill="white"/>
<path d="M99.7301 279.82H98.1101L97.8501 280.48H96.8401L98.4501 276.73H99.4601L101.03 280.48H99.9901L99.7301 279.82ZM99.4401 279.07L98.9301 277.73L98.4101 279.07H99.4401Z" fill="white"/>
<path d="M102.34 276.73V279.65H103.93V280.48H101.36V276.73H102.34Z" fill="white"/>
<path d="M105.35 276.73V280.48H104.37V276.73H105.35Z" fill="white"/>
<path d="M109.69 278.6C109.69 279.72 108.87 280.48 107.66 280.48H106.08V276.73H107.69C108.88 276.73 109.69 277.49 109.69 278.6ZM108.69 278.61C108.69 277.96 108.27 277.52 107.67 277.52H107.05V279.68H107.71C108.29 279.69 108.69 279.26 108.69 278.61Z" fill="white"/>
<path d="M114.2 276.73L114.19 277.51H112.37V278.34H114.05V279.12H112.37V280.47H111.39V276.72H114.2V276.73Z" fill="white"/>
<path d="M116.89 280.48L116.34 279.44H116.32H115.61V280.48H114.63V276.73H116.31C117.3 276.73 117.87 277.21 117.87 278.05C117.87 278.62 117.63 279.03 117.2 279.26L117.98 280.49H116.89V280.48ZM115.62 278.66H116.33C116.73 278.66 116.96 278.46 116.96 278.08C116.96 277.71 116.73 277.51 116.33 277.51H115.62V278.66Z" fill="white"/>
<path d="M122.32 278.6C122.32 279.7 121.45 280.52 120.29 280.52C119.13 280.52 118.26 279.7 118.26 278.6C118.26 277.51 119.13 276.7 120.29 276.7C121.46 276.71 122.32 277.52 122.32 278.6ZM119.28 278.61C119.28 279.22 119.76 279.69 120.31 279.69C120.87 279.69 121.32 279.22 121.32 278.61C121.32 278 120.87 277.54 120.31 277.54C119.75 277.54 119.28 278 119.28 278.61Z" fill="white"/>
<path d="M123.88 276.73L124.87 278.92L125.86 276.73H126.93V280.48H126.06L126.05 278.11L125.18 280.11H124.54L123.67 278.11V280.48H122.8V276.73H123.88Z" fill="white"/>
<path d="M344.29 337.03C337.02 337.03 331.11 331.12 331.11 323.85C331.11 316.58 337.02 310.67 344.29 310.67C351.56 310.67 357.47 316.58 357.47 323.85C357.47 331.11 351.56 337.03 344.29 337.03ZM344.29 312.8C338.2 312.8 333.25 317.75 333.25 323.84C333.25 329.93 338.2 334.88 344.29 334.88C350.38 334.88 355.33 329.93 355.33 323.84C355.33 317.76 350.38 312.8 344.29 312.8Z" fill="white"/>
<path d="M361.03 337.03C353.76 337.03 347.85 331.12 347.85 323.85C347.85 316.58 353.76 310.67 361.03 310.67C368.3 310.67 374.21 316.58 374.21 323.85C374.21 331.11 368.29 337.03 361.03 337.03ZM361.03 312.8C354.94 312.8 349.99 317.75 349.99 323.84C349.99 329.93 354.94 334.88 361.03 334.88C367.12 334.88 372.07 329.93 372.07 323.84C372.07 317.76 367.11 312.8 361.03 312.8Z" fill="white"/>
<path d="M251.3 317.92H93.24V327.77H251.3V317.92Z" fill="white"/>
<path d="M301.46 369.95H238.03H234.22V377.04C234.22 385.73 250.12 392.78 269.75 392.78C289.36 392.78 305.27 385.73 305.27 377.04V369.95H301.46Z" fill="#FDA859"/>
<path d="M305.28 369.94C305.28 370.04 305.28 370.12 305.27 370.22C304.95 378.79 289.16 385.68 269.75 385.68C250.12 385.68 234.22 378.63 234.22 369.94C234.22 368.98 234.41 368.04 234.8 367.13C237.78 359.78 252.3 354.2 269.75 354.2C287.19 354.2 301.72 359.78 304.7 367.13C305.05 367.95 305.24 368.8 305.27 369.66C305.28 369.76 305.28 369.85 305.28 369.94Z" fill="#FCC700"/>
<path d="M269.75 382.75C285.705 382.75 298.64 377.019 298.64 369.95C298.64 362.881 285.705 357.15 269.75 357.15C253.794 357.15 240.86 362.881 240.86 369.95C240.86 377.019 253.794 382.75 269.75 382.75Z" fill="#FDA859"/>
<path d="M273.02 374.71V377.4H267.75V374.7C264.02 374.47 260.42 373.79 257.76 372.82L260.57 370.31C263.43 371.4 267.75 372.17 270.64 372.17C272.78 372.17 274.13 371.82 274.13 371.17C274.13 369.08 259.5 370.34 259.5 365.99C259.5 364.04 262.67 362.69 267.75 362.32V359.74H273.02V362.3C276.27 362.46 279.36 362.95 281.7 363.62L278.97 366.17C276.04 365.43 272.31 364.85 270.01 364.85C268.27 364.85 267.12 365.13 267.12 365.69C267.12 367.73 281.75 366.57 281.75 370.99C281.74 373.15 278.02 374.41 273.02 374.71Z" fill="#FCC700"/>
<path d="M313.93 361.92H250.5H246.69V369.01C246.69 377.7 262.59 384.75 282.22 384.75C301.83 384.75 317.74 377.7 317.74 369.01V361.92H313.93Z" fill="#FDA859"/>
<path d="M317.74 361.92C317.74 362.02 317.74 362.1 317.73 362.2C317.41 370.77 301.62 377.66 282.21 377.66C262.58 377.66 246.68 370.61 246.68 361.92C246.68 360.96 246.87 360.02 247.26 359.11C250.24 351.76 264.76 346.18 282.21 346.18C299.65 346.18 314.18 351.76 317.16 359.11C317.51 359.93 317.7 360.78 317.73 361.64C317.74 361.74 317.74 361.82 317.74 361.92Z" fill="#FCC700"/>
<path d="M282.21 374.72C298.165 374.72 311.1 368.989 311.1 361.92C311.1 354.851 298.165 349.12 282.21 349.12C266.254 349.12 253.32 354.851 253.32 361.92C253.32 368.989 266.254 374.72 282.21 374.72Z" fill="#FDA859"/>
<path d="M285.48 366.68V369.37H280.21V366.67C276.48 366.44 272.88 365.76 270.22 364.79L273.03 362.28C275.89 363.37 280.21 364.14 283.1 364.14C285.24 364.14 286.59 363.79 286.59 363.14C286.59 361.05 271.96 362.31 271.96 357.96C271.96 356.01 275.13 354.66 280.21 354.29V351.71H285.48V354.27C288.73 354.43 291.82 354.92 294.16 355.59L291.43 358.14C288.5 357.4 284.77 356.82 282.47 356.82C280.73 356.82 279.58 357.1 279.58 357.66C279.58 359.7 294.21 358.54 294.21 362.96C294.21 365.12 290.48 366.38 285.48 366.68Z" fill="#FCC700"/>
<path d="M296.29 345.58H232.86H229.05V352.67C229.05 361.36 244.95 368.41 264.58 368.41C284.19 368.41 300.1 361.36 300.1 352.67V345.58H296.29Z" fill="#FDA859"/>
<path d="M300.11 345.57C300.11 345.67 300.11 345.75 300.1 345.85C299.78 354.42 283.99 361.31 264.58 361.31C244.95 361.31 229.05 354.26 229.05 345.57C229.05 344.62 229.24 343.67 229.63 342.76C232.61 335.41 247.13 329.83 264.58 329.83C282.02 329.83 296.55 335.41 299.53 342.76C299.88 343.58 300.07 344.43 300.1 345.29C300.11 345.39 300.11 345.47 300.11 345.57Z" fill="#FCC700"/>
<path d="M264.58 358.37C280.535 358.37 293.47 352.639 293.47 345.57C293.47 338.501 280.535 332.77 264.58 332.77C248.624 332.77 235.69 338.501 235.69 345.57C235.69 352.639 248.624 358.37 264.58 358.37Z" fill="#FDA859"/>
<path d="M267.85 350.34V353.03H262.58V350.33C258.85 350.1 255.25 349.42 252.59 348.45L255.4 345.94C258.26 347.03 262.58 347.8 265.47 347.8C267.61 347.8 268.96 347.45 268.96 346.8C268.96 344.71 254.33 345.97 254.33 341.62C254.33 339.67 257.5 338.32 262.58 337.95V335.37H267.85V337.93C271.1 338.09 274.19 338.58 276.53 339.25L273.8 341.8C270.87 341.06 267.14 340.48 264.84 340.48C263.1 340.48 261.95 340.76 261.95 341.32C261.95 343.36 276.58 342.2 276.58 346.62C276.57 348.77 272.84 350.04 267.85 350.34Z" fill="#FCC700"/>
<path d="M320.56 330.2H257.13H253.32V337.29C253.32 345.98 269.22 353.03 288.85 353.03C308.46 353.03 324.37 345.98 324.37 337.29V330.2H320.56Z" fill="#FDA859"/>
<path d="M324.38 330.19C324.38 330.29 324.38 330.37 324.37 330.47C324.05 339.04 308.26 345.93 288.85 345.93C269.22 345.93 253.32 338.88 253.32 330.19C253.32 329.23 253.51 328.29 253.9 327.38C256.88 320.03 271.4 314.45 288.85 314.45C306.29 314.45 320.82 320.03 323.8 327.38C324.15 328.2 324.34 329.05 324.37 329.91C324.38 330.01 324.38 330.09 324.38 330.19Z" fill="#FCC700"/>
<path d="M288.85 342.99C304.805 342.99 317.74 337.259 317.74 330.19C317.74 323.121 304.805 317.39 288.85 317.39C272.894 317.39 259.96 323.121 259.96 330.19C259.96 337.259 272.894 342.99 288.85 342.99Z" fill="#FDA859"/>
<path d="M292.12 334.95V337.64H286.85V334.94C283.12 334.71 279.52 334.03 276.86 333.06L279.67 330.55C282.53 331.64 286.85 332.41 289.74 332.41C291.88 332.41 293.23 332.06 293.23 331.41C293.23 329.32 278.6 330.58 278.6 326.23C278.6 324.28 281.77 322.93 286.85 322.56V319.98H292.12V322.54C295.37 322.7 298.46 323.19 300.8 323.86L298.07 326.41C295.14 325.67 291.41 325.09 289.11 325.09C287.37 325.09 286.22 325.37 286.22 325.93C286.22 327.97 300.85 326.81 300.85 331.23C300.84 333.39 297.12 334.66 292.12 334.95Z" fill="#FCC700"/>
<path d="M170.295 386.338C186.946 375.903 191.986 353.946 181.552 337.294C171.118 320.642 149.16 315.602 132.509 326.037C115.857 336.471 110.817 358.428 121.251 375.08C131.685 391.732 153.643 396.772 170.295 386.338Z" fill="#FCC700"/>
<path d="M156.197 384.721C171.951 382.058 182.562 367.128 179.899 351.374C177.235 335.62 162.305 325.008 146.551 327.671C130.797 330.335 120.186 345.265 122.849 361.019C125.512 376.773 140.443 387.385 156.197 384.721Z" fill="#FDA859"/>
<path d="M160.33 367.32L162.95 372.8L158.18 375.08L155.55 369.56C151.96 370.7 148.03 370.86 144.69 370.04L144.79 363.7C148.43 364.69 153.09 364.4 155.7 363.15C157.63 362.23 158.51 360.93 157.88 359.6C155.84 355.34 143.86 364.23 139.61 355.34C137.71 351.36 139.26 347.24 143.49 344.29L140.98 339.02L145.75 336.74L148.25 341.97C151.34 340.89 154.62 340.56 157.38 340.91L157.39 347.28C154.02 347.04 150.09 347.47 148.01 348.46C146.43 349.21 145.67 350.28 146.22 351.43C148.2 355.59 160.3 346.91 164.61 355.94C166.69 360.37 164.56 364.56 160.33 367.32Z" fill="#FCC700"/>
<path d="M342.38 73.0499C321.24 51.9099 286.85 51.9099 265.71 73.0499C264.5 74.2599 264.5 76.2199 265.71 77.4299C266.92 78.6399 268.88 78.6399 270.09 77.4299C288.81 58.7099 319.28 58.7099 338 77.4299C339.21 78.6399 341.17 78.6399 342.38 77.4299C343.59 76.2199 343.59 74.2599 342.38 73.0499Z" fill="#C1BED7"/>
<path d="M275.45 82.7899C274.24 83.9999 274.24 85.9599 275.45 87.1699C276.66 88.3799 278.62 88.3799 279.83 87.1699C293.18 73.8199 314.91 73.8199 328.27 87.1699C329.48 88.3799 331.44 88.3799 332.65 87.1699C333.86 85.9599 333.86 83.9999 332.65 82.7899C316.87 67.0199 291.22 67.0199 275.45 82.7899Z" fill="#C1BED7"/>
<path d="M285.24 92.58C284.03 93.79 284.03 95.75 285.24 96.96C286.45 98.17 288.41 98.17 289.62 96.96C297.57 89.01 310.51 89.01 318.47 96.96C319.68 98.17 321.64 98.17 322.85 96.96C324.06 95.75 324.06 93.79 322.85 92.58C312.48 82.21 295.61 82.21 285.24 92.58Z" fill="#C1BED7"/>
<path d="M299.26 99.56C295.91 102.91 295.91 108.33 299.26 111.67C302.61 115.02 308.03 115.02 311.37 111.67C314.72 108.32 314.72 102.9 311.37 99.56C308.03 96.21 302.61 96.21 299.26 99.56Z" fill="#C1BED7"/>
<path d="M514.67 77.89L513.35 73.99L512.03 77.89C510.33 82.91 506.81 87.11 502.16 89.65C506.81 92.19 510.33 96.39 512.03 101.41L513.35 105.31L514.67 101.41C516.37 96.39 519.89 92.19 524.54 89.65C519.89 87.11 516.36 82.91 514.67 77.89Z" fill="#FCC700"/>
<path d="M531.17 111.26L530.26 108.56L529.35 111.26C528.17 114.74 525.73 117.65 522.51 119.42C525.73 121.18 528.18 124.1 529.35 127.58L530.26 130.28L531.17 127.58C532.35 124.1 534.79 121.19 538.01 119.42C534.79 117.65 532.35 114.74 531.17 111.26Z" fill="#FCC700"/>
<path d="M520.95 171.57C519.57 176.26 517.26 180.61 514.93 184.91C514.76 183.4 514.27 181.99 513.58 180.67C511.81 177.34 508.67 174.64 505.42 172.57C501.32 169.93 496.9 167.84 493.35 164.43C488.91 160.16 486.74 154.32 486.21 148.27C485.77 143.17 486.06 137.67 488.67 133.3C489.05 132.63 489.5 131.99 490.01 131.39C490.53 130.77 491.11 130.18 491.76 129.62C491.52 129.83 491.67 130.35 492.05 131.02C493.12 132.94 495.99 136.06 496.47 136.52C499.44 139.38 503.16 140.79 506.73 142.48C512.91 145.43 518.92 150.48 521.16 157.13C522.71 161.77 522.33 166.88 520.95 171.57Z" fill="#343C4B"/>
<path d="M496.91 116.44C496.88 119.87 496.81 123.43 495.4 126.55C494.63 128.27 493.46 129.77 492.05 131.02C491.43 131.57 490.74 132.07 490.04 132.52C489.6 132.81 489.15 133.06 488.68 133.29C487.5 133.89 486.24 134.35 484.96 134.68C480.52 135.78 475.82 135.25 471.42 133.99C467.48 132.86 463.59 131.05 460.77 128.06C458.37 125.48 456.86 122.16 455.97 118.74C454.86 114.54 454.65 110.06 455.48 105.82C455.83 103.97 456.38 102.18 457.14 100.47C457.29 100.13 457.45 99.8 457.61 99.46C457.85 98.99 458.11 98.52 458.37 98.07C458.9 97.18 459.48 96.36 460.13 95.57C463.6 91.3 468.55 88.76 474.08 87.99C476.03 87.71 477.95 87.79 479.79 88.18C483.71 88.97 487.3 91.12 490.27 94.11C492.76 96.62 494.67 99.7 495.69 103.1C497 107.4 496.97 111.96 496.91 116.44Z" fill="#343C4B"/>
<path d="M407.42 160.55C406.73 160.18 405.87 160.3 405.18 160.65C404.49 161.01 403.93 161.58 403.39 162.14C401.99 163.59 400.59 165.04 399.18 166.49C398.97 166.71 398.75 166.93 398.65 167.22C398.37 167.98 399.07 168.82 399.86 169C400.65 169.18 401.47 168.91 402.23 168.64C401.53 169.4 400.71 170.16 400.01 170.92C399.87 171.07 399.72 171.25 399.74 171.45C399.76 171.67 399.95 171.82 400.14 171.94C401.22 172.59 402.63 172.67 403.78 172.15C403.22 172.69 402.79 173.29 402.23 173.84C402.04 174.03 401.83 174.26 401.89 174.53C401.94 174.73 402.13 174.86 402.32 174.96C403.63 175.66 405.22 175.8 406.63 175.34C406.85 177.54 407.65 179.79 409.75 180.48L420.29 172.36L415.59 163.26L407.42 160.55Z" fill="#FF7D6F"/>
<path d="M407.27 161.51C407.27 161.51 411.96 165.89 413.86 166.01C413.86 166.01 411.47 174.43 413.62 177.51L418.26 173.94L420.31 172.37C420.31 172.37 419.1 163.62 417.72 162.3C416.36 160.98 404.06 156.1 403.84 156.24C403.81 156.25 403.76 156.34 403.7 156.47V156.48C403.36 157.35 403 160.23 407.27 161.51Z" fill="#FFA07F"/>
<path d="M399.69 154.93L414.66 166.45L413.54 169.05L398.1 156.56L399.69 154.93Z" fill="#343C4B"/>
<path d="M415.37 176.16C415.37 176.16 412.42 166.35 411.95 166.04C411.48 165.73 409.44 161.89 408.46 161.58C407.48 161.26 405.59 161.81 405.46 162.72C405.34 163.64 407.02 166.69 407.02 166.69C407.02 166.69 408.92 174.49 409.09 175.3C409.26 176.12 409.76 180.48 409.76 180.48L415.37 176.16Z" fill="#FFA07F"/>
<path d="M409.76 180.49C409.76 180.49 410.18 181.89 411.84 183.19C413.49 184.5 415.97 186.18 415.97 186.18L421.95 181.24L423.39 180.05L421.42 177.5L420.3 172.36L418.25 173.93L413.61 177.5L409.76 180.49Z" fill="#FFA07F"/>
<path d="M403.69 156.47V156.48C407.18 158.39 416.22 163.33 416.58 163.47C416.87 163.59 417.7 169.61 418.26 173.93C418.57 176.36 418.8 178.25 418.8 178.25L421.94 181.24L423.38 180.05L421.41 177.5L420.29 172.36C420.29 172.36 419.08 163.61 417.7 162.29C416.34 160.97 404.04 156.09 403.82 156.23C403.79 156.25 403.74 156.34 403.69 156.47Z" fill="#FFBF90"/>
<path d="M460.85 384.74H473.2C473.2 384.74 478.53 332.07 477.58 327.18C477.11 324.76 476.25 321.54 475.33 318.42L456.33 319.3C458.16 337.01 460.85 384.74 460.85 384.74Z" fill="#FFA07F"/>
<path d="M516.6 378.75C516.6 378.75 514.24 334.76 513.94 330.84C513.63 326.76 510.65 319.43 507.98 313.55L490.38 318.24C494.17 329.8 504.09 380.17 504.09 380.17L516.6 378.75Z" fill="#FFA07F"/>
<path d="M435.27 399.61C435.39 398.86 435.75 397.99 436.7 397.57C439.48 396.33 449.69 392.49 452.45 390.3C454.6 388.6 456.5 384.89 457.24 383.31L476.2 384.3C477.28 389.24 477.98 398.75 478.11 400.74L435.27 399.61Z" fill="#456997"/>
<path d="M435.14 403.93L477.99 405.05L478.12 400.74L435.27 399.61L435.14 403.93Z" fill="white"/>
<path d="M456.03 391.6C456.06 391.65 456.09 391.7 456.11 391.75C456.31 392.13 456.43 392.72 455.92 392.93C455.66 393.04 455.37 393 455.1 392.94C454.16 392.73 453.31 392.3 452.49 391.81C451.61 391.28 450.68 390.71 450.12 389.81C449.54 388.89 450.4 388.06 451.41 388.3C453.16 388.72 455.12 390 456.03 391.6Z" fill="white"/>
<path d="M452.74 393.83C452.77 393.88 452.8 393.93 452.82 393.98C453.02 394.36 453.14 394.95 452.63 395.16C452.37 395.27 452.08 395.23 451.81 395.17C450.87 394.96 450.02 394.53 449.2 394.04C448.32 393.51 447.39 392.94 446.83 392.04C446.25 391.12 447.11 390.29 448.12 390.53C449.87 390.94 451.83 392.23 452.74 393.83Z" fill="white"/>
<path d="M448.73 395.25C448.76 395.3 448.79 395.35 448.81 395.4C449.01 395.78 449.13 396.37 448.62 396.58C448.36 396.69 448.07 396.65 447.8 396.59C446.86 396.38 446.01 395.95 445.19 395.46C444.31 394.93 443.38 394.36 442.82 393.46C442.24 392.54 443.1 391.71 444.11 391.95C445.86 392.36 447.82 393.64 448.73 395.25Z" fill="white"/>
<path d="M497.96 404.82C497.96 406.55 511.27 410 513.81 409.78C516.34 409.57 525.64 402.88 525.64 402.88C525.64 402.88 525.27 401.51 524.69 399.39C523.07 393.47 519.73 381.72 517.79 377.47L502.82 379.51C502.02 382 499.41 394.71 498.65 399.5C498.25 402.08 497.96 404.22 497.96 404.82Z" fill="#456997"/>
<path d="M525.64 402.89C525.64 402.89 516.34 409.58 513.81 409.79C511.27 410 497.96 406.55 497.96 404.83C497.96 404.22 498.25 402.08 498.65 399.5C502.98 401.23 512.26 404.67 515.32 403.54C517.4 402.78 521.35 400.97 524.69 399.39C525.28 401.52 525.64 402.89 525.64 402.89Z" fill="white"/>
<path d="M513.78 389.77C513.83 389.79 513.88 389.82 513.94 389.84C514.32 390.02 514.76 390.42 514.49 390.9C514.35 391.15 514.09 391.29 513.84 391.41C512.97 391.82 512.03 392 511.09 392.11C510.08 392.23 508.99 392.34 508.02 391.97C507.02 391.59 507.21 390.41 508.16 389.97C509.79 389.23 512.11 389.05 513.78 389.77Z" fill="white"/>
<path d="M513.78 393.51C513.83 393.53 513.88 393.56 513.94 393.58C514.32 393.76 514.76 394.16 514.49 394.64C514.35 394.89 514.09 395.03 513.84 395.15C512.97 395.56 512.03 395.74 511.09 395.85C510.08 395.97 508.99 396.08 508.02 395.71C507.02 395.33 507.21 394.15 508.16 393.71C509.79 392.97 512.11 392.79 513.78 393.51Z" fill="white"/>
<path d="M514.14 396.94C514.19 396.96 514.24 396.99 514.3 397.01C514.68 397.19 515.12 397.59 514.85 398.07C514.71 398.32 514.45 398.46 514.2 398.58C513.33 398.99 512.39 399.17 511.45 399.28C510.44 399.4 509.35 399.51 508.38 399.14C507.38 398.76 507.57 397.58 508.52 397.14C510.15 396.4 512.47 396.22 514.14 396.94Z" fill="white"/>
<path d="M521.19 360.02L449.93 364.26C449.93 364.26 449.63 361.35 449.17 356.75C447.81 343.19 445.08 314.93 444.74 303.4C444.25 287.16 446.7 238.84 446.7 238.84L495.61 238.32L501.54 238.26L503.49 244.66L505.41 277.56C505.41 277.56 516.95 314.55 516.59 318.41C516.25 322.29 521.19 360.02 521.19 360.02Z" fill="#414C5B"/>
<path d="M521.19 360.02L449.93 364.26C449.93 364.26 449.63 361.35 449.17 356.75L511.81 351.58C511.81 351.58 510.79 328.03 507.69 318.42C504.6 308.8 496.21 278.73 496.21 278.73L495.61 238.33L501.54 238.27L503.49 244.67L505.41 277.57C505.41 277.57 516.95 314.56 516.59 318.42C516.25 322.29 521.19 360.02 521.19 360.02Z" fill="#343C4B"/>
<path d="M541.39 146.2C541.39 146.2 539.8 142.44 537.78 142.3C535.76 142.16 538.65 151.84 538.65 151.84L541.39 146.2Z" fill="#FFA07F"/>
<path d="M543.28 168.85L551.58 160.8L542.02 153.21L539.22 161.75L536.76 164.5L543.28 168.85Z" fill="#FFA07F"/>
<path d="M561.91 142.5C561.2 138.5 552.12 132.36 550.85 132.52C549.58 132.68 535.29 151.37 535.14 153.43C534.98 155.49 543.67 163.19 546.07 163.18C547.3 162.9 562.54 146.06 561.91 142.5Z" fill="#456997"/>
<path d="M551.58 160.8C551.58 160.8 554.37 159.55 553.27 157.48C552.16 155.41 549.77 153.19 548.92 153.77C548.07 154.35 548.92 160.75 548.92 160.75L551.58 160.8Z" fill="#FFA07F"/>
<path d="M553.52 158.87C553.52 158.87 556.86 156.94 555.75 154.87C554.64 152.8 552.25 150.58 551.4 151.16C550.55 151.74 551.4 158.14 551.4 158.14L553.52 158.87Z" fill="#FFA07F"/>
<path d="M555.79 155.74C555.79 155.74 559.13 153.81 558.02 151.74C556.91 149.67 554.52 147.45 553.67 148.03C552.82 148.61 553.67 155.01 553.67 155.01L555.79 155.74Z" fill="#FFA07F"/>
<path d="M558.02 151.74C558.02 151.74 561.49 148.52 561.13 147C560.77 145.48 558.29 143.53 557.64 144.04C556.99 144.55 558.24 149.66 558.24 149.66L557.2 151.08L558.02 151.74Z" fill="#FFA07F"/>
<path d="M537.46 148.95C537.14 149.68 543.75 155.31 544.87 155.45C545.9 155.59 555.54 144.67 557.32 142.63L557.34 142.61C557.51 142.41 557.61 142.31 557.61 142.31C557.61 142.31 549.09 134.51 548.51 134.66C548.39 134.68 547.89 135.26 547.15 136.17C544.22 139.71 537.71 148.38 537.46 148.95Z" fill="#DFDEEE"/>
<path d="M547.14 136.16L555.98 143.81L557.31 142.62L557.33 142.6C557.5 142.4 557.6 142.3 557.6 142.3C557.6 142.3 549.08 134.5 548.5 134.65C548.39 134.67 547.88 135.25 547.14 136.16Z" fill="#C1BED7"/>
<path d="M537.46 148.95C537.14 149.68 543.75 155.31 544.87 155.45C545.45 155.53 548.7 152.16 551.77 148.81L543.41 140.9C543.19 141.18 542.97 141.47 542.75 141.76C542.41 142.2 542.09 142.62 541.76 143.05V143.06C541.63 143.22 541.52 143.38 541.39 143.55C541.05 144 540.72 144.44 540.41 144.86C540.28 145.03 540.16 145.2 540.04 145.36C539.68 145.83 539.36 146.28 539.07 146.68C538.94 146.85 538.82 147.02 538.7 147.18C538.3 147.73 537.97 148.2 537.75 148.51C537.58 148.73 537.48 148.89 537.46 148.95Z" fill="#C1BED7"/>
<path d="M556.35 138.11L551.95 134.64L551.36 135.33L555.77 138.69L556.35 138.11Z" fill="#698BB1"/>
<path d="M546.808 147.812L548.891 149.757L550.003 148.566L547.92 146.621L546.808 147.812Z" fill="#DFDEEE"/>
<path d="M544.206 145.359L546.289 147.304L547.402 146.113L545.319 144.168L544.206 145.359Z" fill="#DFDEEE"/>
<path d="M541.76 143.05V143.06L543.69 144.85L544.8 143.67L542.75 141.75C542.42 142.2 542.09 142.61 541.76 143.05Z" fill="#DFDEEE"/>
<path d="M545.278 149.439L547.361 151.384L548.473 150.193L546.39 148.248L545.278 149.439Z" fill="#DFDEEE"/>
<path d="M542.668 147.003L544.751 148.948L545.863 147.757L543.78 145.811L542.668 147.003Z" fill="#DFDEEE"/>
<path d="M540.41 144.86L542.17 146.5L543.28 145.31L541.4 143.55C541.05 144 540.72 144.44 540.41 144.86Z" fill="#DFDEEE"/>
<path d="M543.744 151.082L545.827 153.027L546.94 151.836L544.857 149.891L543.744 151.082Z" fill="#DFDEEE"/>
<path d="M541.136 148.645L543.219 150.59L544.331 149.399L542.248 147.454L541.136 148.645Z" fill="#DFDEEE"/>
<path d="M539.06 146.67L540.63 148.14L541.74 146.95L540.03 145.35C539.68 145.83 539.35 146.28 539.06 146.67Z" fill="#DFDEEE"/>
<path d="M542.219 152.718L544.302 154.663L545.414 153.471L543.331 151.526L542.219 152.718Z" fill="#FCC700"/>
<path d="M539.611 150.281L541.694 152.226L542.806 151.035L540.723 149.089L539.611 150.281Z" fill="#DFDEEE"/>
<path d="M537.75 148.5L539.11 149.77L540.22 148.58L538.69 147.17C538.29 147.72 537.97 148.18 537.75 148.5Z" fill="#FD7658"/>
<path d="M544.47 157.73L542.37 155.88L541.23 157.23L543.28 159.03L544.47 157.73Z" fill="#FD7658"/>
<path d="M541.58 155.24L539.48 153.4L538.34 154.75L540.39 156.54L541.58 155.24Z" fill="#FCC700"/>
<path d="M539.07 152.91L536.96 151.07L535.82 152.42L537.87 154.21L539.07 152.91Z" fill="#0CC3BE"/>
<path d="M560.86 142.3C560.86 142.3 558.28 142.41 557.6 143.02C556.92 143.63 546.77 155.55 546.63 155.88C546.49 156.21 546.2 161.75 545.82 161.89C545.44 162.02 545.07 155.39 545.07 155.39C545.07 155.39 556.55 142.01 557.61 141.9C558.66 141.8 561.62 141.86 560.86 142.3Z" fill="#254F79"/>
<path d="M547.62 143.9L547.27 144.28L546.94 143.97L547.29 143.58C547.08 143.33 546.95 143.02 546.9 142.73L547.41 142.53C547.45 142.85 547.62 143.21 547.8 143.38C547.94 143.5 548.07 143.53 548.15 143.44C548.42 143.14 547.33 142.47 547.9 141.85C548.16 141.57 548.53 141.56 548.9 141.81L549.24 141.44L549.57 141.75L549.23 142.12C549.42 142.33 549.55 142.58 549.61 142.81L549.1 143.01C549.01 142.73 548.85 142.43 548.71 142.3C548.6 142.2 548.49 142.17 548.42 142.25C548.15 142.54 549.23 143.23 548.65 143.86C548.38 144.19 547.97 144.15 547.62 143.9Z" fill="#343C4B"/>
<path d="M550.31 144.06C550.4 143.96 550.38 143.84 550.25 143.73C550.11 143.6 549.85 143.52 549.56 143.51L549.7 143.01C550.08 143.05 550.42 143.18 550.67 143.41C551.03 143.74 551.11 144.16 550.86 144.44C550.68 144.63 550.36 144.7 549.98 144.71L549.29 144.74L550.04 145.43L549.7 145.8L548.36 144.57L548.64 144.26L549.88 144.19C550.06 144.18 550.24 144.14 550.31 144.06Z" fill="#343C4B"/>
<path d="M551.59 145.47C552 145.85 552.07 146.32 551.78 146.63C551.44 147 550.93 146.98 550.5 146.58C550.26 146.36 550.07 146.03 550.01 145.72L550.52 145.53C550.52 145.8 550.62 146.02 550.78 146.17C550.96 146.33 551.13 146.35 551.26 146.2C551.38 146.07 551.35 145.9 551.18 145.74C551.09 145.65 550.8 145.39 550.68 145.3L551.6 144.3L552.78 145.39L552.44 145.76L551.68 145.06L551.43 145.33C551.47 145.36 551.56 145.44 551.59 145.47Z" fill="#343C4B"/>
<path d="M556.35 142.14L552.07 138.35L551.56 138.89L555.82 142.72L556.35 142.14Z" fill="#DFDEEE"/>
<path d="M439.92 184.5C438.6 180.74 436.33 174.14 431.33 174.56C426.43 174.97 422.69 181.11 420.88 185.08C417.76 191.92 417.48 199.57 417.22 206.96C417.18 208.2 419.1 208.14 419.15 206.91C419.34 201.44 419.53 195.9 420.97 190.59C422.32 185.59 425.97 176.78 431.92 177.04C434.73 177.16 434.68 177.97 435.95 180.22C436.69 181.52 437.27 182.93 437.81 184.32C438.66 186.54 439.25 188.87 439.67 191.2C440.62 196.4 440.62 201.71 440.38 206.96C440.32 208.2 442.25 208.14 442.31 206.91C442.64 199.41 442.42 191.67 439.92 184.5Z" fill="#343C4B"/>
<path d="M503.49 244.67C496.61 239.57 449.16 245.15 449.16 245.15C449.16 245.15 448.23 242.97 446.7 238.85C446.55 238.45 446.49 237.93 446.49 237.32C446.49 231.56 452.35 217.49 452.35 217.49C451.85 207.73 449.96 198.29 449.66 196.49C449.02 192.61 444.91 171.57 447.61 166.07C448.97 163.32 452.09 158.63 454.87 154.63C457.66 150.64 460.1 147.33 460.1 147.33L470.7 141.55L482.37 141.98L489.64 145.69C489.64 145.69 489.65 145.7 489.68 145.71L497.85 149.89C497.85 149.89 498.15 154.17 498.55 160.98C499.14 171.01 499.95 186.53 500.31 201.92C500.45 207.2 500.51 212.47 500.51 217.5C500.51 217.51 504.54 227.7 505.27 231.34C506.01 234.95 503.49 244.67 503.49 244.67Z" fill="#0CC3BE"/>
<path d="M484.66 143.14C484.66 143.14 473.95 145.31 472.35 144.62C470.75 143.94 468.57 142.83 468.57 142.83C468.93 142.43 471.4 138.69 471.35 137.41C471.22 134.48 470.36 130.36 470.36 130.36L480.32 127.48C480.32 127.48 480.58 130.3 481 133.29C481.42 136.32 484.06 142.65 484.66 143.14Z" fill="#FFA07F"/>
<path d="M469.94 140.75L461.19 146.73C461.19 146.73 463.38 155.57 466.61 154.42C469.84 153.26 473.43 149.07 473.43 149.07C473.43 149.07 476.88 156.87 480.51 156.44C484.14 156.01 489.65 145.68 489.65 145.68L483.76 141.54C483.76 141.54 472.2 148.32 469.94 140.75Z" fill="white"/>
<path d="M480.99 133.29C478.2 135.16 474.77 137.38 473.68 137.69C472.78 137.94 471.97 137.72 471.35 137.41C471.22 134.48 470.35 130.36 470.35 130.36L480.31 127.48C480.31 127.48 480.58 130.3 480.99 133.29Z" fill="#FF7D6F"/>
<path d="M487.08 100.3C482.02 93.89 473.11 91.59 465.84 95.32C464.17 96.18 462.82 97.18 462.17 98.32C459.6 102.89 455.41 119.99 458.58 128.47C461.74 136.95 467.43 136.09 469.47 135.61C471.51 135.13 481.13 131.67 483.46 128.7C485.79 125.73 491.26 110.1 490.42 105.92C490.13 104.51 488.77 102.44 487.08 100.3Z" fill="#FFBF90"/>
<path d="M487.78 99.09C482.72 92.68 473.81 90.38 466.54 94.11C464.87 94.97 463.52 95.97 462.87 97.11C460.3 101.68 456.11 118.78 459.28 127.26C462.44 135.74 468.13 134.88 470.17 134.4C472.2 133.92 481.83 130.46 484.16 127.49C486.49 124.52 491.96 108.89 491.12 104.71C490.83 103.3 489.47 101.23 487.78 99.09Z" fill="#FFA07F"/>
<path d="M493.68 118.71C493.54 119.07 493.39 119.43 493.23 119.79C490.91 117.99 487.21 118.29 485.21 120.46C484.27 116.88 484.99 112.9 487.13 109.88C483.81 107.98 481.17 104.93 479.76 101.37C476.67 103.9 472.59 105.17 468.62 104.87C469.93 103.11 470.78 101.03 471.08 98.87C466.63 102.53 461.17 104.95 455.49 105.82C454.1 106.04 452.69 106.17 451.28 106.19C451.82 104.12 452.59 101.99 453.56 99.93C456.61 93.5 461.78 87.74 468.96 86.85C472.56 86.41 476.33 86.92 479.81 88.19C483.07 89.38 486.09 91.25 488.46 93.65C494.78 100.06 496.89 110.3 493.68 118.71Z" fill="#343C4B"/>
<path d="M521.02 171.31C521 171.4 520.97 171.48 520.95 171.58C519.57 176.27 517.26 180.62 514.93 184.92C514.76 183.41 514.27 182 513.58 180.68C515.8 175.49 516.7 169.73 515.93 164.13C514.75 165.75 513.57 167.36 512.4 168.97C512.63 162.89 510 157.02 506.38 152.13C502.77 147.24 498.21 143.16 493.92 138.86C492.14 137.07 490.3 134.95 490.04 132.54C489.98 132.17 489.97 131.79 490.02 131.41V131.38C490.36 128 493.89 125.64 494.3 122.27C494.45 121.04 494.16 119.88 493.7 118.73C493.13 117.32 492.29 115.96 491.65 114.58C490.48 112.08 490.29 108.48 492.71 107.18C486.73 105.8 481.82 100.61 480.79 94.58C478 95.65 475.21 96.74 472.42 97.82C472.93 95.87 473.43 93.91 473.93 91.95C469.28 95.85 463.58 98.45 457.62 99.49C456.28 99.73 454.92 99.88 453.55 99.95C455.05 96.77 457.09 93.77 459.61 91.41C462.2 89.02 465.32 87.32 468.95 86.87C471.57 86.55 474.29 86.73 476.91 87.34C477.2 87.41 477.48 87.48 477.75 87.56C478.44 87.74 479.13 87.96 479.8 88.21C481.29 88.51 482.72 89 484.1 89.67C484.38 89.8 484.65 89.95 484.93 90.1C486.86 91.14 488.66 92.52 490.28 94.15C492.77 96.66 494.68 99.74 495.7 103.14C495.75 103.28 495.78 103.43 495.82 103.57C496.13 104.64 496.35 105.73 496.5 106.83C496.97 110 496.95 113.26 496.9 116.47C496.87 119.9 496.8 123.46 495.39 126.58C494.95 127.56 494.38 128.46 493.71 129.3C493.2 129.94 492.65 130.51 492.03 131.06C493.1 132.98 495.97 136.1 496.45 136.56C496.95 137.03 497.47 137.47 498 137.88C500.66 139.89 503.75 141.12 506.72 142.53C512.9 145.48 518.91 150.53 521.15 157.18C522.67 161.68 522.34 166.68 521.02 171.31Z" fill="#414C5B"/>
<path d="M476.91 87.32C471.85 90.61 465.61 92.06 459.61 91.39C462.2 89 465.32 87.3 468.95 86.85C471.57 86.52 474.29 86.71 476.91 87.32Z" fill="#495969"/>
<path d="M479.8 88.18C481.29 88.48 482.72 88.97 484.1 89.64C481.42 91.25 478.32 92.15 475.2 92.21C476.06 90.65 476.9 89.1 477.75 87.54C478.45 87.72 479.13 87.94 479.8 88.18Z" fill="#495969"/>
<path d="M495.82 103.54C492.8 102.9 489.89 101.79 487.64 99.7099C485.05 97.2899 483.73 93.2699 484.94 90.0699C486.87 91.1099 488.67 92.4899 490.29 94.1199C492.78 96.6299 494.69 99.7099 495.71 103.11C495.75 103.25 495.79 103.4 495.82 103.54Z" fill="#495969"/>
<path d="M496.5 106.79C496.97 109.96 496.95 113.22 496.9 116.43C496.87 119.86 496.8 123.42 495.39 126.54C494.95 127.52 494.38 128.42 493.71 129.26C493.58 128.42 493.55 127.56 493.62 126.69C493.84 124.11 494.95 121.7 495.31 119.13C495.7 116.44 495.24 113.69 495.43 110.96C495.52 109.55 495.86 108.05 496.5 106.79Z" fill="#495969"/>
<path d="M521.02 171.31C521.32 165.52 520.67 159.67 519 157.6C518.09 158.4 517.16 159.2 516.24 159.99C516.08 155.34 513.17 151.23 509.77 148.05C506.37 144.88 502.4 142.35 499.12 139.05C498.74 138.67 498.37 138.26 498.01 137.85C500.67 139.86 503.76 141.09 506.73 142.5C512.91 145.45 518.92 150.5 521.16 157.15C522.67 161.68 522.34 166.68 521.02 171.31Z" fill="#495969"/>
<path d="M468.64 119.83C469.07 119.78 469.53 119.66 469.94 119.81C469.28 120.67 468.27 121.25 467.2 121.4C467.12 121.41 467.03 121.42 466.95 121.4C466.85 121.37 466.77 121.3 466.7 121.23C466.24 120.78 465.86 120.23 465.61 119.64C465.56 119.52 465.51 119.39 465.51 119.26C465.51 118.83 465.77 118.99 465.99 119.14C466.25 119.32 466.52 119.47 466.82 119.58C467.4 119.81 468.03 119.9 468.64 119.83Z" fill="#FF7D6F"/>
<path d="M467.17 121.14C466.98 120.85 466.74 120.6 466.54 120.31C466.29 119.96 466.07 119.6 465.89 119.21C467.45 118.62 467.78 117.23 468.1 115.63C468.25 114.91 468.22 114.16 468.03 113.45C467.93 113.08 467.78 112.72 467.59 112.38C467.49 112.21 467.39 112.04 467.27 111.89C467.16 111.74 467.03 111.63 466.87 111.52C466.93 111.63 466.96 111.76 467.01 111.87C467.14 112.17 467.29 112.45 467.39 112.77C467.49 113.08 467.56 113.41 467.61 113.73C467.7 114.38 467.68 115.05 467.55 115.7C467.42 116.33 467.17 116.94 466.79 117.47C466.36 118.07 465.74 118.62 465.03 118.86C465.02 118.86 465.68 120.15 465.75 120.25C465.93 120.53 466.13 120.79 466.36 121.03C466.58 121.26 466.84 121.54 467.17 121.61C467.27 121.63 467.38 121.63 467.48 121.6C467.43 121.55 467.39 121.49 467.35 121.44C467.33 121.41 467.32 121.39 467.3 121.36C467.27 121.29 467.22 121.21 467.17 121.14Z" fill="#FC5B68"/>
<path d="M484.79 120.15C485.31 119.94 488.02 116.75 489.69 118.86C491.36 120.98 491.66 124.34 489.88 126.13C488.25 127.76 486.02 129.49 483.45 128.69L484.79 120.15Z" fill="#FFA07F"/>
<path d="M489.5 121.42C489.58 121.87 489.48 122.33 489.32 122.76C488.62 124.59 486.77 125.9 485.01 127.12C485.57 126.25 485.82 125.24 485.78 124.23C485.77 123.88 485.72 123.53 485.74 123.18C485.81 121.79 489.03 118.75 489.5 121.42Z" fill="#FF7D6F"/>
<path d="M484.13 127.59C484.13 127.59 484.16 127.57 484.23 127.54C484.29 127.5 484.39 127.46 484.51 127.39C484.74 127.24 485.07 127.01 485.39 126.65C485.71 126.29 486 125.8 486.16 125.21C486.31 124.62 486.33 123.92 486.07 123.24C486.04 123.15 486 123.07 485.96 122.99L485.93 122.93C485.92 122.91 485.93 122.92 485.93 122.92C485.93 122.92 485.93 122.92 485.94 122.91L485.97 122.86L486.03 122.76C486.07 122.69 486.12 122.63 486.16 122.56C486.34 122.3 486.52 122.05 486.71 121.82C486.9 121.59 487.1 121.38 487.29 121.2C487.48 121.01 487.67 120.84 487.85 120.71C488.03 120.58 488.23 120.5 488.41 120.49C488.59 120.48 488.76 120.53 488.87 120.6C488.98 120.67 489.04 120.75 489.06 120.81C489.08 120.87 489.08 120.91 489.08 120.91C489.08 120.91 489.09 120.88 489.08 120.81C489.07 120.74 489.03 120.64 488.92 120.55C488.81 120.45 488.64 120.36 488.4 120.34C488.16 120.32 487.9 120.39 487.67 120.51C487.43 120.63 487.21 120.79 486.99 120.97C486.76 121.15 486.53 121.35 486.3 121.57C486.08 121.8 485.86 122.05 485.65 122.32C485.6 122.39 485.55 122.46 485.5 122.53L485.43 122.64L485.33 122.79L485.26 122.9C485.27 122.94 485.29 122.98 485.31 123.01L485.39 123.17C485.42 123.24 485.46 123.31 485.48 123.39C485.71 123.99 485.72 124.6 485.64 125.14C485.54 125.68 485.34 126.16 485.11 126.53C484.87 126.9 484.62 127.17 484.42 127.35C484.32 127.44 484.24 127.5 484.19 127.55C484.16 127.57 484.13 127.59 484.13 127.59Z" fill="#CF4A57"/>
<path d="M460.22 106.81C460.22 106.81 462.8 105.03 464.35 105.26C465.89 105.49 466.29 106.94 465.66 107.19C465.04 107.44 460.22 106.81 460.22 106.81Z" fill="#343C4B"/>
<path d="M482.04 110.39C482.04 110.39 478.63 107.05 476.24 106.47C473.86 105.88 472.88 107.25 473.75 107.86C474.63 108.47 482.04 110.39 482.04 110.39Z" fill="#343C4B"/>
<path d="M475.14 121.06C475.2 121.8 476.84 122.28 478.8 122.13C480.76 121.98 482.31 121.25 482.25 120.5C482.19 119.76 480.55 119.28 478.59 119.43C476.62 119.59 475.08 120.31 475.14 121.06Z" fill="#FF7D6F"/>
<path d="M456.34 116.27C456.07 116.77 457.07 117.82 458.57 118.63C460.07 119.44 461.5 119.69 461.77 119.19C462.04 118.69 461.04 117.64 459.54 116.83C458.04 116.02 456.6 115.77 456.34 116.27Z" fill="#FF7D6F"/>
<path d="M480.39 112.45C480.01 113.01 479.1 113.29 478.48 113.43C478.27 113.03 477.97 112.76 477.59 112.67C476.63 112.44 475.55 113.51 475.18 115.06C474.81 116.61 475.3 118.04 476.26 118.27C477.22 118.5 478.3 117.43 478.67 115.88C478.78 115.4 478.82 114.93 478.78 114.51C479.67 114.04 480.39 112.45 480.39 112.45Z" fill="#343C4B"/>
<path d="M464.68 124.81L476.33 124.2C476.33 124.2 475.14 130.12 469.94 130.09C463.56 130.05 464.68 124.81 464.68 124.81Z" fill="white"/>
<path d="M460.97 109.62C461.06 110.15 461.63 110.67 462.04 110.98C462.33 110.76 462.64 110.66 462.95 110.72C463.73 110.88 464.16 112.02 463.91 113.28C463.66 114.53 462.82 115.42 462.04 115.27C461.26 115.11 460.83 113.97 461.08 112.71C461.16 112.32 461.29 111.97 461.46 111.67C460.97 111.03 460.97 109.62 460.97 109.62Z" fill="#343C4B"/>
<path d="M462.43 113.15C462.43 113.15 461.58 113.26 460.9 112.82C460.22 112.39 459.96 111.57 459.96 111.57C459.96 111.57 460.81 111.46 461.49 111.9C462.17 112.33 462.43 113.15 462.43 113.15Z" fill="white"/>
<path d="M476.92 115.68C476.92 115.68 477.82 116.24 478.81 116.11C479.8 115.97 480.52 115.19 480.52 115.19C480.52 115.19 479.62 114.63 478.63 114.76C477.63 114.89 476.92 115.68 476.92 115.68Z" fill="white"/>
<path d="M424.2 176.22L413.88 186.66L417.3 190.91C417.3 190.91 419.46 198.44 422.74 204.02C426.02 209.6 438.64 209.59 442.89 208.86L453.33 219.19L462.92 152.43L460.11 147.33C460.11 147.33 451.63 152.43 451.27 153.89C450.91 155.35 441.8 183.87 442.17 184.6C442.53 185.33 435.62 178.53 433.07 177.8C430.52 177.07 426.27 177.8 426.27 177.8L424.2 176.22Z" fill="#0CC3BE"/>
<path d="M453.48 160.94C453.77 160.25 452.65 159.95 452.37 160.63C447.84 171.53 443.03 185.21 451.62 195.44C451.44 200.36 451.51 205.26 451.84 210.17C451.89 210.91 453.05 210.91 453 210.17C452.67 205.16 452.6 200.16 452.79 195.14C452.8 194.86 452.64 194.69 452.44 194.62C444.16 184.75 449.15 171.38 453.48 160.94Z" fill="#0797A7"/>
<path d="M427.09 180.14C427.05 179.93 426.73 179.84 426.6 180.01C426.17 180.53 425.85 181.14 425.56 181.77C425.51 181.74 425.46 181.72 425.42 181.69C424.91 181.39 424.39 181.12 423.85 180.87C423.41 180.66 423.1 181.22 423.47 181.51C423.94 181.87 424.42 182.21 424.92 182.53C425 182.58 425.07 182.63 425.15 182.68C424.99 183.06 424.82 183.44 424.64 183.81C424.47 183.71 424.29 183.62 424.14 183.52C423.57 183.18 422.99 182.9 422.39 182.64C421.96 182.45 421.6 183.02 422.01 183.28C422.56 183.63 423.11 183.99 423.65 184.36C423.81 184.47 423.96 184.59 424.12 184.7C424.07 184.77 424.03 184.85 423.98 184.92C423.73 185.27 423.46 185.59 423.17 185.91C422.93 185.7 422.6 185.55 422.35 185.41C421.85 185.11 421.38 184.77 420.94 184.39C420.5 184.01 419.87 184.63 420.3 185.03C420.76 185.47 421.25 185.87 421.78 186.22C421.98 186.35 422.22 186.53 422.48 186.64C421.98 187.13 421.44 187.58 420.87 188C420.74 187.75 420.45 187.62 420.19 187.44C419.75 187.13 419.3 186.82 418.86 186.51C418.47 186.24 418.13 186.86 418.49 187.14C418.9 187.45 419.31 187.75 419.72 188.06C419.9 188.2 420.07 188.36 420.26 188.46C419.75 188.8 419.23 189.12 418.69 189.39C418.49 189.5 418.63 189.84 418.85 189.76C421.16 188.95 423.06 187.67 424.63 185.78C425.32 184.94 425.89 184.01 426.46 183.09C426.95 182.32 427.26 181.09 427.09 180.14Z" fill="#0797A7"/>
<path d="M443.75 187.56C443.48 187 443.14 186.29 442.42 186.29C441.63 186.29 441.31 187.15 441.02 187.74C440.46 188.85 439.92 189.97 439.37 191.09C439.11 191.61 439.88 192.07 440.16 191.55C440.51 190.89 440.85 190.23 441.2 189.57C441.42 189.14 442 187.57 442.44 187.55C442.81 187.54 442.83 187.89 442.97 188.22C443.11 188.53 443.24 188.85 443.38 189.15C443.63 189.69 443.82 190.18 444.33 190.51C444.52 190.63 444.71 190.46 444.73 190.28C444.84 189.39 444.14 188.34 443.75 187.56Z" fill="#0797A7"/>
<path d="M452.61 206.58L455.91 251.85L456.51 260.16C448.07 262.06 439.48 262.99 430.9 262.92C422.31 262.86 413.74 261.82 405.32 259.8L405.53 257.38L409.99 206.28L447.38 206.55L452.61 206.58Z" fill="#FCC700"/>
<path d="M452.61 206.58L455.91 251.85L456.51 260.16C448.07 262.06 439.48 262.99 430.9 262.92C422.31 262.86 413.74 261.82 405.32 259.8L405.53 257.38C417.79 259.53 431.25 256.35 439.3 247C444.5 240.96 447.02 232.99 447.78 225.05C448.36 218.9 447.97 212.72 447.37 206.54L452.61 206.58Z" fill="#FDA859"/>
<path d="M439.91 184.5C439.65 183.74 439.35 182.88 438.99 181.98C437.58 178.38 435.33 174.23 431.33 174.56C429.29 174.73 427.45 175.9 425.86 177.48L426.26 177.79C426.26 177.79 427.7 177.55 429.4 177.48C430.19 177.16 431.02 176.99 431.91 177.03C434.16 177.13 434.58 177.67 435.31 179.05C435.49 179.39 435.69 179.77 435.94 180.22C436.68 181.52 437.27 182.93 437.79 184.32C438.63 186.54 439.23 188.86 439.65 191.2C440.59 196.39 440.6 201.71 440.36 206.97C440.3 208.2 442.23 208.14 442.28 206.91C442.64 199.41 442.43 191.67 439.91 184.5Z" fill="#343C4B"/>
<path d="M419.41 127.59L430.6 132.82L417.41 151.44L419.41 127.59Z" fill="white"/>
<path d="M435.71 143.13L437.65 150.05L424.43 151.29L435.71 143.13Z" fill="white"/>
<path d="M405.12 133.24L411.84 130.69L414.27 143.75L405.12 133.24Z" fill="white"/>
<path d="M473.06 158.36C473.02 159.38 472.17 160.18 471.15 160.14C470.13 160.1 469.33 159.25 469.37 158.23C469.41 157.21 470.26 156.41 471.28 156.45C472.3 156.49 473.09 157.35 473.06 158.36Z" fill="white"/>
<path d="M472.77 166.57C472.73 167.59 471.88 168.39 470.86 168.35C469.84 168.31 469.04 167.46 469.08 166.44C469.12 165.42 469.97 164.62 470.99 164.66C472.01 164.7 472.8 165.55 472.77 166.57Z" fill="white"/>
<path d="M473.06 174.84C473.02 175.86 472.17 176.66 471.15 176.62C470.13 176.58 469.33 175.73 469.37 174.71C469.41 173.69 470.26 172.89 471.28 172.93C472.3 172.96 473.09 173.82 473.06 174.84Z" fill="white"/>
<path d="M496.83 234.64C493.24 233.9 489.57 233.4 485.92 233.05C477.97 232.29 469.98 232.42 462.05 233.34C461.32 233.42 461.31 234.58 462.05 234.5C468.36 233.77 474.7 233.53 481.04 233.86C484.43 234.04 487.81 234.36 491.16 234.85C492.77 235.09 494.38 235.36 495.98 235.66C496.49 235.76 497.72 235.78 498.1 236.16C498.83 236.25 498.81 236.5 498.03 236.92C497.65 237.59 497.08 237.75 496.33 237.42C493.28 237.67 489.95 237.05 486.88 236.99C483.73 236.93 480.57 236.96 477.42 237.08C471.06 237.31 464.73 237.92 458.43 238.82C457.7 238.93 458.01 240.04 458.74 239.93C467.14 238.73 475.61 238.1 484.1 238.12C488.19 238.13 492.26 238.33 496.34 238.57C497.6 238.65 500.03 238.99 500.29 237.16C500.54 235.34 498.08 234.9 496.83 234.64Z" fill="#0797A7"/>
<path d="M497.86 149.87C497.86 149.87 503.27 153.1 504.43 155.13C505.59 157.16 509.25 172.25 509.25 172.25L516.76 182.2C516.76 182.2 522.35 167.68 526.2 165.4C530.05 163.12 534.87 162.31 534.87 162.31L538.53 159.89L547.21 166.21L545.85 171.25C545.85 171.25 542.24 189.79 539.93 194.01C538.78 196.1 525.34 214.25 516.38 214.24C513.44 214.24 500.19 196.81 500.19 196.81L493.26 160.86L497.86 149.87Z" fill="#0CC3BE"/>
<path d="M499.18 152.67C497.36 154.12 496.09 156.07 495.49 158.32C495.3 159.04 496.41 159.35 496.6 158.63C497.16 156.56 498.32 154.83 499.99 153.49C500.58 153.02 499.76 152.21 499.18 152.67Z" fill="#0797A7"/>
<path d="M495.39 166.68C495.3 165.95 494.14 165.94 494.23 166.68C495.39 175.79 496.55 184.91 497.72 194.02C497.81 194.75 498.97 194.76 498.88 194.02C497.72 184.91 496.56 175.79 495.39 166.68Z" fill="#0797A7"/>
<path d="M520.06 189.68C519.36 187.59 518.67 185.5 517.97 183.41C517.8 182.91 517.21 182.87 516.91 183.27C515.62 185.02 514.64 186.93 513.93 188.98C513.69 189.68 514.8 189.99 515.04 189.29C515.59 187.71 516.32 186.24 517.22 184.85C517.79 186.56 518.36 188.27 518.93 189.98C519.18 190.69 520.29 190.38 520.06 189.68Z" fill="#0797A7"/>
<path d="M544.26 169.58C543.62 169 542.96 168.45 542.28 167.92C542.89 167.36 543.49 166.8 544.1 166.24C544.65 165.73 543.83 164.92 543.28 165.42C542.65 166 542.03 166.58 541.4 167.16C541.37 167.19 541.36 167.21 541.34 167.24C540.93 166.94 540.53 166.63 540.12 166.35C540.28 166.38 540.45 166.35 540.61 166.21C541.09 165.78 541.58 165.35 542.06 164.91C542.62 164.41 541.8 163.6 541.24 164.09C540.76 164.52 540.27 164.95 539.79 165.38C539.56 165.58 539.57 165.84 539.69 166.04C539.14 165.68 538.59 165.34 538.03 165C538.7 164.44 539.38 163.89 540.05 163.33C540.62 162.86 539.8 162.04 539.23 162.51C538.47 163.14 537.7 163.77 536.94 164.4C536.63 164.23 536.33 164.05 536.01 163.89C535.35 163.55 534.76 164.55 535.43 164.89C538.34 166.37 541.01 168.2 543.44 170.38C543.99 170.9 544.81 170.08 544.26 169.58Z" fill="#0797A7"/>
<path d="M495.52 133.9C493.84 134.59 492.12 135.13 490.37 135.54C491.97 134.37 493.29 132.85 494.25 131.02C494.51 130.52 493.98 129.93 493.46 130.23C491.27 131.52 488.98 132.47 486.53 133.11C485.81 133.3 486.12 134.41 486.84 134.22C488.67 133.74 490.41 133.09 492.09 132.27C490.72 134.06 488.91 135.41 486.73 136.21C486.17 136.42 486.19 137.43 486.88 137.35C486.93 137.34 486.98 137.33 487.03 137.33C487.03 137.33 487.04 137.33 487.04 137.32C490.08 136.93 492.99 136.18 495.82 135.02C496.51 134.73 496.21 133.61 495.52 133.9Z" fill="white"/>
<path d="M426.17 95.16H362.26C359.51 95.16 357.27 92.93 357.27 90.17V46.51C357.27 43.76 359.5 41.52 362.26 41.52H426.17C428.92 41.52 431.16 43.75 431.16 46.51V90.17C431.16 92.93 428.93 95.16 426.17 95.16Z" fill="white"/>
<path d="M373.89 70.0101V73.5701H370.8V69.9901C368.62 69.6901 366.5 68.7801 364.95 67.5001L366.6 64.1801C368.27 65.6201 370.81 66.6401 372.5 66.6401C373.75 66.6401 374.54 66.1801 374.54 65.3201C374.54 62.5501 365.97 64.2301 365.97 58.4701C365.97 55.8901 367.83 54.1001 370.8 53.6101V50.2001H373.89V53.5901C375.79 53.8001 377.61 54.4501 378.98 55.3301L377.38 58.7001C375.66 57.7201 373.48 56.9601 372.13 56.9601C371.11 56.9601 370.43 57.3301 370.43 58.0801C370.43 60.7701 379 59.2401 379 65.1001C379 67.9501 376.82 69.6201 373.89 70.0101Z" fill="#0CC3BE"/>
<path d="M423.49 50.2001H384.12V53.9501H423.49V50.2001Z" fill="#C1BED7"/>
<path d="M423.49 56.77H384.12V60.52H423.49V56.77Z" fill="#C1BED7"/>
<path d="M423.49 63.3301H384.12V67.0801H423.49V63.3301Z" fill="#C1BED7"/>
<path d="M404.73 69.9H384.12V73.65H404.73V69.9Z" fill="#C1BED7"/>
<path d="M371.76 83.08C371.76 84.96 370.24 86.49 368.35 86.49C366.47 86.49 364.94 84.97 364.94 83.08C364.94 81.2 366.46 79.67 368.35 79.67C370.23 79.68 371.76 81.2 371.76 83.08Z" fill="#FD7658"/>
<path d="M383.32 83.08C383.32 84.96 381.8 86.49 379.91 86.49C378.03 86.49 376.5 84.97 376.5 83.08C376.5 81.2 378.02 79.67 379.91 79.67C381.8 79.68 383.32 81.2 383.32 83.08Z" fill="#FD7658"/>
<path d="M394.89 83.08C394.89 84.96 393.37 86.49 391.48 86.49C389.6 86.49 388.07 84.97 388.07 83.08C388.07 81.2 389.59 79.67 391.48 79.67C393.37 79.68 394.89 81.2 394.89 83.08Z" fill="#FD7658"/>
<path d="M431.16 83.0801L438.19 106.57L412.39 94.9301L431.16 83.0801Z" fill="white"/>
<path d="M539.06 271.68C553.276 271.68 564.8 260.156 564.8 245.94C564.8 231.724 553.276 220.2 539.06 220.2C524.844 220.2 513.32 231.724 513.32 245.94C513.32 260.156 524.844 271.68 539.06 271.68Z" fill="#C1BED7"/>
<path d="M531.78 245.37C528.08 245.37 525.08 242.36 525.08 238.67C525.08 234.97 528.09 231.97 531.78 231.97C535.48 231.97 538.48 234.98 538.48 238.67C538.49 242.36 535.48 245.37 531.78 245.37ZM531.78 235.61C530.1 235.61 528.73 236.98 528.73 238.66C528.73 240.34 530.1 241.71 531.78 241.71C533.46 241.71 534.83 240.34 534.83 238.66C534.83 236.98 533.47 235.61 531.78 235.61Z" fill="white"/>
<path d="M528.62 258.21C528.15 258.21 527.69 258.03 527.33 257.67C526.62 256.96 526.62 255.8 527.33 255.09L548.21 234.21C548.92 233.5 550.08 233.5 550.79 234.21C551.5 234.92 551.5 236.08 550.79 236.79L529.91 257.67C529.56 258.03 529.09 258.21 528.62 258.21Z" fill="white"/>
<path d="M546.34 259.93C542.64 259.93 539.64 256.92 539.64 253.23C539.64 249.53 542.65 246.53 546.34 246.53C550.04 246.53 553.04 249.54 553.04 253.23C553.05 256.92 550.04 259.93 546.34 259.93ZM546.34 250.17C544.66 250.17 543.29 251.54 543.29 253.22C543.29 254.9 544.66 256.27 546.34 256.27C548.02 256.27 549.39 254.9 549.39 253.22C549.4 251.54 548.03 250.17 546.34 250.17Z" fill="white"/>
<path d="M609.24 314.08C605.89 323.23 600.76 331.77 594.38 339.63C593.49 340.73 592.57 341.81 591.62 342.89C589.44 345.4 587.12 347.83 584.7 350.17C583.95 350.9 583.2 351.63 582.42 352.33C581.08 353.58 579.72 354.8 578.32 355.99C577.52 356.68 576.73 357.35 575.92 358.01C574.49 359.2 573.04 360.36 571.56 361.49C569.29 363.24 566.97 364.92 564.61 366.55C564.06 367.04 563.51 367.51 562.96 367.97C562.73 367.98 562.5 368.04 562.28 368.14C562.15 368.23 562.01 368.33 561.88 368.41C561.87 368.41 561.87 368.41 561.87 368.42C559.26 370.17 556.6 371.84 553.91 373.46C550.19 373.21 546.48 372.78 542.79 372.19C539.33 371.64 535.76 370.88 532.94 368.83C530.1 366.78 528.18 363.09 529.19 359.73C530.1 356.77 532.95 354.87 535.71 353.45C543.21 349.6 551.58 347.45 560.01 347.2C546.99 341.67 535.48 332.66 526.96 321.35C524.29 317.79 521.85 313.91 520.83 309.57C519.8 305.22 520.36 300.33 523.16 296.87C528.44 290.33 538.81 291.43 546.43 294.95C557.75 300.2 567.14 309.49 572.51 320.75C567.79 306.56 565.84 291.45 566.79 276.51C567.09 271.83 567.78 266.89 570.78 263.29C575.75 257.28 585.6 257.42 592.03 261.82C598.48 266.19 602.1 273.67 604.55 281.08C608 291.69 609.58 302.92 609.24 314.08Z" fill="#0CC3BE"/>
<path d="M559.16 360.4C563.29 360.76 567.41 361.13 571.54 361.5C569.27 363.25 566.95 364.93 564.59 366.56C565.49 365.8 566.39 365.02 567.29 364.25L550.44 362.75C548.43 362.59 549.11 359.52 551.1 359.7C552.38 359.8 553.67 359.91 554.95 360.04C553.94 358.69 552.93 357.35 551.92 355.99C550.7 354.37 553.32 352.66 554.54 354.26C556.08 356.31 557.62 358.34 559.16 360.4Z" fill="#0797A7"/>
<path d="M575.37 353.05C576.34 354.03 577.32 355.02 578.31 356C577.51 356.69 576.72 357.36 575.91 358.02C575.04 357.14 574.18 356.27 573.31 355.4C571.86 353.97 573.96 351.62 575.37 353.05Z" fill="#0797A7"/>
<path d="M582.12 347.58C582.98 348.45 583.83 349.3 584.69 350.17C583.94 350.9 583.19 351.63 582.41 352.33C577.59 347.46 572.77 342.61 567.95 337.74C563.73 338.18 559.52 338.62 555.32 339.07C553.31 339.29 553.16 336.15 555.17 335.94L565.12 334.89C558.83 328.53 552.54 322.19 546.24 315.84C542.16 316.01 538.09 316.18 534.01 316.34C532 316.44 531.84 313.29 533.86 313.22C536.99 313.08 540.11 312.95 543.23 312.83C542.87 312.46 542.51 312.1 542.16 311.73C540.74 310.32 542.82 307.95 544.25 309.38C547.72 312.89 551.2 316.4 554.68 319.9C554.3 317.24 553.92 314.57 553.54 311.9C553.26 309.91 556.4 309.76 556.68 311.75C557.22 315.55 557.75 319.36 558.29 323.15C558.33 323.3 558.3 323.42 558.27 323.54C565.16 330.48 572.05 337.42 578.94 344.37L578.4 331.61C578.31 329.59 581.44 329.43 581.53 331.46C581.76 336.68 581.97 341.92 582.2 347.15C582.2 347.33 582.16 347.45 582.12 347.58Z" fill="#0797A7"/>
<path d="M600.86 329.24C598.86 332.26 596.86 335.3 594.86 338.31C594.7 338.56 594.49 338.73 594.28 338.85L594.37 339.62C593.48 340.72 592.56 341.8 591.61 342.88C590.73 335.63 589.85 328.38 588.97 321.14C588.78 321.09 588.59 321.01 588.41 320.89L577.2 313.21C575.54 312.08 577.64 309.73 579.28 310.86C582.35 312.95 585.42 315.06 588.48 317.16L585.28 290.76C581.8 289.15 578.3 287.55 574.8 285.95C572.96 285.11 574.38 282.31 576.23 283.14C579.08 284.47 581.96 285.79 584.84 287.1L584.22 281.92C583.98 279.91 587.12 279.76 587.36 281.76C588.25 289.17 589.16 296.58 590.05 303.97L597.93 293.67C599.17 292.05 601.5 294.14 600.28 295.74C597.07 299.95 593.85 304.16 590.63 308.36C590.62 308.37 590.6 308.39 590.58 308.42C591.63 317.07 592.67 325.71 593.72 334.36C595.16 332.19 596.6 329.99 598.04 327.81C599.16 326.14 601.96 327.55 600.86 329.24Z" fill="#0797A7"/>
<path d="M271.69 25.53C263.51 25.53 263.49 38.25 271.69 38.25C279.87 38.25 279.88 25.53 271.69 25.53Z" fill="white"/>
<path d="M367.72 113.38C359.54 113.38 359.52 126.1 367.72 126.1C375.9 126.1 375.91 113.38 367.72 113.38Z" fill="white"/>
<path d="M212.54 112.8C204.36 112.8 204.34 125.52 212.54 125.52C220.72 125.52 220.73 112.8 212.54 112.8Z" fill="white"/>
<path d="M246.06 100.96C243.08 100.96 243.08 105.58 246.06 105.58C249.03 105.58 249.04 100.96 246.06 100.96Z" fill="white"/>
<path d="M335.42 38.8C332.44 38.8 332.44 43.42 335.42 43.42C338.39 43.42 338.4 38.8 335.42 38.8Z" fill="white"/>
<path d="M399.8 112.52C396.82 112.52 396.82 117.14 399.8 117.14C402.77 117.14 402.78 112.52 399.8 112.52Z" fill="white"/>
<path d="M447.19 61.66C444.22 61.66 444.21 66.28 447.19 66.28C450.16 66.28 450.17 61.66 447.19 61.66Z" fill="white"/>
<path d="M338.73 168.4L307.87 228.19C305.3 233.17 299.21 235.11 294.26 232.56L241.38 205.26C236.43 202.71 234.49 196.62 237.06 191.64L277.37 113.54C279.92 108.59 286.01 106.65 290.96 109.2L325.51 127.03L338.73 168.4Z" fill="url(#paint3_linear)"/>
<path d="M345.36 166.19L314.5 225.98C311.93 230.96 305.84 232.9 300.89 230.35L248.01 203.05C243.06 200.5 241.12 194.41 243.69 189.43L284 111.33C286.55 106.38 292.64 104.44 297.59 106.99L332.14 124.82L345.36 166.19Z" fill="white"/>
<path d="M345.36 166.19L318.06 152.1L332.13 124.82L345.36 166.19Z" fill="#DFDEEE"/>
<path d="M308.263 148.13L283.098 135.14L275.24 150.362L300.406 163.352L308.263 148.13Z" fill="#456997"/>
<path d="M325.238 183.094L272.42 155.829L269.695 161.108L322.514 188.373L325.238 183.094Z" fill="#DFDEEE"/>
<path d="M320.071 193.093L267.252 165.827L264.528 171.106L317.346 198.371L320.071 193.093Z" fill="#DFDEEE"/>
<path d="M314.908 203.103L262.09 175.838L259.365 181.117L312.184 208.382L314.908 203.103Z" fill="#DFDEEE"/>
<path d="M309.741 213.101L256.922 185.836L254.198 191.115L307.016 218.38L309.741 213.101Z" fill="#DFDEEE"/>
<defs>
<linearGradient id="paint0_linear" x1="309.69" y1="149.733" x2="309.69" y2="472.236" gradientUnits="userSpaceOnUse">
<stop stop-color="#DFDEEE"/>
<stop offset="1" stop-color="#C1BED7"/>
</linearGradient>
<linearGradient id="paint1_linear" x1="151.159" y1="149.733" x2="151.159" y2="472.236" gradientUnits="userSpaceOnUse">
<stop stop-color="#DFDEEE"/>
<stop offset="1" stop-color="#C1BED7"/>
</linearGradient>
<linearGradient id="paint2_linear" x1="278.108" y1="149.732" x2="278.108" y2="472.235" gradientUnits="userSpaceOnUse">
<stop stop-color="#DFDEEE"/>
<stop offset="1" stop-color="#C1BED7"/>
</linearGradient>
<linearGradient id="paint3_linear" x1="287.326" y1="157.504" x2="287.326" y2="229.645" gradientUnits="userSpaceOnUse">
<stop stop-color="#E1E0F0" stop-opacity="0"/>
<stop offset="1" stop-color="#C3C0D9"/>
</linearGradient>
</defs>
</svg>
