<svg width="84" height="63" viewBox="0 0 84 63" fill="none" xmlns="http://www.w3.org/2000/svg">
<path d="M56.1076 15.4399C53.2557 15.4399 50.4803 16.1373 48.0804 17.4564C44.572 19.3855 42.5267 22.1936 41.4251 24.222C40.3235 22.1946 38.2782 19.3864 34.7697 17.4564C32.3698 16.1373 29.5944 15.4399 26.7426 15.4399C22.5288 15.4399 18.5585 16.9995 15.8487 19.7182C13.1836 22.3923 11.7829 26.0736 11.7969 30.3638C11.8376 42.3513 21.3885 49.3443 29.7057 54.0964C35.7591 57.5552 40.6731 61.3368 40.7218 61.3746C40.9284 61.5345 41.1767 61.615 41.4251 61.615C41.6734 61.615 41.9208 61.5345 42.1284 61.3746C42.177 61.3368 47.0911 57.5552 53.1444 54.0964C61.4616 49.3443 71.0126 42.3513 71.0533 30.3638C71.0682 26.0736 69.6666 22.3923 67.0015 19.7182C64.2917 16.9995 60.3203 15.4399 56.1076 15.4399Z" fill="white"/>
<path d="M56.1076 14.397C53.0809 14.397 50.1307 15.139 47.5778 16.5426C44.6624 18.1458 42.6995 20.3172 41.4251 22.2125C40.1506 20.3172 38.1878 18.1458 35.2724 16.5426C32.7195 15.139 29.7693 14.397 26.7426 14.397C22.2537 14.397 18.0142 16.0678 15.1097 18.9822C12.2449 21.8569 10.738 25.7945 10.7539 30.3678C10.7728 35.9811 12.831 41.1196 16.8699 45.6393C18.6926 47.6786 21.9528 50.8682 29.1882 55.0034C35.1264 58.3967 40.0364 62.1654 40.0841 62.2021C40.4655 62.4971 40.9423 62.66 41.4251 62.66C41.9079 62.66 42.3837 62.4971 42.7651 62.2031C42.8138 62.1654 47.695 58.4135 53.661 55.0044C60.8964 50.8702 64.1565 47.6806 65.9793 45.6403C70.0192 41.1206 72.0764 35.9831 72.0953 30.3688C72.1112 25.7955 70.6043 21.8579 67.7395 18.9832C64.836 16.0678 60.5955 14.397 56.1076 14.397ZM52.6269 53.1916C46.5279 56.6762 41.5403 60.5115 41.4907 60.5502C41.4519 60.58 41.3993 60.581 41.3585 60.5492C41.1539 60.3923 36.2856 56.6553 30.2233 53.1916C22.1504 48.5786 12.8787 41.814 12.8399 30.3608C12.826 26.3537 14.1223 22.9277 16.5878 20.4543C19.1039 17.9303 22.805 16.483 26.7426 16.483C29.4187 16.483 32.0212 17.1356 34.2671 18.3713C37.558 20.1812 39.4782 22.8224 40.5082 24.7207C40.691 25.0564 41.0427 25.266 41.4251 25.266C41.8075 25.266 42.1592 25.0564 42.3419 24.7207C43.373 22.8234 45.2921 20.1812 48.5831 18.3713C50.829 17.1366 53.4315 16.483 56.1076 16.483C60.0451 16.483 63.7463 17.9303 66.2624 20.4553C68.7279 22.9287 70.0242 26.3547 70.0103 30.3608C69.9715 41.814 60.6997 48.5786 52.6269 53.1916Z" fill="#1977CC"/>
<path d="M82.4089 36.1361H56.3816C56.0588 36.1361 55.7548 36.2851 55.5571 36.5404L51.2232 42.1388L49.5902 8.32075C49.5644 7.7913 49.1462 7.36516 48.6177 7.3304C48.0913 7.29563 47.6184 7.66217 47.5231 8.18367L40.5419 46.3644L33.4078 0.881679C33.3303 0.386005 32.9101 0.0154927 32.4085 0.000592653C31.9029 -0.016294 31.4658 0.329386 31.3586 0.820093L23.6225 36.1361H1.043C0.466867 36.1361 0 36.6029 0 37.1791C0 37.7552 0.466867 38.2221 1.043 38.2221H24.4618C24.9515 38.2221 25.3757 37.8814 25.481 37.4026L32.2078 6.69268L39.4334 52.7555C39.5118 53.2582 39.9419 53.6307 40.4505 53.6366C40.4545 53.6366 40.4595 53.6366 40.4635 53.6366C40.9661 53.6366 41.3981 53.277 41.4895 52.7814L47.9452 17.4773L49.2773 45.0632C49.2982 45.4992 49.5892 45.8767 50.0054 46.0078C50.4226 46.1389 50.8765 45.9969 51.1437 45.6512L56.8952 38.2221H82.4109C82.987 38.2221 83.4539 37.7552 83.4539 37.1791C83.4519 36.6029 82.985 36.1361 82.4089 36.1361Z" fill="#1977CC"/>
</svg>
