<svg width="60" height="60" viewBox="0 0 60 60" fill="none" xmlns="http://www.w3.org/2000/svg">
<path d="M19 1.97015L17 4.97015V8.47015L18.5 13.9702L20.5 15.4702L17 18.4702L12.5 28.4702L5 30.4702L1.5 29.4702L0.5 31.9702L1.5 34.9702H3.5L5 32.9702H12.5L16 31.9702L18.5 24.9702L22 31.9702L20 43.4702V54.9702L17.5 55.9702L17 57.4702V58.9702H23.5L25 57.4702V43.4702L27.5 38.4702H28.5V42.4702L30.5 46.9702L31.5 53.9702L28.5 55.9702V58.9702L30.5 58.4702H36L37 55.9702L35 49.9702L39 53.9702L46.5 58.9702L53.5 53.9702L57 49.9702L59 43.4702V31.9702H55.5L50.5 30.4702L46.5 27.4702L44.5 28.4702L41 17.9702L30.5 13.9702H26.5V11.9702V3.47015L23 1.47015L19 1.97015Z" fill="white"/>
<path d="M34.4444 32.2559L46 27.9702L52.5 30.8273L59 32.9702V37.9702V45.113L55.3889 50.8273L51.0556 55.113L46 57.9702L43.1111 56.5416L37.3333 51.5416L33 47.2559V34.3987L34.4444 32.2559Z" fill="#E0F4FC"/>
<path d="M38 35.9702L46 32.9702L50.5 34.9702L55 36.4702V39.9702V44.9702L52.5 48.9702L49.5 51.9702L46 53.9702L44 52.9702L40 49.4702L37 46.4702V37.4702L38 35.9702Z" fill="#A2DFFF"/>
<path d="M40.739 51.6791L45.431 54.9271C45.5982 55.0428 45.7967 55.1048 46 55.1048C46.2033 55.1048 46.4018 55.0428 46.569 54.9271L51.262 51.6781C52.7238 50.6659 53.9184 49.3145 54.7436 47.7396C55.5688 46.1646 55.9999 44.4131 56 42.6351V36.0061C55.9999 35.7595 55.9087 35.5215 55.7439 35.3381C55.5791 35.1546 55.3522 35.0385 55.107 35.0121C52.0212 34.6787 49.0823 33.5193 46.6 31.6561C46.4269 31.5263 46.2164 31.4561 46 31.4561C45.7836 31.4561 45.5731 31.5263 45.4 31.6561C42.9179 33.5192 39.9795 34.6785 36.894 35.0121C36.6488 35.0385 36.4219 35.1546 36.2571 35.3381C36.0923 35.5215 36.0011 35.7595 36.001 36.0061V42.6351C36.0009 44.4133 36.432 46.165 37.2571 47.7401C38.0823 49.3152 39.2771 50.6668 40.739 51.6791ZM38 36.8831C40.8738 36.4361 43.6089 35.3437 46 33.6881C48.3911 35.3437 51.1262 36.4361 54 36.8831V42.6351C54.0001 44.0901 53.6474 45.5234 52.9721 46.8122C52.2969 48.101 51.3193 49.2069 50.123 50.0351L46 52.8881L41.878 50.0341C40.6817 49.2061 39.704 48.1004 39.0285 46.8118C38.3531 45.5232 38.0002 44.09 38 42.6351V36.8831Z" fill="#1977CC"/>
<path d="M45 48.9701C45.1524 48.9702 45.3028 48.9355 45.4397 48.8686C45.5766 48.8017 45.6964 48.7044 45.79 48.5841L52.79 39.5841L51.21 38.3561L44.81 46.5801L41.6 44.1701L40.4 45.7701L44.4 48.7701C44.5731 48.9 44.7836 48.9701 45 48.9701Z" fill="#1977CC"/>
<path d="M1 59.9701C1.26522 59.9701 1.51957 59.8648 1.70711 59.6772C1.89464 59.4897 2 59.2354 2 58.9701V36.0501C2 36.0221 2.01 35.9981 2.012 35.9701H3C3.6401 35.97 4.26316 35.7638 4.777 35.3821C4.92129 35.575 4.9995 35.8093 5 36.0501V37.0901C5 37.3554 5.10536 37.6097 5.29289 37.7972C5.48043 37.9848 5.73478 38.0901 6 38.0901C6.26522 38.0901 6.51957 37.9848 6.70711 37.7972C6.89464 37.6097 7 37.3554 7 37.0901V36.0501C6.99995 35.2826 6.7169 34.542 6.205 33.9701H13.117C14.1665 33.9712 15.1896 33.6415 16.0411 33.0279C16.8925 32.4143 17.5289 31.548 17.86 30.5521L19.056 26.9701L20.967 32.0701L19.016 42.7911C19.0052 42.8502 18.9998 42.9101 19 42.9701V54.2481L18.047 54.5641C17.4515 54.7656 16.9339 55.1483 16.5668 55.6586C16.1997 56.169 16.0015 56.7815 16 57.4101V58.9701C16 59.2354 16.1054 59.4897 16.2929 59.6772C16.4804 59.8648 16.7348 59.9701 17 59.9701H23C23.7956 59.9701 24.5587 59.6541 25.1213 59.0915C25.6839 58.5289 26 57.7658 26 56.9701V43.2061L27.618 39.9701H28V42.9701C28 43.0521 28.0101 43.1337 28.03 43.2131L30.805 54.3131L30.047 54.5641C29.4515 54.7656 28.9339 55.1483 28.5668 55.6586C28.1997 56.169 28.0015 56.7815 28 57.4101V58.9701C28 59.2354 28.1054 59.4897 28.2929 59.6772C28.4804 59.8648 28.7348 59.9701 29 59.9701H34.59C35.031 59.9696 35.4665 59.8721 35.8656 59.6845C36.2647 59.4969 36.6176 59.2238 36.8994 58.8845C37.1812 58.5453 37.3849 58.1482 37.4962 57.7215C37.6074 57.2947 37.6234 56.8488 37.543 56.4151L37.063 53.8671C37.5076 54.2611 37.975 54.6284 38.463 54.9671L45.432 59.7911C45.5992 59.9068 45.7977 59.9688 46.001 59.9688C46.2043 59.9688 46.4028 59.9068 46.57 59.7911L53.538 54.9701C55.5321 53.5897 57.1617 51.7463 58.2871 49.5979C59.4126 47.4496 60.0003 45.0604 60 42.6351V31.9701C60 31.8284 59.9698 31.6882 59.9115 31.559C59.8531 31.4298 59.768 31.3145 59.6617 31.2207C59.5554 31.1269 59.4304 31.0567 59.2949 31.0149C59.1595 30.9731 59.0167 30.9606 58.876 30.9781L58.626 31.0091C56.4154 31.2907 54.1694 31.0095 52.0965 30.1915C50.0236 29.3735 48.1907 28.0454 46.768 26.3301C46.6711 26.2225 46.5527 26.1363 46.4204 26.0774C46.2881 26.0184 46.1448 25.988 46 25.988C45.8552 25.988 45.7119 26.0184 45.5796 26.0774C45.4473 26.1363 45.3289 26.2225 45.232 26.3301C45.09 26.5001 44.932 26.6461 44.78 26.8081L43.388 20.6921C43.305 20.3012 43.1838 19.9193 43.026 19.5521C42.6817 18.7007 42.1709 17.9265 41.5236 17.275C40.8762 16.6235 40.1053 16.1078 39.256 15.7581L35.035 13.9911L35.023 13.9831L31.356 12.4491C30.2144 11.9817 28.9405 11.9514 27.778 12.3641C27.9183 11.9125 27.993 11.443 28 10.9701V5.97014C28.0011 5.18178 27.8469 4.40092 27.5461 3.6722C27.2453 2.94347 26.8039 2.28117 26.247 1.72314C25.9366 1.41173 25.5909 1.13755 25.217 0.906141H25.21H25.203H25.195C24.2303 0.311351 23.1188 -0.0024588 21.9855 1.45079e-05C20.8522 0.00248781 19.7421 0.321146 18.78 0.920141C17.9294 1.46026 17.2287 2.20617 16.7428 3.08886C16.2569 3.97156 16.0014 4.96254 16 5.97014V10.9701C16.0036 12.0581 16.3625 13.1151 17.0221 13.9803C17.6817 14.8455 18.6058 15.4715 19.654 15.7631L18.276 16.3451C17.6214 16.6216 17.0332 17.0343 16.5504 17.5557C16.0677 18.0771 15.7014 18.6953 15.476 19.3691L14.059 23.6231L12.288 28.0511L4.937 28.9701H3C2.20435 28.9701 1.44129 29.2862 0.87868 29.8488C0.316071 30.4114 0 31.1745 0 31.9701V33.9701C0.00197398 34.2887 0.0812435 34.602 0.231 34.8831C0.0793816 35.2536 0.000937466 35.6499 0 36.0501V58.9701C0 59.2354 0.105357 59.4897 0.292893 59.6772C0.48043 59.8648 0.734784 59.9701 1 59.9701ZM35.362 57.6061C35.2681 57.72 35.1503 57.8117 35.0168 57.8746C34.8833 57.9376 34.7376 57.9702 34.59 57.9701H30V57.4101C30.0011 57.2001 30.0677 56.9956 30.1905 56.8251C30.3132 56.6547 30.4861 56.5267 30.685 56.4591L32.314 55.9191C32.5536 55.8399 32.7543 55.673 32.876 55.4519C32.9976 55.2308 33.0312 54.9719 32.97 54.7271L30 42.8471V38.9701C30 38.7049 29.8946 38.4506 29.7071 38.263C29.5196 38.0755 29.2652 37.9701 29 37.9701H27C26.8142 37.9701 26.632 38.0218 26.4739 38.1194C26.3158 38.2171 26.1881 38.3569 26.105 38.5231L24.105 42.5231C24.0358 42.662 23.9999 42.815 24 42.9701V56.9701C24 57.2354 23.8946 57.4897 23.7071 57.6772C23.5196 57.8648 23.2652 57.9701 23 57.9701H18V57.4101C18.0011 57.2001 18.0677 56.9956 18.1905 56.8251C18.3132 56.6547 18.4861 56.5267 18.685 56.4591L20.314 55.9191C20.5136 55.8531 20.6873 55.7259 20.8104 55.5556C20.9336 55.3852 20.9999 55.1804 21 54.9701V43.0601L22.834 32.9701H32V42.6351C32.0052 45.5451 32.8576 48.3906 34.453 50.8241L35.577 56.7831C35.6045 56.9277 35.5995 57.0765 35.5623 57.2189C35.5251 57.3612 35.4567 57.4935 35.362 57.6061ZM32.613 19.7421L37.389 21.7361L39.814 30.2191C38.204 30.8379 36.4883 31.1352 34.764 31.0941L30.8 18.9851L32.613 19.7421ZM46 28.4701C47.5418 30.0689 49.4152 31.3104 51.4884 32.1072C53.5616 32.9041 55.7843 33.2368 58 33.0821V42.6391C58 44.7406 57.4904 46.8108 56.5151 48.6722C55.5398 50.5337 54.1278 52.1309 52.4 53.3271L46 57.7541L39.6 53.3231C37.8722 52.1269 36.4602 50.5297 35.4849 48.6682C34.5096 46.8068 34 44.7366 34 42.6351V33.0781C36.2154 33.2333 38.4379 32.9012 40.5111 32.1051C42.5843 31.309 44.4579 30.0682 46 28.4701ZM41.188 20.3421C41.2955 20.5949 41.3782 20.8574 41.435 21.1261L43.084 28.3701C42.6254 28.7237 42.144 29.0467 41.643 29.3371L39.182 20.7261C39.1407 20.5817 39.0673 20.4485 38.9674 20.3363C38.8675 20.2241 38.7437 20.1359 38.605 20.0781L34.31 18.2831L35.176 16.2181L38.487 17.6041C39.0968 17.8567 39.6499 18.2287 40.1138 18.6982C40.5777 19.1677 40.9429 19.7253 41.188 20.3381V20.3421ZM24.6 16.6221C24.6964 17.0135 24.6483 17.4265 24.4646 17.7853C24.2809 18.1441 23.9739 18.4245 23.6 18.5751C23.379 18.6636 23.1416 18.7037 22.9038 18.6928C22.666 18.6819 22.4333 18.6201 22.2214 18.5117C22.0095 18.4034 21.8232 18.2508 21.6751 18.0644C21.5271 17.878 21.4206 17.6621 21.363 17.4311L21.314 17.2311L24.422 15.9181L24.6 16.6221ZM25.06 3.41014C25.112 3.47314 25.166 3.53414 25.214 3.59914C25.274 3.68214 25.335 3.76314 25.389 3.84914C25.4679 3.97829 25.5393 4.11184 25.603 4.24914C25.644 4.33614 25.69 4.42114 25.725 4.51014C25.7826 4.66573 25.8307 4.8247 25.869 4.98614C25.889 5.06514 25.917 5.14114 25.932 5.22114C25.9779 5.46815 26.0007 5.7189 26 5.97014V6.20814C25.6128 5.86377 25.322 5.42443 25.1563 4.93343C24.9905 4.44244 24.9556 3.91673 25.055 3.40814L25.06 3.41014ZM18 5.97014C18.002 5.75833 18.0207 5.547 18.056 5.33814C18.065 5.28014 18.077 5.22314 18.089 5.16614C18.1224 5.00286 18.1662 4.84187 18.22 4.68414C18.235 4.64014 18.246 4.59614 18.263 4.55314C18.336 4.36056 18.4239 4.17399 18.526 3.99514C18.548 3.95714 18.573 3.92114 18.597 3.88314C18.6859 3.73937 18.7834 3.60111 18.889 3.46914C18.908 3.44714 18.926 3.42414 18.945 3.40114C19.0438 3.9108 19.0087 4.43738 18.8431 4.92939C18.6774 5.42141 18.3869 5.86202 18 6.20814V5.97014ZM18 10.9701V8.54814C18.8922 8.16099 19.6516 7.52127 20.1847 6.70781C20.7177 5.89435 21.0012 4.9427 21 3.97014C20.997 3.36791 20.8835 2.77135 20.665 2.21014C21.5259 1.89012 22.4731 1.89012 23.334 2.21014C22.8709 3.40616 22.89 4.73521 23.3873 5.91742C23.8846 7.09963 24.8212 8.04274 26 8.54814V10.9701C26 11.7658 25.6839 12.5289 25.1213 13.0915C24.5587 13.6541 23.7956 13.9701 23 13.9701H21C20.2044 13.9701 19.4413 13.6541 18.8787 13.0915C18.3161 12.5289 18 11.7658 18 10.9701ZM17.377 20.0021C17.5117 19.5978 17.731 19.2267 18.0204 18.9138C18.3097 18.6008 18.6624 18.3531 19.055 18.1871L19.455 18.0181C19.7145 18.946 20.3292 19.7342 21.1658 20.2121C22.0024 20.69 22.9936 20.819 23.9247 20.5712C24.8557 20.3234 25.6517 19.7187 26.1401 18.8882C26.6285 18.0577 26.77 17.0683 26.534 16.1341L26.28 15.1341L28.258 14.2981C28.6262 14.1442 29.0214 14.0649 29.4205 14.0649C29.8196 14.0649 30.2148 14.1442 30.583 14.2981L33.328 15.4461L32.462 17.5151L30.775 16.8091C30.5301 16.7077 30.2549 16.7077 30.01 16.8091L29.084 17.1881C28.8505 17.2842 28.662 17.4649 28.5563 17.6942C28.4505 17.9235 28.4354 18.1842 28.514 18.4241L32.621 30.9701H22.693L19.937 23.6191L19.93 23.6071C19.8999 23.5287 19.8599 23.4544 19.811 23.3861L19.8 23.3701C19.7834 23.3495 19.7657 23.3298 19.747 23.3111C19.7038 23.2619 19.6559 23.217 19.604 23.1771C19.579 23.1581 19.554 23.1421 19.528 23.1261C19.474 23.0924 19.4167 23.0642 19.357 23.0421C19.3309 23.0307 19.3042 23.0207 19.277 23.0121C19.1871 22.9852 19.0938 22.9711 19 22.9701H16.388L17.377 20.0021ZM2 31.9701C2 31.7049 2.10536 31.4506 2.29289 31.263C2.48043 31.0755 2.73478 30.9701 3 30.9701H5C5.04147 30.9705 5.08292 30.9678 5.124 30.9621L13.124 29.9621C13.3004 29.9393 13.4676 29.8698 13.6082 29.7608C13.7489 29.6518 13.8579 29.5073 13.924 29.3421L15.677 24.9701H17.613L15.963 29.9191C15.7638 30.5164 15.3818 31.0359 14.871 31.404C14.3602 31.7721 13.7466 31.9702 13.117 31.9701H5C4.73478 31.9701 4.48043 32.0755 4.29289 32.263C4.10536 32.4506 4 32.7049 4 32.9701C4 33.2354 3.89464 33.4897 3.70711 33.6772C3.51957 33.8648 3.26522 33.9701 3 33.9701H2V31.9701Z" fill="#1977CC"/>
</svg>
