<svg width="680" height="466" viewBox="0 0 680 466" fill="none" xmlns="http://www.w3.org/2000/svg">
<path d="M255.559 72.0781C253.654 72.8489 251.733 73.6629 249.848 74.4963C249.253 74.7601 248.961 75.5136 249.197 76.1795C249.377 76.6887 249.813 77 250.275 77C250.418 77 250.562 76.9708 250.702 76.9092C252.566 76.0844 254.467 75.2801 256.349 74.518C256.951 74.2736 257.264 73.5299 257.045 72.8564C256.827 72.1819 256.161 71.8338 255.559 72.0781Z" fill="#A2DFFF"/>
<path d="M243.262 77.0987C241.132 77.932 238.985 78.8066 236.882 79.6973C236.218 79.9791 235.93 80.6967 236.239 81.3015C236.463 81.7414 236.942 82 237.443 82C237.631 82 237.821 81.9638 238.003 81.8873C240.082 81.0067 242.205 80.1421 244.312 79.3179C244.985 79.0542 245.296 78.3436 245.006 77.7317C244.715 77.1178 243.935 76.835 243.262 77.0987Z" fill="#A2DFFF"/>
<path d="M193.78 104.306C191.729 105.916 189.674 107.581 187.669 109.254C187.036 109.781 186.93 110.749 187.43 111.416C187.719 111.8 188.145 112 188.576 112C188.894 112 189.215 111.891 189.482 111.668C191.465 110.014 193.499 108.367 195.527 106.775C196.173 106.267 196.307 105.303 195.825 104.621C195.343 103.938 194.427 103.797 193.78 104.306Z" fill="#A2DFFF"/>
<path d="M205.668 97.2003C203.363 98.3667 201.048 99.5766 198.787 100.795C198.073 101.179 197.901 101.936 198.401 102.484C198.708 102.82 199.197 103 199.694 103C200.007 103 200.323 102.928 200.599 102.78C202.835 101.575 205.125 100.379 207.404 99.2248C208.133 98.8569 208.334 98.1039 207.854 97.5449C207.375 96.987 206.397 96.8313 205.668 97.2003Z" fill="#A2DFFF"/>
<path d="M230.154 83.1203C228.039 84.0067 225.91 84.9326 223.826 85.8718C223.168 86.1679 222.923 86.8543 223.277 87.405C223.522 87.7841 223.987 88 224.469 88C224.686 88 224.906 87.9566 225.11 87.8642C227.171 86.9354 229.276 86.0208 231.368 85.1439C232.036 84.8638 232.306 84.1839 231.97 83.6248C231.636 83.0656 230.823 82.8403 230.154 83.1203Z" fill="#A2DFFF"/>
<path d="M217.039 89.2007C214.942 90.5061 212.834 91.8637 210.772 93.2363C210.122 93.6693 209.92 94.5889 210.321 95.2907C210.583 95.7486 211.037 96 211.5 96C211.749 96 212 95.9278 212.226 95.7773C214.265 94.4196 216.35 93.077 218.423 91.7866C219.085 91.3747 219.311 90.4613 218.929 89.747C218.548 89.0328 217.701 88.7876 217.039 89.2007Z" fill="#A2DFFF"/>
<path d="M311.573 59.007C309.156 59.2268 306.712 59.4786 304.308 59.7557C303.55 59.8431 303.021 60.4133 303.129 61.0305C303.227 61.5932 303.821 62 304.501 62C304.566 62 304.632 61.9962 304.698 61.9887C307.075 61.7144 309.493 61.4655 311.881 61.2485C312.643 61.1789 313.192 60.6209 313.106 60.0028C313.02 59.3837 312.334 58.9384 311.573 59.007Z" fill="#A2DFFF"/>
<path d="M270.465 67.0696C268.309 67.908 266.133 68.7997 263.998 69.7194C263.324 70.0096 262.958 70.9601 263.179 71.8434C263.357 72.5514 263.859 73 264.399 73C264.532 73 264.668 72.9734 264.8 72.9159C266.912 72.006 269.064 71.1242 271.196 70.2956C271.875 70.032 272.263 69.0955 272.061 68.2038C271.859 67.3136 271.144 66.8061 270.465 67.0696Z" fill="#A2DFFF"/>
<path d="M326.514 58.0018C323.855 58.1207 321.162 58.2735 318.51 58.4571C317.674 58.5155 317.05 59.13 317.12 59.8315C317.186 60.4969 317.851 61 318.634 61C318.676 61 318.717 60.9989 318.76 60.9958C321.383 60.8143 324.046 60.6625 326.676 60.5458C327.515 60.5086 328.158 59.909 328.112 59.2064C328.068 58.5038 327.354 57.9647 326.514 58.0018Z" fill="#A2DFFF"/>
<path d="M284.384 63.0406C281.979 63.65 279.55 64.3053 277.164 64.9912C276.411 65.2079 275.963 66.0443 276.162 66.8615C276.329 67.5474 276.9 68 277.524 68C277.643 68 277.764 67.9834 277.885 67.949C280.244 67.272 282.646 66.6218 285.025 66.02C285.783 65.8275 286.255 65.0052 286.077 64.1829C285.899 63.3593 285.141 62.848 284.384 63.0406Z" fill="#A2DFFF"/>
<path d="M297.645 61.0196C295.475 61.4198 293.28 61.8605 291.123 62.3292C290.442 62.4764 290.002 63.1891 290.14 63.9186C290.261 64.5582 290.785 65 291.371 65C291.454 65 291.538 64.991 291.621 64.973C293.754 64.5099 295.924 64.0738 298.071 63.6781C298.755 63.5522 299.215 62.8541 299.096 62.1201C298.98 61.3861 298.329 60.8937 297.645 61.0196Z" fill="#A2DFFF"/>
<path d="M136.457 166.254C135.786 165.784 134.885 165.985 134.445 166.702C133.048 168.981 131.663 171.313 130.33 173.634C129.91 174.366 130.124 175.323 130.809 175.771C131.046 175.926 131.309 176 131.568 176C132.057 176 132.534 175.737 132.809 175.259C134.127 172.964 135.497 170.658 136.878 168.403C137.316 167.687 137.129 166.724 136.457 166.254Z" fill="#A2DFFF"/>
<path d="M182.186 113.346C180.614 115.004 179.039 116.716 177.507 118.43C177.023 118.971 176.981 119.902 177.412 120.508C177.644 120.834 177.966 121 178.288 121C178.566 121 178.845 120.877 179.068 120.627C180.584 118.932 182.141 117.24 183.697 115.599C184.192 115.077 184.257 114.148 183.839 113.525C183.422 112.903 182.682 112.822 182.186 113.346Z" fill="#A2DFFF"/>
<path d="M116.353 205.105C115.717 204.822 114.981 205.131 114.71 205.797C113.847 207.913 113.003 210.07 112.202 212.211C111.949 212.885 112.266 213.645 112.91 213.909C113.06 213.971 113.215 214 113.367 214C113.867 214 114.339 213.684 114.533 213.168C115.326 211.052 116.161 208.917 117.015 206.825C117.285 206.159 116.99 205.389 116.353 205.105Z" fill="#A2DFFF"/>
<path d="M122.337 192.141C121.644 191.811 120.801 192.08 120.456 192.74C119.358 194.836 118.277 196.978 117.245 199.104C116.919 199.774 117.226 200.567 117.93 200.876C118.12 200.96 118.32 201 118.518 201C119.048 201 119.555 200.713 119.793 200.225C120.814 198.122 121.882 196.005 122.968 193.932C123.312 193.271 123.031 192.47 122.337 192.141Z" fill="#A2DFFF"/>
<path d="M111.04 218.076C110.198 217.835 109.27 218.185 108.969 218.855C108.008 220.987 107.075 223.159 106.195 225.312C105.918 225.989 106.384 226.716 107.235 226.937C107.401 226.98 107.57 227 107.736 227C108.419 227 109.054 226.654 109.277 226.109C110.146 223.981 111.069 221.833 112.02 219.725C112.321 219.055 111.883 218.317 111.04 218.076Z" fill="#A2DFFF"/>
<path d="M106.27 231.063C105.647 230.822 104.994 231.294 104.812 232.119C104.233 234.741 103.674 237.41 103.153 240.053C102.989 240.883 103.365 241.733 103.993 241.949C104.093 241.984 104.192 242 104.291 242C104.812 242 105.289 241.536 105.426 240.838C105.941 238.225 106.493 235.586 107.067 232.993C107.25 232.167 106.893 231.304 106.27 231.063Z" fill="#A2DFFF"/>
<path d="M129.452 179.181C128.82 178.806 128.015 179.032 127.652 179.685C126.501 181.76 125.363 183.882 124.271 185.992C123.927 186.656 124.169 187.483 124.811 187.839C125.009 187.949 125.222 188 125.433 188C125.903 188 126.359 187.738 126.596 187.279C127.676 185.193 128.8 183.094 129.94 181.042C130.302 180.39 130.084 179.557 129.452 179.181Z" fill="#A2DFFF"/>
<path d="M339.741 57.0024C339.37 57.0012 338.997 57 338.625 57C336.577 57 334.503 57.0268 332.46 57.0791C331.699 57.0986 331.096 57.7679 331.115 58.5748C331.134 59.3696 331.747 60 332.493 60C332.505 60 332.516 60 332.528 60C334.548 59.9477 336.599 59.9209 338.626 59.9209C338.994 59.9209 339.362 59.9221 339.73 59.9233C339.732 59.9233 339.734 59.9233 339.735 59.9233C340.494 59.9233 341.111 59.2734 341.115 58.469C341.117 57.6633 340.502 57.0061 339.741 57.0024Z" fill="#A2DFFF"/>
<path d="M160.932 133.428C159.415 135.164 157.902 136.95 156.433 138.734C155.97 139.296 156.018 140.157 156.54 140.656C156.781 140.887 157.08 141 157.377 141C157.726 141 158.073 140.846 158.323 140.543C159.775 138.778 161.272 137.013 162.772 135.295C163.249 134.747 163.225 133.885 162.718 133.37C162.21 132.855 161.41 132.881 160.932 133.428Z" fill="#A2DFFF"/>
<path d="M172.064 123.386C170.518 125.085 168.972 126.836 167.47 128.588C166.996 129.14 166.997 130.035 167.472 130.587C167.708 130.862 168.019 131 168.33 131C168.642 131 168.953 130.862 169.19 130.585C170.676 128.853 172.205 127.122 173.734 125.441C174.222 124.905 174.243 124.01 173.783 123.444C173.321 122.875 172.553 122.85 172.064 123.386Z" fill="#A2DFFF"/>
<path d="M144.557 155.315C143.945 154.789 143.079 154.937 142.625 155.645C141.183 157.892 139.749 160.193 138.363 162.49C137.927 163.213 138.08 164.208 138.705 164.713C138.946 164.907 139.222 165 139.494 165C139.931 165 140.36 164.762 140.628 164.318C141.998 162.048 143.415 159.77 144.842 157.548C145.297 156.841 145.169 155.84 144.557 155.315Z" fill="#A2DFFF"/>
<path d="M153.642 144.345C153.085 143.821 152.253 143.903 151.786 144.53C150.304 146.522 148.828 148.565 147.398 150.601C146.947 151.243 147.045 152.175 147.616 152.681C147.858 152.896 148.146 153 148.431 153C148.821 153 149.207 152.806 149.467 152.436C150.88 150.421 152.34 148.402 153.807 146.431C154.275 145.804 154.2 144.871 153.642 144.345Z" fill="#A2DFFF"/>
<path d="M524.07 141.458C523.666 140.903 522.962 140.844 522.498 141.327C522.034 141.809 521.984 142.65 522.388 143.205C523.654 144.945 524.916 146.73 526.138 148.513C526.358 148.835 526.679 149 527.001 149C527.25 149 527.5 148.901 527.707 148.698C528.183 148.232 528.253 147.393 527.862 146.824C526.626 145.022 525.349 143.216 524.07 141.458Z" fill="#A2DFFF"/>
<path d="M532.901 152.502C532.376 151.938 531.399 151.833 530.72 152.269C530.04 152.705 529.914 153.516 530.439 154.079C532.084 155.846 533.719 157.66 535.301 159.468C535.606 159.815 536.08 160 536.561 160C536.879 160 537.197 159.919 537.473 159.754C538.168 159.335 538.322 158.528 537.818 157.951C536.218 156.124 534.564 154.29 532.901 152.502Z" fill="#A2DFFF"/>
<path d="M542.354 164.548C541.972 163.975 541.21 163.828 540.65 164.218C540.091 164.609 539.947 165.39 540.328 165.963C541.524 167.757 542.711 169.593 543.855 171.422C544.089 171.796 544.485 172 544.89 172C545.116 172 545.345 171.936 545.55 171.801C546.12 171.428 546.286 170.651 545.921 170.067C544.764 168.219 543.564 166.362 542.354 164.548Z" fill="#A2DFFF"/>
<path d="M498.652 115.703C496.889 114.213 495.079 112.728 493.275 111.291C492.706 110.837 491.871 110.924 491.41 111.484C490.949 112.045 491.038 112.867 491.607 113.321C493.392 114.743 495.181 116.211 496.925 117.686C497.175 117.897 497.482 118 497.788 118C498.162 118 498.533 117.846 498.795 117.545C499.272 116.997 499.208 116.173 498.652 115.703Z" fill="#A2DFFF"/>
<path d="M503.697 120.326C503.067 119.861 502.09 119.898 501.517 120.409C500.943 120.921 500.989 121.713 501.619 122.178C503.596 123.639 505.575 125.143 507.499 126.648C507.799 126.883 508.185 127 508.57 127C508.974 127 509.378 126.872 509.682 126.617C510.274 126.119 510.257 125.326 509.643 124.846C507.696 123.324 505.696 121.802 503.697 120.326Z" fill="#A2DFFF"/>
<path d="M355.691 58.2244C353.039 58.128 350.346 58.0524 347.684 58.0005C346.846 57.9835 346.143 58.3689 346.116 58.8595C346.088 59.3501 346.745 59.7614 347.583 59.7777C350.214 59.8288 352.879 59.9037 355.501 59.9985C355.533 60 355.566 60 355.598 60C356.394 60 357.062 59.6376 357.111 59.1663C357.166 58.6772 356.529 58.2547 355.691 58.2244Z" fill="#A2DFFF"/>
<path d="M572.793 227.346C572.565 226.333 571.796 225.77 571.074 226.089C570.352 226.408 569.951 227.489 570.178 228.502C570.264 228.884 570.349 229.265 570.434 229.647C570.617 230.471 571.158 231 571.743 231C571.878 231 572.015 230.971 572.151 230.913C572.874 230.598 573.277 229.52 573.053 228.505C572.965 228.117 572.879 227.733 572.793 227.346Z" fill="#A2DFFF"/>
<path d="M549.922 176.595C549.493 176.015 548.565 175.827 547.849 176.175C547.134 176.522 546.901 177.275 547.33 177.854C548.675 179.671 550.007 181.529 551.284 183.374C551.561 183.774 552.075 184 552.604 184C552.855 184 553.108 183.95 553.342 183.843C554.07 183.512 554.33 182.765 553.922 182.176C552.629 180.311 551.284 178.433 549.922 176.595Z" fill="#A2DFFF"/>
<path d="M570.056 220.273C569.451 218.127 568.811 215.961 568.154 213.837C567.947 213.167 567.338 212.83 566.794 213.086C566.25 213.341 565.977 214.092 566.184 214.763C566.833 216.864 567.466 219.005 568.064 221.127C568.215 221.664 568.623 222 569.059 222C569.174 222 569.291 221.977 569.405 221.927C569.957 221.692 570.247 220.951 570.056 220.273Z" fill="#A2DFFF"/>
<path d="M556.71 187.723C556.358 187.064 555.526 186.809 554.853 187.154C554.18 187.498 553.92 188.312 554.272 188.972C555.375 191.037 556.461 193.146 557.5 195.241C557.739 195.72 558.228 196 558.739 196C558.941 196 559.146 195.956 559.34 195.864C560.023 195.538 560.308 194.732 559.976 194.063C558.925 191.944 557.826 189.81 556.71 187.723Z" fill="#A2DFFF"/>
<path d="M566.002 207.171C565.015 205.037 563.981 202.886 562.927 200.78C562.594 200.115 561.723 199.817 560.982 200.117C560.242 200.416 559.911 201.2 560.245 201.865C561.287 203.947 562.311 206.074 563.285 208.185C563.52 208.694 564.067 209 564.644 209C564.832 209 565.023 208.967 565.208 208.899C565.958 208.619 566.313 207.845 566.002 207.171Z" fill="#A2DFFF"/>
<path d="M514.254 129.467C513.773 128.854 512.983 128.843 512.49 129.442C511.998 130.04 511.988 131.022 512.471 131.634C513.978 133.552 515.486 135.525 516.952 137.5C517.198 137.832 517.533 138 517.868 138C518.171 138 518.474 137.864 518.713 137.589C519.219 137.009 519.251 136.029 518.785 135.399C517.303 133.401 515.778 131.405 514.254 129.467Z" fill="#A2DFFF"/>
<path d="M411.113 68.1799C408.733 67.4376 406.309 66.7218 403.908 66.0516C403.154 65.8414 402.373 66.2918 402.166 67.0605C401.959 67.828 402.402 68.6207 403.156 68.8321C405.531 69.4951 407.928 70.2025 410.281 70.9363C410.419 70.9796 410.56 71 410.697 71C411.303 71 411.865 70.6012 412.052 69.9815C412.282 69.2188 411.862 68.4129 411.113 68.1799Z" fill="#A2DFFF"/>
<path d="M397.149 63.884C394.999 63.2307 392.809 62.6091 390.641 62.0349C389.958 61.8531 389.288 62.3997 389.142 63.2531C388.998 64.1065 389.434 64.9455 390.117 65.1272C392.26 65.6948 394.425 66.3099 396.552 66.9552C396.652 66.9855 396.752 67 396.851 67C397.421 67 397.938 66.5153 398.078 65.7923C398.245 64.9442 397.827 64.0894 397.149 63.884Z" fill="#A2DFFF"/>
<path d="M424.272 72.4562C422.144 71.9675 419.975 71.492 417.824 71.0425C417.147 70.9011 416.413 71.1242 416.184 71.5412C415.954 71.9582 416.316 72.4104 416.993 72.5518C419.119 72.996 421.264 73.4668 423.369 73.9495C423.518 73.9841 423.671 74 423.821 74C424.346 74 424.839 73.8021 425.033 73.4814C425.282 73.0691 424.942 72.6102 424.272 72.4562Z" fill="#A2DFFF"/>
<path d="M369.017 59.4403C366.851 59.2753 364.65 59.1285 362.475 59.0033C361.789 58.9641 361.182 59.2812 361.12 59.7117C361.058 60.1422 361.562 60.5232 362.248 60.5623C364.4 60.6862 366.576 60.8311 368.718 60.9941C368.769 60.998 368.82 61 368.87 61C369.491 61 370.029 60.7084 370.106 60.3112C370.188 59.8826 369.701 59.4925 369.017 59.4403Z" fill="#A2DFFF"/>
<path d="M383.085 60.9194C380.924 60.5915 378.728 60.2864 376.556 60.0119C375.872 59.9254 375.232 60.3196 375.129 60.8923C375.026 61.4649 375.497 61.9999 376.181 62.0864C378.328 62.3574 380.501 62.6599 382.638 62.9834C382.713 62.9948 382.788 63 382.862 63C383.457 63 383.984 62.6451 384.094 62.138C384.218 61.5689 383.767 61.0225 383.085 60.9194Z" fill="#A2DFFF"/>
<path d="M486.672 106.545C485.104 105.093 483.497 103.65 481.894 102.256C481.389 101.816 480.687 101.957 480.325 102.571C479.963 103.185 480.08 104.038 480.585 104.478C482.169 105.857 483.758 107.285 485.309 108.721C485.512 108.909 485.752 109 485.989 109C486.329 109 486.663 108.814 486.884 108.461C487.261 107.86 487.166 107.002 486.672 106.545Z" fill="#A2DFFF"/>
<path d="M463.516 90.5766C461.677 89.4154 459.795 88.2661 457.922 87.1624C457.333 86.8151 456.592 87.043 456.267 87.6735C455.942 88.303 456.155 89.0952 456.745 89.4425C458.596 90.5343 460.457 91.6706 462.276 92.8188C462.471 92.9414 462.684 93 462.895 93C463.311 93 463.718 92.771 463.945 92.3597C464.287 91.7411 464.095 90.9423 463.516 90.5766Z" fill="#A2DFFF"/>
<path d="M475.562 97.7462C473.744 96.5397 471.883 95.3435 470.031 94.1904C469.447 93.827 468.677 93.9995 468.308 94.5745C467.939 95.1495 468.114 95.9113 468.697 96.2738C470.528 97.4135 472.368 98.5964 474.167 99.7895C474.381 99.9312 474.624 100 474.864 100C475.266 100 475.66 99.809 475.902 99.4558C476.287 98.8921 476.135 98.1261 475.562 97.7462Z" fill="#A2DFFF"/>
<path d="M438.332 77.1658C436.219 76.1162 434.064 75.0876 431.927 74.1095C431.253 73.8012 430.486 74.1663 430.212 74.9223C429.938 75.6796 430.263 76.5429 430.934 76.8513C433.048 77.8182 435.179 78.8357 437.267 79.873C437.44 79.9593 437.62 80 437.798 80C438.303 80 438.784 79.6707 439.001 79.1182C439.296 78.3707 438.996 77.4963 438.332 77.1658Z" fill="#A2DFFF"/>
<path d="M451.306 83.8211C448.98 82.8955 446.606 81.9843 444.248 81.1126C443.505 80.8386 442.616 81.0818 442.261 81.6566C441.906 82.2313 442.221 82.9195 442.964 83.1944C445.296 84.0556 447.644 84.9572 449.944 85.8722C450.162 85.9587 450.394 86 450.624 86C451.164 86 451.686 85.7712 451.95 85.3733C452.325 84.8082 452.037 84.1123 451.306 83.8211Z" fill="#A2DFFF"/>
<path d="M302.884 106.934L302.137 117.025L312.183 118.397L315.855 115.421L321.73 116.035L322.344 110.163L322.419 110.102L328.293 110.716L328.907 104.845L328.982 104.784L334.856 105.397L335.471 99.5254L353.469 84.9403L344.171 73.4765L302.884 106.934Z" fill="white"/>
<path d="M345.094 72.7287C344.896 72.4843 344.609 72.3282 344.295 72.2954C343.982 72.2626 343.668 72.3554 343.424 72.5545L302.137 106.012C301.882 106.218 301.724 106.52 301.7 106.847L300.953 116.939C300.907 117.564 301.355 118.119 301.977 118.204L312.023 119.576C312.076 119.583 312.13 119.587 312.183 119.587C312.454 119.587 312.719 119.494 312.931 119.322L316.222 116.656L321.606 117.218C322.26 117.287 322.843 116.813 322.911 116.16L323.409 111.403L328.17 111.9C328.824 111.969 329.407 111.495 329.475 110.842L329.973 106.084L334.732 106.581C335.046 106.614 335.359 106.521 335.604 106.322C335.848 106.124 336.004 105.837 336.037 105.523L336.6 100.14L354.216 85.8646C354.46 85.6666 354.617 85.3792 354.649 85.0658C354.682 84.7525 354.589 84.4391 354.39 84.1947L345.094 72.7287ZM334.722 98.6022C334.478 98.8002 334.321 99.0875 334.288 99.4009L333.798 104.091L329.106 103.602C328.791 103.569 328.476 103.663 328.232 103.862L328.157 103.923C327.914 104.121 327.759 104.408 327.726 104.72L327.236 109.411L322.543 108.921C322.23 108.888 321.917 108.981 321.673 109.179L321.598 109.239C321.352 109.437 321.196 109.725 321.163 110.039L320.673 114.729L315.981 114.239C315.667 114.207 315.354 114.299 315.109 114.498L311.836 117.151L303.407 116L304.034 107.534L343.999 75.1475L351.799 84.766L334.722 98.6022Z" fill="#1977CC"/>
<path d="M339.332 82.9398L305.455 110.393C305.236 110.569 305.101 110.828 305.08 111.109L304.782 115.127C304.74 115.688 305.161 116.176 305.723 116.218C305.749 116.22 305.774 116.22 305.799 116.22C306.327 116.22 306.774 115.812 306.814 115.277L307.079 111.696L340.615 84.5203C341.052 84.1662 341.118 83.5247 340.764 83.088C340.411 82.6525 339.769 82.5857 339.332 82.9398Z" fill="#E0F4FC"/>
<path d="M343.481 56.0372C334.664 63.1815 333.311 76.1194 340.46 84.9336C347.608 93.7466 360.552 95.0985 369.369 87.9531C378.186 80.8076 379.539 67.8697 372.391 59.0578C365.241 50.2448 352.298 48.8928 343.481 56.0372ZM363.272 67.5496C361.163 69.259 358.065 68.9354 356.356 66.8266C354.646 64.7179 354.97 61.6225 357.079 59.9131C359.189 58.2037 362.286 58.5272 363.996 60.636C365.704 62.7448 365.381 65.8401 363.272 67.5496Z" fill="white"/>
<path d="M342.731 55.1149C338.219 58.7703 335.403 63.9631 334.8 69.7362C334.197 75.5094 335.879 81.1728 339.536 85.6812C343.193 90.1906 348.388 93.0054 354.164 93.6095C354.933 93.6898 355.701 93.7294 356.465 93.7294C361.429 93.7294 366.207 92.0438 370.116 88.876C379.428 81.329 380.862 67.6172 373.313 58.3098C365.762 49.0012 352.044 47.569 342.731 55.1149ZM368.619 87.0297C364.601 90.2857 359.555 91.7835 354.411 91.2462C349.266 90.7088 344.639 88.2006 341.382 84.1856C338.124 80.1693 336.626 75.1259 337.163 69.9829C337.701 64.841 340.21 60.2161 344.227 56.9601C352.521 50.2389 364.741 51.5162 371.465 59.8054C378.191 68.0958 376.913 80.3085 368.619 87.0297Z" fill="#1977CC"/>
<path d="M356.33 58.9908C355.064 60.0169 354.272 61.4752 354.103 63.0964C353.933 64.7176 354.406 66.3082 355.432 67.5742C356.459 68.8401 357.918 69.6309 359.54 69.8006C359.756 69.8233 359.972 69.8346 360.186 69.8346C361.581 69.8346 362.922 69.3617 364.02 68.4713C365.286 67.4452 366.078 65.9869 366.247 64.3646C366.417 62.7434 365.945 61.1528 364.917 59.8868C362.797 57.2746 358.946 56.8718 356.33 58.9908ZM363.884 64.1191C363.78 65.109 363.298 65.9994 362.524 66.6261C361.751 67.2529 360.778 67.5414 359.788 67.4373C358.798 67.3332 357.907 66.8513 357.279 66.0774C356.652 65.3036 356.363 64.3329 356.466 63.343C356.569 62.3531 357.052 61.4628 357.826 60.836C358.516 60.2771 359.346 60.0056 360.172 60.0056C361.258 60.0056 362.336 60.4762 363.071 61.3836C363.698 62.1574 363.987 63.1292 363.884 64.1191Z" fill="#1977CC"/>
<path d="M365.744 83.4841C362.673 85.9719 358.818 87.1168 354.886 86.7061C350.955 86.2955 347.419 84.379 344.93 81.3108C344.517 80.8017 343.769 80.7225 343.258 81.1366C342.749 81.5495 342.67 82.2974 343.084 82.8076C345.973 86.369 350.077 88.5932 354.639 89.0706C355.247 89.134 355.854 89.1656 356.457 89.1656C360.379 89.1656 364.153 87.8341 367.241 85.3316C367.751 84.9186 367.83 84.1708 367.416 83.6606C367.001 83.1492 366.253 83.0712 365.744 83.4841Z" fill="#1977CC"/>
<path d="M361.263 339.668C351.995 339.668 344.482 342.622 344.482 346.267C344.482 349.912 351.995 352.866 361.263 352.866C370.527 352.866 378.041 349.912 378.041 346.267C378.041 342.622 370.527 339.668 361.263 339.668Z" fill="#6B3F1A"/>
<path d="M430.79 375.38L316.683 377.738C316.135 377.749 315.591 377.781 315.048 377.82C314.959 377.787 314.871 377.749 314.779 377.717L227.411 351.936C217.498 348.405 205.481 346.668 198.825 355.057C195.488 359.262 194.547 363.293 194.354 365.974C194.22 367.825 195.325 369.541 197.067 370.183L303.496 409.357C305.708 410.145 307.958 410.545 310.146 410.596C312.425 411.112 314.856 411.371 317.379 411.318L429.629 400.357C442.162 400.097 454.02 400.974 453.831 391.701C453.636 382.427 443.322 375.12 430.79 375.38Z" fill="white"/>
<path d="M447.624 378.996C443.066 375.767 437.075 374.063 430.765 374.192L316.656 376.55C316.217 376.559 315.759 376.581 315.228 376.617C315.208 376.609 315.186 376.602 315.166 376.594C315.149 376.588 315.132 376.583 315.115 376.577L227.779 350.805C221.805 348.68 216.447 347.683 211.856 347.839C205.84 348.044 201.141 350.225 197.893 354.319C194.356 358.777 193.371 363.071 193.169 365.889C192.998 368.255 194.433 370.479 196.657 371.297L303.086 410.472C303.089 410.473 303.093 410.475 303.097 410.476C305.338 411.274 307.659 411.713 309.999 411.781C312.189 412.267 314.451 412.513 316.733 412.513C316.956 412.513 317.179 412.51 317.404 412.506C317.434 412.505 317.464 412.504 317.494 412.5L429.699 401.543C430.916 401.518 432.141 401.504 433.325 401.49C441.906 401.389 449.316 401.301 452.916 397.586C454.362 396.095 455.069 394.107 455.019 391.677C454.916 386.806 452.29 382.302 447.624 378.996ZM451.208 395.934C448.297 398.939 441.011 399.025 433.297 399.115C432.092 399.13 430.846 399.145 429.603 399.17C429.573 399.171 429.542 399.172 429.513 399.175L317.308 410.132C314.965 410.176 312.645 409.945 310.409 409.439C310.332 409.422 310.254 409.412 310.174 409.409C308.05 409.36 305.938 408.966 303.899 408.241L197.479 369.069C196.243 368.614 195.445 367.376 195.54 366.06C195.719 363.576 196.596 359.779 199.756 355.796C202.552 352.273 206.65 350.395 211.937 350.214C216.236 350.066 221.308 351.023 227.012 353.055C227.033 353.062 227.054 353.068 227.074 353.075L314.412 378.848C314.451 378.861 314.488 378.877 314.526 378.892L314.62 378.929C314.784 378.993 314.961 379.017 315.135 379.005C315.739 378.96 316.239 378.935 316.706 378.925L430.813 376.567C431.023 376.562 431.23 376.56 431.438 376.56C443.01 376.56 452.465 383.272 452.642 391.725C452.679 393.523 452.21 394.9 451.208 395.934Z" fill="#1977CC"/>
<path d="M468.976 355.769C468.976 355.769 451.456 340.924 420.174 329.939C388.894 318.952 383.818 338.645 383.818 338.645L329.961 346.553C329.961 346.553 337.253 367.675 367.325 383.946C389.187 395.774 435.505 404.12 439.328 404.391C453.819 405.422 514.278 410.313 514.278 410.313L508.713 353.236L468.976 355.769Z" fill="white"/>
<path d="M509.894 353.121C509.832 352.484 509.277 352.01 508.636 352.05L469.368 354.554C468.138 353.554 463.935 350.26 456.926 345.96C449.313 341.291 436.824 334.526 420.566 328.817C413.968 326.501 407.999 325.357 402.814 325.42C398.467 325.473 394.632 326.37 391.415 328.087C385.778 331.095 383.589 335.745 382.916 337.577L329.786 345.379C329.437 345.43 329.128 345.635 328.943 345.937C328.76 346.239 328.72 346.606 328.836 346.941C328.913 347.164 330.786 352.488 336.419 359.869C339.708 364.179 343.611 368.306 348.018 372.136C353.517 376.914 359.821 381.239 366.757 384.99C378.391 391.284 396.59 396.439 409.807 399.656C424.468 403.223 437.084 405.422 439.241 405.576C453.562 406.594 513.575 411.447 514.179 411.496C514.211 411.498 514.244 411.499 514.276 411.499C514.593 411.499 514.898 411.373 515.122 411.144C515.369 410.893 515.492 410.546 515.457 410.196L509.894 353.121ZM439.41 403.207C437.777 403.09 425.531 401.038 410.37 397.349C397.288 394.165 379.298 389.075 367.889 382.902C361.134 379.248 354.996 375.041 349.646 370.402C345.367 366.692 341.579 362.697 338.386 358.528C334.574 353.552 332.527 349.503 331.637 347.508L383.99 339.821C384.461 339.752 384.846 339.406 384.967 338.945C384.981 338.89 386.501 333.376 392.585 330.155C395.463 328.631 398.93 327.837 402.887 327.795C407.779 327.743 413.462 328.841 419.777 331.059C435.81 336.688 448.121 343.353 455.626 347.952C463.762 352.937 468.161 356.638 468.205 356.675C468.439 356.874 468.74 356.975 469.049 356.955L507.638 354.494L512.954 409.014C503.747 408.27 452.505 404.137 439.41 403.207Z" fill="#1977CC"/>
<path d="M318.819 364.725L232.298 341.9C227.265 339.989 221.325 338.412 216.228 338.427C211.152 338.443 208.4 339.66 204.365 344.339C201.494 347.668 200.439 353.785 200.057 357.406C199.868 359.192 200.847 360.897 202.484 361.637C203.183 361.953 204.005 362.3 204.929 362.651L308.722 402.096C310.963 402.947 313.248 403.403 315.478 403.5C317.794 404.075 320.268 404.391 322.845 404.391H439.326L365.939 366.845C340.795 365.723 318.858 364.741 318.819 364.725Z" fill="white"/>
<path d="M439.326 403.203H322.845C320.438 403.203 318.055 402.916 315.764 402.347C315.687 402.328 315.609 402.316 315.53 402.313C313.364 402.219 311.215 401.772 309.144 400.986L205.352 361.541C204.545 361.234 203.744 360.903 202.974 360.554C201.801 360.025 201.104 358.81 201.238 357.53C201.586 354.234 202.572 348.236 205.264 345.115C208.976 340.812 211.332 339.629 216.231 339.615C216.254 339.615 216.276 339.615 216.3 339.615C220.58 339.615 226.108 340.819 231.875 343.01C231.914 343.024 231.954 343.037 231.994 343.048L318.459 365.858C318.6 365.906 318.743 365.912 319.768 365.961C320.421 365.992 321.379 366.036 322.607 366.091C325.062 366.203 328.594 366.363 332.911 366.556C341.543 366.944 353.314 367.47 365.885 368.031C366.538 368.064 367.096 367.553 367.126 366.898C367.155 366.243 366.647 365.687 365.992 365.658C329.418 364.026 320.072 363.601 319.007 363.546L232.661 340.767C224.58 337.706 218.963 337.239 216.292 337.239C216.269 337.239 216.246 337.239 216.223 337.239C210.61 337.256 207.629 338.733 203.462 343.564C200.504 346.994 199.333 352.917 198.873 357.281C198.629 359.581 199.884 361.767 201.993 362.72C202.808 363.087 203.653 363.438 204.505 363.762L308.297 403.207C310.569 404.069 312.926 404.565 315.305 404.682C317.747 405.278 320.284 405.58 322.843 405.58H439.323C439.98 405.58 440.512 405.048 440.512 404.392C440.512 403.736 439.982 403.203 439.326 403.203Z" fill="#1977CC"/>
<path d="M352.835 370.935L346.625 370.494C354.378 371.897 359.297 372.636 352.835 370.935Z" fill="#E0F4FC"/>
<path d="M269.382 352.861C269.042 358.292 275.147 365.425 283.191 365.985L346.624 370.494C336.25 368.616 320.802 365.546 320.768 365.532L269.382 352.861Z" fill="#E0F4FC"/>
<path d="M357.815 333.944C350.913 335.089 343.96 335.834 337.714 336.316L289.034 327.057C281.062 325.293 273.176 330.333 271.413 338.301C269.656 346.265 274.696 354.153 282.667 355.909L363.279 373.456L420.172 329.936C399.121 321.793 377.956 330.602 357.815 333.944Z" fill="white"/>
<path d="M420.601 328.831C404.182 322.478 387.81 326.2 371.976 329.799C367.24 330.876 362.342 331.989 357.62 332.773C351.571 333.777 344.897 334.567 337.78 335.12L289.273 325.895C285.113 324.98 280.846 325.738 277.255 328.031C273.66 330.325 271.173 333.883 270.252 338.048C269.334 342.21 270.092 346.481 272.39 350.075C274.686 353.669 278.246 356.155 282.414 357.072L363.026 374.619C363.111 374.637 363.195 374.646 363.279 374.646C363.826 374.646 364.318 374.267 364.439 373.711C364.579 373.069 364.172 372.437 363.53 372.298L282.922 354.751C279.377 353.969 276.347 351.854 274.392 348.794C272.437 345.735 271.791 342.1 272.572 338.558C273.356 335.012 275.473 331.985 278.534 330.031C281.594 328.077 285.232 327.434 288.776 328.216C288.787 328.219 288.798 328.221 288.811 328.223L337.491 337.482C337.594 337.501 337.699 337.507 337.804 337.499C345.049 336.939 351.846 336.137 358.008 335.115C362.799 334.32 367.732 333.199 372.503 332.114C387.988 328.594 404.001 324.954 419.742 331.044C420.354 331.28 421.042 330.977 421.279 330.365C421.518 329.755 421.213 329.067 420.601 328.831Z" fill="#1977CC"/>
<path d="M289.504 334.018L282.673 332.768C280.002 337.151 278.99 342.509 279.88 347.569L279.919 347.798L286.75 349.048C290.362 349.708 293.906 346.88 294.666 342.729C295.427 338.578 293.116 334.679 289.504 334.018Z" fill="#E0F4FC"/>
<path d="M289.931 331.68L283.101 330.43C282.958 330.404 282.814 330.392 282.672 330.392C281.853 330.392 281.079 330.816 280.642 331.531C279.163 333.958 278.141 336.63 277.604 339.473C277.068 342.316 277.045 345.178 277.537 347.979L277.577 348.208C277.749 349.187 278.512 349.955 279.49 350.134L286.321 351.384C286.809 351.473 287.308 351.518 287.802 351.518C289.973 351.518 292.103 350.654 293.8 349.084C295.443 347.562 296.581 345.458 297.003 343.157C297.474 340.585 297.035 337.992 295.768 335.854C294.438 333.608 292.365 332.126 289.931 331.68ZM294.667 342.729C293.981 346.474 291.028 349.142 287.805 349.142C287.456 349.142 287.104 349.111 286.751 349.046L279.92 347.796L279.88 347.568C278.991 342.507 280.002 337.149 282.674 332.767L289.505 334.017C293.115 334.678 295.426 338.578 294.667 342.729Z" fill="#1977CC"/>
<path d="M291.07 348.19C292.851 347.094 294.226 345.133 294.666 342.729C295.107 340.325 294.516 338.005 293.239 336.35C291.417 339.983 290.653 344.141 291.07 348.19Z" fill="white"/>
<path d="M314.909 340.653C314.264 340.534 313.645 340.962 313.526 341.608L311.905 350.457C311.788 351.102 312.214 351.721 312.861 351.84C312.933 351.853 313.005 351.859 313.076 351.859C313.638 351.859 314.138 351.457 314.244 350.885L315.864 342.035C315.982 341.389 315.554 340.771 314.909 340.653Z" fill="#1977CC"/>
<path d="M317.954 343.705C317.309 343.586 316.69 344.013 316.571 344.659L315.834 348.681C315.716 349.326 316.143 349.945 316.789 350.064C316.862 350.077 316.934 350.083 317.004 350.083C317.567 350.083 318.067 349.681 318.173 349.109L318.909 345.087C319.027 344.441 318.6 343.822 317.954 343.705Z" fill="#1977CC"/>
<path d="M219.879 357.796L210.427 355.763C208.361 355.319 206.248 356.292 205.251 358.154C204.544 359.475 203.793 360.952 203.364 362.023C203.845 362.227 204.367 362.438 204.928 362.652L229.51 371.995C229.872 365.173 225.923 359.096 219.879 357.796Z" fill="#E0F4FC"/>
<path d="M220.13 356.634L210.677 354.601C208.106 354.048 205.444 355.278 204.204 357.591C203.295 359.286 202.642 360.629 202.262 361.58C202.022 362.18 202.306 362.862 202.902 363.115C203.431 363.34 203.971 363.557 204.509 363.761L229.09 373.103C229.227 373.155 229.37 373.181 229.513 373.181C229.74 373.181 229.965 373.115 230.161 372.989C230.479 372.782 230.68 372.436 230.699 372.057C231.097 364.523 226.652 358.037 220.13 356.634ZM205.352 361.541C205.216 361.489 205.08 361.437 204.943 361.384C205.292 360.643 205.749 359.74 206.299 358.715C207.042 357.33 208.637 356.594 210.177 356.925L219.629 358.958C224.53 360.012 228.003 364.641 228.322 370.271L205.352 361.541Z" fill="#1977CC"/>
<path d="M214.899 368.657L205.098 366.549C203.236 366.149 201.329 367.01 200.404 368.674C199.95 369.491 199.501 370.333 199.207 370.971L224.46 380.266C223.841 374.549 220.165 369.789 214.899 368.657Z" fill="#E0F4FC"/>
<path d="M222.347 371.995C220.456 369.658 217.967 368.101 215.149 367.495L205.348 365.387C202.957 364.872 200.553 365.962 199.365 368.097C198.813 369.089 198.398 369.889 198.127 370.475C197.989 370.776 197.982 371.121 198.109 371.427C198.236 371.733 198.485 371.973 198.796 372.087L224.049 381.382C224.182 381.431 224.322 381.455 224.46 381.455C224.721 381.455 224.979 381.369 225.191 381.204C225.515 380.951 225.686 380.549 225.641 380.14C225.309 377.066 224.169 374.249 222.347 371.995ZM200.864 370.315C201.034 369.995 201.227 369.639 201.442 369.251C202.117 368.037 203.485 367.418 204.847 367.71L214.648 369.817C216.928 370.308 218.951 371.578 220.497 373.489C221.64 374.903 222.465 376.587 222.93 378.437L200.864 370.315Z" fill="#1977CC"/>
<path d="M468.976 355.769C468.976 355.769 467.039 354.128 463.31 351.538L456.323 405.685C479.447 407.494 514.277 410.311 514.277 410.311L508.713 353.235L468.976 355.769Z" fill="#E0F4FC"/>
<path d="M509.895 353.12C509.832 352.483 509.28 352.009 508.636 352.05L469.368 354.554C468.634 353.958 466.83 352.537 463.987 350.562C463.449 350.188 462.708 350.321 462.333 350.86C461.958 351.398 462.092 352.139 462.63 352.514C466.259 355.036 468.188 356.66 468.207 356.676C468.441 356.874 468.742 356.975 469.051 356.956L507.641 354.495L512.956 409.015C506.183 408.467 476.645 406.085 456.415 404.503C455.76 404.451 455.19 404.941 455.137 405.595C455.085 406.249 455.576 406.82 456.23 406.872C479.088 408.659 513.832 411.47 514.181 411.498C514.213 411.5 514.245 411.501 514.277 411.501C514.594 411.501 514.9 411.375 515.124 411.146C515.37 410.895 515.494 410.548 515.459 410.198L509.895 353.12Z" fill="#1977CC"/>
<path d="M475.13 329.745L463.698 423.176L536.5 432.075L547.932 338.645L475.13 329.745Z" fill="white"/>
<path d="M548.09 337.475L475.288 328.574C474.635 328.494 474.045 328.958 473.964 329.609L462.53 423.039C462.492 423.351 462.58 423.667 462.774 423.914C462.968 424.162 463.252 424.324 463.566 424.362L536.367 433.264C536.416 433.269 536.464 433.273 536.513 433.273C537.105 433.273 537.618 432.832 537.691 432.229L549.125 338.799C549.164 338.487 549.075 338.171 548.882 337.923C548.687 337.674 548.402 337.513 548.09 337.475ZM535.475 430.761L465.033 422.148L476.178 331.077L546.62 339.689L535.475 430.761Z" fill="#1977CC"/>
<path d="M485.17 325.379L473.208 422.964C473.171 423.076 473.134 423.188 473.1 423.3C470.266 432.497 476.84 441.924 486.438 442.67L679.114 465.999V332.738L504.613 315.653C491.493 315.058 487.852 317.328 485.17 325.379Z" fill="#A2DFFF"/>
<path d="M500.989 315.565C490.782 315.565 487.587 318.125 485.17 325.38L473.208 422.965C473.171 423.077 473.134 423.189 473.1 423.302C470.266 432.498 476.84 441.925 486.438 442.671L679.114 466V332.74L504.613 315.654C503.315 315.596 502.11 315.565 500.989 315.565ZM676.737 463.32L486.723 440.313C486.689 440.309 486.655 440.305 486.621 440.303C482.717 440 479.212 437.967 477.006 434.725C474.846 431.549 474.249 427.64 475.371 424.001C475.4 423.907 475.431 423.811 475.463 423.717C475.512 423.566 475.547 423.412 475.567 423.255L487.5 325.91C488.614 322.636 489.768 320.842 491.455 319.743C493.37 318.496 496.31 317.941 500.988 317.941C502.042 317.941 503.173 317.968 504.443 318.026L676.737 334.895V463.32Z" fill="#1977CC"/>
<path d="M135.026 185.62H85.4847C83.6885 185.62 82.2329 187.074 82.2329 188.87V252.288C82.2329 254.083 83.6885 255.538 85.4847 255.538H135.026C136.822 255.538 138.278 254.083 138.278 252.288V188.87C138.278 187.074 136.822 185.62 135.026 185.62Z" fill="#A2DFFF"/>
<path d="M135.026 184.431H85.4847C83.0365 184.431 81.0444 186.422 81.0444 188.87V252.287C81.0444 254.734 83.0365 256.725 85.4847 256.725H135.026C137.474 256.725 139.466 254.734 139.466 252.287V188.87C139.466 186.422 137.474 184.431 135.026 184.431ZM137.089 252.287C137.089 253.424 136.164 254.35 135.026 254.35H85.4847C84.3472 254.35 83.4213 253.424 83.4213 252.287V188.87C83.4213 187.733 84.3472 186.807 85.4847 186.807H135.026C136.164 186.807 137.089 187.733 137.089 188.87V252.287Z" fill="#1977CC"/>
<path d="M133.838 191.193H86.6732V252.731H133.838V191.193Z" fill="#72C8ED"/>
<path d="M133.839 189.441H86.6743V250.978H133.839V189.441Z" fill="white"/>
<path d="M133.838 188.253H86.6736C86.0171 188.253 85.4851 188.785 85.4851 189.441V250.978C85.4851 251.635 86.0171 252.166 86.6736 252.166H133.838C134.495 252.166 135.027 251.635 135.027 250.978V189.441C135.027 188.785 134.495 188.253 133.838 188.253ZM132.65 249.791H87.862V190.629H132.65V249.791Z" fill="#1977CC"/>
<path d="M119.115 238.151C118.7 237.736 118.028 237.736 117.612 238.151L117.315 238.45C116.899 238.865 116.899 239.537 117.315 239.952L119.845 242.482C120.261 242.897 120.933 242.897 121.349 242.482L121.646 242.184C122.062 241.769 122.062 241.097 121.646 240.682L119.115 238.151Z" fill="#A2DFFF"/>
<path d="M126.57 235.291C126.119 234.841 125.388 234.841 124.936 235.291L119.61 240.615C119.159 241.066 119.159 241.796 119.61 242.248L119.779 242.416C120.229 242.867 120.96 242.867 121.412 242.416L126.738 237.092C127.189 236.642 127.189 235.911 126.738 235.46L126.57 235.291Z" fill="#A2DFFF"/>
<path d="M126.203 199.718H94.1325C93.4761 199.718 92.9441 200.25 92.9441 200.906C92.9441 201.562 93.4761 202.094 94.1325 202.094H126.203C126.859 202.094 127.391 201.562 127.391 200.906C127.391 200.25 126.858 199.718 126.203 199.718Z" fill="#A2DFFF"/>
<path d="M123.559 203.2H94.1328C93.4763 203.2 92.9443 203.732 92.9443 204.388C92.9443 205.044 93.4763 205.576 94.1328 205.576H123.558C124.214 205.576 124.746 205.044 124.746 204.388C124.746 203.732 124.215 203.2 123.559 203.2Z" fill="#A2DFFF"/>
<path d="M105.723 206.682H94.1328C93.4763 206.682 92.9443 207.214 92.9443 207.87C92.9443 208.526 93.4763 209.058 94.1328 209.058H105.722C106.378 209.058 106.91 208.526 106.91 207.87C106.91 207.214 106.378 206.682 105.723 206.682Z" fill="#A2DFFF"/>
<path d="M126.203 212.896H94.1332C93.4767 212.896 92.9447 213.427 92.9447 214.084C92.9447 214.74 93.4767 215.272 94.1332 215.272H126.203C126.86 215.272 127.392 214.74 127.392 214.084C127.392 213.427 126.859 212.896 126.203 212.896Z" fill="#A2DFFF"/>
<path d="M123.559 216.378H94.1329C93.4764 216.378 92.9445 216.91 92.9445 217.566C92.9445 218.222 93.4764 218.754 94.1329 218.754H123.558C124.214 218.754 124.746 218.222 124.746 217.566C124.746 216.91 124.215 216.378 123.559 216.378Z" fill="#A2DFFF"/>
<path d="M105.723 219.861H94.1329C93.4764 219.861 92.9445 220.393 92.9445 221.049C92.9445 221.705 93.4764 222.237 94.1329 222.237H105.722C106.378 222.237 106.91 221.705 106.91 221.049C106.91 220.393 106.378 219.861 105.723 219.861Z" fill="#A2DFFF"/>
<path d="M126.203 226.073H94.1332C93.4767 226.073 92.9447 226.605 92.9447 227.261C92.9447 227.918 93.4767 228.449 94.1332 228.449H126.203C126.86 228.449 127.392 227.918 127.392 227.261C127.392 226.605 126.859 226.073 126.203 226.073Z" fill="#A2DFFF"/>
<path d="M123.559 229.557H94.1329C93.4764 229.557 92.9445 230.088 92.9445 230.744C92.9445 231.401 93.4764 231.932 94.1329 231.932H123.558C124.214 231.932 124.746 231.401 124.746 230.744C124.746 230.088 124.215 229.557 123.559 229.557Z" fill="#A2DFFF"/>
<path d="M105.723 233.039H94.1329C93.4764 233.039 92.9445 233.571 92.9445 234.227C92.9445 234.883 93.4764 235.415 94.1329 235.415H105.722C106.378 235.415 106.91 234.883 106.91 234.227C106.91 233.571 106.378 233.039 105.723 233.039Z" fill="#A2DFFF"/>
<path d="M112.735 181.754H107.53C105.289 181.754 103.472 183.588 103.472 185.85V187.302H105.137V185.85C105.137 184.51 106.21 183.418 107.53 183.418H112.735C114.054 183.418 115.127 184.509 115.127 185.85V187.302H116.792V185.85C116.792 183.589 114.975 181.754 112.735 181.754Z" fill="#E0F4FC"/>
<path d="M112.735 179.378H107.53C103.983 179.378 101.095 182.281 101.095 185.85V187.302C101.095 188.614 102.159 189.678 103.472 189.678H105.137C106.45 189.678 107.514 188.614 107.514 187.302V185.85C107.514 185.816 107.529 185.8 107.537 185.794H112.727C112.735 185.8 112.75 185.816 112.75 185.85V187.302C112.75 188.614 113.814 189.678 115.127 189.678H116.792C118.105 189.678 119.169 188.614 119.169 187.302V185.85C119.169 182.282 116.283 179.378 112.735 179.378ZM116.792 187.302H115.127V185.85C115.127 184.51 114.054 183.418 112.735 183.418H107.53C106.21 183.418 105.137 184.508 105.137 185.85V187.302H103.472V185.85C103.472 183.589 105.289 181.754 107.53 181.754H112.735C114.976 181.754 116.792 183.588 116.792 185.85V187.302Z" fill="#1977CC"/>
<path d="M117.73 185.082H102.535C100.294 185.082 98.4773 186.916 98.4773 189.178V191.184H121.787V189.178C121.787 186.917 119.97 185.082 117.73 185.082Z" fill="#E0F4FC"/>
<path d="M117.73 182.706H102.535C98.9866 182.706 96.1003 185.61 96.1003 189.178V191.184C96.1003 192.497 97.1643 193.56 98.4772 193.56H121.787C123.1 193.56 124.164 192.497 124.164 191.184V189.178C124.164 185.61 121.277 182.706 117.73 182.706ZM121.787 191.184H98.4772V189.178C98.4772 186.916 100.295 185.082 102.535 185.082H117.729C119.97 185.082 121.787 186.916 121.787 189.178V191.184Z" fill="#1977CC"/>
<path d="M495.952 145.717C486.145 148.954 475.663 148.179 466.438 143.536C457.213 138.893 450.35 130.936 447.111 121.133C446.905 120.51 446.233 120.172 445.611 120.378C444.987 120.584 444.649 121.256 444.855 121.878C446.592 127.136 449.307 131.898 452.927 136.031C456.422 140.022 460.609 143.261 465.369 145.657C470.13 148.053 475.226 149.487 480.515 149.918C481.626 150.008 482.737 150.054 483.845 150.054C488.195 150.054 492.505 149.357 496.698 147.973C497.322 147.767 497.66 147.095 497.454 146.473C497.247 145.851 496.575 145.511 495.952 145.717Z" fill="#1977CC"/>
<path d="M523.704 108.148C523.701 108.148 523.697 108.148 523.695 108.148C523.043 108.148 522.512 108.674 522.507 109.327C522.475 113.31 521.825 117.258 520.576 121.058C519.34 124.815 517.545 128.35 515.239 131.564C510.451 138.24 503.781 143.134 495.952 145.717C491.536 147.174 486.961 147.825 482.357 147.648C477.908 147.479 473.549 146.545 469.4 144.874C461.043 141.51 454.095 135.32 449.835 127.447C449.522 126.87 448.801 126.655 448.224 126.968C447.647 127.28 447.432 128.001 447.744 128.578C452.267 136.937 459.643 143.508 468.511 147.078C472.915 148.851 477.542 149.842 482.266 150.023C482.787 150.043 483.309 150.052 483.83 150.052C488.189 150.052 492.51 149.354 496.697 147.973C505.007 145.231 512.087 140.036 517.17 132.948C519.616 129.537 521.522 125.785 522.833 121.799C524.159 117.764 524.85 113.574 524.882 109.344C524.888 108.689 524.361 108.153 523.704 108.148Z" fill="#1977CC"/>
<path d="M524.701 108.704C524.505 108.393 524.177 108.189 523.81 108.154C523.446 108.119 523.083 108.253 522.83 108.52L517.479 114.188C517.028 114.666 517.05 115.417 517.527 115.867C518.005 116.317 518.757 116.296 519.207 115.819L523.505 111.266L526.733 116.399C526.959 116.758 527.345 116.954 527.74 116.954C527.956 116.954 528.175 116.896 528.372 116.772C528.927 116.423 529.095 115.69 528.745 115.134L524.701 108.704Z" fill="#1977CC"/>
<path d="M509.016 103.793H501.708C501.328 102.488 500.811 101.243 500.169 100.074L505.335 94.9108C506.573 93.6732 506.573 91.6673 505.335 90.4296L502.426 87.5221C501.188 86.2844 499.181 86.2844 497.943 87.5221L492.777 92.6855C491.608 92.044 490.361 91.5282 489.056 91.1469V83.843C489.056 82.0929 487.637 80.6742 485.886 80.6742H481.772C480.021 80.6742 478.602 82.0929 478.602 83.843V91.1469C477.296 91.527 476.05 92.044 474.881 92.6855L469.715 87.5221C468.477 86.2844 466.47 86.2844 465.232 87.5221L462.323 90.4296C461.085 91.6673 461.085 93.6732 462.323 94.9108L467.489 100.074C466.847 101.243 466.331 102.488 465.95 103.793H458.642C456.891 103.793 455.472 105.212 455.472 106.962V111.074C455.472 112.824 456.891 114.243 458.642 114.243H465.95C466.331 115.547 466.847 116.793 467.489 117.962L462.323 123.125C461.085 124.363 461.085 126.369 462.323 127.606L465.232 130.514C466.47 131.751 468.477 131.751 469.715 130.514L474.881 125.35C476.05 125.992 477.296 126.508 478.602 126.889V134.193C478.602 135.943 480.021 137.362 481.772 137.362H485.886C487.637 137.362 489.056 135.943 489.056 134.193V126.889C490.361 126.509 491.608 125.992 492.777 125.35L497.943 130.514C499.181 131.751 501.188 131.751 502.426 130.514L505.335 127.606C506.573 126.369 506.573 124.363 505.335 123.125L500.169 117.962C500.811 116.793 501.327 115.547 501.708 114.243H509.016C510.767 114.243 512.186 112.824 512.186 111.074V106.962C512.185 105.212 510.767 103.793 509.016 103.793ZM483.828 117.942C478.937 117.942 474.971 113.978 474.971 109.089C474.971 104.199 478.937 100.235 483.828 100.235C488.72 100.235 492.686 104.199 492.686 109.089C492.687 113.978 488.721 117.942 483.828 117.942Z" fill="#A2DFFF"/>
<path d="M509.016 102.605H502.578C502.309 101.814 501.99 101.044 501.624 100.299L506.175 95.7501C507.874 94.0519 507.874 91.2881 506.175 89.59L503.267 86.6825C501.568 84.9843 498.803 84.9843 497.102 86.6825L492.552 91.2315C491.808 90.8672 491.036 90.5482 490.246 90.2778V83.8428C490.246 81.441 488.291 79.4861 485.887 79.4861H481.773C479.37 79.4861 477.414 81.4399 477.414 83.8428V90.2778C476.623 90.5471 475.852 90.8661 475.107 91.2315L470.556 86.6825C469.733 85.86 468.639 85.4063 467.474 85.4063C466.309 85.4063 465.215 85.8589 464.392 86.6825L461.483 89.59C459.784 91.2881 459.784 94.0519 461.483 95.7512L466.034 100.3C465.67 101.045 465.35 101.815 465.08 102.606H458.642C456.239 102.606 454.283 104.56 454.283 106.963V111.075C454.283 113.477 456.238 115.432 458.642 115.432H465.08C465.35 116.223 465.669 116.993 466.034 117.737L461.483 122.287C459.784 123.985 459.784 126.748 461.483 128.448L464.392 131.355C465.215 132.178 466.309 132.631 467.474 132.631C468.639 132.631 469.733 132.178 470.556 131.355L475.107 126.807C475.852 127.172 476.623 127.491 477.414 127.76V134.195C477.414 136.597 479.369 138.552 481.773 138.552H485.887C488.29 138.552 490.246 136.598 490.246 134.195V127.76C491.037 127.489 491.808 127.172 492.552 126.806L497.104 131.354C497.926 132.177 499.021 132.63 500.186 132.63C501.35 132.63 502.445 132.178 503.268 131.354L506.177 128.447C507.875 126.748 507.875 123.985 506.177 122.285L501.625 117.736C501.99 116.992 502.309 116.22 502.58 115.431H509.018C511.42 115.431 513.376 113.477 513.376 111.074V106.962C513.374 104.559 511.419 102.605 509.016 102.605ZM510.997 111.073C510.997 112.165 510.109 113.054 509.015 113.054H501.708C501.179 113.054 500.715 113.402 500.567 113.909C500.212 115.124 499.727 116.295 499.127 117.389C498.873 117.852 498.955 118.428 499.329 118.801L504.495 123.964C505.268 124.737 505.268 125.993 504.495 126.765L501.586 129.673C501.211 130.047 500.714 130.253 500.184 130.253C499.655 130.253 499.158 130.047 498.783 129.673L493.617 124.51C493.244 124.136 492.669 124.055 492.205 124.308C491.11 124.909 489.939 125.393 488.723 125.747C488.216 125.895 487.868 126.359 487.868 126.888V134.191C487.868 135.283 486.979 136.172 485.886 136.172H481.771C480.679 136.172 479.79 135.284 479.79 134.191V126.888C479.79 126.359 479.441 125.895 478.934 125.747C477.717 125.392 476.546 124.908 475.452 124.308C475.272 124.21 475.077 124.161 474.881 124.161C474.573 124.161 474.268 124.281 474.04 124.51L468.874 129.673C468.499 130.047 468.002 130.253 467.473 130.253C466.943 130.253 466.446 130.047 466.071 129.673L463.163 126.765C462.39 125.993 462.39 124.737 463.163 123.964L468.328 118.801C468.702 118.428 468.785 117.853 468.53 117.389C467.93 116.295 467.446 115.124 467.09 113.909C466.942 113.402 466.478 113.054 465.949 113.054H458.642C457.55 113.054 456.66 112.166 456.66 111.073V106.96C456.66 105.869 457.549 104.979 458.642 104.979H465.949C466.478 104.979 466.942 104.631 467.09 104.124C467.446 102.908 467.93 101.737 468.53 100.644C468.785 100.181 468.702 99.6056 468.328 99.2323L463.163 94.0689C462.39 93.2962 462.39 92.0404 463.163 91.2677L466.071 88.3602C466.446 87.9858 466.943 87.7799 467.473 87.7799C468.002 87.7799 468.499 87.9858 468.874 88.3602L474.04 93.5236C474.413 93.8969 474.988 93.9795 475.452 93.725C476.547 93.1242 477.718 92.64 478.934 92.2859C479.441 92.1377 479.79 91.6739 479.79 91.1456V83.8428C479.79 82.7511 480.678 81.8619 481.771 81.8619H485.886C486.978 81.8619 487.868 82.75 487.868 83.8428V91.1467C487.868 91.675 488.216 92.1389 488.723 92.2871C489.939 92.6412 491.11 93.1254 492.205 93.7261C492.668 93.9795 493.243 93.8981 493.617 93.5247L498.783 88.3614C499.556 87.5887 500.813 87.5898 501.586 88.3614L504.495 91.2689C505.268 92.0404 505.268 93.2973 504.495 94.07L499.329 99.2334C498.955 99.6068 498.873 100.181 499.127 100.645C499.728 101.739 500.213 102.91 500.567 104.125C500.715 104.632 501.179 104.981 501.708 104.981H509.015C510.107 104.981 510.997 105.869 510.997 106.962V111.073Z" fill="#1977CC"/>
<path d="M483.83 99.0466C478.291 99.0466 473.784 103.552 473.784 109.088C473.784 114.625 478.291 119.13 483.83 119.13C489.369 119.13 493.876 114.625 493.876 109.088C493.876 103.55 489.369 99.0466 483.83 99.0466ZM483.83 116.754C479.601 116.754 476.161 113.315 476.161 109.088C476.161 104.862 479.601 101.422 483.83 101.422C488.059 101.422 491.5 104.862 491.5 109.088C491.5 113.315 488.059 116.754 483.83 116.754Z" fill="#1977CC"/>
<path d="M483.83 96.4368C476.878 96.4368 471.244 102.07 471.244 109.017C471.244 115.965 476.879 121.598 483.83 121.598C490.781 121.598 496.416 115.965 496.416 109.017C496.416 102.07 490.781 96.4368 483.83 96.4368ZM483.83 116.215C479.892 116.215 476.7 113.024 476.7 109.088C476.7 105.153 479.892 101.962 483.83 101.962C487.768 101.962 490.96 105.153 490.96 109.088C490.96 113.024 487.768 116.215 483.83 116.215Z" fill="#A2DFFF"/>
<path d="M483.83 100.773C479.243 100.773 475.512 104.503 475.512 109.088C475.512 113.672 479.243 117.402 483.83 117.402C488.416 117.402 492.148 113.672 492.148 109.088C492.148 104.503 488.416 100.773 483.83 100.773ZM483.83 115.027C480.554 115.027 477.889 112.363 477.889 109.089C477.889 105.815 480.554 103.15 483.83 103.15C487.105 103.15 489.771 105.815 489.771 109.089C489.771 112.363 487.105 115.027 483.83 115.027Z" fill="#1977CC"/>
<path d="M483.83 95.249C476.234 95.249 470.055 101.426 470.055 109.017C470.055 116.61 476.234 122.786 483.83 122.786C491.426 122.786 497.605 116.609 497.605 109.017C497.605 101.425 491.425 95.249 483.83 95.249ZM483.83 120.41C477.545 120.41 472.432 115.3 472.432 109.017C472.432 102.735 477.545 97.6248 483.83 97.6248C490.115 97.6248 495.228 102.735 495.228 109.017C495.228 115.3 490.114 120.41 483.83 120.41Z" fill="#1977CC"/>
<path d="M499.148 70.9557C494.744 69.1829 490.117 68.1918 485.394 68.0108C480.506 67.8242 475.649 68.5131 470.962 70.0597C462.652 72.802 455.573 77.9971 450.489 85.0848C448.043 88.4958 446.137 92.2473 444.827 96.2341C443.5 100.268 442.81 104.459 442.777 108.689C442.771 109.345 443.3 109.881 443.956 109.886C443.96 109.886 443.963 109.886 443.965 109.886C444.617 109.886 445.148 109.36 445.154 108.707C445.185 104.724 445.835 100.776 447.085 96.9762C448.321 93.2191 450.116 89.6837 452.421 86.4696C457.209 79.7936 463.878 74.8995 471.707 72.3167C476.124 70.8595 480.699 70.2101 485.302 70.3855C489.751 70.5552 494.11 71.4885 498.259 73.1595C506.616 76.5241 513.564 82.7136 517.825 90.5865C518.137 91.1635 518.858 91.3784 519.435 91.0662C520.013 90.7539 520.228 90.0333 519.915 89.4563C515.392 81.0969 508.017 74.5261 499.148 70.9557Z" fill="#1977CC"/>
<path d="M448.452 102.215L444.154 106.768L440.926 101.635C440.576 101.079 439.843 100.912 439.287 101.262C438.731 101.611 438.564 102.344 438.914 102.9L442.959 109.332C443.155 109.644 443.483 109.847 443.85 109.882C443.888 109.886 443.927 109.888 443.965 109.888C444.29 109.888 444.604 109.754 444.83 109.516L450.181 103.848C450.632 103.37 450.61 102.619 450.133 102.169C449.654 101.716 448.902 101.738 448.452 102.215Z" fill="#1977CC"/>
<path d="M191.352 65.2722C170.547 65.2722 153.681 68.4094 153.681 72.2785C153.681 72.3102 153.686 72.343 153.688 72.3747H153.681V124.228C153.681 128.241 154.564 132.371 157.997 134.39C163.515 137.634 191.354 152.761 191.354 152.761C191.429 152.697 219.19 137.634 224.707 134.39C228.14 132.371 229.023 128.241 229.023 124.228V72.3758H229.016C229.019 72.3442 229.023 72.3113 229.023 72.2797C229.022 68.4094 212.156 65.2722 191.352 65.2722Z" fill="#A2DFFF"/>
<path d="M226.541 68.4646C224.561 67.5935 221.756 66.8174 218.207 66.1567C211.022 64.8206 201.485 64.0841 191.353 64.0841C181.22 64.0841 171.683 64.8195 164.499 66.1567C160.949 66.8163 158.145 67.5935 156.165 68.4646C153.695 69.5507 152.494 70.7985 152.494 72.2795C152.494 72.2976 152.494 72.3145 152.495 72.3315C152.495 72.3462 152.494 72.362 152.494 72.3767V124.23C152.494 129.74 154.143 133.504 157.396 135.415C162.868 138.633 190.51 153.656 190.788 153.808C190.966 153.905 191.162 153.951 191.355 153.951C191.57 153.951 191.784 153.892 191.972 153.779C192.177 153.664 193.903 152.723 196.076 151.537C204.2 147.108 221.103 137.891 225.311 135.415C228.564 133.504 230.213 129.74 230.213 124.23V72.3756C230.213 72.3609 230.213 72.3451 230.212 72.3304C230.212 72.3145 230.213 72.2964 230.213 72.2783C230.211 70.7974 229.011 69.5507 226.541 68.4646ZM192.125 153.665C192.126 153.665 192.126 153.664 192.127 153.664C192.126 153.664 192.126 153.665 192.125 153.665ZM192.127 153.663C192.128 153.662 192.128 153.662 192.13 153.66C192.128 153.662 192.128 153.663 192.127 153.663ZM227.834 124.229C227.834 128.902 226.614 131.891 224.104 133.367C219.929 135.823 203.049 145.026 194.937 149.45C192.986 150.513 191.933 151.088 191.351 151.408C187.351 149.232 163.6 136.307 158.599 133.366C156.09 131.89 154.87 128.901 154.87 124.228V72.5012C154.878 72.4299 154.879 72.3586 154.873 72.2862L154.871 72.2613C154.896 72.0588 155.329 71.4264 157.12 70.639C158.908 69.8528 161.61 69.1106 164.932 68.4929C171.978 67.1828 181.361 66.461 191.352 66.461C201.344 66.461 210.726 67.1828 217.772 68.4929C221.094 69.1106 223.795 69.8528 225.584 70.639C227.372 71.4253 227.808 72.0577 227.833 72.2602C227.832 72.2715 227.831 72.2828 227.831 72.2942C227.826 72.362 227.827 72.4299 227.834 72.4967V124.229Z" fill="#1977CC"/>
<path d="M223.938 76.8581C223.938 74.8952 221.546 73.8431 220.761 73.4981C219.096 72.7661 216.744 72.1144 213.77 71.5612C207.77 70.4457 199.809 69.8314 191.352 69.8314C182.894 69.8314 174.933 70.4457 168.933 71.5612C165.96 72.1144 163.608 72.7661 161.943 73.4981C161.157 73.8431 158.766 74.8952 158.766 76.8581C158.766 76.8717 158.766 76.8864 158.767 76.9C158.767 76.9124 158.766 76.926 158.766 76.9384V121.724C158.766 126.392 160.172 129.586 162.949 131.218C167.513 133.901 189.837 146.034 190.786 146.55C190.963 146.647 191.159 146.694 191.353 146.694C191.567 146.694 191.78 146.636 191.966 146.523C192.145 146.422 193.564 145.649 195.352 144.673C202.131 140.977 216.238 133.284 219.755 131.217C222.53 129.585 223.938 126.391 223.938 121.723V76.9396C223.938 76.9249 223.938 76.9101 223.937 76.8966C223.937 76.8841 223.938 76.8717 223.938 76.8581ZM192.122 146.411C192.124 146.411 192.124 146.41 192.125 146.41C192.124 146.41 192.124 146.411 192.122 146.411ZM192.125 146.409C192.126 146.408 192.126 146.408 192.127 146.407C192.127 146.408 192.126 146.409 192.125 146.409ZM221.561 121.724C221.561 125.543 220.576 127.978 218.549 129.171C215.066 131.218 200.982 138.898 194.213 142.588C192.716 143.405 191.854 143.875 191.349 144.152C187.752 142.196 168.28 131.596 164.153 129.17C162.127 127.978 161.142 125.543 161.142 121.723V77.0504C161.148 76.9871 161.149 76.9226 161.145 76.857C161.274 76.4327 163.105 75.0129 169.818 73.8148C175.626 72.7774 183.272 72.2072 191.351 72.2072C199.429 72.2072 207.075 72.7785 212.883 73.8148C219.593 75.0129 221.425 76.4316 221.556 76.857C221.552 76.9226 221.553 76.9882 221.56 77.0538V121.724H221.561ZM221.561 76.8705H221.562H221.561Z" fill="white"/>
<path d="M211.851 102.32C210.374 101.221 208.143 100.817 206.682 100.805L204.141 100.783C198.421 93.4421 198.099 93.1989 197.884 93.036C197.223 92.5382 196.436 92.2712 195.606 92.2633L176.168 92.0981C174.921 92.0902 173.749 92.683 173.021 93.6921C172.965 93.7578 172.803 93.941 172.632 94.1345C165.78 101.892 164.827 103.951 164.818 105.02L164.793 107.937C164.783 109.157 165.248 110.309 166.105 111.18C166.961 112.051 168.106 112.536 169.327 112.547L172.586 112.574C172.589 112.574 172.592 112.574 172.596 112.574C173.248 112.574 173.779 112.049 173.784 111.396C173.79 110.74 173.262 110.204 172.606 110.198L169.347 110.171C168.761 110.167 168.211 109.934 167.8 109.515C167.389 109.096 167.165 108.543 167.17 107.957L167.195 105.073C167.274 104.688 168.047 102.915 174.414 95.707C174.84 95.224 174.882 95.1764 174.939 95.095C175.213 94.7047 175.659 94.4739 176.134 94.4739C176.139 94.4739 176.142 94.4739 176.146 94.4739L195.585 94.6391C195.885 94.6413 196.169 94.733 196.411 94.9038C196.642 95.1414 197.716 96.4005 202.616 102.695C202.839 102.981 203.181 103.151 203.544 103.153L206.659 103.179C208.046 103.191 209.631 103.631 210.429 104.225C212.659 105.883 214.012 108.459 214.753 110.328C214.761 110.349 214.786 110.41 214.736 110.482C214.702 110.531 214.66 110.555 214.596 110.555L207.903 110.498C207.9 110.498 207.896 110.498 207.893 110.498C207.241 110.498 206.71 111.023 206.704 111.676C206.699 112.332 207.226 112.868 207.883 112.874L214.575 112.93C214.582 112.93 214.59 112.93 214.597 112.93C215.437 112.93 216.22 112.519 216.695 111.825C217.174 111.126 217.274 110.239 216.961 109.453C216.11 107.298 214.528 104.311 211.851 102.32ZM172.995 93.7306C172.998 93.7261 173.002 93.7216 173.007 93.7148C173.002 93.7204 172.998 93.7261 172.995 93.7306Z" fill="white"/>
<path d="M197.528 110.411L182.975 110.288C182.971 110.288 182.968 110.288 182.965 110.288C182.313 110.288 181.782 110.813 181.776 111.465C181.771 112.121 182.298 112.658 182.954 112.663L197.508 112.787C197.511 112.787 197.515 112.787 197.518 112.787C198.17 112.787 198.701 112.262 198.707 111.609C198.712 110.953 198.184 110.417 197.528 110.411Z" fill="white"/>
<path d="M193.938 96.5544C193.451 96.1879 192.872 95.991 192.261 95.9854L179.444 95.8768C178.521 95.8666 177.653 96.3123 177.118 97.0624C177.104 97.0805 177.083 97.1076 177.054 97.1438C175.681 98.8827 174.697 100.446 174.13 101.791C173.976 102.157 174.014 102.574 174.231 102.906C174.449 103.237 174.818 103.437 175.215 103.441L197.165 103.626C197.168 103.626 197.172 103.626 197.175 103.626C197.627 103.626 198.04 103.371 198.24 102.965C198.442 102.556 198.393 102.069 198.112 101.709C194.328 96.8474 194.12 96.6913 193.938 96.5544ZM177.178 101.081C177.592 100.403 178.154 99.583 178.92 98.6157C178.991 98.5252 179.036 98.4652 179.052 98.4437C179.093 98.386 179.209 98.2525 179.42 98.2525C179.421 98.2525 179.422 98.2525 179.424 98.2525L192.241 98.3611C192.334 98.3623 192.408 98.3894 192.462 98.4211C192.604 98.5772 193.087 99.1497 194.721 101.23L177.178 101.081Z" fill="white"/>
<path d="M213.979 105.38L211.867 105.362C211.601 105.019 211.206 104.627 210.67 104.373C210.075 104.094 209.368 104.347 209.087 104.941C208.807 105.534 209.061 106.242 209.654 106.523C209.873 106.626 210.069 106.912 210.134 107.042C210.32 107.474 210.732 107.729 211.204 107.733L213.959 107.757C213.962 107.757 213.966 107.757 213.969 107.757C214.621 107.757 215.152 107.232 215.158 106.579C215.163 105.922 214.635 105.386 213.979 105.38Z" fill="white"/>
<path d="M169.231 105.001L166.476 104.977C166.473 104.977 166.469 104.977 166.466 104.977C165.814 104.977 165.283 105.502 165.277 106.155C165.272 106.811 165.799 107.347 166.456 107.353L169.21 107.376C169.214 107.376 169.217 107.376 169.221 107.376C169.873 107.376 170.403 106.852 170.409 106.199C170.415 105.543 169.887 105.006 169.231 105.001Z" fill="white"/>
<path d="M202.703 104.439C201.022 104.427 199.426 105.068 198.223 106.249C197.021 107.431 196.35 109.009 196.336 110.695L197.525 110.705L196.336 110.695C196.307 114.175 199.115 117.029 202.597 117.059C202.615 117.059 202.633 117.059 202.652 117.059C204.318 117.059 205.887 116.417 207.076 115.248C208.279 114.066 208.95 112.488 208.963 110.802C208.993 107.322 206.185 104.468 202.703 104.439ZM205.41 113.554C204.661 114.29 203.665 114.688 202.617 114.683C201.565 114.674 200.581 114.256 199.843 113.507C199.106 112.758 198.704 111.766 198.713 110.715C198.722 109.664 199.14 108.68 199.89 107.942C200.632 107.214 201.611 106.813 202.65 106.813C202.661 106.813 202.672 106.813 202.684 106.813C203.735 106.822 204.72 107.24 205.458 107.99C206.195 108.739 206.597 109.731 206.588 110.782C206.577 111.833 206.16 112.817 205.41 113.554Z" fill="white"/>
<path d="M202.665 109.105C202.229 109.099 201.812 109.269 201.498 109.577C201.185 109.885 201.01 110.295 201.007 110.734C201.003 111.173 201.171 111.587 201.479 111.9C201.787 112.213 202.198 112.387 202.637 112.391C202.641 112.391 202.646 112.391 202.651 112.391C203.085 112.391 203.494 112.223 203.804 111.919C204.117 111.611 204.292 111.2 204.295 110.761C204.302 109.856 203.571 109.113 202.665 109.105ZM203.164 111.27C203.026 111.406 202.833 111.485 202.644 111.481C202.239 111.478 201.913 111.146 201.917 110.742L202.195 110.744L201.917 110.742C201.918 110.549 201.998 110.361 202.136 110.226C202.275 110.091 202.461 110.01 202.657 110.016C202.851 110.017 203.039 110.097 203.174 110.235C203.31 110.373 203.386 110.562 203.385 110.756C203.382 110.947 203.302 111.136 203.164 111.27Z" fill="white"/>
<path d="M177.752 104.227C174.275 104.193 171.414 107.004 171.385 110.483C171.356 113.963 174.164 116.818 177.645 116.847C177.663 116.847 177.682 116.847 177.7 116.847C181.156 116.847 183.983 114.051 184.012 110.59C184.041 107.111 181.233 104.256 177.752 104.227ZM177.698 114.471C177.687 114.471 177.676 114.471 177.665 114.471C175.494 114.453 173.743 112.672 173.762 110.504C173.78 108.345 175.542 106.602 177.697 106.602C177.709 106.602 177.72 106.602 177.731 106.602C178.783 106.611 179.768 107.028 180.505 107.778C181.243 108.528 181.644 109.519 181.635 110.57C181.617 112.729 179.855 114.472 177.698 114.471Z" fill="white"/>
<path d="M177.714 108.649C177.709 108.649 177.703 108.649 177.697 108.649C177.199 108.649 176.729 108.842 176.374 109.191C176.014 109.544 175.814 110.017 175.809 110.522L176.998 110.532L175.809 110.522C175.8 111.563 176.64 112.417 177.681 112.425C177.687 112.425 177.693 112.425 177.697 112.425C178.731 112.425 179.576 111.589 179.585 110.553C179.595 109.513 178.755 108.658 177.714 108.649ZM178.041 110.885C177.95 110.975 177.821 111.023 177.695 111.025C177.426 111.023 177.208 110.802 177.211 110.533C177.213 110.265 177.431 110.049 177.699 110.049C177.701 110.049 177.702 110.049 177.704 110.049C177.973 110.051 178.191 110.272 178.188 110.541C178.186 110.67 178.133 110.796 178.041 110.885Z" fill="white"/>
<path d="M187.456 97.1325C187.428 96.5068 186.914 96.0045 186.279 96C186.276 96 186.273 96 186.269 96C185.617 96 185.086 96.5249 185.081 97.1777C185.08 97.2954 185.077 97.5397 185.913 102.452C186.011 103.031 186.514 103.441 187.083 103.441C187.149 103.441 187.216 103.435 187.283 103.424C187.931 103.314 188.365 102.701 188.256 102.054C187.944 100.227 187.496 97.5182 187.456 97.1325ZM187.458 97.1969C187.458 97.1788 187.458 97.1619 187.456 97.1438C187.458 97.1664 187.458 97.1845 187.458 97.1969Z" fill="white"/>
<path d="M571.834 179.322C570.06 179.322 568.622 180.759 568.622 182.532V249.944C568.622 250.83 567.903 251.55 567.016 251.55H565.41C564.525 251.55 563.804 250.83 563.804 249.944V244.326C563.804 242.553 562.367 241.117 560.593 241.117C558.819 241.117 557.381 242.554 557.381 244.326V249.944C557.381 254.369 560.982 257.97 565.41 257.97H567.016C571.444 257.97 575.046 254.37 575.046 249.944V182.532C575.045 180.759 573.607 179.322 571.834 179.322Z" fill="#A2DFFF"/>
<path d="M571.834 178.135C569.407 178.135 567.434 180.108 567.434 182.532V249.944C567.434 250.174 567.247 250.362 567.016 250.362H565.41C565.181 250.362 564.993 250.175 564.993 249.944V244.326C564.993 241.901 563.019 239.928 560.592 239.928C558.165 239.928 556.192 241.901 556.192 244.326V249.944C556.192 255.024 560.327 259.158 565.41 259.158H567.016C572.098 259.158 576.234 255.025 576.234 249.944V182.532C576.233 180.108 574.259 178.135 571.834 178.135ZM573.856 249.944C573.856 253.715 570.788 256.782 567.015 256.782H565.409C561.637 256.782 558.568 253.715 558.568 249.944V244.326C558.568 243.211 559.476 242.303 560.591 242.303C561.707 242.303 562.615 243.211 562.615 244.326V249.944C562.615 251.484 563.869 252.738 565.409 252.738H567.015C568.556 252.738 569.81 251.485 569.81 249.944V182.532C569.81 181.417 570.718 180.51 571.832 180.51C572.948 180.51 573.856 181.418 573.856 182.532V249.944Z" fill="#1977CC"/>
<path d="M571.834 187.348C550.645 187.348 533.376 197.994 532.533 212.72H532.729C533.42 211.091 535.567 211.014 538.113 211.014C540.658 211.014 542.805 212.203 543.497 213.831H543.969C544.661 212.202 546.808 211.014 549.353 211.014C551.899 211.014 554.046 212.203 554.738 213.831H555.209C555.901 212.202 558.048 211.014 560.594 211.014C563.139 211.014 565.286 212.203 565.978 213.831H566.45C567.142 212.202 569.289 211.014 571.834 211.014C574.38 211.014 576.527 212.203 577.218 213.831H577.69C578.382 212.202 580.529 211.014 583.075 211.014C585.62 211.014 587.767 212.203 588.459 213.831H588.931C589.622 212.202 591.77 211.014 594.315 211.014C596.861 211.014 599.008 212.203 599.699 213.831H600.171C600.863 212.202 603.01 211.014 605.556 211.014C608.101 211.014 610.248 212.203 610.94 213.831H611.136C610.292 199.106 593.024 187.348 571.834 187.348Z" fill="white"/>
<path d="M599.779 194.084C592.221 188.974 582.296 186.16 571.833 186.16C561.272 186.16 551.357 188.77 543.913 193.511C536.235 198.399 531.772 205.197 531.344 212.653C531.325 212.978 531.442 213.299 531.666 213.536C531.891 213.774 532.204 213.908 532.53 213.908H532.725C533.201 213.908 533.632 213.623 533.819 213.184C534.205 212.275 535.915 212.202 538.11 212.202C540.081 212.202 541.885 213.083 542.4 214.296C542.587 214.735 543.017 215.021 543.494 215.021H543.966C544.443 215.021 544.874 214.735 545.061 214.296C545.576 213.084 547.38 212.202 549.352 212.202C551.322 212.202 553.126 213.083 553.643 214.296C553.829 214.735 554.259 215.021 554.737 215.021H555.209C555.686 215.021 556.117 214.735 556.304 214.296C556.819 213.084 558.623 212.202 560.594 212.202C562.566 212.202 564.369 213.083 564.885 214.296C565.072 214.735 565.502 215.021 565.98 215.021H566.452C566.928 215.021 567.36 214.735 567.546 214.296C568.061 213.084 569.866 212.202 571.836 212.202C573.807 212.202 575.611 213.083 576.127 214.296C576.314 214.735 576.744 215.021 577.221 215.021H577.693C578.17 215.021 578.601 214.735 578.788 214.296C579.303 213.084 581.107 212.202 583.078 212.202C585.048 212.202 586.852 213.083 587.369 214.296C587.555 214.735 587.985 215.021 588.463 215.021H588.935C589.412 215.021 589.843 214.735 590.03 214.296C590.545 213.084 592.349 212.202 594.32 212.202C596.291 212.202 598.095 213.083 598.61 214.296C598.797 214.735 599.227 215.021 599.705 215.021H600.177C600.653 215.021 601.084 214.735 601.271 214.296C601.786 213.084 603.59 212.202 605.562 212.202C607.534 212.202 609.337 213.083 609.853 214.296C610.04 214.735 610.47 215.021 610.947 215.021H611.142C611.469 215.021 611.782 214.886 612.006 214.648C612.23 214.411 612.346 214.091 612.328 213.765C611.891 206.249 607.438 199.26 599.779 194.084ZM605.555 209.825C603.254 209.825 601.175 210.677 599.934 212.043C598.695 210.677 596.616 209.825 594.314 209.825C592.011 209.825 589.933 210.677 588.693 212.043C587.452 210.677 585.374 209.825 583.072 209.825C580.771 209.825 578.692 210.677 577.451 212.043C576.212 210.677 574.133 209.825 571.83 209.825C569.529 209.825 567.45 210.677 566.21 212.043C564.969 210.677 562.891 209.825 560.589 209.825C558.287 209.825 556.209 210.677 554.968 212.043C553.727 210.677 551.649 209.825 549.347 209.825C547.046 209.825 544.967 210.677 543.726 212.043C542.486 210.677 540.408 209.825 538.106 209.825C536.79 209.825 535.301 209.825 534.048 210.212C535.205 204.547 539.082 199.399 545.185 195.513C552.253 191.014 561.714 188.535 571.827 188.535C581.82 188.535 591.272 191.204 598.442 196.05C604.37 200.059 608.204 205.195 609.491 210.761C608.377 210.166 607.011 209.825 605.555 209.825Z" fill="#1977CC"/>
<path d="M571.834 187.348C580.915 187.348 588.316 199.106 588.678 213.831H588.932C589.623 212.202 591.771 211.014 594.316 211.014C596.862 211.014 599.009 212.203 599.7 213.831H599.908C599.304 199.106 586.969 187.348 571.834 187.348Z" fill="#A2DFFF"/>
<path d="M592.137 194.205C586.656 189.017 579.445 186.16 571.834 186.16C571.178 186.16 570.646 186.692 570.646 187.348C570.646 188.004 571.178 188.536 571.834 188.536C575.796 188.536 579.592 191.081 582.522 195.704C585.556 200.488 587.32 206.937 587.49 213.861C587.506 214.506 588.033 215.019 588.679 215.019H588.932C589.409 215.019 589.84 214.734 590.027 214.295C590.611 212.921 592.626 212.201 594.317 212.201C596.008 212.201 598.024 212.921 598.608 214.295C598.795 214.734 599.225 215.019 599.703 215.019H599.91C600.234 215.019 600.543 214.887 600.768 214.654C600.992 214.421 601.111 214.106 601.098 213.783C600.789 206.335 597.608 199.383 592.137 194.205ZM594.315 209.825C592.566 209.825 590.947 210.316 589.726 211.152C588.988 202.12 585.664 194.474 580.988 190.101C584.503 191.347 587.742 193.317 590.503 195.93C594.771 199.969 597.519 205.183 598.418 210.85C597.268 210.2 595.84 209.825 594.315 209.825Z" fill="#1977CC"/>
<path d="M543.761 213.831H543.968C544.66 212.202 546.807 211.014 549.352 211.014C551.898 211.014 554.045 212.203 554.737 213.831H554.99C555.351 199.106 562.752 187.348 571.833 187.348C556.698 187.348 544.364 199.106 543.761 213.831Z" fill="#A2DFFF"/>
<path d="M571.834 186.16C564.224 186.16 557.013 189.017 551.531 194.205C546.06 199.383 542.879 206.336 542.575 213.783C542.561 214.106 542.681 214.421 542.905 214.654C543.129 214.887 543.439 215.019 543.763 215.019H543.97C544.447 215.019 544.878 214.734 545.065 214.295C545.649 212.921 547.665 212.201 549.356 212.201C551.045 212.201 553.062 212.921 553.646 214.295C553.833 214.734 554.263 215.019 554.741 215.019H554.994C555.64 215.019 556.167 214.505 556.183 213.861C556.353 206.937 558.117 200.488 561.151 195.704C564.081 191.081 567.876 188.536 571.839 188.536C572.495 188.536 573.027 188.004 573.027 187.348C573.027 186.692 572.49 186.16 571.834 186.16ZM553.942 211.152C552.721 210.317 551.101 209.826 549.352 209.826C547.826 209.826 546.399 210.2 545.249 210.85C546.148 205.183 548.897 199.97 553.164 195.93C555.925 193.317 559.164 191.347 562.68 190.101C558.003 194.474 554.68 202.12 553.942 211.152Z" fill="#1977CC"/>
<path d="M571.834 187.348C568.807 187.348 566.34 199.106 566.22 213.831H566.45C567.142 212.202 569.289 211.014 571.834 211.014C574.38 211.014 576.527 212.203 577.219 213.831H577.448C577.328 199.106 574.861 187.348 571.834 187.348Z" fill="#A2DFFF"/>
<path d="M571.834 186.16C569.661 186.16 568.006 188.993 566.774 194.823C565.709 199.862 565.09 206.609 565.031 213.822C565.029 214.139 565.152 214.443 565.375 214.669C565.598 214.894 565.902 215.02 566.219 215.02H566.449C566.926 215.02 567.357 214.735 567.544 214.296C568.128 212.922 570.143 212.202 571.833 212.202C573.523 212.202 575.54 212.922 576.124 214.296C576.311 214.735 576.741 215.02 577.219 215.02H577.448C577.765 215.02 578.069 214.894 578.293 214.669C578.517 214.443 578.64 214.139 578.637 213.822C578.578 206.609 577.959 199.862 576.894 194.823C575.662 188.993 574.008 186.16 571.834 186.16ZM571.834 209.825C570.188 209.825 568.654 210.261 567.461 211.01C567.633 205.148 568.186 199.735 569.052 195.539C570.22 189.878 571.54 188.576 571.834 188.535C572.129 188.576 573.448 189.877 574.617 195.538C575.482 199.734 576.036 205.147 576.208 211.009C575.014 210.262 573.481 209.825 571.834 209.825Z" fill="#1977CC"/>
<path d="M166.252 228.1L158.585 224.191C157.778 223.78 156.766 224.053 156.321 224.8C155.878 225.548 156.171 226.487 156.978 226.899L164.645 230.808C164.899 230.938 165.175 231 165.446 231C166.034 231 166.604 230.71 166.909 230.199C167.352 229.451 167.057 228.511 166.252 228.1Z" fill="white"/>
<path d="M178.408 235.1L172.136 231.191C171.476 230.78 170.647 231.053 170.284 231.8C169.921 232.548 170.161 233.487 170.821 233.899L177.093 237.808C177.301 237.938 177.527 238 177.749 238C178.229 238 178.696 237.71 178.945 237.199C179.309 236.451 179.068 235.511 178.408 235.1Z" fill="white"/>
<path d="M152.408 220.929L146.136 218.137C145.476 217.843 144.647 218.038 144.284 218.572C143.921 219.106 144.161 219.776 144.821 220.071L151.093 222.863C151.301 222.956 151.527 223 151.749 223C152.229 223 152.696 222.793 152.945 222.428C153.309 221.894 153.068 221.222 152.408 220.929Z" fill="white"/>
<path d="M191.408 242.515L185.136 239.164C184.476 238.812 183.647 239.046 183.284 239.686C182.921 240.327 183.161 241.132 183.821 241.485L190.093 244.836C190.301 244.947 190.527 245 190.749 245C191.229 245 191.696 244.752 191.945 244.314C192.309 243.672 192.068 242.868 191.408 242.515Z" fill="white"/>
<path d="M215.486 255.929L209.911 253.137C209.324 252.843 208.588 253.037 208.265 253.572C207.943 254.106 208.156 254.777 208.743 255.071L214.318 257.863C214.503 257.956 214.704 258 214.901 258C215.328 258 215.743 257.793 215.964 257.428C216.287 256.894 216.073 256.222 215.486 255.929Z" fill="white"/>
<path d="M202.487 249.1L196.911 245.191C196.325 244.781 195.588 245.052 195.265 245.8C194.943 246.549 195.156 247.487 195.743 247.899L201.318 251.808C201.503 251.938 201.704 252 201.901 252C202.328 252 202.744 251.71 202.965 251.199C203.287 250.451 203.073 249.512 202.487 249.1Z" fill="white"/>
<path d="M239.926 150.789C239.601 150.123 238.736 149.819 237.994 150.111C237.252 150.403 236.913 151.18 237.238 151.846C238.164 153.742 239.194 155.881 240.299 158.2C240.537 158.7 241.079 159 241.648 159C241.84 159 242.036 158.966 242.224 158.894C242.969 158.608 243.314 157.834 242.997 157.166C241.889 154.839 240.856 152.693 239.926 150.789Z" fill="white"/>
<path d="M245.973 163.803C245.655 163.135 244.782 162.822 244.025 163.103C243.268 163.384 242.913 164.154 243.232 164.822C244.185 166.82 245.202 168.964 246.255 171.192C246.493 171.696 247.045 172 247.628 172C247.819 172 248.012 171.967 248.199 171.898C248.958 171.619 249.316 170.852 249 170.182C247.948 167.95 246.929 165.804 245.973 163.803Z" fill="white"/>
<path d="M275.482 232.798C275.136 231.911 274.63 230.61 273.986 228.96C273.681 228.178 272.815 227.797 272.051 228.109C271.288 228.422 270.916 229.31 271.221 230.093C272.494 233.357 273.23 235.251 273.246 235.289L274.63 234.727L273.813 233.452L275.45 236C275.553 235.93 276.449 235.282 275.98 234.074L275.482 232.798Z" fill="white"/>
<path d="M254.021 183.192C253.164 181.001 252.32 178.853 251.516 176.81C251.253 176.142 250.523 175.823 249.886 176.1C249.25 176.376 248.946 177.143 249.21 177.811C250.014 179.852 250.856 181.998 251.713 184.188C251.911 184.694 252.376 185 252.867 185C253.025 185 253.185 184.968 253.342 184.902C253.978 184.627 254.283 183.861 254.021 183.192Z" fill="white"/>
<path d="M233.038 136.441C232.599 135.855 231.885 135.852 231.445 136.437C231.006 137.023 231.004 137.969 231.443 138.554C231.562 138.728 232.095 139.713 233.97 145.129C234.16 145.678 234.567 146 234.991 146C235.149 146 235.31 145.955 235.462 145.861C236.026 145.514 236.271 144.623 236.011 143.87C234.047 138.199 233.406 136.932 233.038 136.441Z" fill="white"/>
<path d="M271.005 222.207C270.105 220.27 269.107 218.124 268.032 215.819C267.719 215.15 266.839 214.825 266.063 215.095C265.288 215.365 264.912 216.126 265.225 216.795C266.299 219.1 267.297 221.243 268.197 223.18C268.434 223.691 269.002 224 269.602 224C269.79 224 269.98 223.97 270.164 223.905C270.941 223.636 271.317 222.876 271.005 222.207Z" fill="white"/>
<path d="M265.041 209.201C264.402 207.145 263.738 205.009 263.053 202.816C262.845 202.147 262.258 201.825 261.743 202.096C261.228 202.367 260.98 203.13 261.189 203.799C261.872 205.991 262.537 208.125 263.176 210.182C263.334 210.691 263.711 211 264.109 211C264.235 211 264.362 210.969 264.485 210.904C265 210.633 265.249 209.871 265.041 209.201Z" fill="white"/>
<path d="M260.985 196.398C259.837 194.528 258.67 192.63 257.495 190.724C257.128 190.129 256.104 189.843 255.207 190.087C254.31 190.33 253.879 191.009 254.246 191.604C255.42 193.51 256.586 195.405 257.734 197.275C258.012 197.727 258.667 198 259.36 198C259.581 198 259.804 197.972 260.021 197.914C260.919 197.672 261.35 196.994 260.985 196.398Z" fill="white"/>
<path d="M485.094 245.191L478.821 249.1C478.161 249.511 477.921 250.451 478.284 251.199C478.533 251.71 478.998 252 479.48 252C479.703 252 479.928 251.938 480.136 251.808L486.408 247.899C487.069 247.488 487.308 246.548 486.946 245.8C486.583 245.053 485.754 244.78 485.094 245.191Z" fill="white"/>
<path d="M473.094 253.137L466.821 255.929C466.161 256.222 465.921 256.894 466.284 257.428C466.531 257.793 466.998 258 467.48 258C467.703 258 467.928 257.956 468.136 257.863L474.408 255.071C475.069 254.777 475.308 254.106 474.946 253.572C474.582 253.038 473.754 252.843 473.094 253.137Z" fill="white"/>
<path d="M498.094 239.164L491.821 242.515C491.161 242.867 490.921 243.672 491.284 244.314C491.533 244.752 491.998 245 492.48 245C492.703 245 492.928 244.947 493.136 244.836L499.408 241.485C500.069 241.133 500.308 240.327 499.946 239.686C499.582 239.046 498.753 238.812 498.094 239.164Z" fill="white"/>
<path d="M535.869 218.137L528.9 220.929C528.166 221.222 527.9 221.894 528.302 222.428C528.579 222.793 529.097 223 529.632 223C529.879 223 530.129 222.956 530.36 222.863L537.329 220.071C538.063 219.778 538.33 219.106 537.926 218.572C537.522 218.038 536.601 217.843 535.869 218.137Z" fill="white"/>
<path d="M522.869 224.192L515.9 228.101C515.166 228.511 514.9 229.451 515.302 230.199C515.579 230.71 516.097 231 516.632 231C516.879 231 517.129 230.938 517.36 230.808L524.329 226.899C525.063 226.489 525.33 225.549 524.926 224.801C524.524 224.053 523.602 223.78 522.869 224.192Z" fill="white"/>
<path d="M510.869 231.192L503.9 235.101C503.166 235.511 502.9 236.451 503.302 237.199C503.579 237.71 504.097 238 504.632 238C504.879 238 505.129 237.938 505.36 237.808L512.33 233.899C513.063 233.489 513.33 232.549 512.927 231.801C512.523 231.053 511.603 230.78 510.869 231.192Z" fill="white"/>
<path d="M416.166 215.095C415.391 214.826 414.509 215.149 414.198 215.819C413.122 218.125 412.125 220.269 411.224 222.206C410.913 222.875 411.29 223.636 412.065 223.905C412.249 223.97 412.441 224 412.628 224C413.228 224 413.795 223.69 414.033 223.18C414.933 221.243 415.931 219.1 417.005 216.795C417.317 216.126 416.942 215.365 416.166 215.095Z" fill="white"/>
<path d="M421.33 202.096C420.686 201.825 419.952 202.147 419.691 202.817C418.836 205.009 418.006 207.145 417.206 209.202C416.947 209.872 417.258 210.634 417.901 210.904C418.055 210.968 418.215 211 418.372 211C418.87 211 419.34 210.69 419.538 210.182C420.337 208.126 421.167 205.99 422.022 203.798C422.283 203.129 421.973 202.368 421.33 202.096Z" fill="white"/>
<path d="M426.335 190.087C425.694 189.844 424.962 190.129 424.7 190.724C423.86 192.63 423.028 194.527 422.208 196.397C421.947 196.993 422.255 197.671 422.896 197.914C423.051 197.972 423.21 198 423.368 198C423.863 198 424.331 197.727 424.53 197.275C425.35 195.406 426.182 193.51 427.021 191.605C427.283 191.009 426.976 190.329 426.335 190.087Z" fill="white"/>
<path d="M410.35 228.106C409.727 227.803 409.018 228.171 408.769 228.931C407.784 231.926 407.193 233.733 407.122 233.951L407.115 233.972L408.244 234.521L408.015 235.974C408.087 235.991 408.162 236 408.238 236C408.672 236 409.159 235.723 409.381 235.047C409.453 234.829 410.044 233.023 411.028 230.03C411.277 229.27 410.974 228.409 410.35 228.106Z" fill="white"/>
<path d="M448.427 136.439C447.911 136.93 447.013 138.197 444.26 143.87C443.896 144.623 444.239 145.514 445.03 145.861C445.244 145.955 445.468 146 445.689 146C446.285 146 446.854 145.678 447.119 145.129C449.737 139.733 450.489 138.735 450.658 138.555C451.268 137.968 451.267 137.022 450.653 136.439C450.04 135.854 449.042 135.854 448.427 136.439Z" fill="white"/>
<path d="M432.188 176.1C431.423 175.823 430.549 176.141 430.233 176.81C429.267 178.853 428.256 181 427.228 183.192C426.913 183.861 427.279 184.627 428.044 184.902C428.23 184.968 428.423 185 428.613 185C429.202 185 429.761 184.693 429.998 184.188C431.026 181.998 432.036 179.853 433.001 177.811C433.317 177.143 432.953 176.376 432.188 176.1Z" fill="white"/>
<path d="M443.236 150.111C442.494 149.819 441.628 150.123 441.303 150.789C440.373 152.695 439.34 154.84 438.233 157.166C437.915 157.834 438.26 158.608 439.005 158.894C439.194 158.966 439.389 159 439.581 159C440.151 159 440.692 158.7 440.931 158.2C442.034 155.882 443.065 153.744 443.991 151.846C444.316 151.18 443.978 150.403 443.236 150.111Z" fill="white"/>
<path d="M437.356 163.103C436.726 162.822 436 163.135 435.733 163.803C434.939 165.8 434.09 167.946 433.21 170.182C432.947 170.852 433.246 171.619 433.878 171.898C434.033 171.967 434.195 172 434.354 172C434.839 172 435.299 171.696 435.498 171.192C436.376 168.96 437.223 166.816 438.016 164.822C438.284 164.154 437.987 163.384 437.356 163.103Z" fill="white"/>
<path d="M337.615 189C336.786 189 336.115 189.556 336.115 190.241V196.759C336.115 197.444 336.786 198 337.615 198C338.443 198 339.115 197.444 339.115 196.759V190.241C339.115 189.556 338.443 189 337.615 189Z" fill="white"/>
<path d="M337.615 203C336.786 203 336.115 203.556 336.115 204.241V210.759C336.115 211.444 336.786 212 337.615 212C338.443 212 339.115 211.444 339.115 210.759V204.241C339.115 203.556 338.443 203 337.615 203Z" fill="white"/>
<path d="M337.615 217C336.786 217 336.115 217.614 336.115 218.371V223.629C336.115 224.386 336.786 225 337.615 225C338.443 225 339.115 224.386 339.115 223.629V218.371C339.115 217.614 338.443 217 337.615 217Z" fill="white"/>
<path d="M337.615 175C336.786 175 336.115 175.617 336.115 176.379V183.621C336.115 184.383 336.786 185 337.615 185C338.443 185 339.115 184.383 339.115 183.621V176.379C339.115 175.617 338.443 175 337.615 175Z" fill="white"/>
<path d="M337.615 117C336.786 117 336.115 117.617 336.115 118.379V125.621C336.115 126.383 336.786 127 337.615 127C338.443 127 339.115 126.383 339.115 125.621V118.379C339.115 117.617 338.443 117 337.615 117Z" fill="white"/>
<path d="M337.615 161C336.786 161 336.115 161.556 336.115 162.241V168.759C336.115 169.444 336.786 170 337.615 170C338.443 170 339.115 169.444 339.115 168.759V162.241C339.115 161.556 338.443 161 337.615 161Z" fill="white"/>
<path d="M337.615 132C336.786 132 336.115 132.617 336.115 133.379V140.621C336.115 141.383 336.786 142 337.615 142C338.443 142 339.115 141.383 339.115 140.621V133.379C339.115 132.617 338.443 132 337.615 132Z" fill="white"/>
<path d="M337.615 146C336.786 146 336.115 146.617 336.115 147.379V154.621C336.115 155.383 336.786 156 337.615 156C338.443 156 339.115 155.383 339.115 154.621V147.379C339.115 146.617 338.443 146 337.615 146Z" fill="white"/>
</svg>
