<svg width="628" height="430" viewBox="0 0 628 430" fill="none" xmlns="http://www.w3.org/2000/svg">
<path d="M203.559 36.0781C201.654 36.8489 199.733 37.6629 197.848 38.4963C197.253 38.7601 196.961 39.5136 197.197 40.1795C197.377 40.6887 197.813 41 198.275 41C198.418 41 198.562 40.9708 198.702 40.9092C200.566 40.0844 202.467 39.2801 204.349 38.518C204.951 38.2736 205.264 37.5299 205.045 36.8564C204.827 36.1819 204.161 35.8338 203.559 36.0781Z" fill="#A2DFFF"/>
<path d="M191.262 41.0987C189.132 41.932 186.985 42.8066 184.882 43.6973C184.218 43.9791 183.93 44.6967 184.239 45.3015C184.463 45.7414 184.942 46 185.443 46C185.631 46 185.821 45.9638 186.003 45.8873C188.082 45.0067 190.205 44.1421 192.312 43.3179C192.985 43.0542 193.296 42.3436 193.006 41.7317C192.715 41.1178 191.935 40.835 191.262 41.0987Z" fill="#A2DFFF"/>
<path d="M141.78 68.3059C139.729 69.9158 137.674 71.5808 135.669 73.2536C135.036 73.7808 134.93 74.7493 135.43 75.4163C135.719 75.7999 136.145 76 136.576 76C136.894 76 137.215 75.891 137.482 75.6678C139.465 74.0143 141.499 72.3672 143.527 70.7752C144.173 70.2673 144.307 69.3026 143.825 68.6214C143.343 67.9377 142.427 67.7966 141.78 68.3059Z" fill="#A2DFFF"/>
<path d="M153.668 61.2003C151.363 62.3667 149.048 63.5766 146.787 64.7945C146.073 65.1786 145.901 65.9357 146.401 66.4835C146.708 66.8201 147.197 67 147.694 67C148.007 67 148.323 66.9282 148.599 66.7797C150.835 65.5748 153.125 64.3791 155.404 63.2248C156.133 62.8569 156.334 62.1039 155.854 61.5449C155.375 60.987 154.397 60.8313 153.668 61.2003Z" fill="#A2DFFF"/>
<path d="M178.154 47.1203C176.039 48.0067 173.91 48.9326 171.826 49.8718C171.168 50.1679 170.923 50.8543 171.277 51.405C171.522 51.7841 171.987 52 172.469 52C172.686 52 172.906 51.9566 173.11 51.8642C175.171 50.9354 177.276 50.0208 179.368 49.1439C180.036 48.8638 180.306 48.1839 179.97 47.6248C179.636 47.0656 178.823 46.8403 178.154 47.1203Z" fill="#A2DFFF"/>
<path d="M165.039 53.2007C162.942 54.5061 160.834 55.8637 158.772 57.2363C158.122 57.6693 157.92 58.5889 158.321 59.2907C158.583 59.7486 159.037 60 159.5 60C159.749 60 160 59.9278 160.226 59.7773C162.265 58.4196 164.35 57.077 166.423 55.7866C167.085 55.3747 167.311 54.4613 166.929 53.747C166.548 53.0328 165.701 52.7876 165.039 53.2007Z" fill="#A2DFFF"/>
<path d="M259.573 23.007C257.156 23.2268 254.712 23.4786 252.308 23.7557C251.55 23.8431 251.021 24.4133 251.129 25.0305C251.227 25.5932 251.821 26 252.501 26C252.566 26 252.632 25.9962 252.698 25.9887C255.075 25.7144 257.493 25.4655 259.881 25.2485C260.643 25.1789 261.192 24.6209 261.106 24.0028C261.02 23.3837 260.334 22.9384 259.573 23.007Z" fill="#A2DFFF"/>
<path d="M218.465 31.0696C216.309 31.908 214.133 32.7997 211.998 33.7194C211.324 34.0096 210.958 34.9601 211.179 35.8434C211.357 36.5514 211.859 37 212.399 37C212.532 37 212.668 36.9734 212.8 36.9159C214.912 36.006 217.064 35.1242 219.196 34.2956C219.875 34.032 220.263 33.0955 220.061 32.2038C219.859 31.3136 219.144 30.8061 218.465 31.0696Z" fill="#A2DFFF"/>
<path d="M274.514 22.0018C271.855 22.1207 269.162 22.2735 266.51 22.4571C265.674 22.5155 265.05 23.13 265.12 23.8315C265.186 24.4969 265.851 25 266.634 25C266.676 25 266.717 24.9989 266.76 24.9958C269.383 24.8143 272.046 24.6625 274.676 24.5458C275.515 24.5086 276.158 23.909 276.112 23.2064C276.068 22.5038 275.354 21.9647 274.514 22.0018Z" fill="#A2DFFF"/>
<path d="M232.384 27.0406C229.979 27.65 227.55 28.3053 225.164 28.9912C224.411 29.2079 223.963 30.0443 224.162 30.8615C224.329 31.5474 224.9 32 225.524 32C225.643 32 225.764 31.9834 225.885 31.949C228.244 31.272 230.646 30.6218 233.025 30.02C233.783 29.8275 234.255 29.0052 234.077 28.1829C233.899 27.3593 233.141 26.848 232.384 27.0406Z" fill="#A2DFFF"/>
<path d="M245.645 25.0196C243.475 25.4198 241.28 25.8605 239.123 26.3292C238.442 26.4764 238.002 27.1891 238.14 27.9186C238.261 28.5582 238.785 29 239.371 29C239.454 29 239.538 28.991 239.621 28.973C241.754 28.5099 243.924 28.0738 246.071 27.6781C246.755 27.5522 247.215 26.8541 247.096 26.1201C246.98 25.3861 246.329 24.8937 245.645 25.0196Z" fill="#A2DFFF"/>
<path d="M84.4574 130.254C83.7861 129.784 82.8847 129.985 82.4448 130.702C81.0478 132.981 79.6628 135.313 78.33 137.634C77.9095 138.366 78.124 139.323 78.8086 139.771C79.0461 139.926 79.309 140 79.5683 140C80.0566 140 80.534 139.737 80.8091 139.259C82.1274 136.964 83.4966 134.658 84.8779 132.403C85.3165 131.687 85.1287 130.724 84.4574 130.254Z" fill="#A2DFFF"/>
<path d="M130.186 77.3457C128.614 79.0044 127.039 80.7158 125.507 82.4297C125.023 82.9708 124.981 83.902 125.412 84.508C125.644 84.8344 125.966 85 126.288 85C126.566 85 126.845 84.8773 127.068 84.627C128.584 82.9315 130.141 81.2397 131.697 79.5994C132.192 79.0768 132.257 78.148 131.839 77.5248C131.422 76.9028 130.682 76.8218 130.186 77.3457Z" fill="#A2DFFF"/>
<path d="M64.3531 169.105C63.7166 168.822 62.9811 169.131 62.7098 169.797C61.8469 171.913 61.0028 174.07 60.2015 176.211C59.949 176.885 60.2662 177.645 60.91 177.909C61.0602 177.971 61.2146 178 61.367 178C61.8667 178 62.3394 177.684 62.5335 177.168C63.3264 175.052 64.1611 172.917 65.0146 170.825C65.2848 170.159 64.9896 169.389 64.3531 169.105Z" fill="#A2DFFF"/>
<path d="M70.3372 156.141C69.6438 155.811 68.8007 156.08 68.4557 156.74C67.3576 158.836 66.2771 160.978 65.2446 163.104C64.9195 163.774 65.2259 164.567 65.9298 164.876C66.1204 164.96 66.3204 165 66.518 165C67.0477 165 67.5553 164.713 67.7926 164.225C68.8135 162.122 69.8823 160.005 70.9675 157.932C71.3125 157.271 71.0307 156.47 70.3372 156.141Z" fill="#A2DFFF"/>
<path d="M59.0405 182.076C58.1977 181.835 57.2699 182.185 56.9687 182.855C56.0084 184.987 55.0752 187.159 54.1946 189.312C53.9178 189.989 54.3837 190.716 55.2346 190.937C55.4007 190.98 55.5695 191 55.7356 191C56.419 191 57.0538 190.654 57.2766 190.109C58.1464 187.981 59.0688 185.833 60.0196 183.725C60.3208 183.055 59.8832 182.317 59.0405 182.076Z" fill="#A2DFFF"/>
<path d="M54.2699 195.063C53.6473 194.822 52.9944 195.294 52.8123 196.119C52.2328 198.741 51.6738 201.41 51.153 204.053C50.9895 204.883 51.3654 205.733 51.9929 205.949C52.0928 205.984 52.1916 206 52.2905 206C52.8123 206 53.289 205.536 53.4261 204.838C53.941 202.225 54.4931 199.586 55.0668 196.993C55.2499 196.167 54.8925 195.304 54.2699 195.063Z" fill="#A2DFFF"/>
<path d="M77.4518 143.181C76.82 142.806 76.0147 143.032 75.6521 143.685C74.5006 145.76 73.3634 147.882 72.2713 149.992C71.9274 150.656 72.1691 151.483 72.8108 151.839C73.0085 151.949 73.2217 152 73.4326 152C73.9029 152 74.3589 151.738 74.5962 151.279C75.6762 149.193 76.8002 147.094 77.9396 145.042C78.3022 144.39 78.0836 143.557 77.4518 143.181Z" fill="#A2DFFF"/>
<path d="M287.741 21.0024C287.37 21.0012 286.997 21 286.625 21C284.577 21 282.503 21.0268 280.46 21.0791C279.699 21.0986 279.096 21.7679 279.115 22.5748C279.134 23.3696 279.747 24 280.493 24C280.505 24 280.516 24 280.528 24C282.548 23.9477 284.599 23.9209 286.626 23.9209C286.994 23.9209 287.362 23.9221 287.73 23.9233C287.732 23.9233 287.734 23.9233 287.735 23.9233C288.494 23.9233 289.111 23.2734 289.115 22.469C289.117 21.6633 288.502 21.0061 287.741 21.0024Z" fill="#A2DFFF"/>
<path d="M108.932 97.4279C107.415 99.1643 105.902 100.95 104.433 102.734C103.97 103.296 104.018 104.157 104.54 104.656C104.781 104.887 105.08 105 105.377 105C105.726 105 106.073 104.846 106.323 104.543C107.775 102.778 109.272 101.013 110.772 99.2948C111.249 98.7467 111.225 97.8853 110.718 97.37C110.21 96.8548 109.41 96.8809 108.932 97.4279Z" fill="#A2DFFF"/>
<path d="M120.064 87.386C118.518 89.0855 116.972 90.8355 115.47 92.588C114.996 93.1404 114.997 94.0354 115.472 94.5866C115.708 94.8622 116.019 95 116.33 95C116.642 95 116.953 94.8622 117.19 94.5855C118.676 92.853 120.205 91.1217 121.734 89.4411C122.222 88.9053 122.243 88.0102 121.783 87.4437C121.321 86.8749 120.553 86.8501 120.064 87.386Z" fill="#A2DFFF"/>
<path d="M92.5571 119.315C91.9448 118.789 91.0794 118.937 90.6248 119.645C89.1828 121.892 87.7488 124.193 86.3632 126.49C85.927 127.213 86.0801 128.208 86.705 128.713C86.9455 128.907 87.2217 129 87.4945 129C87.9307 129 88.3599 128.762 88.6281 128.318C89.9976 126.048 91.4154 123.77 92.8425 121.548C93.2971 120.841 93.1693 119.84 92.5571 119.315Z" fill="#A2DFFF"/>
<path d="M101.642 108.345C101.085 107.821 100.253 107.903 99.7864 108.53C98.3037 110.522 96.8276 112.565 95.3976 114.601C94.9473 115.243 95.0451 116.175 95.6162 116.681C95.8578 116.896 96.1456 117 96.4311 117C96.821 117 97.2065 116.806 97.4668 116.436C98.8803 114.421 100.34 112.402 101.807 110.431C102.275 109.804 102.2 108.871 101.642 108.345Z" fill="#A2DFFF"/>
<path d="M472.07 105.458C471.666 104.903 470.962 104.844 470.498 105.327C470.034 105.809 469.984 106.65 470.388 107.205C471.654 108.945 472.916 110.73 474.138 112.513C474.358 112.835 474.679 113 475.001 113C475.25 113 475.5 112.901 475.707 112.698C476.183 112.232 476.253 111.393 475.862 110.824C474.626 109.022 473.349 107.216 472.07 105.458Z" fill="#A2DFFF"/>
<path d="M480.901 116.502C480.376 115.938 479.399 115.833 478.72 116.269C478.04 116.705 477.914 117.516 478.439 118.079C480.084 119.846 481.719 121.66 483.301 123.468C483.606 123.815 484.08 124 484.561 124C484.879 124 485.197 123.919 485.473 123.754C486.168 123.335 486.322 122.528 485.818 121.951C484.218 120.124 482.564 118.29 480.901 116.502Z" fill="#A2DFFF"/>
<path d="M490.354 128.548C489.972 127.975 489.21 127.828 488.65 128.218C488.091 128.609 487.947 129.39 488.328 129.963C489.524 131.757 490.711 133.593 491.855 135.422C492.089 135.796 492.485 136 492.89 136C493.116 136 493.345 135.936 493.55 135.801C494.12 135.428 494.286 134.651 493.921 134.067C492.764 132.219 491.564 130.362 490.354 128.548Z" fill="#A2DFFF"/>
<path d="M446.652 79.7034C444.889 78.2129 443.079 76.7278 441.275 75.2907C440.706 74.837 439.871 74.924 439.41 75.4843C438.949 76.0446 439.038 76.8671 439.607 77.3208C441.392 78.7427 443.181 80.2114 444.925 81.6856C445.175 81.8966 445.482 82 445.788 82C446.162 82 446.533 81.8455 446.795 81.5452C447.272 80.9969 447.208 80.1734 446.652 79.7034Z" fill="#A2DFFF"/>
<path d="M451.697 84.3259C451.067 83.8605 450.09 83.8981 449.517 84.4094C448.943 84.9207 448.989 85.7127 449.619 86.1781C451.596 87.639 453.575 89.1426 455.499 90.6483C455.799 90.8831 456.185 91 456.57 91C456.974 91 457.378 90.8717 457.682 90.6171C458.274 90.1193 458.257 89.3263 457.643 88.8463C455.696 87.3238 453.696 85.8024 451.697 84.3259Z" fill="#A2DFFF"/>
<path d="M303.691 22.2244C301.039 22.128 298.346 22.0524 295.684 22.0005C294.846 21.9835 294.143 22.3689 294.116 22.8595C294.088 23.3501 294.745 23.7614 295.583 23.7777C298.214 23.8288 300.879 23.9037 303.501 23.9985C303.533 24 303.566 24 303.598 24C304.394 24 305.062 23.6376 305.112 23.1663C305.166 22.6772 304.529 22.2547 303.691 22.2244Z" fill="#A2DFFF"/>
<path d="M520.793 191.346C520.565 190.333 519.796 189.77 519.074 190.089C518.352 190.408 517.951 191.489 518.178 192.502C518.264 192.884 518.349 193.265 518.434 193.647C518.617 194.471 519.158 195 519.743 195C519.878 195 520.015 194.971 520.151 194.913C520.874 194.598 521.277 193.52 521.053 192.505C520.965 192.117 520.879 191.733 520.793 191.346Z" fill="#A2DFFF"/>
<path d="M497.922 140.595C497.493 140.015 496.565 139.827 495.849 140.175C495.134 140.522 494.901 141.275 495.33 141.854C496.675 143.671 498.007 145.529 499.284 147.374C499.561 147.774 500.075 148 500.604 148C500.855 148 501.108 147.95 501.342 147.843C502.07 147.512 502.33 146.765 501.922 146.176C500.629 144.311 499.284 142.433 497.922 140.595Z" fill="#A2DFFF"/>
<path d="M518.056 184.273C517.451 182.127 516.811 179.961 516.154 177.837C515.947 177.167 515.338 176.83 514.794 177.086C514.25 177.341 513.977 178.092 514.184 178.763C514.833 180.864 515.466 183.005 516.064 185.127C516.215 185.664 516.623 186 517.059 186C517.174 186 517.291 185.977 517.405 185.927C517.957 185.692 518.247 184.951 518.056 184.273Z" fill="#A2DFFF"/>
<path d="M504.71 151.723C504.358 151.064 503.526 150.809 502.853 151.154C502.18 151.498 501.92 152.312 502.272 152.972C503.375 155.037 504.461 157.146 505.5 159.241C505.739 159.72 506.228 160 506.739 160C506.941 160 507.146 159.956 507.34 159.864C508.023 159.538 508.308 158.732 507.976 158.063C506.925 155.944 505.826 153.81 504.71 151.723Z" fill="#A2DFFF"/>
<path d="M514.002 171.171C513.015 169.037 511.981 166.886 510.927 164.78C510.594 164.115 509.723 163.817 508.982 164.117C508.242 164.416 507.911 165.2 508.245 165.865C509.287 167.947 510.311 170.074 511.285 172.185C511.52 172.694 512.067 173 512.644 173C512.832 173 513.023 172.967 513.208 172.899C513.958 172.619 514.313 171.845 514.002 171.171Z" fill="#A2DFFF"/>
<path d="M462.254 93.4667C461.773 92.8545 460.983 92.8429 460.49 93.4421C459.998 94.0401 459.988 95.0217 460.471 95.6339C461.978 97.5519 463.486 99.5254 464.952 101.5C465.198 101.832 465.533 102 465.868 102C466.171 102 466.474 101.864 466.713 101.589C467.219 101.009 467.251 100.029 466.785 99.3988C465.303 97.4008 463.778 95.4053 462.254 93.4667Z" fill="#A2DFFF"/>
<path d="M359.113 32.1799C356.733 31.4376 354.309 30.7218 351.908 30.0516C351.154 29.8414 350.373 30.2918 350.166 31.0605C349.959 31.828 350.402 32.6207 351.156 32.8321C353.531 33.4951 355.928 34.2025 358.281 34.9363C358.419 34.9796 358.56 35 358.697 35C359.303 35 359.865 34.6012 360.052 33.9815C360.282 33.2188 359.862 32.4129 359.113 32.1799Z" fill="#A2DFFF"/>
<path d="M345.149 27.884C342.999 27.2307 340.809 26.6091 338.641 26.0349C337.958 25.8531 337.288 26.3997 337.142 27.2531C336.998 28.1065 337.434 28.9455 338.117 29.1272C340.26 29.6948 342.425 30.3099 344.552 30.9552C344.652 30.9855 344.752 31 344.851 31C345.421 31 345.938 30.5153 346.078 29.7923C346.245 28.9442 345.827 28.0894 345.149 27.884Z" fill="#A2DFFF"/>
<path d="M372.272 36.4562C370.144 35.9675 367.975 35.492 365.824 35.0425C365.147 34.9011 364.413 35.1242 364.184 35.5412C363.954 35.9582 364.316 36.4104 364.993 36.5518C367.119 36.996 369.264 37.4668 371.369 37.9495C371.518 37.9841 371.671 38 371.821 38C372.346 38 372.839 37.8021 373.033 37.4814C373.282 37.0691 372.942 36.6102 372.272 36.4562Z" fill="#A2DFFF"/>
<path d="M317.017 23.4403C314.851 23.2753 312.65 23.1285 310.475 23.0033C309.789 22.9641 309.182 23.2812 309.12 23.7117C309.058 24.1422 309.562 24.5232 310.248 24.5623C312.4 24.6862 314.576 24.8311 316.718 24.9941C316.769 24.998 316.82 25 316.87 25C317.491 25 318.029 24.7084 318.106 24.3112C318.188 23.8826 317.701 23.4925 317.017 23.4403Z" fill="#A2DFFF"/>
<path d="M331.085 24.9194C328.924 24.5915 326.728 24.2864 324.556 24.0119C323.872 23.9254 323.232 24.3196 323.129 24.8923C323.026 25.4649 323.497 25.9999 324.181 26.0864C326.328 26.3574 328.501 26.6599 330.638 26.9834C330.713 26.9948 330.788 27 330.862 27C331.457 27 331.984 26.6451 332.094 26.138C332.218 25.5689 331.767 25.0225 331.085 24.9194Z" fill="#A2DFFF"/>
<path d="M434.672 70.5454C433.104 69.0931 431.497 67.65 429.894 66.2558C429.389 65.8161 428.687 65.9573 428.325 66.5713C427.963 67.1852 428.08 68.0384 428.585 68.478C430.169 69.8574 431.758 71.2846 433.309 72.7209C433.512 72.9089 433.752 73 433.989 73C434.329 73 434.663 72.8143 434.884 72.4612C435.261 71.8598 435.166 71.0021 434.672 70.5454Z" fill="#A2DFFF"/>
<path d="M411.516 54.5766C409.677 53.4154 407.795 52.2661 405.922 51.1624C405.333 50.8151 404.592 51.043 404.267 51.6735C403.942 52.303 404.155 53.0952 404.745 53.4425C406.596 54.5343 408.457 55.6706 410.276 56.8188C410.471 56.9414 410.684 57 410.895 57C411.311 57 411.718 56.771 411.945 56.3597C412.287 55.7411 412.095 54.9423 411.516 54.5766Z" fill="#A2DFFF"/>
<path d="M423.562 61.7462C421.744 60.5397 419.883 59.3435 418.031 58.1904C417.447 57.827 416.677 57.9995 416.308 58.5745C415.939 59.1495 416.114 59.9113 416.697 60.2738C418.528 61.4135 420.368 62.5964 422.167 63.7895C422.381 63.9312 422.624 64 422.864 64C423.266 64 423.66 63.809 423.902 63.4558C424.287 62.8921 424.135 62.1261 423.562 61.7462Z" fill="#A2DFFF"/>
<path d="M386.332 41.1658C384.219 40.1162 382.064 39.0876 379.927 38.1095C379.253 37.8012 378.486 38.1663 378.212 38.9223C377.938 39.6796 378.263 40.5429 378.934 40.8513C381.048 41.8182 383.179 42.8357 385.267 43.873C385.44 43.9593 385.62 44 385.798 44C386.303 44 386.784 43.6707 387.001 43.1182C387.296 42.3707 386.996 41.4963 386.332 41.1658Z" fill="#A2DFFF"/>
<path d="M399.306 47.8211C396.98 46.8955 394.606 45.9843 392.248 45.1126C391.505 44.8386 390.616 45.0818 390.261 45.6566C389.906 46.2313 390.221 46.9195 390.964 47.1944C393.296 48.0556 395.644 48.9572 397.944 49.8722C398.162 49.9587 398.394 50 398.624 50C399.164 50 399.686 49.7712 399.95 49.3733C400.325 48.8082 400.037 48.1123 399.306 47.8211Z" fill="#A2DFFF"/>
<path d="M407.27 233.523C405.235 227.55 399.649 223.505 393.335 223.457C384.302 223.386 370.133 222.504 355.491 218.548C350.957 217.323 340.963 209.825 334.617 204.806C330.853 201.829 326.198 200.208 321.399 200.195C306.302 200.156 273.818 200.075 273.492 200.118C273.475 200.121 273.459 200.123 273.442 200.125C266.765 200.121 260.454 200.116 255.624 200.114C249.651 200.11 243.757 201.471 238.391 204.093C224.856 210.705 199.149 223.26 198.368 223.618C198.04 223.765 197.869 223.842 197.869 223.842C167.434 228.692 146.706 238.541 134.292 245.277C127.758 248.822 123.694 255.662 123.694 263.095V276.332C123.694 281.578 126.797 286.327 131.603 288.436C133.612 289.317 135.782 289.772 137.976 289.772H380.899L400.868 288.049C405.795 287.623 409.875 284.023 410.874 279.182C411.834 274.532 412.667 267.957 412.448 259.59C412.196 250.06 409.637 240.467 407.27 233.523Z" fill="#E0F4FC"/>
<path d="M412.975 245.083C412.108 241.087 410.945 236.94 409.52 232.756C407.16 225.829 400.664 221.136 393.353 221.08C384.252 221.01 370.403 220.115 356.11 216.253C353.033 215.422 345.736 210.57 336.09 202.941C334.01 201.296 331.684 200.019 329.178 199.144C326.673 198.271 324.058 197.825 321.404 197.818C308.731 197.786 286.134 197.729 277.194 197.729C274.174 197.729 273.548 197.732 273.314 197.748C266.684 197.744 260.423 197.739 255.625 197.737H255.601C252.452 197.737 249.3 198.097 246.233 198.806C243.166 199.515 240.175 200.575 237.346 201.958C212.647 214.024 198.093 221.125 197.38 221.456C197.304 221.49 197.237 221.52 197.178 221.547C183.68 223.718 170.667 227.109 158.494 231.625C147.079 235.86 138.566 240.252 133.157 243.188C125.852 247.151 121.314 254.779 121.315 263.094V276.33C121.315 282.518 124.978 288.123 130.646 290.61C132.97 291.629 135.435 292.146 137.974 292.146H380.898C380.966 292.146 381.035 292.143 381.103 292.137L401.071 290.414C404.003 290.161 406.717 288.998 408.918 287.049C411.125 285.095 412.606 282.54 413.2 279.66C414.465 273.526 415.011 266.751 414.821 259.526C414.705 255.053 414.083 250.193 412.975 245.083ZM410.874 279.182C409.875 284.023 405.795 287.624 400.867 288.049L380.899 289.772H137.975C135.782 289.772 133.612 289.317 131.603 288.436C126.797 286.327 123.693 281.577 123.693 276.331V263.095C123.693 255.663 127.758 248.822 134.292 245.277C146.704 238.542 167.434 228.692 197.869 223.842C197.869 223.842 198.041 223.764 198.368 223.618C199.15 223.26 224.856 210.704 238.39 204.093C243.751 201.474 249.636 200.114 255.602 200.114C255.609 200.114 255.617 200.114 255.624 200.114C260.452 200.116 266.765 200.121 273.442 200.125C273.459 200.123 273.474 200.121 273.491 200.118C273.557 200.109 274.925 200.106 277.195 200.106C286.193 200.106 309.342 200.164 321.398 200.195C326.198 200.208 330.853 201.829 334.616 204.806C340.963 209.825 350.957 217.323 355.491 218.548C370.133 222.503 384.301 223.386 393.335 223.457C399.648 223.505 405.235 227.55 407.27 233.523C409.637 240.468 412.196 250.061 412.446 259.59C412.667 267.957 411.834 274.532 410.874 279.182Z" fill="#1977CC"/>
<path d="M123.693 264.164V276.331C123.693 279.599 124.898 282.674 126.968 285.038C128.129 285.43 129.373 285.641 130.667 285.641H402.937C404.867 285.641 406.685 285.168 408.284 284.334C409.555 282.908 410.469 281.148 410.874 279.182C411.629 275.524 412.306 270.673 412.453 264.696C411.86 264.357 411.174 264.164 410.443 264.164H123.693Z" fill="#A2DFFF"/>
<path d="M410.442 270.442H123.162C120.915 270.442 119.094 272.262 119.094 274.508V280.351C119.094 286.74 124.276 291.919 130.667 291.919H402.938C409.33 291.919 414.511 286.74 414.511 280.351V274.508C414.51 272.262 412.689 270.442 410.442 270.442Z" fill="#E0F4FC"/>
<path d="M410.442 268.066H123.162C119.608 268.066 116.717 270.955 116.717 274.508V280.351C116.717 284.075 118.168 287.577 120.803 290.21C123.438 292.844 126.941 294.295 130.667 294.295H402.938C406.664 294.295 410.167 292.844 412.802 290.21C415.437 287.577 416.888 284.075 416.888 280.351V274.508C416.887 270.955 413.996 268.066 410.442 268.066ZM414.51 280.351C414.51 286.739 409.328 291.919 402.936 291.919H130.666C124.274 291.919 119.093 286.739 119.093 280.351V274.508C119.093 272.262 120.914 270.442 123.16 270.442H410.442C412.689 270.442 414.51 272.262 414.51 274.508V280.351Z" fill="#1977CC"/>
<path d="M130.666 291.919H402.936C407.145 291.919 410.828 289.673 412.854 286.317H120.748C122.774 289.673 126.457 291.919 130.666 291.919Z" fill="#A2DFFF"/>
<path d="M181.074 256.351C165.064 256.351 152.084 269.324 152.084 285.328C152.084 287.701 152.401 289.996 152.938 292.201H209.207C209.746 289.995 210.062 287.701 210.062 285.328C210.063 269.324 197.084 256.351 181.074 256.351Z" fill="#A2DFFF"/>
<path d="M203.252 263.158C200.373 260.28 197.018 258.02 193.283 256.441C189.414 254.805 185.307 253.975 181.072 253.975C176.838 253.975 172.73 254.805 168.862 256.441C165.127 258.02 161.772 260.28 158.892 263.158C156.013 266.036 153.751 269.39 152.171 273.123C150.535 276.99 149.705 281.097 149.705 285.328C149.705 287.753 150.015 290.255 150.628 292.764C150.887 293.829 151.841 294.576 152.937 294.576H209.206C210.301 294.576 211.256 293.828 211.515 292.764C212.127 290.255 212.437 287.753 212.437 285.328C212.437 281.097 211.608 276.99 209.971 273.123C208.394 269.39 206.133 266.038 203.252 263.158ZM209.208 292.202H152.939C152.4 289.996 152.084 287.703 152.084 285.329C152.084 269.325 165.063 256.352 181.075 256.352C197.086 256.352 210.065 269.325 210.065 285.329C210.063 287.703 209.746 289.996 209.208 292.202Z" fill="#1977CC"/>
<path d="M309.936 200.166C299.737 200.141 270.576 200.122 255.625 200.114C249.653 200.11 243.758 201.471 238.392 204.092C224.796 210.734 198.916 223.374 198.359 223.623H342.085C344.645 223.623 344.491 222.26 341.888 218.94C337.145 212.89 322.835 200.166 309.936 200.166Z" fill="white"/>
<path d="M343.759 217.475C338.725 211.054 323.838 197.793 309.943 197.79C299.871 197.765 271.589 197.747 255.628 197.738H255.626H255.605C252.456 197.738 249.304 198.098 246.237 198.807C243.169 199.516 240.179 200.576 237.349 201.959C212.603 214.047 198.041 221.153 197.379 221.46C196.362 221.92 195.802 223.026 196.035 224.119C196.27 225.216 197.238 226 198.36 226H342.086C342.849 226 343.485 225.907 344.031 225.717C345.159 225.324 345.712 224.591 345.978 224.046C346.481 223.015 346.398 221.804 345.735 220.445C345.334 219.629 344.707 218.686 343.759 217.475ZM342.083 223.624H198.358C198.916 223.375 224.795 210.736 238.391 204.094C243.751 201.475 249.637 200.115 255.603 200.115C255.61 200.115 255.617 200.115 255.624 200.115C270.575 200.123 299.737 200.142 309.935 200.167C322.833 200.167 337.143 212.891 341.885 218.941C344.49 222.262 344.644 223.624 342.083 223.624Z" fill="#1977CC"/>
<path d="M196.996 301.247C205.793 292.455 205.793 278.2 196.996 269.407C188.2 260.615 173.938 260.615 165.141 269.407C156.345 278.2 156.345 292.455 165.141 301.247C173.938 310.04 188.2 310.04 196.996 301.247Z" fill="#A2DFFF"/>
<path d="M198.682 267.728C196.395 265.443 193.732 263.648 190.766 262.395C187.695 261.096 184.434 260.438 181.073 260.438C177.713 260.438 174.451 261.096 171.38 262.395C168.415 263.648 165.751 265.443 163.465 267.728C161.179 270.013 159.383 272.675 158.129 275.639C156.83 278.71 156.171 281.969 156.171 285.328C156.171 288.687 156.83 291.947 158.129 295.018C159.383 297.982 161.179 300.644 163.465 302.929C165.751 305.215 168.415 307.009 171.38 308.262C174.452 309.561 177.713 310.22 181.073 310.22C184.434 310.22 187.696 309.561 190.766 308.262C193.732 307.009 196.395 305.215 198.682 302.929C200.968 300.644 202.763 297.982 204.017 295.018C205.317 291.947 205.975 288.688 205.975 285.328C205.975 281.968 205.317 278.709 204.017 275.639C202.763 272.675 200.968 270.013 198.682 267.728ZM181.073 307.844C168.633 307.844 158.548 297.764 158.548 285.329C158.548 272.895 168.633 262.815 181.073 262.815C193.514 262.815 203.598 272.895 203.598 285.329C203.598 297.764 193.514 307.844 181.073 307.844Z" fill="#1977CC"/>
<path d="M181.805 292.918C186 292.503 189.064 288.767 188.649 284.574C188.233 280.381 184.496 277.318 180.301 277.733C176.106 278.148 173.042 281.884 173.457 286.077C173.872 290.27 177.61 293.333 181.805 292.918Z" fill="#E0F4FC"/>
<path d="M181.073 276.511C176.209 276.511 172.252 280.466 172.252 285.329C172.252 290.191 176.209 294.146 181.073 294.146C185.938 294.146 189.895 290.191 189.895 285.329C189.895 280.466 185.937 276.511 181.073 276.511ZM181.073 291.769C177.519 291.769 174.628 288.88 174.628 285.328C174.628 281.775 177.519 278.886 181.073 278.886C184.627 278.886 187.518 281.775 187.518 285.328C187.518 288.88 184.626 291.769 181.073 291.769Z" fill="#1977CC"/>
<path d="M362.794 256.351C346.784 256.351 333.804 269.324 333.804 285.328C333.804 287.701 334.12 289.996 334.658 292.201H390.927C391.466 289.995 391.782 287.701 391.782 285.328C391.784 269.324 378.804 256.351 362.794 256.351Z" fill="#A2DFFF"/>
<path d="M384.974 263.158C382.094 260.28 378.739 258.02 375.004 256.441C371.136 254.805 367.028 253.975 362.794 253.975C358.56 253.975 354.452 254.805 350.583 256.441C346.848 258.02 343.493 260.28 340.614 263.158C337.735 266.036 335.473 269.39 333.893 273.123C332.256 276.99 331.427 281.097 331.427 285.328C331.427 287.753 331.737 290.255 332.349 292.764C332.608 293.829 333.563 294.576 334.658 294.576H390.927C392.023 294.576 392.977 293.828 393.236 292.764C393.849 290.255 394.159 287.753 394.159 285.328C394.159 281.097 393.329 276.99 391.692 273.123C390.115 269.39 387.853 266.038 384.974 263.158ZM390.928 292.202H334.659C334.121 289.996 333.805 287.703 333.805 285.329C333.805 269.325 346.784 256.352 362.795 256.352C378.805 256.352 391.785 269.325 391.785 285.329C391.784 287.703 391.467 289.996 390.928 292.202Z" fill="#1977CC"/>
<path d="M378.717 301.248C387.513 292.456 387.513 278.201 378.717 269.408C369.92 260.616 355.658 260.616 346.862 269.408C338.065 278.201 338.065 292.456 346.862 301.248C355.658 310.041 369.92 310.041 378.717 301.248Z" fill="#A2DFFF"/>
<path d="M380.403 267.727C378.117 265.442 375.453 263.648 372.488 262.394C369.416 261.095 366.155 260.437 362.794 260.437C359.432 260.437 356.171 261.095 353.1 262.394C350.135 263.648 347.472 265.442 345.185 267.727C342.899 270.012 341.104 272.674 339.85 275.639C338.55 278.709 337.892 281.968 337.892 285.327C337.892 288.686 338.55 291.947 339.85 295.017C341.104 297.981 342.899 300.643 345.185 302.929C347.472 305.214 350.135 307.008 353.1 308.262C356.172 309.56 359.433 310.219 362.794 310.219C366.154 310.219 369.416 309.56 372.488 308.262C375.453 307.008 378.117 305.214 380.403 302.929C382.689 300.643 384.485 297.981 385.739 295.017C387.038 291.947 387.697 288.687 387.697 285.327C387.697 281.967 387.038 278.708 385.739 275.639C384.485 272.674 382.689 270.012 380.403 267.727ZM362.795 307.843C350.354 307.843 340.27 297.763 340.27 285.328C340.27 272.894 350.354 262.814 362.795 262.814C375.235 262.814 385.32 272.894 385.32 285.328C385.32 297.763 375.235 307.843 362.795 307.843Z" fill="#1977CC"/>
<path d="M364.349 292.795C368.479 291.947 371.14 287.914 370.292 283.786C369.444 279.658 365.409 276.999 361.279 277.847C357.15 278.694 354.489 282.727 355.337 286.855C356.185 290.983 360.22 293.642 364.349 292.795Z" fill="#E0F4FC"/>
<path d="M362.794 276.511C357.929 276.511 353.973 280.466 353.973 285.329C353.973 290.191 357.929 294.146 362.794 294.146C367.659 294.146 371.616 290.191 371.616 285.329C371.616 280.466 367.658 276.511 362.794 276.511ZM362.794 291.769C359.24 291.769 356.349 288.88 356.349 285.327C356.349 281.775 359.24 278.886 362.794 278.886C366.348 278.886 369.239 281.775 369.239 285.327C369.239 288.88 366.348 291.769 362.794 291.769Z" fill="#1977CC"/>
<path d="M140.981 254.514H125.63C124.394 257.159 123.693 260.071 123.693 263.096V264.665H136.87C140.809 264.665 144.003 261.471 144.003 257.535C144.003 255.866 142.651 254.514 140.981 254.514Z" fill="white"/>
<path d="M140.982 253.326H125.63C125.169 253.326 124.749 253.593 124.554 254.011C123.195 256.921 122.506 259.977 122.506 263.096V264.665C122.506 265.321 123.038 265.853 123.695 265.853H136.872C141.461 265.853 145.193 262.122 145.193 257.537C145.192 255.215 143.303 253.326 140.982 253.326ZM136.872 263.477H124.883V263.096C124.883 260.57 125.394 258.086 126.403 255.702H140.983C141.994 255.702 142.817 256.525 142.817 257.537C142.815 260.813 140.149 263.477 136.872 263.477Z" fill="#1977CC"/>
<path d="M411.342 249.101H404.006C401.684 249.101 399.802 250.983 399.802 253.307C399.802 258.781 404.243 263.223 409.723 263.223H412.478C412.489 262.052 412.48 260.841 412.447 259.59C412.353 256.056 411.942 252.514 411.342 249.101Z" fill="white"/>
<path d="M412.513 248.896C412.414 248.328 411.92 247.914 411.343 247.914H404.006C401.033 247.914 398.614 250.333 398.614 253.307C398.614 259.43 403.598 264.411 409.723 264.411H412.478C413.13 264.411 413.661 263.886 413.667 263.234C413.678 262.019 413.668 260.783 413.635 259.558C413.547 256.214 413.17 252.627 412.513 248.896ZM409.723 262.035C404.908 262.035 400.991 258.119 400.991 253.307C400.991 251.644 402.344 250.29 404.006 250.29H410.339C410.872 253.552 411.182 256.687 411.259 259.621C411.281 260.423 411.292 261.231 411.293 262.035H409.723Z" fill="#1977CC"/>
<path d="M283.191 197.453H277.283C273.674 197.453 270.151 198.281 266.816 199.914C263.652 201.462 260.797 203.66 258.327 206.448C253.382 212.031 250.545 219.486 250.545 226.899V292.71C250.545 293.366 251.077 293.898 251.734 293.898C252.39 293.898 252.922 293.366 252.922 292.71V226.899C252.922 220.058 255.541 213.178 260.107 208.023C264.787 202.738 270.888 199.829 277.284 199.829H283.193C283.849 199.829 284.381 199.297 284.381 198.641C284.381 197.985 283.848 197.453 283.191 197.453Z" fill="#1977CC"/>
<path d="M320.61 201.68C319.954 201.68 319.422 202.211 319.422 202.868V266.566C319.422 273.349 316.88 279.766 312.264 284.637C307.644 289.511 301.534 292.196 295.06 292.196H289.151C288.495 292.196 287.963 292.728 287.963 293.384C287.963 294.04 288.495 294.572 289.151 294.572H295.06C302.193 294.572 308.916 291.624 313.989 286.27C319.024 280.957 321.798 273.959 321.798 266.566V202.868C321.799 202.211 321.267 201.68 320.61 201.68Z" fill="#1977CC"/>
<path d="M308.854 232.631H300.455C299.798 232.631 299.266 233.163 299.266 233.819C299.266 234.475 299.798 235.007 300.455 235.007H308.854C309.511 235.007 310.043 234.475 310.043 233.819C310.043 233.163 309.511 232.631 308.854 232.631Z" fill="#1977CC"/>
<path d="M244.964 232.631H236.564C235.908 232.631 235.376 233.163 235.376 233.819C235.376 234.475 235.908 235.007 236.564 235.007H244.964C245.62 235.007 246.152 234.475 246.152 233.819C246.152 233.163 245.62 232.631 244.964 232.631Z" fill="#1977CC"/>
<path d="M309.263 303.668C299.995 303.668 292.482 306.622 292.482 310.267C292.482 313.912 299.995 316.866 309.263 316.866C318.527 316.866 326.041 313.912 326.041 310.267C326.041 306.622 318.527 303.668 309.263 303.668Z" fill="#6B3F1A"/>
<path d="M378.79 339.38L264.683 341.738C264.135 341.749 263.591 341.781 263.048 341.82C262.959 341.787 262.871 341.749 262.779 341.717L175.411 315.936C165.498 312.405 153.481 310.668 146.825 319.057C143.488 323.262 142.547 327.293 142.354 329.974C142.22 331.825 143.325 333.541 145.067 334.183L251.496 373.357C253.708 374.145 255.958 374.545 258.146 374.596C260.425 375.112 262.856 375.371 265.379 375.318L377.629 364.356C390.162 364.097 402.02 364.974 401.831 355.701C401.636 346.427 391.322 339.12 378.79 339.38Z" fill="white"/>
<path d="M395.624 342.996C391.066 339.767 385.075 338.063 378.765 338.192L264.656 340.55C264.217 340.559 263.759 340.581 263.228 340.617C263.208 340.609 263.186 340.602 263.166 340.594C263.149 340.588 263.132 340.583 263.115 340.577L175.779 314.805C169.805 312.68 164.447 311.683 159.856 311.839C153.84 312.044 149.141 314.225 145.893 318.319C142.356 322.777 141.371 327.071 141.169 329.889C140.998 332.255 142.433 334.479 144.657 335.297L251.086 374.472C251.089 374.473 251.093 374.475 251.097 374.476C253.338 375.274 255.659 375.713 257.999 375.781C260.189 376.267 262.451 376.513 264.733 376.513C264.956 376.513 265.179 376.51 265.404 376.506C265.434 376.505 265.464 376.504 265.494 376.5L377.699 365.543C378.916 365.518 380.141 365.504 381.325 365.49C389.906 365.389 397.316 365.301 400.916 361.586C402.362 360.095 403.069 358.107 403.019 355.677C402.916 350.805 400.29 346.302 395.624 342.996ZM399.208 359.934C396.297 362.939 389.011 363.025 381.297 363.115C380.092 363.13 378.846 363.145 377.603 363.17C377.573 363.171 377.542 363.172 377.513 363.175L265.308 374.132C262.965 374.176 260.645 373.945 258.409 373.439C258.332 373.422 258.254 373.412 258.174 373.409C256.05 373.36 253.938 372.966 251.899 372.241L145.479 333.069C144.243 332.614 143.445 331.376 143.54 330.06C143.719 327.576 144.596 323.779 147.756 319.796C150.552 316.273 154.65 314.395 159.937 314.214C164.236 314.066 169.308 315.023 175.012 317.055C175.033 317.062 175.054 317.068 175.074 317.075L262.412 342.848C262.451 342.861 262.488 342.877 262.526 342.892L262.62 342.929C262.784 342.993 262.961 343.017 263.135 343.005C263.739 342.96 264.239 342.935 264.706 342.925L378.813 340.567C379.023 340.562 379.23 340.56 379.438 340.56C391.01 340.56 400.465 347.272 400.642 355.725C400.679 357.523 400.21 358.9 399.208 359.934Z" fill="#1977CC"/>
<path d="M416.976 319.769C416.976 319.769 399.456 304.924 368.174 293.939C336.894 282.952 331.818 302.645 331.818 302.645L277.961 310.553C277.961 310.553 285.253 331.675 315.325 347.946C337.187 359.774 383.505 368.12 387.328 368.391C401.819 369.422 462.278 374.313 462.278 374.313L456.713 317.236L416.976 319.769Z" fill="white"/>
<path d="M457.894 317.121C457.832 316.484 457.277 316.01 456.636 316.05L417.368 318.554C416.138 317.554 411.935 314.26 404.926 309.96C397.313 305.291 384.824 298.526 368.566 292.817C361.968 290.501 355.999 289.357 350.814 289.42C346.467 289.473 342.632 290.37 339.415 292.087C333.778 295.095 331.589 299.745 330.916 301.577L277.786 309.379C277.437 309.43 277.128 309.635 276.943 309.937C276.76 310.239 276.72 310.606 276.836 310.941C276.913 311.164 278.786 316.488 284.419 323.869C287.708 328.179 291.611 332.306 296.018 336.136C301.517 340.914 307.821 345.239 314.757 348.99C326.391 355.284 344.59 360.439 357.807 363.656C372.468 367.223 385.084 369.422 387.241 369.576C401.562 370.594 461.575 375.447 462.179 375.496C462.211 375.498 462.244 375.499 462.276 375.499C462.593 375.499 462.898 375.373 463.122 375.144C463.369 374.893 463.492 374.546 463.457 374.196L457.894 317.121ZM387.41 367.207C385.777 367.09 373.531 365.038 358.37 361.349C345.288 358.165 327.298 353.075 315.889 346.902C309.134 343.248 302.996 339.041 297.646 334.402C293.367 330.692 289.579 326.697 286.386 322.528C282.574 317.552 280.527 313.503 279.637 311.508L331.99 303.821C332.461 303.752 332.846 303.406 332.967 302.945C332.981 302.89 334.501 297.376 340.585 294.155C343.463 292.631 346.93 291.837 350.887 291.795C355.779 291.743 361.462 292.841 367.777 295.059C383.81 300.688 396.121 307.353 403.626 311.952C411.762 316.937 416.162 320.638 416.205 320.675C416.439 320.874 416.74 320.975 417.049 320.955L455.638 318.494L460.954 373.014C451.747 372.269 400.505 368.137 387.41 367.207Z" fill="#1977CC"/>
<path d="M266.819 328.725L180.298 305.9C175.265 303.989 169.325 302.412 164.228 302.427C159.152 302.443 156.4 303.66 152.365 308.339C149.494 311.668 148.439 317.785 148.057 321.406C147.868 323.192 148.847 324.897 150.484 325.637C151.183 325.953 152.005 326.3 152.929 326.651L256.722 366.096C258.963 366.947 261.248 367.403 263.478 367.5C265.794 368.075 268.268 368.391 270.845 368.391H387.326L313.939 330.845C288.795 329.723 266.858 328.741 266.819 328.725Z" fill="white"/>
<path d="M387.326 367.203H270.845C268.438 367.203 266.055 366.916 263.764 366.347C263.687 366.327 263.609 366.316 263.53 366.313C261.364 366.219 259.215 365.772 257.144 364.986L153.352 325.541C152.545 325.234 151.744 324.903 150.974 324.554C149.801 324.025 149.104 322.81 149.238 321.53C149.586 318.234 150.572 312.236 153.264 309.115C156.976 304.812 159.332 303.629 164.231 303.615C164.254 303.615 164.276 303.615 164.3 303.615C168.58 303.615 174.108 304.819 179.875 307.01C179.914 307.024 179.954 307.037 179.994 307.048L266.459 329.858C266.6 329.905 266.743 329.912 267.768 329.961C268.421 329.991 269.379 330.036 270.607 330.091C273.062 330.203 276.594 330.363 280.911 330.556C289.543 330.944 301.314 331.47 313.885 332.031C314.538 332.064 315.096 331.553 315.126 330.898C315.155 330.243 314.647 329.687 313.992 329.658C277.418 328.026 268.072 327.601 267.007 327.546L180.661 304.767C172.58 301.706 166.963 301.239 164.292 301.239C164.269 301.239 164.246 301.239 164.223 301.239C158.61 301.256 155.629 302.733 151.462 307.564C148.504 310.994 147.333 316.917 146.873 321.281C146.629 323.581 147.884 325.767 149.993 326.72C150.808 327.087 151.653 327.438 152.505 327.762L256.297 367.207C258.569 368.069 260.926 368.565 263.305 368.682C265.747 369.278 268.284 369.58 270.843 369.58H387.323C387.98 369.58 388.512 369.048 388.512 368.392C388.512 367.736 387.982 367.203 387.326 367.203Z" fill="#1977CC"/>
<path d="M300.835 334.935L294.625 334.494C302.378 335.897 307.297 336.636 300.835 334.935Z" fill="#E0F4FC"/>
<path d="M217.382 316.861C217.042 322.292 223.147 329.425 231.191 329.985L294.624 334.494C284.25 332.616 268.802 329.546 268.768 329.532L217.382 316.861Z" fill="#E0F4FC"/>
<path d="M305.815 297.944C298.913 299.089 291.96 299.834 285.714 300.316L237.034 291.057C229.062 289.293 221.176 294.333 219.413 302.301C217.656 310.265 222.696 318.153 230.667 319.909L311.279 337.456L368.172 293.936C347.121 285.793 325.956 294.602 305.815 297.944Z" fill="white"/>
<path d="M368.601 292.831C352.182 286.478 335.81 290.2 319.976 293.799C315.239 294.876 310.342 295.989 305.62 296.773C299.571 297.777 292.897 298.567 285.78 299.12L237.273 289.895C233.113 288.98 228.846 289.738 225.255 292.031C221.66 294.325 219.173 297.883 218.252 302.048C217.334 306.21 218.092 310.481 220.39 314.075C222.686 317.669 226.246 320.155 230.414 321.072L311.026 338.619C311.111 338.637 311.195 338.646 311.279 338.646C311.826 338.646 312.318 338.267 312.439 337.711C312.579 337.069 312.172 336.437 311.53 336.298L230.922 318.751C227.377 317.969 224.347 315.854 222.392 312.794C220.437 309.735 219.791 306.1 220.572 302.558C221.356 299.012 223.473 295.985 226.534 294.031C229.594 292.077 233.232 291.433 236.776 292.216C236.787 292.219 236.798 292.221 236.811 292.223L285.491 301.482C285.594 301.501 285.699 301.507 285.804 301.499C293.049 300.939 299.846 300.137 306.008 299.115C310.799 298.32 315.732 297.199 320.503 296.114C335.988 292.594 352.001 288.954 367.742 295.044C368.354 295.28 369.042 294.977 369.279 294.365C369.518 293.755 369.213 293.067 368.601 292.831Z" fill="#1977CC"/>
<path d="M237.504 298.018L230.673 296.768C228.002 301.151 226.99 306.509 227.88 311.569L227.919 311.797L234.75 313.048C238.362 313.708 241.906 310.88 242.666 306.729C243.427 302.578 241.116 298.679 237.504 298.018Z" fill="#E0F4FC"/>
<path d="M237.931 295.68L231.101 294.43C230.958 294.404 230.814 294.392 230.672 294.392C229.853 294.392 229.079 294.816 228.642 295.531C227.163 297.958 226.141 300.63 225.604 303.473C225.068 306.316 225.045 309.178 225.537 311.979L225.577 312.208C225.749 313.187 226.512 313.955 227.49 314.133L234.321 315.384C234.809 315.473 235.308 315.518 235.802 315.518C237.973 315.518 240.103 314.654 241.8 313.084C243.443 311.562 244.581 309.458 245.003 307.157C245.474 304.585 245.035 301.992 243.768 299.854C242.438 297.608 240.365 296.126 237.931 295.68ZM242.667 306.729C241.981 310.474 239.028 313.142 235.805 313.142C235.456 313.142 235.104 313.111 234.751 313.046L227.92 311.796L227.88 311.568C226.991 306.507 228.002 301.149 230.674 296.767L237.505 298.017C241.115 298.678 243.426 302.578 242.667 306.729Z" fill="#1977CC"/>
<path d="M239.07 312.19C240.851 311.094 242.226 309.133 242.666 306.729C243.107 304.325 242.516 302.005 241.239 300.35C239.417 303.983 238.653 308.141 239.07 312.19Z" fill="white"/>
<path d="M262.909 304.653C262.264 304.534 261.645 304.962 261.526 305.608L259.905 314.457C259.788 315.102 260.214 315.721 260.861 315.84C260.933 315.853 261.005 315.859 261.076 315.859C261.638 315.859 262.138 315.457 262.244 314.885L263.864 306.035C263.982 305.389 263.554 304.771 262.909 304.653Z" fill="#1977CC"/>
<path d="M265.954 307.704C265.309 307.586 264.69 308.013 264.571 308.659L263.834 312.681C263.716 313.326 264.143 313.945 264.789 314.064C264.862 314.077 264.934 314.083 265.004 314.083C265.567 314.083 266.067 313.681 266.173 313.109L266.909 309.087C267.027 308.441 266.6 307.822 265.954 307.704Z" fill="#1977CC"/>
<path d="M167.879 321.796L158.427 319.763C156.361 319.319 154.248 320.292 153.251 322.154C152.544 323.475 151.793 324.952 151.364 326.023C151.845 326.227 152.367 326.438 152.928 326.652L177.51 335.995C177.872 329.173 173.923 323.096 167.879 321.796Z" fill="#E0F4FC"/>
<path d="M168.13 320.634L158.677 318.601C156.106 318.048 153.444 319.278 152.204 321.591C151.295 323.286 150.642 324.629 150.262 325.58C150.022 326.18 150.306 326.862 150.902 327.115C151.431 327.34 151.971 327.557 152.509 327.761L177.09 337.103C177.227 337.155 177.37 337.181 177.513 337.181C177.74 337.181 177.965 337.115 178.161 336.989C178.479 336.782 178.68 336.436 178.699 336.057C179.097 328.523 174.652 322.037 168.13 320.634ZM153.352 325.541C153.216 325.489 153.08 325.437 152.943 325.384C153.292 324.643 153.749 323.74 154.299 322.715C155.042 321.33 156.637 320.594 158.177 320.925L167.629 322.958C172.53 324.012 176.003 328.641 176.322 334.271L153.352 325.541Z" fill="#1977CC"/>
<path d="M162.899 332.657L153.098 330.549C151.236 330.149 149.329 331.009 148.404 332.674C147.95 333.491 147.501 334.333 147.207 334.971L172.46 344.266C171.841 338.549 168.165 333.789 162.899 332.657Z" fill="#E0F4FC"/>
<path d="M170.347 335.995C168.456 333.658 165.967 332.101 163.149 331.495L153.348 329.387C150.957 328.872 148.553 329.962 147.365 332.097C146.813 333.089 146.398 333.889 146.127 334.475C145.989 334.776 145.982 335.121 146.109 335.427C146.236 335.733 146.485 335.973 146.796 336.087L172.049 345.382C172.182 345.431 172.322 345.455 172.46 345.455C172.721 345.455 172.979 345.369 173.191 345.204C173.515 344.951 173.686 344.549 173.641 344.14C173.309 341.066 172.169 338.249 170.347 335.995ZM148.864 334.315C149.034 333.995 149.227 333.639 149.442 333.251C150.117 332.037 151.485 331.418 152.847 331.71L162.648 333.817C164.928 334.308 166.951 335.578 168.497 337.489C169.64 338.903 170.465 340.587 170.93 342.437L148.864 334.315Z" fill="#1977CC"/>
<path d="M416.976 319.769C416.976 319.769 415.039 318.128 411.31 315.538L404.323 369.685C427.447 371.494 462.277 374.311 462.277 374.311L456.713 317.235L416.976 319.769Z" fill="#E0F4FC"/>
<path d="M457.895 317.12C457.832 316.483 457.28 316.009 456.636 316.05L417.368 318.554C416.634 317.958 414.83 316.537 411.987 314.562C411.449 314.188 410.708 314.321 410.333 314.86C409.958 315.398 410.092 316.139 410.63 316.514C414.259 319.036 416.188 320.66 416.207 320.676C416.441 320.874 416.742 320.975 417.051 320.956L455.641 318.495L460.956 373.015C454.183 372.467 424.645 370.085 404.415 368.503C403.76 368.451 403.19 368.941 403.137 369.595C403.085 370.249 403.576 370.82 404.23 370.872C427.088 372.659 461.832 375.47 462.181 375.498C462.213 375.5 462.245 375.501 462.277 375.501C462.594 375.501 462.9 375.375 463.124 375.146C463.37 374.895 463.494 374.548 463.459 374.198L457.895 317.12Z" fill="#1977CC"/>
<path d="M423.13 293.745L411.698 387.176L484.5 396.075L495.932 302.645L423.13 293.745Z" fill="white"/>
<path d="M496.09 301.475L423.288 292.574C422.635 292.494 422.045 292.958 421.964 293.609L410.53 387.039C410.492 387.351 410.58 387.667 410.774 387.914C410.968 388.162 411.252 388.324 411.566 388.362L484.367 397.264C484.416 397.269 484.464 397.273 484.513 397.273C485.105 397.273 485.618 396.832 485.691 396.229L497.125 302.799C497.164 302.487 497.075 302.171 496.882 301.923C496.687 301.674 496.402 301.513 496.09 301.475ZM483.475 394.761L413.033 386.148L424.178 295.077L494.62 303.689L483.475 394.761Z" fill="#1977CC"/>
<path d="M433.17 289.379L421.208 386.964C421.171 387.076 421.134 387.188 421.1 387.3C418.266 396.497 424.84 405.924 434.438 406.67L627.114 429.999V296.738L452.613 279.653C439.493 279.058 435.852 281.328 433.17 289.379Z" fill="#A2DFFF"/>
<path d="M448.989 279.565C438.782 279.565 435.587 282.125 433.17 289.38L421.208 386.965C421.171 387.077 421.134 387.19 421.1 387.302C418.266 396.498 424.84 405.925 434.438 406.671L627.114 430V296.74L452.613 279.654C451.315 279.596 450.11 279.565 448.989 279.565ZM624.737 427.32L434.723 404.313C434.689 404.309 434.655 404.305 434.621 404.303C430.717 404 427.212 401.967 425.006 398.725C422.846 395.549 422.249 391.64 423.371 388.001C423.4 387.907 423.431 387.811 423.463 387.717C423.512 387.566 423.547 387.412 423.567 387.255L435.5 289.91C436.614 286.636 437.768 284.842 439.455 283.743C441.37 282.496 444.31 281.941 448.988 281.941C450.042 281.941 451.173 281.968 452.443 282.026L624.737 298.895V427.32Z" fill="#1977CC"/>
<path d="M114.252 192.1L106.585 188.191C105.778 187.78 104.766 188.053 104.321 188.8C103.878 189.548 104.171 190.487 104.978 190.899L112.645 194.808C112.899 194.938 113.175 195 113.446 195C114.034 195 114.604 194.71 114.909 194.199C115.352 193.451 115.057 192.511 114.252 192.1Z" fill="white"/>
<path d="M126.408 199.1L120.136 195.191C119.476 194.78 118.647 195.053 118.284 195.8C117.921 196.548 118.161 197.487 118.821 197.899L125.093 201.808C125.301 201.938 125.527 202 125.749 202C126.229 202 126.696 201.71 126.945 201.199C127.309 200.451 127.068 199.511 126.408 199.1Z" fill="white"/>
<path d="M100.408 184.929L94.1358 182.137C93.4756 181.843 92.6473 182.038 92.2837 182.572C91.9212 183.106 92.161 183.776 92.8211 184.071L99.0932 186.863C99.3012 186.956 99.5273 187 99.7488 187C100.229 187 100.696 186.793 100.945 186.428C101.309 185.894 101.068 185.222 100.408 184.929Z" fill="white"/>
<path d="M139.408 206.515L133.136 203.164C132.476 202.812 131.647 203.046 131.284 203.686C130.921 204.327 131.161 205.132 131.821 205.485L138.093 208.836C138.301 208.947 138.527 209 138.749 209C139.229 209 139.696 208.752 139.945 208.314C140.309 207.672 140.068 206.868 139.408 206.515Z" fill="white"/>
<path d="M163.486 219.929L157.911 217.137C157.324 216.843 156.588 217.037 156.265 217.572C155.943 218.106 156.156 218.777 156.743 219.071L162.318 221.863C162.503 221.956 162.704 222 162.901 222C163.328 222 163.743 221.793 163.964 221.428C164.287 220.894 164.073 220.222 163.486 219.929Z" fill="white"/>
<path d="M150.487 213.1L144.911 209.191C144.325 208.781 143.588 209.052 143.265 209.8C142.943 210.549 143.156 211.487 143.743 211.899L149.318 215.808C149.503 215.938 149.704 216 149.901 216C150.328 216 150.744 215.71 150.965 215.199C151.287 214.451 151.073 213.512 150.487 213.1Z" fill="white"/>
<path d="M187.926 114.789C187.601 114.123 186.736 113.819 185.994 114.111C185.252 114.403 184.913 115.18 185.238 115.846C186.164 117.742 187.194 119.881 188.299 122.2C188.537 122.7 189.079 123 189.648 123C189.84 123 190.036 122.966 190.224 122.894C190.969 122.608 191.314 121.834 190.997 121.166C189.889 118.839 188.856 116.693 187.926 114.789Z" fill="white"/>
<path d="M193.973 127.803C193.655 127.135 192.782 126.822 192.025 127.103C191.268 127.384 190.913 128.154 191.232 128.822C192.185 130.82 193.202 132.964 194.255 135.192C194.493 135.696 195.045 136 195.628 136C195.819 136 196.012 135.967 196.199 135.898C196.958 135.619 197.316 134.852 197 134.182C195.948 131.95 194.929 129.804 193.973 127.803Z" fill="white"/>
<path d="M223.482 196.798C223.136 195.911 222.63 194.61 221.986 192.96C221.681 192.178 220.815 191.797 220.051 192.109C219.288 192.422 218.916 193.31 219.221 194.093C220.494 197.357 221.23 199.251 221.246 199.289L222.63 198.727L221.813 197.452L223.45 200C223.553 199.93 224.449 199.282 223.98 198.074L223.482 196.798Z" fill="white"/>
<path d="M202.021 147.192C201.164 145.001 200.32 142.853 199.516 140.81C199.253 140.142 198.523 139.823 197.886 140.1C197.25 140.376 196.946 141.143 197.21 141.811C198.014 143.852 198.856 145.998 199.713 148.188C199.911 148.694 200.376 149 200.867 149C201.025 149 201.185 148.968 201.342 148.902C201.978 148.627 202.283 147.861 202.021 147.192Z" fill="white"/>
<path d="M181.038 100.441C180.599 99.8549 179.885 99.8524 179.445 100.437C179.006 101.023 179.004 101.969 179.443 102.554C179.562 102.728 180.095 103.713 181.97 109.129C182.16 109.678 182.567 110 182.991 110C183.149 110 183.31 109.955 183.462 109.861C184.026 109.514 184.271 108.623 184.011 107.87C182.047 102.199 181.406 100.932 181.038 100.441Z" fill="white"/>
<path d="M219.005 186.207C218.105 184.27 217.107 182.124 216.032 179.819C215.719 179.15 214.839 178.825 214.063 179.095C213.288 179.365 212.912 180.126 213.225 180.795C214.299 183.1 215.297 185.243 216.197 187.18C216.434 187.691 217.002 188 217.602 188C217.79 188 217.98 187.97 218.164 187.905C218.941 187.636 219.317 186.876 219.005 186.207Z" fill="white"/>
<path d="M213.041 173.201C212.402 171.145 211.738 169.009 211.053 166.816C210.845 166.147 210.258 165.825 209.743 166.096C209.228 166.367 208.98 167.13 209.189 167.799C209.872 169.991 210.537 172.125 211.176 174.182C211.334 174.691 211.711 175 212.109 175C212.235 175 212.362 174.969 212.485 174.904C213 174.633 213.249 173.871 213.041 173.201Z" fill="white"/>
<path d="M208.985 160.398C207.837 158.528 206.67 156.63 205.495 154.724C205.128 154.129 204.104 153.843 203.207 154.087C202.31 154.33 201.879 155.009 202.246 155.604C203.42 157.51 204.586 159.405 205.734 161.275C206.012 161.727 206.667 162 207.36 162C207.581 162 207.804 161.972 208.021 161.914C208.919 161.672 209.35 160.994 208.985 160.398Z" fill="white"/>
<path d="M433.094 209.191L426.821 213.1C426.161 213.511 425.921 214.451 426.284 215.199C426.533 215.71 426.998 216 427.48 216C427.703 216 427.928 215.938 428.136 215.808L434.408 211.899C435.069 211.488 435.308 210.548 434.946 209.8C434.583 209.053 433.754 208.78 433.094 209.191Z" fill="white"/>
<path d="M421.094 217.137L414.821 219.929C414.161 220.222 413.921 220.894 414.284 221.428C414.531 221.793 414.998 222 415.48 222C415.703 222 415.928 221.956 416.136 221.863L422.408 219.071C423.069 218.777 423.308 218.106 422.946 217.572C422.582 217.038 421.754 216.843 421.094 217.137Z" fill="white"/>
<path d="M446.094 203.164L439.821 206.515C439.161 206.867 438.921 207.672 439.284 208.314C439.533 208.752 439.998 209 440.48 209C440.703 209 440.928 208.947 441.136 208.836L447.408 205.485C448.069 205.133 448.308 204.327 447.946 203.686C447.582 203.046 446.753 202.812 446.094 203.164Z" fill="white"/>
<path d="M483.869 182.137L476.9 184.929C476.166 185.222 475.9 185.894 476.302 186.428C476.579 186.793 477.097 187 477.632 187C477.879 187 478.129 186.956 478.36 186.863L485.329 184.071C486.063 183.778 486.33 183.106 485.926 182.572C485.522 182.038 484.601 181.843 483.869 182.137Z" fill="white"/>
<path d="M470.869 188.192L463.9 192.101C463.166 192.511 462.9 193.451 463.302 194.199C463.579 194.71 464.097 195 464.632 195C464.879 195 465.129 194.938 465.36 194.808L472.329 190.899C473.063 190.489 473.33 189.549 472.926 188.801C472.524 188.053 471.602 187.78 470.869 188.192Z" fill="white"/>
<path d="M458.869 195.192L451.9 199.101C451.166 199.511 450.9 200.451 451.302 201.199C451.579 201.71 452.097 202 452.632 202C452.879 202 453.129 201.938 453.36 201.808L460.33 197.899C461.063 197.489 461.33 196.549 460.927 195.801C460.523 195.053 459.603 194.78 458.869 195.192Z" fill="white"/>
<path d="M364.166 179.095C363.391 178.826 362.509 179.149 362.198 179.819C361.122 182.125 360.125 184.269 359.224 186.206C358.913 186.875 359.29 187.636 360.065 187.905C360.249 187.97 360.441 188 360.628 188C361.228 188 361.795 187.69 362.033 187.18C362.933 185.243 363.931 183.1 365.005 180.795C365.317 180.126 364.942 179.365 364.166 179.095Z" fill="white"/>
<path d="M369.33 166.096C368.686 165.825 367.952 166.147 367.691 166.817C366.836 169.009 366.006 171.145 365.206 173.202C364.947 173.872 365.258 174.634 365.901 174.904C366.055 174.968 366.215 175 366.372 175C366.87 175 367.34 174.69 367.538 174.182C368.337 172.126 369.167 169.99 370.022 167.798C370.283 167.129 369.973 166.368 369.33 166.096Z" fill="white"/>
<path d="M374.335 154.087C373.694 153.844 372.962 154.129 372.7 154.724C371.86 156.63 371.028 158.527 370.208 160.397C369.947 160.993 370.255 161.671 370.896 161.914C371.051 161.972 371.21 162 371.368 162C371.863 162 372.331 161.727 372.53 161.275C373.35 159.406 374.182 157.51 375.021 155.605C375.283 155.009 374.976 154.329 374.335 154.087Z" fill="white"/>
<path d="M358.35 192.106C357.727 191.803 357.018 192.171 356.769 192.931C355.784 195.926 355.193 197.733 355.122 197.951L355.115 197.972L356.244 198.521L356.015 199.974C356.087 199.991 356.162 200 356.238 200C356.672 200 357.159 199.723 357.381 199.047C357.453 198.829 358.044 197.023 359.028 194.03C359.277 193.27 358.974 192.409 358.35 192.106Z" fill="white"/>
<path d="M396.427 100.439C395.911 100.93 395.013 102.197 392.26 107.87C391.896 108.623 392.239 109.514 393.03 109.861C393.244 109.955 393.468 110 393.689 110C394.285 110 394.854 109.678 395.119 109.129C397.737 103.733 398.489 102.735 398.658 102.555C399.268 101.968 399.267 101.022 398.653 100.439C398.04 99.8538 397.042 99.8538 396.427 100.439Z" fill="white"/>
<path d="M380.188 140.1C379.423 139.823 378.549 140.141 378.233 140.81C377.267 142.853 376.256 145 375.228 147.192C374.913 147.861 375.279 148.627 376.044 148.902C376.23 148.968 376.423 149 376.613 149C377.202 149 377.761 148.693 377.998 148.188C379.026 145.998 380.036 143.853 381.001 141.811C381.317 141.143 380.953 140.376 380.188 140.1Z" fill="white"/>
<path d="M391.236 114.111C390.494 113.819 389.628 114.123 389.303 114.789C388.373 116.695 387.34 118.84 386.233 121.166C385.915 121.834 386.26 122.608 387.005 122.894C387.194 122.966 387.389 123 387.581 123C388.151 123 388.692 122.7 388.931 122.2C390.034 119.882 391.065 117.744 391.991 115.846C392.316 115.18 391.978 114.403 391.236 114.111Z" fill="white"/>
<path d="M385.356 127.103C384.726 126.822 384 127.135 383.733 127.803C382.939 129.8 382.09 131.946 381.21 134.182C380.947 134.852 381.246 135.619 381.878 135.898C382.033 135.967 382.195 136 382.354 136C382.839 136 383.299 135.696 383.498 135.192C384.376 132.96 385.223 130.816 386.016 128.822C386.284 128.154 385.987 127.384 385.356 127.103Z" fill="white"/>
<path d="M285.615 153C284.786 153 284.115 153.556 284.115 154.241V160.759C284.115 161.444 284.786 162 285.615 162C286.443 162 287.115 161.444 287.115 160.759V154.241C287.115 153.556 286.443 153 285.615 153Z" fill="white"/>
<path d="M285.615 167C284.786 167 284.115 167.556 284.115 168.241V174.759C284.115 175.444 284.786 176 285.615 176C286.443 176 287.115 175.444 287.115 174.759V168.241C287.115 167.556 286.443 167 285.615 167Z" fill="white"/>
<path d="M285.615 181C284.786 181 284.115 181.614 284.115 182.371V187.629C284.115 188.386 284.786 189 285.615 189C286.443 189 287.115 188.386 287.115 187.629V182.371C287.115 181.614 286.443 181 285.615 181Z" fill="white"/>
<path d="M285.615 139C284.786 139 284.115 139.617 284.115 140.379V147.621C284.115 148.383 284.786 149 285.615 149C286.443 149 287.115 148.383 287.115 147.621V140.379C287.115 139.617 286.443 139 285.615 139Z" fill="white"/>
<path d="M285.615 81C284.786 81 284.115 81.6172 284.115 82.3793V89.6207C284.115 90.3828 284.786 91 285.615 91C286.443 91 287.115 90.3828 287.115 89.6207V82.3793C287.115 81.6172 286.443 81 285.615 81Z" fill="white"/>
<path d="M285.615 125C284.786 125 284.115 125.556 284.115 126.241V132.759C284.115 133.444 284.786 134 285.615 134C286.443 134 287.115 133.444 287.115 132.759V126.241C287.115 125.556 286.443 125 285.615 125Z" fill="white"/>
<path d="M285.615 96C284.786 96 284.115 96.6172 284.115 97.3793V104.621C284.115 105.383 284.786 106 285.615 106C286.443 106 287.115 105.383 287.115 104.621V97.3793C287.115 96.6172 286.443 96 285.615 96Z" fill="white"/>
<path d="M285.615 110C284.786 110 284.115 110.617 284.115 111.379V118.621C284.115 119.383 284.786 120 285.615 120C286.443 120 287.115 119.383 287.115 118.621V111.379C287.115 110.617 286.443 110 285.615 110Z" fill="white"/>
<path d="M44.5 146.5L11 171.5V198.5L7 200.5V204.5H85V200.5L81 198.5V171.5L44.5 146.5Z" fill="white"/>
<path d="M21 181V199.5L38 200V181L36 179H23L21 181Z" fill="#A2DFFF"/>
<rect x="50" y="177" width="21" height="17" fill="#A2DFFF"/>
<path d="M18 133.5L18.5 154L28.5 146L28 135.5L27 133H22.5L18 133.5Z" fill="#E0F4FC"/>
<path d="M2 174.5H9.5L11 171L45.5 146.5L81.5 172V174.5H84H91.5L90 167L48.5 137.5L44 136L2 168V174.5Z" fill="#E0F4FC"/>
<path d="M90.708 166.381L48.315 135.657C47.3764 134.973 46.2421 134.609 45.0806 134.62C43.919 134.632 42.792 135.017 41.867 135.72L29.426 145.114V135.72C29.4249 134.734 29.0328 133.788 28.3356 133.091C27.6384 132.394 26.6931 132.001 25.707 132H20.5C19.5137 132.001 18.5681 132.393 17.8707 133.091C17.1733 133.788 16.7811 134.734 16.78 135.72V154.663L1.243 166.388C0.85709 166.681 0.544089 167.059 0.32846 167.492C0.112831 167.926 0.000415536 168.404 0 168.888V175.188C0 175.453 0.105357 175.708 0.292893 175.895C0.48043 176.083 0.734784 176.188 1 176.188H9.43V199.188H8.18C7.46946 199.189 6.78826 199.471 6.28583 199.974C5.78341 200.476 5.50079 201.157 5.5 201.868V204.378H3.03C2.76478 204.378 2.51043 204.483 2.32289 204.671C2.13536 204.858 2.03 205.113 2.03 205.378C2.03 205.643 2.13536 205.898 2.32289 206.085C2.51043 206.273 2.76478 206.378 3.03 206.378H89.2C89.4652 206.378 89.7196 206.273 89.9071 206.085C90.0946 205.898 90.2 205.643 90.2 205.378C90.2 205.113 90.0946 204.858 89.9071 204.671C89.7196 204.483 89.4652 204.378 89.2 204.378H86.5V201.868C86.4992 201.157 86.2166 200.476 85.7142 199.974C85.2117 199.471 84.5305 199.189 83.82 199.188H82.57V176.188H91C91.2652 176.188 91.5196 176.083 91.7071 175.895C91.8946 175.708 92 175.453 92 175.188V168.913C91.9992 168.419 91.8818 167.932 91.6572 167.492C91.4327 167.052 91.1075 166.672 90.708 166.381V166.381ZM18.778 153.151V135.72C18.7785 135.264 18.9599 134.827 19.2824 134.504C19.6048 134.182 20.042 134.001 20.498 134H25.707C26.1628 134.001 26.5998 134.182 26.922 134.505C27.2442 134.827 27.4255 135.264 27.426 135.72V146.62L25.132 148.351L18.778 153.151ZM84.5 201.868V204.378H7.5V201.868C7.50026 201.688 7.57199 201.515 7.69946 201.387C7.82693 201.26 7.99973 201.188 8.18 201.188H83.82C84.0003 201.188 84.1731 201.26 84.3005 201.387C84.428 201.515 84.4997 201.688 84.5 201.868V201.868ZM36.71 199.188H22.31V181.488C22.3103 181.104 22.4631 180.735 22.735 180.463C23.0069 180.191 23.3755 180.038 23.76 180.038H35.27C35.6532 180.04 36.02 180.193 36.29 180.465C36.56 180.737 36.7111 181.105 36.71 181.488V199.188ZM38.71 199.188V181.488C38.7105 180.575 38.3486 179.698 37.7036 179.051C37.0587 178.405 36.1834 178.04 35.27 178.038H23.76C22.8452 178.039 21.9682 178.403 21.3214 179.049C20.6745 179.696 20.3108 180.573 20.31 181.488V199.188H11.43V172.176C45.208 146.946 43.794 147.076 45.468 147.201C45.9063 147.231 46.3275 147.382 46.684 147.639V147.639L80.57 172.188V199.188H38.71ZM90 174.188H82.57V171.678C82.5699 171.52 82.5324 171.365 82.4607 171.224C82.3889 171.083 82.2848 170.962 82.157 170.869L47.856 146.018C47.1056 145.47 46.1987 145.178 45.2696 145.186C44.3404 145.193 43.4384 145.5 42.697 146.06L9.828 170.88C9.7038 170.973 9.603 171.094 9.53357 171.233C9.46415 171.372 9.428 171.525 9.428 171.68V174.188H2V168.888C2.00031 168.714 2.0409 168.542 2.11861 168.386C2.19632 168.229 2.30905 168.093 2.448 167.988L23.576 152.036L29.028 147.92L43.07 137.32C43.6544 136.877 44.3659 136.634 45.0991 136.627C45.8322 136.62 46.5482 136.849 47.141 137.281L89.534 168C89.6781 168.105 89.7954 168.242 89.8764 168.401C89.9574 168.559 89.9997 168.735 90 168.913V174.188ZM48.856 159.588H43.381C43.1158 159.588 42.8614 159.483 42.6739 159.295C42.4864 159.108 42.381 158.853 42.381 158.588C42.381 158.323 42.4864 158.068 42.6739 157.881C42.8614 157.693 43.1158 157.588 43.381 157.588H48.856C49.1212 157.588 49.3756 157.693 49.5631 157.881C49.7506 158.068 49.856 158.323 49.856 158.588C49.856 158.853 49.7506 159.108 49.5631 159.295C49.3756 159.483 49.1212 159.588 48.856 159.588ZM41.707 170.188C41.707 170.453 41.6016 170.708 41.4141 170.895C41.2266 171.083 40.9722 171.188 40.707 171.188H28.575C28.3098 171.188 28.0554 171.083 27.8679 170.895C27.6804 170.708 27.575 170.453 27.575 170.188C27.575 169.923 27.6804 169.668 27.8679 169.481C28.0554 169.293 28.3098 169.188 28.575 169.188H40.707C40.9722 169.188 41.2266 169.293 41.4141 169.481C41.6016 169.668 41.707 169.923 41.707 170.188ZM59.152 167.008H63.57C63.8352 167.008 64.0896 167.113 64.2771 167.301C64.4646 167.488 64.57 167.743 64.57 168.008C64.57 168.273 64.4646 168.528 64.2771 168.715C64.0896 168.903 63.8352 169.008 63.57 169.008H59.152C58.8868 169.008 58.6324 168.903 58.4449 168.715C58.2574 168.528 58.152 168.273 58.152 168.008C58.152 167.743 58.2574 167.488 58.4449 167.301C58.6324 167.113 58.8868 167.008 59.152 167.008ZM63.952 183.121C64.0406 183.218 64.1092 183.331 64.154 183.455C64.1987 183.578 64.2187 183.71 64.2127 183.841C64.2068 183.972 64.175 184.101 64.1193 184.22C64.0636 184.339 63.985 184.445 63.888 184.534C60.119 187.873 59.113 189.503 58.137 188.434C58.0482 188.337 57.9794 188.224 57.9345 188.1C57.8896 187.976 57.8694 187.845 57.8753 187.714C57.8812 187.583 57.9128 187.454 57.9686 187.335C58.0243 187.216 58.1029 187.109 58.2 187.02C61.585 184.308 62.783 181.849 63.947 183.121H63.952ZM34.11 196.708C33.9696 196.846 33.7921 196.939 33.5992 196.977C33.4063 197.015 33.2066 196.995 33.0247 196.921C32.8428 196.846 32.6867 196.72 32.5757 196.558C32.4647 196.396 32.4036 196.204 32.4 196.008C32.3991 195.776 32.4796 195.55 32.6276 195.371C32.7756 195.192 32.9817 195.071 33.21 195.028C33.4158 194.999 33.6256 195.034 33.811 195.128C33.9964 195.222 34.1485 195.37 34.2467 195.554C34.3448 195.737 34.3844 195.946 34.3599 196.152C34.3355 196.359 34.2482 196.553 34.11 196.708V196.708ZM71.02 175.758H51.26C50.7483 175.759 50.2577 175.962 49.8959 176.324C49.534 176.686 49.3305 177.176 49.33 177.688V193.278C49.3305 193.79 49.534 194.28 49.8959 194.642C50.2577 195.004 50.7483 195.207 51.26 195.208H71.02C71.5317 195.207 72.0223 195.004 72.3841 194.642C72.746 194.28 72.9495 193.79 72.95 193.278V177.688C72.9495 177.176 72.746 176.686 72.3841 176.324C72.0223 175.962 71.5317 175.759 71.02 175.758ZM51.33 193.278L51.26 177.758H70.951L71.02 193.208L51.33 193.278Z" fill="#1977CC"/>
<rect x="124.727" y="72.3636" width="39.5455" height="23.7273" fill="white"/>
<circle cx="144.5" cy="82.9091" r="2.63636" fill="#A2DFFF"/>
<circle cx="175.477" cy="58.5227" r="3.29545" fill="#E0F4FC"/>
<circle cx="183.386" cy="83.5682" r="3.29545" fill="#E0F4FC"/>
<circle cx="175.477" cy="109.932" r="3.29545" fill="#E0F4FC"/>
<circle cx="113.523" cy="109.932" r="3.29545" fill="#E0F4FC"/>
<circle cx="105.614" cy="84.8864" r="3.29545" fill="#E0F4FC"/>
<circle cx="113.523" cy="58.5227" r="3.29545" fill="#E0F4FC"/>
<path d="M162.714 98.4711H126.286C124.11 98.4711 122.339 96.7011 122.339 94.5243V73.9354C122.339 71.7586 124.11 69.9886 126.286 69.9886H162.714C164.891 69.9886 166.661 71.7586 166.661 73.9354V94.5243C166.661 96.7011 164.891 98.4711 162.714 98.4711ZM126.286 72.6249C125.563 72.6249 124.976 73.2132 124.976 73.9354V94.5243C124.976 95.2464 125.563 95.8347 126.286 95.8347H162.714C163.437 95.8347 164.024 95.2464 164.024 94.5243V73.9354C164.024 73.2132 163.437 72.6249 162.714 72.6249H126.286V72.6249Z" fill="#1977CC"/>
<path d="M157.98 72.625H131.021C130.293 72.625 129.703 72.0354 129.703 71.3068V60.7974C129.703 52.6385 136.341 46 144.5 46C152.659 46 159.298 52.6385 159.298 60.7974V71.3068C159.298 72.0354 158.708 72.625 157.98 72.625ZM132.339 69.9886H156.662V60.7974C156.662 54.0919 151.206 48.6364 144.5 48.6364C137.795 48.6364 132.339 54.0919 132.339 60.7974V69.9886V69.9886Z" fill="#1977CC"/>
<path d="M144.5 85.9831C142.572 85.9831 141.004 84.4152 141.004 82.4882C141.004 80.5598 142.572 78.9919 144.5 78.9919C146.428 78.9919 147.996 80.5598 147.996 82.4882C147.996 84.4152 146.428 85.9831 144.5 85.9831ZM144.5 81.6282C144.026 81.6282 143.641 82.0144 143.641 82.4882C143.641 82.9619 144.026 83.3468 144.5 83.3468C144.974 83.3468 145.359 82.9619 145.359 82.4882C145.359 82.0144 144.974 81.6282 144.5 81.6282Z" fill="#1977CC"/>
<path d="M144.5 89.4678C143.772 89.4678 143.182 88.8783 143.182 88.1496V84.6328C143.182 83.9042 143.772 83.3146 144.5 83.3146C145.228 83.3146 145.818 83.9042 145.818 84.6328V88.1496C145.818 88.8783 145.228 89.4678 144.5 89.4678Z" fill="#1977CC"/>
<path d="M123.658 77.1215H113.148C112.42 77.1215 111.829 76.5319 111.829 75.8033V61.7255C111.829 60.9969 112.42 60.4073 113.148 60.4073C113.875 60.4073 114.466 60.9969 114.466 61.7255V74.4851H123.658C124.386 74.4851 124.976 75.0747 124.976 75.8033C124.976 76.5319 124.386 77.1215 123.658 77.1215Z" fill="#1977CC"/>
<path d="M113.147 63.0437C110.544 63.0437 108.426 60.9261 108.426 58.3219C108.426 55.7177 110.544 53.6001 113.147 53.6001C115.751 53.6001 117.869 55.7177 117.869 58.3219C117.869 60.9261 115.751 63.0437 113.147 63.0437ZM113.147 56.2365C111.997 56.2365 111.062 57.1724 111.062 58.3219C111.062 59.4715 111.997 60.4073 113.147 60.4073C114.298 60.4073 115.233 59.4715 115.233 58.3219C115.233 57.1724 114.298 56.2365 113.147 56.2365Z" fill="#1977CC"/>
<path d="M113.148 108.051C112.42 108.051 111.829 107.462 111.829 106.733V92.6551C111.829 91.9265 112.42 91.337 113.148 91.337H123.658C124.386 91.337 124.976 91.9265 124.976 92.6551C124.976 93.3837 124.386 93.9733 123.658 93.9733H114.466V106.733C114.466 107.462 113.875 108.051 113.148 108.051Z" fill="#1977CC"/>
<path d="M113.147 114.858C110.544 114.858 108.426 112.741 108.426 110.137C108.426 107.532 110.544 105.415 113.147 105.415C115.751 105.415 117.869 107.532 117.869 110.137C117.869 112.741 115.751 114.858 113.147 114.858ZM113.147 108.051C111.997 108.051 111.062 108.987 111.062 110.137C111.062 111.286 111.997 112.222 113.147 112.222C114.298 112.222 115.233 111.286 115.233 110.137C115.233 108.987 114.298 108.051 113.147 108.051Z" fill="#1977CC"/>
<path d="M123.657 85.548H109.125C108.397 85.548 107.807 84.9584 107.807 84.2298C107.807 83.5012 108.397 82.9117 109.125 82.9117H123.657C124.385 82.9117 124.976 83.5012 124.976 84.2298C124.976 84.9584 124.385 85.548 123.657 85.548Z" fill="#1977CC"/>
<path d="M105.722 88.9516C103.118 88.9516 101 86.834 101 84.2299C101 81.6257 103.118 79.5081 105.722 79.5081C108.325 79.5081 110.444 81.6257 110.444 84.2299C110.444 86.834 108.325 88.9516 105.722 88.9516ZM105.722 82.1445C104.572 82.1445 103.636 83.0803 103.636 84.2299C103.636 85.3794 104.572 86.3153 105.722 86.3153C106.872 86.3153 107.807 85.3794 107.807 84.2299C107.807 83.0803 106.872 82.1445 105.722 82.1445Z" fill="#1977CC"/>
<path d="M175.853 77.1215H165.342C164.615 77.1215 164.024 76.5319 164.024 75.8033C164.024 75.0747 164.615 74.4851 165.342 74.4851H174.535V61.7255C174.535 60.9969 175.125 60.4073 175.853 60.4073C176.581 60.4073 177.171 60.9969 177.171 61.7255V75.8033C177.171 76.5319 176.581 77.1215 175.853 77.1215Z" fill="#1977CC"/>
<path d="M175.853 63.0437C173.25 63.0437 171.131 60.9261 171.131 58.3219C171.131 55.7177 173.25 53.6001 175.853 53.6001C178.457 53.6001 180.574 55.7177 180.574 58.3219C180.574 60.9261 178.457 63.0437 175.853 63.0437ZM175.853 56.2365C174.703 56.2365 173.768 57.1724 173.768 58.3219C173.768 59.4715 174.703 60.4073 175.853 60.4073C177.003 60.4073 177.938 59.4715 177.938 58.3219C177.938 57.1724 177.003 56.2365 175.853 56.2365Z" fill="#1977CC"/>
<path d="M175.853 108.051C175.125 108.051 174.535 107.462 174.535 106.733V93.9733H165.342C164.615 93.9733 164.024 93.3838 164.024 92.6552C164.024 91.9266 164.615 91.337 165.342 91.337H175.853C176.581 91.337 177.171 91.9266 177.171 92.6552V106.733C177.171 107.462 176.581 108.051 175.853 108.051Z" fill="#1977CC"/>
<path d="M175.853 114.858C173.25 114.858 171.131 112.741 171.131 110.137C171.131 107.532 173.25 105.415 175.853 105.415C178.457 105.415 180.574 107.532 180.574 110.137C180.574 112.741 178.457 114.858 175.853 114.858ZM175.853 108.051C174.703 108.051 173.768 108.987 173.768 110.137C173.768 111.286 174.703 112.222 175.853 112.222C177.003 112.222 177.938 111.286 177.938 110.137C177.938 108.987 177.003 108.051 175.853 108.051Z" fill="#1977CC"/>
<path d="M179.875 85.548H165.342C164.615 85.548 164.024 84.9584 164.024 84.2298C164.024 83.5012 164.615 82.9117 165.342 82.9117H179.875C180.603 82.9117 181.193 83.5012 181.193 84.2298C181.193 84.9584 180.603 85.548 179.875 85.548Z" fill="#1977CC"/>
<path d="M183.279 88.9516C180.675 88.9516 178.557 86.834 178.557 84.2298C178.557 81.6257 180.675 79.5081 183.279 79.5081C185.882 79.5081 188 81.6257 188 84.2298C188 86.834 185.882 88.9516 183.279 88.9516ZM183.279 82.1444C182.129 82.1444 181.193 83.0803 181.193 84.2298C181.193 85.3794 182.129 86.3152 183.279 86.3152C184.428 86.3152 185.364 85.3794 185.364 84.2298C185.364 83.0803 184.428 82.1444 183.279 82.1444Z" fill="#1977CC"/>
<path d="M270.433 23.9169L241.733 49.8835V51.9334H248.567L249.933 79.95H317.583V49.8835L288.883 23.9169H270.433Z" fill="white"/>
<rect x="273.167" y="57.4001" width="13.6666" height="8.19997" fill="#A2DFFF"/>
<rect x="254.033" y="57.4001" width="10.9333" height="23.2332" fill="#A2DFFF"/>
<rect x="297.767" y="57.4001" width="13.6666" height="8.19997" fill="#A2DFFF"/>
<path d="M244.467 34.8502L246.517 43.7335L270.433 23.9169H290.25C297.767 30.978 313.21 45.1001 314.85 45.1001C321.956 38.5402 319.633 29.1557 317.583 25.2835C315.761 21.4113 312.117 14.8969 312.117 19.8169C312.117 24.7369 309.383 27.3335 308.017 28.0169L305.967 22.5502L298.45 13.6669L292.983 8.8836V17.7669L289.567 21.1836L290.25 18.4502L285.467 15.0336L283.417 11.6169L284.1 6.15028L285.467 2.05029L278.633 6.15028L273.85 12.9836L273.167 17.7669L267.017 15.0336L265.65 12.3003L257.45 22.5502L256.083 26.6502L249.25 19.8169H243.1L244.467 21.8669L246.517 28.0169L244.467 34.8502Z" fill="#E0F4FC"/>
<path d="M270.433 40.2293L280.137 50.3987L282.107 48.5168L271.423 37.3101C271.159 37.0507 270.803 36.9054 270.433 36.9054C270.063 36.9054 269.708 37.0507 269.444 37.3101L258.759 48.5168L260.737 50.4041L270.433 40.2293Z" fill="#1977CC"/>
<path d="M271.8 57.4001V65.6001C271.8 65.9625 271.944 66.3101 272.2 66.5664C272.457 66.8227 272.804 66.9667 273.167 66.9667H286.833C287.196 66.9667 287.543 66.8227 287.8 66.5664C288.056 66.3101 288.2 65.9625 288.2 65.6001V57.4001C288.2 57.0376 288.056 56.69 287.8 56.4337C287.543 56.1774 287.196 56.0334 286.833 56.0334H273.167C272.804 56.0334 272.457 56.1774 272.2 56.4337C271.944 56.69 271.8 57.0376 271.8 57.4001ZM274.533 58.7668H285.467V64.2334H274.533V58.7668Z" fill="#1977CC"/>
<path d="M296.4 57.4001V65.6001C296.4 65.9625 296.544 66.3101 296.8 66.5664C297.056 66.8227 297.404 66.9667 297.767 66.9667H310.067C310.429 66.9667 310.777 66.8227 311.033 66.5664C311.289 66.3101 311.433 65.9625 311.433 65.6001V57.4001C311.433 57.0376 311.289 56.69 311.033 56.4337C310.777 56.1774 310.429 56.0334 310.067 56.0334H297.767C297.404 56.0334 297.056 56.1774 296.8 56.4337C296.544 56.69 296.4 57.0376 296.4 57.4001ZM299.133 58.7668H308.7V64.2334H299.133V58.7668Z" fill="#1977CC"/>
<path d="M321 32.0622C321.006 29.9505 320.594 27.8586 319.786 25.9075C318.978 23.9565 317.792 22.185 316.295 20.6957L312.4 16.8007C312.208 16.6096 311.965 16.4795 311.7 16.4268C311.435 16.3741 311.16 16.4011 310.91 16.5045C310.661 16.608 310.447 16.7831 310.297 17.0078C310.147 17.2325 310.067 17.4966 310.067 17.7669V21.0332C310.068 22.3249 309.748 23.5966 309.136 24.7341C308.858 25.2548 308.523 25.7434 308.138 26.191C306.488 20.975 303.43 16.3155 299.301 12.7253L293.22 7.1903C293 6.99068 292.721 6.86812 292.425 6.84117C292.129 6.81422 291.833 6.88436 291.581 7.04096C291.328 7.19756 291.134 7.4321 291.027 7.70909C290.919 7.98608 290.905 8.29043 290.987 8.5761L291.915 11.8124C292.234 12.9567 292.304 14.1564 292.12 15.3302C291.936 16.5039 291.501 17.6244 290.846 18.6156C290.677 17.5886 290.248 16.6221 289.598 15.8085C288.949 14.9949 288.102 14.3616 287.138 13.9689C287.099 13.9498 286.978 13.8897 286.939 13.8746C286.2 13.5862 285.589 13.0416 285.219 12.3403C284.848 11.639 284.742 10.8278 284.92 10.0548L286.794 1.66489C286.853 1.39848 286.832 1.12034 286.732 0.866307C286.632 0.612274 286.458 0.393994 286.233 0.239595C286.008 0.0851968 285.742 0.00175641 285.469 2.74243e-05C285.196 -0.00170156 284.929 0.07836 284.701 0.229894L279.222 3.87888C277.135 5.26588 275.388 7.10693 274.112 9.26435C272.836 11.4218 272.064 13.8397 271.855 16.3374C268.239 15.9602 267.7 13.9402 267.7 11.7809V10.9336C267.7 10.6566 267.616 10.3862 267.458 10.1583C267.301 9.93037 267.078 9.75562 266.819 9.65721C266.56 9.55881 266.277 9.54139 266.008 9.60728C265.739 9.67316 265.497 9.81922 265.313 10.0261L261.277 14.5648C258.86 17.2938 256.982 20.4553 255.741 23.8827C253.152 20.8513 249.547 18.8667 245.601 18.2999L241.925 17.7806C241.664 17.7436 241.398 17.783 241.158 17.894C240.919 18.005 240.717 18.1828 240.577 18.406C240.436 18.6292 240.363 18.8883 240.367 19.152C240.37 19.4156 240.45 19.6727 240.597 19.8921L243.837 24.7574C244.413 25.6223 244.784 26.6072 244.922 27.6371C245.06 28.667 244.962 29.7149 244.634 30.701C243.941 32.7791 243.589 34.9556 243.592 37.1462C243.593 39.0366 243.854 40.9179 244.367 42.7372C244.622 43.6178 244.942 44.4784 245.324 45.312L239.424 50.944C239.226 51.1324 239.089 51.3757 239.031 51.6426C238.973 51.9095 238.996 52.1877 239.098 52.4413C239.199 52.6948 239.374 52.9122 239.601 53.0653C239.827 53.2184 240.094 53.3002 240.367 53.3001H247.2V80.6333C247.2 80.9958 247.344 81.3434 247.601 81.5997C247.857 81.856 248.204 82 248.567 82H316.9C317.262 82 317.61 81.856 317.866 81.5997C318.123 81.3434 318.267 80.9958 318.267 80.6333V53.3001H319.633C319.906 53.3002 320.173 53.2184 320.4 53.0653C320.626 52.9122 320.801 52.6948 320.902 52.4413C321.004 52.1877 321.027 51.9095 320.969 51.6426C320.911 51.3757 320.774 51.1324 320.576 50.944L315.756 46.3424L319.297 39.2508C320.415 37.0193 320.998 34.5581 321 32.0622V32.0622ZM246.999 41.9964C246.552 40.4185 246.326 38.7862 246.326 37.1462C246.323 35.2512 246.626 33.3682 247.225 31.5702C247.685 30.1873 247.824 28.7176 247.631 27.273C247.438 25.8283 246.917 24.4468 246.11 23.2335L244.56 20.9102L245.214 21.0018C248.656 21.4973 251.78 23.2842 253.952 25.9997L255.138 27.4757C255.283 27.702 255.492 27.8803 255.739 27.9883C255.985 28.0963 256.258 28.1291 256.523 28.0827C256.788 28.0363 257.034 27.9127 257.229 27.7274C257.424 27.5421 257.56 27.3033 257.62 27.0411C258.661 23.0907 260.614 19.4396 263.323 16.3811L265.254 14.2136C266.097 17.4416 268.793 19.1336 273.167 19.1336C273.529 19.1336 273.877 18.9896 274.133 18.7333C274.389 18.477 274.533 18.1294 274.533 17.7669C274.528 15.4681 275.093 13.2039 276.177 11.1768C277.261 9.14959 278.83 7.42262 280.745 6.15027L283.391 4.38728L282.261 9.45623C281.934 10.8415 282.113 12.2976 282.764 13.5629C283.416 14.8282 284.497 15.8197 285.814 16.3592C285.849 16.377 285.968 16.4344 286.007 16.4508C286.653 16.7038 287.209 17.1461 287.6 17.7199C287.991 18.2936 288.201 18.9721 288.2 19.6666V21.8669H270.433H270.412C270.262 21.8693 270.114 21.8975 269.974 21.9502C269.931 21.9678 269.888 21.9879 269.847 22.0104C269.743 22.0596 269.646 22.1221 269.557 22.1962C269.534 22.2154 269.507 22.2222 269.486 22.2413L247.435 43.2975C247.275 42.8711 247.124 42.4406 246.999 41.9964ZM270.433 25.1236L290.425 44.2063L297.083 50.5668H292.862L271.39 29.2906C271.134 29.0369 270.788 28.8945 270.428 28.8945C270.068 28.8945 269.722 29.0369 269.466 29.2906L248.005 50.5668H243.784L270.433 25.1236ZM249.934 52.5033L270.433 32.1852L290.933 52.5033V79.2667H266.334V57.4001C266.334 57.0376 266.19 56.69 265.933 56.4337C265.677 56.1774 265.329 56.0334 264.967 56.0334H254.034C253.671 56.0334 253.323 56.1774 253.067 56.4337C252.811 56.69 252.667 57.0376 252.667 57.4001V79.2667H249.934V52.5033ZM255.4 79.2667V58.7667H263.6V79.2667H255.4ZM315.533 79.2667H293.667V53.3001H315.533V79.2667ZM301.047 50.5668L273.85 24.6002H289.02L316.217 50.5668H301.047ZM316.852 38.0249L313.686 44.3676L290.86 22.5775C292.358 21.3675 293.512 19.7857 294.208 17.9899C294.903 16.1942 295.115 14.2474 294.823 12.344L297.461 14.7452C301.778 18.4226 304.773 23.4113 305.99 28.9503C306.031 29.1721 306.127 29.3802 306.268 29.5561C306.409 29.732 306.591 29.8702 306.799 29.9585C307.007 30.0467 307.233 30.0822 307.457 30.0617C307.682 30.0413 307.898 29.9656 308.086 29.8413C309.53 28.8759 310.715 27.571 311.537 26.041C312.358 24.511 312.792 22.8027 312.8 21.066L314.362 22.6281C316.342 24.6075 317.648 27.1602 318.096 29.924C318.543 32.6877 318.108 35.5221 316.854 38.0249H316.852Z" fill="#1977CC"/>
<path d="M412.724 97.2656C414.428 96.7789 443.42 79.9384 443.42 64.5442C443.42 51.5836 443.42 46.8416 443.42 31.795C435.6 31.795 417.57 23.1731 412.71 18C407.85 23.1731 389.821 31.795 382 31.795C382 46.8555 382 51.5836 382 64.5442C382 79.9384 410.992 96.7789 412.696 97.2656H412.724Z" fill="white"/>
<path d="M412.71 18C407.85 23.1731 389.821 31.795 382 31.795V64.5442C382 79.9384 410.992 96.7789 412.696 97.2656H412.724C414.428 96.7789 443.42 79.9384 443.42 64.5442V31.795C435.6 31.795 417.57 23.1731 412.71 18ZM436.438 62.9728C436.438 74.8627 414.037 87.8789 412.724 88.2544H412.696C411.383 87.8789 388.983 74.8627 388.983 62.9728V37.6634C395.016 37.6634 408.953 31.0023 412.71 27.0112C416.467 31.0023 430.404 37.6634 436.438 37.6634V62.9728Z" fill="#A2DFFF"/>
<path d="M412.724 97.2656C414.428 96.7789 443.42 79.9384 443.42 64.5442C443.42 51.5836 443.42 46.8416 443.42 31.795C435.6 31.795 417.57 23.1731 412.71 18C407.85 23.1731 389.821 31.795 382 31.795C382 46.8555 382 51.5836 382 64.5442C382 79.9384 410.992 96.7789 412.696 97.2656H412.724Z" stroke="#1977CC" stroke-width="2" stroke-miterlimit="10" stroke-linecap="round" stroke-linejoin="round"/>
<path d="M430.153 75.1966C433.728 71.3724 436.437 67.1031 436.437 62.973C436.437 52.9605 436.437 49.3031 436.437 37.6636C430.404 37.6636 416.467 31.0025 412.71 27.0114C411.355 28.4577 408.674 30.2377 405.518 31.9342" stroke="#1977CC" stroke-width="2" stroke-miterlimit="10" stroke-linecap="round" stroke-linejoin="round"/>
<path d="M397.851 35.4661C394.429 36.7872 391.175 37.6633 388.983 37.6633C388.983 49.2889 388.983 52.9601 388.983 62.9726C388.983 74.8625 411.383 87.8787 412.696 88.2542H412.724C413.297 88.0873 417.794 85.5703 422.737 81.8017" stroke="#1977CC" stroke-width="2" stroke-miterlimit="10" stroke-linecap="round" stroke-linejoin="round"/>
<ellipse cx="400.696" cy="52.4342" rx="2" ry="3.5" transform="rotate(-24.0464 400.696 52.4342)" fill="#E0F4FC"/>
<ellipse cx="408.206" cy="48.4072" rx="2" ry="3.81966" transform="rotate(-9.74459 408.206 48.4072)" fill="#E0F4FC"/>
<ellipse cx="416.798" cy="48.8856" rx="2" ry="4.11495" transform="rotate(16.758 416.798 48.8856)" fill="#E0F4FC"/>
<ellipse cx="424.798" cy="52.4511" rx="2" ry="4.11495" transform="rotate(16.758 424.798 52.4511)" fill="#E0F4FC"/>
<path d="M406.696 56.9342L404.196 59.4342L404.696 66.4342L406.696 69.9342L411.696 70.9342L418.696 69.4342L421.696 64.9342V59.9342L419.696 57.9342L416.196 56.9342H406.696Z" fill="#E0F4FC"/>
<path d="M407.696 55.9342C406.371 55.9358 405.1 56.4631 404.163 57.4004C403.225 58.3378 402.698 59.6086 402.696 60.9342V61.9342C402.697 62.0071 402.704 62.0799 402.719 62.1512L403.849 67.2362C404.14 68.5717 404.881 69.7669 405.947 70.622C407.013 71.4771 408.341 71.9403 409.707 71.9342H415.685C417.052 71.9402 418.38 71.4767 419.446 70.6212C420.513 69.7657 421.253 68.5701 421.543 67.2342L422.673 62.1492C422.688 62.0785 422.696 62.0065 422.696 61.9342V60.9342C422.695 59.6086 422.168 58.3378 421.23 57.4004C420.293 56.4631 419.022 55.9358 417.696 55.9342H407.696ZM420.696 60.9342V61.8252L419.59 66.8022C419.397 67.6925 418.903 68.4893 418.192 69.0594C417.482 69.6295 416.597 69.9383 415.685 69.9342H409.707C408.797 69.9372 407.913 69.6279 407.204 69.0579C406.494 68.4879 406.001 67.6917 405.807 66.8022L404.696 61.8252V60.9342C404.696 60.1386 405.012 59.3755 405.575 58.8129C406.138 58.2503 406.901 57.9342 407.696 57.9342H417.696C418.492 57.9342 419.255 58.2503 419.818 58.8129C420.38 59.3755 420.696 60.1386 420.696 60.9342Z" fill="#1977CC"/>
<path d="M415.685 65.9342H409.707V67.9342H415.685C416.137 67.9374 416.577 67.7861 416.931 67.5053C417.286 67.2245 417.533 66.8311 417.633 66.3902L418.668 62.1722L416.724 61.6962L415.685 65.9342Z" fill="#1977CC"/>
<path d="M416.157 53.8502C416.295 53.8745 416.434 53.8869 416.573 53.8872C417.067 53.8576 417.547 53.7182 417.98 53.4791C418.412 53.24 418.786 52.9072 419.073 52.5052C419.847 51.4919 420.356 50.3017 420.554 49.0422C421.099 45.9552 420.028 43.3652 418.063 43.0182C417.501 42.9572 416.932 43.0501 416.417 43.287C415.903 43.5239 415.463 43.8958 415.143 44.3632C414.37 45.3765 413.861 46.5667 413.662 47.8262C413.121 50.9132 414.196 53.5032 416.157 53.8502ZM415.634 48.1732C415.776 47.2496 416.141 46.3745 416.696 45.6232C416.804 45.4581 416.943 45.3163 417.106 45.206C417.269 45.0957 417.452 45.0193 417.645 44.9812C417.669 44.9811 417.692 44.9831 417.715 44.9872C418.303 45.0872 418.951 46.6222 418.586 48.6952C418.443 49.6191 418.077 50.4943 417.52 51.2452C417.162 51.6862 416.77 51.9312 416.501 51.8812C415.917 51.7772 415.269 50.2462 415.634 48.1732V48.1732Z" fill="#1977CC"/>
<path d="M403.141 51.0862C402.168 48.4082 400.218 46.8272 398.612 47.4132C397.006 47.9992 396.528 50.4592 397.504 53.1382C397.872 54.2071 398.477 55.1788 399.273 55.9802C399.809 56.5501 400.543 56.8924 401.323 56.9362C401.565 56.9361 401.805 56.8935 402.032 56.8102C403.638 56.2252 404.116 53.7652 403.141 51.0862ZM401.348 54.9342C401.309 54.9442 401.061 54.9212 400.648 54.5342C400.093 53.9339 399.663 53.2288 399.383 52.4603C399.103 51.6917 398.98 50.8751 399.019 50.0582C399.085 49.4902 399.263 49.3102 399.296 49.2992C399.31 49.2942 399.324 49.2922 399.338 49.2932C399.638 49.2932 400.638 50.0492 401.262 51.7762C401.924 53.5892 401.582 54.8462 401.348 54.9342Z" fill="#1977CC"/>
<path d="M423.357 56.8082C423.585 56.8915 423.825 56.9341 424.066 56.9342C424.847 56.8902 425.581 56.5475 426.116 55.9772C426.914 55.176 427.52 54.2038 427.886 53.1342C428.861 50.4562 428.386 47.9962 426.777 47.4112C426.286 47.2698 425.765 47.273 425.276 47.4204C424.786 47.5678 424.35 47.8531 424.018 48.2422C423.238 49.0561 422.635 50.0238 422.249 51.0835C421.863 52.1433 421.703 53.2719 421.777 54.3972C421.783 54.9081 421.934 55.4068 422.214 55.8341C422.494 56.2615 422.891 56.5995 423.357 56.8082V56.8082ZM424.128 51.7682C424.392 50.9916 424.825 50.2834 425.396 49.6952C425.572 49.4873 425.811 49.344 426.077 49.2882H426.096C426.33 49.3732 426.672 50.6302 426.011 52.4502C425.747 53.2261 425.314 53.934 424.744 54.5232C424.331 54.9152 424.082 54.9372 424.044 54.9232C424.006 54.9092 423.833 54.7322 423.767 54.1632C423.71 53.348 423.833 52.5302 424.128 51.7682V51.7682Z" fill="#1977CC"/>
<path d="M406.231 52.5052C406.519 52.9073 406.892 53.24 407.325 53.4791C407.758 53.7182 408.238 53.8576 408.731 53.8872C408.871 53.8869 409.01 53.8745 409.147 53.8502C411.112 53.5032 412.183 50.9132 411.638 47.8262C411.44 46.5667 410.931 45.3765 410.157 44.3632C409.838 43.8961 409.397 43.5244 408.883 43.2876C408.369 43.0508 407.8 42.9577 407.237 43.0182C405.272 43.3652 404.201 45.9552 404.746 49.0422C404.946 50.3021 405.456 51.4923 406.231 52.5052V52.5052ZM407.589 44.9872C407.612 44.9831 407.636 44.9811 407.659 44.9812C407.852 45.0193 408.036 45.0957 408.199 45.206C408.362 45.3163 408.501 45.4581 408.608 45.6232C409.165 46.3741 409.531 47.2493 409.674 48.1732C410.039 50.2462 409.391 51.7732 408.803 51.8812C408.538 51.9322 408.142 51.6872 407.784 51.2452C407.227 50.4943 406.862 49.6191 406.718 48.6952C406.353 46.6222 407.001 45.0912 407.589 44.9872Z" fill="#1977CC"/>
<path d="M495 128.97L493 131.97V135.47L494.5 140.97L496.5 142.47L493 145.47L488.5 155.47L481 157.47L477.5 156.47L476.5 158.97L477.5 161.97H479.5L481 159.97H488.5L492 158.97L494.5 151.97L498 158.97L496 170.47V181.97L493.5 182.97L493 184.47V185.97H499.5L501 184.47V170.47L503.5 165.47H504.5V169.47L506.5 173.97L507.5 180.97L504.5 182.97V185.97L506.5 185.47H512L513 182.97L511 176.97L515 180.97L522.5 185.97L529.5 180.97L533 176.97L535 170.47V158.97H531.5L526.5 157.47L522.5 154.47L520.5 155.47L517 144.97L506.5 140.97H502.5V138.97V130.47L499 128.47L495 128.97Z" fill="white"/>
<path d="M510.444 159.256L522 154.97L528.5 157.827L535 159.97V164.97V172.113L531.389 177.827L527.056 182.113L522 184.97L519.111 183.542L513.333 178.542L509 174.256V161.399L510.444 159.256Z" fill="#E0F4FC"/>
<path d="M514 162.97L522 159.97L526.5 161.97L531 163.47V166.97V171.97L528.5 175.97L525.5 178.97L522 180.97L520 179.97L516 176.47L513 173.47V164.47L514 162.97Z" fill="#A2DFFF"/>
<path d="M516.739 178.679L521.431 181.927C521.598 182.043 521.797 182.105 522 182.105C522.203 182.105 522.402 182.043 522.569 181.927L527.262 178.678C528.724 177.666 529.918 176.315 530.744 174.74C531.569 173.165 532 171.413 532 169.635V163.006C532 162.759 531.909 162.522 531.744 162.338C531.579 162.155 531.352 162.039 531.107 162.012C528.021 161.679 525.082 160.519 522.6 158.656C522.427 158.526 522.216 158.456 522 158.456C521.784 158.456 521.573 158.526 521.4 158.656C518.918 160.519 515.979 161.679 512.894 162.012C512.649 162.039 512.422 162.155 512.257 162.338C512.092 162.522 512.001 162.759 512.001 163.006V169.635C512.001 171.413 512.432 173.165 513.257 174.74C514.082 176.315 515.277 177.667 516.739 178.679V178.679ZM514 163.883C516.874 163.436 519.609 162.344 522 160.688C524.391 162.344 527.126 163.436 530 163.883V169.635C530 171.09 529.647 172.523 528.972 173.812C528.297 175.101 527.319 176.207 526.123 177.035L522 179.888L517.878 177.034C516.682 176.206 515.704 175.1 515.029 173.812C514.353 172.523 514 171.09 514 169.635V163.883Z" fill="#1977CC"/>
<path d="M521 175.97C521.152 175.97 521.303 175.936 521.44 175.869C521.577 175.802 521.696 175.704 521.79 175.584L528.79 166.584L527.21 165.356L520.81 173.58L517.6 171.17L516.4 172.77L520.4 175.77C520.573 175.9 520.784 175.97 521 175.97Z" fill="#1977CC"/>
<path d="M477 186.97C477.265 186.97 477.52 186.865 477.707 186.677C477.895 186.49 478 186.235 478 185.97V163.05C478 163.022 478.01 162.998 478.012 162.97H479C479.64 162.97 480.263 162.764 480.777 162.382C480.921 162.575 480.999 162.809 481 163.05V164.09C481 164.355 481.105 164.61 481.293 164.797C481.48 164.985 481.735 165.09 482 165.09C482.265 165.09 482.52 164.985 482.707 164.797C482.895 164.61 483 164.355 483 164.09V163.05C483 162.283 482.717 161.542 482.205 160.97H489.117C490.166 160.971 491.19 160.641 492.041 160.028C492.892 159.414 493.529 158.548 493.86 157.552L495.056 153.97L496.967 159.07L495.016 169.791C495.005 169.85 495 169.91 495 169.97V181.248L494.047 181.564C493.451 181.766 492.934 182.148 492.567 182.659C492.2 183.169 492.002 183.781 492 184.41V185.97C492 186.235 492.105 186.49 492.293 186.677C492.48 186.865 492.735 186.97 493 186.97H499C499.796 186.97 500.559 186.654 501.121 186.091C501.684 185.529 502 184.766 502 183.97V170.206L503.618 166.97H504V169.97C504 170.052 504.01 170.134 504.03 170.213L506.805 181.313L506.047 181.564C505.451 181.766 504.934 182.148 504.567 182.659C504.2 183.169 504.002 183.781 504 184.41V185.97C504 186.235 504.105 186.49 504.293 186.677C504.48 186.865 504.735 186.97 505 186.97H510.59C511.031 186.97 511.466 186.872 511.866 186.684C512.265 186.497 512.618 186.224 512.899 185.885C513.181 185.545 513.385 185.148 513.496 184.721C513.607 184.295 513.623 183.849 513.543 183.415L513.063 180.867C513.508 181.261 513.975 181.628 514.463 181.967L521.432 186.791C521.599 186.907 521.798 186.969 522.001 186.969C522.204 186.969 522.403 186.907 522.57 186.791L529.538 181.97C531.532 180.59 533.162 178.746 534.287 176.598C535.413 174.45 536 172.06 536 169.635V158.97C536 158.828 535.97 158.688 535.911 158.559C535.853 158.43 535.768 158.314 535.662 158.221C535.555 158.127 535.43 158.057 535.295 158.015C535.159 157.973 535.017 157.961 534.876 157.978L534.626 158.009C532.415 158.291 530.169 158.009 528.096 157.191C526.024 156.374 524.191 155.045 522.768 153.33C522.671 153.222 522.553 153.136 522.42 153.077C522.288 153.018 522.145 152.988 522 152.988C521.855 152.988 521.712 153.018 521.58 153.077C521.447 153.136 521.329 153.222 521.232 153.33C521.09 153.5 520.932 153.646 520.78 153.808L519.388 147.692C519.305 147.301 519.184 146.919 519.026 146.552C518.682 145.701 518.171 144.926 517.524 144.275C516.876 143.623 516.105 143.108 515.256 142.758L511.035 140.991L511.023 140.983L507.356 139.449C506.214 138.982 504.941 138.951 503.778 139.364C503.918 138.912 503.993 138.443 504 137.97V132.97C504.001 132.182 503.847 131.401 503.546 130.672C503.245 129.943 502.804 129.281 502.247 128.723C501.937 128.412 501.591 128.138 501.217 127.906H501.21H501.203H501.195C500.23 127.311 499.119 126.998 497.986 127C496.852 127.002 495.742 127.321 494.78 127.92C493.929 128.46 493.229 129.206 492.743 130.089C492.257 130.972 492.001 131.963 492 132.97V137.97C492.004 139.058 492.362 140.115 493.022 140.98C493.682 141.846 494.606 142.472 495.654 142.763L494.276 143.345C493.621 143.622 493.033 144.034 492.55 144.556C492.068 145.077 491.701 145.695 491.476 146.369L490.059 150.623L488.288 155.051L480.937 155.97H479C478.204 155.97 477.441 156.286 476.879 156.849C476.316 157.411 476 158.174 476 158.97V160.97C476.002 161.289 476.081 161.602 476.231 161.883C476.079 162.254 476.001 162.65 476 163.05V185.97C476 186.235 476.105 186.49 476.293 186.677C476.48 186.865 476.735 186.97 477 186.97ZM511.362 184.606C511.268 184.72 511.15 184.812 511.017 184.875C510.883 184.938 510.738 184.97 510.59 184.97H506V184.41C506.001 184.2 506.068 183.996 506.19 183.825C506.313 183.655 506.486 183.527 506.685 183.459L508.314 182.919C508.554 182.84 508.754 182.673 508.876 182.452C508.998 182.231 509.031 181.972 508.97 181.727L506 169.847V165.97C506 165.705 505.895 165.451 505.707 165.263C505.52 165.075 505.265 164.97 505 164.97H503C502.814 164.97 502.632 165.022 502.474 165.119C502.316 165.217 502.188 165.357 502.105 165.523L500.105 169.523C500.036 169.662 500 169.815 500 169.97V183.97C500 184.235 499.895 184.49 499.707 184.677C499.52 184.865 499.265 184.97 499 184.97H494V184.41C494.001 184.2 494.068 183.996 494.19 183.825C494.313 183.655 494.486 183.527 494.685 183.459L496.314 182.919C496.514 182.853 496.687 182.726 496.81 182.556C496.934 182.385 497 182.18 497 181.97V170.06L498.834 159.97H508V169.635C508.005 172.545 508.858 175.391 510.453 177.824L511.577 183.783C511.605 183.928 511.599 184.077 511.562 184.219C511.525 184.361 511.457 184.494 511.362 184.606ZM508.613 146.742L513.389 148.736L515.814 157.219C514.204 157.838 512.488 158.135 510.764 158.094L506.8 145.985L508.613 146.742ZM522 155.47C523.542 157.069 525.415 158.31 527.488 159.107C529.562 159.904 531.784 160.237 534 160.082V169.639C534 171.741 533.49 173.811 532.515 175.672C531.54 177.534 530.128 179.131 528.4 180.327L522 184.754L515.6 180.323C513.872 179.127 512.46 177.53 511.485 175.668C510.51 173.807 510 171.737 510 169.635V160.078C512.215 160.233 514.438 159.901 516.511 159.105C518.584 158.309 520.458 157.068 522 155.47V155.47ZM517.188 147.342C517.295 147.595 517.378 147.857 517.435 148.126L519.084 155.37C518.625 155.724 518.144 156.047 517.643 156.337L515.182 147.726C515.141 147.582 515.067 147.448 514.967 147.336C514.868 147.224 514.744 147.136 514.605 147.078L510.31 145.283L511.176 143.218L514.487 144.604C515.097 144.857 515.65 145.229 516.114 145.698C516.578 146.168 516.943 146.725 517.188 147.338V147.342ZM500.6 143.622C500.696 144.014 500.648 144.427 500.465 144.785C500.281 145.144 499.974 145.425 499.6 145.575C499.379 145.664 499.142 145.704 498.904 145.693C498.666 145.682 498.433 145.62 498.221 145.512C498.009 145.403 497.823 145.251 497.675 145.064C497.527 144.878 497.421 144.662 497.363 144.431L497.314 144.231L500.422 142.918L500.6 143.622ZM501.06 130.41C501.112 130.473 501.166 130.534 501.214 130.599C501.274 130.682 501.335 130.763 501.389 130.849C501.468 130.978 501.539 131.112 501.603 131.249C501.644 131.336 501.69 131.421 501.725 131.51C501.783 131.666 501.831 131.825 501.869 131.986C501.889 132.065 501.917 132.141 501.932 132.221C501.978 132.468 502.001 132.719 502 132.97V133.208C501.613 132.864 501.322 132.424 501.156 131.933C500.991 131.442 500.956 130.917 501.055 130.408L501.06 130.41ZM494 132.97C494.002 132.758 494.021 132.547 494.056 132.338C494.065 132.28 494.077 132.223 494.089 132.166C494.122 132.003 494.166 131.842 494.22 131.684C494.235 131.64 494.246 131.596 494.263 131.553C494.336 131.361 494.424 131.174 494.526 130.995C494.548 130.957 494.573 130.921 494.597 130.883C494.686 130.739 494.783 130.601 494.889 130.469C494.908 130.447 494.926 130.424 494.945 130.401C495.044 130.911 495.009 131.437 494.843 131.929C494.677 132.421 494.387 132.862 494 133.208V132.97ZM494 137.97V135.548C494.892 135.161 495.652 134.521 496.185 133.708C496.718 132.894 497.001 131.943 497 130.97C496.997 130.368 496.883 129.771 496.665 129.21C497.526 128.89 498.473 128.89 499.334 129.21C498.871 130.406 498.89 131.735 499.387 132.917C499.885 134.1 500.821 135.043 502 135.548V137.97C502 138.766 501.684 139.529 501.121 140.091C500.559 140.654 499.796 140.97 499 140.97H497C496.204 140.97 495.441 140.654 494.879 140.091C494.316 139.529 494 138.766 494 137.97ZM493.377 147.002C493.512 146.598 493.731 146.227 494.02 145.914C494.31 145.601 494.662 145.353 495.055 145.187L495.455 145.018C495.715 145.946 496.329 146.734 497.166 147.212C498.002 147.69 498.994 147.819 499.925 147.571C500.856 147.323 501.652 146.719 502.14 145.888C502.628 145.058 502.77 144.068 502.534 143.134L502.28 142.134L504.258 141.298C504.626 141.144 505.021 141.065 505.42 141.065C505.82 141.065 506.215 141.144 506.583 141.298L509.328 142.446L508.462 144.515L506.775 143.809C506.53 143.708 506.255 143.708 506.01 143.809L505.084 144.188C504.851 144.284 504.662 144.465 504.556 144.694C504.451 144.923 504.435 145.184 504.514 145.424L508.621 157.97H498.693L495.937 150.619L495.93 150.607C495.9 150.529 495.86 150.454 495.811 150.386L495.8 150.37C495.783 150.35 495.766 150.33 495.747 150.311C495.704 150.262 495.656 150.217 495.604 150.177C495.579 150.158 495.554 150.142 495.528 150.126C495.474 150.092 495.417 150.064 495.357 150.042C495.331 150.031 495.304 150.021 495.277 150.012C495.187 149.985 495.094 149.971 495 149.97H492.388L493.377 147.002ZM478 158.97C478 158.705 478.105 158.451 478.293 158.263C478.48 158.075 478.735 157.97 479 157.97H481C481.041 157.97 481.083 157.968 481.124 157.962L489.124 156.962C489.3 156.939 489.468 156.87 489.608 156.761C489.749 156.652 489.858 156.507 489.924 156.342L491.677 151.97H493.613L491.963 156.919C491.764 157.516 491.382 158.036 490.871 158.404C490.36 158.772 489.747 158.97 489.117 158.97H481C480.735 158.97 480.48 159.075 480.293 159.263C480.105 159.451 480 159.705 480 159.97C480 160.235 479.895 160.49 479.707 160.677C479.52 160.865 479.265 160.97 479 160.97H478V158.97Z" fill="#1977CC"/>
</svg>
