<svg width="692" height="408" viewBox="0 0 692 408" fill="none" xmlns="http://www.w3.org/2000/svg">
<path d="M205.78 46.3059C203.729 47.9158 201.674 49.5808 199.669 51.2536C199.036 51.7808 198.93 52.7493 199.43 53.4163C199.719 53.7999 200.145 54 200.576 54C200.894 54 201.215 53.891 201.482 53.6678C203.465 52.0143 205.499 50.3672 207.527 48.7752C208.173 48.2673 208.307 47.3026 207.825 46.6214C207.343 45.9377 206.427 45.7966 205.78 46.3059Z" fill="#A2DFFF"/>
<path d="M217.668 39.2003C215.363 40.3667 213.048 41.5766 210.787 42.7945C210.073 43.1786 209.901 43.9357 210.401 44.4835C210.708 44.8201 211.197 45 211.694 45C212.007 45 212.323 44.9282 212.599 44.7797C214.835 43.5748 217.125 42.3791 219.404 41.2248C220.133 40.8569 220.334 40.1039 219.854 39.5449C219.375 38.987 218.397 38.8313 217.668 39.2003Z" fill="#A2DFFF"/>
<path d="M229.039 31.2007C226.942 32.5061 224.834 33.8637 222.772 35.2363C222.122 35.6693 221.92 36.5889 222.321 37.2907C222.583 37.7486 223.037 38 223.5 38C223.749 38 224 37.9278 224.226 37.7773C226.265 36.4196 228.35 35.077 230.423 33.7866C231.085 33.3747 231.311 32.4613 230.929 31.747C230.548 31.0328 229.701 30.7876 229.039 31.2007Z" fill="#A2DFFF"/>
<path d="M148.457 108.254C147.786 107.784 146.885 107.985 146.445 108.702C145.048 110.981 143.663 113.313 142.33 115.634C141.91 116.366 142.124 117.323 142.809 117.771C143.046 117.926 143.309 118 143.568 118C144.057 118 144.534 117.737 144.809 117.259C146.127 114.964 147.497 112.658 148.878 110.403C149.316 109.687 149.129 108.724 148.457 108.254Z" fill="#A2DFFF"/>
<path d="M194.186 55.3457C192.614 57.0044 191.039 58.7158 189.507 60.4297C189.023 60.9708 188.981 61.902 189.412 62.508C189.644 62.8344 189.966 63 190.288 63C190.566 63 190.845 62.8773 191.068 62.627C192.584 60.9315 194.141 59.2397 195.697 57.5994C196.192 57.0768 196.257 56.148 195.839 55.5248C195.422 54.9028 194.682 54.8218 194.186 55.3457Z" fill="#A2DFFF"/>
<path d="M128.353 147.105C127.717 146.822 126.981 147.131 126.71 147.797C125.847 149.913 125.003 152.07 124.202 154.211C123.949 154.885 124.266 155.645 124.91 155.909C125.06 155.971 125.215 156 125.367 156C125.867 156 126.339 155.684 126.533 155.168C127.326 153.052 128.161 150.917 129.015 148.825C129.285 148.159 128.99 147.389 128.353 147.105Z" fill="#A2DFFF"/>
<path d="M134.337 134.141C133.644 133.811 132.801 134.08 132.456 134.74C131.358 136.836 130.277 138.978 129.245 141.104C128.919 141.774 129.226 142.567 129.93 142.876C130.12 142.96 130.32 143 130.518 143C131.048 143 131.555 142.713 131.793 142.225C132.814 140.122 133.882 138.005 134.968 135.932C135.312 135.271 135.031 134.47 134.337 134.141Z" fill="#A2DFFF"/>
<path d="M123.04 160.076C122.198 159.835 121.27 160.185 120.969 160.855C120.008 162.987 119.075 165.159 118.195 167.312C117.918 167.989 118.384 168.716 119.235 168.937C119.401 168.98 119.57 169 119.736 169C120.419 169 121.054 168.654 121.277 168.109C122.146 165.981 123.069 163.833 124.02 161.725C124.321 161.055 123.883 160.317 123.04 160.076Z" fill="#A2DFFF"/>
<path d="M118.27 173.063C117.647 172.822 116.994 173.294 116.812 174.119C116.233 176.741 115.674 179.41 115.153 182.053C114.989 182.883 115.365 183.733 115.993 183.949C116.093 183.984 116.192 184 116.291 184C116.812 184 117.289 183.536 117.426 182.838C117.941 180.225 118.493 177.586 119.067 174.993C119.25 174.167 118.893 173.304 118.27 173.063Z" fill="#A2DFFF"/>
<path d="M141.452 121.181C140.82 120.806 140.015 121.032 139.652 121.685C138.501 123.76 137.363 125.882 136.271 127.992C135.927 128.656 136.169 129.483 136.811 129.839C137.009 129.949 137.222 130 137.433 130C137.903 130 138.359 129.738 138.596 129.279C139.676 127.193 140.8 125.094 141.94 123.042C142.302 122.39 142.084 121.557 141.452 121.181Z" fill="#A2DFFF"/>
<path d="M172.932 75.4279C171.415 77.1643 169.902 78.9495 168.433 80.7336C167.97 81.2965 168.018 82.1568 168.54 82.6561C168.781 82.8865 169.08 83 169.377 83C169.726 83 170.073 82.8456 170.323 82.5426C171.775 80.7779 173.272 79.0131 174.772 77.2948C175.249 76.7467 175.225 75.8853 174.718 75.37C174.21 74.8548 173.41 74.8809 172.932 75.4279Z" fill="#A2DFFF"/>
<path d="M184.064 65.386C182.518 67.0855 180.972 68.8356 179.47 70.588C178.996 71.1404 178.997 72.0354 179.472 72.5866C179.708 72.8622 180.019 73 180.33 73C180.642 73 180.953 72.8622 181.19 72.5855C182.676 70.853 184.205 69.1217 185.734 67.4411C186.222 66.9053 186.243 66.0102 185.783 65.4437C185.321 64.8749 184.553 64.8501 184.064 65.386Z" fill="#A2DFFF"/>
<path d="M156.557 97.3147C155.945 96.7892 155.079 96.9369 154.625 97.6447C153.183 99.8917 151.749 102.193 150.363 104.49C149.927 105.213 150.08 106.208 150.705 106.713C150.946 106.907 151.222 107 151.494 107C151.931 107 152.36 106.762 152.628 106.318C153.998 104.048 155.415 101.77 156.842 99.5485C157.297 98.8407 157.169 97.8403 156.557 97.3147Z" fill="#A2DFFF"/>
<path d="M165.642 86.3452C165.085 85.8205 164.253 85.9032 163.786 86.5303C162.304 88.5215 160.828 90.5646 159.398 92.6014C158.947 93.2433 159.045 94.1754 159.616 94.6815C159.858 94.8963 160.146 95 160.431 95C160.821 95 161.207 94.8062 161.467 94.4358C162.88 92.4212 164.34 90.4016 165.807 88.4314C166.275 87.8043 166.2 86.871 165.642 86.3452Z" fill="#A2DFFF"/>
<path d="M536.07 83.4577C535.666 82.903 534.962 82.8442 534.498 83.3268C534.034 83.8094 533.984 84.6504 534.388 85.2052C535.654 86.9448 536.916 88.73 538.138 90.5129C538.358 90.8347 538.679 91 539.001 91C539.25 91 539.5 90.9012 539.707 90.6982C540.183 90.2322 540.253 89.3935 539.862 88.8243C538.626 87.0225 537.349 85.2163 536.07 83.4577Z" fill="#A2DFFF"/>
<path d="M544.901 94.5024C544.376 93.9378 543.399 93.8335 542.72 94.269C542.04 94.7046 541.914 95.5156 542.439 96.0792C544.084 97.8463 545.719 99.6596 547.301 101.468C547.606 101.815 548.08 102 548.561 102C548.879 102 549.197 101.919 549.473 101.754C550.168 101.335 550.322 100.528 549.818 99.9511C548.218 98.1238 546.564 96.29 544.901 94.5024Z" fill="#A2DFFF"/>
<path d="M554.354 106.548C553.972 105.975 553.21 105.828 552.65 106.218C552.091 106.609 551.947 107.39 552.328 107.963C553.524 109.757 554.711 111.593 555.855 113.422C556.089 113.796 556.485 114 556.89 114C557.116 114 557.345 113.936 557.55 113.801C558.12 113.428 558.286 112.651 557.921 112.067C556.764 110.219 555.564 108.362 554.354 106.548Z" fill="#A2DFFF"/>
<path d="M510.652 57.7034C508.889 56.2129 507.079 54.7278 505.275 53.2907C504.706 52.837 503.871 52.924 503.41 53.4843C502.949 54.0446 503.038 54.8671 503.607 55.3208C505.392 56.7427 507.181 58.2114 508.925 59.6856C509.175 59.8966 509.482 60 509.788 60C510.162 60 510.533 59.8455 510.795 59.5452C511.272 58.9969 511.208 58.1734 510.652 57.7034Z" fill="#A2DFFF"/>
<path d="M515.697 62.3259C515.067 61.8605 514.09 61.8981 513.517 62.4094C512.943 62.9207 512.989 63.7127 513.619 64.1781C515.596 65.639 517.575 67.1426 519.499 68.6483C519.799 68.8831 520.185 69 520.57 69C520.974 69 521.378 68.8717 521.682 68.6171C522.274 68.1193 522.257 67.3263 521.643 66.8463C519.696 65.3238 517.696 63.8024 515.697 62.3259Z" fill="#A2DFFF"/>
<path d="M584.793 169.346C584.565 168.333 583.796 167.77 583.074 168.089C582.352 168.408 581.951 169.489 582.178 170.502C582.264 170.884 582.349 171.265 582.434 171.647C582.617 172.471 583.158 173 583.743 173C583.878 173 584.015 172.971 584.151 172.913C584.874 172.598 585.277 171.52 585.053 170.505C584.965 170.117 584.879 169.733 584.793 169.346Z" fill="#A2DFFF"/>
<path d="M561.922 118.595C561.493 118.015 560.565 117.827 559.849 118.175C559.134 118.522 558.901 119.275 559.33 119.854C560.675 121.671 562.007 123.529 563.284 125.374C563.561 125.774 564.075 126 564.604 126C564.855 126 565.108 125.95 565.342 125.843C566.07 125.512 566.33 124.765 565.922 124.176C564.629 122.311 563.284 120.433 561.922 118.595Z" fill="#A2DFFF"/>
<path d="M582.056 162.273C581.451 160.127 580.811 157.961 580.154 155.837C579.947 155.167 579.338 154.83 578.794 155.086C578.25 155.341 577.977 156.092 578.184 156.763C578.833 158.864 579.466 161.005 580.064 163.127C580.215 163.664 580.623 164 581.059 164C581.174 164 581.291 163.977 581.405 163.927C581.957 163.692 582.247 162.951 582.056 162.273Z" fill="#A2DFFF"/>
<path d="M568.71 129.723C568.358 129.064 567.526 128.809 566.853 129.154C566.18 129.498 565.92 130.312 566.272 130.972C567.375 133.037 568.461 135.146 569.5 137.241C569.739 137.72 570.228 138 570.739 138C570.941 138 571.146 137.956 571.34 137.864C572.023 137.538 572.308 136.732 571.976 136.063C570.925 133.944 569.826 131.81 568.71 129.723Z" fill="#A2DFFF"/>
<path d="M578.002 149.171C577.015 147.037 575.981 144.886 574.927 142.78C574.594 142.115 573.723 141.817 572.982 142.117C572.242 142.416 571.911 143.2 572.245 143.865C573.287 145.947 574.311 148.074 575.285 150.185C575.52 150.694 576.067 151 576.644 151C576.832 151 577.023 150.967 577.208 150.899C577.958 150.619 578.313 149.845 578.002 149.171Z" fill="#A2DFFF"/>
<path d="M526.254 71.4667C525.773 70.8545 524.983 70.8429 524.49 71.4421C523.998 72.0401 523.988 73.0217 524.471 73.6339C525.978 75.5519 527.486 77.5254 528.952 79.5002C529.198 79.8321 529.533 80 529.868 80C530.171 80 530.474 79.8644 530.713 79.5893C531.219 79.0094 531.251 78.0291 530.785 77.3988C529.303 75.4008 527.778 73.4053 526.254 71.4667Z" fill="#A2DFFF"/>
<path d="M498.672 48.5454C497.104 47.0931 495.497 45.65 493.894 44.2558C493.389 43.8161 492.687 43.9573 492.325 44.5713C491.963 45.1852 492.08 46.0384 492.585 46.478C494.169 47.8574 495.758 49.2846 497.309 50.7209C497.512 50.9089 497.752 51 497.989 51C498.329 51 498.663 50.8143 498.884 50.4612C499.261 49.8598 499.166 49.0021 498.672 48.5454Z" fill="#A2DFFF"/>
<path d="M475.516 32.5766C473.677 31.4154 471.795 30.2661 469.922 29.1624C469.333 28.8151 468.592 29.043 468.267 29.6735C467.942 30.303 468.155 31.0952 468.745 31.4425C470.596 32.5343 472.457 33.6706 474.276 34.8188C474.471 34.9414 474.684 35 474.895 35C475.311 35 475.718 34.771 475.945 34.3597C476.287 33.7411 476.095 32.9423 475.516 32.5766Z" fill="#A2DFFF"/>
<path d="M487.562 39.7462C485.744 38.5397 483.883 37.3435 482.031 36.1904C481.447 35.827 480.677 35.9995 480.308 36.5745C479.939 37.1495 480.114 37.9113 480.697 38.2738C482.528 39.4135 484.368 40.5964 486.167 41.7895C486.381 41.9312 486.624 42 486.864 42C487.266 42 487.66 41.809 487.902 41.4558C488.287 40.8921 488.135 40.1261 487.562 39.7462Z" fill="#A2DFFF"/>
<path d="M471.271 211.523C469.235 205.55 463.649 201.505 457.335 201.457C448.302 201.386 434.133 200.504 419.491 196.548C414.957 195.323 404.963 187.825 398.617 182.806C394.853 179.829 390.198 178.208 385.399 178.195C370.302 178.156 337.818 178.075 337.492 178.118C337.475 178.121 337.459 178.123 337.442 178.125C330.765 178.121 324.454 178.116 319.624 178.114C313.651 178.11 307.757 179.471 302.391 182.093C288.856 188.705 263.149 201.26 262.368 201.618C262.04 201.765 261.869 201.842 261.869 201.842C231.434 206.692 210.706 216.541 198.292 223.277C191.758 226.822 187.694 233.662 187.694 241.095V254.332C187.694 259.578 190.797 264.327 195.603 266.436C197.612 267.317 199.782 267.772 201.976 267.772H444.899L464.868 266.049C469.795 265.623 473.875 262.023 474.874 257.182C475.834 252.532 476.667 245.957 476.448 237.59C476.196 228.06 473.637 218.467 471.271 211.523Z" fill="#E0F4FC"/>
<path d="M476.975 223.083C476.108 219.087 474.945 214.94 473.52 210.756C471.16 203.829 464.664 199.136 457.353 199.08C448.252 199.01 434.403 198.115 420.11 194.253C417.033 193.422 409.736 188.57 400.09 180.941C398.01 179.296 395.684 178.019 393.178 177.144C390.673 176.271 388.058 175.825 385.404 175.818C372.731 175.786 350.134 175.729 341.194 175.729C338.174 175.729 337.548 175.732 337.314 175.748C330.684 175.744 324.423 175.739 319.625 175.737H319.601C316.452 175.737 313.3 176.097 310.233 176.806C307.166 177.515 304.175 178.575 301.346 179.958C276.647 192.024 262.093 199.125 261.38 199.456C261.304 199.49 261.237 199.52 261.178 199.547C247.68 201.718 234.667 205.109 222.494 209.625C211.079 213.86 202.566 218.252 197.157 221.188C189.852 225.151 185.314 232.779 185.315 241.094V254.33C185.315 260.518 188.978 266.123 194.646 268.61C196.97 269.629 199.435 270.146 201.974 270.146H444.898C444.966 270.146 445.035 270.143 445.103 270.137L465.071 268.414C468.003 268.161 470.717 266.998 472.918 265.049C475.125 263.095 476.606 260.54 477.2 257.66C478.465 251.526 479.011 244.751 478.821 237.526C478.705 233.053 478.083 228.193 476.975 223.083ZM474.874 257.182C473.875 262.023 469.795 265.624 464.867 266.049L444.899 267.772H201.975C199.782 267.772 197.612 267.317 195.603 266.436C190.797 264.327 187.693 259.577 187.693 254.331V241.095C187.693 233.663 191.758 226.822 198.292 223.277C210.704 216.542 231.434 206.692 261.869 201.842C261.869 201.842 262.041 201.764 262.368 201.618C263.15 201.26 288.856 188.704 302.39 182.093C307.751 179.474 313.636 178.114 319.602 178.114C319.609 178.114 319.617 178.114 319.624 178.114C324.452 178.116 330.765 178.121 337.442 178.125C337.459 178.123 337.474 178.121 337.491 178.118C337.557 178.109 338.925 178.106 341.195 178.106C350.193 178.106 373.342 178.164 385.398 178.195C390.198 178.208 394.853 179.829 398.616 182.805C404.963 187.825 414.957 195.323 419.491 196.548C434.133 200.503 448.301 201.386 457.335 201.457C463.648 201.505 469.235 205.55 471.27 211.523C473.637 218.468 476.196 228.061 476.446 237.59C476.667 245.957 475.834 252.532 474.874 257.182Z" fill="#1977CC"/>
<path d="M187.693 242.164V254.331C187.693 257.599 188.898 260.674 190.968 263.038C192.129 263.43 193.373 263.641 194.667 263.641H466.937C468.867 263.641 470.685 263.168 472.284 262.334C473.555 260.908 474.469 259.148 474.874 257.182C475.629 253.524 476.306 248.673 476.453 242.696C475.86 242.357 475.174 242.164 474.443 242.164H187.693Z" fill="#A2DFFF"/>
<path d="M474.442 248.442H187.162C184.915 248.442 183.094 250.262 183.094 252.508V258.351C183.094 264.74 188.276 269.919 194.667 269.919H466.938C473.33 269.919 478.511 264.74 478.511 258.351V252.508C478.51 250.262 476.689 248.442 474.442 248.442Z" fill="#E0F4FC"/>
<path d="M474.442 246.066H187.162C183.608 246.066 180.717 248.955 180.717 252.508V258.351C180.717 262.075 182.168 265.577 184.803 268.21C187.438 270.844 190.941 272.294 194.667 272.294H466.938C470.664 272.294 474.167 270.844 476.802 268.21C479.437 265.577 480.888 262.075 480.888 258.351V252.508C480.887 248.955 477.996 246.066 474.442 246.066ZM478.51 258.351C478.51 264.739 473.328 269.919 466.936 269.919H194.666C188.274 269.919 183.093 264.739 183.093 258.351V252.508C183.093 250.262 184.914 248.442 187.16 248.442H474.442C476.689 248.442 478.51 250.262 478.51 252.508V258.351Z" fill="#1977CC"/>
<path d="M194.666 269.919H466.936C471.145 269.919 474.828 267.673 476.854 264.317H184.748C186.774 267.673 190.457 269.919 194.666 269.919Z" fill="#A2DFFF"/>
<path d="M245.074 234.351C229.064 234.351 216.084 247.324 216.084 263.328C216.084 265.701 216.401 267.996 216.938 270.201H273.207C273.746 267.995 274.062 265.701 274.062 263.328C274.063 247.324 261.084 234.351 245.074 234.351Z" fill="#A2DFFF"/>
<path d="M267.252 241.158C264.373 238.28 261.018 236.02 257.283 234.441C253.414 232.805 249.307 231.975 245.072 231.975C240.838 231.975 236.73 232.805 232.862 234.441C229.127 236.02 225.772 238.28 222.892 241.158C220.013 244.036 217.751 247.39 216.171 251.123C214.535 254.99 213.705 259.097 213.705 263.328C213.705 265.753 214.015 268.255 214.628 270.764C214.887 271.829 215.841 272.576 216.937 272.576H273.206C274.301 272.576 275.256 271.828 275.515 270.764C276.127 268.255 276.437 265.753 276.437 263.328C276.437 259.097 275.608 254.99 273.971 251.123C272.394 247.39 270.133 244.038 267.252 241.158ZM273.208 270.202H216.939C216.4 267.996 216.084 265.703 216.084 263.329C216.084 247.325 229.063 234.352 245.075 234.352C261.086 234.352 274.065 247.325 274.065 263.329C274.063 265.703 273.746 267.996 273.208 270.202Z" fill="#1977CC"/>
<path d="M373.936 178.166C363.737 178.141 334.576 178.122 319.625 178.114C313.653 178.11 307.758 179.471 302.392 182.092C288.796 188.734 262.916 201.374 262.359 201.623H406.085C408.645 201.623 408.491 200.26 405.888 196.94C401.145 190.89 386.835 178.166 373.936 178.166Z" fill="white"/>
<path d="M407.759 195.475C402.725 189.054 387.838 175.793 373.943 175.79C363.871 175.765 335.589 175.747 319.628 175.738H319.626H319.605C316.456 175.738 313.304 176.098 310.237 176.807C307.169 177.516 304.179 178.576 301.349 179.959C276.603 192.047 262.041 199.153 261.379 199.46C260.362 199.92 259.802 201.026 260.035 202.119C260.27 203.216 261.238 204 262.36 204H406.086C406.849 204 407.485 203.907 408.031 203.717C409.159 203.324 409.712 202.591 409.978 202.046C410.481 201.015 410.398 199.804 409.735 198.445C409.334 197.629 408.707 196.686 407.759 195.475ZM406.083 201.624H262.358C262.916 201.375 288.795 188.736 302.391 182.094C307.751 179.475 313.637 178.115 319.603 178.115C319.61 178.115 319.617 178.115 319.624 178.115C334.575 178.123 363.737 178.142 373.935 178.167C386.833 178.167 401.143 190.891 405.885 196.941C408.49 200.262 408.644 201.624 406.083 201.624Z" fill="#1977CC"/>
<path d="M260.996 279.247C269.793 270.455 269.793 256.2 260.996 247.407C252.2 238.615 237.938 238.615 229.141 247.407C220.345 256.2 220.345 270.455 229.141 279.247C237.938 288.04 252.2 288.04 260.996 279.247Z" fill="#A2DFFF"/>
<path d="M262.682 245.728C260.395 243.443 257.732 241.648 254.766 240.395C251.695 239.096 248.434 238.438 245.073 238.438C241.713 238.438 238.451 239.096 235.38 240.395C232.415 241.648 229.751 243.443 227.465 245.728C225.179 248.013 223.383 250.675 222.129 253.639C220.83 256.71 220.171 259.969 220.171 263.328C220.171 266.687 220.83 269.947 222.129 273.018C223.383 275.982 225.179 278.644 227.465 280.929C229.751 283.215 232.415 285.009 235.38 286.262C238.452 287.561 241.713 288.22 245.073 288.22C248.434 288.22 251.696 287.561 254.766 286.262C257.732 285.009 260.395 283.215 262.682 280.929C264.968 278.644 266.763 275.982 268.017 273.018C269.317 269.947 269.975 266.688 269.975 263.328C269.975 259.968 269.317 256.709 268.017 253.639C266.763 250.675 264.968 248.013 262.682 245.728ZM245.073 285.844C232.633 285.844 222.548 275.764 222.548 263.329C222.548 250.895 232.633 240.815 245.073 240.815C257.514 240.815 267.598 250.895 267.598 263.329C267.598 275.764 257.514 285.844 245.073 285.844Z" fill="#1977CC"/>
<path d="M245.805 270.918C250 270.503 253.064 266.767 252.649 262.574C252.233 258.381 248.496 255.318 244.301 255.733C240.106 256.148 237.042 259.884 237.457 264.077C237.872 268.27 241.61 271.333 245.805 270.918Z" fill="#E0F4FC"/>
<path d="M245.073 254.511C240.209 254.511 236.252 258.466 236.252 263.329C236.252 268.191 240.209 272.146 245.073 272.146C249.938 272.146 253.895 268.191 253.895 263.329C253.895 258.466 249.937 254.511 245.073 254.511ZM245.073 269.769C241.519 269.769 238.628 266.88 238.628 263.328C238.628 259.775 241.519 256.886 245.073 256.886C248.627 256.886 251.518 259.775 251.518 263.328C251.518 266.88 248.626 269.769 245.073 269.769Z" fill="#1977CC"/>
<path d="M426.794 234.351C410.784 234.351 397.804 247.324 397.804 263.328C397.804 265.701 398.12 267.996 398.658 270.201H454.927C455.466 267.995 455.782 265.701 455.782 263.328C455.784 247.324 442.804 234.351 426.794 234.351Z" fill="#A2DFFF"/>
<path d="M448.974 241.158C446.094 238.28 442.739 236.02 439.004 234.441C435.136 232.805 431.028 231.975 426.794 231.975C422.56 231.975 418.452 232.805 414.583 234.441C410.848 236.02 407.493 238.28 404.614 241.158C401.735 244.036 399.473 247.39 397.893 251.123C396.256 254.99 395.427 259.097 395.427 263.328C395.427 265.753 395.737 268.255 396.349 270.764C396.608 271.829 397.563 272.576 398.658 272.576H454.927C456.023 272.576 456.977 271.828 457.236 270.764C457.849 268.255 458.159 265.753 458.159 263.328C458.159 259.097 457.329 254.99 455.692 251.123C454.115 247.39 451.853 244.038 448.974 241.158ZM454.928 270.202H398.659C398.121 267.996 397.805 265.703 397.805 263.329C397.805 247.325 410.784 234.352 426.795 234.352C442.805 234.352 455.785 247.325 455.785 263.329C455.784 265.703 455.467 267.996 454.928 270.202Z" fill="#1977CC"/>
<path d="M442.717 279.248C451.513 270.456 451.513 256.201 442.717 247.408C433.92 238.616 419.658 238.616 410.862 247.408C402.065 256.201 402.065 270.456 410.862 279.248C419.658 288.041 433.92 288.041 442.717 279.248Z" fill="#A2DFFF"/>
<path d="M444.403 245.727C442.117 243.442 439.453 241.648 436.488 240.394C433.416 239.095 430.155 238.437 426.794 238.437C423.432 238.437 420.171 239.095 417.1 240.394C414.135 241.648 411.472 243.442 409.185 245.727C406.899 248.012 405.104 250.674 403.85 253.639C402.55 256.709 401.892 259.968 401.892 263.327C401.892 266.686 402.55 269.947 403.85 273.017C405.104 275.981 406.899 278.643 409.185 280.929C411.472 283.214 414.135 285.008 417.1 286.262C420.172 287.56 423.433 288.219 426.794 288.219C430.154 288.219 433.416 287.56 436.488 286.262C439.453 285.008 442.117 283.214 444.403 280.929C446.689 278.643 448.485 275.981 449.739 273.017C451.038 269.947 451.697 266.687 451.697 263.327C451.697 259.967 451.038 256.708 449.739 253.639C448.485 250.674 446.689 248.012 444.403 245.727ZM426.795 285.843C414.354 285.843 404.27 275.763 404.27 263.328C404.27 250.894 414.354 240.814 426.795 240.814C439.235 240.814 449.32 250.894 449.32 263.328C449.32 275.763 439.235 285.843 426.795 285.843Z" fill="#1977CC"/>
<path d="M428.349 270.795C432.479 269.947 435.14 265.914 434.292 261.786C433.444 257.658 429.409 254.999 425.279 255.847C421.15 256.694 418.489 260.727 419.337 264.855C420.185 268.983 424.22 271.642 428.349 270.795Z" fill="#E0F4FC"/>
<path d="M426.794 254.511C421.929 254.511 417.973 258.466 417.973 263.329C417.973 268.191 421.929 272.146 426.794 272.146C431.659 272.146 435.616 268.191 435.616 263.329C435.616 258.466 431.658 254.511 426.794 254.511ZM426.794 269.769C423.24 269.769 420.349 266.88 420.349 263.327C420.349 259.775 423.24 256.886 426.794 256.886C430.348 256.886 433.239 259.775 433.239 263.327C433.239 266.88 430.348 269.769 426.794 269.769Z" fill="#1977CC"/>
<path d="M204.981 232.514H189.63C188.394 235.159 187.693 238.071 187.693 241.096V242.665H200.87C204.809 242.665 208.003 239.471 208.003 235.535C208.003 233.866 206.651 232.514 204.981 232.514Z" fill="white"/>
<path d="M204.982 231.326H189.63C189.169 231.326 188.749 231.593 188.554 232.011C187.195 234.921 186.506 237.977 186.506 241.096V242.665C186.506 243.321 187.038 243.853 187.695 243.853H200.872C205.461 243.853 209.193 240.122 209.193 235.537C209.192 233.215 207.303 231.326 204.982 231.326ZM200.872 241.477H188.883V241.096C188.883 238.57 189.394 236.086 190.403 233.702H204.983C205.994 233.702 206.817 234.525 206.817 235.537C206.815 238.813 204.149 241.477 200.872 241.477Z" fill="#1977CC"/>
<path d="M475.342 227.101H468.006C465.684 227.101 463.802 228.983 463.802 231.307C463.802 236.781 468.243 241.223 473.723 241.223H476.478C476.489 240.052 476.48 238.841 476.447 237.59C476.353 234.056 475.942 230.513 475.342 227.101Z" fill="white"/>
<path d="M476.513 226.896C476.414 226.328 475.92 225.914 475.343 225.914H468.006C465.033 225.914 462.614 228.332 462.614 231.307C462.614 237.43 467.598 242.411 473.723 242.411H476.478C477.13 242.411 477.661 241.886 477.667 241.234C477.678 240.019 477.668 238.783 477.635 237.558C477.547 234.214 477.17 230.627 476.513 226.896ZM473.723 240.035C468.908 240.035 464.991 236.119 464.991 231.307C464.991 229.644 466.344 228.29 468.006 228.29H474.339C474.872 231.552 475.182 234.687 475.259 237.621C475.281 238.423 475.292 239.231 475.293 240.035H473.723Z" fill="#1977CC"/>
<path d="M347.191 175.453H341.283C337.674 175.453 334.151 176.281 330.816 177.914C327.652 179.462 324.797 181.66 322.327 184.448C317.382 190.031 314.545 197.486 314.545 204.899V270.71C314.545 271.366 315.077 271.898 315.734 271.898C316.39 271.898 316.922 271.366 316.922 270.71V204.899C316.922 198.058 319.541 191.178 324.107 186.023C328.787 180.738 334.888 177.829 341.284 177.829H347.193C347.849 177.829 348.381 177.297 348.381 176.641C348.381 175.985 347.848 175.453 347.191 175.453Z" fill="#1977CC"/>
<path d="M384.61 179.68C383.954 179.68 383.422 180.211 383.422 180.868V244.566C383.422 251.349 380.88 257.766 376.264 262.637C371.644 267.511 365.534 270.196 359.06 270.196H353.151C352.495 270.196 351.963 270.728 351.963 271.384C351.963 272.04 352.495 272.572 353.151 272.572H359.06C366.193 272.572 372.916 269.624 377.989 264.27C383.024 258.957 385.798 251.959 385.798 244.566V180.868C385.799 180.211 385.267 179.68 384.61 179.68Z" fill="#1977CC"/>
<path d="M372.854 210.631H364.455C363.798 210.631 363.266 211.163 363.266 211.819C363.266 212.475 363.798 213.007 364.455 213.007H372.854C373.511 213.007 374.043 212.475 374.043 211.819C374.043 211.163 373.511 210.631 372.854 210.631Z" fill="#1977CC"/>
<path d="M308.964 210.631H300.564C299.908 210.631 299.376 211.163 299.376 211.819C299.376 212.475 299.908 213.007 300.564 213.007H308.964C309.62 213.007 310.152 212.475 310.152 211.819C310.152 211.163 309.62 210.631 308.964 210.631Z" fill="#1977CC"/>
<path d="M373.263 281.668C363.995 281.668 356.482 284.622 356.482 288.267C356.482 291.912 363.995 294.866 373.263 294.866C382.527 294.866 390.041 291.912 390.041 288.267C390.041 284.622 382.527 281.668 373.263 281.668Z" fill="#6B3F1A"/>
<path d="M442.79 317.38L328.683 319.738C328.135 319.749 327.591 319.781 327.048 319.82C326.959 319.787 326.871 319.749 326.779 319.718L239.411 293.936C229.498 290.405 217.481 288.668 210.825 297.057C207.488 301.262 206.547 305.293 206.354 307.974C206.22 309.825 207.325 311.541 209.067 312.183L315.496 351.357C317.708 352.145 319.958 352.545 322.146 352.596C324.425 353.112 326.856 353.371 329.379 353.318L441.629 342.357C454.162 342.097 466.02 342.974 465.831 333.701C465.636 324.427 455.322 317.12 442.79 317.38Z" fill="white"/>
<path d="M459.624 320.996C455.066 317.767 449.075 316.063 442.765 316.192L328.656 318.55C328.217 318.559 327.759 318.581 327.228 318.617C327.208 318.609 327.186 318.602 327.166 318.594C327.149 318.588 327.132 318.583 327.115 318.577L239.779 292.806C233.805 290.68 228.447 289.683 223.856 289.839C217.84 290.044 213.141 292.225 209.893 296.319C206.356 300.777 205.371 305.071 205.169 307.889C204.998 310.255 206.433 312.479 208.657 313.297L315.086 352.472C315.089 352.473 315.093 352.475 315.097 352.476C317.338 353.274 319.659 353.713 321.999 353.781C324.189 354.267 326.451 354.513 328.733 354.513C328.956 354.513 329.179 354.51 329.404 354.506C329.434 354.505 329.464 354.504 329.494 354.5L441.699 343.543C442.916 343.518 444.141 343.504 445.325 343.49C453.906 343.389 461.316 343.301 464.916 339.586C466.362 338.095 467.069 336.107 467.019 333.677C466.916 328.806 464.29 324.302 459.624 320.996ZM463.208 337.934C460.297 340.939 453.011 341.025 445.297 341.116C444.092 341.13 442.846 341.145 441.603 341.17C441.573 341.171 441.542 341.172 441.513 341.175L329.308 352.132C326.965 352.177 324.645 351.945 322.409 351.439C322.332 351.422 322.254 351.412 322.174 351.409C320.05 351.36 317.938 350.966 315.899 350.241L209.479 311.069C208.243 310.614 207.445 309.376 207.54 308.06C207.719 305.576 208.596 301.779 211.756 297.796C214.552 294.273 218.65 292.395 223.937 292.214C228.236 292.066 233.308 293.023 239.012 295.055C239.033 295.062 239.054 295.068 239.074 295.075L326.412 320.848C326.451 320.861 326.488 320.877 326.526 320.892L326.62 320.929C326.784 320.993 326.961 321.017 327.135 321.005C327.739 320.96 328.239 320.935 328.706 320.925L442.813 318.567C443.023 318.562 443.23 318.56 443.438 318.56C455.01 318.56 464.465 325.272 464.642 333.725C464.679 335.523 464.21 336.9 463.208 337.934Z" fill="#1977CC"/>
<path d="M480.976 297.769C480.976 297.769 463.456 282.924 432.174 271.939C400.894 260.952 395.818 280.645 395.818 280.645L341.961 288.553C341.961 288.553 349.253 309.675 379.325 325.946C401.187 337.774 447.505 346.12 451.328 346.391C465.819 347.422 526.278 352.313 526.278 352.313L520.713 295.236L480.976 297.769Z" fill="white"/>
<path d="M521.894 295.121C521.832 294.484 521.277 294.01 520.636 294.05L481.368 296.554C480.138 295.554 475.935 292.26 468.926 287.96C461.313 283.291 448.824 276.526 432.566 270.817C425.968 268.501 419.999 267.357 414.814 267.42C410.467 267.473 406.632 268.37 403.415 270.087C397.778 273.095 395.589 277.745 394.916 279.577L341.786 287.379C341.437 287.43 341.128 287.635 340.943 287.937C340.76 288.239 340.72 288.606 340.836 288.941C340.913 289.164 342.786 294.488 348.419 301.869C351.708 306.179 355.611 310.306 360.018 314.136C365.517 318.914 371.821 323.239 378.757 326.99C390.391 333.284 408.59 338.439 421.807 341.656C436.468 345.223 449.084 347.422 451.241 347.576C465.562 348.594 525.575 353.447 526.179 353.496C526.211 353.498 526.244 353.499 526.276 353.499C526.593 353.499 526.898 353.373 527.122 353.144C527.369 352.893 527.492 352.546 527.457 352.196L521.894 295.121ZM451.41 345.207C449.777 345.09 437.531 343.038 422.37 339.349C409.288 336.165 391.298 331.075 379.889 324.902C373.134 321.248 366.996 317.041 361.646 312.402C357.367 308.692 353.579 304.697 350.386 300.528C346.574 295.552 344.527 291.503 343.637 289.508L395.99 281.821C396.461 281.752 396.846 281.406 396.967 280.945C396.981 280.89 398.501 275.376 404.585 272.155C407.463 270.631 410.93 269.837 414.887 269.795C419.779 269.743 425.462 270.841 431.777 273.059C447.81 278.688 460.121 285.353 467.626 289.952C475.762 294.937 480.161 298.638 480.205 298.675C480.439 298.874 480.74 298.975 481.049 298.955L519.638 296.494L524.954 351.014C515.747 350.27 464.505 346.137 451.41 345.207Z" fill="#1977CC"/>
<path d="M330.819 306.725L244.298 283.9C239.265 281.989 233.325 280.412 228.228 280.427C223.152 280.443 220.4 281.66 216.365 286.339C213.494 289.668 212.439 295.785 212.057 299.406C211.868 301.192 212.847 302.897 214.484 303.637C215.183 303.953 216.005 304.3 216.929 304.651L320.722 344.096C322.963 344.947 325.248 345.403 327.478 345.5C329.794 346.075 332.268 346.391 334.845 346.391H451.326L377.939 308.845C352.795 307.723 330.858 306.741 330.819 306.725Z" fill="white"/>
<path d="M451.326 345.203H334.845C332.438 345.203 330.055 344.916 327.764 344.347C327.687 344.328 327.609 344.316 327.53 344.313C325.364 344.219 323.215 343.772 321.144 342.986L217.352 303.541C216.545 303.234 215.744 302.903 214.974 302.554C213.801 302.025 213.104 300.81 213.238 299.53C213.586 296.234 214.572 290.236 217.264 287.115C220.976 282.812 223.332 281.629 228.231 281.615C228.254 281.615 228.276 281.615 228.3 281.615C232.58 281.615 238.108 282.819 243.875 285.01C243.914 285.024 243.954 285.037 243.994 285.048L330.459 307.858C330.6 307.906 330.743 307.912 331.768 307.961C332.421 307.992 333.379 308.036 334.607 308.091C337.062 308.203 340.594 308.363 344.911 308.556C353.543 308.944 365.314 309.47 377.885 310.031C378.538 310.064 379.096 309.553 379.126 308.898C379.155 308.243 378.647 307.687 377.992 307.658C341.418 306.026 332.072 305.601 331.007 305.546L244.661 282.767C236.58 279.706 230.963 279.239 228.292 279.239C228.269 279.239 228.246 279.239 228.223 279.239C222.61 279.256 219.629 280.733 215.462 285.564C212.504 288.994 211.333 294.917 210.873 299.281C210.629 301.581 211.884 303.767 213.993 304.72C214.808 305.087 215.653 305.438 216.505 305.762L320.297 345.207C322.569 346.069 324.926 346.565 327.305 346.682C329.747 347.278 332.284 347.58 334.843 347.58H451.323C451.98 347.58 452.512 347.048 452.512 346.392C452.512 345.736 451.982 345.203 451.326 345.203Z" fill="#1977CC"/>
<path d="M364.835 312.935L358.625 312.494C366.378 313.897 371.297 314.636 364.835 312.935Z" fill="#E0F4FC"/>
<path d="M281.382 294.861C281.042 300.292 287.147 307.425 295.191 307.985L358.624 312.494C348.25 310.616 332.802 307.546 332.768 307.532L281.382 294.861Z" fill="#E0F4FC"/>
<path d="M369.815 275.944C362.913 277.089 355.96 277.834 349.714 278.316L301.034 269.057C293.062 267.293 285.176 272.333 283.413 280.301C281.656 288.265 286.696 296.153 294.667 297.909L375.279 315.456L432.172 271.936C411.121 263.793 389.956 272.602 369.815 275.944Z" fill="white"/>
<path d="M432.601 270.831C416.182 264.478 399.81 268.2 383.976 271.799C379.24 272.876 374.342 273.989 369.62 274.773C363.571 275.777 356.897 276.567 349.78 277.12L301.273 267.895C297.113 266.98 292.846 267.738 289.255 270.031C285.66 272.325 283.173 275.883 282.252 280.048C281.334 284.21 282.092 288.481 284.39 292.075C286.686 295.669 290.246 298.155 294.414 299.072L375.026 316.619C375.111 316.637 375.195 316.646 375.279 316.646C375.826 316.646 376.318 316.267 376.439 315.711C376.579 315.069 376.172 314.437 375.53 314.298L294.922 296.751C291.377 295.969 288.347 293.854 286.392 290.794C284.437 287.735 283.791 284.1 284.572 280.558C285.356 277.012 287.473 273.985 290.534 272.031C293.594 270.077 297.232 269.434 300.776 270.216C300.787 270.219 300.798 270.221 300.811 270.223L349.491 279.482C349.594 279.501 349.699 279.507 349.804 279.499C357.049 278.939 363.846 278.137 370.008 277.115C374.799 276.32 379.732 275.199 384.503 274.114C399.988 270.594 416.001 266.954 431.742 273.044C432.354 273.28 433.042 272.977 433.279 272.365C433.518 271.755 433.213 271.067 432.601 270.831Z" fill="#1977CC"/>
<path d="M301.504 276.018L294.673 274.768C292.002 279.15 290.99 284.508 291.88 289.569L291.919 289.797L298.75 291.048C302.362 291.708 305.906 288.88 306.666 284.729C307.427 280.578 305.116 276.679 301.504 276.018Z" fill="#E0F4FC"/>
<path d="M301.931 273.68L295.101 272.43C294.958 272.404 294.814 272.392 294.672 272.392C293.853 272.392 293.079 272.816 292.642 273.531C291.163 275.958 290.141 278.63 289.604 281.473C289.068 284.316 289.045 287.178 289.537 289.979L289.577 290.208C289.749 291.187 290.512 291.955 291.49 292.133L298.321 293.384C298.809 293.473 299.308 293.518 299.802 293.518C301.973 293.518 304.103 292.654 305.8 291.084C307.443 289.562 308.581 287.458 309.003 285.157C309.474 282.585 309.035 279.992 307.768 277.854C306.438 275.608 304.365 274.126 301.931 273.68ZM306.667 284.729C305.981 288.474 303.028 291.142 299.805 291.142C299.456 291.142 299.104 291.111 298.751 291.046L291.92 289.796L291.88 289.568C290.991 284.507 292.002 279.149 294.674 274.766L301.505 276.017C305.115 276.678 307.426 280.578 306.667 284.729Z" fill="#1977CC"/>
<path d="M303.07 290.19C304.851 289.094 306.226 287.133 306.666 284.729C307.107 282.325 306.516 280.005 305.239 278.35C303.417 281.983 302.653 286.141 303.07 290.19Z" fill="white"/>
<path d="M326.909 282.653C326.264 282.534 325.645 282.962 325.526 283.608L323.905 292.457C323.788 293.102 324.214 293.721 324.861 293.84C324.933 293.853 325.005 293.859 325.076 293.859C325.638 293.859 326.138 293.457 326.244 292.885L327.864 284.035C327.982 283.389 327.554 282.771 326.909 282.653Z" fill="#1977CC"/>
<path d="M329.954 285.704C329.309 285.586 328.69 286.013 328.571 286.659L327.834 290.681C327.716 291.326 328.143 291.945 328.789 292.064C328.862 292.077 328.934 292.083 329.004 292.083C329.567 292.083 330.067 291.681 330.173 291.109L330.909 287.087C331.027 286.441 330.6 285.822 329.954 285.704Z" fill="#1977CC"/>
<path d="M231.879 299.796L222.427 297.763C220.361 297.319 218.248 298.292 217.251 300.154C216.544 301.475 215.793 302.952 215.364 304.023C215.845 304.227 216.367 304.438 216.928 304.652L241.51 313.995C241.872 307.173 237.923 301.096 231.879 299.796Z" fill="#E0F4FC"/>
<path d="M232.13 298.634L222.677 296.601C220.106 296.048 217.444 297.278 216.204 299.591C215.295 301.286 214.642 302.629 214.262 303.58C214.022 304.18 214.306 304.862 214.902 305.115C215.431 305.34 215.971 305.557 216.509 305.761L241.09 315.103C241.227 315.155 241.37 315.181 241.513 315.181C241.74 315.181 241.965 315.115 242.161 314.989C242.479 314.782 242.68 314.436 242.699 314.057C243.097 306.523 238.652 300.037 232.13 298.634ZM217.352 303.541C217.216 303.489 217.08 303.437 216.943 303.384C217.292 302.643 217.749 301.74 218.299 300.715C219.042 299.33 220.637 298.594 222.177 298.925L231.629 300.958C236.53 302.012 240.003 306.641 240.322 312.271L217.352 303.541Z" fill="#1977CC"/>
<path d="M226.899 310.657L217.098 308.549C215.236 308.149 213.329 309.01 212.404 310.674C211.95 311.491 211.501 312.333 211.207 312.971L236.46 322.266C235.841 316.549 232.165 311.789 226.899 310.657Z" fill="#E0F4FC"/>
<path d="M234.347 313.995C232.456 311.658 229.967 310.101 227.149 309.495L217.348 307.387C214.957 306.872 212.553 307.962 211.365 310.097C210.813 311.089 210.398 311.889 210.127 312.475C209.989 312.776 209.982 313.121 210.109 313.427C210.236 313.733 210.485 313.973 210.796 314.087L236.049 323.382C236.182 323.431 236.322 323.455 236.46 323.455C236.721 323.455 236.979 323.369 237.191 323.204C237.515 322.951 237.686 322.549 237.641 322.14C237.309 319.066 236.169 316.249 234.347 313.995ZM212.864 312.315C213.034 311.995 213.227 311.639 213.442 311.251C214.117 310.037 215.485 309.418 216.847 309.71L226.648 311.817C228.928 312.308 230.951 313.578 232.497 315.489C233.64 316.903 234.465 318.587 234.93 320.437L212.864 312.315Z" fill="#1977CC"/>
<path d="M480.976 297.769C480.976 297.769 479.039 296.128 475.31 293.538L468.323 347.685C491.447 349.494 526.277 352.311 526.277 352.311L520.713 295.235L480.976 297.769Z" fill="#E0F4FC"/>
<path d="M521.895 295.12C521.832 294.483 521.28 294.009 520.636 294.05L481.368 296.554C480.634 295.958 478.83 294.537 475.987 292.562C475.449 292.188 474.708 292.321 474.333 292.86C473.958 293.398 474.092 294.139 474.63 294.514C478.259 297.036 480.188 298.66 480.207 298.676C480.441 298.874 480.742 298.975 481.051 298.956L519.641 296.495L524.956 351.015C518.183 350.467 488.645 348.085 468.415 346.503C467.76 346.451 467.19 346.941 467.137 347.595C467.085 348.249 467.576 348.82 468.23 348.872C491.088 350.659 525.832 353.47 526.181 353.498C526.213 353.5 526.245 353.501 526.277 353.501C526.594 353.501 526.9 353.375 527.124 353.146C527.37 352.895 527.494 352.548 527.459 352.198L521.895 295.12Z" fill="#1977CC"/>
<path d="M487.13 271.746L475.698 365.176L548.5 374.076L559.932 280.645L487.13 271.746Z" fill="white"/>
<path d="M560.09 279.475L487.288 270.574C486.635 270.494 486.045 270.958 485.964 271.609L474.53 365.039C474.492 365.351 474.58 365.667 474.774 365.915C474.968 366.162 475.252 366.324 475.566 366.363L548.367 375.264C548.416 375.269 548.464 375.273 548.513 375.273C549.105 375.273 549.618 374.832 549.691 374.229L561.125 280.799C561.164 280.487 561.075 280.171 560.882 279.923C560.687 279.674 560.402 279.513 560.09 279.475ZM547.475 372.761L477.033 364.149L488.178 273.077L558.62 281.689L547.475 372.761Z" fill="#1977CC"/>
<path d="M497.17 267.379L485.208 364.964C485.171 365.076 485.134 365.188 485.1 365.3C482.266 374.497 488.84 383.924 498.438 384.67L691.114 407.999V274.738L516.613 257.653C503.493 257.058 499.852 259.328 497.17 267.379Z" fill="#A2DFFF"/>
<path d="M512.989 257.565C502.782 257.565 499.587 260.125 497.17 267.38L485.208 364.965C485.171 365.077 485.134 365.189 485.1 365.302C482.266 374.498 488.84 383.925 498.438 384.671L691.114 408V274.74L516.613 257.654C515.315 257.596 514.11 257.565 512.989 257.565ZM688.737 405.32L498.723 382.313C498.689 382.309 498.655 382.305 498.621 382.303C494.717 382 491.212 379.967 489.006 376.725C486.846 373.549 486.249 369.64 487.371 366.001C487.4 365.907 487.431 365.811 487.463 365.717C487.512 365.566 487.547 365.412 487.567 365.255L499.5 267.91C500.614 264.636 501.768 262.842 503.455 261.743C505.37 260.496 508.31 259.941 512.988 259.941C514.042 259.941 515.173 259.968 516.443 260.026L688.737 276.895V405.32Z" fill="#1977CC"/>
<path d="M178.252 170.1L170.585 166.191C169.778 165.78 168.766 166.053 168.321 166.8C167.878 167.548 168.171 168.487 168.978 168.899L176.645 172.808C176.899 172.938 177.175 173 177.446 173C178.034 173 178.604 172.71 178.909 172.199C179.352 171.451 179.057 170.511 178.252 170.1Z" fill="white"/>
<path d="M190.408 177.1L184.136 173.191C183.476 172.78 182.647 173.053 182.284 173.8C181.921 174.548 182.161 175.487 182.821 175.899L189.093 179.808C189.301 179.938 189.527 180 189.749 180C190.229 180 190.696 179.71 190.945 179.199C191.309 178.451 191.068 177.511 190.408 177.1Z" fill="white"/>
<path d="M164.408 162.929L158.136 160.137C157.476 159.843 156.647 160.038 156.284 160.572C155.921 161.106 156.161 161.776 156.821 162.071L163.093 164.863C163.301 164.956 163.527 165 163.749 165C164.229 165 164.696 164.793 164.945 164.428C165.309 163.894 165.068 163.222 164.408 162.929Z" fill="white"/>
<path d="M203.408 184.515L197.136 181.164C196.476 180.812 195.647 181.046 195.284 181.686C194.921 182.327 195.161 183.132 195.821 183.485L202.093 186.836C202.301 186.947 202.527 187 202.749 187C203.229 187 203.696 186.752 203.945 186.314C204.309 185.672 204.068 184.868 203.408 184.515Z" fill="white"/>
<path d="M227.486 197.929L221.911 195.137C221.324 194.843 220.588 195.037 220.265 195.572C219.943 196.106 220.156 196.777 220.743 197.071L226.318 199.863C226.503 199.956 226.704 200 226.901 200C227.328 200 227.743 199.793 227.964 199.428C228.287 198.894 228.073 198.222 227.486 197.929Z" fill="white"/>
<path d="M214.487 191.1L208.911 187.191C208.325 186.781 207.588 187.052 207.265 187.8C206.943 188.549 207.156 189.487 207.743 189.899L213.318 193.808C213.503 193.938 213.704 194 213.901 194C214.328 194 214.744 193.71 214.965 193.199C215.287 192.451 215.073 191.512 214.487 191.1Z" fill="white"/>
<path d="M251.926 92.789C251.601 92.123 250.736 91.8191 249.994 92.1109C249.252 92.4028 248.913 93.1796 249.238 93.8455C250.164 95.7425 251.194 97.8808 252.299 100.2C252.537 100.7 253.079 101 253.648 101C253.84 101 254.036 100.966 254.224 100.894C254.969 100.608 255.314 99.8337 254.997 99.1656C253.889 96.8385 252.856 94.6925 251.926 92.789Z" fill="white"/>
<path d="M257.973 105.803C257.655 105.135 256.782 104.822 256.025 105.103C255.268 105.384 254.913 106.154 255.232 106.822C256.185 108.82 257.202 110.964 258.255 113.192C258.493 113.696 259.045 114 259.628 114C259.819 114 260.012 113.967 260.199 113.898C260.958 113.619 261.316 112.852 261 112.182C259.948 109.95 258.929 107.804 257.973 105.803Z" fill="white"/>
<path d="M287.482 174.798C287.136 173.911 286.63 172.61 285.986 170.96C285.681 170.178 284.815 169.797 284.051 170.109C283.288 170.422 282.916 171.31 283.221 172.093C284.494 175.357 285.23 177.251 285.246 177.289L286.63 176.727L285.813 175.452L287.45 178C287.553 177.93 288.449 177.282 287.98 176.074L287.482 174.798Z" fill="white"/>
<path d="M266.021 125.192C265.164 123.001 264.32 120.853 263.516 118.81C263.253 118.142 262.523 117.823 261.886 118.1C261.25 118.376 260.946 119.143 261.21 119.811C262.014 121.852 262.856 123.998 263.713 126.188C263.911 126.694 264.376 127 264.867 127C265.025 127 265.185 126.968 265.342 126.902C265.978 126.627 266.283 125.861 266.021 125.192Z" fill="white"/>
<path d="M245.038 78.441C244.599 77.8549 243.885 77.8524 243.445 78.4372C243.006 79.0234 243.004 79.9694 243.443 80.5543C243.562 80.728 244.095 81.7127 245.97 87.129C246.16 87.6776 246.567 88 246.991 88C247.149 88 247.31 87.955 247.462 87.8613C248.026 87.5139 248.271 86.6228 248.011 85.8705C246.047 80.1993 245.406 78.9321 245.038 78.441Z" fill="white"/>
<path d="M283.005 164.207C282.105 162.27 281.107 160.124 280.032 157.819C279.719 157.15 278.839 156.825 278.063 157.095C277.288 157.365 276.912 158.126 277.225 158.795C278.299 161.1 279.297 163.243 280.197 165.18C280.434 165.691 281.002 166 281.602 166C281.79 166 281.98 165.97 282.164 165.905C282.941 165.636 283.317 164.876 283.005 164.207Z" fill="white"/>
<path d="M277.041 151.201C276.402 149.145 275.738 147.009 275.053 144.816C274.845 144.147 274.258 143.825 273.743 144.096C273.228 144.367 272.98 145.13 273.189 145.799C273.872 147.991 274.537 150.125 275.176 152.182C275.334 152.691 275.711 153 276.109 153C276.235 153 276.362 152.969 276.485 152.904C277 152.633 277.249 151.871 277.041 151.201Z" fill="white"/>
<path d="M272.985 138.398C271.837 136.528 270.67 134.63 269.495 132.724C269.128 132.129 268.104 131.843 267.207 132.087C266.31 132.33 265.879 133.009 266.246 133.604C267.42 135.51 268.586 137.405 269.734 139.275C270.012 139.727 270.667 140 271.36 140C271.581 140 271.804 139.972 272.021 139.914C272.919 139.672 273.35 138.994 272.985 138.398Z" fill="white"/>
<path d="M497.094 187.191L490.821 191.1C490.161 191.511 489.921 192.451 490.284 193.199C490.533 193.71 490.998 194 491.48 194C491.703 194 491.928 193.938 492.136 193.808L498.408 189.899C499.069 189.488 499.308 188.548 498.946 187.8C498.583 187.053 497.754 186.78 497.094 187.191Z" fill="white"/>
<path d="M485.094 195.137L478.821 197.929C478.161 198.222 477.921 198.894 478.284 199.428C478.531 199.793 478.998 200 479.48 200C479.703 200 479.928 199.956 480.136 199.863L486.408 197.071C487.069 196.777 487.308 196.106 486.946 195.572C486.582 195.038 485.754 194.843 485.094 195.137Z" fill="white"/>
<path d="M510.094 181.164L503.821 184.515C503.161 184.867 502.921 185.672 503.284 186.314C503.533 186.752 503.998 187 504.48 187C504.703 187 504.928 186.947 505.136 186.836L511.408 183.485C512.069 183.133 512.308 182.327 511.946 181.686C511.582 181.046 510.753 180.812 510.094 181.164Z" fill="white"/>
<path d="M547.869 160.137L540.9 162.929C540.166 163.222 539.9 163.894 540.302 164.428C540.579 164.793 541.097 165 541.632 165C541.879 165 542.129 164.956 542.36 164.863L549.329 162.071C550.063 161.778 550.33 161.106 549.926 160.572C549.522 160.038 548.601 159.843 547.869 160.137Z" fill="white"/>
<path d="M534.869 166.192L527.9 170.101C527.166 170.511 526.9 171.451 527.302 172.199C527.579 172.71 528.097 173 528.632 173C528.879 173 529.129 172.938 529.36 172.808L536.329 168.899C537.063 168.489 537.33 167.549 536.926 166.801C536.524 166.053 535.602 165.78 534.869 166.192Z" fill="white"/>
<path d="M522.869 173.192L515.9 177.101C515.166 177.511 514.9 178.451 515.302 179.199C515.579 179.71 516.097 180 516.632 180C516.879 180 517.129 179.938 517.36 179.808L524.33 175.899C525.063 175.489 525.33 174.549 524.927 173.801C524.523 173.053 523.603 172.78 522.869 173.192Z" fill="white"/>
<path d="M428.166 157.095C427.391 156.826 426.509 157.149 426.198 157.819C425.122 160.125 424.125 162.269 423.224 164.206C422.913 164.875 423.29 165.636 424.065 165.905C424.249 165.97 424.441 166 424.628 166C425.228 166 425.795 165.69 426.033 165.18C426.933 163.243 427.931 161.1 429.005 158.795C429.317 158.126 428.942 157.365 428.166 157.095Z" fill="white"/>
<path d="M433.33 144.096C432.686 143.825 431.952 144.147 431.691 144.817C430.836 147.009 430.006 149.145 429.206 151.202C428.947 151.872 429.258 152.634 429.901 152.904C430.055 152.968 430.215 153 430.372 153C430.87 153 431.34 152.69 431.538 152.182C432.337 150.126 433.167 147.99 434.022 145.798C434.283 145.129 433.973 144.368 433.33 144.096Z" fill="white"/>
<path d="M438.335 132.087C437.694 131.844 436.962 132.129 436.7 132.724C435.86 134.63 435.028 136.527 434.208 138.397C433.947 138.993 434.255 139.671 434.896 139.914C435.051 139.972 435.21 140 435.368 140C435.863 140 436.331 139.727 436.53 139.275C437.35 137.406 438.182 135.51 439.021 133.605C439.283 133.009 438.976 132.329 438.335 132.087Z" fill="white"/>
<path d="M422.35 170.106C421.727 169.803 421.018 170.171 420.769 170.931C419.784 173.926 419.193 175.733 419.122 175.951L419.115 175.972L420.244 176.521L420.015 177.974C420.087 177.991 420.162 178 420.238 178C420.672 178 421.159 177.723 421.381 177.047C421.453 176.829 422.044 175.023 423.028 172.03C423.277 171.27 422.974 170.409 422.35 170.106Z" fill="white"/>
<path d="M460.427 78.4387C459.911 78.9299 459.013 80.1972 456.26 85.8703C455.896 86.6227 456.239 87.5138 457.03 87.8613C457.244 87.955 457.468 88 457.689 88C458.285 88 458.854 87.6775 459.119 87.1289C461.737 81.7333 462.489 80.7346 462.658 80.5547C463.268 79.9685 463.267 79.0224 462.653 78.4387C462.04 77.8538 461.042 77.8538 460.427 78.4387Z" fill="white"/>
<path d="M444.188 118.1C443.423 117.823 442.549 118.141 442.233 118.81C441.267 120.853 440.256 123 439.228 125.192C438.913 125.861 439.279 126.627 440.044 126.902C440.23 126.968 440.423 127 440.613 127C441.202 127 441.761 126.693 441.998 126.188C443.026 123.998 444.036 121.853 445.001 119.811C445.317 119.143 444.953 118.376 444.188 118.1Z" fill="white"/>
<path d="M455.236 92.1109C454.494 91.8191 453.628 92.123 453.303 92.789C452.373 94.6947 451.34 96.8396 450.233 99.1656C449.915 99.8337 450.26 100.608 451.005 100.894C451.194 100.966 451.389 101 451.581 101C452.151 101 452.692 100.7 452.931 100.2C454.034 97.8819 455.065 95.7436 455.991 93.8455C456.316 93.1796 455.978 92.4028 455.236 92.1109Z" fill="white"/>
<path d="M449.356 105.103C448.726 104.822 448 105.135 447.733 105.803C446.939 107.8 446.09 109.946 445.21 112.182C444.947 112.852 445.246 113.619 445.878 113.898C446.033 113.967 446.195 114 446.354 114C446.839 114 447.299 113.696 447.498 113.192C448.376 110.96 449.223 108.816 450.016 106.822C450.284 106.154 449.987 105.384 449.356 105.103Z" fill="white"/>
<path d="M349.615 131C348.786 131 348.115 131.556 348.115 132.241V138.759C348.115 139.444 348.786 140 349.615 140C350.443 140 351.115 139.444 351.115 138.759V132.241C351.115 131.556 350.443 131 349.615 131Z" fill="white"/>
<path d="M349.615 145C348.786 145 348.115 145.556 348.115 146.241V152.759C348.115 153.444 348.786 154 349.615 154C350.443 154 351.115 153.444 351.115 152.759V146.241C351.115 145.556 350.443 145 349.615 145Z" fill="white"/>
<path d="M349.615 159C348.786 159 348.115 159.614 348.115 160.371V165.629C348.115 166.386 348.786 167 349.615 167C350.443 167 351.115 166.386 351.115 165.629V160.371C351.115 159.614 350.443 159 349.615 159Z" fill="white"/>
<path d="M349.615 117C348.786 117 348.115 117.617 348.115 118.379V125.621C348.115 126.383 348.786 127 349.615 127C350.443 127 351.115 126.383 351.115 125.621V118.379C351.115 117.617 350.443 117 349.615 117Z" fill="white"/>
<path d="M349.615 59C348.786 59 348.115 59.6172 348.115 60.3793V67.6207C348.115 68.3828 348.786 69 349.615 69C350.443 69 351.115 68.3828 351.115 67.6207V60.3793C351.115 59.6172 350.443 59 349.615 59Z" fill="white"/>
<path d="M349.615 103C348.786 103 348.115 103.556 348.115 104.241V110.759C348.115 111.444 348.786 112 349.615 112C350.443 112 351.115 111.444 351.115 110.759V104.241C351.115 103.556 350.443 103 349.615 103Z" fill="white"/>
<path d="M349.615 74C348.786 74 348.115 74.6172 348.115 75.3793V82.6207C348.115 83.3828 348.786 84 349.615 84C350.443 84 351.115 83.3828 351.115 82.6207V75.3793C351.115 74.6172 350.443 74 349.615 74Z" fill="white"/>
<path d="M349.615 88C348.786 88 348.115 88.6172 348.115 89.3793V96.6207C348.115 97.3828 348.786 98 349.615 98C350.443 98 351.115 97.3828 351.115 96.6207V89.3793C351.115 88.6172 350.443 88 349.615 88Z" fill="white"/>
<path d="M0.290077 284.71C0.48182 284.893 0.735349 284.996 1.00008 285C1.06715 284.998 1.134 284.992 1.20008 284.98C1.26274 284.969 1.32341 284.949 1.38008 284.92C1.44382 284.898 1.50435 284.868 1.56008 284.83C1.61247 284.793 1.66256 284.753 1.71008 284.71C1.80047 284.614 1.87175 284.502 1.92007 284.38C1.97286 284.26 2.00012 284.131 2.00012 284C2.00012 283.869 1.97286 283.74 1.92007 283.62C1.87175 283.498 1.80047 283.386 1.71008 283.29C1.66256 283.247 1.61247 283.207 1.56008 283.17C1.50435 283.132 1.44382 283.102 1.38008 283.08C1.32341 283.051 1.26274 283.031 1.20008 283.02C1.03788 282.987 0.870042 282.994 0.711346 283.041C0.552649 283.088 0.407974 283.174 0.290077 283.29C0.19968 283.386 0.128401 283.498 0.0800781 283.62C0.0273529 283.74 0.00012207 283.869 0.00012207 284C0.00012207 284.131 0.0273529 284.26 0.0800781 284.38C0.128401 284.502 0.19968 284.614 0.290077 284.71Z" fill="black"/>
<path d="M156.333 106.069H117.444C119.596 106.069 121.333 107.805 121.333 109.956V161.779C121.333 164.643 123.654 166.962 126.519 166.962H160.222V109.956C160.222 107.805 158.485 106.069 156.333 106.069Z" fill="white"/>
<path d="M140.778 97H101.889C104.041 97 105.778 98.7361 105.778 100.887V150.119C105.778 152.982 108.098 155.301 110.963 155.301H144.667V100.887C144.667 98.7361 142.93 97 140.778 97Z" fill="white"/>
<path d="M109.667 155.302H118.741" stroke="#1977CC" stroke-width="2" stroke-miterlimit="10"/>
<path d="M117.444 106.069H156.333C158.485 106.069 160.222 107.805 160.222 109.956V160.484" stroke="#1977CC" stroke-width="2" stroke-miterlimit="10"/>
<path d="M101.889 97H140.778C142.93 97 144.667 98.7361 144.667 100.887V103.478" stroke="#1977CC" stroke-width="2" stroke-miterlimit="10"/>
<path d="M126.519 166.962C123.654 166.962 121.333 164.643 121.333 161.779V109.956C121.333 107.805 119.596 106.069 117.444 106.069C115.293 106.069 113.556 107.805 113.556 109.956V151.415C113.556 153.565 111.819 155.301 109.667 155.301C107.515 155.301 105.778 153.565 105.778 151.415V100.887C105.778 98.7361 104.041 97 101.889 97C99.737 97 98 98.7361 98 100.887V104.774H103.185" stroke="#1977CC" stroke-width="2" stroke-miterlimit="10"/>
<path d="M131.704 161.779V160.484H168V161.779C168 164.643 165.68 166.962 162.815 166.962H126.518C129.383 166.962 131.704 164.643 131.704 161.779Z" fill="#A2DFFF" stroke="#1977CC" stroke-width="2" stroke-miterlimit="10"/>
<path d="M126.531 122.474C125.979 122.49 125.544 122.95 125.56 123.502C125.576 124.054 126.037 124.489 126.589 124.473L126.531 122.474ZM157.03 123.595C157.582 123.579 158.017 123.118 158.001 122.566C157.985 122.014 157.525 121.58 156.972 121.595L157.03 123.595ZM126.589 124.473L157.03 123.595L156.972 121.595L126.531 122.474L126.589 124.473Z" fill="#E0F4FC"/>
<path d="M126.531 126.279C125.979 126.295 125.544 126.755 125.56 127.307C125.576 127.859 126.037 128.294 126.589 128.278L126.531 126.279ZM157.03 127.4C157.582 127.384 158.017 126.923 158.001 126.371C157.985 125.819 157.525 125.385 156.972 125.401L157.03 127.4ZM126.589 128.278L157.03 127.4L156.972 125.401L126.531 126.279L126.589 128.278Z" fill="#E0F4FC"/>
<path d="M126.531 130.084C125.979 130.1 125.544 130.56 125.56 131.112C125.576 131.664 126.037 132.099 126.589 132.083L126.531 130.084ZM157.03 131.205C157.582 131.189 158.017 130.729 158.001 130.177C157.985 129.624 157.525 129.19 156.972 129.206L157.03 131.205ZM126.589 132.083L157.03 131.205L156.972 129.206L126.531 130.084L126.589 132.083Z" fill="#E0F4FC"/>
<path d="M126.531 133.889C125.979 133.905 125.544 134.366 125.56 134.918C125.576 135.47 126.037 135.904 126.589 135.888L126.531 133.889ZM157.03 135.01C157.582 134.994 158.017 134.534 158.001 133.982C157.985 133.43 157.525 132.995 156.972 133.011L157.03 135.01ZM126.589 135.888L157.03 135.01L156.972 133.011L126.531 133.889L126.589 135.888Z" fill="#E0F4FC"/>
<path d="M126.531 137.694C125.979 137.71 125.544 138.171 125.56 138.723C125.576 139.275 126.037 139.709 126.589 139.694L126.531 137.694ZM157.03 138.815C157.582 138.799 158.017 138.339 158.001 137.787C157.985 137.235 157.525 136.8 156.972 136.816L157.03 138.815ZM126.589 139.694L157.03 138.815L156.972 136.816L126.531 137.694L126.589 139.694Z" fill="#E0F4FC"/>
<path d="M126.531 141.5C125.979 141.515 125.544 141.976 125.56 142.528C125.576 143.08 126.037 143.515 126.589 143.499L126.531 141.5ZM157.03 142.621C157.582 142.605 158.017 142.144 158.001 141.592C157.985 141.04 157.525 140.605 156.972 140.621L157.03 142.621ZM126.589 143.499L157.03 142.621L156.972 140.621L126.531 141.5L126.589 143.499Z" fill="#E0F4FC"/>
<path d="M126.531 145.305C125.979 145.321 125.544 145.781 125.56 146.333C125.576 146.885 126.037 147.32 126.589 147.304L126.531 145.305ZM157.03 146.426C157.582 146.41 158.017 145.949 158.001 145.397C157.985 144.845 157.525 144.411 156.972 144.427L157.03 146.426ZM126.589 147.304L157.03 146.426L156.972 144.427L126.531 145.305L126.589 147.304Z" fill="#E0F4FC"/>
<path d="M126.531 149.11C125.979 149.126 125.544 149.586 125.56 150.138C125.576 150.69 126.037 151.125 126.589 151.109L126.531 149.11ZM157.03 150.231C157.582 150.215 158.017 149.755 158.001 149.203C157.985 148.65 157.525 148.216 156.972 148.232L157.03 150.231ZM126.589 151.109L157.03 150.231L156.972 148.232L126.531 149.11L126.589 151.109Z" fill="#E0F4FC"/>
<path d="M126.531 152.915C125.979 152.931 125.544 153.391 125.56 153.944C125.576 154.496 126.037 154.93 126.589 154.914L126.531 152.915ZM157.03 154.036C157.582 154.02 158.017 153.56 158.001 153.008C157.985 152.456 157.525 152.021 156.972 152.037L157.03 154.036ZM126.589 154.914L157.03 154.036L156.972 152.037L126.531 152.915L126.589 154.914Z" fill="#E0F4FC"/>
<path d="M160.261 133.328L143.172 150.418L138.854 151.28L139.716 146.962L156.806 129.872C157.142 129.536 157.689 129.536 158.025 129.872L160.261 132.109C160.598 132.445 160.598 132.992 160.261 133.328Z" fill="#A2DFFF" stroke="#1977CC" stroke-width="2" stroke-miterlimit="10" stroke-linejoin="round"/>
<path d="M139.724 119.679L142.287 121.448C142.405 121.529 142.546 121.573 142.69 121.573C142.834 121.573 142.974 121.529 143.092 121.448L145.655 119.679C146.476 119.11 147.146 118.355 147.608 117.477C148.07 116.598 148.311 115.623 148.309 114.633V111.028C148.309 110.857 148.245 110.692 148.13 110.565C148.014 110.437 147.855 110.357 147.683 110.338C146.021 110.158 144.441 109.535 143.111 108.536C142.989 108.445 142.84 108.395 142.687 108.395C142.534 108.395 142.385 108.445 142.262 108.536C140.934 109.532 139.355 110.153 137.696 110.333C137.524 110.351 137.364 110.432 137.249 110.56C137.133 110.687 137.069 110.853 137.07 111.024V114.633C137.069 115.623 137.309 116.598 137.771 117.477C138.233 118.355 138.903 119.111 139.724 119.679ZM138.475 111.627C139.986 111.374 141.424 110.8 142.69 109.945C143.955 110.8 145.393 111.374 146.904 111.627V114.633C146.906 115.4 146.72 116.155 146.362 116.835C146.005 117.516 145.486 118.101 144.851 118.542L142.69 120.033L140.529 118.542C139.893 118.102 139.375 117.516 139.017 116.836C138.66 116.155 138.474 115.4 138.475 114.633V111.627Z" fill="#1977CC"/>
<path d="M141.963 117.697H143.416V115.517H145.596V114.064H143.416V111.883H141.963V114.064H139.783V115.517H141.963V117.697Z" fill="#1977CC"/>
<path d="M193.322 57.9214L224.608 52.5961H229.268L229.933 49.2678H237.256L244.578 45.2739L246.575 42.6112L248.572 43.9426L251.9 46.6052L257.891 47.2709V44.6082L248.572 43.2769L247.24 41.9456V30.6294H236.59V17.9819L229.268 18.6475V11.9909H249.903L251.234 9.99397L248.572 7.33134L227.271 6.66568L223.277 9.32831L222.611 17.9819L213.958 18.6475L215.289 30.6294H213.958L204.638 31.9607V44.6082L193.988 45.2739L193.322 57.9214Z" fill="white"/>
<path d="M225.274 52.5961L191.325 59.9183L195.985 72.5658H227.937H243.247L253.232 68.5719L225.274 52.5961Z" fill="#E0F4FC"/>
<path d="M244.578 44.6082L246.575 41.9456L249.903 44.6082L254.563 47.2708L259.888 48.6021L264.548 49.2678V56.59V63.9123L262.551 71.2345L259.888 75.2285L255.894 79.2224L252.566 80.5538L249.903 81.8851H246.575L243.912 80.5538L239.918 79.2224L235.924 77.2255L229.268 66.5749V49.2678H231.93L239.918 47.9365L244.578 44.6082Z" fill="#A2DFFF"/>
<path d="M245.658 50.466L247.015 48.6021L249.275 50.466L252.44 52.3298L256.057 53.2618L259.222 53.7277V58.8533V63.9789L257.866 69.1044L256.057 71.9002L253.345 74.696L251.084 75.6279L249.275 76.5598H247.015L245.206 75.6279L242.493 74.696L239.78 73.2981L235.259 65.8427V53.7277H237.067L242.493 52.7958L245.658 50.466Z" fill="white"/>
<path d="M264.345 47.2802L264.016 47.3201C263.286 47.4077 262.551 47.4521 261.815 47.4532C260.932 47.4468 260.051 47.3742 259.179 47.2362V44.6082C259.179 44.2551 259.039 43.9165 258.789 43.6668C258.54 43.4171 258.201 43.2769 257.848 43.2769H250.429C249.75 42.7072 249.115 42.0878 248.529 41.4237V31.295C248.529 30.9419 248.388 30.6033 248.139 30.3536C247.889 30.104 247.55 29.9637 247.197 29.9637H237.878V17.9819C237.878 17.6288 237.738 17.2901 237.488 17.0405C237.239 16.7908 236.9 16.6505 236.547 16.6505H229.89V13.6724L247.197 12.8483V16.6505C247.197 17.0036 247.338 17.3423 247.587 17.5919C247.837 17.8416 248.176 17.9819 248.529 17.9819C248.792 17.9819 249.049 18.0599 249.268 18.2062C249.487 18.3525 249.658 18.5604 249.759 18.8037C249.859 19.047 249.886 19.3146 249.834 19.5729C249.783 19.8312 249.656 20.0684 249.47 20.2546C249.284 20.4407 249.047 20.5675 248.788 20.6189C248.53 20.6703 248.263 20.6439 248.019 20.5431C247.776 20.4424 247.568 20.2717 247.422 20.0528C247.275 19.8339 247.197 19.5765 247.197 19.3132H244.535C244.535 20.0454 244.736 20.7634 245.117 21.3889C245.498 22.0143 246.043 22.5231 246.693 22.8596C247.343 23.1961 248.074 23.3474 248.804 23.2969C249.535 23.2463 250.237 22.996 250.835 22.5732C251.433 22.1505 251.903 21.5715 252.194 20.8996C252.485 20.2277 252.585 19.4887 252.485 18.7635C252.384 18.0383 252.086 17.3546 251.623 16.7874C251.16 16.2201 250.55 15.7909 249.86 15.5469V12.7218L251.254 12.6566C251.596 12.6405 251.919 12.4932 252.155 12.2452C252.391 11.9973 252.523 11.6678 252.523 11.3253V9.99395C252.523 8.93469 252.102 7.91881 251.353 7.1698C250.604 6.42079 249.588 6 248.529 6H225.896C224.837 6 223.821 6.42079 223.072 7.1698C222.323 7.91881 221.902 8.93469 221.902 9.99395V16.6505H215.246C214.893 16.6505 214.554 16.7908 214.304 17.0405C214.055 17.2901 213.914 17.6288 213.914 17.9819V29.9637H204.595C204.242 29.9637 203.904 30.104 203.654 30.3536C203.404 30.6033 203.264 30.9419 203.264 31.295V43.2769H193.945C193.592 43.2769 193.253 43.4171 193.003 43.6668C192.754 43.9165 192.613 44.2551 192.613 44.6082V57.6405L191.03 57.9453C190.846 57.9806 190.671 58.0545 190.517 58.1622C190.364 58.2699 190.234 58.4089 190.138 58.5701C190.042 58.7312 189.98 58.911 189.959 59.0975C189.937 59.2839 189.954 59.473 190.011 59.6521L195.781 78.1055C194.999 78.285 194.262 78.6196 193.612 79.0893L192.532 79.8881C191.873 80.3269 191.099 80.561 190.308 80.561C189.516 80.561 188.742 80.3269 188.083 79.8881C187.8 79.6943 187.452 79.6174 187.114 79.6736C186.775 79.7297 186.471 79.9146 186.265 80.1895C186.06 80.4644 185.968 80.8081 186.01 81.1489C186.052 81.4896 186.223 81.8011 186.489 82.0182C187.609 82.7957 188.94 83.2124 190.304 83.2124C191.667 83.2124 192.998 82.7957 194.118 82.0182L195.196 81.2194C195.855 80.7799 196.63 80.5454 197.422 80.5454C198.214 80.5454 198.989 80.7799 199.648 81.2194L200.725 82.0182C201.845 82.7954 203.176 83.2119 204.539 83.2119C205.902 83.2119 207.232 82.7954 208.352 82.0182L209.432 81.2194C210.091 80.78 210.865 80.5456 211.657 80.5456C212.449 80.5456 213.224 80.78 213.883 81.2194L214.96 82.0182C216.08 82.7957 217.41 83.2124 218.774 83.2124C220.137 83.2124 221.468 82.7957 222.588 82.0182L223.668 81.2194C224.327 80.78 225.101 80.5456 225.893 80.5456C226.685 80.5456 227.459 80.78 228.118 81.2194L229.195 82.0182C230.315 82.7957 231.646 83.2124 233.01 83.2124C234.373 83.2124 235.704 82.7957 236.824 82.0182L237.902 81.2194C238.561 80.7799 239.336 80.5454 240.128 80.5454C240.92 80.5454 241.695 80.7799 242.354 81.2194L243.431 82.0182C244.551 82.7952 245.882 83.2116 247.245 83.2116C248.608 83.2116 249.938 82.7952 251.058 82.0182L252.138 81.2194C252.797 80.7799 253.572 80.5454 254.364 80.5454C255.156 80.5454 255.931 80.7799 256.59 81.2194L257.666 82.0182C258.786 82.7964 260.117 83.2134 261.48 83.2134C262.844 83.2134 264.175 82.7964 265.295 82.0182C265.447 81.9185 265.577 81.7889 265.677 81.6372C265.776 81.4856 265.844 81.3151 265.876 81.1363C265.907 80.9575 265.902 80.7742 265.86 80.5975C265.818 80.4209 265.74 80.2547 265.631 80.1092C265.523 79.9637 265.386 79.842 265.228 79.7514C265.071 79.6609 264.897 79.6035 264.716 79.5828C264.536 79.5621 264.353 79.5785 264.179 79.631C264.006 79.6835 263.844 79.771 263.706 79.8881C263.047 80.3275 262.272 80.562 261.48 80.562C260.688 80.562 259.914 80.3275 259.255 79.8881L258.178 79.0893C258.045 78.9895 257.889 78.9136 257.744 78.8231C260.251 76.9685 262.288 74.5527 263.693 71.7693C265.098 68.9858 265.832 65.912 265.836 62.794V48.6022C265.836 48.4138 265.796 48.2276 265.719 48.0558C265.641 47.8841 265.529 47.7306 265.388 47.6057C265.247 47.4807 265.081 47.3871 264.901 47.331C264.721 47.2749 264.532 47.2576 264.345 47.2802ZM256.517 45.9395V46.6291C255.892 46.433 255.278 46.2028 254.678 45.9395H256.517ZM245.866 41.413C245.278 42.0818 244.64 42.7049 243.957 43.2769H229.89V32.6263H245.866V41.413ZM221.902 45.9395V52.0077L216.577 53.0314V45.9395H221.902ZM230.05 47.2802C229.997 47.2817 229.943 47.2866 229.89 47.2948V45.9395H235.216V47.2442C233.616 47.4888 231.99 47.5143 230.383 47.3201L230.05 47.2802ZM237.878 45.9395H239.698C239.104 46.199 238.497 46.4257 237.878 46.6185V45.9395ZM235.216 19.3132V29.9637H229.89V19.3132H235.216ZM227.228 51.2648H224.565V13.9267L227.228 13.7935V51.2648ZM224.565 9.99395C224.565 9.64086 224.705 9.30224 224.955 9.05257C225.205 8.8029 225.543 8.66263 225.896 8.66263H248.529C248.882 8.66263 249.22 8.8029 249.47 9.05257C249.72 9.30224 249.86 9.64086 249.86 9.99395L224.565 11.26V9.99395ZM216.577 19.3132H221.902V29.9637H216.577V19.3132ZM205.927 32.6263H221.902V43.2769H205.927V32.6263ZM195.276 56.5901V45.9395H213.914V53.544L198.072 56.5901H195.276ZM225.896 53.9527L228.559 54.4666V62.794C228.569 65.7131 229.22 68.5944 230.465 71.2346H196.424L192.998 60.2791L225.896 53.9527ZM235.24 79.8881C234.58 80.3276 233.806 80.5621 233.014 80.5621C232.221 80.5621 231.447 80.3276 230.788 79.8881L229.711 79.0893C228.591 78.3118 227.26 77.8951 225.897 77.8951C224.534 77.8951 223.203 78.3118 222.083 79.0893L221.004 79.8881C220.345 80.3276 219.57 80.5621 218.778 80.5621C217.986 80.5621 217.211 80.3276 216.552 79.8881L215.476 79.0893C214.356 78.3118 213.025 77.8952 211.662 77.8952C210.298 77.8952 208.968 78.3118 207.848 79.0893L206.768 79.8881C206.109 80.3275 205.335 80.562 204.543 80.562C203.751 80.562 202.976 80.3275 202.317 79.8881L201.24 79.0893C200.44 78.5102 199.511 78.1326 198.534 77.9883L197.256 73.8972H231.942C233.227 75.8119 234.834 77.4896 236.692 78.8563C236.568 78.9336 236.435 78.9975 236.318 79.084L235.24 79.8881ZM263.173 62.794C263.174 65.5941 262.496 68.3526 261.198 70.8335C259.899 73.3143 258.019 75.4436 255.718 77.0391L254.476 77.9018C253.074 77.858 251.697 78.2742 250.554 79.0867L249.474 79.8855C248.815 80.3248 248.041 80.5593 247.249 80.5593C246.457 80.5593 245.682 80.3248 245.023 79.8855L243.946 79.0867C242.778 78.2598 241.369 77.8444 239.939 77.9058L238.677 77.0364C236.376 75.4415 234.496 73.3126 233.197 70.8322C231.899 68.3518 231.221 65.5937 231.222 62.794V50.0746C234.171 50.2796 237.13 49.8362 239.89 48.7754C242.65 47.7146 245.144 46.0623 247.197 43.9346C249.094 45.8937 251.366 47.4509 253.877 48.5136C256.389 49.5762 259.088 50.1225 261.815 50.1199C262.26 50.1199 262.71 50.1039 263.173 50.0719V62.794Z" fill="#1977CC"/>
<path d="M259.322 52.6507C255.213 52.2086 251.3 50.6649 247.996 48.1828C247.766 48.0099 247.485 47.9165 247.197 47.9165C246.909 47.9165 246.629 48.0099 246.399 48.1828C243.095 50.6647 239.183 52.2083 235.074 52.6507C234.748 52.6858 234.446 52.8404 234.226 53.0846C234.007 53.3289 233.886 53.6456 233.885 53.974V62.7993C233.886 65.1671 234.46 67.4996 235.559 69.5968C236.658 71.6941 238.249 73.4936 240.196 74.8411L246.441 79.1652C246.664 79.3192 246.928 79.4017 247.199 79.4017C247.469 79.4017 247.734 79.3192 247.956 79.1652L254.204 74.8411C256.15 73.4931 257.741 71.6935 258.839 69.5962C259.937 67.499 260.511 65.1667 260.511 62.7993V53.974C260.51 53.6456 260.389 53.3289 260.17 53.0846C259.95 52.8404 259.648 52.6858 259.322 52.6507ZM257.848 62.7993C257.848 64.7363 257.378 66.6445 256.479 68.3603C255.581 70.0762 254.279 71.5484 252.686 72.651L247.197 76.452L241.71 72.651C240.117 71.5486 238.815 70.0764 237.916 68.3605C237.017 66.6447 236.547 64.7365 236.547 62.7993V55.1416C240.373 54.5477 244.014 53.0938 247.197 50.8893C250.38 53.0938 254.022 54.5477 257.848 55.1416V62.7993Z" fill="#1977CC"/>
<path d="M241.34 64.8442L239.742 66.9743L245.067 70.9682C245.347 71.1779 245.697 71.2695 246.043 71.2232C246.389 71.1769 246.704 70.9964 246.918 70.7206L256.237 58.7388L254.134 57.1039L245.613 68.0527L241.34 64.8442Z" fill="#1977CC"/>
<path d="M374.6 44.9239L374.612 44.9514L374.626 44.9792L374.941 45.617C375.327 46.4295 375.787 47.4319 375.945 48.4893C376.098 49.5148 375.96 50.526 375.199 51.444L375.193 51.4505L375.188 51.4571C374.115 52.7976 371.46 55.7531 368.426 56.8795L368.404 56.8869H368.399L368.296 56.9088C367.847 57.0043 366.495 57.0748 364.44 56.8534C362.42 56.6357 359.798 56.1439 356.837 55.1713C350.921 53.2273 343.665 49.3668 337.164 41.9422L337.164 41.9418C330.599 34.4522 327.424 26.2651 326.009 19.703C325.301 16.422 325.035 13.5571 325.003 11.4035C324.987 10.326 325.03 9.4361 325.102 8.76797C325.139 8.43354 325.181 8.16403 325.225 7.95966C325.247 7.8578 325.267 7.77784 325.286 7.71771C325.295 7.68796 325.303 7.66517 325.309 7.64856C325.312 7.64036 325.315 7.63418 325.316 7.62984C325.317 7.62912 325.317 7.62847 325.317 7.62788C326.775 4.75398 330.033 2.44269 331.445 1.53206C331.788 1.33641 332.196 1.17962 332.619 1.07106C334.249 0.730656 335.807 1.67047 337.134 2.54192L337.703 2.92564L337.739 2.94992L337.777 2.97098C337.777 2.97095 337.777 2.97106 337.778 2.97134C337.786 2.97808 337.918 3.08082 338.131 3.45009C338.333 3.80039 338.547 4.28153 338.765 4.87404C339.201 6.05558 339.613 7.5673 339.967 9.10201C340.321 10.6312 340.612 12.1564 340.811 13.3526C340.91 13.9509 340.985 14.4614 341.033 14.8452C341.08 15.2199 341.09 15.3978 341.092 15.4343C341.092 15.438 341.093 15.4402 341.093 15.4411C341.051 15.912 340.816 16.4576 340.105 17.3028C339.381 18.1623 338.268 19.2142 336.631 20.7068L336.612 20.7241L336.594 20.7424C335.873 21.4717 335.441 22.6376 335.854 23.7836L335.857 23.7927L335.86 23.8018C337.315 27.6123 340.386 32.2936 342.94 35.1406C345.275 37.7632 349.952 42.1068 353.848 44.3099L353.848 44.31L353.857 44.3151C354.962 44.9242 356.182 44.7012 357.045 43.9302C358.486 42.6673 359.535 41.7642 360.385 41.1427C361.212 40.5381 361.762 40.2689 362.206 40.1734L362.737 40.1246C362.76 40.129 362.792 40.1353 362.834 40.1441C362.946 40.1682 363.097 40.2038 363.283 40.2512C363.655 40.3458 364.148 40.4818 364.724 40.6517C365.875 40.9913 367.339 41.4606 368.8 41.9927C370.266 42.5267 371.705 43.1147 372.819 43.6892C373.377 43.9773 373.828 44.2486 374.152 44.4931C374.313 44.6148 374.429 44.7188 374.506 44.8031C374.58 44.8831 374.6 44.924 374.6 44.9239Z" fill="#E0F4FC" stroke="#1977CC" stroke-width="2"/>
</svg>
