<svg width="24" height="24" viewBox="0 0 24 24" fill="none" xmlns="http://www.w3.org/2000/svg">
<path fill-rule="evenodd" clip-rule="evenodd" d="M11.2973 4.00022C11.245 4.00196 11.1936 4.01451 11.1466 4.03704C11.0996 4.05956 11.058 4.09155 11.0245 4.13092L8.55248 7.05182L6.08622 9.97272C6.03051 10.0381 6 10.1206 6 10.2057C6 10.2909 6.03051 10.3733 6.08622 10.4387L8.55248 13.3596L11.0245 16.2748C11.0732 16.3315 11.1383 16.3723 11.2113 16.3918C11.2843 16.4113 11.3616 16.4085 11.4329 16.3837C11.5042 16.359 11.5661 16.3136 11.6103 16.2535C11.6545 16.1934 11.6789 16.1216 11.6803 16.0475V12.9277C13.0088 12.6038 14.0298 12.5503 14.7616 12.7061C15.5433 12.8725 16.004 13.2368 16.2936 13.8028C16.8729 14.935 16.6337 17.0159 15.7539 19.5196C15.7258 19.6009 15.728 19.6894 15.76 19.7693C15.7921 19.8492 15.852 19.9154 15.9291 19.9562C16.0062 19.9971 16.0956 20.0099 16.1814 19.9924C16.2673 19.9748 16.344 19.9282 16.3981 19.8606C18.9167 16.6422 19.5442 13.3928 18.551 10.9558C17.6198 8.6712 15.2542 7.18099 11.9588 7.16547C11.8663 7.16547 11.7742 7.16929 11.6803 7.17111V4.36387C11.6803 4.31514 11.6703 4.26691 11.6509 4.22202C11.6315 4.17714 11.6031 4.13652 11.5674 4.1026C11.5317 4.06867 11.4894 4.04213 11.443 4.02454C11.3966 4.00694 11.347 3.99866 11.2973 4.00018V4.00022Z" fill="#4080FE"/>
</svg>
