<svg width="24" height="24" viewBox="0 0 24 24" fill="none" xmlns="http://www.w3.org/2000/svg">
<path fill-rule="evenodd" clip-rule="evenodd" d="M13.7027 4.00022C13.755 4.00196 13.8064 4.01451 13.8534 4.03704C13.9004 4.05956 13.942 4.09155 13.9755 4.13092L16.4475 7.05182L18.9138 9.97272C18.9695 10.0381 19 10.1206 19 10.2057C19 10.2909 18.9695 10.3733 18.9138 10.4387L16.4475 13.3596L13.9755 16.2748C13.9268 16.3315 13.8617 16.3723 13.7887 16.3918C13.7157 16.4113 13.6384 16.4085 13.5671 16.3837C13.4958 16.359 13.4339 16.3136 13.3897 16.2535C13.3455 16.1934 13.3211 16.1216 13.3197 16.0475V12.9277C11.9912 12.6038 10.9702 12.5503 10.2384 12.7061C9.45665 12.8725 8.99604 13.2368 8.70639 13.8028C8.12708 14.935 8.36633 17.0159 9.24606 19.5196C9.27419 19.6009 9.27204 19.6894 9.23998 19.7693C9.20793 19.8492 9.14804 19.9154 9.07091 19.9562C8.99378 19.9971 8.90439 20.0099 8.81856 19.9924C8.73273 19.9748 8.656 19.9282 8.60193 19.8606C6.0833 16.6422 5.45576 13.3928 6.44904 10.9558C7.38024 8.6712 9.74582 7.18099 13.0412 7.16547C13.1337 7.16547 13.2258 7.16929 13.3197 7.17111V4.36387C13.3197 4.31514 13.3297 4.26691 13.3491 4.22202C13.3685 4.17714 13.3969 4.13652 13.4326 4.1026C13.4683 4.06867 13.5106 4.04213 13.557 4.02454C13.6034 4.00694 13.653 3.99866 13.7027 4.00018V4.00022Z" fill="#4080FE"/>
</svg>
