<svg width="24" height="24" viewBox="0 0 24 24" fill="none" xmlns="http://www.w3.org/2000/svg">
<path d="M15.4081 11.72C16.2181 11.9733 16.8525 12.4 17.3115 13C17.7705 13.5867 18 14.3133 18 15.18C18 16.4067 17.514 17.3533 16.5421 18.02C15.5836 18.6733 14.1796 19 12.3302 19H5V5H11.9252C13.6532 5 14.9761 5.32667 15.8941 5.98C16.8255 6.63333 17.2913 7.52 17.2913 8.64C17.2913 9.32 17.1225 9.92667 16.785 10.46C16.4611 10.9933 16.0021 11.4133 15.4081 11.72ZM8.26012 7.44V10.74H11.5202C12.3302 10.74 12.9444 10.6 13.3629 10.32C13.7814 10.04 13.9907 9.62667 13.9907 9.08C13.9907 8.53333 13.7814 8.12667 13.3629 7.86C12.9444 7.58 12.3302 7.44 11.5202 7.44H8.26012ZM12.0872 16.56C12.9512 16.56 13.5992 16.42 14.0312 16.14C14.4766 15.86 14.6994 15.4267 14.6994 14.84C14.6994 13.68 13.8287 13.1 12.0872 13.1H8.26012V16.56H12.0872Z" fill="#4080FE"/>
</svg>
