<svg width="24" height="24" viewBox="0 0 24 24" fill="none" xmlns="http://www.w3.org/2000/svg">
<path d="M19.1524 5.37871L18.6227 4.84904C18.0753 4.30166 17.3473 4 16.5726 4C15.7986 4 15.0706 4.30166 14.5225 4.84904L12.3407 7.03076C11.3464 8.02496 11.2274 9.56725 11.9816 10.6932L10.6935 11.9812C10.2204 11.6626 9.66313 11.4912 9.07961 11.4912C8.30559 11.4912 7.57761 11.7929 7.02949 12.3402L4.84766 14.522C3.71745 15.6521 3.71745 17.4911 4.84766 18.6213L5.37736 19.151C5.92477 19.6983 6.65275 20 7.42748 20C8.20149 20 8.92948 19.6983 9.47759 19.151L11.6594 16.9692C12.6537 15.975 12.7726 14.4327 12.0177 13.3068L13.3059 12.0188C13.7789 12.3374 14.3363 12.5088 14.9198 12.5088C15.6938 12.5088 16.4218 12.2071 16.9699 11.6597L19.1517 9.47802C20.2826 8.34786 20.2826 6.50887 19.1524 5.37871ZM10.3345 15.6443L8.15263 17.8261C7.9593 18.0194 7.70153 18.1263 7.42819 18.1263C7.15484 18.1263 6.89707 18.0201 6.70374 17.8261L6.17404 17.2964C5.77464 16.897 5.77464 16.247 6.17404 15.8476L8.35587 13.6659C8.5492 13.4725 8.80626 13.3656 9.08031 13.3656C9.15113 13.3656 9.22053 13.3727 9.2878 13.3869L8.19654 14.4781L9.5222 15.8037L10.6128 14.7132C10.6793 15.0389 10.5873 15.3915 10.3345 15.6443ZM17.8268 8.15242L15.6449 10.3341C15.4516 10.5275 15.1945 10.6344 14.9205 10.6344C14.8497 10.6344 14.7803 10.6273 14.713 10.6131L15.8043 9.52193L14.4786 8.19632L13.388 9.28683C13.3215 8.96039 13.4135 8.60845 13.6663 8.35565L15.8482 6.17393C16.0415 5.98061 16.2993 5.87369 16.5726 5.87369C16.846 5.87369 17.1037 5.9799 17.2971 6.17393L17.8268 6.70361C18.2262 7.10299 18.2262 7.75304 17.8268 8.15242Z" fill="#4080FE"/>
</svg>
