<svg width="17" height="16" viewBox="0 0 17 16" fill="none" xmlns="http://www.w3.org/2000/svg">
<path d="M0 0V16H17V0H0ZM2.58817 1.78721C3.124 1.78721 3.56036 2.19719 3.56036 2.70149C3.56036 3.2058 3.124 3.61651 2.58817 3.61651C2.05234 3.61651 1.61673 3.20653 1.61673 2.70149C1.61596 2.19791 2.05234 1.78721 2.58817 1.78721ZM2.58817 14.2135C2.05234 14.2135 1.61673 13.8035 1.61673 13.2992C1.61673 12.7949 2.05234 12.3842 2.58817 12.3842C3.124 12.3842 3.56036 12.7942 3.56036 13.2992C3.55959 13.8028 3.124 14.2135 2.58817 14.2135ZM14.4118 14.2135C13.876 14.2135 13.4396 13.8035 13.4396 13.2992C13.4396 12.7949 13.8752 12.3842 14.4118 12.3842C14.9484 12.3842 15.3833 12.7942 15.3833 13.2992C15.384 13.8028 14.9484 14.2135 14.4118 14.2135ZM14.4118 8.91501C14.0634 8.91501 13.758 8.74086 13.5861 8.48036H9.32494C9.24553 8.60081 9.1376 8.7024 9.00962 8.77714V12.5214C9.2864 12.6824 9.47144 12.9705 9.47144 13.2985C9.47144 13.8028 9.03583 14.2128 8.49923 14.2128C7.96263 14.2128 7.52704 13.8028 7.52704 13.2985C7.52704 12.9705 7.71207 12.6832 7.98885 12.5214V8.77714C7.86087 8.7024 7.75293 8.60081 7.67352 8.48036H3.41234C3.24118 8.74086 2.93511 8.91501 2.58663 8.91501C2.0508 8.91501 1.61519 8.50503 1.61519 8.00072C1.61519 7.49642 2.0508 7.08644 2.58663 7.08644C2.93511 7.08644 3.24041 7.26059 3.41234 7.52109H7.67352C7.75293 7.40063 7.86087 7.29905 7.98885 7.22431V3.48009C7.71207 3.319 7.52704 3.03093 7.52704 2.70295C7.52704 2.19864 7.9634 1.78866 8.49923 1.78866C9.03506 1.78866 9.47144 2.19864 9.47144 2.70295C9.47144 3.03093 9.2864 3.31828 9.00962 3.48009V7.22431C9.1376 7.29905 9.24553 7.40063 9.32494 7.52109H13.5861C13.7573 7.26059 14.0634 7.08644 14.4118 7.08644C14.9477 7.08644 15.3833 7.49642 15.3833 8.00072C15.384 8.50431 14.9484 8.91501 14.4118 8.91501ZM14.4118 3.61651C13.876 3.61651 13.4396 3.20653 13.4396 2.70149C13.4396 2.19719 13.8752 1.78721 14.4118 1.78721C14.9484 1.78721 15.3833 2.19719 15.3833 2.70149C15.384 3.20653 14.9484 3.61651 14.4118 3.61651Z" fill="#4080FE"/>
</svg>
