<svg width="17" height="10" viewBox="0 0 17 10" fill="none" xmlns="http://www.w3.org/2000/svg">
<path d="M6.92472 0.188431L6.83467 0H4.58622L0 10H2.53302L3.84076 7.14898H7.58466L8.8924 10H11.4254L6.92472 0.188431ZM6.70752 5.23659H4.71714L5.71233 3.06686L6.70752 5.23659ZM14.2354 2.58103H12.1678L11.6782 4.099H14.2233C14.8537 4.099 15.3668 4.57569 15.3668 5.16136V5.54665H14.1575C12.8535 5.54665 11.7932 6.53237 11.7932 7.74309C11.7932 8.9545 12.8543 9.93953 14.1575 9.93953H17V5.14941C17 3.73339 15.7596 2.58103 14.2354 2.58103ZM15.3661 7.06391V8.42157H14.1567C13.7541 8.42157 13.4256 8.11713 13.4256 7.74238C13.4256 7.36834 13.7533 7.06321 14.1567 7.06321H15.3661V7.06391Z" fill="#4080FE"/>
</svg>
