<svg width="17" height="16" viewBox="0 0 17 16" fill="none" xmlns="http://www.w3.org/2000/svg">
<path d="M16.0995 1.37871L15.5366 0.849037C14.955 0.301659 14.1815 0 13.3584 0C12.536 0 11.7625 0.301659 11.1802 0.849037L8.86196 3.03076C7.80557 4.02496 7.67916 5.56725 8.48048 6.69316L7.11184 7.98123C6.60922 7.66258 6.01707 7.49121 5.39708 7.49121C4.57469 7.49121 3.80121 7.79287 3.21884 8.34025L0.900642 10.522C-0.300214 11.6521 -0.300214 13.4911 0.900642 14.6213L1.46345 15.151C2.04507 15.6983 2.81855 16 3.6417 16C4.46409 16 5.23757 15.6983 5.81994 15.151L8.13813 12.9692C9.19453 11.975 9.32093 10.4327 8.51886 9.30684L9.8875 8.01876C10.3901 8.33742 10.9823 8.50878 11.6023 8.50878C12.4247 8.50878 13.1981 8.20712 13.7805 7.65975L16.0987 5.47802C17.3003 4.34786 17.3003 2.50887 16.0995 1.37871ZM6.73036 11.6443L4.41217 13.8261C4.20676 14.0194 3.93288 14.1263 3.64245 14.1263C3.35201 14.1263 3.07814 14.0201 2.87273 13.8261L2.30992 13.2964C1.88556 12.897 1.88556 12.247 2.30992 11.8476L4.62811 9.66585C4.83352 9.47254 5.10665 9.36561 5.39783 9.36561C5.47308 9.36561 5.54681 9.37269 5.61829 9.38685L4.45882 10.4781L5.86734 11.8037L7.02606 10.7132C7.09679 11.0389 6.99898 11.3915 6.73036 11.6443ZM14.6909 4.15242L12.3727 6.33414C12.1673 6.52746 11.8942 6.63439 11.603 6.63439C11.5278 6.63439 11.454 6.6273 11.3826 6.61314L12.542 5.52193L11.1335 4.19632L9.97478 5.28683C9.90406 4.96039 10.0019 4.60845 10.2705 4.35565L12.5887 2.17393C12.7941 1.98061 13.068 1.87369 13.3584 1.87369C13.6488 1.87369 13.9227 1.9799 14.1281 2.17393L14.6909 2.70361C15.1153 3.10299 15.1153 3.75304 14.6909 4.15242Z" fill="#4080FE"/>
</svg>
