<svg width="16" height="15" viewBox="0 0 16 15" fill="none" xmlns="http://www.w3.org/2000/svg">
<path d="M16 0.7206V3.09425H5.36253V0.7206H16ZM1.99868 0C0.89627 0 0 0.855352 0 1.90743C0 2.9595 0.89627 3.81485 1.99868 3.81485C3.10108 3.81485 3.99736 2.9595 3.99736 1.90743C3.99736 0.855352 3.10033 0 1.99868 0ZM5.36253 8.68683H16V6.31317H5.36253V8.68683ZM1.99868 5.59257C0.89627 5.59257 0 6.44792 0 7.5C0 8.55208 0.89627 9.40743 1.99868 9.40743C3.10108 9.40743 3.99736 8.55208 3.99736 7.5C3.99736 6.44792 3.10033 5.59257 1.99868 5.59257ZM5.36253 14.2794H16V11.9057H5.36253V14.2794ZM1.99868 11.1851C0.89627 11.1851 0 12.0405 0 13.0926C0 14.1446 0.89627 15 1.99868 15C3.10108 15 3.99736 14.1446 3.99736 13.0926C3.99736 12.0405 3.10033 11.1851 1.99868 11.1851Z" fill="#4080FE"/>
</svg>
