<svg width="16" height="16" viewBox="0 0 16 16" fill="none" xmlns="http://www.w3.org/2000/svg">
<path d="M7.51965 3.47936V7.22358C7.39919 7.29832 7.2976 7.39991 7.22286 7.52036H3.21234C3.1376 7.39991 3.036 7.29832 2.91555 7.22358V3.47936C3.036 3.40463 3.1376 3.30304 3.21234 3.18258H7.22286C7.2976 3.30304 7.39919 3.40463 7.51965 3.47936ZM7.22286 8.48036H3.21234C3.1376 8.60081 3.036 8.7024 2.91555 8.77714V12.5214C3.036 12.5961 3.1376 12.6977 3.21234 12.8181H7.22286C7.2976 12.6977 7.39919 12.5961 7.51965 12.5214V8.77714C7.39992 8.7024 7.2976 8.60081 7.22286 8.48036ZM12.7877 8.48036H8.77714C8.7024 8.60081 8.60083 8.7024 8.48037 8.77714V12.5214C8.60083 12.5961 8.7024 12.6977 8.77714 12.8181H12.7877C12.8624 12.6977 12.964 12.5961 13.0844 12.5214V8.77714C12.964 8.7024 12.8624 8.60081 12.7877 8.48036ZM16 0V16H0V0H16ZM14.0444 7.22358V3.47936C14.3049 3.31828 14.4791 3.0302 14.4791 2.70222C14.4791 2.19791 14.0691 1.78794 13.5648 1.78794C13.2368 1.78794 12.9495 1.96209 12.7877 2.22258H8.77714C8.61605 1.96209 8.32798 1.78794 8 1.78794C7.67202 1.78794 7.38467 1.96209 7.22286 2.22258H3.21234C3.05125 1.96209 2.76318 1.78794 2.4352 1.78794C1.93089 1.78794 1.52018 2.19791 1.52018 2.70222C1.52018 3.0302 1.69433 3.31755 1.95483 3.47936V7.22358C1.69433 7.38467 1.52018 7.67274 1.52018 8.00072C1.52018 8.32871 1.69433 8.61605 1.95483 8.77787V12.5221C1.69433 12.6832 1.52018 12.9712 1.52018 13.2992C1.52018 13.8035 1.93089 14.2135 2.4352 14.2135C2.76318 14.2135 3.05052 14.0394 3.21234 13.7789H7.22286C7.38395 14.0394 7.67202 14.2135 8 14.2135C8.32798 14.2135 8.61533 14.0394 8.77714 13.7789H12.7877C12.9488 14.0394 13.2368 14.2135 13.5648 14.2135C14.0691 14.2135 14.4791 13.8035 14.4791 13.2992C14.4791 12.9712 14.3049 12.6839 14.0444 12.5221V8.77787C14.3049 8.61678 14.4791 8.32871 14.4791 8.00072C14.4791 7.67202 14.3049 7.38467 14.0444 7.22358ZM12.7877 3.18186H8.77714C8.7024 3.30231 8.60083 3.4039 8.48037 3.47864V7.22285C8.60083 7.29759 8.7024 7.39918 8.77714 7.51964H12.7877C12.8624 7.39918 12.964 7.29759 13.0844 7.22285V3.47864C12.964 3.40462 12.8624 3.30304 12.7877 3.18186Z" fill="#4080FE"/>
</svg>
