<svg width="17" height="16" viewBox="0 0 17 16" fill="none" xmlns="http://www.w3.org/2000/svg">
<path d="M16.6651 7.37343L14.1797 4.85366C13.9631 4.63481 13.6763 4.51415 13.3702 4.51415C13.0642 4.51415 12.7773 4.63481 12.5607 4.85366L10.4339 7.00993L7.61437 0.301293L7.48352 0H4.93751L0 11.7474H2.96296L4.33723 8.47817H8.08823L8.35659 9.11673L7.85981 9.62039L11.9642 13.7815L16.6644 9.01555C16.881 8.7967 17 8.50515 17 8.19487C17.0007 7.88383 16.8817 7.59228 16.6651 7.37343ZM5.37663 6.00487L6.21274 4.01499L7.04882 6.00487H5.37663ZM11.273 14.4815L10.1101 15.6605C9.8935 15.8793 9.60668 16 9.30062 16C8.99457 16 8.70772 15.8793 8.49112 15.6605L6.00574 13.1407C5.78988 12.9211 5.67085 12.6303 5.67085 12.32C5.67085 12.0097 5.78988 11.7189 6.00574 11.4993L7.16859 10.3204L11.273 14.4815Z" fill="#4080FE"/>
</svg>
