<svg width="14" height="14" viewBox="0 0 14 14" fill="none" xmlns="http://www.w3.org/2000/svg">
<path d="M6.60415 8.6122L10.2622 14H7.3169L5.13111 10.7815L2.94533 14H0L3.65809 8.6122L0 3.22441H2.94533L5.13111 6.44292L7.3169 3.22441H10.2622L6.60415 8.6122ZM13.5533 2.65553C13.5709 2.63487 13.5884 2.6142 13.6067 2.59354C13.7631 2.41351 14 2.14198 14 1.66237V1.45726C14 0.653737 13.3523 0 12.5562 0C11.7601 0 11.1124 0.653737 11.1124 1.45726H12.0796C12.0796 1.19237 12.293 0.976915 12.5555 0.976915C12.8179 0.976915 13.0314 1.19237 13.0314 1.45726V1.66237C13.0314 1.7642 13.0043 1.80478 12.8786 1.94866C12.8581 1.97227 12.8377 1.99515 12.8179 2.01876L11.0591 3.96522V4.585H13.8699V3.60883H12.6907L13.5387 2.67028L13.5533 2.65553Z" fill="#4080FE"/>
</svg>
