<svg width="16" height="16" viewBox="0 0 16 16" fill="none" xmlns="http://www.w3.org/2000/svg">
<path d="M0 0V16H16V0H0ZM8.00071 1.78721C8.50502 1.78721 8.915 2.19719 8.915 2.7015C8.915 3.20581 8.50502 3.61651 8.00071 3.61651C7.4964 3.61651 7.08643 3.20653 7.08643 2.7015C7.08571 2.19719 7.4964 1.78721 8.00071 1.78721ZM2.43591 14.2128C1.9316 14.2128 1.5209 13.8028 1.5209 13.2985C1.5209 12.7942 1.9316 12.3835 2.43591 12.3835C2.94021 12.3835 3.3502 12.7935 3.3502 13.2985C3.35092 13.8021 2.94021 14.2128 2.43591 14.2128ZM2.43591 8.91428C1.9316 8.91428 1.5209 8.50431 1.5209 8C1.5209 7.49569 1.9316 7.08572 2.43591 7.08572C2.94021 7.08572 3.3502 7.49569 3.3502 8C3.3502 8.50431 2.94021 8.91428 2.43591 8.91428ZM8.00071 14.2128C7.4964 14.2128 7.08643 13.8028 7.08643 13.2985C7.08643 12.7942 7.49713 12.3835 8.00071 12.3835C8.50502 12.3835 8.915 12.7935 8.915 13.2985C8.915 13.8021 8.50502 14.2128 8.00071 14.2128ZM13.5648 14.2128C13.0605 14.2128 12.6505 13.8028 12.6505 13.2985C12.6505 13.2354 12.657 13.1737 12.6694 13.1142L8.2322 8.88381C8.15818 8.9034 8.08125 8.91428 8.00071 8.91428C7.4964 8.91428 7.08643 8.50431 7.08643 8C7.08643 7.93469 7.09369 7.87157 7.10675 7.81061L2.67391 3.58458C2.59845 3.6049 2.51935 3.61651 2.43736 3.61651C1.93305 3.61651 1.52236 3.20653 1.52236 2.7015C1.52236 2.19719 1.93305 1.78721 2.43736 1.78721C2.94167 1.78721 3.35165 2.19719 3.35165 2.7015C3.35165 2.76463 3.34512 2.8263 3.33278 2.8858L7.76997 7.11619C7.84398 7.0966 7.92089 7.08572 8.00144 7.08572C8.50574 7.08572 8.91573 7.49569 8.91573 8C8.91573 8.06531 8.90847 8.12843 8.89541 8.18939L13.3282 12.4154C13.4037 12.3951 13.4828 12.3835 13.5648 12.3835C14.0691 12.3835 14.4798 12.7935 14.4798 13.2985C14.4791 13.8021 14.0691 14.2128 13.5648 14.2128ZM13.5648 8.91428C13.0605 8.91428 12.6505 8.50431 12.6505 8C12.6505 7.49569 13.0612 7.08572 13.5648 7.08572C14.0691 7.08572 14.4798 7.49569 14.4798 8C14.4798 8.50431 14.0691 8.91428 13.5648 8.91428ZM13.5648 3.61651C13.0605 3.61651 12.6505 3.20653 12.6505 2.7015C12.6505 2.19719 13.0612 1.78721 13.5648 1.78721C14.0691 1.78721 14.4798 2.19719 14.4798 2.7015C14.4791 3.20581 14.0691 3.61651 13.5648 3.61651Z" fill="#4080FE"/>
</svg>
