<svg width="16" height="16" viewBox="0 0 16 16" fill="none" xmlns="http://www.w3.org/2000/svg">
<path d="M0 0V16H16V0H0ZM2.43592 14.2135C1.93161 14.2135 1.52163 13.8035 1.52163 13.2992C1.52163 12.7949 1.93161 12.3842 2.43592 12.3842C2.94023 12.3842 3.35092 12.7942 3.35092 13.2992C3.3502 13.8028 2.94023 14.2135 2.43592 14.2135ZM2.43592 8.91501C1.93161 8.91501 1.52163 8.50503 1.52163 8.00072C1.52163 7.49642 1.93161 7.08644 2.43592 7.08644C2.94023 7.08644 3.35092 7.49642 3.35092 8.00072C3.3502 8.50431 2.94023 8.91501 2.43592 8.91501ZM8 14.2135C7.49569 14.2135 7.085 13.8035 7.085 13.2992C7.085 12.7949 7.49497 12.3842 8 12.3842C8.50503 12.3842 8.91502 12.7942 8.91502 13.2992C8.91429 13.8028 8.50431 14.2135 8 14.2135ZM8 8.91501C7.49569 8.91501 7.085 8.50503 7.085 8.00072C7.085 7.49642 7.49497 7.08644 8 7.08644C8.50503 7.08644 8.91502 7.49642 8.91502 8.00072C8.91429 8.50431 8.50431 8.91501 8 8.91501ZM13.5641 14.2135C13.0598 14.2135 12.6491 13.8035 12.6491 13.2992C12.6491 12.7949 13.0598 12.3842 13.5641 12.3842C14.0684 12.3842 14.4784 12.7942 14.4784 13.2992C14.4791 13.8028 14.0684 14.2135 13.5641 14.2135ZM13.5641 8.91501C13.0598 8.91501 12.6491 8.50503 12.6491 8.00072C12.6491 7.49642 13.0598 7.08644 13.5641 7.08644C14.0684 7.08644 14.4784 7.49642 14.4784 8.00072C14.4791 8.50431 14.0684 8.91501 13.5641 8.91501ZM13.5641 3.61651C13.2361 3.61651 12.9488 3.44236 12.7869 3.18186H8.77641C8.61532 3.44236 8.32726 3.61651 7.99927 3.61651C7.67129 3.61651 7.38395 3.44236 7.22213 3.18186H3.21161C3.05052 3.44236 2.76245 3.61651 2.43447 3.61651C1.93016 3.61651 1.52018 3.20653 1.52018 2.70149C1.52018 2.19719 1.93016 1.78721 2.43447 1.78721C2.76245 1.78721 3.0498 1.96136 3.21161 2.22186H7.22213C7.38322 1.96136 7.67129 1.78721 7.99927 1.78721C8.32726 1.78721 8.6146 1.96136 8.77641 2.22186H12.7869C12.948 1.96136 13.2361 1.78721 13.5641 1.78721C14.0684 1.78721 14.4784 2.19719 14.4784 2.70149C14.4791 3.20653 14.0684 3.61651 13.5641 3.61651Z" fill="#4080FE"/>
</svg>
