<svg width="14" height="16" viewBox="0 0 14 16" fill="none" xmlns="http://www.w3.org/2000/svg">
<path d="M10.9954 3.23077H7.54682V2.477L5.07361 0H0V10.4682H4.859V16H14V6.23924L10.9954 3.23077ZM1.75074 1.4067H4.54957V2.38057H1.75074V1.4067ZM4.85826 8.9032H1.75074V7.92933H4.85826V8.9032ZM4.85826 6.72874H1.75074V5.75488H4.85826V6.72874ZM4.85826 4.55502H1.75074V3.58116H4.85826V4.55502ZM6.91622 4.97902H10.3934V5.95289H6.91622V4.97902ZM12.2427 14.0559H6.91622V13.0821H12.2427V14.0559ZM12.2427 11.3552H6.91622V10.3813H12.2427V11.3552ZM12.2427 8.6544H6.91622V7.68053H12.2427V8.6544Z" fill="#4080FE"/>
</svg>
