<svg width="12" height="16" viewBox="0 0 12 16" fill="none" xmlns="http://www.w3.org/2000/svg">
<path d="M7.15498 0H0V16H12V4.65342L7.15498 0ZM9.25722 10.018H8.0471L7.66411 11.7624H8.71787V12.7224H7.45336L7.13534 14.1685L6.15713 13.9704L6.43132 12.7231H4.76269L4.44468 14.1692L3.46644 13.9712L3.74066 12.7238H2.74204V11.7638H3.95217L4.33513 10.0194H3.28138V9.05941H4.54589L4.8639 7.61324L5.84214 7.81133L5.56792 9.05868H7.23657L7.55458 7.61251L8.5328 7.8106L8.25861 9.05796H9.25722V10.018ZM7.25394 4.55836V1.25242L10.6955 4.55836H7.25394ZM5.35717 10.018H7.02582L6.64283 11.7624H4.97418L5.35717 10.018Z" fill="#4080FE"/>
</svg>
