<svg width="15" height="18" viewBox="0 0 15 18" fill="none" xmlns="http://www.w3.org/2000/svg">
<path d="M15 1.9237H8.91212L7.5 0L6.08788 1.9237H0V16.0763H6.08788L7.5 18L8.91212 16.0763H15V1.9237ZM14.0593 15.1416H9.59827L10.1792 14.3504H8.44141V12.7736H6.5593V14.3504H4.82153L5.40245 15.1416H0.9407V2.85906H5.40174L4.82082 3.6503H6.55859V5.22713H8.4407V3.6503H10.1785L9.59756 2.85906H14.0586V15.1416H14.0593ZM4.28541 7.6828C4.28541 8.1639 3.8915 8.55528 3.40728 8.55528C2.92307 8.55528 2.52915 8.1639 2.52915 7.6828C2.52915 7.2017 2.92307 6.81032 3.40728 6.81032C3.8915 6.81032 4.28541 7.2017 4.28541 7.6828ZM4.28541 10.3179C4.28541 10.799 3.8915 11.1904 3.40728 11.1904C2.92307 11.1904 2.52915 10.799 2.52915 10.3179C2.52915 9.8368 2.92307 9.44543 3.40728 9.44543C3.8915 9.44543 4.28541 9.8368 4.28541 10.3179ZM5.52972 7.21512H12.0336V8.14977H5.52972V7.21512ZM12.0336 10.7849H5.52972V9.85023H12.0336V10.7849Z" fill="#4080FE"/>
</svg>
