<svg width="16" height="16" viewBox="0 0 16 16" fill="none" xmlns="http://www.w3.org/2000/svg">
<path d="M4.62868 4.66447H3.46616L4.04706 3.35836L4.62868 4.66447ZM16 0V16H0V0H16ZM1.56701 6.54338H2.63062L3.04692 5.60892H5.04941L5.4657 6.54338H6.52932L4.71578 2.46812H3.38202L1.56701 6.54338ZM14.0042 13.3635H1.99511V14.3073H14.0042V13.3635ZM14.0042 11.0502H1.99511V11.9939H14.0042V11.0502ZM14.0042 8.73759H1.99511V9.68132H14.0042V8.73759ZM14.0042 6.42425H8.24099V7.36799H14.0042V6.42425ZM14.0042 4.11092H8.24099V5.05466H14.0042V4.11092ZM14.0042 1.7983H8.24099V2.74204H14.0042V1.7983Z" fill="#4080FE"/>
</svg>
