<svg width="14" height="13" viewBox="0 0 14 13" fill="none" xmlns="http://www.w3.org/2000/svg">
<path d="M10.2622 0L6.60413 5.29131L10.2622 10.5826H7.31689L5.13111 7.42174L2.94533 10.5826H0L3.65809 5.29131L0 0H2.94533L5.13111 3.16087L7.31689 0H10.2622ZM13.5533 11.1051C13.5709 11.0848 13.5884 11.0645 13.6067 11.0442C13.7631 10.8674 14 10.6007 14 10.1297V9.92826C14 9.13913 13.3523 8.4971 12.5562 8.4971C11.7601 8.4971 11.1124 9.13913 11.1124 9.92826H12.0796C12.0796 9.66812 12.293 9.45652 12.5555 9.45652C12.8179 9.45652 13.0314 9.66812 13.0314 9.92826V10.1297C13.0314 10.2297 13.0043 10.2696 12.8786 10.4109C12.8581 10.4341 12.8376 10.4565 12.8179 10.4797L11.1014 12.3449V13H13.9232V12.0406H12.6907L13.5387 11.1188L13.5533 11.1051Z" fill="#4080FE"/>
</svg>
