<svg width="15" height="14" viewBox="0 0 15 14" fill="none" xmlns="http://www.w3.org/2000/svg">
<path d="M14.6398 9.75912C14.1142 8.82409 13.0981 8.24305 11.9881 8.24305C11.494 8.24305 11.0028 8.36172 10.5654 8.58605C10.2198 8.76372 9.92648 8.99765 9.68842 9.26862L8.57767 7.29087L12.1903 0.859567L10.5181 0L7.49991 5.37279L4.48177 0L2.80955 0.859567L6.42215 7.29087L5.31141 9.26862C5.07334 8.99765 4.77934 8.76372 4.43443 8.58605C3.99773 8.36172 3.50583 8.24305 3.01177 8.24305C1.90103 8.24305 0.88492 8.82409 0.360024 9.75912C-0.0207414 10.4362 -0.102485 11.2148 0.129129 11.9509C0.360743 12.687 0.877756 13.2927 1.58551 13.657C2.0222 13.8813 2.51412 14 3.00818 14C4.11821 14 5.1343 13.419 5.65991 12.4839L7.49991 9.20894L9.33993 12.4839C9.86554 13.419 10.8816 14 11.9917 14C12.485 14 12.9769 13.8813 13.4143 13.657C14.1221 13.2927 14.6398 12.687 14.8714 11.9509C15.1023 11.2148 15.0206 10.4362 14.6398 9.75912ZM3.00818 12.1841C2.82461 12.1841 2.64821 12.1416 2.484 12.0572C2.22298 11.9228 2.03153 11.6991 1.94619 11.4275C1.86086 11.1558 1.89098 10.8684 2.03152 10.6187C2.22585 10.2736 2.60089 10.0589 3.01177 10.0589C3.19534 10.0589 3.37173 10.1014 3.53594 10.1858C4.07517 10.463 4.27811 11.1085 3.98841 11.6244C3.79409 11.9701 3.41906 12.1841 3.00818 12.1841ZM13.0529 11.4275C12.9676 11.6991 12.7768 11.9228 12.5151 12.0572C12.3509 12.1416 12.1752 12.1841 11.9917 12.1841C11.5815 12.1841 11.2057 11.9694 11.0114 11.6244C10.7217 11.1085 10.9246 10.463 11.4639 10.1858C11.6281 10.1014 11.8038 10.0589 11.9881 10.0589C12.3982 10.0589 12.774 10.2736 12.9683 10.6187C13.1081 10.8691 13.1382 11.1558 13.0529 11.4275Z" fill="#4080FE"/>
</svg>
