<svg width="16" height="16" viewBox="0 0 16 16" fill="none" xmlns="http://www.w3.org/2000/svg">
<path d="M0 0V16H16V0H0ZM8.00073 1.78721C8.50503 1.78721 8.915 2.19719 8.915 2.7015C8.915 3.20581 8.50503 3.61651 8.00073 3.61651C7.49642 3.61651 7.08571 3.20653 7.08571 2.7015C7.08571 2.19719 7.49642 1.78721 8.00073 1.78721ZM2.43592 1.78721C2.94023 1.78721 3.35092 2.19719 3.35092 2.7015C3.35092 3.20581 2.94023 3.61651 2.43592 3.61651C1.93161 3.61651 1.52163 3.20653 1.52163 2.7015C1.52163 2.19719 1.93161 1.78721 2.43592 1.78721ZM2.43592 14.2128C1.93161 14.2128 1.52163 13.8028 1.52163 13.2985C1.52163 12.7942 1.93161 12.3842 2.43592 12.3842C2.94023 12.3842 3.35092 12.7942 3.35092 13.2985C3.35092 13.8028 2.94023 14.2128 2.43592 14.2128ZM8.00073 14.2128C7.49642 14.2128 7.08571 13.8028 7.08571 13.2985C7.08571 12.7942 7.49569 12.3842 8.00073 12.3842C8.50503 12.3842 8.915 12.7942 8.915 13.2985C8.915 13.8028 8.50503 14.2128 8.00073 14.2128ZM13.5648 14.2128C13.0605 14.2128 12.6505 13.8028 12.6505 13.2985C12.6505 12.7942 13.0605 12.3842 13.5648 12.3842C14.0691 12.3842 14.4791 12.7942 14.4791 13.2985C14.4791 13.8028 14.0691 14.2128 13.5648 14.2128ZM13.5648 8.91428C13.2368 8.91428 12.9495 8.74014 12.7877 8.47964H8.77714C8.61605 8.74014 8.32798 8.91428 8 8.91428C7.67202 8.91428 7.38467 8.74014 7.22286 8.47964H3.21234C3.05125 8.74014 2.76318 8.91428 2.4352 8.91428C1.93089 8.91428 1.5209 8.50431 1.5209 7.99927C1.5209 7.49497 1.93089 7.08499 2.4352 7.08499C2.76318 7.08499 3.05052 7.25914 3.21234 7.51964H7.22286C7.38395 7.25914 7.67202 7.08499 8 7.08499C8.32798 7.08499 8.61533 7.25914 8.77714 7.51964H12.7877C12.9488 7.25914 13.2368 7.08499 13.5648 7.08499C14.0691 7.08499 14.4791 7.49497 14.4791 7.99927C14.4791 8.50431 14.0691 8.91428 13.5648 8.91428ZM13.5648 3.61651C13.0605 3.61651 12.6505 3.20653 12.6505 2.7015C12.6505 2.19719 13.0605 1.78721 13.5648 1.78721C14.0691 1.78721 14.4791 2.19719 14.4791 2.7015C14.4791 3.20581 14.0691 3.61651 13.5648 3.61651Z" fill="#4080FE"/>
</svg>
