<svg width="16" height="16" viewBox="0 0 16 16" fill="none" xmlns="http://www.w3.org/2000/svg">
<path d="M0 0V16H16V0H0ZM14.4791 8C14.4791 8.32798 14.3049 8.61533 14.0444 8.77714V12.5214C14.3049 12.6824 14.4791 12.9705 14.4791 13.2985C14.4791 13.8028 14.0684 14.2128 13.5641 14.2128C13.2361 14.2128 12.9488 14.0386 12.7869 13.7781H8.77641C8.61532 14.0386 8.32726 14.2128 7.99927 14.2128C7.67129 14.2128 7.38395 14.0386 7.22213 13.7781H3.21161C3.05052 14.0386 2.76245 14.2128 2.43447 14.2128C1.93016 14.2128 1.52018 13.8028 1.52018 13.2985C1.52018 12.9705 1.69433 12.6832 1.95483 12.5214V8.77714C1.69433 8.61605 1.52018 8.32798 1.52018 8C1.52018 7.67202 1.69433 7.38467 1.95483 7.22285V3.47864C1.69433 3.31755 1.52018 3.02948 1.52018 2.70149C1.52018 2.19719 1.93016 1.78721 2.43447 1.78721C2.76245 1.78721 3.0498 1.96136 3.21161 2.22186H7.22213C7.38322 1.96136 7.67129 1.78721 7.99927 1.78721C8.32726 1.78721 8.6146 1.96136 8.77641 2.22186H12.7869C12.948 1.96136 13.2361 1.78721 13.5641 1.78721C14.0684 1.78721 14.4791 2.19719 14.4791 2.70149C14.4791 3.02948 14.3049 3.31682 14.0444 3.47864V7.22285C14.3049 7.38467 14.4791 7.67202 14.4791 8ZM13.0844 7.22358V3.47936C12.964 3.40463 12.8624 3.30304 12.7877 3.18258H8.77714C8.61605 3.44308 8.32798 3.61724 8 3.61724C7.67202 3.61724 7.38467 3.44308 7.22286 3.18258H3.21234C3.1376 3.30304 3.036 3.40463 2.91555 3.47936V7.22358C3.17605 7.38467 3.3502 7.67274 3.3502 8.00072C3.3502 8.32871 3.17605 8.61605 2.91555 8.77787V12.5221C3.036 12.5968 3.1376 12.6984 3.21234 12.8189H7.22286C7.38395 12.5584 7.67202 12.3842 8 12.3842C8.32798 12.3842 8.61533 12.5584 8.77714 12.8189H12.7877C12.8624 12.6984 12.964 12.5968 13.0844 12.5221V8.77787C12.824 8.61678 12.6498 8.32871 12.6498 8.00072C12.6498 7.67202 12.824 7.38467 13.0844 7.22358ZM8.00073 8.91501C7.49642 8.91501 7.08572 8.50503 7.08572 8.00072C7.08572 7.49642 7.49569 7.08644 8.00073 7.08644C8.50503 7.08644 8.91502 7.49642 8.91502 8.00072C8.91502 8.50431 8.50503 8.91501 8.00073 8.91501Z" fill="#4080FE"/>
</svg>
