<svg width="15" height="15" viewBox="0 0 15 15" fill="none" xmlns="http://www.w3.org/2000/svg">
<path d="M14.9993 0.856617V3.19633H4.54534V0.856617H14.9993ZM4.54534 8.70892H15V6.36921H4.54534V8.70892ZM4.54534 14.2222H15V11.8825H4.54534V14.2222ZM2.36951 12.7853C2.43408 12.6397 2.47044 12.4799 2.47044 12.3115C2.47044 11.6446 1.90348 11.1012 1.20591 11.1012H0.372533V12.0409H1.20517C1.36101 12.0409 1.48716 12.1624 1.48716 12.3108C1.48716 12.4593 1.36026 12.5807 1.20517 12.5807H0.372533V13.5205H1.66823C1.82407 13.5205 1.95023 13.6419 1.95023 13.7904C1.95023 13.9388 1.82333 14.0603 1.66823 14.0603H0.372533V15H1.66823C2.36506 15 2.93277 14.4573 2.93277 13.7897C2.93277 13.3727 2.70865 13.0027 2.36951 12.7853ZM2.32573 7.88143C2.34057 7.86438 2.35541 7.84805 2.371 7.83171C2.50532 7.6861 2.72943 7.44176 2.72943 7.02197V6.85363C2.72943 6.15612 2.1365 5.5886 1.40776 5.5886C0.679019 5.5886 0.0860832 6.15612 0.0860832 6.85363H1.06788C1.06788 6.67464 1.22001 6.52903 1.40702 6.52903C1.59402 6.52903 1.74615 6.67464 1.74615 6.85363V7.02197C1.74615 7.0788 1.73947 7.09513 1.63261 7.21091C1.6148 7.23009 1.59773 7.24926 1.58067 7.26844L0 8.92698V9.48882H2.63519V8.54982H1.68975L2.31237 7.89634L2.32573 7.88143ZM1.92871 0H1.3239L0.127641 1.145L0.822243 1.80983L0.946915 1.6905V3.02728H0.474942V3.967H2.33983V3.02728H1.92871V0Z" fill="#4080FE"/>
</svg>
