<svg width="15" height="16" viewBox="0 0 15 16" fill="none" xmlns="http://www.w3.org/2000/svg">
<path d="M13.4601 5.04842L13.2991 4.89459C12.8815 4.49575 12.3262 4.27581 11.7352 4.27581C11.1441 4.27581 10.5888 4.49575 10.1713 4.89459L10.1421 4.92243L5.96779 0.935481L5.16398 1.70322V0H4.19982V2.62479L0.39426 6.25954C0.139924 6.50246 0 6.82473 0 7.16857C0 7.51242 0.139924 7.83469 0.39426 8.07761L5.01677 12.4926C5.2711 12.7355 5.60851 12.8692 5.96852 12.8692C6.32852 12.8692 6.66594 12.7355 6.92028 12.4926L10.3972 9.17179V14.7381C10.3972 15.4334 10.9897 16 11.7184 16C12.4464 16 13.0396 15.4341 13.0396 14.7381V13.7114C13.5352 13.5297 13.8886 13.0697 13.8886 12.533V11.9629C14.5176 11.8669 15 11.3448 15 10.717V8.59477C14.9985 7.25488 14.452 5.99574 13.4601 5.04842ZM14.0337 10.717C14.0337 10.9049 13.8741 11.0574 13.6773 11.0574H13.2787C13.0819 11.0574 12.9223 11.2098 12.9223 11.3977V12.5323C12.9223 12.7202 12.7627 12.8727 12.566 12.8727H12.4304C12.2336 12.8727 12.074 13.0251 12.074 13.213V14.7367C12.074 14.9246 11.9144 15.077 11.7177 15.077C11.5209 15.077 11.3613 14.9246 11.3613 14.7367V8.61635L12.8735 8.38665C13.1963 8.33793 13.3246 7.95997 13.0936 7.73933L10.8257 5.57323L10.8548 5.5454C11.0982 5.31292 11.4174 5.19668 11.7366 5.19668C12.0558 5.19668 12.375 5.31292 12.6184 5.5454L12.7795 5.69922C13.5833 6.46696 14.0351 7.50824 14.0351 8.59407V10.717H14.0337Z" fill="#4080FE"/>
</svg>
