<svg width="16" height="16" viewBox="0 0 16 16" fill="none" xmlns="http://www.w3.org/2000/svg">
<path d="M16 9.7459H13.2793C13.42 10.2011 13.4966 10.6859 13.4966 11.1878C13.4966 13.8412 11.373 16 8.76314 16H3.48279L2.29051 12.7536H8.76314C9.61196 12.7536 10.3025 12.0515 10.3025 11.1886C10.3025 10.5414 9.91386 9.98388 9.3611 9.74664H0V7.45733H3.28518C2.79149 6.69743 2.50272 5.78853 2.50272 4.81216C2.50272 2.15884 4.62623 0 7.23614 0H11.2287L12.0279 3.24641H7.23614C6.38732 3.24641 5.69673 3.94848 5.69673 4.81142C5.69673 5.67436 6.38732 6.37643 7.23614 6.37643H8.76314C9.89344 6.37643 10.9326 6.78195 11.7471 7.45658H15.9993V9.7459H16Z" fill="#4080FE"/>
</svg>
